<?xml version="1.0" standalone="no"?>
<!DOCTYPE svg PUBLIC "-//W3C//DTD SVG 1.1//EN" "http://www.w3.org/Graphics/SVG/1.1/DTD/svg11.dtd" >
<svg>
<metadata>
Created by FontForge 20090914 at Sun Sep 22 22:43:26 2019
 By www-data
Copyright (c) 2019 by www.fontiran.com (Moslem Ebrahimi). All rights reserved.
</metadata>
<defs>
<font id="dana-black" horiz-adv-x="0" >
  <font-face 
    font-family="dana black"
    font-weight="900"
    font-stretch="normal"
    units-per-em="1000"
    panose-1="0 0 10 0 0 0 0 0 0 0"
    ascent="800"
    descent="-200"
    x-height="519.999"
    cap-height="700"
    bbox="-160.001 -717.001 1604 1133"
    underline-thickness="30"
    underline-position="-220"
    unicode-range="U+000D-U+FEFF"
  />
<missing-glyph horiz-adv-x="300" 
d="M270 525v-550h-240v550h240zM230 475h-160v-450h160v450z" />
    <glyph glyph-name="uniFEF5" unicode="&#xfedf;&#xfe82;" horiz-adv-x="619" arabic-form="isolated" 
d="M546.5 105.5c-17 -33 -41.499 -58.832 -73.499 -77.499s-69.333 -28 -112 -28h-253v180h253c20 0 33.167 2.16699 39.5 6.5s9.16602 12.166 8.49902 23.499l-19 496l160 8l19 -496c2 -42 -5.5 -79.5 -22.5 -112.5zM135.001 220.001l-85 421l157 32l85 -421z
M62.501 803.501c18.333 19 42.5 28.5 72.5 28.5c10.667 0 18.667 -0.666992 24 -2l101 -19c2.66699 -0.666992 6.66699 -1 12 -1c12 0 18 5 18 15v3l80 6v-27c0 -31.333 -9.16699 -56.5 -27.5 -75.5s-42.5 -28.5 -72.5 -28.5c-10.667 0 -18.667 0.666992 -24 2l-101 19
c-2.66699 0.666992 -6.66699 1 -12 1c-12 0 -18 -5 -18 -15v-3l-80 -6v27c0 31.333 9.16699 56.5 27.5 75.5z" />
    <glyph glyph-name="uniFEF6" unicode="&#xfee0;&#xfe82;" horiz-adv-x="632" arabic-form="final" 
d="M637 180l0.000976562 -179.999h-20c-47.333 0 -89 13.667 -125 41c-36 -27.333 -79.667 -41 -131 -41h-253v180h253c20 0 33.167 2.16699 39.5 6.5s9.16602 12.166 8.49902 23.499l-19 496l160 8l19 -490c0.666992 -17.333 4.5 -29 11.5 -35s19.167 -9 36.5 -9h20z
M135.001 220.001l-85 421l157 32l85 -421zM62.501 803.501c18.333 19 42.5 28.5 72.5 28.5c10.667 0 18.667 -0.666992 24 -2l101 -19c2.66699 -0.666992 6.66699 -1 12 -1c12 0 18 5 18 15v3l80 6v-27c0 -31.333 -9.16699 -56.5 -27.5 -75.5s-42.5 -28.5 -72.5 -28.5
c-10.667 0 -18.667 0.666992 -24 2l-101 19c-2.66699 0.666992 -6.66699 1 -12 1c-12 0 -18 -5 -18 -15v-3l-80 -6v27c0 31.333 9.16699 56.5 27.5 75.5z" />
    <glyph glyph-name="uniFEF7" unicode="&#xfedf;&#xfe84;" horiz-adv-x="619" arabic-form="isolated" 
d="M546.5 105.5c-17 -33 -41.499 -58.832 -73.499 -77.499s-69.333 -28 -112 -28h-253v180h253c20 0 33.167 2.16699 39.5 6.5s9.16602 12.166 8.49902 23.499l-19 496l160 8l19 -496c2 -42 -5.5 -79.5 -22.5 -112.5zM135.001 220.001l-85 421l157 32l85 -421z
M188.001 725.001l-9.99902 -2.00098l-162 -38l-19 86l64 15c-4 6.66699 -7.66699 16.667 -11 30c-2.66699 8.66699 -4 18.667 -4 30c0 32.667 11.5 60.834 34.5 84.501s50.5 35.5 82.5 35.5c15.333 0 45.666 -4.66699 90.999 -14l-15 -86c-34 6 -59 9 -75 9
c-11.333 0 -20.833 -3 -28.5 -9s-11.5 -13.667 -11.5 -23c0 -3.33301 0.333008 -6 1 -8c2 -7.33301 7.16699 -13.333 15.5 -18s16.833 -6.66699 25.5 -6l116 28l19 -87z" />
    <glyph glyph-name="uniFEF8" unicode="&#xfee0;&#xfe84;" horiz-adv-x="632" arabic-form="final" 
d="M637 180l0.000976562 -179.999h-20c-47.333 0 -89 13.667 -125 41c-36 -27.333 -79.667 -41 -131 -41h-253v180h253c20 0 33.167 2.16699 39.5 6.5s9.16602 12.166 8.49902 23.499l-19 496l160 8l19 -490c0.666992 -17.333 4.5 -29 11.5 -35s19.167 -9 36.5 -9h20z
M135.001 220.001l-85 421l157 32l85 -421zM188.001 716.001l-9.99902 -2.00098l-162 -38l-19 86l64 15c-4 6.66699 -7.66699 16.667 -11 30c-2.66699 8.66699 -4 18.667 -4 30c0 32.667 11.5 60.834 34.5 84.501s50.5 35.5 82.5 35.5c15.333 0 45.666 -4.66699 90.999 -14
l-15 -86c-34 6 -59 9 -75 9c-11.333 0 -20.833 -3 -28.5 -9s-11.5 -13.667 -11.5 -23c0 -3.33301 0.333008 -6 1 -8c2 -7.33301 7.16699 -13.333 15.5 -18s16.833 -6.66699 25.5 -6l116 28l19 -87z" />
    <glyph glyph-name="uniFEF9" unicode="&#xfedf;&#xfe88;" horiz-adv-x="619" arabic-form="isolated" 
d="M546.5 105.5c-17 -33 -41.499 -58.832 -73.499 -77.499s-69.333 -28 -112 -28h-253v180h253c20 0 33.167 2.16699 39.5 6.5s9.16602 12.166 8.49902 23.499l-19 496l160 8l19 -496c2 -42 -5.5 -79.5 -22.5 -112.5zM135.001 220.001l-85 421l157 32l85 -421z
M241.001 -264.999l-9.99902 -2.00098l-162 -38l-19 86l64 15c-4 6.66699 -7.66699 16.667 -11 30c-2.66699 8.66699 -4 18.667 -4 30c0 32.667 11.5 60.834 34.5 84.501s50.5 35.5 82.5 35.5c15.333 0 45.666 -4.66699 90.999 -14l-15 -86c-34 6 -59 9 -75 9
c-11.333 0 -20.833 -3 -28.5 -9s-11.5 -13.667 -11.5 -23c0 -3.33301 0.333008 -6 1 -8c2 -7.33301 7.16699 -13.333 15.5 -18s16.833 -6.66699 25.5 -6l116 28l19 -87z" />
    <glyph glyph-name="uniFEFA" unicode="&#xfee0;&#xfe88;" horiz-adv-x="632" arabic-form="final" 
d="M637 180l0.000976562 -179.999h-20c-47.333 0 -89 13.667 -125 41c-36 -27.333 -79.667 -41 -131 -41h-253v180h253c20 0 33.167 2.16699 39.5 6.5s9.16602 12.166 8.49902 23.499l-19 496l160 8l19 -490c0.666992 -17.333 4.5 -29 11.5 -35s19.167 -9 36.5 -9h20z
M135.001 220.001l-85 421l157 32l85 -421zM241.001 -264.999l-9.99902 -2.00098l-162 -38l-19 86l64 15c-4 6.66699 -7.66699 16.667 -11 30c-2.66699 8.66699 -4 18.667 -4 30c0 32.667 11.5 60.834 34.5 84.501s50.5 35.5 82.5 35.5c15.333 0 45.666 -4.66699 90.999 -14
l-15 -86c-34 6 -59 9 -75 9c-11.333 0 -20.833 -3 -28.5 -9s-11.5 -13.667 -11.5 -23c0 -3.33301 0.333008 -6 1 -8c2 -7.33301 7.16699 -13.333 15.5 -18s16.833 -6.66699 25.5 -6l116 28l19 -87z" />
    <glyph glyph-name="uniFEFB" unicode="&#xfedf;&#xfe8e;" horiz-adv-x="619" arabic-form="isolated" 
d="M546.5 105.5c-17 -33 -41.499 -58.832 -73.499 -77.499s-69.333 -28 -112 -28h-253v180h253c20 0 33.167 2.16699 39.5 6.5s9.16602 12.166 8.49902 23.499l-19 496l160 8l19 -496c2 -42 -5.5 -79.5 -22.5 -112.5zM135.001 220.001l-85 421l157 32l85 -421z" />
    <glyph glyph-name="uniFEFC" unicode="&#xfee0;&#xfe8e;" horiz-adv-x="632" arabic-form="final" 
d="M637 180l0.000976562 -179.999h-20c-47.333 0 -89 13.667 -125 41c-36 -27.333 -79.667 -41 -131 -41h-253v180h253c20 0 33.167 2.16699 39.5 6.5s9.16602 12.166 8.49902 23.499l-19 496l160 8l19 -490c0.666992 -17.333 4.5 -29 11.5 -35s19.167 -9 36.5 -9h20z
M135.001 220.001l-85 421l157 32l85 -421z" />
    <glyph glyph-name="uni06440671" unicode="&#xfedf;&#xfb51;" horiz-adv-x="619" 
d="M546.5 105.5c-17 -33 -41.499 -58.832 -73.499 -77.499s-69.333 -28 -112 -28h-253v180h253c20 0 33.167 2.16699 39.5 6.5s9.16602 12.166 8.49902 23.499l-19 496l160 8l19 -496c2 -42 -5.5 -79.5 -22.5 -112.5zM135.001 220.001l-85 421l157 32l85 -421z
M317.001 906.501c20.667 -22.333 31.001 -50.168 31.001 -83.501c0 -29.333 -10.833 -55 -32.5 -77s-46.834 -33 -75.501 -33h-138c-7.33301 0 -13.333 -2 -18 -6s-13 -13.667 -25 -29l-67 51c16.667 24 31.5 41.333 44.5 52s27.167 17.334 42.5 20.001l32 44
c16 21.333 29.167 38 39.5 50s23.166 22.5 38.499 31.5s32.333 13.5 51 13.5c30.667 0 56.334 -11.167 77.001 -33.5zM261.502 809.499c6.33301 4.33301 9.5 10.5 9.5 18.5s-3 14.333 -9 19s-13.333 7 -22 7c-9.33301 0 -18 -3 -26 -9s-18.667 -17.667 -32 -35l-5 -7h63
c8 0 15.167 2.16699 21.5 6.5z" />
    <glyph glyph-name="uni06440671.fina" unicode="&#xfee0;&#xfb51;" horiz-adv-x="632" 
d="M637 180l0.000976562 -179.999h-20c-47.333 0 -89 13.667 -125 41c-36 -27.333 -79.667 -41 -131 -41h-253v180h253c20 0 33.167 2.16699 39.5 6.5s9.16602 12.166 8.49902 23.499l-19 496l160 8l19 -490c0.666992 -17.333 4.5 -29 11.5 -35s19.167 -9 36.5 -9h20z
M135.001 220.001l-85 421l157 32l85 -421zM317.001 906.501c20.667 -22.333 31.001 -50.168 31.001 -83.501c0 -29.333 -10.833 -55 -32.5 -77s-46.834 -33 -75.501 -33h-138c-7.33301 0 -13.333 -2 -18 -6s-13 -13.667 -25 -29l-67 51c16.667 24 31.5 41.333 44.5 52
s27.167 17.334 42.5 20.001l32 44c16 21.333 29.167 38 39.5 50s23.166 22.5 38.499 31.5s32.333 13.5 51 13.5c30.667 0 56.334 -11.167 77.001 -33.5zM261.502 809.499c6.33301 4.33301 9.5 10.5 9.5 18.5s-3 14.333 -9 19s-13.333 7 -22 7c-9.33301 0 -18 -3 -26 -9
s-18.667 -17.667 -32 -35l-5 -7h63c8 0 15.167 2.16699 21.5 6.5z" />
    <glyph glyph-name="uniFDF2.001" unicode="&#xfedf;&#xfee0;&#xfeea;" horiz-adv-x="1125" 
d="M736 971h-75v162h75v-162zM561 791c-18.667 18 -28 40.333 -28 67c0 10.667 1.33301 20.334 4 29.001l15 60l67 -19l-11 -53l-1 -6c0 -10 7.66699 -15 23 -15c10.667 0 17.667 2.66699 21 8l3 70h65l3 -70c3.33301 -5.33301 10.333 -8 21 -8c18 0 25.667 5.66699 23 17
l-17 73l69 21l22 -77c2.66699 -8.66699 4 -18.334 4 -29.001c0 -26.667 -9.5 -49.167 -28.5 -67.5s-43.167 -27.5 -72.5 -27.5c-10.667 0 -21.167 1.66699 -31.5 5s-18.5 8 -24.5 14c-14.667 -12.667 -33.667 -19 -57 -19c-27.333 0 -50.333 9 -69 27zM1052.5 105.5
c-17 -33 -41.498 -58.8291 -73.498 -77.4961s-69.333 -28 -112 -28h-33c-47.333 0 -89 13.667 -125 41c-36 -27.333 -79.667 -41 -131 -41h-32c-36.667 0 -70.667 7.83301 -102 23.5s-58 37.5 -80 65.5l-94 -15c-4 -0.666992 -10 -1 -18 -1c-26 0 -52 6.5 -78 19.5
s-49 30.667 -69 53s-34.667 47.166 -44 74.499c-7.33301 23.333 -11 45.666 -11 66.999c0 45.333 13 87.333 39 126s60 65 102 79l118 39v28h160v-312c0 -18.667 7.33301 -34.5 22 -47.5s33 -19.5 55 -19.5h32c20 0 33.167 2.16699 39.5 6.5s9.16602 12.166 8.49902 23.499
l-19 496l160 8l19 -490c0.666992 -17.333 4.5 -29 11.5 -35s19.167 -9 36.5 -9h33c20 0 33.167 2.16699 39.5 6.5s9.16602 12.166 8.49902 23.499l-19 496l160 8l19 -496c2 -42 -5.5 -79.5 -22.5 -112.5zM309.002 262.004v91l-68 -24
c-20.667 -7.33301 -31 -19.666 -31 -36.999c0 -10.667 4.33301 -20.334 13 -29.001s19.667 -12 33 -10z" />
    <glyph glyph-name="uni066E.init" unicode="&#x66e;" horiz-adv-x="351" 
d="M74 180c24.667 0 41.999 2.49902 51.999 7.49902s15 14.167 15 27.5c0 6.66699 -1.66699 17.334 -5 32.001l-40 149l154 46l40 -149c7.33301 -25.333 11 -52.333 11 -81c0 -41.333 -9.16699 -78 -27.5 -110s-44.666 -57 -78.999 -75s-74.5 -27 -120.5 -27h-79v180h79z
" />
    <glyph glyph-name="uni066E.medi" unicode="&#x66e;" horiz-adv-x="309" 
d="M314 0c-51.333 0 -93.667 12 -127 36c-35.333 -24 -78.333 -36 -129 -36h-63v180h63c20.667 0 34 1.5 40 4.5s8.66699 8.83301 8 17.5v3l-11 123l160 16l11 -123v-3c1.33301 -12 3 -20.5 5 -25.5s6.16699 -8.33301 12.5 -10s16.5 -2.5 30.5 -2.5v-180z" />
    <glyph glyph-name="uni066E.fina" unicode="&#x66e;" horiz-adv-x="994" 
d="M999 0c-51.333 0 -93.667 12 -127 36c-35.333 -24 -78.333 -36 -129 -36h-241v180h241c20.667 0 34 1.5 40 4.5s8.66699 8.83301 8 17.5v3l-11 123l160 16l11 -123v-3c1.33301 -12 3 -20.5 5 -25.5s6.16699 -8.33301 12.5 -10s16.5 -2.5 30.5 -2.5v-180zM330.999 2
c-38 1.33301 -69 4.16602 -93 8.49902s-47 11.166 -69 20.499c-38 16.667 -67.333 41.667 -88 75s-31 71.333 -31 114c0 24.667 3.33301 49 10 73l39 148l154 -46l-40 -156c-2 -8 -3 -14.333 -3 -19c0 -5.33301 1.66699 -9.66602 5 -12.999s9.33301 -7.33301 18 -12
c13.333 -5.33301 37 -9.16602 71 -11.499s100 -3.5 198 -3.5v-180c-76 0 -133 0.666992 -171 2z" />
    <glyph glyph-name="uni066F.fina" unicode="&#x66f;" horiz-adv-x="778" 
d="M336 -247c-58 0 -108.669 13.333 -152.002 40s-76.5 64.167 -99.5 112.5s-34.5 104.5 -34.5 168.5c0 66.667 13.333 138.667 40 216l152 -60c-21.333 -61.333 -32 -114.666 -32 -159.999c0 -44.667 10.5 -78.834 31.5 -102.501s51.833 -35.5 92.5 -35.5
c16.667 0 37.334 2.66699 62.001 8c56.667 12 101.5 22.5 134.5 31.5s49.5 17.167 49.5 24.5v4h-88c-41.333 -0 -78 9.33301 -110 28s-56.667 45 -74 79s-26 73.333 -26 118c0 43.333 9.5 83.5 28.5 120.5s44.833 66.5 77.5 88.5s69.334 33 110.001 33
s77.167 -10.5 109.5 -31.5s58.5 -50.333 78.5 -88s32.667 -80.5 38 -128.5l4 -39h55v-180h-39l-1 -14c-4 -41.333 -17.333 -75.5 -40 -102.5s-55.5 -49.667 -98.5 -68s-100.5 -35.5 -172.5 -51.5c-31.333 -7.33301 -63.333 -11 -96 -11zM563.998 200
c-6 58 -28 87.001 -66 87.001c-16.667 0 -30 -5.83301 -40 -17.5s-15 -26.834 -15 -45.501c0 -16.667 3.16699 -28.167 9.5 -34.5s19.5 -9.5 39.5 -9.5h74z" />
    <glyph glyph-name="uni06A1.init" unicode="&#x6a1;" horiz-adv-x="509" 
d="M459 195c0 -65.333 -22.001 -114.168 -66.001 -146.501s-116.667 -48.5 -218 -48.5h-180v180h182c42.667 0 72.167 0.666992 88.5 2s27.166 4.33301 32.499 9s7.33301 13.334 6 26.001c-29.333 -1.33301 -57.333 -2 -84 -2c-58.667 0 -105.5 16.5 -140.5 49.5
s-52.5 78.833 -52.5 137.5c0 72 17.833 130.833 53.5 176.5s86.834 68.5 153.501 68.5c38.667 0 73.5 -9.66699 104.5 -29s55.833 -46.5 74.5 -81.5s29.334 -75.167 32.001 -120.5l13 -198c0.666992 -5.33301 1 -13 1 -23zM219.999 380.998c22.667 0 46.667 0.666992 72 2
l-2 20c-6 54.667 -27.333 82 -64 82c-16 0 -29 -5.83301 -39 -17.5s-15 -26.5 -15 -44.5c0 -28 16 -42 48 -42z" />
    <glyph glyph-name="uni06A1.medi" unicode="&#x6a1;" horiz-adv-x="490" 
d="M495 180l0.000976562 -180h-58c-62 0 -124.667 12 -188 36c-68.667 -24 -136 -36 -202 -36h-52v180h52h2c-11.333 21.333 -16 43 -14 65l6 60c4 38 16 71.833 36 101.5s45.5 52.834 76.5 69.501s64.5 25 100.5 25c10.667 0 18.667 -0.333008 24 -1
c36.667 -4 69.667 -17.333 99 -40s51.666 -51.5 66.999 -86.5s22 -71.833 20 -110.5l-3 -48c-1.33301 -12.667 -4.33301 -24.334 -9 -35.001h43zM246.001 205c30 9.33301 48.334 19 55.001 29l5 31c2 14 -2.5 27 -13.5 39s-24.5 18 -40.5 18c-14 0 -26.333 -4.33301 -37 -13
s-16.334 -20 -17.001 -34l-3 -37c16 -14.667 33 -25.667 51 -33z" />
    <glyph glyph-name="uni06A1.fina" unicode="&#x6a1;" horiz-adv-x="992" 
d="M997 180l0.00292969 -180.002h-58c-62 0 -124.667 12 -188 36c-68.667 -24 -136 -36 -202 -36h-52c-106.667 0 -180.334 1.83301 -221.001 5.5s-76.334 12.167 -107.001 25.5c-38 16.667 -67.333 41.667 -88 75s-31 71.333 -31 114c0 24.667 3.33301 49 10 73l39 148
l154 -46l-40 -156c-2 -8 -3 -14.333 -3 -19c0 -5.33301 1.66699 -9.66602 5 -12.999s9.33301 -7.33301 18 -12c13.333 -5.33301 37 -9.16602 71 -11.499s100 -3.5 198 -3.5h47h2c-11.333 21.333 -16 43 -14 65l6 60c4 38 16 71.833 36 101.5s45.5 52.834 76.5 69.501
s64.5 25 100.5 25c10.667 0 18.667 -0.333008 24 -1c36.667 -4 69.667 -17.333 99 -40s51.666 -51.5 66.999 -86.5s22 -71.833 20 -110.5l-3 -48c-1.33301 -12.667 -4.33301 -24.334 -9 -35.001h43zM748.003 204.998c30 9.33301 48.334 19 55.001 29l5 31
c2 14 -2.5 27 -13.5 39s-24.5 18 -40.5 18c-14 0 -26.333 -4.33301 -37 -13s-16.334 -20 -17.001 -34l-3 -37c16 -14.667 33 -25.667 51 -33z" />
    <glyph glyph-name="uniFB51" unicode="&#x671;" horiz-adv-x="291" arabic-form="final" 
d="M163 24.5c-30.667 16.333 -53.499 42.333 -68.499 78s-23.833 83.5 -26.5 143.5l-14 361l160 8l14 -369c1.33301 -26 2.83301 -42.5 4.5 -49.5s5.66699 -11.5 12 -13.5s20.166 -3 41.499 -3h10v-180h-10c-51.333 0 -92.333 8.16699 -123 24.5zM310.001 854.5
c20.667 -22.333 31.001 -50.168 31.001 -83.501c0 -29.333 -10.833 -55 -32.5 -77s-46.834 -33 -75.501 -33h-138c-7.33301 0 -13.333 -2 -18 -6s-13 -13.667 -25 -29l-67 51c16.667 24 31.5 41.333 44.5 52s27.167 17.334 42.5 20.001l32 44c16 21.333 29.167 38 39.5 50
s23.166 22.5 38.499 31.5s32.333 13.5 51 13.5c30.667 0 56.334 -11.167 77.001 -33.5zM254.502 757.498c6.33301 4.33301 9.5 10.5 9.5 18.5s-3 14.333 -9 19s-13.333 7 -22 7c-9.33301 0 -18 -3 -26 -9s-18.667 -17.667 -32 -35l-5 -7h63c8 0 15.167 2.16699 21.5 6.5z
" />
    <glyph glyph-name="uniFB57" unicode="&#x67e;" horiz-adv-x="994" arabic-form="final" 
d="M999 0c-51.333 0 -93.667 12 -127 36c-35.333 -24 -78.333 -36 -129 -36h-241v180h241c20.667 0 34 1.5 40 4.5s8.66699 8.83301 8 17.5v3l-11 123l160 16l11 -123v-3c1.33301 -12 3 -20.5 5 -25.5s6.16699 -8.33301 12.5 -10s16.5 -2.5 30.5 -2.5v-180zM330.999 2
c-38 1.33301 -69 4.16602 -93 8.49902s-47 11.166 -69 20.499c-38 16.667 -67.333 41.667 -88 75s-31 71.333 -31 114c0 24.667 3.33301 49 10 73l39 148l154 -46l-40 -156c-2 -8 -3 -14.333 -3 -19c0 -5.33301 1.66699 -9.66602 5 -12.999s9.33301 -7.33301 18 -12
c13.333 -5.33301 37 -9.16602 71 -11.499s100 -3.5 198 -3.5v-180c-76 0 -133 0.666992 -171 2zM432.999 -309l76 75l75 -75l-75 -76zM305.999 -150l94 95l95 -95l-95 -94zM521.999 -150l94 95l95 -95l-95 -94z" />
    <glyph glyph-name="uniFB58" unicode="&#x67e;" horiz-adv-x="430" arabic-form="initial" 
d="M152 180c24 0 40.999 2.66699 50.999 8s15 14.333 15 27c0 6.66699 -1.66699 17.334 -5 32.001l-39 149l154 46l42 -158c6.66699 -24.667 10 -49.334 10 -74.001c0 -40.667 -9.5 -77 -28.5 -109s-45.667 -56.833 -80 -74.5s-74.166 -26.5 -119.499 -26.5h-157v180h157z
M34.999 -310l76 75l75 -75l-75 -76zM-92.001 -151l94 95l95 -95l-95 -94zM123.999 -151l94 95l95 -95l-95 -94z" />
    <glyph glyph-name="uniFB59" unicode="&#x67e;" horiz-adv-x="438" arabic-form="medial" 
d="M443 0c-51.333 0 -93.666 11.999 -126.999 35.999c-35.333 -24 -78.333 -36 -129 -36h-192v180h192c21.333 0 35 1.66699 41 5s8.33301 10 7 20l-11 123l160 16l11 -123c0 -3.33301 0.333008 -6 1 -8c1.33301 -10.667 3.16602 -18.167 5.49902 -22.5
s6.33301 -7.16602 12 -8.49902s15.5 -2 29.5 -2v-180zM128 -307.001l76 75l75 -75l-75 -76zM1 -148.001l94 95l95 -95l-95 -94zM217 -148.001l94 95l95 -95l-95 -94z" />
    <glyph glyph-name="uniFB6B" unicode="&#x6a4;" horiz-adv-x="992" arabic-form="final" 
d="M997 180l0.00292969 -180.002h-58c-62 0 -124.667 12 -188 36c-68.667 -24 -136 -36 -202 -36h-52c-106.667 0 -180.334 1.83301 -221.001 5.5s-76.334 12.167 -107.001 25.5c-38 16.667 -67.333 41.667 -88 75s-31 71.333 -31 114c0 24.667 3.33301 49 10 73l39 148
l154 -46l-40 -156c-2 -8 -3 -14.333 -3 -19c0 -5.33301 1.66699 -9.66602 5 -12.999s9.33301 -7.33301 18 -12c13.333 -5.33301 37 -9.16602 71 -11.499s100 -3.5 198 -3.5h47h2c-11.333 21.333 -16 43 -14 65l6 60c4 38 16 71.833 36 101.5s45.5 52.834 76.5 69.501
s64.5 25 100.5 25c10.667 0 18.667 -0.333008 24 -1c36.667 -4 69.667 -17.333 99 -40s51.666 -51.5 66.999 -86.5s22 -71.833 20 -110.5l-3 -48c-1.33301 -12.667 -4.33301 -24.334 -9 -35.001h43zM748.003 204.998c30 9.33301 48.334 19 55.001 29l5 31
c2 14 -2.5 27 -13.5 39s-24.5 18 -40.5 18c-14 0 -26.333 -4.33301 -37 -13s-16.334 -20 -17.001 -34l-3 -37c16 -14.667 33 -25.667 51 -33zM687.004 796.998l76 75l75 -75l-75 -76zM560.004 635.998l94 95l95 -95l-95 -94zM776.004 635.998l94 95l95 -95l-95 -94z" />
    <glyph glyph-name="uniFB6C" unicode="&#x6a4;" horiz-adv-x="509" arabic-form="initial" 
d="M234 871l-76 76l76 75l75 -75zM125 692l-94 94l94 95l95 -95zM247 786l94 95l95 -95l-95 -94zM459 195c0 -65.333 -22.001 -114.168 -66.001 -146.501s-116.667 -48.5 -218 -48.5h-180v180h182c42.667 0 72.167 0.666992 88.5 2s27.166 4.33301 32.499 9
s7.33301 13.334 6 26.001c-29.333 -1.33301 -57.333 -2 -84 -2c-58.667 0 -105.5 16.5 -140.5 49.5s-52.5 78.833 -52.5 137.5c0 72 17.833 130.833 53.5 176.5s86.834 68.5 153.501 68.5c38.667 0 73.5 -9.66699 104.5 -29s55.833 -46.5 74.5 -81.5
s29.334 -75.167 32.001 -120.5l13 -198c0.666992 -5.33301 1 -13 1 -23zM219.999 380.998c22.667 0 46.667 0.666992 72 2l-2 20c-6 54.667 -27.333 82 -64 82c-16 0 -29 -5.83301 -39 -17.5s-15 -26.5 -15 -44.5c0 -28 16 -42 48 -42z" />
    <glyph glyph-name="uniFB6D" unicode="&#x6a4;" horiz-adv-x="490" arabic-form="medial" 
d="M253 719l-76 76l76 75l75 -75zM144 540l-94 94l94 95l95 -95zM266 634l94 95l95 -95l-95 -94zM495 180l0.000976562 -180h-58c-62 0 -124.667 12 -188 36c-68.667 -24 -136 -36 -202 -36h-52v180h52h2c-11.333 21.333 -16 43 -14 65l6 60c4 38 16 71.833 36 101.5
s45.5 52.834 76.5 69.501s64.5 25 100.5 25c10.667 0 18.667 -0.333008 24 -1c36.667 -4 69.667 -17.333 99 -40s51.666 -51.5 66.999 -86.5s22 -71.833 20 -110.5l-3 -48c-1.33301 -12.667 -4.33301 -24.334 -9 -35.001h43zM246.001 205c30 9.33301 48.334 19 55.001 29
l5 31c2 14 -2.5 27 -13.5 39s-24.5 18 -40.5 18c-14 0 -26.333 -4.33301 -37 -13s-16.334 -20 -17.001 -34l-3 -37c16 -14.667 33 -25.667 51 -33z" />
    <glyph glyph-name="uniFB7B" unicode="&#x686;" horiz-adv-x="745" arabic-form="final" 
d="M750 180l0.00195312 -179.998h-37c-46 0 -86.833 12.167 -122.5 36.5s-62.834 57.166 -81.501 98.499l-153 -42c-96.667 -26 -145 -71.333 -145 -136c0 -12 1.33301 -23.333 4 -34c7.33301 -29.333 24.166 -53 50.499 -71s56.5 -27 90.5 -27c15.333 0 31 2 47 6l252 70
l42 -174l-259 -72c-26.667 -6.66699 -54 -10 -82 -10c-45.333 0 -88.166 9.16699 -128.499 27.5s-74.833 44.5 -103.5 78.5s-49.334 74 -62.001 120c-8 30 -12 59.333 -12 88c0 47.333 10.667 91.833 32 133.5s51.833 77.5 91.5 107.5s86.5 52.333 140.5 67l169 42l-126 59
c-13.333 6 -26.333 9 -39 9c-14 0 -27.167 -3.33301 -39.5 -10s-22.5 -16.334 -30.5 -29.001l-17 -31l-140 88l20 36c24.667 41.333 54.667 72.833 90 94.5s73.333 32.5 114 32.5c41.333 0 81.333 -10.667 120 -32l251 -141l-20 -189c12 -10.667 27.667 -16 47 -16h37z
M500.002 -32.998l-95 50l50 94l94 -50zM285.002 59.002l94 -50l-50 -95l-95 51zM443.002 -151.998l-95 50l51 94l93 -50z" />
    <glyph glyph-name="uniFB7C" unicode="&#x686;" horiz-adv-x="689" arabic-form="initial" 
d="M639 313l-21.999 -206.998l-289 -76c-49.333 -12.667 -100.833 -20.834 -154.5 -24.501s-111.5 -5.5 -173.5 -5.5h-5v180h6c60.667 0 113.834 1.5 159.501 4.5s88.167 9.5 127.5 19.5l151 33l-129 59c-12.667 6 -25.667 9 -39 9c-14.667 0 -28 -3.33301 -40 -10
s-22 -16.334 -30 -29.001l-17 -31l-140 88l20 36c23.333 41.333 52.666 73 87.999 95s73.666 33 114.999 33c40.667 0 81 -11 121 -33zM261.001 -307.998l76 75l75 -75l-75 -76zM134.001 -148.998l94 95l95 -95l-95 -94zM350.001 -148.998l94 95l95 -95l-95 -94z" />
    <glyph glyph-name="uniFB7D" unicode="&#x686;" horiz-adv-x="689" arabic-form="medial" 
d="M694 180l0.000976562 -179.998h-64c-33.333 0 -64.333 8.16699 -93 24.5s-52.334 38.166 -71.001 65.499l-142 -43c-51.333 -15.333 -105.666 -27 -162.999 -35s-111 -12 -161 -12h-5v180h6c80 0.666992 172.333 13.667 277 39l155 37l-133 54
c-10.667 5.33301 -23 8 -37 8s-27 -3.33301 -39 -10s-21.667 -16.334 -29 -29.001l-18 -32l-140 88l20 36c25.333 41.333 55.666 72.833 90.999 94.5s73 32.5 113 32.5c38.667 0 78 -10.333 118 -31l255 -132l-18 -153c5.33301 -1.33301 10 -2 14 -2h64zM242.001 -306.998
l76 75l75 -75l-75 -76zM115.001 -147.998l94 95l95 -95l-95 -94zM331.001 -147.998l94 95l95 -95l-95 -94z" />
    <glyph glyph-name="uniFB8B" unicode="&#x698;" horiz-adv-x="412" arabic-form="final" 
d="M206 588l-76 76l76 75l75 -75zM97 409l-94 94l94 95l95 -95zM219 503l94 95l95 -95l-95 -94zM417 0l-69.999 -0.000976562h-9c-0.666992 -45.333 -11.834 -83.666 -33.501 -114.999s-53.667 -57.833 -96 -79.5s-97.833 -41.834 -166.5 -60.501l-42 174
c53.333 14.667 91.5 26 114.5 34s39.333 16.833 49 26.5s14.5 22.5 14.5 38.5c0 3.33301 -0.666992 10.333 -2 21l-40 287l158 24l11 -78c4.66699 -28 9 -48.667 13 -62s8.16699 -21.666 12.5 -24.999s9.83301 -5 16.5 -5h70v-180z" />
    <glyph glyph-name="uniFB8F" unicode="&#x6a9;" horiz-adv-x="1020" arabic-form="final" 
d="M1025 180l0.00195312 -180.002h-14c-52 0 -99.333 18 -142 54c-16.667 -17.333 -37.5 -30.666 -62.5 -39.999s-53.167 -14 -84.5 -14h-225c-106.667 0 -180.334 1.83301 -221.001 5.5s-76.334 12.167 -107.001 25.5c-38 16.667 -67.333 41.667 -88 75s-31 71.333 -31 114
c0 24.667 3.33301 49 10 73l39 148l154 -46l-40 -156c-2 -8 -3 -14.333 -3 -19c0 -5.33301 1.66699 -9.66602 5 -12.999s9.33301 -7.33301 18 -12c13.333 -5.33301 37 -9.16602 71 -11.499s100 -3.5 198 -3.5h222c10 0 16.667 1.66699 20 5c2.66699 2.66699 4 5.66699 4 9
c0 5.33301 -2.33301 10.666 -7 15.999l-219 310l36 136l362 133l56 -168l-254 -93l140 -210l19 -32c16.667 -29.333 31.5 -51.5 44.5 -66.5s26 -25.333 39 -31s28.5 -8.5 46.5 -8.5h14z" />
    <glyph glyph-name="uniFB90" unicode="&#x6a9;" horiz-adv-x="499" arabic-form="initial" 
d="M360 318c34 -52 50.999 -102.331 50.999 -150.998c0 -36 -9.66699 -67.667 -29 -95c-16 -22.667 -37.667 -40.334 -65 -53.001s-59.666 -19 -96.999 -19h-225v180h227c10 0 16.667 1.66699 20 5c2.66699 2.66699 4 5.66699 4 9c0 5.33301 -2.33301 10.666 -7 15.999
l-219 310l36 136l362 133l56 -168l-254 -93z" />
    <glyph glyph-name="uniFB91" unicode="&#x6a9;" horiz-adv-x="518" arabic-form="medial" 
d="M523 180v-180h-14c-52 0 -99.333 18 -142 54c-16.667 -17.333 -37.5 -30.666 -62.5 -39.999s-53.167 -14 -84.5 -14h-225v180h227c10 0 16.667 1.66699 20 5c2.66699 2.66699 4 5.66699 4 9c0 5.33301 -2.33301 10.666 -7 15.999l-219 310l36 136l362 133l56 -168
l-254 -93l140 -210l19 -32c16.667 -29.333 31.5 -51.5 44.5 -66.5s26 -25.333 39 -31s28.5 -8.5 46.5 -8.5h14z" />
    <glyph glyph-name="uniFB93" unicode="&#x6af;" horiz-adv-x="1020" arabic-form="final" 
d="M1025 180l0.00195312 -180.002h-14c-52 0 -99.333 18 -142 54c-16.667 -17.333 -37.5 -30.666 -62.5 -39.999s-53.167 -14 -84.5 -14h-225c-106.667 0 -180.334 1.83301 -221.001 5.5s-76.334 12.167 -107.001 25.5c-38 16.667 -67.333 41.667 -88 75s-31 71.333 -31 114
c0 24.667 3.33301 49 10 73l39 148l154 -46l-40 -156c-2 -8 -3 -14.333 -3 -19c0 -5.33301 1.66699 -9.66602 5 -12.999s9.33301 -7.33301 18 -12c13.333 -5.33301 37 -9.16602 71 -11.499s100 -3.5 198 -3.5h222c10 0 16.667 1.66699 20 5c2.66699 2.66699 4 5.66699 4 9
c0 5.33301 -2.33301 10.666 -7 15.999l-219 310l36 136l362 133l56 -168l-254 -93l140 -210l19 -32c16.667 -29.333 31.5 -51.5 44.5 -66.5s26 -25.333 39 -31s28.5 -8.5 46.5 -8.5h14zM790.002 881.998l24 -66l-244 -88l-24 66z" />
    <glyph glyph-name="uniFB94" unicode="&#x6af;" horiz-adv-x="499" arabic-form="initial" 
d="M360 318c34 -52 50.999 -102.331 50.999 -150.998c0 -36 -9.66699 -67.667 -29 -95c-16 -22.667 -37.667 -40.334 -65 -53.001s-59.666 -19 -96.999 -19h-225v180h227c10 0 16.667 1.66699 20 5c2.66699 2.66699 4 5.66699 4 9c0 5.33301 -2.33301 10.666 -7 15.999
l-219 310l36 136l362 133l56 -168l-254 -93zM295.999 878.002l24 -66l-244 -88l-24 66z" />
    <glyph glyph-name="uniFB95" unicode="&#x6af;" horiz-adv-x="518" arabic-form="medial" 
d="M523 180v-180h-14c-52 0 -99.333 18 -142 54c-16.667 -17.333 -37.5 -30.666 -62.5 -39.999s-53.167 -14 -84.5 -14h-225v180h227c10 0 16.667 1.66699 20 5c2.66699 2.66699 4 5.66699 4 9c0 5.33301 -2.33301 10.666 -7 15.999l-219 310l36 136l362 133l56 -168
l-254 -93l140 -210l19 -32c16.667 -29.333 31.5 -51.5 44.5 -66.5s26 -25.333 39 -31s28.5 -8.5 46.5 -8.5h14zM296 878l24 -66l-244 -88l-24 66z" />
    <glyph glyph-name="uniFB9F" unicode="&#x6ba;" horiz-adv-x="746" arabic-form="final" 
d="M751 180l0.000976562 -180.001h-21c-6 0 -13.667 0.666992 -23 2c-3.33301 -64.667 -27 -115.167 -71 -151.5s-112 -65.166 -204 -86.499c-31.333 -7.33301 -63.333 -11 -96 -11c-58 0 -108.667 13.333 -152 40s-76.5 64.167 -99.5 112.5s-34.5 104.5 -34.5 168.5
c0 66.667 13.333 138.667 40 216l152 -60c-21.333 -61.333 -32 -114.666 -32 -159.999c0 -44.667 10.5 -78.834 31.5 -102.501s51.833 -35.5 92.5 -35.5c16.667 0 37.334 2.66699 62.001 8c44 10 76 18.333 96 25s34.167 14.5 42.5 23.5s12.5 21.167 12.5 36.5
c0 4.66699 -0.666992 13 -2 25l-41 275l158 26l12 -79c4.66699 -28.667 9.16699 -49.5 13.5 -62.5s9.16602 -21.167 14.499 -24.5s12.666 -5 21.999 -5h27z" />
    <glyph glyph-name="uniFBA4" unicode="&#x6c0;" horiz-adv-x="526" arabic-form="isolated" 
d="M452 337c16.667 -34.667 25.001 -73.667 25.001 -117c0 -40 -9.5 -77.167 -28.5 -111.5s-44.833 -61.5 -77.5 -81.5s-68.334 -30 -107.001 -30s-74.334 10 -107.001 30s-58.667 47.167 -78 81.5s-29 71.5 -29 111.5c0 34 7.83301 68 23.5 102s37.5 65 65.5 93l2 2l-21 20
l111 131l141 -129c36.667 -33.333 63.334 -67.333 80.001 -102zM305.501 185.5c10.333 9 15.501 20.498 15.501 34.498c0 12.667 -3.5 24.834 -10.5 36.501s-22.167 27.834 -45.5 48.501l-3 3l-3 -3c-21.333 -21.333 -35.5 -37.833 -42.5 -49.5s-10.5 -23.5 -10.5 -35.5
c0 -14 5.33301 -25.5 16 -34.5s24.667 -13.5 42 -13.5s31.166 4.5 41.499 13.5zM302.002 683.998l-54.9971 9.00391c-34 5.33301 -58.667 13.666 -74 24.999s-23 27.666 -23 48.999c0 16 4.66699 36.333 14 61c11.333 29.333 27.166 51.833 47.499 67.5
s43.833 23.5 70.5 23.5c14 0 29.667 -2.66699 47 -8l38 -12l-24 -86l-38 12c-10 3.33301 -18.667 5 -26 5c-22 0 -37 -12 -45 -36c-1.33301 -4 0 -7 4 -9s13 -4.33301 27 -7c29.333 -6 51.666 -12 66.999 -18s26.666 -14.833 33.999 -26.5s11 -27.834 11 -48.501
c0 -26.667 -6.33301 -46.334 -19 -59.001s-32.667 -21.5 -60 -26.5s-70.333 -9.16699 -129 -12.5l-8 90c19.333 2 66.333 4.33301 141 7z" />
    <glyph glyph-name="uniFBA5" unicode="&#x6c0;" horiz-adv-x="560" arabic-form="final" 
d="M565 180v-179.998h-19c-36.667 0 -70.667 7.83301 -102 23.5s-58 37.5 -80 65.5l-94 -15c-4 -0.666992 -10 -1 -18 -1c-26 0 -52 6.5 -78 19.5s-49 30.667 -69 53s-34.667 47.166 -44 74.499c-7.33301 23.333 -11 45.666 -11 66.999c0 45.333 13 87.333 39 126
s60 65 102 79l118 39v28h160v-312c0 -18.667 7.33301 -34.5 22 -47.5s33 -19.5 55 -19.5h19zM309 262.002v91l-68 -24c-20.667 -7.33301 -31 -19.666 -31 -36.999c0 -10.667 4.33301 -20.334 13 -29.001s19.667 -12 33 -10zM343 672.002l-54.9971 9.00391
c-34 5.33301 -58.667 13.666 -74 24.999s-23 27.666 -23 48.999c0 16 4.66699 36.333 14 61c11.333 29.333 27.166 51.833 47.499 67.5s43.833 23.5 70.5 23.5c14 0 29.667 -2.66699 47 -8l38 -12l-24 -86l-38 12c-10 3.33301 -18.667 5 -26 5c-22 0 -37 -12 -45 -36
c-1.33301 -4 0 -7 4 -9s13 -4.33301 27 -7c29.333 -6 51.666 -12 66.999 -18s26.666 -14.833 33.999 -26.5s11 -27.834 11 -48.501c0 -26.667 -6.33301 -46.334 -19 -59.001s-32.667 -21.5 -60 -26.5s-70.333 -9.16699 -129 -12.5l-8 90c19.333 2 66.333 4.33301 141 7z" />
    <glyph glyph-name="uniFBFD" unicode="&#x6cc;" horiz-adv-x="735" arabic-form="final" 
d="M740 0l-33.9971 -0.000976562c-2.66699 -60.667 -25.334 -109.667 -68.001 -147s-111.334 -67 -206.001 -89c-31.333 -7.33301 -63.333 -11 -96 -11c-58 0 -108.667 13.333 -152 40s-76.5 64.167 -99.5 112.5s-34.5 104.5 -34.5 168.5c0 66.667 13.333 138.667 40 216
l152 -60c-21.333 -60 -32 -113 -32 -159c0 -44.667 10.667 -78.834 32 -102.501s52.666 -35.5 93.999 -35.5c19.333 0 39.333 2.33301 60 7c48 10.667 82.333 19.834 103 27.501s34.167 16 40.5 25s8.83301 21.833 7.5 38.5l-119 38l49 171
c61.333 -17.333 110.833 -30.666 148.5 -39.999s62.667 -15 75 -17s25.5 -3 39.5 -3v-180z" />
    <glyph glyph-name="uniFBFE" unicode="&#x6cc;" horiz-adv-x="430" arabic-form="initial" 
d="M152 180c24 0 40.999 2.66699 50.999 8s15 14.333 15 27c0 6.66699 -1.66699 17.334 -5 32.001l-39 149l154 46l42 -158c6.66699 -24.667 10 -49.334 10 -74.001c0 -40.667 -9.5 -77 -28.5 -109s-45.667 -56.833 -80 -74.5s-74.166 -26.5 -119.499 -26.5h-157v180h157z
M-94.001 -150l94 95l95 -95l-95 -94zM122.999 -150l94 95l95 -95l-95 -94z" />
    <glyph glyph-name="uniFBFF" unicode="&#x6cc;" horiz-adv-x="438" arabic-form="medial" 
d="M443 0c-51.333 0 -93.666 11.999 -126.999 35.999c-35.333 -24 -78.333 -36 -129 -36h-192v180h192c21.333 0 35 1.66699 41 5s8.33301 10 7 20l-11 123l160 16l11 -123c0 -3.33301 0.333008 -6 1 -8c1.33301 -10.667 3.16602 -18.167 5.49902 -22.5
s6.33301 -7.16602 12 -8.49902s15.5 -2 29.5 -2v-180zM0 -152.001l94 95l95 -95l-95 -94zM217 -152.001l94 95l95 -95l-95 -94z" />
    <glyph glyph-name="uniFDF2" unicode="&#xfdf2;" horiz-adv-x="1452" arabic-form="isolated" 
d="M739 951h-75v162h75v-162zM564 771c-18.667 18 -28 40.333 -28 67c0 10.667 1.33301 20.334 4 29.001l15 60l67 -19l-11 -53l-1 -6c0 -10 7.66699 -15 23 -15c10.667 0 17.667 2.66699 21 8l3 70h65l3 -70c3.33301 -5.33301 10.333 -8 21 -8c18 0 25.667 5.66699 23 17
l-17 73l69 21l22 -77c2.66699 -8.66699 4 -18.334 4 -29.001c0 -26.667 -9.5 -49.167 -28.5 -67.5s-43.167 -27.5 -72.5 -27.5c-10.667 0 -21.167 1.66699 -31.5 5s-18.5 8 -24.5 14c-14.667 -12.667 -33.667 -19 -57 -19c-27.333 0 -50.333 9 -69 27zM1075 218
c2 -42 -5.49805 -79.4961 -22.498 -112.496s-41.5 -58.833 -73.5 -77.5s-69.333 -28 -112 -28h-33c-47.333 0 -89 13.667 -125 41c-36 -27.333 -79.667 -41 -131 -41h-32c-36.667 0 -70.667 7.83301 -102 23.5s-58 37.5 -80 65.5l-94 -15c-4 -0.666992 -10 -1 -18 -1
c-26 0 -52 6.5 -78 19.5s-49 30.667 -69 53s-34.667 47.166 -44 74.499c-7.33301 23.333 -11 45.666 -11 66.999c0 45.333 13 87.333 39 126s60 65 102 79l118 39v28h160v-312c0 -18.667 7.33301 -34.5 22 -47.5s33 -19.5 55 -19.5h32c20 0 33.167 2.16699 39.5 6.5
s9.16602 12.166 8.49902 23.499l-19 496l160 8l19 -490c0.666992 -17.333 4.5 -29 11.5 -35s19.167 -9 36.5 -9h33c20 0 33.167 2.16699 39.5 6.5s9.16602 12.166 8.49902 23.499l-19 496l160 8zM1382 2.00391l-160 -7l-27 711l160 8zM309.002 262.004v91l-68 -24
c-20.667 -7.33301 -31 -19.666 -31 -36.999c0 -10.667 4.33301 -20.334 13 -29.001s19.667 -12 33 -10z" />
    <glyph glyph-name="uniFDFC" unicode="&#xfdfc;" horiz-adv-x="1653" arabic-form="isolated" 
d="M703 68c2.66699 -60.667 -4.83105 -110.168 -22.498 -148.501s-46.334 -69.666 -86.001 -93.999s-94.167 -44.833 -163.5 -61.5c-38 -8.66699 -71 -13 -99 -13c-57.333 0 -107.333 13.333 -150 40s-75.334 64.334 -98.001 113.001s-34 105 -34 169c0 70 13 142 39 216
l152 -60c-21.333 -60 -32 -113.333 -32 -160c0 -44.667 10.5 -79 31.5 -103s51.167 -36 90.5 -36c20.667 0 41.334 2.66699 62.001 8c50 12.667 84.667 23 104 31s32.166 18.167 38.499 30.5s8.83301 32.166 7.5 59.499l-25 647l160 8zM1323 211.999
c0 -41.333 -9.16797 -77.999 -27.501 -109.999s-44.666 -57 -78.999 -75s-74.5 -27 -120.5 -27h-79c-50.667 0.666992 -91.167 9.16699 -121.5 25.5s-52.833 42.166 -67.5 77.499s-23.334 83 -26.001 143l-18 460l160 8l18 -468c0 -24.667 0.833008 -40.834 2.5 -48.501
s5.83398 -12.5 12.501 -14.5s20.667 -3 42 -3h1h76c24.667 0 42 2.5 52 7.5s15 14.167 15 27.5c0 6.66699 -1.66699 17.334 -5 32.001l-40 149l154 46l40 -149c7.33301 -25.333 11 -52.333 11 -81zM1604 6c0 -47.333 -10.668 -86.833 -32.001 -118.5
s-53.166 -58.5 -95.499 -80.5s-98.5 -42.667 -168.5 -62l-42 174c53.333 14.667 91.5 26 114.5 34s39.333 16.833 49 26.5s14.5 22.5 14.5 38.5c0 3.33301 -0.666992 10.333 -2 21l-40 287l158 24l40 -290c2.66699 -16.667 4 -34.667 4 -54zM896 -72l95 -95l-95 -94l-94 94z
M1113 -72l95 -95l-95 -94l-94 94z" />
    <glyph glyph-name="uniFE82" unicode="&#x622;" horiz-adv-x="291" arabic-form="final" 
d="M163 24.5c-30.667 16.333 -53.499 42.333 -68.499 78s-23.833 83.5 -26.5 143.5l-14 361l160 8l14 -369c1.33301 -26 2.83301 -42.5 4.5 -49.5s5.66699 -11.5 12 -13.5s20.166 -3 41.499 -3h10v-180h-10c-51.333 0 -92.333 8.16699 -123 24.5zM27.501 745.5
c18.333 19 42.5 28.5 72.5 28.5c10.667 0 18.667 -0.666992 24 -2l101 -19c2.66699 -0.666992 6.66699 -1 12 -1c12 0 18 5 18 15v3l80 6v-27c0 -31.333 -9.16699 -56.5 -27.5 -75.5s-42.5 -28.5 -72.5 -28.5c-10.667 0 -18.667 0.666992 -24 2l-101 19
c-2.66699 0.666992 -6.66699 1 -12 1c-12 0 -18 -5 -18 -15v-3l-80 -6v27c0 31.333 9.16699 56.5 27.5 75.5z" />
    <glyph glyph-name="uniFE84" unicode="&#x623;" horiz-adv-x="291" arabic-form="final" 
d="M163 24.5c-30.667 16.333 -53.499 42.333 -68.499 78s-23.833 83.5 -26.5 143.5l-14 361l160 8l14 -369c1.33301 -26 2.83301 -42.5 4.5 -49.5s5.66699 -11.5 12 -13.5s20.166 -3 41.499 -3h10v-180h-10c-51.333 0 -92.333 8.16699 -123 24.5zM192.001 704
l-9.99902 -2.00098l-162 -38l-19 86l64 15c-4 6.66699 -7.66699 16.667 -11 30c-2.66699 8.66699 -4 18.667 -4 30c0 32.667 11.5 60.834 34.5 84.501s50.5 35.5 82.5 35.5c15.333 0 45.666 -4.66699 90.999 -14l-15 -86c-34 6 -59 9 -75 9c-11.333 0 -20.833 -3 -28.5 -9
s-11.5 -13.667 -11.5 -23c0 -3.33301 0.333008 -6 1 -8c2 -7.33301 7.16699 -13.333 15.5 -18s16.833 -6.66699 25.5 -6l116 28l19 -87z" />
    <glyph glyph-name="uniFE86" unicode="&#x624;" horiz-adv-x="546" arabic-form="final" 
d="M551 0l-38.998 0.00292969c-1.33301 -50.667 -14.333 -91.334 -39 -122.001s-62.334 -55.834 -113.001 -75.501s-121.667 -39.167 -213 -58.5l-32 176c64.667 14 111.667 24.667 141 32s51.166 14.666 65.499 21.999s23.166 16 26.499 26h-88
c-41.333 -0 -78 9.33301 -110 28s-56.667 45 -74 79s-26 73.333 -26 118c0 43.333 9.5 83.5 28.5 120.5s44.833 66.5 77.5 88.5s69.334 33 110.001 33s77.167 -10.5 109.5 -31.5s58.5 -50.333 78.5 -88s32.667 -80.5 38 -128.5l4 -39h55v-180zM220.502 189.503
c6.33301 -6.33301 19.5 -9.49902 39.5 -9.49902h74l-2 20c-6 58 -28 87 -66 87c-16.667 0 -30 -5.83301 -40 -17.5s-15 -26.834 -15 -45.501c0 -16.667 3.16699 -28.167 9.5 -34.5zM319.002 543.004l-9.99902 -2.00098l-162 -38l-19 86l64 15
c-4 6.66699 -7.66699 16.667 -11 30c-2.66699 8.66699 -4 18.667 -4 30c0 32.667 11.5 60.834 34.5 84.501s50.5 35.5 82.5 35.5c15.333 0 45.666 -4.66699 90.999 -14l-15 -86c-34 6 -59 9 -75 9c-11.333 0 -20.833 -3 -28.5 -9s-11.5 -13.667 -11.5 -23
c0 -3.33301 0.333008 -6 1 -8c2 -7.33301 7.16699 -13.333 15.5 -18s16.833 -6.66699 25.5 -6l116 28l19 -87z" />
    <glyph glyph-name="uniFE88" unicode="&#x625;" horiz-adv-x="291" arabic-form="final" 
d="M163 24.5c-30.667 16.333 -53.5 42.334 -68.5 78.001s-23.833 83.5 -26.5 143.5l-18 460l160 8l18 -468c0 -24.667 0.833008 -40.834 2.5 -48.501s6 -12.5 13 -14.5s21.167 -3 42.5 -3h10v-180h-10c-51.333 0 -92.333 8.16699 -123 24.5zM188 -265.999l-9.99902 -2.00098
l-162 -38l-19 86l64 15c-4 6.66699 -7.66699 16.667 -11 30c-2.66699 8.66699 -4 18.667 -4 30c0 32.667 11.5 60.834 34.5 84.501s50.5 35.5 82.5 35.5c15.333 0 45.666 -4.66699 90.999 -14l-15 -86c-34 6 -59 9 -75 9c-11.333 0 -20.833 -3 -28.5 -9
s-11.5 -13.667 -11.5 -23c0 -3.33301 0.333008 -6 1 -8c2 -7.33301 7.16699 -13.333 15.5 -18s16.833 -6.66699 25.5 -6l116 28l19 -87z" />
    <glyph glyph-name="uniFE8A" unicode="&#x626;" horiz-adv-x="735" arabic-form="final" 
d="M740 0l-33.9971 -0.000976562c-2.66699 -60.667 -25.334 -109.667 -68.001 -147s-111.334 -67 -206.001 -89c-31.333 -7.33301 -63.333 -11 -96 -11c-58 0 -108.667 13.333 -152 40s-76.5 64.167 -99.5 112.5s-34.5 104.5 -34.5 168.5c0 66.667 13.333 138.667 40 216
l152 -60c-21.333 -60 -32 -113 -32 -159c0 -44.667 10.667 -78.834 32 -102.501s52.666 -35.5 93.999 -35.5c19.333 0 39.333 2.33301 60 7c48 10.667 82.333 19.834 103 27.501s34.167 16 40.5 25s8.83301 21.833 7.5 38.5l-119 38l49 171
c61.333 -17.333 110.833 -30.666 148.5 -39.999s62.667 -15 75 -17s25.5 -3 39.5 -3v-180zM432.003 308.999l-9.99902 -2.00098l-162 -38l-19 86l64 15c-4 6.66699 -7.66699 16.667 -11 30c-2.66699 8.66699 -4 18.667 -4 30c0 32.667 11.5 60.834 34.5 84.501
s50.5 35.5 82.5 35.5c15.333 0 45.666 -4.66699 90.999 -14l-15 -86c-34 6 -59 9 -75 9c-11.333 0 -20.833 -3 -28.5 -9s-11.5 -13.667 -11.5 -23c0 -3.33301 0.333008 -6 1 -8c2 -7.33301 7.16699 -13.333 15.5 -18s16.833 -6.66699 25.5 -6l116 28l19 -87z" />
    <glyph glyph-name="uniFE8B" unicode="&#x626;" horiz-adv-x="351" arabic-form="initial" 
d="M74 180c24.667 0 41.999 2.49902 51.999 7.49902s15 14.167 15 27.5c0 6.66699 -1.66699 17.334 -5 32.001l-40 149l154 46l40 -149c7.33301 -25.333 11 -52.333 11 -81c0 -41.333 -9.16699 -78 -27.5 -110s-44.666 -57 -78.999 -75s-74.5 -27 -120.5 -27h-79v180h79z
M194.999 513.999l-9.99902 -2.00098l-162 -38l-19 86l64 15c-4 6.66699 -7.66699 16.667 -11 30c-2.66699 8.66699 -4 18.667 -4 30c0 32.667 11.5 60.834 34.5 84.501s50.5 35.5 82.5 35.5c15.333 0 45.666 -4.66699 90.999 -14l-15 -86c-34 6 -59 9 -75 9
c-11.333 0 -20.833 -3 -28.5 -9s-11.5 -13.667 -11.5 -23c0 -3.33301 0.333008 -6 1 -8c2 -7.33301 7.16699 -13.333 15.5 -18s16.833 -6.66699 25.5 -6l116 28l19 -87z" />
    <glyph glyph-name="uniFE8C" unicode="&#x626;" horiz-adv-x="309" arabic-form="medial" 
d="M314 0c-51.333 0 -93.667 12 -127 36c-35.333 -24 -78.333 -36 -129 -36h-63v180h63c20.667 0 34 1.5 40 4.5s8.66699 8.83301 8 17.5v3l-11 123l160 16l11 -123v-3c1.33301 -12 3 -20.5 5 -25.5s6.16699 -8.33301 12.5 -10s16.5 -2.5 30.5 -2.5v-180zM194.999 432
l-9.99902 -2.00098l-162 -38l-19 86l64 15c-4 6.66699 -7.66699 16.667 -11 30c-2.66699 8.66699 -4 18.667 -4 30c0 32.667 11.5 60.834 34.5 84.501s50.5 35.5 82.5 35.5c15.333 0 45.666 -4.66699 90.999 -14l-15 -86c-34 6 -59 9 -75 9c-11.333 0 -20.833 -3 -28.5 -9
s-11.5 -13.667 -11.5 -23c0 -3.33301 0.333008 -6 1 -8c2 -7.33301 7.16699 -13.333 15.5 -18s16.833 -6.66699 25.5 -6l116 28l19 -87z" />
    <glyph glyph-name="uniFE8E" unicode="&#x627;" horiz-adv-x="291" arabic-form="final" 
d="M163 24.5c-30.667 16.333 -53.5 42.334 -68.5 78.001s-23.833 83.5 -26.5 143.5l-18 460l160 8l18 -468c0 -24.667 0.833008 -40.834 2.5 -48.501s6 -12.5 13 -14.5s21.167 -3 42.5 -3h10v-180h-10c-51.333 0 -92.333 8.16699 -123 24.5z" />
    <glyph glyph-name="uniFE90" unicode="&#x628;" horiz-adv-x="994" arabic-form="final" 
d="M999 0c-51.333 0 -93.667 12 -127 36c-35.333 -24 -78.333 -36 -129 -36h-241v180h241c20.667 0 34 1.5 40 4.5s8.66699 8.83301 8 17.5v3l-11 123l160 16l11 -123v-3c1.33301 -12 3 -20.5 5 -25.5s6.16699 -8.33301 12.5 -10s16.5 -2.5 30.5 -2.5v-180zM330.999 2
c-38 1.33301 -69 4.16602 -93 8.49902s-47 11.166 -69 20.499c-38 16.667 -67.333 41.667 -88 75s-31 71.333 -31 114c0 24.667 3.33301 49 10 73l39 148l154 -46l-40 -156c-2 -8 -3 -14.333 -3 -19c0 -5.33301 1.66699 -9.66602 5 -12.999s9.33301 -7.33301 18 -12
c13.333 -5.33301 37 -9.16602 71 -11.499s100 -3.5 198 -3.5v-180c-76 0 -133 0.666992 -171 2zM411.999 -151l107 107l107 -107l-107 -107z" />
    <glyph glyph-name="uniFE91" unicode="&#x628;" horiz-adv-x="351" arabic-form="initial" 
d="M74 180c24.667 0 41.999 2.49902 51.999 7.49902s15 14.167 15 27.5c0 6.66699 -1.66699 17.334 -5 32.001l-40 149l154 46l40 -149c7.33301 -25.333 11 -52.333 11 -81c0 -41.333 -9.16699 -78 -27.5 -110s-44.666 -57 -78.999 -75s-74.5 -27 -120.5 -27h-79v180h79z
M-37.001 -151.001l107 107l107 -107l-107 -107z" />
    <glyph glyph-name="uniFE92" unicode="&#x628;" horiz-adv-x="309" arabic-form="medial" 
d="M314 0c-51.333 0 -93.667 12 -127 36c-35.333 -24 -78.333 -36 -129 -36h-63v180h63c20.667 0 34 1.5 40 4.5s8.66699 8.83301 8 17.5v3l-11 123l160 16l11 -123v-3c1.33301 -12 3 -20.5 5 -25.5s6.16699 -8.33301 12.5 -10s16.5 -2.5 30.5 -2.5v-180zM40.999 -150
l107 107l107 -107l-107 -107z" />
    <glyph glyph-name="uniFE94" unicode="&#x629;" horiz-adv-x="560" arabic-form="final" 
d="M565 180v-179.998h-19c-36.667 0 -70.667 7.83301 -102 23.5s-58 37.5 -80 65.5l-94 -15c-4 -0.666992 -10 -1 -18 -1c-26 0 -52 6.5 -78 19.5s-49 30.667 -69 53s-34.667 47.166 -44 74.499c-7.33301 23.333 -11 45.666 -11 66.999c0 45.333 13 87.333 39 126
s60 65 102 79l118 39v28h160v-312c0 -18.667 7.33301 -34.5 22 -47.5s33 -19.5 55 -19.5h19zM309 262.002v91l-68 -24c-20.667 -7.33301 -31 -19.666 -31 -36.999c0 -10.667 4.33301 -20.334 13 -29.001s19.667 -12 33 -10zM88 686.002l94 95l95 -95l-95 -94zM305 686.002
l94 95l95 -95l-95 -94z" />
    <glyph glyph-name="uniFE96" unicode="&#x62a;" horiz-adv-x="994" arabic-form="final" 
d="M999 0c-51.333 0 -93.667 12 -127 36c-35.333 -24 -78.333 -36 -129 -36h-241v180h241c20.667 0 34 1.5 40 4.5s8.66699 8.83301 8 17.5v3l-11 123l160 16l11 -123v-3c1.33301 -12 3 -20.5 5 -25.5s6.16699 -8.33301 12.5 -10s16.5 -2.5 30.5 -2.5v-180zM330.999 2
c-38 1.33301 -69 4.16602 -93 8.49902s-47 11.166 -69 20.499c-38 16.667 -67.333 41.667 -88 75s-31 71.333 -31 114c0 24.667 3.33301 49 10 73l39 148l154 -46l-40 -156c-2 -8 -3 -14.333 -3 -19c0 -5.33301 1.66699 -9.66602 5 -12.999s9.33301 -7.33301 18 -12
c13.333 -5.33301 37 -9.16602 71 -11.499s100 -3.5 198 -3.5v-180c-76 0 -133 0.666992 -171 2zM302.999 457l94 95l95 -95l-95 -94zM519.999 457l94 95l95 -95l-95 -94z" />
    <glyph glyph-name="uniFE97" unicode="&#x62a;" horiz-adv-x="430" arabic-form="initial" 
d="M152 180c24 0 40.999 2.66699 50.999 8s15 14.333 15 27c0 6.66699 -1.66699 17.334 -5 32.001l-39 149l154 46l42 -158c6.66699 -24.667 10 -49.334 10 -74.001c0 -40.667 -9.5 -77 -28.5 -109s-45.667 -56.833 -80 -74.5s-74.166 -26.5 -119.499 -26.5h-157v180h157z
M23.999 595l94 95l95 -95l-95 -94zM240.999 595l94 95l95 -95l-95 -94z" />
    <glyph glyph-name="uniFE98" unicode="&#x62a;" horiz-adv-x="438" arabic-form="medial" 
d="M443 0c-51.333 0 -93.666 11.999 -126.999 35.999c-35.333 -24 -78.333 -36 -129 -36h-192v180h192c21.333 0 35 1.66699 41 5s8.33301 10 7 20l-11 123l160 16l11 -123c0 -3.33301 0.333008 -6 1 -8c1.33301 -10.667 3.16602 -18.167 5.49902 -22.5
s6.33301 -7.16602 12 -8.49902s15.5 -2 29.5 -2v-180zM12 510.999l94 95l95 -95l-95 -94zM229 510.999l94 95l95 -95l-95 -94z" />
    <glyph glyph-name="uniFE9A" unicode="&#x62b;" horiz-adv-x="994" arabic-form="final" 
d="M999 0c-51.333 0 -93.667 12 -127 36c-35.333 -24 -78.333 -36 -129 -36h-241v180h241c20.667 0 34 1.5 40 4.5s8.66699 8.83301 8 17.5v3l-11 123l160 16l11 -123v-3c1.33301 -12 3 -20.5 5 -25.5s6.16699 -8.33301 12.5 -10s16.5 -2.5 30.5 -2.5v-180zM330.999 2
c-38 1.33301 -69 4.16602 -93 8.49902s-47 11.166 -69 20.499c-38 16.667 -67.333 41.667 -88 75s-31 71.333 -31 114c0 24.667 3.33301 49 10 73l39 148l154 -46l-40 -156c-2 -8 -3 -14.333 -3 -19c0 -5.33301 1.66699 -9.66602 5 -12.999s9.33301 -7.33301 18 -12
c13.333 -5.33301 37 -9.16602 71 -11.499s100 -3.5 198 -3.5v-180c-76 0 -133 0.666992 -171 2zM433.999 561l76 75l75 -75l-75 -76zM306.999 400l94 95l95 -95l-95 -94zM522.999 400l94 95l95 -95l-95 -94z" />
    <glyph glyph-name="uniFE9B" unicode="&#x62b;" horiz-adv-x="430" arabic-form="initial" 
d="M152 180c24 0 40.999 2.66699 50.999 8s15 14.333 15 27c0 6.66699 -1.66699 17.334 -5 32.001l-39 149l154 46l42 -158c6.66699 -24.667 10 -49.334 10 -74.001c0 -40.667 -9.5 -77 -28.5 -109s-45.667 -56.833 -80 -74.5s-74.166 -26.5 -119.499 -26.5h-157v180h157z
M126.999 754l76 75l75 -75l-75 -76zM-0.000976562 593l94 95l95 -95l-95 -94zM215.999 593l94 95l95 -95l-95 -94z" />
    <glyph glyph-name="uniFE9C" unicode="&#x62b;" horiz-adv-x="438" arabic-form="medial" 
d="M443 0c-51.333 0 -93.666 11.999 -126.999 35.999c-35.333 -24 -78.333 -36 -129 -36h-192v180h192c21.333 0 35 1.66699 41 5s8.33301 10 7 20l-11 123l160 16l11 -123c0 -3.33301 0.333008 -6 1 -8c1.33301 -10.667 3.16602 -18.167 5.49902 -22.5
s6.33301 -7.16602 12 -8.49902s15.5 -2 29.5 -2v-180zM138 669.999l76 75l75 -75l-75 -76zM11 508.999l94 95l95 -95l-95 -94zM227 508.999l94 95l95 -95l-95 -94z" />
    <glyph glyph-name="uniFE9E" unicode="&#x62c;" horiz-adv-x="745" arabic-form="final" 
d="M750 180l0.00195312 -179.998h-37c-46 0 -86.833 12.167 -122.5 36.5s-62.834 57.166 -81.501 98.499l-153 -42c-96.667 -26 -145 -71.333 -145 -136c0 -12 1.33301 -23.333 4 -34c7.33301 -29.333 24.166 -53 50.499 -71s56.5 -27 90.5 -27c15.333 0 31 2 47 6l252 70
l42 -174l-259 -72c-26.667 -6.66699 -54 -10 -82 -10c-45.333 0 -88.166 9.16699 -128.499 27.5s-74.833 44.5 -103.5 78.5s-49.334 74 -62.001 120c-8 30 -12 59.333 -12 88c0 47.333 10.667 91.833 32 133.5s51.833 77.5 91.5 107.5s86.5 52.333 140.5 67l169 42l-126 59
c-13.333 6 -26.333 9 -39 9c-14 0 -27.167 -3.33301 -39.5 -10s-22.5 -16.334 -30.5 -29.001l-17 -31l-140 88l20 36c24.667 41.333 54.667 72.833 90 94.5s73.333 32.5 114 32.5c41.333 0 81.333 -10.667 120 -32l251 -141l-20 -189c12 -10.667 27.667 -16 47 -16h37z
M323.002 -30.998l107 107l107 -107l-107 -107z" />
    <glyph glyph-name="uniFE9F" unicode="&#x62c;" horiz-adv-x="689" arabic-form="initial" 
d="M639 313l-21.999 -206.998l-289 -76c-49.333 -12.667 -100.833 -20.834 -154.5 -24.501s-111.5 -5.5 -173.5 -5.5h-5v180h6c60.667 0 113.834 1.5 159.501 4.5s88.167 9.5 127.5 19.5l151 33l-129 59c-12.667 6 -25.667 9 -39 9c-14.667 0 -28 -3.33301 -40 -10
s-22 -16.334 -30 -29.001l-17 -31l-140 88l20 36c23.333 41.333 52.666 73 87.999 95s73.666 33 114.999 33c40.667 0 81 -11 121 -33zM219.001 -146.998l107 107l107 -107l-107 -107z" />
    <glyph glyph-name="uniFEA0" unicode="&#x62c;" horiz-adv-x="689" arabic-form="medial" 
d="M694 180l0.000976562 -179.998h-64c-33.333 0 -64.333 8.16699 -93 24.5s-52.334 38.166 -71.001 65.499l-142 -43c-51.333 -15.333 -105.666 -27 -162.999 -35s-111 -12 -161 -12h-5v180h6c80 0.666992 172.333 13.667 277 39l155 37l-133 54
c-10.667 5.33301 -23 8 -37 8s-27 -3.33301 -39 -10s-21.667 -16.334 -29 -29.001l-18 -32l-140 88l20 36c25.333 41.333 55.666 72.833 90.999 94.5s73 32.5 113 32.5c38.667 0 78 -10.333 118 -31l255 -132l-18 -153c5.33301 -1.33301 10 -2 14 -2h64zM219.001 -146.998
l107 107l107 -107l-107 -107z" />
    <glyph glyph-name="uniFEA2" unicode="&#x62d;" horiz-adv-x="745" arabic-form="final" 
d="M750 180l0.00195312 -179.998h-37c-46 0 -86.833 12.167 -122.5 36.5s-62.834 57.166 -81.501 98.499l-153 -42c-96.667 -26 -145 -71.333 -145 -136c0 -12 1.33301 -23.333 4 -34c7.33301 -29.333 24.166 -53 50.499 -71s56.5 -27 90.5 -27c15.333 0 31 2 47 6l252 70
l42 -174l-259 -72c-26.667 -6.66699 -54 -10 -82 -10c-45.333 0 -88.166 9.16699 -128.499 27.5s-74.833 44.5 -103.5 78.5s-49.334 74 -62.001 120c-8 30 -12 59.333 -12 88c0 47.333 10.667 91.833 32 133.5s51.833 77.5 91.5 107.5s86.5 52.333 140.5 67l169 42l-126 59
c-13.333 6 -26.333 9 -39 9c-14 0 -27.167 -3.33301 -39.5 -10s-22.5 -16.334 -30.5 -29.001l-17 -31l-140 88l20 36c24.667 41.333 54.667 72.833 90 94.5s73.333 32.5 114 32.5c41.333 0 81.333 -10.667 120 -32l251 -141l-20 -189c12 -10.667 27.667 -16 47 -16h37z" />
    <glyph glyph-name="uniFEA3" unicode="&#x62d;" horiz-adv-x="689" arabic-form="initial" 
d="M639 313l-21.999 -206.998l-289 -76c-49.333 -12.667 -100.833 -20.834 -154.5 -24.501s-111.5 -5.5 -173.5 -5.5h-5v180h6c60.667 0 113.834 1.5 159.501 4.5s88.167 9.5 127.5 19.5l151 33l-129 59c-12.667 6 -25.667 9 -39 9c-14.667 0 -28 -3.33301 -40 -10
s-22 -16.334 -30 -29.001l-17 -31l-140 88l20 36c23.333 41.333 52.666 73 87.999 95s73.666 33 114.999 33c40.667 0 81 -11 121 -33z" />
    <glyph glyph-name="uniFEA4" unicode="&#x62d;" horiz-adv-x="689" arabic-form="medial" 
d="M694 180l0.000976562 -179.998h-64c-33.333 0 -64.333 8.16699 -93 24.5s-52.334 38.166 -71.001 65.499l-142 -43c-51.333 -15.333 -105.666 -27 -162.999 -35s-111 -12 -161 -12h-5v180h6c80 0.666992 172.333 13.667 277 39l155 37l-133 54
c-10.667 5.33301 -23 8 -37 8s-27 -3.33301 -39 -10s-21.667 -16.334 -29 -29.001l-18 -32l-140 88l20 36c25.333 41.333 55.666 72.833 90.999 94.5s73 32.5 113 32.5c38.667 0 78 -10.333 118 -31l255 -132l-18 -153c5.33301 -1.33301 10 -2 14 -2h64z" />
    <glyph glyph-name="uniFEA6" unicode="&#x62e;" horiz-adv-x="745" arabic-form="final" 
d="M750 180l0.00195312 -179.998h-37c-46 0 -86.833 12.167 -122.5 36.5s-62.834 57.166 -81.501 98.499l-153 -42c-96.667 -26 -145 -71.333 -145 -136c0 -12 1.33301 -23.333 4 -34c7.33301 -29.333 24.166 -53 50.499 -71s56.5 -27 90.5 -27c15.333 0 31 2 47 6l252 70
l42 -174l-259 -72c-26.667 -6.66699 -54 -10 -82 -10c-45.333 0 -88.166 9.16699 -128.499 27.5s-74.833 44.5 -103.5 78.5s-49.334 74 -62.001 120c-8 30 -12 59.333 -12 88c0 47.333 10.667 91.833 32 133.5s51.833 77.5 91.5 107.5s86.5 52.333 140.5 67l169 42l-126 59
c-13.333 6 -26.333 9 -39 9c-14 0 -27.167 -3.33301 -39.5 -10s-22.5 -16.334 -30.5 -29.001l-17 -31l-140 88l20 36c24.667 41.333 54.667 72.833 90 94.5s73.333 32.5 114 32.5c41.333 0 81.333 -10.667 120 -32l251 -141l-20 -189c12 -10.667 27.667 -16 47 -16h37z
M214.002 697.002l107 107l107 -107l-107 -107z" />
    <glyph glyph-name="uniFEA7" unicode="&#x62e;" horiz-adv-x="689" arabic-form="initial" 
d="M639 313l-21.999 -206.998l-289 -76c-49.333 -12.667 -100.833 -20.834 -154.5 -24.501s-111.5 -5.5 -173.5 -5.5h-5v180h6c60.667 0 113.834 1.5 159.501 4.5s88.167 9.5 127.5 19.5l151 33l-129 59c-12.667 6 -25.667 9 -39 9c-14.667 0 -28 -3.33301 -40 -10
s-22 -16.334 -30 -29.001l-17 -31l-140 88l20 36c23.333 41.333 52.666 73 87.999 95s73.666 33 114.999 33c40.667 0 81 -11 121 -33zM170.001 647.002l107 107l107 -107l-107 -107z" />
    <glyph glyph-name="uniFEA8" unicode="&#x62e;" horiz-adv-x="689" arabic-form="medial" 
d="M694 180l0.000976562 -179.998h-64c-33.333 0 -64.333 8.16699 -93 24.5s-52.334 38.166 -71.001 65.499l-142 -43c-51.333 -15.333 -105.666 -27 -162.999 -35s-111 -12 -161 -12h-5v180h6c80 0.666992 172.333 13.667 277 39l155 37l-133 54
c-10.667 5.33301 -23 8 -37 8s-27 -3.33301 -39 -10s-21.667 -16.334 -29 -29.001l-18 -32l-140 88l20 36c25.333 41.333 55.666 72.833 90.999 94.5s73 32.5 113 32.5c38.667 0 78 -10.333 118 -31l255 -132l-18 -153c5.33301 -1.33301 10 -2 14 -2h64zM168.001 647.002
l107 107l107 -107l-107 -107z" />
    <glyph glyph-name="uniFEAA" unicode="&#x62f;" horiz-adv-x="601" arabic-form="final" 
d="M606 180l-0.00195312 -180.002h-49c-42.667 0 -79 13.333 -109 40c-36 -26.667 -80 -40 -132 -40h-80c-35.333 0 -67.166 7.33301 -95.499 22s-50.5 34.334 -66.5 59.001s-24 51.334 -24 80.001v63h148v-34c0 -4.66699 0.666992 -7.5 2 -8.5s4 -1.5 8 -1.5h130
c16.667 0 25 5.33301 25 16c0 2.66699 -0.5 5.5 -1.5 8.5s-1.83301 5.83301 -2.5 8.5l-74 291l156 44l74 -294c6 -23.333 10.833 -40 14.5 -50s7.33398 -16.5 11.001 -19.5s9.16699 -4.5 16.5 -4.5h49z" />
    <glyph glyph-name="uniFEAC" unicode="&#x630;" horiz-adv-x="601" arabic-form="final" 
d="M606 180l-0.00195312 -180.002h-49c-42.667 0 -79 13.333 -109 40c-36 -26.667 -80 -40 -132 -40h-80c-35.333 0 -67.166 7.33301 -95.499 22s-50.5 34.334 -66.5 59.001s-24 51.334 -24 80.001v63h148v-34c0 -4.66699 0.666992 -7.5 2 -8.5s4 -1.5 8 -1.5h130
c16.667 0 25 5.33301 25 16c0 2.66699 -0.5 5.5 -1.5 8.5s-1.83301 5.83301 -2.5 8.5l-74 291l156 44l74 -294c6 -23.333 10.833 -40 14.5 -50s7.33398 -16.5 11.001 -19.5s9.16699 -4.5 16.5 -4.5h49zM264.998 696.998l107 107l107 -107l-107 -107z" />
    <glyph glyph-name="uniFEAE" unicode="&#x631;" horiz-adv-x="347" arabic-form="final" 
d="M352 180l0.000976562 -180.001h-5h-9c-0.666992 -45.333 -11.834 -83.666 -33.501 -114.999s-53.667 -57.833 -96 -79.5s-97.833 -41.834 -166.5 -60.501l-42 174c53.333 14.667 91.5 26 114.5 34s39.333 16.833 49 26.5s14.5 22.5 14.5 38.5
c0 3.33301 -0.666992 10.333 -2 21l-40 287l158 24l11 -78c4.66699 -28 9 -48.667 13 -62s8.16699 -21.666 12.5 -24.999s9.83301 -5 16.5 -5h5z" />
    <glyph glyph-name="uniFEB0" unicode="&#x632;" horiz-adv-x="347" arabic-form="final" 
d="M352 180l0.000976562 -180.001h-5h-9c-0.666992 -45.333 -11.834 -83.666 -33.501 -114.999s-53.667 -57.833 -96 -79.5s-97.833 -41.834 -166.5 -60.501l-42 174c53.333 14.667 91.5 26 114.5 34s39.333 16.833 49 26.5s14.5 22.5 14.5 38.5
c0 3.33301 -0.666992 10.333 -2 21l-40 287l158 24l11 -78c4.66699 -28 9 -48.667 13 -62s8.16699 -21.666 12.5 -24.999s9.83301 -5 16.5 -5h5zM102.001 520.999l107 107l107 -107l-107 -107z" />
    <glyph glyph-name="uniFEB2" unicode="&#x633;" horiz-adv-x="1275" arabic-form="final" 
d="M1280 0c-54.667 0 -101.335 16.667 -140.002 50c-16.667 -16 -36.167 -28.333 -58.5 -37s-46.166 -13 -71.499 -13c-48 0 -90.333 16 -127 48c-35.333 -32 -75.666 -48 -120.999 -48c-18.667 0 -37 3.66699 -55 11c-1.33301 -67.333 -24 -120 -68 -158
s-113 -67.667 -207 -89c-31.333 -7.33301 -63.333 -11 -96 -11c-58 0 -108.667 13.333 -152 40s-76.5 64.167 -99.5 112.5s-34.5 104.5 -34.5 168.5c0 66.667 13.333 138.667 40 216l152 -60c-21.333 -61.333 -32 -114.666 -32 -159.999
c0 -44.667 10.5 -78.834 31.5 -102.501s51.833 -35.5 92.5 -35.5c16.667 0 37.334 2.66699 62.001 8c44 10 76 18.333 96 25s34.167 14.5 42.5 23.5s12.5 21.167 12.5 36.5c0 4.66699 -0.666992 13 -2 25l-41 275l158 26l16 -107c5.33301 -26 13.5 -43 24.5 -51
s29.167 -12 54.5 -12c18.667 0 31.334 2.16699 38.001 6.5s10 12.833 10 25.5v124h150v-124c0.666992 -8.66699 4.5 -15.834 11.5 -21.501s17.833 -8.5 32.5 -8.5c21.333 0 35.666 1.83301 42.999 5.5s9.66602 9.83398 6.99902 18.501l-33 123l144 43l33 -123l2 -8
c6 -20 16.5 -35.333 31.5 -46s32.833 -16 53.5 -16v-180z" />
    <glyph glyph-name="uniFEB3" unicode="&#x633;" horiz-adv-x="783" arabic-form="initial" 
d="M733 211c0 -40 -8.5 -75.998 -25.5 -107.998s-41.333 -57.167 -73 -75.5s-68.5 -27.5 -110.5 -27.5c-47.333 0 -87 14 -119 42c-34.667 -28 -75.334 -42 -122.001 -42c-44.667 0 -84 14.667 -118 44c-34 -29.333 -75 -44 -123 -44h-47v180h47
c20.667 0 33.834 2.16699 39.501 6.5s8.5 13.166 8.5 26.499v124h150v-124c0.666992 -11.333 4 -19.666 10 -24.999s17 -8 33 -8c20 0 33 2.16699 39 6.5s9 13.166 9 26.499v124h150v-124c0 -12.667 2.83301 -21.334 8.5 -26.001s17.167 -7 34.5 -7
c18 0 30.667 2.16699 38 6.5s11 12.5 11 24.5c0 9.33301 -2 21.333 -6 36l-40 149l154 46l40 -149c8 -28 12 -55.333 12 -82z" />
    <glyph glyph-name="uniFEB4" unicode="&#x633;" horiz-adv-x="788" arabic-form="medial" 
d="M793 0c-54.667 0 -101.334 16.668 -140.001 50.001c-16.667 -16 -36.167 -28.333 -58.5 -37s-46.166 -13 -71.499 -13c-22.667 0 -44.5 4.5 -65.5 13.5s-40.167 21.167 -57.5 36.5c-35.333 -33.333 -78.666 -50 -129.999 -50c-44.667 0 -84 16.333 -118 49
c-36 -32.667 -77 -49 -123 -49h-34v180h34c20.667 0 33.834 2.16699 39.501 6.5s8.5 13.166 8.5 26.499v124h150v-124c0.666992 -11.333 4 -19.666 10 -24.999s17 -8 33 -8c20 0 33 2.16699 39 6.5s9 13.166 9 26.499v124h150v-124
c0.666992 -8.66699 4.5 -15.834 11.5 -21.501s17.833 -8.5 32.5 -8.5c21.333 0 35.666 1.83301 42.999 5.5s9.66602 9.83398 6.99902 18.501l-33 123l144 43l33 -123l2 -8c6 -20 16.5 -35.333 31.5 -46s32.833 -16 53.5 -16v-180z" />
    <glyph glyph-name="uniFEB6" unicode="&#x634;" horiz-adv-x="1275" arabic-form="final" 
d="M1280 0c-54.667 0 -101.335 16.667 -140.002 50c-16.667 -16 -36.167 -28.333 -58.5 -37s-46.166 -13 -71.499 -13c-48 0 -90.333 16 -127 48c-35.333 -32 -75.666 -48 -120.999 -48c-18.667 0 -37 3.66699 -55 11c-1.33301 -67.333 -24 -120 -68 -158
s-113 -67.667 -207 -89c-31.333 -7.33301 -63.333 -11 -96 -11c-58 0 -108.667 13.333 -152 40s-76.5 64.167 -99.5 112.5s-34.5 104.5 -34.5 168.5c0 66.667 13.333 138.667 40 216l152 -60c-21.333 -61.333 -32 -114.666 -32 -159.999
c0 -44.667 10.5 -78.834 31.5 -102.501s51.833 -35.5 92.5 -35.5c16.667 0 37.334 2.66699 62.001 8c44 10 76 18.333 96 25s34.167 14.5 42.5 23.5s12.5 21.167 12.5 36.5c0 4.66699 -0.666992 13 -2 25l-41 275l158 26l16 -107c5.33301 -26 13.5 -43 24.5 -51
s29.167 -12 54.5 -12c18.667 0 31.334 2.16699 38.001 6.5s10 12.833 10 25.5v124h150v-124c0.666992 -8.66699 4.5 -15.834 11.5 -21.501s17.833 -8.5 32.5 -8.5c21.333 0 35.666 1.83301 42.999 5.5s9.66602 9.83398 6.99902 18.501l-33 123l144 43l33 -123l2 -8
c6 -20 16.5 -35.333 31.5 -46s32.833 -16 53.5 -16v-180zM807.999 680l76 75l75 -75l-75 -76zM680.999 519l94 95l95 -95l-95 -94zM896.999 519l94 95l95 -95l-95 -94z" />
    <glyph glyph-name="uniFEB7" unicode="&#x634;" horiz-adv-x="783" arabic-form="initial" 
d="M733 211c0 -40 -8.5 -75.998 -25.5 -107.998s-41.333 -57.167 -73 -75.5s-68.5 -27.5 -110.5 -27.5c-47.333 0 -87 14 -119 42c-34.667 -28 -75.334 -42 -122.001 -42c-44.667 0 -84 14.667 -118 44c-34 -29.333 -75 -44 -123 -44h-47v180h47
c20.667 0 33.834 2.16699 39.501 6.5s8.5 13.166 8.5 26.499v124h150v-124c0.666992 -11.333 4 -19.666 10 -24.999s17 -8 33 -8c20 0 33 2.16699 39 6.5s9 13.166 9 26.499v124h150v-124c0 -12.667 2.83301 -21.334 8.5 -26.001s17.167 -7 34.5 -7
c18 0 30.667 2.16699 38 6.5s11 12.5 11 24.5c0 9.33301 -2 21.333 -6 36l-40 149l154 46l40 -149c8 -28 12 -55.333 12 -82zM326 685.002l76 75l75 -75l-75 -76zM199 524.002l94 95l95 -95l-95 -94zM415 524.002l94 95l95 -95l-95 -94z" />
    <glyph glyph-name="uniFEB8" unicode="&#x634;" horiz-adv-x="788" arabic-form="medial" 
d="M793 0c-54.667 0 -101.334 16.668 -140.001 50.001c-16.667 -16 -36.167 -28.333 -58.5 -37s-46.166 -13 -71.499 -13c-22.667 0 -44.5 4.5 -65.5 13.5s-40.167 21.167 -57.5 36.5c-35.333 -33.333 -78.666 -50 -129.999 -50c-44.667 0 -84 16.333 -118 49
c-36 -32.667 -77 -49 -123 -49h-34v180h34c20.667 0 33.834 2.16699 39.501 6.5s8.5 13.166 8.5 26.499v124h150v-124c0.666992 -11.333 4 -19.666 10 -24.999s17 -8 33 -8c20 0 33 2.16699 39 6.5s9 13.166 9 26.499v124h150v-124
c0.666992 -8.66699 4.5 -15.834 11.5 -21.501s17.833 -8.5 32.5 -8.5c21.333 0 35.666 1.83301 42.999 5.5s9.66602 9.83398 6.99902 18.501l-33 123l144 43l33 -123l2 -8c6 -20 16.5 -35.333 31.5 -46s32.833 -16 53.5 -16v-180zM324 654.001l76 75l75 -75l-75 -76z
M197 493.001l94 95l95 -95l-95 -94zM413 493.001l94 95l95 -95l-95 -94z" />
    <glyph glyph-name="uniFEBA" unicode="&#x635;" horiz-adv-x="1356" arabic-form="final" 
d="M1361 180l0.000976562 -180h-14c-48 -0 -95 16.333 -141 49c-40 -32.667 -85.333 -49 -136 -49h-325h-15c-6 0 -13.667 0.666992 -23 2c-3.33301 -64.667 -27 -115.167 -71 -151.5s-112 -65.166 -204 -86.499c-31.333 -7.33301 -63.333 -11 -96 -11
c-58 0 -108.667 13.333 -152 40s-76.5 64.167 -99.5 112.5s-34.5 104.5 -34.5 168.5c0 66.667 13.333 138.667 40 216l152 -60c-21.333 -61.333 -32 -114.666 -32 -159.999c0 -44.667 10.5 -78.834 31.5 -102.501s51.833 -35.5 92.5 -35.5c16.667 0 37.334 2.66699 62.001 8
c44 10 76 18.333 96 25s34.167 14.5 42.5 23.5s12.5 21.167 12.5 36.5c0 4.66699 -0.666992 13 -2 25l-41 275l158 26l12 -79c4.66699 -28.667 9.16699 -49.5 13.5 -62.5s9.16602 -21.167 14.499 -24.5s12.666 -5 21.999 -5h21v0l57 78c39.333 54 71.5 95 96.5 123
s51.167 49.333 78.5 64s58.333 22 93 22c41.333 0 79 -10.667 113 -32s60.833 -50.333 80.5 -87s29.5 -77.334 29.5 -122.001c0 -6 -0.666992 -15 -2 -27c3.33301 -3.33301 10 -7.33301 20 -12s22 -7 36 -7h14zM1113.5 195c13 10 19.5 20.333 19.5 31
c0 18.667 -5.66699 33.5 -17 44.5s-26.666 16.5 -45.999 16.5c-16.667 0 -32.834 -7 -48.501 -21s-39.167 -42.667 -70.5 -86h119c16 0 30.5 5 43.5 15z" />
    <glyph glyph-name="uniFEBB" unicode="&#x635;" horiz-adv-x="830" arabic-form="initial" 
d="M670 435c34 -21.333 60.8301 -50.332 80.4971 -86.999s29.5 -77.334 29.5 -122.001c0 -40 -10.167 -77.333 -30.5 -112s-47.666 -62.334 -81.999 -83.001s-71.166 -31 -110.499 -31h-325c-39.333 0 -73.333 12.333 -102 37
c-35.333 -23.333 -78.666 -35.666 -129.999 -36.999h-5v180h5c21.333 0 36.833 2.5 46.5 7.5s15.167 15.833 16.5 32.5l11 124l160 -16l-11 -122l-1 -12c0 -5.33301 0.833008 -9 2.5 -11s4.16699 -3 7.5 -3l57 78c39.333 54 71.5 95 96.5 123s51.167 49.333 78.5 64
s58.333 22 93 22c41.333 0 79 -10.667 113 -32zM600.497 195.001c13 10 19.5 20.333 19.5 31c0 18.667 -5.66699 33.5 -17 44.5s-26.666 16.5 -45.999 16.5c-16.667 0 -32.834 -7 -48.501 -21s-39.167 -42.667 -70.5 -86h119c16 0 30.5 5 43.5 15z" />
    <glyph glyph-name="uniFEBC" unicode="&#x635;" horiz-adv-x="843" arabic-form="medial" 
d="M848 180l-0.000976562 -180h-14c-48 -0 -95 16.333 -141 49c-40 -32.667 -85.333 -49 -136 -49h-325c-39.333 -0 -73.333 12.333 -102 37c-35.333 -23.333 -78.666 -35.666 -129.999 -36.999h-5v180h5c21.333 0 36.833 2.5 46.5 7.5s15.167 15.833 16.5 32.5l11 124
l160 -16l-11 -122l-1 -12c0 -5.33301 0.833008 -9 2.5 -11s4.16699 -3 7.5 -3l57 78c39.333 54 71.5 95 96.5 123s51.167 49.333 78.5 64s58.333 22 93 22c41.333 0 79 -10.667 113 -32s60.833 -50.333 80.5 -87s29.5 -77.334 29.5 -122.001c0 -6 -0.666992 -15 -2 -27
c3.33301 -3.33301 10 -7.33301 20 -12s22 -7 36 -7h14zM600.499 195c13 10 19.5 20.333 19.5 31c0 18.667 -5.66699 33.5 -17 44.5s-26.666 16.5 -45.999 16.5c-16.667 0 -32.834 -7 -48.501 -21s-39.167 -42.667 -70.5 -86h119c16 0 30.5 5 43.5 15z" />
    <glyph glyph-name="uniFEBE" unicode="&#x636;" horiz-adv-x="1356" arabic-form="final" 
d="M1361 180l0.000976562 -180h-14c-48 -0 -95 16.333 -141 49c-40 -32.667 -85.333 -49 -136 -49h-325h-15c-6 0 -13.667 0.666992 -23 2c-3.33301 -64.667 -27 -115.167 -71 -151.5s-112 -65.166 -204 -86.499c-31.333 -7.33301 -63.333 -11 -96 -11
c-58 0 -108.667 13.333 -152 40s-76.5 64.167 -99.5 112.5s-34.5 104.5 -34.5 168.5c0 66.667 13.333 138.667 40 216l152 -60c-21.333 -61.333 -32 -114.666 -32 -159.999c0 -44.667 10.5 -78.834 31.5 -102.501s51.833 -35.5 92.5 -35.5c16.667 0 37.334 2.66699 62.001 8
c44 10 76 18.333 96 25s34.167 14.5 42.5 23.5s12.5 21.167 12.5 36.5c0 4.66699 -0.666992 13 -2 25l-41 275l158 26l12 -79c4.66699 -28.667 9.16699 -49.5 13.5 -62.5s9.16602 -21.167 14.499 -24.5s12.666 -5 21.999 -5h21v0l57 78c39.333 54 71.5 95 96.5 123
s51.167 49.333 78.5 64s58.333 22 93 22c41.333 0 79 -10.667 113 -32s60.833 -50.333 80.5 -87s29.5 -77.334 29.5 -122.001c0 -6 -0.666992 -15 -2 -27c3.33301 -3.33301 10 -7.33301 20 -12s22 -7 36 -7h14zM1113.5 195c13 10 19.5 20.333 19.5 31
c0 18.667 -5.66699 33.5 -17 44.5s-26.666 16.5 -45.999 16.5c-16.667 0 -32.834 -7 -48.501 -21s-39.167 -42.667 -70.5 -86h119c16 0 30.5 5 43.5 15zM942.001 642l107 107l107 -107l-107 -107z" />
    <glyph glyph-name="uniFEBF" unicode="&#x636;" horiz-adv-x="830" arabic-form="initial" 
d="M670 435c34 -21.333 60.8301 -50.332 80.4971 -86.999s29.5 -77.334 29.5 -122.001c0 -40 -10.167 -77.333 -30.5 -112s-47.666 -62.334 -81.999 -83.001s-71.166 -31 -110.499 -31h-325c-39.333 0 -73.333 12.333 -102 37
c-35.333 -23.333 -78.666 -35.666 -129.999 -36.999h-5v180h5c21.333 0 36.833 2.5 46.5 7.5s15.167 15.833 16.5 32.5l11 124l160 -16l-11 -122l-1 -12c0 -5.33301 0.833008 -9 2.5 -11s4.16699 -3 7.5 -3l57 78c39.333 54 71.5 95 96.5 123s51.167 49.333 78.5 64
s58.333 22 93 22c41.333 0 79 -10.667 113 -32zM600.497 195.001c13 10 19.5 20.333 19.5 31c0 18.667 -5.66699 33.5 -17 44.5s-26.666 16.5 -45.999 16.5c-16.667 0 -32.834 -7 -48.501 -21s-39.167 -42.667 -70.5 -86h119c16 0 30.5 5 43.5 15zM428.997 613.001l107 107
l107 -107l-107 -107z" />
    <glyph glyph-name="uniFEC0" unicode="&#x636;" horiz-adv-x="843" arabic-form="medial" 
d="M848 180l-0.000976562 -180h-14c-48 -0 -95 16.333 -141 49c-40 -32.667 -85.333 -49 -136 -49h-325c-39.333 -0 -73.333 12.333 -102 37c-35.333 -23.333 -78.666 -35.666 -129.999 -36.999h-5v180h5c21.333 0 36.833 2.5 46.5 7.5s15.167 15.833 16.5 32.5l11 124
l160 -16l-11 -122l-1 -12c0 -5.33301 0.833008 -9 2.5 -11s4.16699 -3 7.5 -3l57 78c39.333 54 71.5 95 96.5 123s51.167 49.333 78.5 64s58.333 22 93 22c41.333 0 79 -10.667 113 -32s60.833 -50.333 80.5 -87s29.5 -77.334 29.5 -122.001c0 -6 -0.666992 -15 -2 -27
c3.33301 -3.33301 10 -7.33301 20 -12s22 -7 36 -7h14zM600.499 195c13 10 19.5 20.333 19.5 31c0 18.667 -5.66699 33.5 -17 44.5s-26.666 16.5 -45.999 16.5c-16.667 0 -32.834 -7 -48.501 -21s-39.167 -42.667 -70.5 -86h119c16 0 30.5 5 43.5 15zM425.999 627l107 107
l107 -107l-107 -107z" />
    <glyph glyph-name="uniFEC2" unicode="&#x637;" horiz-adv-x="717" arabic-form="final" 
d="M722 180v-180h-14c-41.333 -0 -82 12.333 -122 37c-37.333 -24.667 -77.333 -37 -120 -37h-416v180h91l27 37l-19 489l160 8l12 -307c22 20.667 44.5 35.834 67.5 45.501s48.833 14.5 77.5 14.5c41.333 0 79 -10.667 113 -32s60.833 -50.333 80.5 -87
s29.5 -77.334 29.5 -122.001c0 -16 -1.33301 -30.333 -4 -43c6 -2 13.667 -3 23 -3h14zM509.5 195c13 10 19.5 20.333 19.5 31c0 18.667 -5.66699 33.5 -17 44.5s-26.666 16.5 -45.999 16.5c-16.667 0 -32.834 -7 -48.501 -21s-39.167 -42.667 -70.5 -86h119
c16 0 30.5 5 43.5 15z" />
    <glyph glyph-name="uniFEC3" unicode="&#x637;" horiz-adv-x="684" arabic-form="initial" 
d="M524 435c34 -21.333 60.8311 -50.332 80.498 -86.999s29.5 -77.334 29.5 -122.001c0 -40 -10.167 -77.333 -30.5 -112s-47.666 -62.334 -81.999 -83.001s-71.166 -31 -110.499 -31h-416v180h91l27 37l-19 489l160 8l12 -307c22 20.667 44.5 35.834 67.5 45.501
s48.833 14.5 77.5 14.5c41.333 0 79 -10.667 113 -32zM454.498 195.001c13 10 19.5 20.333 19.5 31c0 18.667 -5.66699 33.5 -17 44.5s-26.666 16.5 -45.999 16.5c-16.667 0 -32.834 -7 -48.501 -21s-39.167 -42.667 -70.5 -86h119c16 0 30.5 5 43.5 15z" />
    <glyph glyph-name="uniFEC4" unicode="&#x637;" horiz-adv-x="697" arabic-form="medial" 
d="M702 180v-180h-14c-48 -0 -95 16.333 -141 49c-40 -32.667 -85.333 -49 -136 -49h-416v180h91l27 37l-19 489l160 8l12 -307c22 20.667 44.5 35.834 67.5 45.501s48.833 14.5 77.5 14.5c41.333 0 79 -10.667 113 -32s60.833 -50.333 80.5 -87s29.5 -77.334 29.5 -122.001
c0 -6 -0.666992 -15 -2 -27c3.33301 -3.33301 10 -7.33301 20 -12s22 -7 36 -7h14zM454.5 195c13 10 19.5 20.333 19.5 31c0 18.667 -5.66699 33.5 -17 44.5s-26.666 16.5 -45.999 16.5c-16.667 0 -32.834 -7 -48.501 -21s-39.167 -42.667 -70.5 -86h119
c16 0 30.5 5 43.5 15z" />
    <glyph glyph-name="uniFEC6" unicode="&#x638;" horiz-adv-x="717" arabic-form="final" 
d="M722 180v-180h-14c-41.333 -0 -82 12.333 -122 37c-37.333 -24.667 -77.333 -37 -120 -37h-416v180h91l27 37l-19 489l160 8l12 -307c22 20.667 44.5 35.834 67.5 45.501s48.833 14.5 77.5 14.5c41.333 0 79 -10.667 113 -32s60.833 -50.333 80.5 -87
s29.5 -77.334 29.5 -122.001c0 -16 -1.33301 -30.333 -4 -43c6 -2 13.667 -3 23 -3h14zM509.5 195c13 10 19.5 20.333 19.5 31c0 18.667 -5.66699 33.5 -17 44.5s-26.666 16.5 -45.999 16.5c-16.667 0 -32.834 -7 -48.501 -21s-39.167 -42.667 -70.5 -86h119
c16 0 30.5 5 43.5 15zM382 636l107 107l107 -107l-107 -107z" />
    <glyph glyph-name="uniFEC7" unicode="&#x638;" horiz-adv-x="684" arabic-form="initial" 
d="M524 435c34 -21.333 60.8311 -50.332 80.498 -86.999s29.5 -77.334 29.5 -122.001c0 -40 -10.167 -77.333 -30.5 -112s-47.666 -62.334 -81.999 -83.001s-71.166 -31 -110.499 -31h-416v180h91l27 37l-19 489l160 8l12 -307c22 20.667 44.5 35.834 67.5 45.501
s48.833 14.5 77.5 14.5c41.333 0 79 -10.667 113 -32zM454.498 195.001c13 10 19.5 20.333 19.5 31c0 18.667 -5.66699 33.5 -17 44.5s-26.666 16.5 -45.999 16.5c-16.667 0 -32.834 -7 -48.501 -21s-39.167 -42.667 -70.5 -86h119c16 0 30.5 5 43.5 15zM311.998 636.001
l107 107l107 -107l-107 -107z" />
    <glyph glyph-name="uniFEC8" unicode="&#x638;" horiz-adv-x="697" arabic-form="medial" 
d="M702 180v-180h-14c-48 -0 -95 16.333 -141 49c-40 -32.667 -85.333 -49 -136 -49h-416v180h91l27 37l-19 489l160 8l12 -307c22 20.667 44.5 35.834 67.5 45.501s48.833 14.5 77.5 14.5c41.333 0 79 -10.667 113 -32s60.833 -50.333 80.5 -87s29.5 -77.334 29.5 -122.001
c0 -6 -0.666992 -15 -2 -27c3.33301 -3.33301 10 -7.33301 20 -12s22 -7 36 -7h14zM454.5 195c13 10 19.5 20.333 19.5 31c0 18.667 -5.66699 33.5 -17 44.5s-26.666 16.5 -45.999 16.5c-16.667 0 -32.834 -7 -48.501 -21s-39.167 -42.667 -70.5 -86h119
c16 0 30.5 5 43.5 15zM306 636l107 107l107 -107l-107 -107z" />
    <glyph glyph-name="uniFECA" unicode="&#x639;" horiz-adv-x="639" arabic-form="final" 
d="M644 180v-180.002c-76.667 0 -132.167 1.16699 -166.5 3.5s-64 9 -89 20s-47.5 29.5 -67.5 55.5l-12 16c-65.333 -29.333 -98 -64.666 -98 -105.999c0 -24.667 10 -45.167 30 -61.5s43.667 -23.5 71 -21.5l293 25l14 -180l-295 -25l-18 -1c-46 0 -88.667 12 -128 36
s-70.5 56.5 -93.5 97.5s-34.5 85.833 -34.5 134.5c0 54.667 14.167 100.167 42.5 136.5s69.166 65.833 122.499 88.5l-97 129l45 141l247 38c10.667 1.33301 18.334 2 23.001 2c30.667 0 58.834 -8.83301 84.501 -26.5s46 -40.667 61 -69s22.5 -57.5 22.5 -87.5
c0 -31.333 -8.33301 -59.666 -25 -84.999c-15.333 -30 -36 -56 -62 -78c41.333 -1.33301 84.666 -2 129.999 -2zM317 350.998l66 -81.999c24 9.33301 42 22.666 54 39.999s19 36.333 21 57c-89.333 -11.333 -136.333 -16.333 -141 -15z" />
    <glyph glyph-name="uniFECB" unicode="&#x639;" horiz-adv-x="538" arabic-form="initial" 
d="M305 11c-3.33301 0 -5.66504 -0.333008 -6.99805 -1c-48.667 -5.33301 -145.667 -8.66602 -291 -9.99902h-12v180h10l59 1c-1.33301 2.66699 -2.66602 8 -3.99902 16c-2.66699 13.333 -4 28.666 -4 45.999c0 36 7.66699 70.167 23 102.5s36.833 59.5 64.5 81.5
s59.167 36 94.5 42c6 1.33301 16 2 30 2c41.333 0 92.333 -8 153 -24l-42 -174c-50.667 13.333 -85.334 20 -104.001 20c-16.667 0 -30.834 -5 -42.501 -15s-17.5 -22 -17.5 -36c0 -14.667 5.66699 -27 17 -37s24.666 -15.333 39.999 -16l16 2v-1l170 32l30 -176l-172 -33z
" />
    <glyph glyph-name="uniFECC" unicode="&#x639;" horiz-adv-x="529" arabic-form="medial" 
d="M534 0c-75.333 0 -134.501 2.16797 -177.501 6.50098s-80.833 14.833 -113.5 31.5c-78 -25.333 -154.667 -38 -230 -38h-18v180h18c41.333 0 71 0.333008 89 1l-79 107l46 141l245 36c10.667 1.33301 18.667 2 24 2c30.667 0 58.834 -8.33301 84.501 -25
s45.834 -38.834 60.501 -66.501s22 -56.834 22 -87.501c0 -24 -4.33301 -46.667 -13 -68c-6.66699 -15.333 -14.334 -28.666 -23.001 -39.999h65v-180zM288.999 210.001c22 9.33301 39 21.667 51 37s19.667 35 23 59l-141 -15z" />
    <glyph glyph-name="uniFECE" unicode="&#x63a;" horiz-adv-x="639" arabic-form="final" 
d="M644 180v-180.002c-76.667 0 -132.167 1.16699 -166.5 3.5s-64 9 -89 20s-47.5 29.5 -67.5 55.5l-12 16c-65.333 -29.333 -98 -64.666 -98 -105.999c0 -24.667 10 -45.167 30 -61.5s43.667 -23.5 71 -21.5l293 25l14 -180l-295 -25l-18 -1c-46 0 -88.667 12 -128 36
s-70.5 56.5 -93.5 97.5s-34.5 85.833 -34.5 134.5c0 54.667 14.167 100.167 42.5 136.5s69.166 65.833 122.499 88.5l-97 129l45 141l247 38c10.667 1.33301 18.334 2 23.001 2c30.667 0 58.834 -8.83301 84.501 -26.5s46 -40.667 61 -69s22.5 -57.5 22.5 -87.5
c0 -31.333 -8.33301 -59.666 -25 -84.999c-15.333 -30 -36 -56 -62 -78c41.333 -1.33301 84.666 -2 129.999 -2zM317 350.998l66 -81.999c24 9.33301 42 22.666 54 39.999s19 36.333 21 57c-89.333 -11.333 -136.333 -16.333 -141 -15zM253 663.999l107 107l107 -107
l-107 -107z" />
    <glyph glyph-name="uniFECF" unicode="&#x63a;" horiz-adv-x="538" arabic-form="initial" 
d="M305 11c-3.33301 0 -5.66504 -0.333008 -6.99805 -1c-48.667 -5.33301 -145.667 -8.66602 -291 -9.99902h-12v180h10l59 1c-1.33301 2.66699 -2.66602 8 -3.99902 16c-2.66699 13.333 -4 28.666 -4 45.999c0 36 7.66699 70.167 23 102.5s36.833 59.5 64.5 81.5
s59.167 36 94.5 42c6 1.33301 16 2 30 2c41.333 0 92.333 -8 153 -24l-42 -174c-50.667 13.333 -85.334 20 -104.001 20c-16.667 0 -30.834 -5 -42.501 -15s-17.5 -22 -17.5 -36c0 -14.667 5.66699 -27 17 -37s24.666 -15.333 39.999 -16l16 2v-1l170 32l30 -176l-172 -33z
M136.001 616l107 107l107 -107l-107 -107z" />
    <glyph glyph-name="uniFED0" unicode="&#x63a;" horiz-adv-x="529" arabic-form="medial" 
d="M534 0c-75.333 0 -134.501 2.16797 -177.501 6.50098s-80.833 14.833 -113.5 31.5c-78 -25.333 -154.667 -38 -230 -38h-18v180h18c41.333 0 71 0.333008 89 1l-79 107l46 141l245 36c10.667 1.33301 18.667 2 24 2c30.667 0 58.834 -8.33301 84.501 -25
s45.834 -38.834 60.501 -66.501s22 -56.834 22 -87.501c0 -24 -4.33301 -46.667 -13 -68c-6.66699 -15.333 -14.334 -28.666 -23.001 -39.999h65v-180zM288.999 210.001c22 9.33301 39 21.667 51 37s19.667 35 23 59l-141 -15zM170.999 633.002l107 107l107 -107l-107 -107z
" />
    <glyph glyph-name="uniFED2" unicode="&#x641;" horiz-adv-x="992" arabic-form="final" 
d="M997 180l0.00292969 -180.002h-58c-62 0 -124.667 12 -188 36c-68.667 -24 -136 -36 -202 -36h-52c-106.667 0 -180.334 1.83301 -221.001 5.5s-76.334 12.167 -107.001 25.5c-38 16.667 -67.333 41.667 -88 75s-31 71.333 -31 114c0 24.667 3.33301 49 10 73l39 148
l154 -46l-40 -156c-2 -8 -3 -14.333 -3 -19c0 -5.33301 1.66699 -9.66602 5 -12.999s9.33301 -7.33301 18 -12c13.333 -5.33301 37 -9.16602 71 -11.499s100 -3.5 198 -3.5h47h2c-11.333 21.333 -16 43 -14 65l6 60c4 38 16 71.833 36 101.5s45.5 52.834 76.5 69.501
s64.5 25 100.5 25c10.667 0 18.667 -0.333008 24 -1c36.667 -4 69.667 -17.333 99 -40s51.666 -51.5 66.999 -86.5s22 -71.833 20 -110.5l-3 -48c-1.33301 -12.667 -4.33301 -24.334 -9 -35.001h43zM748.003 204.998c30 9.33301 48.334 19 55.001 29l5 31
c2 14 -2.5 27 -13.5 39s-24.5 18 -40.5 18c-14 0 -26.333 -4.33301 -37 -13s-16.334 -20 -17.001 -34l-3 -37c16 -14.667 33 -25.667 51 -33zM668.004 644.998l107 107l107 -107l-107 -107z" />
    <glyph glyph-name="uniFED3" unicode="&#x641;" horiz-adv-x="509" arabic-form="initial" 
d="M228 710l-107 107l107 107l107 -107zM459 195c0 -65.333 -22.001 -114.168 -66.001 -146.501s-116.667 -48.5 -218 -48.5h-180v180h182c42.667 0 72.167 0.666992 88.5 2s27.166 4.33301 32.499 9s7.33301 13.334 6 26.001c-29.333 -1.33301 -57.333 -2 -84 -2
c-58.667 0 -105.5 16.5 -140.5 49.5s-52.5 78.833 -52.5 137.5c0 72 17.833 130.833 53.5 176.5s86.834 68.5 153.501 68.5c38.667 0 73.5 -9.66699 104.5 -29s55.833 -46.5 74.5 -81.5s29.334 -75.167 32.001 -120.5l13 -198c0.666992 -5.33301 1 -13 1 -23z
M219.999 380.998c22.667 0 46.667 0.666992 72 2l-2 20c-6 54.667 -27.333 82 -64 82c-16 0 -29 -5.83301 -39 -17.5s-15 -26.5 -15 -44.5c0 -28 16 -42 48 -42z" />
    <glyph glyph-name="uniFED4" unicode="&#x641;" horiz-adv-x="490" arabic-form="medial" 
d="M266 566l-107 107l107 107l107 -107zM495 180l0.000976562 -180h-58c-62 0 -124.667 12 -188 36c-68.667 -24 -136 -36 -202 -36h-52v180h52h2c-11.333 21.333 -16 43 -14 65l6 60c4 38 16 71.833 36 101.5s45.5 52.834 76.5 69.501s64.5 25 100.5 25
c10.667 0 18.667 -0.333008 24 -1c36.667 -4 69.667 -17.333 99 -40s51.666 -51.5 66.999 -86.5s22 -71.833 20 -110.5l-3 -48c-1.33301 -12.667 -4.33301 -24.334 -9 -35.001h43zM246.001 205c30 9.33301 48.334 19 55.001 29l5 31c2 14 -2.5 27 -13.5 39
s-24.5 18 -40.5 18c-14 0 -26.333 -4.33301 -37 -13s-16.334 -20 -17.001 -34l-3 -37c16 -14.667 33 -25.667 51 -33z" />
    <glyph glyph-name="uniFED6" unicode="&#x642;" horiz-adv-x="778" arabic-form="final" 
d="M336 -247c-58 0 -108.669 13.333 -152.002 40s-76.5 64.167 -99.5 112.5s-34.5 104.5 -34.5 168.5c0 66.667 13.333 138.667 40 216l152 -60c-21.333 -61.333 -32 -114.666 -32 -159.999c0 -44.667 10.5 -78.834 31.5 -102.501s51.833 -35.5 92.5 -35.5
c16.667 0 37.334 2.66699 62.001 8c56.667 12 101.5 22.5 134.5 31.5s49.5 17.167 49.5 24.5v4h-88c-41.333 -0 -78 9.33301 -110 28s-56.667 45 -74 79s-26 73.333 -26 118c0 43.333 9.5 83.5 28.5 120.5s44.833 66.5 77.5 88.5s69.334 33 110.001 33
s77.167 -10.5 109.5 -31.5s58.5 -50.333 78.5 -88s32.667 -80.5 38 -128.5l4 -39h55v-180h-39l-1 -14c-4 -41.333 -17.333 -75.5 -40 -102.5s-55.5 -49.667 -98.5 -68s-100.5 -35.5 -172.5 -51.5c-31.333 -7.33301 -63.333 -11 -96 -11zM563.998 200
c-6 58 -28 87.001 -66 87.001c-16.667 0 -30 -5.83301 -40 -17.5s-15 -26.834 -15 -45.501c0 -16.667 3.16699 -28.167 9.5 -34.5s19.5 -9.5 39.5 -9.5h74zM292.998 582.001l94 95l95 -95l-95 -94zM509.998 582.001l94 95l95 -95l-95 -94z" />
    <glyph glyph-name="uniFED7" unicode="&#x642;" horiz-adv-x="509" arabic-form="initial" 
d="M120 699l-94 94l94 95l95 -95zM337 699l-94 94l94 95l95 -95zM459 195c0 -65.333 -22.001 -114.168 -66.001 -146.501s-116.667 -48.5 -218 -48.5h-180v180h182c42.667 0 72.167 0.666992 88.5 2s27.166 4.33301 32.499 9s7.33301 13.334 6 26.001
c-29.333 -1.33301 -57.333 -2 -84 -2c-58.667 0 -105.5 16.5 -140.5 49.5s-52.5 78.833 -52.5 137.5c0 72 17.833 130.833 53.5 176.5s86.834 68.5 153.501 68.5c38.667 0 73.5 -9.66699 104.5 -29s55.833 -46.5 74.5 -81.5s29.334 -75.167 32.001 -120.5l13 -198
c0.666992 -5.33301 1 -13 1 -23zM219.999 380.998c22.667 0 46.667 0.666992 72 2l-2 20c-6 54.667 -27.333 82 -64 82c-16 0 -29 -5.83301 -39 -17.5s-15 -26.5 -15 -44.5c0 -28 16 -42 48 -42z" />
    <glyph glyph-name="uniFED8" unicode="&#x642;" horiz-adv-x="490" arabic-form="medial" 
d="M154 587l-94 94l94 95l95 -95zM371 587l-94 94l94 95l95 -95zM495 180l0.000976562 -180h-58c-62 0 -124.667 12 -188 36c-68.667 -24 -136 -36 -202 -36h-52v180h52h2c-11.333 21.333 -16 43 -14 65l6 60c4 38 16 71.833 36 101.5s45.5 52.834 76.5 69.501
s64.5 25 100.5 25c10.667 0 18.667 -0.333008 24 -1c36.667 -4 69.667 -17.333 99 -40s51.666 -51.5 66.999 -86.5s22 -71.833 20 -110.5l-3 -48c-1.33301 -12.667 -4.33301 -24.334 -9 -35.001h43zM246.001 205c30 9.33301 48.334 19 55.001 29l5 31c2 14 -2.5 27 -13.5 39
s-24.5 18 -40.5 18c-14 0 -26.333 -4.33301 -37 -13s-16.334 -20 -17.001 -34l-3 -37c16 -14.667 33 -25.667 51 -33z" />
    <glyph glyph-name="uniFEDA" unicode="&#x643;" horiz-adv-x="951" arabic-form="final" 
d="M956 180l0.000976562 -179.999h-20c-47.333 0 -89 13.667 -125 41c-36 -27.333 -79.667 -41 -131 -41h-178c-76 0 -133 0.666992 -171 2s-69 4.16602 -93 8.49902s-47 11.166 -69 20.499c-38 16.667 -67.333 41.667 -88 75s-31 71.333 -31 114c0 24.667 3.33301 49 10 73
l39 148l154 -46l-40 -156c-2 -8 -3 -14.333 -3 -19c0 -5.33301 1.66699 -9.66602 5 -12.999s9.33301 -7.33301 18 -12c13.333 -5.33301 37 -9.16602 71 -11.499s100 -3.5 198 -3.5h178c20 0 33.167 2.16699 39.5 6.5s9.16602 12.166 8.49902 23.499l-19 496l160 8l19 -490
c0.666992 -17.333 4.5 -29 11.5 -35s19.167 -9 36.5 -9h20zM551.001 382.001c0 -14.667 -5 -27.665 -15 -38.998s-23 -17 -39 -17h-89v70h47c4 0 6 0.333008 6 1c0 1.33301 -1.66699 3.66602 -5 6.99902l-42 42l14 58l98 33l22 -66l-45 -15l31 -33
c11.333 -10.667 17 -24.334 17 -41.001z" />
    <glyph glyph-name="uniFEDB" unicode="&#x643;" horiz-adv-x="499" arabic-form="initial" 
d="M360 318c34 -52 50.999 -102.331 50.999 -150.998c0 -36 -9.66699 -67.667 -29 -95c-16 -22.667 -37.667 -40.334 -65 -53.001s-59.666 -19 -96.999 -19h-225v180h227c10 0 16.667 1.66699 20 5c2.66699 2.66699 4 5.66699 4 9c0 5.33301 -2.33301 10.666 -7 15.999
l-219 310l36 136l362 133l56 -168l-254 -93z" />
    <glyph glyph-name="uniFEDC" unicode="&#x643;" horiz-adv-x="518" arabic-form="medial" 
d="M523 180v-180h-14c-52 0 -99.333 18 -142 54c-16.667 -17.333 -37.5 -30.666 -62.5 -39.999s-53.167 -14 -84.5 -14h-225v180h227c10 0 16.667 1.66699 20 5c2.66699 2.66699 4 5.66699 4 9c0 5.33301 -2.33301 10.666 -7 15.999l-219 310l36 136l362 133l56 -168
l-254 -93l140 -210l19 -32c16.667 -29.333 31.5 -51.5 44.5 -66.5s26 -25.333 39 -31s28.5 -8.5 46.5 -8.5h14z" />
    <glyph glyph-name="uniFEDE" unicode="&#x644;" horiz-adv-x="760" arabic-form="final" 
d="M765 180l-0.000976562 -180h-20c-17.333 -0 -31.666 1.33301 -42.999 4c-4.66699 -44.667 -17.167 -82.167 -37.5 -112.5s-49.166 -55.5 -86.499 -75.5s-86.333 -37.333 -147 -52c-38 -8.66699 -71 -13 -99 -13c-57.333 0 -107.333 13.333 -150 40
s-75.334 64.334 -98.001 113.001s-34 105 -34 169c0 70 13 142 39 216l152 -60c-21.333 -60 -32 -113.333 -32 -160c0 -44.667 10.5 -79 31.5 -103s51.167 -36 90.5 -36c20.667 0 41.334 2.66699 62.001 8c50 12.667 84.667 23 104 31s32.166 18.167 38.499 30.5
s8.83301 32.166 7.5 59.499l-25 647l160 8l19 -490c0.666992 -17.333 4.5 -29 11.5 -35s19.167 -9 36.5 -9h20z" />
    <glyph glyph-name="uniFEDF" unicode="&#x644;" horiz-adv-x="276" arabic-form="initial" 
d="M203.5 105.5c-17 -33 -41.499 -58.832 -73.499 -77.499s-69.333 -28 -112 -28h-25v180h25c20 0 33.167 2.16699 39.5 6.5s9.16602 12.166 8.49902 23.499l-19 496l160 8l19 -496c2 -42 -5.5 -79.5 -22.5 -112.5z" />
    <glyph glyph-name="uniFEE0" unicode="&#x644;" horiz-adv-x="289" arabic-form="medial" 
d="M294 180l0.000976562 -179.999h-20c-47.333 0 -89 13.667 -125 41c-36 -27.333 -79.667 -41 -131 -41h-25v180h25c20 0 33.167 2.16699 39.5 6.5s9.16602 12.166 8.49902 23.499l-19 496l160 8l19 -490c0.666992 -17.333 4.5 -29 11.5 -35s19.167 -9 36.5 -9h20z" />
    <glyph glyph-name="uniFEE2" unicode="&#x645;" horiz-adv-x="627" arabic-form="final" 
d="M632 0c-50 0 -90.668 14 -122.001 42c-30.667 -32 -66 -48 -106 -48c-21.333 0 -44 5.66699 -68 17l-126 64l20 -369l-160 -6l-20 520l109 73l21 -11l37 72c16.667 32.667 39.5 58 68.5 76s60.167 27 93.5 27c30 0 59.333 -7.33301 88 -22
c34 -18 60.333 -45.167 79 -81.5s28.334 -76.833 29.001 -121.5c0 -18 4.5 -31.167 13.5 -39.5s23.5 -12.5 43.5 -12.5v-180zM434.999 234c0 20.667 -8.33398 35.666 -25.001 44.999c-7.33301 4 -14.666 6 -21.999 6c-20.667 0 -39.667 -17 -57 -51l-12 -22l96 -49
c13.333 28.667 20 52.334 20 71.001z" />
    <glyph glyph-name="uniFEE3" unicode="&#x645;" horiz-adv-x="549" arabic-form="initial" 
d="M470.5 352c19 -36.667 28.5029 -77.3311 28.5029 -121.998c0 -52.667 -13 -103 -39 -151c-14.667 -26.667 -33.834 -47.334 -57.501 -62.001s-49.167 -22 -76.5 -22c-24 0 -47 5.66699 -69 17l-102 52c-41.333 -42.667 -91 -64 -149 -64h-11v180h11
c13.333 0 25.166 2.5 35.499 7.5s18.166 11.833 23.499 20.5l75 144c17.333 33.333 40.5 59.333 69.5 78s60.167 28 93.5 28c30.667 0 60 -7.66699 88 -23c34 -18.667 60.5 -46.334 79.5 -83.001zM359.003 233.003c0 21.333 -8.33301 36.667 -25 46c-6.66699 4 -14 6 -22 6
c-20.667 0 -39.667 -17 -57 -51l-12 -23l96 -48c13.333 28 20 51.333 20 70z" />
    <glyph glyph-name="uniFEE4" unicode="&#x645;" horiz-adv-x="551" arabic-form="medial" 
d="M556 0c-50 0 -90.999 14 -122.999 42c-14.667 -15.333 -31.167 -27 -49.5 -35s-37.5 -12 -57.5 -12c-24 0 -47 5.66699 -69 17l-102 52c-41.333 -42.667 -91 -64 -149 -64h-11v180h11c13.333 0 25.166 2.5 35.499 7.5s18.166 11.833 23.499 20.5l75 144
c17.333 33.333 40.5 59.333 69.5 78s60.167 28 93.5 28c30.667 0 60 -7.66699 88 -23c34 -18.667 60.333 -46.167 79 -82.5s28.334 -76.5 29.001 -120.5c0 -18 4.5 -31.167 13.5 -39.5s23.5 -12.5 43.5 -12.5v-180zM359.001 233c0 21.333 -8.33301 36.667 -25 46
c-6.66699 4 -14 6 -22 6c-20.667 0 -39.667 -17 -57 -51l-12 -23l96 -48c13.333 28 20 51.333 20 70z" />
    <glyph glyph-name="uniFEE6" unicode="&#x646;" horiz-adv-x="746" arabic-form="final" 
d="M751 180l0.000976562 -180.001h-21c-6 0 -13.667 0.666992 -23 2c-3.33301 -64.667 -27 -115.167 -71 -151.5s-112 -65.166 -204 -86.499c-31.333 -7.33301 -63.333 -11 -96 -11c-58 0 -108.667 13.333 -152 40s-76.5 64.167 -99.5 112.5s-34.5 104.5 -34.5 168.5
c0 66.667 13.333 138.667 40 216l152 -60c-21.333 -61.333 -32 -114.666 -32 -159.999c0 -44.667 10.5 -78.834 31.5 -102.501s51.833 -35.5 92.5 -35.5c16.667 0 37.334 2.66699 62.001 8c44 10 76 18.333 96 25s34.167 14.5 42.5 23.5s12.5 21.167 12.5 36.5
c0 4.66699 -0.666992 13 -2 25l-41 275l158 26l12 -79c4.66699 -28.667 9.16699 -49.5 13.5 -62.5s9.16602 -21.167 14.499 -24.5s12.666 -5 21.999 -5h27zM254.001 364.999l107 107l107 -107l-107 -107z" />
    <glyph glyph-name="uniFEE7" unicode="&#x646;" horiz-adv-x="351" arabic-form="initial" 
d="M74 180c24.667 0 41.999 2.49902 51.999 7.49902s15 14.167 15 27.5c0 6.66699 -1.66699 17.334 -5 32.001l-40 149l154 46l40 -149c7.33301 -25.333 11 -52.333 11 -81c0 -41.333 -9.16699 -78 -27.5 -110s-44.666 -57 -78.999 -75s-74.5 -27 -120.5 -27h-79v180h79z
M16.999 594.999l107 107l107 -107l-107 -107z" />
    <glyph glyph-name="uniFEE8" unicode="&#x646;" horiz-adv-x="309" arabic-form="medial" 
d="M314 0c-51.333 0 -93.667 12 -127 36c-35.333 -24 -78.333 -36 -129 -36h-63v180h63c20.667 0 34 1.5 40 4.5s8.66699 8.83301 8 17.5v3l-11 123l160 16l11 -123v-3c1.33301 -12 3 -20.5 5 -25.5s6.16699 -8.33301 12.5 -10s16.5 -2.5 30.5 -2.5v-180zM28.999 512
l107 107l107 -107l-107 -107z" />
    <glyph glyph-name="uniFEEA" unicode="&#x647;" horiz-adv-x="560" arabic-form="final" 
d="M565 180v-179.998h-19c-36.667 0 -70.667 7.83301 -102 23.5s-58 37.5 -80 65.5l-94 -15c-4 -0.666992 -10 -1 -18 -1c-26 0 -52 6.5 -78 19.5s-49 30.667 -69 53s-34.667 47.166 -44 74.499c-7.33301 23.333 -11 45.666 -11 66.999c0 45.333 13 87.333 39 126
s60 65 102 79l118 39v28h160v-312c0 -18.667 7.33301 -34.5 22 -47.5s33 -19.5 55 -19.5h19zM309 262.002v91l-68 -24c-20.667 -7.33301 -31 -19.666 -31 -36.999c0 -10.667 4.33301 -20.334 13 -29.001s19.667 -12 33 -10z" />
    <glyph glyph-name="uniFEEB" unicode="&#x647;" horiz-adv-x="698" arabic-form="initial" 
d="M617.5 298.5c20.333 -35.667 30.5 -73.502 30.5 -113.502c0 -32.667 -6.66699 -62.667 -20 -90c-18 -37.333 -43.167 -66.666 -75.5 -87.999s-67.5 -32 -105.5 -32c-29.333 0 -57.666 6.33301 -84.999 19l-99 46c-59.333 -26.667 -126 -40 -200 -40h-68v180h58
c-19.333 33.333 -29 70 -29 110c0 32.667 7 64.334 21 95.001c22 47.333 55.667 82.333 101 105l35 75l353 -186c35.333 -18 63.166 -44.833 83.499 -80.5zM283 284.998c0 8 -2.16699 15.501 -6.5 22.501s-10.5 12.833 -18.5 17.5c-10.667 5.33301 -20 8 -28 8
c-7.33301 0 -13.833 -1.66699 -19.5 -5s-10.167 -8 -13.5 -14c-4 -6.66699 -6 -14 -6 -22c0 -16 8.66699 -28.333 26 -37l44 -22c3.33301 4.66699 6.83301 10.667 10.5 18l7.5 15c2.66699 5.33301 4 11.666 4 18.999zM491 180.999c0 18 -9.33398 31.665 -28.001 40.998
l-25 13c-4 -14 -9 -28.333 -15 -43c-4.66699 -11.333 -10.667 -22.666 -18 -33.999l22 -11c6 -3.33301 13.333 -5 22 -5s16.334 1.83301 23.001 5.5s11.667 9.16699 15 16.5c2.66699 4.66699 4 10.334 4 17.001z" />
    <glyph glyph-name="uniFEEC" unicode="&#x647;" horiz-adv-x="497" arabic-form="medial" 
d="M502 180l0.00195312 -180.003h-58c-8.66699 0 -15.667 -2 -21 -6s-8 -8.66699 -8 -14v-139l-80 -80c-44.667 -0.666992 -86.167 9 -124.5 29s-71 48.333 -98 85s-46.167 78.334 -57.5 125.001h-60v180h69c19.333 72 49.666 167 90.999 285l97 49l72 -20
c39.333 -11.333 70.833 -36.666 94.5 -75.999s35.5 -82.666 35.5 -129.999c0 -35.333 -6.66699 -67.333 -20 -96l-6 -13c3.33301 0.666992 8.66602 1 15.999 1h58zM231.002 198.997c32.667 12.667 55 34.334 67 65.001c2 5.33301 3 10.666 3 15.999c0 9.33301 -2 18 -6 26
s-9 12.667 -15 14l-7 2c-16 -43.333 -30 -84.333 -42 -123zM261.002 -20.0029c0 19.333 2.66797 38.666 8.00098 57.999c-18.667 -8 -38.667 -15 -60 -21c7.33301 -39.333 24.666 -66.666 51.999 -81.999v45z" />
    <glyph glyph-name="uniFEEE" unicode="&#x648;" horiz-adv-x="546" arabic-form="final" 
d="M551 0l-38.998 0.00292969c-1.33301 -50.667 -14.333 -91.334 -39 -122.001s-62.334 -55.834 -113.001 -75.501s-121.667 -39.167 -213 -58.5l-32 176c64.667 14 111.667 24.667 141 32s51.166 14.666 65.499 21.999s23.166 16 26.499 26h-88
c-41.333 -0 -78 9.33301 -110 28s-56.667 45 -74 79s-26 73.333 -26 118c0 43.333 9.5 83.5 28.5 120.5s44.833 66.5 77.5 88.5s69.334 33 110.001 33s77.167 -10.5 109.5 -31.5s58.5 -50.333 78.5 -88s32.667 -80.5 38 -128.5l4 -39h55v-180zM220.502 189.503
c6.33301 -6.33301 19.5 -9.49902 39.5 -9.49902h74l-2 20c-6 58 -28 87 -66 87c-16.667 0 -30 -5.83301 -40 -17.5s-15 -26.834 -15 -45.501c0 -16.667 3.16699 -28.167 9.5 -34.5z" />
    <glyph glyph-name="uniFEF0" unicode="&#x649;" horiz-adv-x="735" arabic-form="final" 
d="M740 0l-33.9971 -0.000976562c-2.66699 -60.667 -25.334 -109.667 -68.001 -147s-111.334 -67 -206.001 -89c-31.333 -7.33301 -63.333 -11 -96 -11c-58 0 -108.667 13.333 -152 40s-76.5 64.167 -99.5 112.5s-34.5 104.5 -34.5 168.5c0 66.667 13.333 138.667 40 216
l152 -60c-21.333 -60 -32 -113 -32 -159c0 -44.667 10.667 -78.834 32 -102.501s52.666 -35.5 93.999 -35.5c19.333 0 39.333 2.33301 60 7c48 10.667 82.333 19.834 103 27.501s34.167 16 40.5 25s8.83301 21.833 7.5 38.5l-119 38l49 171
c61.333 -17.333 110.833 -30.666 148.5 -39.999s62.667 -15 75 -17s25.5 -3 39.5 -3v-180z" />
    <glyph glyph-name="uniFEF2" unicode="&#x64a;" horiz-adv-x="735" arabic-form="final" 
d="M740 0l-33.9971 -0.000976562c-2.66699 -60.667 -25.334 -109.667 -68.001 -147s-111.334 -67 -206.001 -89c-31.333 -7.33301 -63.333 -11 -96 -11c-58 0 -108.667 13.333 -152 40s-76.5 64.167 -99.5 112.5s-34.5 104.5 -34.5 168.5c0 66.667 13.333 138.667 40 216
l152 -60c-21.333 -60 -32 -113 -32 -159c0 -44.667 10.667 -78.834 32 -102.501s52.666 -35.5 93.999 -35.5c19.333 0 39.333 2.33301 60 7c48 10.667 82.333 19.834 103 27.501s34.167 16 40.5 25s8.83301 21.833 7.5 38.5l-119 38l49 171
c61.333 -17.333 110.833 -30.666 148.5 -39.999s62.667 -15 75 -17s25.5 -3 39.5 -3v-180zM173.003 -367.001l94 95l95 -95l-95 -94zM390.003 -367.001l94 95l95 -95l-95 -94z" />
    <glyph glyph-name="uniFEF3" unicode="&#x64a;" horiz-adv-x="430" arabic-form="initial" 
d="M152 180c24 0 40.999 2.66699 50.999 8s15 14.333 15 27c0 6.66699 -1.66699 17.334 -5 32.001l-39 149l154 46l42 -158c6.66699 -24.667 10 -49.334 10 -74.001c0 -40.667 -9.5 -77 -28.5 -109s-45.667 -56.833 -80 -74.5s-74.166 -26.5 -119.499 -26.5h-157v180h157z
M-94.001 -150l94 95l95 -95l-95 -94zM122.999 -150l94 95l95 -95l-95 -94z" />
    <glyph glyph-name="uniFEF4" unicode="&#x64a;" horiz-adv-x="438" arabic-form="medial" 
d="M443 0c-51.333 0 -93.666 11.999 -126.999 35.999c-35.333 -24 -78.333 -36 -129 -36h-192v180h192c21.333 0 35 1.66699 41 5s8.33301 10 7 20l-11 123l160 16l11 -123c0 -3.33301 0.333008 -6 1 -8c1.33301 -10.667 3.16602 -18.167 5.49902 -22.5
s6.33301 -7.16602 12 -8.49902s15.5 -2 29.5 -2v-180zM0 -152.001l94 95l95 -95l-95 -94zM217 -152.001l94 95l95 -95l-95 -94z" />
    <glyph glyph-name=".notdef" horiz-adv-x="300" 
d="M270 525v-550h-240v550h240zM230 475h-160v-450h160v450z" />
    <glyph glyph-name="nonmarkingreturn" unicode="&#xd;" horiz-adv-x="300" 
 />
    <glyph glyph-name="space" unicode=" " horiz-adv-x="200" 
 />
    <glyph glyph-name="exclam" unicode="!" horiz-adv-x="288" 
d="M238 700l-20 -464h-148l-20 464h188zM77 -8.5c-18 18.333 -27 40.5 -27 66.5c0 25.333 9 47 27 65s40.333 27 67 27c25.333 0 47 -9 65 -27s27 -39.667 27 -65c0 -26 -9 -48.167 -27 -66.5s-39.667 -27.5 -65 -27.5c-26.667 0 -49 9.16699 -67 27.5z" />
    <glyph glyph-name="quotedbl" unicode="&#x22;" horiz-adv-x="464" 
d="M442 700l-21 -240h-148l-19 240h188zM210 700l-21 -240h-148l-19 240h188z" />
    <glyph glyph-name="numbersign" unicode="#" horiz-adv-x="705" 
d="M581 387l-10 -69h67v-160h-92l-19 -124h-188l19 124h-71l-19 -124h-188l19 124h-69v160h94l10 69h-67v161h92l19 124h188l-19 -124h71l19 124h188l-19 -124h69v-161h-94zM393 387h-71l-10 -69h71z" />
    <glyph glyph-name="dollar" unicode="$" horiz-adv-x="616" 
d="M523 59c-32.667 -36 -77.665 -60.002 -134.998 -72.002l2 -68h-164l2 70c-57.333 12.667 -102.333 37.834 -135 75.501s-49 84.167 -49 139.5v29h178v-21c0 -18.667 9.33301 -35.167 28 -49.5s43.667 -21.5 75 -21.5c24 0 41.167 5.16699 51.5 15.5
s15.5 21.833 15.5 34.5c0 13.333 -6 24 -18 32s-32.333 17 -61 27l-18 6.5c-6.66699 2.33301 -13.667 5.16602 -21 8.49902c-47.333 19.333 -84.833 36.333 -112.5 51s-53 36.834 -76 66.501s-34.5 67.5 -34.5 113.5c0 52 16.167 96 48.5 132s75.166 60 128.499 72l-2 91
h164l-2 -94c54 -14.667 97.5 -41.5 130.5 -80.5s49.5 -85.833 49.5 -140.5v-24h-177v16c0 20 -8.66699 38.167 -26 54.5s-40.666 24.5 -69.999 24.5c-20.667 0 -37 -4.33301 -49 -13s-18 -20.667 -18 -36c0 -17.333 9.83301 -32.5 29.5 -45.5s55.167 -27.833 106.5 -44.5
c39.333 -13.333 72.166 -26.166 98.499 -38.499s51.166 -32.833 74.499 -61.5s35 -66 35 -112c0 -55.333 -16.333 -101 -49 -137z" />
    <glyph glyph-name="percent" unicode="%" horiz-adv-x="756" 
d="M109 393.5c-25.333 15 -45.5 35.5 -60.5 61.5s-22.5 54.333 -22.5 85s7.5 58.834 22.5 84.501s35.167 46 60.5 61s53 22.5 83 22.5s57.667 -7.5 83 -22.5s45.333 -35.333 60 -61s22 -53.834 22 -84.501s-7.33301 -59 -22 -85s-34.667 -46.5 -60 -61.5
s-53 -22.5 -83 -22.5s-57.667 7.5 -83 22.5zM630 700l-377 -700h-132l377 700h132zM241 486.5c13.333 14.333 20 32.168 20 53.501c0 20.667 -6.66699 38.167 -20 52.5s-29.666 21.5 -48.999 21.5s-35.833 -7.16699 -49.5 -21.5s-20.5 -31.833 -20.5 -52.5
s6.83301 -38.334 20.5 -53.001s30.167 -22 49.5 -22s35.666 7.16699 48.999 21.5zM480 14.502c-25.333 15 -45.5 35.5 -60.5 61.5s-22.5 54.333 -22.5 85s7.5 58.834 22.5 84.501s35.167 46 60.5 61s53 22.5 83 22.5s57.667 -7.5 83 -22.5s45.333 -35.333 60 -61
s22 -53.834 22 -84.501s-7.33301 -59 -22 -85s-34.667 -46.5 -60 -61.5s-53 -22.5 -83 -22.5s-57.667 7.5 -83 22.5zM612 107.502c13.333 14.333 20 32.168 20 53.501c0 20.667 -6.66699 38.167 -20 52.5s-29.666 21.5 -48.999 21.5s-35.833 -7.16699 -49.5 -21.5
s-20.5 -31.833 -20.5 -52.5s6.83301 -38.334 20.5 -53.001s30.167 -22 49.5 -22s35.666 7.16699 48.999 21.5z" />
    <glyph glyph-name="ampersand" unicode="&#x26;" horiz-adv-x="734" 
d="M497 0l-39.001 40.998c-65.333 -32.667 -131.666 -49 -198.999 -49c-65.333 0 -120.666 15.333 -165.999 46s-68 77.334 -68 140.001c0 44 11.333 80.833 34 110.5s53.667 55.834 93 78.501c-30.667 36 -50.834 64.667 -60.501 86s-14.5 45 -14.5 71
c0 33.333 9.5 64 28.5 92s45.833 50.333 80.5 67s74.334 25 119.001 25c45.333 0 86 -8.5 122 -25.5s64.333 -40.833 85 -71.5s31 -65.667 31 -105c0 -42 -11.167 -78.333 -33.5 -109s-52.5 -57.667 -90.5 -81l60 -66c37.333 32 65 63 83 93l128 -73
c-28.667 -52 -63.334 -97.667 -104.001 -137l123 -133h-212zM272.499 536.498c-8.33301 -10.333 -12.501 -20.834 -12.501 -31.501c0 -4.66699 2.83301 -11.167 8.5 -19.5s18.167 -23.166 37.5 -44.499c34.667 19.333 52 39.333 52 60c0 14 -4.16699 26 -12.5 36
s-21.166 15 -38.499 15c-14.667 0 -26.167 -5.16699 -34.5 -15.5zM345.998 157.997l-45 46.999l-35 37c-37.333 -17.333 -56 -36.666 -56 -57.999c0 -12.667 6 -24 18 -34s26.667 -15 44 -15c7.33301 0 14.333 1 21 3c15.333 4 33 10.667 53 20z" />
    <glyph glyph-name="quotesingle" unicode="'" horiz-adv-x="232" 
d="M210 700l-21 -240h-148l-19 240h188z" />
    <glyph glyph-name="parenleft" unicode="(" horiz-adv-x="418" 
d="M102.5 -24c-35 86.667 -52.501 176.334 -52.501 269.001c0 94 17.833 184.667 53.5 272s85.834 163.666 150.501 228.999l114 -128c-52 -51.333 -91.333 -108.5 -118 -171.5s-40 -130.167 -40 -201.5c0 -69.333 13 -135.5 39 -198.5s64 -119.833 114 -170.5l-114 -126
c-62.667 64 -111.5 139.333 -146.5 226z" />
    <glyph glyph-name="parenright" unicode=")" horiz-adv-x="418" 
d="M169 46.5c26 63 38.999 129.167 38.999 198.5c0 71.333 -13.333 138.5 -40 201.5s-66 120.167 -118 171.5l114 128c64.667 -65.333 114.834 -141.666 150.501 -228.999s53.5 -178 53.5 -272c0 -92.667 -17.5 -182.334 -52.5 -269.001s-83.833 -162 -146.5 -226l-114 126
c50 50.667 88 107.5 114 170.5z" />
    <glyph glyph-name="asterisk" unicode="*" horiz-adv-x="528" 
d="M394 372l52 -72l-130 -94l-52 72l-52 -72l-130 94l52 72l-84 27l50 152l84 -27v89h160v-89l84 27l50 -152z" />
    <glyph glyph-name="plus" unicode="+" horiz-adv-x="436" 
d="M418 233h-130v-130h-140v130h-130v140h130v130h140v-130h130v-140z" />
    <glyph glyph-name="comma" unicode="," horiz-adv-x="233" 
d="M209 160l-63 -271h-122l17 271h168z" />
    <glyph glyph-name="hyphen" unicode="-" horiz-adv-x="343" 
d="M325 365v-160h-307v160h307z" />
    <glyph glyph-name="period" unicode="." horiz-adv-x="367" 
d="M117 27.5c-18 18.333 -27 40.5 -27 66.5c0 25.333 9 47 27 65s40.333 27 67 27c25.333 0 47 -9 65 -27s27 -39.667 27 -65c0 -26 -9 -48.167 -27 -66.5s-39.667 -27.5 -65 -27.5c-26.667 0 -49 9.16699 -67 27.5z" />
    <glyph glyph-name="slash" unicode="/" horiz-adv-x="470" 
d="M450 700l-254 -700h-188l254 700h188z" />
    <glyph glyph-name="zero" unicode="0" horiz-adv-x="598" 
d="M98.5 54c-45.667 44 -68.5 104.667 -68.5 182v228c0 75.333 22.833 134.833 68.5 178.5s108.167 65.5 187.5 65.5s142 -21.833 188 -65.5s69 -103.167 69 -178.5v-228c0 -76.667 -23 -137.167 -69 -181.5s-108.667 -66.5 -188 -66.5s-141.833 22 -187.5 66zM336.5 169.5
c12.333 13.667 18.5 32.5 18.5 56.5v244c0 24 -6.16699 42.833 -18.5 56.5s-29.166 20.5 -50.499 20.5s-38 -6.83301 -50 -20.5s-18 -32.5 -18 -56.5v-244c0 -24 6 -42.833 18 -56.5s28.667 -20.5 50 -20.5s38.166 6.83301 50.499 20.5z" />
    <glyph glyph-name="one" unicode="1" horiz-adv-x="359" 
d="M326 700v-700h-188v530l-116 -23v145l116 48h188z" />
    <glyph glyph-name="two" unicode="2" horiz-adv-x="601" 
d="M546 161v-161h-510v149c80 70 148 135 204 195c34.667 37.333 61.5 68 80.5 92s28.5 42.667 28.5 56c0 16 -6 29.167 -18 39.5s-27.333 15.5 -46 15.5c-19.333 0 -35 -5.16699 -47 -15.5s-18 -24.166 -18 -41.499v-35h-190v65c2.66699 38 15.5 71.167 38.5 99.5
s53.333 50.166 91 65.499s79.5 23 125.5 23c51.333 0 96.333 -9.5 135 -28.5s68.167 -44.667 88.5 -77s30.5 -67.833 30.5 -106.5c0 -27.333 -6.5 -54.333 -19.5 -81s-32.167 -54.667 -57.5 -84c-48 -56 -105.667 -112.667 -173 -170h257z" />
    <glyph glyph-name="three" unicode="3" horiz-adv-x="556" 
d="M529 235c0 -34 -6.99902 -68 -20.999 -102c-18 -44 -47.667 -78.833 -89 -104.5s-89.333 -38.5 -144 -38.5c-53.333 0 -100.833 13 -142.5 39s-72.167 61.333 -91.5 106c-13.333 30.667 -20 65 -20 103h190c0 -10 1.16699 -20.333 3.5 -31s5.83301 -20 10.5 -28
c10.667 -18.667 27 -28 49 -28s38.667 9.33301 50 28c10 17.333 15 38 15 62c0 27.333 -4.66699 48.333 -14 63c-12 20 -29.333 30 -52 30c-8 0 -16.833 -2.83301 -26.5 -8.5s-19.334 -12.167 -29.001 -19.5l-19.5 -15l-97 137l168 111h-228v161h476v-174l-106 -76
c40 -16.667 72.667 -55 98 -115c13.333 -30.667 20 -64 20 -100z" />
    <glyph glyph-name="four" unicode="4" horiz-adv-x="641" 
d="M603 171h-61v-171h-188v171h-332v131l172 398h200l-156 -363h116v119h188v-119h61v-166z" />
    <glyph glyph-name="five" unicode="5" horiz-adv-x="555" 
d="M518 218c0 -29.333 -2.99902 -54.668 -8.99902 -76.001c-14 -46 -41.667 -82.833 -83 -110.5s-96 -41.5 -164 -41.5c-54.667 0 -101.167 12.5 -139.5 37.5s-64.833 58.833 -79.5 101.5c-8.66699 25.333 -14 52 -16 80h193c2 -12.667 4.66699 -22 8 -28
c9.33301 -17.333 26 -26 50 -26c20.667 0 37.667 9 51 27c8 11.333 12 27 12 47c0 16.667 -3.33301 31.334 -10 44.001c-4.66699 8 -11.334 14.5 -20.001 19.5s-18 7.5 -28 7.5c-14 0 -27.333 -4.16699 -40 -12.5s-19 -17.833 -19 -28.5h-195v441h483v-161h-295v-101
c26 16 56.333 24 91 24c50 0 93.167 -12.5 129.5 -37.5s59.833 -61.833 70.5 -110.5c6.66699 -33.333 10 -65.333 10 -96z" />
    <glyph glyph-name="six" unicode="6" horiz-adv-x="549" 
d="M522 210c0 -25.333 -1.33105 -44.667 -3.99805 -58c-5.33301 -29.333 -19 -56 -41 -80s-50.5 -43 -85.5 -57s-73.5 -21 -115.5 -21c-37.333 0 -74.5 7 -111.5 21s-68 35.167 -93 63.5s-38.833 62.833 -41.5 103.5c-1.33301 16 -2 38.667 -2 68l-3 274
c0 37.333 10 69.833 30 97.5s48.667 49 86 64s80.333 22.5 129 22.5c47.333 0 89.166 -7.5 125.499 -22.5s64.666 -36.333 84.999 -64s30.5 -60.167 30.5 -97.5v-19h-188v6c0 10 -5.16699 18.5 -15.5 25.5s-23.166 10.5 -38.499 10.5c-16 0 -29.167 -3.5 -39.5 -10.5
s-15.5 -15.5 -15.5 -25.5v-87c22.667 19.333 55.334 29 98.001 29c49.333 0 94.666 -12.5 135.999 -37.5s64.666 -66.833 69.999 -125.5c2.66699 -32 4 -58.667 4 -80zM338.002 263.999c0 11.333 -5.33301 22.166 -16 32.499s-26 15.5 -46 15.5s-35.333 -5.16699 -46 -15.5
s-16 -21.166 -16 -32.499v-32v-38c0 -11.333 6.33301 -21.166 19 -29.499s27 -12.5 43 -12.5c15.333 0 29.5 4.16699 42.5 12.5s19.5 18.166 19.5 29.499v35v35z" />
    <glyph glyph-name="seven" unicode="7" horiz-adv-x="537" 
d="M174 539v-65h-152l1 226h492v-161l-214 -539h-200l216 539h-143z" />
    <glyph glyph-name="eight" unicode="8" horiz-adv-x="554" 
d="M532 211c0 -33.333 -7.33301 -64.666 -22 -93.999c-19.333 -38 -48.833 -68.333 -88.5 -91s-87.167 -34 -142.5 -34c-52.667 0 -100 10.5 -142 31.5s-73 51.833 -93 92.5c-14.667 29.333 -22 61.333 -22 96c0 19.333 2.33301 38.166 7 56.499s10.667 34.5 18 48.5
c10.667 19.333 24.334 35.333 41.001 48c-18 16 -31.667 33.333 -41 52c-12.667 25.333 -19 53.333 -19 84c0 51.333 15.667 95.333 47 132c22 26 50.667 46.167 86 60.5s74.333 21.5 117 21.5c43.333 0 82.166 -7.33301 116.499 -22s62.5 -34.667 84.5 -60
c32 -38 48 -82 48 -132c0 -33.333 -7.66699 -63 -23 -89c-10 -16.667 -23.667 -32 -41 -46c18.667 -12.667 33 -29 43 -49c17.333 -32 26 -67.333 26 -106zM215 490c0 -14 2.99902 -26.001 8.99902 -36.001c10.667 -18 28.334 -27 53.001 -27
c25.333 0 43.666 8.66699 54.999 26c6.66699 10.667 10 23.334 10 38.001c0 12 -2.33301 22.667 -7 32s-12.167 16.833 -22.5 22.5s-22.166 8.5 -35.499 8.5c-26.667 0 -45 -10.333 -55 -31c-4.66699 -9.33301 -7 -20.333 -7 -33zM341.999 228.999c0 18 -3 32.333 -9 43
c-11.333 22 -29.666 33 -54.999 33s-43.333 -11 -54 -33c-6 -12 -9 -27 -9 -45c0 -20 4 -36 12 -48c11.333 -17.333 28.333 -26 51 -26c21.333 0 37.666 7.66699 48.999 23c10 13.333 15 31 15 53z" />
    <glyph glyph-name="nine" unicode="9" horiz-adv-x="549" 
d="M494 75.5c-20 -27.667 -48.6689 -48.999 -86.002 -63.999s-80.333 -22.5 -129 -22.5c-47.333 0 -89.166 7.5 -125.499 22.5s-64.666 36.333 -84.999 64s-30.5 60.167 -30.5 97.5v19h188v-6c0 -10 5.16699 -18.5 15.5 -25.5s23.166 -10.5 38.499 -10.5
c16 0 29.167 3.5 39.5 10.5s15.5 15.5 15.5 25.5v87c-22.667 -19.333 -55.334 -29 -98.001 -29c-49.333 0 -94.666 12.5 -135.999 37.5s-64.666 66.833 -69.999 125.5c-2.66699 32 -4 58.667 -4 80c0 25.333 1.33301 44.666 4 57.999c5.33301 29.333 19 56 41 80
s50.5 43 85.5 57s73.5 21 115.5 21c37.333 0 74.5 -7 111.5 -21s68 -35.167 93 -63.5s38.833 -62.833 41.5 -103.5c1.33301 -16 2 -38.667 2 -68l3 -274c0 -37.333 -10 -69.833 -30 -97.5zM318.998 400.501c10.667 10.333 16 21.166 16 32.499v32v38
c0 11.333 -6.33301 21.166 -19 29.499s-27 12.5 -43 12.5c-15.333 0 -29.5 -4.16699 -42.5 -12.5s-19.5 -18.166 -19.5 -29.499v-35v-35c0 -11.333 5.33301 -22.166 16 -32.499s26 -15.5 46 -15.5s35.333 5.16699 46 15.5z" />
    <glyph glyph-name="colon" unicode=":" horiz-adv-x="367" 
d="M117 303.5c-18 18.333 -27 40.5 -27 66.5c0 25.333 9 47 27 65s40.333 27 67 27c25.333 0 47 -9 65 -27s27 -39.667 27 -65c0 -26 -9 -48.167 -27 -66.5s-39.667 -27.5 -65 -27.5c-26.667 0 -49 9.16699 -67 27.5zM117 27.5c-18 18.333 -27 40.5 -27 66.5
c0 25.333 9 47 27 65s40.333 27 67 27c25.333 0 47 -9 65 -27s27 -39.667 27 -65c0 -26 -9 -48.167 -27 -66.5s-39.667 -27.5 -65 -27.5c-26.667 0 -49 9.16699 -67 27.5z" />
    <glyph glyph-name="semicolon" unicode=";" horiz-adv-x="385" 
d="M285 160l-63 -271h-122l17 271h168zM135 303.5c-18 18.333 -27 40.5 -27 66.5c0 25.333 9 47 27 65s40.333 27 67 27c25.333 0 47 -9 65 -27s27 -39.667 27 -65c0 -26 -9 -48.167 -27 -66.5s-39.667 -27.5 -65 -27.5c-26.667 0 -49 9.16699 -67 27.5z" />
    <glyph glyph-name="equal" unicode="=" horiz-adv-x="439" 
d="M419 133h-399v138h399v-138zM419 334h-399v138h399v-138z" />
    <glyph glyph-name="question" unicode="?" horiz-adv-x="551" 
d="M202.5 350.5c15 21.667 35.834 42.8301 62.501 63.4971c23.333 18.667 39.666 33 48.999 43s14 22.333 14 37c0 14 -3.5 25 -10.5 33s-16.5 12 -28.5 12c-14.667 0 -26 -4.66699 -34 -14s-12 -21.666 -12 -36.999v-19l-188 9v10c0 43.333 10 81.833 30 115.5
s48.167 59.834 84.5 78.501s77.833 28 124.5 28c45.333 0 84.833 -8.66699 118.5 -26s59.667 -41.5 78 -72.5s27.5 -67.167 27.5 -108.5c0 -38.667 -7.16699 -69.667 -21.5 -93s-34.5 -45.333 -60.5 -66l-27.5 -22c-14.333 -11.333 -25 -22.666 -32 -33.999
s-10.5 -23.333 -10.5 -36v-16h-186v28c0 36 7.5 64.833 22.5 86.5zM209.001 27.4961c-18 18.333 -27 40.5 -27 66.5c0 25.333 9 47 27 65s40.333 27 67 27c25.333 0 47 -9 65 -27s27 -39.667 27 -65c0 -26 -9 -48.167 -27 -66.5s-39.667 -27.5 -65 -27.5
c-26.667 0 -49 9.16699 -67 27.5z" />
    <glyph glyph-name="at" unicode="@" horiz-adv-x="850" 
d="M667 667c52 -31.333 92.1641 -73.333 120.497 -126s42.5 -110.667 42.5 -174c0 -15.333 -1 -31 -3 -47c-7.33301 -66 -30.166 -118.667 -68.499 -158s-87.833 -59 -148.5 -59c-51.333 0 -90 13.667 -116 41c-13.333 -14 -30.833 -24.333 -52.5 -31s-44.167 -10 -67.5 -10
c-33.333 0 -61 9.16699 -83 27.5s-36 42.5 -42 72.5c-2.66699 12.667 -4 27 -4 43s1 30 3 42c4 26.667 11 53.667 21 81c12.667 34.667 31.834 61 57.501 79s53.5 27 83.5 27c29.333 0 55.333 -7.33301 78 -22l3 22h123l-26 -185c-1.33301 -12 -2 -20.667 -2 -26
c0 -31.333 10.333 -47 31 -47c14 0 25.333 7.66699 34 23s15.334 39 20.001 71c3.33301 23.333 5 43.333 5 60c0 65.333 -17.833 113.833 -53.5 145.5s-84.5 47.5 -146.5 47.5c-80 0 -146 -24.333 -198 -73s-84.333 -114.334 -97 -197.001c-2.66699 -18 -4 -36.667 -4 -56
c0 -65.333 18.833 -114.5 56.5 -147.5s89.167 -49.5 154.5 -49.5c34 0 63.167 3.83301 87.5 11.5s42.5 16.834 54.5 27.501l81 -120c-24 -21.333 -57.667 -38.5 -101 -51.5s-87.666 -19.5 -132.999 -19.5c-62.667 0 -121.334 14.833 -176.001 44.5
s-98.5 71.167 -131.5 124.5s-49.5 114.333 -49.5 183c0 22 1.33301 42 4 60c11.333 77.333 37.333 147.333 78 210s94 112.167 160 148.5s141 54.5 225 54.5c68 0 128 -15.667 180 -47zM444.997 233c12 19.333 18 46.001 18 80.001c0 12.667 -1 23 -3 31s-6 14.167 -12 18.5
s-13.333 6.5 -22 6.5s-16.5 -2.33301 -23.5 -7s-12.833 -11 -17.5 -19c-6 -10 -11.667 -30 -17 -60c-1.33301 -10.667 -2 -19.334 -2 -26.001c0 -10.667 1 -18.667 3 -24c6.66699 -18 19 -27 37 -27c14.667 0 27.667 9 39 27z" />
    <glyph glyph-name="A" unicode="A" horiz-adv-x="718" 
d="M466 103h-215l-29 -103h-202l220 700h238l220 -700h-202zM425 247l-67 233l-66 -233h133z" />
    <glyph glyph-name="B" unicode="B" horiz-adv-x="608" 
d="M555.5 296.5c15 -26.333 22.5 -58.501 22.5 -96.501c0 -68.667 -24 -119.167 -72 -151.5s-110.333 -48.5 -187 -48.5h-284v700h275c85.333 0 149.5 -15.167 192.5 -45.5s64.5 -81.166 64.5 -152.499c0 -66.667 -27.333 -113.667 -82 -141
c32 -16.667 55.5 -38.167 70.5 -64.5zM223 428.999h87c48.667 0 73 18.333 73 55s-24.333 55 -73 55h-87v-110zM390 219.999c0 37.333 -23.333 56 -70 56h-97v-115h96c47.333 0 71 19.667 71 59z" />
    <glyph glyph-name="C" unicode="C" horiz-adv-x="610" 
d="M161 13.5c-43.333 22.333 -76.832 52.332 -100.499 89.999s-35.5 78.834 -35.5 123.501v231c0 44.667 12 86.167 36 124.5s57.5 68.833 100.5 91.5s92.5 34 148.5 34s105.5 -11.333 148.5 -34s76.5 -53.167 100.5 -91.5s36 -79.833 36 -124.5v-6l-194 -10l-2 36
c-0.666992 16.667 -8.16699 32.334 -22.5 47.001s-36.5 22 -66.5 22c-20.667 0 -37.667 -3.83301 -51 -11.5s-23.166 -16.834 -29.499 -27.501s-9.5 -20.667 -9.5 -30v-260c0 -10 3.16699 -21 9.5 -33s16.333 -22.333 30 -31s30.5 -13 50.5 -13c30 0 52.167 6.33301 66.5 19
s22.166 27 23.499 43l3 36l192 -6v-6c0 -46 -10.5 -87.667 -31.5 -125s-52.833 -67 -95.5 -89s-95.334 -33 -158.001 -33c-56 0 -105.667 11.167 -149 33.5z" />
    <glyph glyph-name="D" unicode="D" horiz-adv-x="603" 
d="M307 700c54 0 101.833 -9.33301 143.5 -28s73.834 -45 96.501 -79s34 -73.333 34 -118v-250c0 -44.667 -11.333 -84 -34 -118s-54.834 -60.333 -96.501 -79s-89.5 -28 -143.5 -28h-272v700h272zM370 187.5c14.667 17.667 22.332 40.832 22.999 69.499v186
c0 28.667 -7.33301 51.834 -22 69.501s-34 26.5 -58 26.5h-90v-378h91c22.667 0 41.334 8.83301 56.001 26.5z" />
    <glyph glyph-name="E" unicode="E" horiz-adv-x="564" 
d="M223 539v-104h205v-160h-205v-114h319v-161h-507v700h507v-161h-319z" />
    <glyph glyph-name="F" unicode="F" horiz-adv-x="533" 
d="M223 539v-104h205v-160h-205v-275h-188v700h476v-161h-288z" />
    <glyph glyph-name="G" unicode="G" horiz-adv-x="601" 
d="M157 10c-42 20 -74.5 46.665 -97.5 79.998s-34.5 70 -34.5 110v245c0 52 11.5 97.833 34.5 137.5s55.333 70.5 97 92.5s89.834 33 144.501 33c54 0 101.833 -8.66699 143.5 -26s74 -41.166 97 -71.499s34.5 -64.5 34.5 -102.5v-51h-187v30c0 40 -29.333 60 -88 60
c-26.667 0 -48 -8.83301 -64 -26.5s-24 -41.167 -24 -70.5v-212c0 -28.667 9.16699 -52 27.5 -70s41.166 -27 68.499 -27c28 0 49 3.83301 63 11.5s21 22.834 21 45.501v38h-108v150h291v-152c0 -49.333 -11.5 -93.333 -34.5 -132s-55.333 -68.667 -97 -90
s-89.5 -32 -143.5 -32s-102 10 -144 30z" />
    <glyph glyph-name="H" unicode="H" horiz-adv-x="612" 
d="M582 700v-700h-188v271h-166v-271h-188v700h188v-267h166v267h188z" />
    <glyph glyph-name="I" unicode="I" horiz-adv-x="276" 
d="M232 700v-700h-188v700h188z" />
    <glyph glyph-name="J" unicode="J" horiz-adv-x="584" 
d="M141 10c-40 20 -70.998 47.999 -92.998 83.999s-33 78 -33 126v68h188v-67c0 -24 7 -43.333 21 -58s33.333 -22 58 -22c24 0 43.667 7.33301 59 22s23 34 23 58v479h187v-480c0 -47.333 -11.333 -89.166 -34 -125.499s-54.334 -64.5 -95.001 -84.5
s-87.334 -30 -140.001 -30c-54 0 -101 10 -141 30z" />
    <glyph glyph-name="K" unicode="K" horiz-adv-x="650" 
d="M223 700v-265l187 265h213l-223 -310l228 -390h-210l-147 262l-48 -73v-189h-188v700h188z" />
    <glyph glyph-name="L" unicode="L" horiz-adv-x="574" 
d="M223 700v-539h329v-161h-517v700h188z" />
    <glyph glyph-name="M" unicode="M" horiz-adv-x="706" 
d="M671 700v-700h-188v390l-80 -131h-100l-80 131v-390h-188v700h183l135 -219l135 219h183z" />
    <glyph glyph-name="N" unicode="N" horiz-adv-x="650" 
d="M615 700v-700h-178l-216 360l2 -360h-188v700h178l215 -360l-1 360h188z" />
    <glyph glyph-name="O" unicode="O" horiz-adv-x="620" 
d="M161 13.5c-43.333 22.333 -76.833 52.333 -100.5 90s-35.5 78.834 -35.5 123.501v231c0 44.667 12 86.167 36 124.5s57.5 68.833 100.5 91.5s92.5 34 148.5 34s105.5 -11.333 148.5 -34s76.5 -53.167 100.5 -91.5s36 -79.833 36 -124.5v-231
c0 -44.667 -11.833 -85.834 -35.5 -123.501s-57.167 -67.667 -100.5 -90s-93 -33.5 -149 -33.5s-105.667 11.167 -149 33.5zM361 154c13.333 8.66699 22.999 19.001 28.999 31.001s9 23 9 33v260c0 16 -7.33301 31.5 -22 46.5s-37 22.5 -67 22.5
c-20.667 0 -37.667 -3.83301 -51 -11.5s-23.166 -16.834 -29.499 -27.501s-9.5 -20.667 -9.5 -30v-260c0 -10 3.16699 -21 9.5 -33s16.333 -22.333 30 -31s30.5 -13 50.5 -13c20.667 0 37.667 4.33301 51 13z" />
    <glyph glyph-name="P" unicode="P" horiz-adv-x="603" 
d="M468 671.5c36 -19 63.833 -46 83.5 -81s29.5 -75.167 29.5 -120.5c0 -44.667 -10.333 -84 -31 -118s-49.667 -60.333 -87 -79s-80.333 -28 -129 -28h-111v-245h-188v700h308c47.333 0 89 -9.5 125 -28.5zM371.5 414.5c15 13 22.5 30.167 22.5 51.5
c0 22 -7.5 39.667 -22.5 53s-34.833 20 -59.5 20h-89v-144h89c24.667 0 44.5 6.5 59.5 19.5z" />
    <glyph glyph-name="Q" unicode="Q" horiz-adv-x="645" 
d="M623 140v-160.001h-311h-2c-56 0 -105.667 11.167 -149 33.5s-76.833 52.333 -100.5 90s-35.5 78.834 -35.5 123.501v231c0 44.667 12 86.167 36 124.5s57.5 68.833 100.5 91.5s92.5 34 148.5 34s105.5 -11.333 148.5 -34s76.5 -53.167 100.5 -91.5s36 -79.833 36 -124.5
v-231c0 -30 -5.66699 -59 -17 -87h45zM229.5 184.999c6.33301 -12 16.332 -22.332 29.999 -30.999s30.5 -13 50.5 -13c20.667 0 37.667 4.33301 51 13s23 19 29 31s9 23 9 33v260c0 16 -7.33301 31.5 -22 46.5s-37 22.5 -67 22.5c-20.667 0 -37.667 -3.83301 -51 -11.5
s-23.166 -16.834 -29.499 -27.501s-9.5 -20.667 -9.5 -30v-260c0 -10 3.16699 -21 9.5 -33z" />
    <glyph glyph-name="R" unicode="R" horiz-adv-x="614" 
d="M285 245h-62v-245h-188v700h308c47.333 0 89 -9.5 125 -28.5s63.833 -46 83.5 -81s29.5 -75.167 29.5 -120.5c0 -44.667 -10.5 -84.167 -31.5 -118.5s-50.167 -60.833 -87.5 -79.5l130 -272h-200zM223 395h89c24.667 0 44.5 6.5 59.5 19.5s22.5 30.167 22.5 51.5
c0 22 -7.5 39.667 -22.5 53s-34.833 20 -59.5 20h-89v-144z" />
    <glyph glyph-name="S" unicode="S" horiz-adv-x="600" 
d="M157 7.5c-42 18.333 -74.502 44.4971 -97.502 78.4971s-34.5 73.333 -34.5 118v29h185v-21c0 -18.667 9.83301 -35.167 29.5 -49.5s45.834 -21.5 78.501 -21.5c24.667 0 42.334 5.16699 53.001 15.5s16 21.833 16 34.5c0 14 -6.16699 24.833 -18.5 32.5
s-33.5 16.5 -63.5 26.5l-40 15c-49.333 18.667 -88.5 35.5 -117.5 50.5s-55.5 37.333 -79.5 67s-36 67.5 -36 113.5c0 42 11.333 79.167 34 111.5s53.834 57.166 93.501 74.499s84.167 26 133.5 26c52 0 99.167 -9.66699 141.5 -29s75.666 -46.666 99.999 -81.999
s36.5 -75.666 36.5 -120.999v-24h-185v16c0 20 -9 38.167 -27 54.5s-42.333 24.5 -73 24.5c-21.333 0 -38.166 -4.33301 -50.499 -13s-18.5 -20.667 -18.5 -36c0 -17.333 10.167 -32.5 30.5 -45.5s57.166 -27.833 110.499 -44.5
c40.667 -13.333 74.834 -26.166 102.501 -38.499s53.667 -32.833 78 -61.5s36.5 -66 36.5 -112c0 -44.667 -11.333 -83.167 -34 -115.5s-54.334 -57.166 -95.001 -74.499s-88 -26 -142 -26c-56 0 -105 9.16699 -147 27.5z" />
    <glyph glyph-name="T" unicode="T" horiz-adv-x="605" 
d="M583 539h-182v-539h-188v539h-191v161h561v-161z" />
    <glyph glyph-name="U" unicode="U" horiz-adv-x="636" 
d="M169 13.5c-43.333 22.333 -76.833 52.333 -100.5 90s-35.5 78.834 -35.5 123.501v473h195v-482c0 -10 3.16699 -21 9.5 -33s16.333 -22.333 30 -31s30.5 -13 50.5 -13c20.667 0 37.667 4.33301 51 13s23 19 29 31s9 23 9 33v482h196v-473
c0 -44.667 -11.833 -85.834 -35.5 -123.501s-57.167 -67.667 -100.5 -90s-93 -33.5 -149 -33.5s-105.667 11.167 -149 33.5z" />
    <glyph glyph-name="V" unicode="V" horiz-adv-x="649" 
d="M629 700l-208 -700h-195l-206 700h202l106 -449l103 449h198z" />
    <glyph glyph-name="W" unicode="W" horiz-adv-x="1061" 
d="M1041 700l-208 -700h-195l-108 367l-109 -367h-195l-206 700h202l106 -449l103 449h203l106 -449l103 449h198z" />
    <glyph glyph-name="X" unicode="X" horiz-adv-x="663" 
d="M20 700h205l107 -207l107 207h204l-193 -350l193 -350h-203l-108 206l-108 -206h-204l194 350z" />
    <glyph glyph-name="Y" unicode="Y" horiz-adv-x="655" 
d="M20 700h204l103 -259l103 259h205l-215 -459v-239h-187v239z" />
    <glyph glyph-name="Z" unicode="Z" horiz-adv-x="555" 
d="M325 539h-303v161h511v-170l-305 -369h305v-161h-511v170z" />
    <glyph glyph-name="bracketleft" unicode="[" horiz-adv-x="348" 
d="M293 818v-161h-75v-660h75v-161h-263v982h263z" />
    <glyph glyph-name="backslash" unicode="\" horiz-adv-x="470" 
d="M274 0l-254 700h188l254 -700h-188z" />
    <glyph glyph-name="bracketright" unicode="]" horiz-adv-x="323" 
d="M30 -4h75v660h-75v161h263v-982h-263v161z" />
    <glyph glyph-name="underscore" unicode="_" horiz-adv-x="451" 
d="M443 140v-140h-435v140h435z" />
    <glyph glyph-name="a" unicode="a" horiz-adv-x="535" 
d="M392 505c38 -15.333 67.999 -36.333 89.999 -63s33 -55.667 33 -87v-355h-188v63c-10 -24 -25.5 -41.833 -46.5 -53.5s-49.167 -17.5 -84.5 -17.5c-54.667 0 -97.667 12.5 -129 37.5s-47 61.5 -47 109.5c0 50.667 17.833 89.667 53.5 117s87.5 41 155.5 41h98v23
c0 14 -5.16699 25.333 -15.5 34s-24.166 13 -41.499 13c-16 0 -29.167 -3.33301 -39.5 -10s-15.833 -15 -16.5 -25l-188 24c0 32 10.5 61 31.5 87s49.833 46.667 86.5 62s77.667 23 123 23s87 -7.66699 125 -23zM306.499 139c13.667 11.333 20.499 26.667 20.499 46v18h-55
c-42 0 -63 -13.667 -63 -41c0 -12 3.83301 -21.667 11.5 -29s18.834 -11 33.501 -11c21.333 0 38.833 5.66699 52.5 17z" />
    <glyph glyph-name="b" unicode="b" horiz-adv-x="527" 
d="M502 340l0.000976562 -160.999c0 -58.667 -14.167 -104.834 -42.5 -138.501s-73.5 -50.5 -135.5 -50.5c-35.333 0 -66 10 -92 30v-20h-188v700h188v-201c25.333 20 55.666 30 90.999 30c119.333 0 179 -63 179 -189zM322.001 340.001c0 16 -4.5 29.333 -13.5 40
s-20.5 16 -34.5 16c-20 0 -34 -9.33301 -42 -28v-218c7.33301 -17.333 21.333 -26 42 -26c14 0 25.5 5 34.5 15s13.5 23.333 13.5 40v161z" />
    <glyph glyph-name="c" unicode="c" horiz-adv-x="549" 
d="M132 33.5c-42 27.667 -72.668 66.166 -92.001 115.499c-13.333 34 -20 72 -20 114c0 41.333 6.66699 79 20 113c18.667 47.333 49.334 84.5 92.001 111.5s92 40.5 148 40.5c56.667 0 106.834 -14.167 150.501 -42.5s73.167 -63.833 88.5 -106.5
c6.66699 -18 10 -35.333 10 -52l-184 -29c-2 12.667 -4 22.334 -6 29.001c-3.33301 11.333 -10.5 20.833 -21.5 28.5s-23.833 11.5 -38.5 11.5c-27.333 0 -46.333 -12 -57 -36c-8 -16.667 -12 -39.667 -12 -69c0 -27.333 3.66699 -50.333 11 -69
c11.333 -26.667 30.666 -40 57.999 -40c29.333 0 49.333 15.333 60 46c1.33301 3.33301 2.33301 10 3 20l185 -30c0 -14.667 -2.66699 -29.667 -8 -45c-17.333 -48.667 -47.5 -86.167 -90.5 -112.5s-92.5 -39.5 -148.5 -39.5c-56.667 0 -106 13.833 -148 41.5z" />
    <glyph glyph-name="d" unicode="d" horiz-adv-x="527" 
d="M493 700v-700.001h-188v29c-27.333 -26 -61 -39 -101 -39c-119.333 0 -179 63 -179 189v161c0 58.667 14.167 104.834 42.5 138.501s73.5 50.5 135.5 50.5c40.667 0 74.667 -13 102 -39v210h188zM300 339.999c0 17.333 -4 30.833 -12 40.5s-19.667 14.5 -35 14.5
c-14 0 -25.5 -5 -34.5 -15s-13.5 -23.333 -13.5 -40v-161c0 -16 4.5 -29.333 13.5 -40s20.5 -16 34.5 -16c15.333 0 27 5.16699 35 15.5s12 23.833 12 40.5v161z" />
    <glyph glyph-name="e" unicode="e" horiz-adv-x="525" 
d="M505 213l-317.999 0.00195312c0 -16.667 6.83301 -31.834 20.5 -45.501s31.167 -20.5 52.5 -20.5c18 0 33.167 4.83301 45.5 14.5s20.5 21.5 24.5 35.5l163 -35c-5.33301 -31.333 -18.333 -60 -39 -86s-47.667 -46.5 -81 -61.5s-71 -22.5 -113 -22.5
c-41.333 0 -80.333 8.16699 -117 24.5s-66.334 40.666 -89.001 72.999s-34 71.166 -34 116.499v111c0 40.667 9.83301 77.334 29.5 110.001s47.667 58.5 84 77.5s77.833 28.5 124.5 28.5c45.333 0 86.833 -9.5 124.5 -28.5s67.5 -45 89.5 -78s33 -69.5 33 -109.5v-104z
M207.501 357.502c-13 -11.667 -19.833 -26.833 -20.5 -45.5h143c-0.666992 18 -8 33 -22 45s-30.667 18 -50 18c-20.667 0 -37.5 -5.83301 -50.5 -17.5z" />
    <glyph glyph-name="f" unicode="f" horiz-adv-x="393" 
d="M287.5 564.5c-5.66699 -5.66699 -8.50098 -14.167 -8.50098 -25.5v-78h94v-150h-94v-311h-188v311h-71v150h71v95c0 51.333 14.5 88.333 43.5 111s76.833 34 143.5 34c16.667 0 29.334 -0.333008 38.001 -1h57v-125h-57c-13.333 -1.33301 -22.833 -4.83301 -28.5 -10.5z
" />
    <glyph glyph-name="g" unicode="g" horiz-adv-x="523" 
d="M488 520v-452.002c0 -95.333 -27.5 -163.166 -82.5 -203.499s-124.167 -60.5 -207.5 -60.5c-37.333 0 -77 4 -119 12l8 166c35.333 -10.667 67.666 -16 96.999 -16c24.667 0 46.167 4.16699 64.5 12.5s31.833 20.833 40.5 37.5c-23.333 -17.333 -51.666 -26 -84.999 -26
c-119.333 0 -179 63 -179 189v161c0 58.667 14.167 104.834 42.5 138.501s73.5 50.5 135.5 50.5c38.667 0 71 -11.333 97 -34v25h188zM288 138.498c8 10.333 12 23.833 12 40.5v161c0 17.333 -4 30.833 -12 40.5s-19.667 14.5 -35 14.5c-14 0 -25.5 -5 -34.5 -15
s-13.5 -23.333 -13.5 -40v-161c0 -16 4.5 -29.333 13.5 -40s20.5 -16 34.5 -16c15.333 0 27 5.16699 35 15.5z" />
    <glyph glyph-name="h" unicode="h" horiz-adv-x="526" 
d="M501 340v-340h-180v340c0 16 -4.5 29.333 -13.5 40s-20.5 16 -34.5 16c-20 0 -33.667 -8.66699 -41 -26v-370h-188v700h188v-200c26 19.333 56 29 90 29c119.333 0 179 -63 179 -189z" />
    <glyph glyph-name="i" unicode="i" horiz-adv-x="266" 
d="M71 583.5c-18 18.333 -27 40.5 -27 66.5c0 25.333 9 47 27 65s40.333 27 67 27c25.333 0 47 -9 65 -27s27 -39.667 27 -65c0 -26 -9 -48.167 -27 -66.5s-39.667 -27.5 -65 -27.5c-26.667 0 -49 9.16699 -67 27.5zM227 520v-520h-188v520h188z" />
    <glyph glyph-name="j" unicode="j" horiz-adv-x="332" 
d="M129 583.5c-18 18.333 -27 40.5 -27 66.5c0 25.333 9 47 27 65s40.333 27 67 27c25.333 0 47 -9 65 -27s27 -39.667 27 -65c0 -26 -9 -48.167 -27 -66.5s-39.667 -27.5 -65 -27.5c-26.667 0 -49 9.16699 -67 27.5zM26 -52c30 0 50.499 5.33203 61.499 15.999
s16.5 29.334 16.5 56.001l-3 500h188v-497c0 -62 -7.16699 -109.167 -21.5 -141.5s-39.5 -55.333 -75.5 -69s-88.667 -20.5 -158 -20.5c-21.333 0 -37.666 0.333008 -48.999 1v157c21.333 -1.33301 35 -2 41 -2z" />
    <glyph glyph-name="k" unicode="k" horiz-adv-x="574" 
d="M228 700v-312l98 132h214l-144 -195l158 -325h-198l-89 211l-39 -65v-146h-188v700h188z" />
    <glyph glyph-name="l" unicode="l" horiz-adv-x="295" 
d="M275 161v-161h-230v700h188v-539h42z" />
    <glyph glyph-name="m" unicode="m" horiz-adv-x="793" 
d="M768 340v-340h-180v340c0 16 -4.5 29.333 -13.5 40s-20.5 16 -34.5 16c-15.333 0 -27 -5.16699 -35 -15.5s-12 -23.833 -12 -40.5v-340h-180v340c0 16 -4.5 29.333 -13.5 40s-20.5 16 -34.5 16c-15.333 0 -27 -5.16699 -35 -15.5s-12 -23.833 -12 -40.5v-340h-188v520
h188v-25c26 22.667 58 34 96 34c71.333 0 121.333 -22.667 150 -68c14 21.333 31.667 38 53 50s45.333 18 72 18c119.333 0 179 -63 179 -189z" />
    <glyph glyph-name="n" unicode="n" horiz-adv-x="519" 
d="M493 340v-340h-180v340c0 16 -4.5 29.333 -13.5 40s-20.5 16 -34.5 16c-15.333 0 -27 -5.16699 -35 -15.5s-12 -23.833 -12 -40.5v-340h-188v520h188v-25c26 22.667 58 34 96 34c119.333 0 179 -63 179 -189z" />
    <glyph glyph-name="o" unicode="o" horiz-adv-x="532" 
d="M143.5 17c-37 18 -66.001 42.168 -87.001 72.501s-31.5 63.166 -31.5 98.499v147c0 35.333 10.833 67.833 32.5 97.5s51 53.167 88 70.5s77.167 26 120.5 26c44 0 84.333 -8.66699 121 -26s65.834 -40.833 87.501 -70.5s32.5 -62.167 32.5 -97.5v-147
c0 -36 -10.5 -69.167 -31.5 -99.5s-49.833 -54.333 -86.5 -72s-77.667 -26.5 -123 -26.5c-44.667 0 -85.5 9 -122.5 27zM312.499 156.501c9.66699 12.333 14.5 26.833 14.5 43.5v122c0 14 -5.33301 26.833 -16 38.5s-25.667 17.5 -45 17.5c-18 0 -32.667 -5.83301 -44 -17.5
s-17 -24.5 -17 -38.5v-122c0 -16 5 -30.333 15 -43s25.333 -19 46 -19c21.333 0 36.833 6.16699 46.5 18.5z" />
    <glyph glyph-name="p" unicode="p" horiz-adv-x="528" 
d="M502 340v-160.999c0 -58.667 -14.167 -104.834 -42.5 -138.501s-73.5 -50.5 -135.5 -50.5c-38 0 -70 11.333 -96 34v-231h-188v737h188v-34c26 22 57.667 33 95 33c119.333 0 179 -63 179 -189zM322 340.001c0 16 -4.5 29.333 -13.5 40s-20.5 16 -34.5 16
c-12.667 0 -23 -3.83301 -31 -11.5s-13 -18.167 -15 -31.5v-188c4 -27.333 19.333 -41 46 -41c14 0 25.5 5 34.5 15s13.5 23.333 13.5 40v161z" />
    <glyph glyph-name="q" unicode="q" horiz-adv-x="528" 
d="M488 530v-737.001h-188v231c-26 -22.667 -58 -34 -96 -34c-119.333 0 -179 63 -179 189v161c0 58.667 14.167 104.834 42.5 138.501s73.5 50.5 135.5 50.5c38.667 0 71 -11.333 97 -34v35h188zM288 138.499c8 10.333 12 23.833 12 40.5v161c0 17.333 -4 30.833 -12 40.5
s-19.667 14.5 -35 14.5c-14 0 -25.5 -5 -34.5 -15s-13.5 -23.333 -13.5 -40v-161c0 -16 4.5 -29.333 13.5 -40s20.5 -16 34.5 -16c15.333 0 27 5.16699 35 15.5z" />
    <glyph glyph-name="r" unicode="r" horiz-adv-x="405" 
d="M385 499l-29.0029 -174c-3.33301 2.66699 -9.16602 5 -17.499 7s-17.833 3 -28.5 3c-9.33301 0 -19 -1 -29 -3c-17.333 -3.33301 -32.166 -10.5 -44.499 -21.5s-18.5 -25.833 -18.5 -44.5v-266h-188v520h188v-72c26.667 47.333 61.334 71 104.001 71
c28.667 0 49.667 -6.66699 63 -20z" />
    <glyph glyph-name="s" unicode="s" horiz-adv-x="514" 
d="M131.5 14.5c-35.667 15 -62.999 36 -81.999 63s-28.5 58.167 -28.5 93.5v6h172v-11c0 -10.667 5.83301 -19.334 17.5 -26.001s26.834 -10 45.501 -10c14.667 0 26.5 2.16699 35.5 6.5s13.5 10.5 13.5 18.5c0 9.33301 -5.33301 15.833 -16 19.5
s-29.667 7.83398 -57 12.501c-25.333 3.33301 -48 7.33301 -68 12s-39.333 11.667 -58 21c-57.333 28 -86 72 -86 132c0 54 21 96.833 63 128.5s97.333 47.5 166 47.5c46.667 0 87.5 -7.5 122.5 -22.5s62.167 -36.167 81.5 -63.5s29 -59 29 -95v-11h-175v11
c0 11.333 -5 20.166 -15 26.499s-23.333 9.5 -40 9.5c-15.333 0 -27.833 -2.5 -37.5 -7.5s-14.5 -11.833 -14.5 -20.5c0 -10.667 6.33301 -18 19 -22s33 -8 61 -12c3.33301 -0.666992 16.166 -2.66699 38.499 -6s43.833 -8.66602 64.5 -15.999
c36 -12.667 63.5 -30.167 82.5 -52.5s28.5 -51.5 28.5 -87.5c0 -54.667 -21.333 -96.167 -64 -124.5s-100.334 -42.5 -173.001 -42.5c-48 0 -89.833 7.5 -125.5 22.5z" />
    <glyph glyph-name="t" unicode="t" horiz-adv-x="397" 
d="M274 370l0.00195312 -162c0 -33.333 12 -50 36 -50h52v-158c-42.667 -2.66699 -72.667 -4 -90 -4c-60.667 0 -105.334 9.33301 -134.001 28s-43.334 54 -44.001 106v240h-74v150h74v140h180v-140h103v-150h-103z" />
    <glyph glyph-name="u" unicode="u" horiz-adv-x="518" 
d="M488 520v-520h-188v25c-26 -22.667 -58 -34 -96 -34c-119.333 0 -179 63 -179 189v340h180v-340c0 -16 4.5 -29.333 13.5 -40s20.5 -16 34.5 -16c15.333 0 27 5.16699 35 15.5s12 23.833 12 40.5v340h188z" />
    <glyph glyph-name="v" unicode="v" horiz-adv-x="546" 
d="M212 520l61 -313l62 313h201l-161 -520h-203l-162 520h202z" />
    <glyph glyph-name="w" unicode="w" horiz-adv-x="835" 
d="M825 520l-161 -520h-178l-68 234l-69 -234h-178l-161 520h201l62 -313l61 313h167l61 -313l62 313h201z" />
    <glyph glyph-name="x" unicode="x" horiz-adv-x="580" 
d="M10 520h202l72 -117l72 117h214l-170 -260l170 -260h-202l-72 117l-72 -117h-214l170 260z" />
    <glyph glyph-name="y" unicode="y" horiz-adv-x="536" 
d="M49 -50c45.333 0 77.168 2.83105 95.501 8.49805s28.166 17.834 29.499 36.501l-164 525h200l60 -295l60 295h196l-169 -527c-17.333 -51.333 -35.833 -90.666 -55.5 -117.999s-48.667 -47.833 -87 -61.5s-92.5 -20.5 -162.5 -20.5h-14v157h11z" />
    <glyph glyph-name="z" unicode="z" horiz-adv-x="471" 
d="M220 350h-193v170h416v-170l-209 -180h217v-170h-431v170z" />
    <glyph glyph-name="braceleft" unicode="{" horiz-adv-x="417" 
d="M142 -128.5c-25.333 23.667 -38 55.166 -38 94.499v200c0 60 -24.667 90 -74 90v146c49.333 0 74 29.667 74 89v197c0 39.333 12.667 70.833 38 94.5s59.333 35.5 102 35.5h118v-161h-26c-11.333 0 -21.5 -5.66699 -30.5 -17s-13.5 -24.333 -13.5 -39v-139
c0 -69.333 -22.333 -113.666 -67 -132.999c44.667 -19.333 67 -64 67 -134v-142c0 -14.667 4.5 -27.667 13.5 -39s19.167 -17 30.5 -17h26v-161h-118c-42.667 0 -76.667 11.833 -102 35.5z" />
    <glyph glyph-name="braceright" unicode="}" horiz-adv-x="417" 
d="M55 -3l26 0.000976562c11.333 0 21.5 5.66699 30.5 17s13.5 24.333 13.5 39v142c0 70 22.333 114.667 67 134c-44.667 19.333 -67 63.666 -67 132.999v139c0 14.667 -4.5 27.667 -13.5 39s-19.167 17 -30.5 17h-26v161h118c42.667 0 76.667 -11.833 102 -35.5
s38 -55.167 38 -94.5v-197c0 -59.333 24.667 -89 74 -89v-146c-49.333 0 -74 -30 -74 -90v-200c0 -39.333 -12.667 -70.833 -38 -94.5s-59.333 -35.5 -102 -35.5h-118v161z" />
    <glyph glyph-name="uni00A0" unicode="&#xa0;" horiz-adv-x="200" 
 />
    <glyph glyph-name="guillemotleft" unicode="&#xab;" horiz-adv-x="498" 
d="M186.5 348c-9 -20.667 -13.501 -42.666 -13.501 -65.999c0 -45.333 16 -84.666 48 -117.999l-100 -98c-28 29.333 -49.667 62.666 -65 99.999s-23 76 -23 116c0 41.333 8.33301 81.666 25 120.999s40.334 73.333 71.001 102l96 -102c-16.667 -16 -29.5 -34.333 -38.5 -55
zM415.499 348.001c-9 -20.667 -13.501 -42.666 -13.501 -65.999c0 -45.333 16 -84.666 48 -117.999l-100 -98c-28 29.333 -49.667 62.666 -65 99.999s-23 76 -23 116c0 41.333 8.33301 81.666 25 120.999s40.334 73.333 71.001 102l96 -102
c-16.667 -16 -29.5 -34.333 -38.5 -55z" />
    <glyph glyph-name="guillemotright" unicode="&#xbb;" horiz-adv-x="498" 
d="M440 403c16.667 -39.333 24.999 -79.667 24.999 -121c0 -40 -7.66699 -78.667 -23 -116s-37 -70.666 -65 -99.999l-100 98c32 33.333 48 72.666 48 117.999c0 23.333 -4.5 45.333 -13.5 66s-21.833 39 -38.5 55l96 102c30.667 -28.667 54.334 -62.667 71.001 -102z
M210.999 402.999c16.667 -39.333 24.999 -79.667 24.999 -121c0 -40 -7.66699 -78.667 -23 -116s-37 -70.666 -65 -99.999l-100 98c32 33.333 48 72.666 48 117.999c0 23.333 -4.5 45.333 -13.5 66s-21.833 39 -38.5 55l96 102c30.667 -28.667 54.334 -62.667 71.001 -102z
" />
    <glyph glyph-name="multiply" unicode="&#xd7;" horiz-adv-x="428" 
d="M313 303l92 -92l-99 -99l-92 92l-92 -92l-99 99l92 92l-92 92l99 99l92 -92l92 92l99 -99z" />
    <glyph glyph-name="divide" unicode="&#xf7;" horiz-adv-x="439" 
d="M419 233h-399v138h399v-138zM153 39.5c-18 18.333 -27 40.5 -27 66.5c0 25.333 9 47 27 65s40.333 27 67 27c25.333 0 47 -9 65 -27s27 -39.667 27 -65c0 -26 -9 -48.167 -27 -66.5s-39.667 -27.5 -65 -27.5c-26.667 0 -49 9.16699 -67 27.5zM153 435.5
c-18 18.333 -27 40.5 -27 66.5c0 25.333 9 47 27 65s40.333 27 67 27c25.333 0 47 -9 65 -27s27 -39.667 27 -65c0 -26 -9 -48.167 -27 -66.5s-39.667 -27.5 -65 -27.5c-26.667 0 -49 9.16699 -67 27.5z" />
    <glyph glyph-name="uni060C" unicode="&#x60c;" horiz-adv-x="367" 
d="M257.5 148.5c12.333 -16.333 18.5 -34.5 18.5 -54.5c0 -26 -9 -48.167 -27 -66.5s-39.667 -27.5 -65 -27.5c-26.667 0 -49 9.16699 -67 27.5s-27 40.5 -27 66.5c0 16 4.33301 31.667 13 47l83 172l72 -34l-47 -97c18.667 -6 34.167 -17.167 46.5 -33.5z" />
    <glyph glyph-name="uni061B" unicode="&#x61b;" horiz-adv-x="367" 
d="M257.5 424.5c12.333 -16.333 18.5 -34.5 18.5 -54.5c0 -26 -9 -48.167 -27 -66.5s-39.667 -27.5 -65 -27.5c-26.667 0 -49 9.16699 -67 27.5s-27 40.5 -27 66.5c0 16 4.33301 31.667 13 47l83 172l72 -34l-47 -97c18.667 -6 34.167 -17.167 46.5 -33.5zM117 27.5
c-18 18.333 -27 40.5 -27 66.5c0 25.333 9 47 27 65s40.333 27 67 27c25.333 0 47 -9 65 -27s27 -39.667 27 -65c0 -26 -9 -48.167 -27 -66.5s-39.667 -27.5 -65 -27.5c-26.667 0 -49 9.16699 -67 27.5z" />
    <glyph glyph-name="uni061F" unicode="&#x61f;" horiz-adv-x="562" 
d="M204 243c-0.666992 11.333 -1.66797 19.3379 -3.00098 24.0049s-4.66602 9.66699 -9.99902 15s-16.333 14.666 -33 27.999c-29.333 23.333 -51.5 43.166 -66.5 59.499s-25.667 33.166 -32 50.499s-9.5 38.666 -9.5 63.999c0 43.333 10.333 83.333 31 120
s48.667 65.667 84 87s74 32 116 32s80.667 -10.833 116 -32.5s63.333 -51 84 -88s31 -77.167 31 -120.5v-40h-160v40c0 16.667 -6.83301 31 -20.5 43s-30.5 18 -50.5 18s-36.833 -5.83301 -50.5 -17.5s-20.5 -25.5 -20.5 -41.5c0 -14 5.33301 -26.833 16 -38.5
s27.667 -24.834 51 -39.501c32 -21.333 53.167 -37 63.5 -47s16.833 -22.167 19.5 -36.5s4 -40.833 4 -79.5v-28h-160v28zM215.999 -8.49512c-18 18.333 -27 40.5 -27 66.5c0 25.333 9 47 27 65s40.333 27 67 27c25.333 0 47 -9 65 -27s27 -39.667 27 -65
c0 -26 -9 -48.167 -27 -66.5s-39.667 -27.5 -65 -27.5c-26.667 0 -49 9.16699 -67 27.5z" />
    <glyph glyph-name="uni0621" unicode="&#x621;" horiz-adv-x="491" 
d="M441 38l-365 -68.0029l-26 158l50 9c-4 13.333 -6.66699 23.333 -8 30c-2.66699 17.333 -4 30 -4 38c0 46 14 86.833 42 122.5s64.333 57.834 109 66.501c2.66699 0.666992 8 1 16 1c29.333 0 74 -6.33301 134 -19l-38 -154c-44 10 -72.667 15 -86 15
c-12 0 -21 -3.16699 -27 -9.5s-9 -14.166 -9 -23.499s3.66699 -17.166 11 -23.499s17 -9.5 29 -9.5c6 0 10.333 0.333008 13 1l133 25z" />
    <glyph glyph-name="uni0622" unicode="&#x622;" horiz-adv-x="333" 
d="M240 615l23 -613l-160 -7l-23 612zM27.5 745.5c18.333 19 42.5 28.5 72.5 28.5c10.667 0 18.667 -0.666992 24 -2l101 -19c2.66699 -0.666992 6.66699 -1 12 -1c12 0 18 5 18 15v3l80 6v-27c0 -31.333 -9.16699 -56.5 -27.5 -75.5s-42.5 -28.5 -72.5 -28.5
c-10.667 0 -18.667 0.666992 -24 2l-101 19c-2.66699 0.666992 -6.66699 1 -12 1c-12 0 -18 -5 -18 -15v-3l-80 -6v27c0 31.333 9.16699 56.5 27.5 75.5z" />
    <glyph glyph-name="uni0623" unicode="&#x623;" horiz-adv-x="333" 
d="M240 615l23 -613l-160 -7l-23 612zM192 704l-9.99902 -2.00098l-162 -38l-19 86l64 15c-4 6.66699 -7.66699 16.667 -11 30c-2.66699 8.66699 -4 18.667 -4 30c0 32.667 11.5 60.834 34.5 84.501s50.5 35.5 82.5 35.5c15.333 0 45.666 -4.66699 90.999 -14l-15 -86
c-34 6 -59 9 -75 9c-11.333 0 -20.833 -3 -28.5 -9s-11.5 -13.667 -11.5 -23c0 -3.33301 0.333008 -6 1 -8c2 -7.33301 7.16699 -13.333 15.5 -18s16.833 -6.66699 25.5 -6l116 28l19 -87z" />
    <glyph glyph-name="uni0624" unicode="&#x624;" horiz-adv-x="562" 
d="M512 9c0 -53.333 -12.1631 -96 -36.4961 -128s-62 -58.167 -113 -78.5s-122.833 -39.833 -215.5 -58.5l-32 176c66 13.333 114.167 23.833 144.5 31.5s52.166 15.5 65.499 23.5s21.333 18 24 30c-28.667 -3.33301 -58.334 -5 -89.001 -5c-40 0 -76 9.66699 -108 29
s-57 46 -75 80s-27 72.333 -27 115c0 43.333 9.5 83.5 28.5 120.5s45 66.667 78 89s69.5 33.5 109.5 33.5s76.167 -10.5 108.5 -31.5s58.666 -50.167 78.999 -87.5s33.166 -80 38.499 -128l17 -162c2 -16.667 3 -33 3 -49zM222.504 191
c7.66699 -7.33301 20.167 -11 37.5 -11c26.667 0 51.667 1.66699 75 5l-1 13c-2.66699 29.333 -10 51.5 -22 66.5s-27.333 22.5 -46 22.5c-16.667 0 -30 -5.83301 -40 -17.5s-15 -27.167 -15 -46.5c0 -14 3.83301 -24.667 11.5 -32zM319.004 543l-9.99902 -2.00098l-162 -38
l-19 86l64 15c-4 6.66699 -7.66699 16.667 -11 30c-2.66699 8.66699 -4 18.667 -4 30c0 32.667 11.5 60.834 34.5 84.501s50.5 35.5 82.5 35.5c15.333 0 45.666 -4.66699 90.999 -14l-15 -86c-34 6 -59 9 -75 9c-11.333 0 -20.833 -3 -28.5 -9s-11.5 -13.667 -11.5 -23
c0 -3.33301 0.333008 -6 1 -8c2 -7.33301 7.16699 -13.333 15.5 -18s16.833 -6.66699 25.5 -6l116 28l19 -87z" />
    <glyph glyph-name="uni0625" unicode="&#x625;" horiz-adv-x="327" 
d="M230 714l27 -712l-160 -7l-27 711zM210 -266l-9.99902 -2.00098l-162 -38l-19 86l64 15c-4 6.66699 -7.66699 16.667 -11 30c-2.66699 8.66699 -4 18.667 -4 30c0 32.667 11.5 60.834 34.5 84.501s50.5 35.5 82.5 35.5c15.333 0 45.666 -4.66699 90.999 -14l-15 -86
c-34 6 -59 9 -75 9c-11.333 0 -20.833 -3 -28.5 -9s-11.5 -13.667 -11.5 -23c0 -3.33301 0.333008 -6 1 -8c2 -7.33301 7.16699 -13.333 15.5 -18s16.833 -6.66699 25.5 -6l116 28l19 -87z" />
    <glyph glyph-name="uni0626" unicode="&#x626;" horiz-adv-x="762" 
d="M336 -247c-58 0 -108.666 13.3311 -151.999 39.998s-76.5 64.167 -99.5 112.5s-34.5 104.5 -34.5 168.5c0 66.667 13.333 138.667 40 216l152 -60c-21.333 -61.333 -32 -114.666 -32 -159.999c0 -44.667 10.5 -78.834 31.5 -102.501s51.833 -35.5 92.5 -35.5
c16.667 0 37.334 2.66699 62.001 8c23.333 5.33301 47.166 10.5 71.499 15.5l50.5 10.5l31 7c-2 0.666992 -14 3.33398 -36 8.00098s-45.667 11.667 -71 21c-48 17.333 -83.833 38.666 -107.5 63.999s-35.5 58.333 -35.5 99c0 26 5 56 15 90
c20 64.667 52.167 116.334 96.5 155.001s94.833 58 151.5 58c21.333 0 43 -3 65 -9l65 -18l-42 -174l-65 18c-8.66699 2.66699 -17.667 4 -27 4c-26.667 0 -47.334 -9.66699 -62.001 -29s-24.334 -37.333 -29.001 -54l-2 -12c0 -5.33301 3.5 -10.166 10.5 -14.499
s21.167 -9.83301 42.5 -16.5l29 -9c39.333 -12 68.333 -22.333 87 -31s34.334 -20.667 47.001 -36s22 -37 28 -65c2 -12 3 -23.333 3 -34c0 -53.333 -24.5 -99 -73.5 -137s-117.833 -67 -206.5 -87c-31.333 -7.33301 -63.333 -11 -96 -11zM295.001 433.998
l-9.99902 -2.00098l-162 -38l-19 86l64 15c-4 6.66699 -7.66699 16.667 -11 30c-2.66699 8.66699 -4 18.667 -4 30c0 32.667 11.5 60.834 34.5 84.501s50.5 35.5 82.5 35.5c15.333 0 45.666 -4.66699 90.999 -14l-15 -86c-34 6 -59 9 -75 9c-11.333 0 -20.833 -3 -28.5 -9
s-11.5 -13.667 -11.5 -23c0 -3.33301 0.333008 -6 1 -8c2 -7.33301 7.16699 -13.333 15.5 -18s16.833 -6.66699 25.5 -6l116 28l19 -87z" />
    <glyph glyph-name="uni0627" unicode="&#x627;" horiz-adv-x="327" 
d="M230 714l27 -712l-160 -7l-27 711z" />
    <glyph glyph-name="uni0628" unicode="&#x628;" horiz-adv-x="1002" 
d="M699.5 183.5c33 2.33301 56.501 6.49805 70.501 12.498c9.33301 4 15.666 7.66699 18.999 11s5 8 5 14c0 8 -2.33301 20 -7 36l-38 139l154 46l38 -139c7.33301 -25.333 11 -52.666 11 -81.999c0 -42.667 -10.167 -80.667 -30.5 -114s-49.5 -58.666 -87.5 -75.999
c-22 -10 -45 -17 -69 -21s-54.5 -6.66699 -91.5 -8s-94.167 -2 -171.5 -2v180c98.667 0 164.5 1.16699 197.5 3.5zM331.001 1.99805c-38 1.33301 -69 4.16602 -93 8.49902s-47 11.166 -69 20.499c-38 16.667 -67.333 41.667 -88 75s-31 71.333 -31 114
c0 24.667 3.33301 49 10 73l39 148l154 -46l-40 -156c-2 -8 -3 -14.333 -3 -19c0 -5.33301 1.66699 -9.66602 5 -12.999s9.33301 -7.33301 18 -12c13.333 -5.33301 37 -9.16602 71 -11.499s100 -3.5 198 -3.5v-180c-76 0 -133 0.666992 -171 2zM394.001 -151.002l107 107
l107 -107l-107 -107z" />
    <glyph glyph-name="uni0629" unicode="&#x629;" horiz-adv-x="527" 
d="M452 337c16.667 -34.667 25.001 -73.667 25.001 -117c0 -40 -9.5 -77.167 -28.5 -111.5s-44.833 -61.5 -77.5 -81.5s-68.334 -30 -107.001 -30s-74.334 10 -107.001 30s-58.667 47.167 -78 81.5s-29 71.5 -29 111.5c0 34 7.83301 68 23.5 102s37.5 65 65.5 93l2 2l-21 20
l111 131l141 -129c36.667 -33.333 63.334 -67.333 80.001 -102zM305.501 185.5c10.333 9 15.501 20.498 15.501 34.498c0 12.667 -3.5 24.834 -10.5 36.501s-22.167 27.834 -45.5 48.501l-3 3l-3 -3c-21.333 -21.333 -35.5 -37.833 -42.5 -49.5s-10.5 -23.5 -10.5 -35.5
c0 -14 5.33301 -25.5 16 -34.5s24.667 -13.5 42 -13.5s31.166 4.5 41.499 13.5zM45.002 654.998l94 95l95 -95l-95 -94zM262.002 654.998l94 95l95 -95l-95 -94z" />
    <glyph glyph-name="uni062A" unicode="&#x62a;" horiz-adv-x="1002" 
d="M699.5 183.5c33 2.33301 56.501 6.49805 70.501 12.498c9.33301 4 15.666 7.66699 18.999 11s5 8 5 14c0 8 -2.33301 20 -7 36l-38 139l154 46l38 -139c7.33301 -25.333 11 -52.666 11 -81.999c0 -42.667 -10.167 -80.667 -30.5 -114s-49.5 -58.666 -87.5 -75.999
c-22 -10 -45 -17 -69 -21s-54.5 -6.66699 -91.5 -8s-94.167 -2 -171.5 -2v180c98.667 0 164.5 1.16699 197.5 3.5zM331.001 1.99805c-38 1.33301 -69 4.16602 -93 8.49902s-47 11.166 -69 20.499c-38 16.667 -67.333 41.667 -88 75s-31 71.333 -31 114
c0 24.667 3.33301 49 10 73l39 148l154 -46l-40 -156c-2 -8 -3 -14.333 -3 -19c0 -5.33301 1.66699 -9.66602 5 -12.999s9.33301 -7.33301 18 -12c13.333 -5.33301 37 -9.16602 71 -11.499s100 -3.5 198 -3.5v-180c-76 0 -133 0.666992 -171 2zM298.001 456.998l94 95
l95 -95l-95 -94zM515.001 456.998l94 95l95 -95l-95 -94z" />
    <glyph glyph-name="uni062B" unicode="&#x62b;" horiz-adv-x="1002" 
d="M699.5 183.5c33 2.33301 56.501 6.49805 70.501 12.498c9.33301 4 15.666 7.66699 18.999 11s5 8 5 14c0 8 -2.33301 20 -7 36l-38 139l154 46l38 -139c7.33301 -25.333 11 -52.666 11 -81.999c0 -42.667 -10.167 -80.667 -30.5 -114s-49.5 -58.666 -87.5 -75.999
c-22 -10 -45 -17 -69 -21s-54.5 -6.66699 -91.5 -8s-94.167 -2 -171.5 -2v180c98.667 0 164.5 1.16699 197.5 3.5zM331.001 1.99805c-38 1.33301 -69 4.16602 -93 8.49902s-47 11.166 -69 20.499c-38 16.667 -67.333 41.667 -88 75s-31 71.333 -31 114
c0 24.667 3.33301 49 10 73l39 148l154 -46l-40 -156c-2 -8 -3 -14.333 -3 -19c0 -5.33301 1.66699 -9.66602 5 -12.999s9.33301 -7.33301 18 -12c13.333 -5.33301 37 -9.16602 71 -11.499s100 -3.5 198 -3.5v-180c-76 0 -133 0.666992 -171 2zM426.001 618.998l76 75
l75 -75l-75 -76zM299.001 457.998l94 95l95 -95l-95 -94zM515.001 457.998l94 95l95 -95l-95 -94z" />
    <glyph glyph-name="uni062C" unicode="&#x62c;" horiz-adv-x="747" 
d="M697 -273l-258.999 -71.999c-26.667 -6.66699 -54 -10 -82 -10c-45.333 0 -88.166 9.16699 -128.499 27.5s-74.833 44.5 -103.5 78.5s-49.334 74 -62.001 120c-8 30 -12 59.333 -12 88c0 47.333 10.667 91.833 32 133.5s51.833 77.5 91.5 107.5s86.5 52.333 140.5 67
l169 42l-126 59c-13.333 6 -26.333 9 -39 9c-14 0 -27.167 -3.33301 -39.5 -10s-22.5 -16.334 -30.5 -29.001l-17 -31l-140 88l20 36c24.667 41.333 54.667 72.833 90 94.5s73.333 32.5 114 32.5c41.333 0 81.333 -10.667 120 -32l251 -141l-22 -207l-308 -85
c-96.667 -26 -145 -71.333 -145 -136c0 -12 1.33301 -23.333 4 -34c7.33301 -29.333 24.166 -53 50.499 -71s56.5 -27 90.5 -27c15.333 0 31 2 47 6l252 70zM326.001 -24.999l107 107l107 -107l-107 -107z" />
    <glyph glyph-name="uni062D" unicode="&#x62d;" horiz-adv-x="747" 
d="M697 -273l-258.999 -71.999c-26.667 -6.66699 -54 -10 -82 -10c-45.333 0 -88.166 9.16699 -128.499 27.5s-74.833 44.5 -103.5 78.5s-49.334 74 -62.001 120c-8 30 -12 59.333 -12 88c0 47.333 10.667 91.833 32 133.5s51.833 77.5 91.5 107.5s86.5 52.333 140.5 67
l169 42l-126 59c-13.333 6 -26.333 9 -39 9c-14 0 -27.167 -3.33301 -39.5 -10s-22.5 -16.334 -30.5 -29.001l-17 -31l-140 88l20 36c24.667 41.333 54.667 72.833 90 94.5s73.333 32.5 114 32.5c41.333 0 81.333 -10.667 120 -32l251 -141l-22 -207l-308 -85
c-96.667 -26 -145 -71.333 -145 -136c0 -12 1.33301 -23.333 4 -34c7.33301 -29.333 24.166 -53 50.499 -71s56.5 -27 90.5 -27c15.333 0 31 2 47 6l252 70z" />
    <glyph glyph-name="uni062E" unicode="&#x62e;" horiz-adv-x="747" 
d="M697 -273l-258.999 -71.999c-26.667 -6.66699 -54 -10 -82 -10c-45.333 0 -88.166 9.16699 -128.499 27.5s-74.833 44.5 -103.5 78.5s-49.334 74 -62.001 120c-8 30 -12 59.333 -12 88c0 47.333 10.667 91.833 32 133.5s51.833 77.5 91.5 107.5s86.5 52.333 140.5 67
l169 42l-126 59c-13.333 6 -26.333 9 -39 9c-14 0 -27.167 -3.33301 -39.5 -10s-22.5 -16.334 -30.5 -29.001l-17 -31l-140 88l20 36c24.667 41.333 54.667 72.833 90 94.5s73.333 32.5 114 32.5c41.333 0 81.333 -10.667 120 -32l251 -141l-22 -207l-308 -85
c-96.667 -26 -145 -71.333 -145 -136c0 -12 1.33301 -23.333 4 -34c7.33301 -29.333 24.166 -53 50.499 -71s56.5 -27 90.5 -27c15.333 0 31 2 47 6l252 70zM214.001 697.001l107 107l107 -107l-107 -107z" />
    <glyph glyph-name="uni062F" unicode="&#x62f;" horiz-adv-x="587" 
d="M140.5 22c-28.333 14.667 -50.501 34.333 -66.501 59s-24 51.334 -24 80.001v63h148v-34c0 -4.66699 0.666992 -7.5 2 -8.5s4 -1.5 8 -1.5h145c16.667 0 25 5.33301 25 16c0 5.33301 -1.33301 11 -4 17c-12.667 31.333 -33 70.666 -61 117.999s-58 94.333 -90 141
l130 106c40.667 -55.333 77.5 -112.333 110.5 -171s54.833 -109.667 65.5 -153c5.33301 -22.667 8 -43 8 -61c0 -36.667 -8.5 -69.667 -25.5 -99s-41 -52.333 -72 -69s-67.167 -25 -108.5 -25h-95c-35.333 -0 -67.166 7.33301 -95.499 22z" />
    <glyph glyph-name="uni0630" unicode="&#x630;" horiz-adv-x="587" 
d="M140.5 22c-28.333 14.667 -50.501 34.333 -66.501 59s-24 51.334 -24 80.001v63h148v-34c0 -4.66699 0.666992 -7.5 2 -8.5s4 -1.5 8 -1.5h145c16.667 0 25 5.33301 25 16c0 5.33301 -1.33301 11 -4 17c-12.667 31.333 -33 70.666 -61 117.999s-58 94.333 -90 141
l130 106c40.667 -55.333 77.5 -112.333 110.5 -171s54.833 -109.667 65.5 -153c5.33301 -22.667 8 -43 8 -61c0 -36.667 -8.5 -69.667 -25.5 -99s-41 -52.333 -72 -69s-67.167 -25 -108.5 -25h-95c-35.333 -0 -67.166 7.33301 -95.499 22zM189.999 696.999l107 107l107 -107
l-107 -107z" />
    <glyph glyph-name="uni0631" unicode="&#x631;" horiz-adv-x="388" 
d="M114.5 -47c23 8 39.332 16.833 48.999 26.5s14.5 22.5 14.5 38.5c0 3.33301 -0.666992 10.333 -2 21l-40 287l158 24l40 -290c2.66699 -16.667 4 -34.667 4 -54c0 -47.333 -10.667 -86.833 -32 -118.5s-53.166 -58.5 -95.499 -80.5s-98.5 -42.667 -168.5 -62l-42 174
c53.333 14.667 91.5 26 114.5 34z" />
    <glyph glyph-name="uni0632" unicode="&#x632;" horiz-adv-x="388" 
d="M114.5 -47c23 8 39.332 16.833 48.999 26.5s14.5 22.5 14.5 38.5c0 3.33301 -0.666992 10.333 -2 21l-40 287l158 24l40 -290c2.66699 -16.667 4 -34.667 4 -54c0 -47.333 -10.667 -86.833 -32 -118.5s-53.166 -58.5 -95.499 -80.5s-98.5 -42.667 -168.5 -62l-42 174
c53.333 14.667 91.5 26 114.5 34zM101.999 521l107 107l107 -107l-107 -107z" />
    <glyph glyph-name="uni0633" unicode="&#x633;" horiz-adv-x="1256" 
d="M1206 211c0 -40 -8.49902 -75.999 -25.499 -107.999s-41.333 -57.167 -73 -75.5s-68.5 -27.5 -110.5 -27.5c-47.333 0 -87 14 -119 42c-34.667 -28 -75.334 -42 -122.001 -42c-18.667 0 -35 2.33301 -49 7c-2.66699 -66 -25.834 -117.667 -69.501 -155
s-112.167 -66.666 -205.5 -87.999c-31.333 -7.33301 -63.333 -11 -96 -11c-58 0 -108.667 13.333 -152 40s-76.5 64.167 -99.5 112.5s-34.5 104.5 -34.5 168.5c0 66.667 13.333 138.667 40 216l152 -60c-21.333 -61.333 -32 -114.666 -32 -159.999
c0 -44.667 10.5 -78.834 31.5 -102.501s51.833 -35.5 92.5 -35.5c16.667 0 37.334 2.66699 62.001 8c44 10 76 18.333 96 25s34.167 14.5 42.5 23.5s12.5 21.167 12.5 36.5c0 4.66699 -0.666992 13 -2 25l-41 275l158 26l17 -113c6 -23.333 14.167 -38.833 24.5 -46.5
s27.833 -11.5 52.5 -11.5c20 0 33 2.16699 39 6.5s9 13.166 9 26.499v124h150v-124c0 -12.667 2.83301 -21.334 8.5 -26.001s17.167 -7 34.5 -7c18 0 30.667 2.16699 38 6.5s11 12.5 11 24.5c0 9.33301 -2 21.333 -6 36l-40 149l154 46l40 -149c8 -28 12 -55.333 12 -82z
" />
    <glyph glyph-name="uni0634" unicode="&#x634;" horiz-adv-x="1256" 
d="M1206 211c0 -40 -8.49902 -75.999 -25.499 -107.999s-41.333 -57.167 -73 -75.5s-68.5 -27.5 -110.5 -27.5c-47.333 0 -87 14 -119 42c-34.667 -28 -75.334 -42 -122.001 -42c-18.667 0 -35 2.33301 -49 7c-2.66699 -66 -25.834 -117.667 -69.501 -155
s-112.167 -66.666 -205.5 -87.999c-31.333 -7.33301 -63.333 -11 -96 -11c-58 0 -108.667 13.333 -152 40s-76.5 64.167 -99.5 112.5s-34.5 104.5 -34.5 168.5c0 66.667 13.333 138.667 40 216l152 -60c-21.333 -61.333 -32 -114.666 -32 -159.999
c0 -44.667 10.5 -78.834 31.5 -102.501s51.833 -35.5 92.5 -35.5c16.667 0 37.334 2.66699 62.001 8c44 10 76 18.333 96 25s34.167 14.5 42.5 23.5s12.5 21.167 12.5 36.5c0 4.66699 -0.666992 13 -2 25l-41 275l158 26l17 -113c6 -23.333 14.167 -38.833 24.5 -46.5
s27.833 -11.5 52.5 -11.5c20 0 33 2.16699 39 6.5s9 13.166 9 26.499v124h150v-124c0 -12.667 2.83301 -21.334 8.5 -26.001s17.167 -7 34.5 -7c18 0 30.667 2.16699 38 6.5s11 12.5 11 24.5c0 9.33301 -2 21.333 -6 36l-40 149l154 46l40 -149c8 -28 12 -55.333 12 -82z
M794.001 685.001l76 75l75 -75l-75 -76zM667.001 524.001l94 95l95 -95l-95 -94zM883.001 524.001l94 95l95 -95l-95 -94z" />
    <glyph glyph-name="uni0635" unicode="&#x635;" horiz-adv-x="1343" 
d="M1183 435c34 -21.333 60.832 -50.332 80.499 -86.999s29.5 -77.334 29.5 -122.001c0 -40 -10.167 -77.333 -30.5 -112s-47.666 -62.334 -81.999 -83.001s-71.166 -31 -110.499 -31h-325h-15c-6 0 -13.667 0.666992 -23 2c-3.33301 -64.667 -27 -115.167 -71 -151.5
s-112 -65.166 -204 -86.499c-31.333 -7.33301 -63.333 -11 -96 -11c-58 0 -108.667 13.333 -152 40s-76.5 64.167 -99.5 112.5s-34.5 104.5 -34.5 168.5c0 66.667 13.333 138.667 40 216l152 -60c-21.333 -61.333 -32 -114.666 -32 -159.999
c0 -44.667 10.5 -78.834 31.5 -102.501s51.833 -35.5 92.5 -35.5c16.667 0 37.334 2.66699 62.001 8c44 10 76 18.333 96 25s34.167 14.5 42.5 23.5s12.5 21.167 12.5 36.5c0 4.66699 -0.666992 13 -2 25l-41 275l158 26l12 -79c4.66699 -28.667 9.16699 -49.5 13.5 -62.5
s9.16602 -21.167 14.499 -24.5s12.666 -5 21.999 -5h21v0l57 78c39.333 54 71.5 95 96.5 123s51.167 49.333 78.5 64s58.333 22 93 22c41.333 0 79 -10.667 113 -32zM1113.5 195.001c13 10 19.5 20.333 19.5 31c0 18.667 -5.66699 33.5 -17 44.5s-26.666 16.5 -45.999 16.5
c-16.667 0 -32.834 -7 -48.501 -21s-39.167 -42.667 -70.5 -86h119c16 0 30.5 5 43.5 15z" />
    <glyph glyph-name="uni0636" unicode="&#x636;" horiz-adv-x="1343" 
d="M1183 435c34 -21.333 60.832 -50.332 80.499 -86.999s29.5 -77.334 29.5 -122.001c0 -40 -10.167 -77.333 -30.5 -112s-47.666 -62.334 -81.999 -83.001s-71.166 -31 -110.499 -31h-325h-15c-6 0 -13.667 0.666992 -23 2c-3.33301 -64.667 -27 -115.167 -71 -151.5
s-112 -65.166 -204 -86.499c-31.333 -7.33301 -63.333 -11 -96 -11c-58 0 -108.667 13.333 -152 40s-76.5 64.167 -99.5 112.5s-34.5 104.5 -34.5 168.5c0 66.667 13.333 138.667 40 216l152 -60c-21.333 -61.333 -32 -114.666 -32 -159.999
c0 -44.667 10.5 -78.834 31.5 -102.501s51.833 -35.5 92.5 -35.5c16.667 0 37.334 2.66699 62.001 8c44 10 76 18.333 96 25s34.167 14.5 42.5 23.5s12.5 21.167 12.5 36.5c0 4.66699 -0.666992 13 -2 25l-41 275l158 26l12 -79c4.66699 -28.667 9.16699 -49.5 13.5 -62.5
s9.16602 -21.167 14.499 -24.5s12.666 -5 21.999 -5h21v0l57 78c39.333 54 71.5 95 96.5 123s51.167 49.333 78.5 64s58.333 22 93 22c41.333 0 79 -10.667 113 -32zM1113.5 195.001c13 10 19.5 20.333 19.5 31c0 18.667 -5.66699 33.5 -17 44.5s-26.666 16.5 -45.999 16.5
c-16.667 0 -32.834 -7 -48.501 -21s-39.167 -42.667 -70.5 -86h119c16 0 30.5 5 43.5 15zM950.999 641.001l107 107l107 -107l-107 -107z" />
    <glyph glyph-name="uni0637" unicode="&#x637;" horiz-adv-x="739" 
d="M579 435c34 -21.333 60.8311 -50.332 80.498 -86.999s29.5 -77.334 29.5 -122.001c0 -40 -10.167 -77.333 -30.5 -112s-47.666 -62.334 -81.999 -83.001s-71.166 -31 -110.499 -31h-416v180h91l27 37l-19 489l160 8l12 -307c22 20.667 44.5 35.834 67.5 45.501
s48.833 14.5 77.5 14.5c41.333 0 79 -10.667 113 -32zM509.498 195.001c13 10 19.5 20.333 19.5 31c0 18.667 -5.66699 33.5 -17 44.5s-26.666 16.5 -45.999 16.5c-16.667 0 -32.834 -7 -48.501 -21s-39.167 -42.667 -70.5 -86h119c16 0 30.5 5 43.5 15z" />
    <glyph glyph-name="uni0638" unicode="&#x638;" horiz-adv-x="739" 
d="M579 435c34 -21.333 60.8311 -50.332 80.498 -86.999s29.5 -77.334 29.5 -122.001c0 -40 -10.167 -77.333 -30.5 -112s-47.666 -62.334 -81.999 -83.001s-71.166 -31 -110.499 -31h-416v180h91l27 37l-19 489l160 8l12 -307c22 20.667 44.5 35.834 67.5 45.501
s48.833 14.5 77.5 14.5c41.333 0 79 -10.667 113 -32zM509.498 195.001c13 10 19.5 20.333 19.5 31c0 18.667 -5.66699 33.5 -17 44.5s-26.666 16.5 -45.999 16.5c-16.667 0 -32.834 -7 -48.501 -21s-39.167 -42.667 -70.5 -86h119c16 0 30.5 5 43.5 15zM381.998 636.001
l107 107l107 -107l-107 -107z" />
    <glyph glyph-name="uni0639" unicode="&#x639;" horiz-adv-x="663" 
d="M613 -247l-268.999 -26.999c-6 -0.666992 -15 -1 -27 -1c-48 0 -92.5 12.167 -133.5 36.5s-73.667 57.5 -98 99.5s-36.5 88.667 -36.5 140c0 46.667 11.167 90.334 33.5 131.001s53.166 74 92.499 100c-10.667 22 -18.334 44.667 -23.001 68
c-2.66699 13.333 -4 28.333 -4 45c0 36.667 7.83301 71.167 23.5 103.5s37.334 59.5 65.001 81.5s59.167 36 94.5 42c6 1.33301 16 2 30 2c40.667 0 91.667 -8 153 -24l-42 -174c-57.333 15.333 -95 21.333 -113 18c-16 -2.66699 -28.667 -8.33398 -38 -17.001
s-14 -19 -14 -31c0 -14.667 6 -27.167 18 -37.5s26.333 -15.5 43 -15.5c6 0 10.333 0.333008 13 1l170 31l28 -178l-267 -49c-30.667 -5.33301 -55.167 -17 -73.5 -35s-27.5 -38.667 -27.5 -62c0 -18.667 5.33301 -35.834 16 -51.501s25 -27.5 43 -35.5s37.333 -11 58 -9
l269 28z" />
    <glyph glyph-name="uni063A" unicode="&#x63a;" horiz-adv-x="663" 
d="M613 -247l-268.999 -26.999c-6 -0.666992 -15 -1 -27 -1c-48 0 -92.5 12.167 -133.5 36.5s-73.667 57.5 -98 99.5s-36.5 88.667 -36.5 140c0 46.667 11.167 90.334 33.5 131.001s53.166 74 92.499 100c-10.667 22 -18.334 44.667 -23.001 68
c-2.66699 13.333 -4 28.333 -4 45c0 36.667 7.83301 71.167 23.5 103.5s37.334 59.5 65.001 81.5s59.167 36 94.5 42c6 1.33301 16 2 30 2c40.667 0 91.667 -8 153 -24l-42 -174c-57.333 15.333 -95 21.333 -113 18c-16 -2.66699 -28.667 -8.33398 -38 -17.001
s-14 -19 -14 -31c0 -14.667 6 -27.167 18 -37.5s26.333 -15.5 43 -15.5c6 0 10.333 0.333008 13 1l170 31l28 -178l-267 -49c-30.667 -5.33301 -55.167 -17 -73.5 -35s-27.5 -38.667 -27.5 -62c0 -18.667 5.33301 -35.834 16 -51.501s25 -27.5 43 -35.5s37.333 -11 58 -9
l269 28zM245.001 721.001l107 107l107 -107l-107 -107z" />
    <glyph glyph-name="uni0640" unicode="&#x640;" horiz-adv-x="300" 
d="M305 180v-180h-310v180h310z" />
    <glyph glyph-name="uni0641" unicode="&#x641;" horiz-adv-x="1011" 
d="M961 195c0 -65.333 -21.999 -114.17 -65.999 -146.503s-116.667 -48.5 -218 -48.5h-180c-106.667 0 -180.334 1.83301 -221.001 5.5s-76.334 12.167 -107.001 25.5c-38 16.667 -67.333 41.667 -88 75s-31 71.333 -31 114c0 24.667 3.33301 49 10 73l39 148l154 -46
l-40 -156c-2 -8 -3 -14.333 -3 -19c0 -5.33301 1.66699 -9.66602 5 -12.999s9.33301 -7.33301 18 -12c13.333 -5.33301 37 -9.16602 71 -11.499s100 -3.5 198 -3.5h177c42.667 0 72.167 0.666992 88.5 2s27.166 4.33301 32.499 9s7.33301 13.334 6 26.001
c-29.333 -1.33301 -57.333 -2 -84 -2c-58.667 0 -105.5 16.5 -140.5 49.5s-52.5 78.833 -52.5 137.5c0 72 17.833 130.833 53.5 176.5s86.834 68.5 153.501 68.5c38.667 0 73.5 -9.66699 104.5 -29s55.833 -46.5 74.5 -81.5s29.334 -75.167 32.001 -120.5l13 -198
c0.666992 -5.33301 1 -13 1 -23zM722.001 380.996c22.667 0 46.667 0.666992 72 2l-2 20c-6 54.667 -27.333 82 -64 82c-16 0 -29 -5.83301 -39 -17.5s-15 -26.5 -15 -44.5c0 -28 16 -42 48 -42zM627.001 805.996l107 107l107 -107l-107 -107z" />
    <glyph glyph-name="uni0642" unicode="&#x642;" horiz-adv-x="795" 
d="M336 -247c-58 0 -108.666 13.3291 -151.999 39.9961s-76.5 64.167 -99.5 112.5s-34.5 104.5 -34.5 168.5c0 66.667 13.333 138.667 40 216l152 -60c-21.333 -61.333 -32 -114.666 -32 -159.999c0 -44.667 10.5 -78.834 31.5 -102.501s51.833 -35.5 92.5 -35.5
c16.667 0 37.334 2.66699 62.001 8c64.667 13.333 111.834 24.833 141.501 34.5s44.5 20.834 44.5 33.501v7c-28.667 -3.33301 -58.334 -5 -89.001 -5c-40 0 -76 9.66699 -108 29s-57 46 -75 80s-27 72.333 -27 115c0 43.333 9.5 83.5 28.5 120.5s45 66.667 78 89
s69.5 33.5 109.5 33.5s76.167 -10.5 108.5 -31.5s58.666 -50.167 78.999 -87.5s33.166 -80 38.499 -128l17 -162c2 -16.667 3 -33 3 -49c0 -49.333 -10.5 -89.666 -31.5 -120.999s-53.833 -57.166 -98.5 -77.499s-105.667 -39.166 -183 -56.499
c-31.333 -7.33301 -63.333 -11 -96 -11zM568.001 194.996l-1 13c-2.66699 29.333 -10 51.5 -22 66.5s-27.333 22.5 -46 22.5c-16.667 0 -30 -5.83301 -40 -17.5s-15 -27.167 -15 -46.5c0 -14 3.83301 -24.667 11.5 -32s20.167 -11 37.5 -11c26.667 0 51.667 1.66699 75 5z
M287.001 607.996l94 95l95 -95l-95 -94zM504.001 607.996l94 95l95 -95l-95 -94z" />
    <glyph glyph-name="uni0643" unicode="&#x643;" horiz-adv-x="938" 
d="M865.5 105.5c-17 -33 -41.499 -58.832 -73.499 -77.499s-69.333 -28 -112 -28h-178c-76 0 -133 0.666992 -171 2s-69 4.16602 -93 8.49902s-47 11.166 -69 20.499c-38 16.667 -67.333 41.667 -88 75s-31 71.333 -31 114c0 24.667 3.33301 49 10 73l39 148l154 -46
l-40 -156c-2 -8 -3 -14.333 -3 -19c0 -5.33301 1.66699 -9.66602 5 -12.999s9.33301 -7.33301 18 -12c13.333 -5.33301 37 -9.16602 71 -11.499s100 -3.5 198 -3.5h178c20 0 33.167 2.16699 39.5 6.5s9.16602 12.166 8.49902 23.499l-19 496l160 8l19 -496
c2 -42 -5.5 -79.5 -22.5 -112.5zM551.001 382.001c0 -14.667 -5 -27.665 -15 -38.998s-23 -17 -39 -17h-89v70h47c4 0 6 0.333008 6 1c0 1.33301 -1.66699 3.66602 -5 6.99902l-42 42l14 58l98 33l22 -66l-45 -15l31 -33c11.333 -10.667 17 -24.334 17 -41.001z" />
    <glyph glyph-name="uni0644" unicode="&#x644;" horiz-adv-x="753" 
d="M332 -249c-57.333 0 -107.331 13.332 -149.998 39.999s-75.334 64.334 -98.001 113.001s-34 105 -34 169c0 70 13 142 39 216l152 -60c-21.333 -60 -32 -113.333 -32 -160c0 -44.667 10.5 -79 31.5 -103s51.167 -36 90.5 -36c20.667 0 41.334 2.66699 62.001 8
c50 12.667 84.667 23 104 31s32.166 18.167 38.499 30.5s8.83301 32.166 7.5 59.499l-25 647l160 8l25 -646c2.66699 -60.667 -4.83301 -110.167 -22.5 -148.5s-46.334 -69.666 -86.001 -93.999s-94.167 -44.833 -163.5 -61.5c-38 -8.66699 -71 -13 -99 -13z" />
    <glyph glyph-name="uni0645" unicode="&#x645;" horiz-adv-x="625" 
d="M546.5 352.5c19 -37 28.5 -77.833 28.5 -122.5c0 -52.667 -13 -103 -39 -151c-14.667 -26.667 -33.667 -47.5 -57 -62.5s-48.333 -22.5 -75 -22.5c-21.333 0 -44 5.66699 -68 17l-126 64l20 -369l-160 -6l-20 520l109 73l21 -11l37 72c16.667 32.667 39.5 58 68.5 76
s60.167 27 93.5 27c30 0 59.333 -7.33301 88 -22c34 -18 60.5 -45.5 79.5 -82.5zM435 234c0 20.667 -8.33398 35.666 -25.001 44.999c-7.33301 4 -14.666 6 -21.999 6c-20.667 0 -39.667 -17 -57 -51l-12 -22l96 -49c13.333 28.667 20 52.334 20 71.001z" />
    <glyph glyph-name="uni0646" unicode="&#x646;" horiz-adv-x="757" 
d="M336 -247c-58 0 -108.668 13.333 -152.001 40s-76.5 64.167 -99.5 112.5s-34.5 104.5 -34.5 168.5c0 66.667 13.333 138.667 40 216l152 -60c-21.333 -61.333 -32 -114.666 -32 -159.999c0 -44.667 10.5 -78.834 31.5 -102.501s51.833 -35.5 92.5 -35.5
c16.667 0 37.334 2.66699 62.001 8c44 10 76 18.333 96 25s34.167 14.5 42.5 23.5s12.5 21.167 12.5 36.5c0 4.66699 -0.666992 13 -2 25l-41 275l158 26l41 -276c2.66699 -18 4 -37 4 -57c0 -70 -21.833 -124.333 -65.5 -163s-113.5 -69 -209.5 -91
c-31.333 -7.33301 -63.333 -11 -96 -11zM253.999 365l107 107l107 -107l-107 -107z" />
    <glyph glyph-name="uni0647" unicode="&#x647;" horiz-adv-x="527" 
d="M452 337c16.667 -34.667 25.001 -73.667 25.001 -117c0 -40 -9.5 -77.167 -28.5 -111.5s-44.833 -61.5 -77.5 -81.5s-68.334 -30 -107.001 -30s-74.334 10 -107.001 30s-58.667 47.167 -78 81.5s-29 71.5 -29 111.5c0 34 7.83301 68 23.5 102s37.5 65 65.5 93l2 2l-21 20
l111 131l141 -129c36.667 -33.333 63.334 -67.333 80.001 -102zM305.501 185.5c10.333 9 15.501 20.498 15.501 34.498c0 12.667 -3.5 24.834 -10.5 36.501s-22.167 27.834 -45.5 48.501l-3 3l-3 -3c-21.333 -21.333 -35.5 -37.833 -42.5 -49.5s-10.5 -23.5 -10.5 -35.5
c0 -14 5.33301 -25.5 16 -34.5s24.667 -13.5 42 -13.5s31.166 4.5 41.499 13.5z" />
    <glyph glyph-name="uni0648" unicode="&#x648;" horiz-adv-x="562" 
d="M512 9c0 -53.333 -12.1631 -96 -36.4961 -128s-62 -58.167 -113 -78.5s-122.833 -39.833 -215.5 -58.5l-32 176c66 13.333 114.167 23.833 144.5 31.5s52.166 15.5 65.499 23.5s21.333 18 24 30c-28.667 -3.33301 -58.334 -5 -89.001 -5c-40 0 -76 9.66699 -108 29
s-57 46 -75 80s-27 72.333 -27 115c0 43.333 9.5 83.5 28.5 120.5s45 66.667 78 89s69.5 33.5 109.5 33.5s76.167 -10.5 108.5 -31.5s58.666 -50.167 78.999 -87.5s33.166 -80 38.499 -128l17 -162c2 -16.667 3 -33 3 -49zM222.504 191
c7.66699 -7.33301 20.167 -11 37.5 -11c26.667 0 51.667 1.66699 75 5l-1 13c-2.66699 29.333 -10 51.5 -22 66.5s-27.333 22.5 -46 22.5c-16.667 0 -30 -5.83301 -40 -17.5s-15 -27.167 -15 -46.5c0 -14 3.83301 -24.667 11.5 -32z" />
    <glyph glyph-name="uni0649" unicode="&#x649;" horiz-adv-x="762" 
d="M336 -247c-58 0 -108.666 13.3311 -151.999 39.998s-76.5 64.167 -99.5 112.5s-34.5 104.5 -34.5 168.5c0 66.667 13.333 138.667 40 216l152 -60c-21.333 -61.333 -32 -114.666 -32 -159.999c0 -44.667 10.5 -78.834 31.5 -102.501s51.833 -35.5 92.5 -35.5
c16.667 0 37.334 2.66699 62.001 8c23.333 5.33301 47.166 10.5 71.499 15.5l50.5 10.5l31 7c-2 0.666992 -14 3.33398 -36 8.00098s-45.667 11.667 -71 21c-48 17.333 -83.833 38.666 -107.5 63.999s-35.5 58.333 -35.5 99c0 26 5 56 15 90
c20 64.667 52.167 116.334 96.5 155.001s94.833 58 151.5 58c21.333 0 43 -3 65 -9l65 -18l-42 -174l-65 18c-8.66699 2.66699 -17.667 4 -27 4c-26.667 0 -47.334 -9.66699 -62.001 -29s-24.334 -37.333 -29.001 -54l-2 -12c0 -5.33301 3.5 -10.166 10.5 -14.499
s21.167 -9.83301 42.5 -16.5l29 -9c39.333 -12 68.333 -22.333 87 -31s34.334 -20.667 47.001 -36s22 -37 28 -65c2 -12 3 -23.333 3 -34c0 -53.333 -24.5 -99 -73.5 -137s-117.833 -67 -206.5 -87c-31.333 -7.33301 -63.333 -11 -96 -11z" />
    <glyph glyph-name="uni064A" unicode="&#x64a;" horiz-adv-x="762" 
d="M336 -247c-58 0 -108.666 13.3311 -151.999 39.998s-76.5 64.167 -99.5 112.5s-34.5 104.5 -34.5 168.5c0 66.667 13.333 138.667 40 216l152 -60c-21.333 -61.333 -32 -114.666 -32 -159.999c0 -44.667 10.5 -78.834 31.5 -102.501s51.833 -35.5 92.5 -35.5
c16.667 0 37.334 2.66699 62.001 8c23.333 5.33301 47.166 10.5 71.499 15.5l50.5 10.5l31 7c-2 0.666992 -14 3.33398 -36 8.00098s-45.667 11.667 -71 21c-48 17.333 -83.833 38.666 -107.5 63.999s-35.5 58.333 -35.5 99c0 26 5 56 15 90
c20 64.667 52.167 116.334 96.5 155.001s94.833 58 151.5 58c21.333 0 43 -3 65 -9l65 -18l-42 -174l-65 18c-8.66699 2.66699 -17.667 4 -27 4c-26.667 0 -47.334 -9.66699 -62.001 -29s-24.334 -37.333 -29.001 -54l-2 -12c0 -5.33301 3.5 -10.166 10.5 -14.499
s21.167 -9.83301 42.5 -16.5l29 -9c39.333 -12 68.333 -22.333 87 -31s34.334 -20.667 47.001 -36s22 -37 28 -65c2 -12 3 -23.333 3 -34c0 -53.333 -24.5 -99 -73.5 -137s-117.833 -67 -206.5 -87c-31.333 -7.33301 -63.333 -11 -96 -11zM178.001 -367.002l94 95l95 -95
l-95 -94zM395.001 -367.002l94 95l95 -95l-95 -94z" />
    <glyph glyph-name="uni064B" unicode="&#x64b;" 
d="M241 561l19 -87l-241 -58l-19 87zM241 702l19 -87l-241 -58l-19 87z" />
    <glyph glyph-name="uni064C" unicode="&#x64c;" 
d="M391 608c-20.667 -22.667 -49 -38.334 -85 -47.001l-254 -61l-19 87h2c17.333 4.66699 30 11.5 38 20.5s10.667 19.5 8 31.5c-1.33301 8.66699 -6 15.834 -14 21.501s-17.667 8.5 -29 8.5c-6.66699 0 -13.667 -1 -21 -3l-17 76c14 4.66699 28.667 7 44 7
c29.333 0 55 -9.16699 77 -27.5s35.333 -42.166 40 -71.499c2 -10.667 3 -21.334 3 -32.001l28 7l-12 47c-2 9.33301 -3 18.333 -3 27c0 25.333 8 47.333 24 66s37.667 31.334 65 38.001c10 2.66699 20.667 4 32 4c34 0 63.167 -11.333 87.5 -34s36.5 -51.334 36.5 -86.001
c0 -30 -10.333 -56.333 -31 -79zM336 688c0 10 -3 18.333 -9 25s-14.667 10 -26 10c-3.33301 0 -8.33301 -0.666992 -15 -2c-16.667 -4 -25 -11.333 -25 -22c0 -4 0.333008 -7 1 -9l11 -46l13 3c33.333 8 50 21.667 50 41z" />
    <glyph glyph-name="uni064D" unicode="&#x64d;" 
d="M241 -378l19 -87l-241 -58l-19 87zM241 -237l19 -87l-241 -58l-19 87z" />
    <glyph glyph-name="uni064E" unicode="&#x64e;" 
d="M241 645l19 -87l-241 -58l-19 87z" />
    <glyph glyph-name="uni064F" unicode="&#x64f;" 
d="M278 589c-20.667 -22.667 -49 -38.333 -85 -47l-174 -42l-19 87l79 19l-12 47c-2 9.33301 -3 18.333 -3 27c0 25.333 8 47.333 24 66s37.667 31.334 65 38.001c10 2.66699 20.667 4 32 4c34 0 63.167 -11.333 87.5 -34s36.5 -51.334 36.5 -86.001
c0 -30 -10.333 -56.333 -31 -79zM223 669.001c0 10 -3 18.333 -9 25s-14.667 10 -26 10c-3.33301 0 -8.33301 -0.666992 -15 -2c-16.667 -4 -25 -11.333 -25 -22c0 -4 0.333008 -7 1 -9l11 -46l13 3c33.333 8 50 21.667 50 41z" />
    <glyph glyph-name="uni0650" unicode="&#x650;" 
d="M241 -256l19 -87l-241 -58l-19 87z" />
    <glyph glyph-name="uni0651" unicode="&#x651;" 
d="M86 664l-11 -53l-1 -6c0 -10 7.66699 -15 23 -15c10.667 0 17.667 2.66699 21 8l3 70h65l3 -70c3.33301 -5.33301 10.333 -8 21 -8c18 0 25.667 5.66699 23 17l-17 73l69 21l22 -77c2.66699 -8.66699 4 -18.334 4 -29.001c0 -26.667 -9.5 -49.167 -28.5 -67.5
s-43.167 -27.5 -72.5 -27.5c-10.667 0 -21.167 1.66699 -31.5 5s-18.5 8 -24.5 14c-14.667 -12.667 -33.667 -19 -57 -19c-27.333 0 -50.333 9 -69 27s-28 40.333 -28 67c-0 10.667 1.33301 20.334 4 29.001l15 60z" />
    <glyph glyph-name="uni0652" unicode="&#x652;" 
d="M68.5 519c-21 12.667 -37.666 29.667 -49.999 51s-18.5 44.666 -18.5 69.999c0 24.667 6.16699 47.667 18.5 69s29 38.333 50 51s43.833 19 68.5 19c24 0 46.5 -6.33301 67.5 -19s37.667 -29.667 50 -51s18.5 -44.333 18.5 -69c0 -25.333 -6.16699 -48.666 -18.5 -69.999
s-28.833 -38.333 -49.5 -51s-43.334 -19 -68.001 -19s-47.5 6.33301 -68.5 19zM176.501 602c11 10.667 16.499 23.332 16.499 37.999s-5.5 27.167 -16.5 37.5s-24.167 15.5 -39.5 15.5s-28.666 -5.16699 -39.999 -15.5s-17 -22.833 -17 -37.5
c0 -15.333 5.5 -28.166 16.5 -38.499s24.5 -15.5 40.5 -15.5c15.333 0 28.5 5.33301 39.5 16z" />
    <glyph glyph-name="uni0653" unicode="&#x653;" 
d="M27.5 687.5c18.333 19 42.5 28.5 72.5 28.5c10.667 0 18.667 -0.666992 24 -2l101 -19c2.66699 -0.666992 6.66699 -1 12 -1c12 0 18 5 18 15v3l80 6v-27c0 -31.333 -9.16699 -56.5 -27.5 -75.5s-42.5 -28.5 -72.5 -28.5c-10.667 0 -18.667 0.666992 -24 2l-101 19
c-2.66699 0.666992 -6.66699 1 -12 1c-12 0 -18 -5 -18 -15v-3l-80 -6v27c0 31.333 9.16699 56.5 27.5 75.5z" />
    <glyph glyph-name="uni0654" unicode="&#x654;" 
d="M191 536l-9.99902 -2.00098l-162 -38l-19 86l64 15c-4 6.66699 -7.66699 16.667 -11 30c-2.66699 8.66699 -4 18.667 -4 30c0 32.667 11.5 60.834 34.5 84.501s50.5 35.5 82.5 35.5c15.333 0 45.666 -4.66699 90.999 -14l-15 -86c-34 6 -59 9 -75 9
c-11.333 0 -20.833 -3 -28.5 -9s-11.5 -13.667 -11.5 -23c0 -3.33301 0.333008 -6 1 -8c2 -7.33301 7.16699 -13.333 15.5 -18s16.833 -6.66699 25.5 -6l116 28l19 -87z" />
    <glyph glyph-name="uni0655" unicode="&#x655;" 
d="M191 -400l-9.99902 -2.00098l-162 -38l-19 86l64 15c-4 6.66699 -7.66699 16.667 -11 30c-2.66699 8.66699 -4 18.667 -4 30c0 32.667 11.5 60.834 34.5 84.501s50.5 35.5 82.5 35.5c15.333 0 45.666 -4.66699 90.999 -14l-15 -86c-34 6 -59 9 -75 9
c-11.333 0 -20.833 -3 -28.5 -9s-11.5 -13.667 -11.5 -23c0 -3.33301 0.333008 -6 1 -8c2 -7.33301 7.16699 -13.333 15.5 -18s16.833 -6.66699 25.5 -6l116 28l19 -87z" />
    <glyph glyph-name="uni0656" unicode="&#x656;" 
d="M77 -238v-162h-75v162h75z" />
    <glyph glyph-name="uni0660" unicode="&#x660;" horiz-adv-x="424" 
d="M70 238l142 142l142 -142l-142 -142z" />
    <glyph glyph-name="uni0661" unicode="&#x661;" horiz-adv-x="394" 
d="M260 664l64 -655l-160 -18l-64 655z" />
    <glyph glyph-name="uni0662" unicode="&#x662;" horiz-adv-x="643" 
d="M563 481c0 -35.333 -9.16504 -68.165 -27.498 -98.498s-42.833 -54.666 -73.5 -72.999s-64 -27.5 -100 -27.5h-19c-16 0 -31.333 2 -46 6l27 -275l-160 -18l-64 656l160 18l17 -177c2.66699 -12.667 6.66699 -20.834 12 -24.501s14.666 -5.5 27.999 -5.5h45
c14.667 0 25.167 1.66699 31.5 5s9.16602 9.66602 8.49902 18.999l-17 165l160 18l17 -168c0.666992 -4.66699 1 -11.334 1 -20.001z" />
    <glyph glyph-name="uni0663" unicode="&#x663;" horiz-adv-x="874" 
d="M794 475c0 -35.333 -9.33203 -68.166 -27.999 -98.499s-43.334 -54.333 -74.001 -72s-63.667 -26.5 -99 -26.5h-11c-43.333 0 -82.666 14.333 -117.999 43c-36 -28.667 -76.667 -43 -122 -43h-18c-6.66699 0 -15.334 0.666992 -26.001 2l26 -271l-160 -18l-64 655l160 18
l16 -165c3.33301 -27.333 17 -41 41 -41h25c11.333 0 21 2.33301 29 7s11.667 11 11 19v1l-14 138l160 18l14 -147c2 -24 15.333 -36 40 -36h11c11.333 0 21 2.66699 29 8s11.667 11.666 11 18.999l-16 161l160 18l16 -171c0.666992 -4 1 -10 1 -18z" />
    <glyph glyph-name="uni0664" unicode="&#x664;" horiz-adv-x="565" 
d="M485 180l0.00195312 -180h-186c-36 -0 -69.333 9.33301 -100 28s-54.834 44 -72.501 76s-26.5 66.333 -26.5 103c0 82 39.333 144.667 118 188c-48 38 -72 88.667 -72 152c0 48.667 14 90 42 124s67.667 58.667 119 74l127 38l46 -172l-127 -37
c-18 -5.33301 -30.333 -10.333 -37 -15s-10 -10.334 -10 -17.001c0 -7.33301 3.66699 -13 11 -17s22.666 -9.66699 45.999 -17l112 -33l3 -170l-142 -43c-29.333 -8.66699 -49.333 -16.667 -60 -24s-16 -16.666 -16 -27.999c0 -20 14.333 -30 43 -30h182z" />
    <glyph glyph-name="uni0665" unicode="&#x665;" horiz-adv-x="761" 
d="M165 53c-43.333 42 -64.999 101.002 -64.999 177.002c0 32 4.66699 68.667 14 110c16.667 73.333 37.167 132 61.5 176s55.166 74 92.499 90c21.333 9.33301 45.333 14 72 14c52 0 104.667 -18 158 -54s97.166 -82.333 131.499 -139s51.5 -113.334 51.5 -170.001
c0 -6.66699 -0.666992 -17.334 -2 -32.001c-10.667 -78 -43.667 -136.667 -99 -176s-131.666 -59 -228.999 -59c-80.667 0 -142.667 21 -186 63zM476.001 189.002c26.667 12.667 41.666 32.668 44.999 60.001c2.66699 22 -6 48.333 -26 79s-44.5 57.5 -73.5 80.5
s-53.833 34.5 -74.5 34.5c-4.66699 0 -9.66699 -1 -15 -3c-22 -8.66699 -42.667 -55.334 -62 -140.001c-7.33301 -31.333 -11 -55 -11 -71c0 -23.333 6.83301 -39 20.5 -47s37.5 -12 71.5 -12c56.667 0 98.334 6.33301 125.001 19z" />
    <glyph glyph-name="uni0666" unicode="&#x666;" horiz-adv-x="699" 
d="M325 472c-91.333 0 -166.332 9.33301 -224.999 28l50 172c44 -14 101 -21 171 -21c53.333 0 105.333 3.33301 156 10l91 -80l51 -572l-160 -18l-42 484c-26.667 -2 -57.334 -3 -92.001 -3z" />
    <glyph glyph-name="uni0667" unicode="&#x667;" horiz-adv-x="755" 
d="M452 -8h-150l-222 612l150 60l147 -408l148 408l150 -60z" />
    <glyph glyph-name="uni0668" unicode="&#x668;" horiz-adv-x="755" 
d="M303 661h150l222 -616l-150 -60l-147 408l-148 -408l-150 60z" />
    <glyph glyph-name="uni0669" unicode="&#x669;" horiz-adv-x="678" 
d="M438 -8l-25.001 227.999h-89c-41.333 0 -79 10.167 -113 30.5s-61 47.833 -81 82.5s-30 73 -30 115s10 80.833 30 116.5s47.167 63.834 81.5 84.501s71.833 31 112.5 31c38.667 0 74.167 -9.66699 106.5 -29s58.833 -45.833 79.5 -79.5s33.334 -71.5 38.001 -113.5
l50 -448zM392.999 393.999l-5 46.001c-2 18.667 -8.83301 34 -20.5 46s-26.167 18 -43.5 18c-18.667 0 -34 -5.5 -46 -16.5s-18 -24.167 -18 -39.5c0 -14.667 6.16699 -27.334 18.5 -38.001s27.5 -16 45.5 -16h69z" />
    <glyph glyph-name="uni066A" unicode="&#x66a;" horiz-adv-x="591" 
d="M515 700l-254 -700h-188l254 700h188zM47 541.5c-18 18.333 -27 40.5 -27 66.5c0 25.333 9 47 27 65s40.333 27 67 27c25.333 0 47 -9 65 -27s27 -39.667 27 -65c0 -26 -9 -48.167 -27 -66.5s-39.667 -27.5 -65 -27.5c-26.667 0 -49 9.16699 -67 27.5zM412 27.5
c-18 18.333 -27 40.5 -27 66.5c0 25.333 9 47 27 65s40.333 27 67 27c25.333 0 47 -9 65 -27s27 -39.667 27 -65c0 -26 -9 -48.167 -27 -66.5s-39.667 -27.5 -65 -27.5c-26.667 0 -49 9.16699 -67 27.5z" />
    <glyph glyph-name="uni066B" unicode="&#x66b;" horiz-adv-x="426" 
d="M256 462l110 -48l-216 -536l-110 48z" />
    <glyph glyph-name="uni066C" unicode="&#x66c;" horiz-adv-x="338" 
d="M154 142l114 -40l-84 -238l-114 40z" />
    <glyph glyph-name="uni066D" unicode="&#x66d;" horiz-adv-x="528" 
d="M394 372l52 -72l-130 -94l-52 72l-52 -72l-130 94l52 72l-84 27l50 152l84 -27v89h160v-89l84 27l50 -152z" />
    <glyph glyph-name="uni066E" unicode="&#x66e;" horiz-adv-x="1002" 
d="M699.5 183.5c33 2.33301 56.501 6.49805 70.501 12.498c9.33301 4 15.666 7.66699 18.999 11s5 8 5 14c0 8 -2.33301 20 -7 36l-38 139l154 46l38 -139c7.33301 -25.333 11 -52.666 11 -81.999c0 -42.667 -10.167 -80.667 -30.5 -114s-49.5 -58.666 -87.5 -75.999
c-22 -10 -45 -17 -69 -21s-54.5 -6.66699 -91.5 -8s-94.167 -2 -171.5 -2v180c98.667 0 164.5 1.16699 197.5 3.5zM331.001 1.99805c-38 1.33301 -69 4.16602 -93 8.49902s-47 11.166 -69 20.499c-38 16.667 -67.333 41.667 -88 75s-31 71.333 -31 114
c0 24.667 3.33301 49 10 73l39 148l154 -46l-40 -156c-2 -8 -3 -14.333 -3 -19c0 -5.33301 1.66699 -9.66602 5 -12.999s9.33301 -7.33301 18 -12c13.333 -5.33301 37 -9.16602 71 -11.499s100 -3.5 198 -3.5v-180c-76 0 -133 0.666992 -171 2z" />
    <glyph glyph-name="uni066F" unicode="&#x66f;" horiz-adv-x="795" 
d="M336 -247c-58 0 -108.666 13.3291 -151.999 39.9961s-76.5 64.167 -99.5 112.5s-34.5 104.5 -34.5 168.5c0 66.667 13.333 138.667 40 216l152 -60c-21.333 -61.333 -32 -114.666 -32 -159.999c0 -44.667 10.5 -78.834 31.5 -102.501s51.833 -35.5 92.5 -35.5
c16.667 0 37.334 2.66699 62.001 8c64.667 13.333 111.834 24.833 141.501 34.5s44.5 20.834 44.5 33.501v7c-28.667 -3.33301 -58.334 -5 -89.001 -5c-40 0 -76 9.66699 -108 29s-57 46 -75 80s-27 72.333 -27 115c0 43.333 9.5 83.5 28.5 120.5s45 66.667 78 89
s69.5 33.5 109.5 33.5s76.167 -10.5 108.5 -31.5s58.666 -50.167 78.999 -87.5s33.166 -80 38.499 -128l17 -162c2 -16.667 3 -33 3 -49c0 -49.333 -10.5 -89.666 -31.5 -120.999s-53.833 -57.166 -98.5 -77.499s-105.667 -39.166 -183 -56.499
c-31.333 -7.33301 -63.333 -11 -96 -11zM568.001 194.996l-1 13c-2.66699 29.333 -10 51.5 -22 66.5s-27.333 22.5 -46 22.5c-16.667 0 -30 -5.83301 -40 -17.5s-15 -27.167 -15 -46.5c0 -14 3.83301 -24.667 11.5 -32s20.167 -11 37.5 -11c26.667 0 51.667 1.66699 75 5z
" />
    <glyph glyph-name="uni0670" unicode="&#x670;" 
d="M77 662v-162h-75v162h75z" />
    <glyph glyph-name="uni0671" unicode="&#x671;" horiz-adv-x="333" 
d="M240 615l23 -613l-160 -7l-23 612zM306 839.5c20.667 -22.333 31.001 -50.168 31.001 -83.501c0 -29.333 -10.833 -55 -32.5 -77s-46.834 -33 -75.501 -33h-138c-7.33301 0 -13.333 -2 -18 -6s-13 -13.667 -25 -29l-67 51c16.667 24 31.5 41.333 44.5 52
s27.167 17.334 42.5 20.001l32 44c16 21.333 29.167 38 39.5 50s23.166 22.5 38.499 31.5s32.333 13.5 51 13.5c30.667 0 56.334 -11.167 77.001 -33.5zM250.501 742.498c6.33301 4.33301 9.5 10.5 9.5 18.5s-3 14.333 -9 19s-13.333 7 -22 7c-9.33301 0 -18 -3 -26 -9
s-18.667 -17.667 -32 -35l-5 -7h63c8 0 15.167 2.16699 21.5 6.5z" />
    <glyph glyph-name="uni067E" unicode="&#x67e;" horiz-adv-x="1002" 
d="M699.5 183.5c33 2.33301 56.501 6.49805 70.501 12.498c9.33301 4 15.666 7.66699 18.999 11s5 8 5 14c0 8 -2.33301 20 -7 36l-38 139l154 46l38 -139c7.33301 -25.333 11 -52.666 11 -81.999c0 -42.667 -10.167 -80.667 -30.5 -114s-49.5 -58.666 -87.5 -75.999
c-22 -10 -45 -17 -69 -21s-54.5 -6.66699 -91.5 -8s-94.167 -2 -171.5 -2v180c98.667 0 164.5 1.16699 197.5 3.5zM331.001 1.99805c-38 1.33301 -69 4.16602 -93 8.49902s-47 11.166 -69 20.499c-38 16.667 -67.333 41.667 -88 75s-31 71.333 -31 114
c0 24.667 3.33301 49 10 73l39 148l154 -46l-40 -156c-2 -8 -3 -14.333 -3 -19c0 -5.33301 1.66699 -9.66602 5 -12.999s9.33301 -7.33301 18 -12c13.333 -5.33301 37 -9.16602 71 -11.499s100 -3.5 198 -3.5v-180c-76 0 -133 0.666992 -171 2zM435.001 -310.002l76 75
l75 -75l-75 -76zM308.001 -151.002l94 95l95 -95l-95 -94zM524.001 -151.002l94 95l95 -95l-95 -94z" />
    <glyph glyph-name="uni0686" unicode="&#x686;" horiz-adv-x="747" 
d="M697 -273l-258.999 -71.999c-26.667 -6.66699 -54 -10 -82 -10c-45.333 0 -88.166 9.16699 -128.499 27.5s-74.833 44.5 -103.5 78.5s-49.334 74 -62.001 120c-8 30 -12 59.333 -12 88c0 47.333 10.667 91.833 32 133.5s51.833 77.5 91.5 107.5s86.5 52.333 140.5 67
l169 42l-126 59c-13.333 6 -26.333 9 -39 9c-14 0 -27.167 -3.33301 -39.5 -10s-22.5 -16.334 -30.5 -29.001l-17 -31l-140 88l20 36c24.667 41.333 54.667 72.833 90 94.5s73.333 32.5 114 32.5c41.333 0 81.333 -10.667 120 -32l251 -141l-22 -207l-308 -85
c-96.667 -26 -145 -71.333 -145 -136c0 -12 1.33301 -23.333 4 -34c7.33301 -29.333 24.166 -53 50.499 -71s56.5 -27 90.5 -27c15.333 0 31 2 47 6l252 70zM520.001 -26.999l-95 50l50 94l94 -50zM305.001 65.001l94 -50l-50 -95l-95 51zM463.001 -145.999l-95 50l51 94
l93 -50z" />
    <glyph glyph-name="uni0698" unicode="&#x698;" horiz-adv-x="405" 
d="M114.5 -47c23 8 39.332 16.833 48.999 26.5s14.5 22.5 14.5 38.5c0 3.33301 -0.666992 10.333 -2 21l-40 287l158 24l40 -290c2.66699 -16.667 4 -34.667 4 -54c0 -47.333 -10.667 -86.833 -32 -118.5s-53.166 -58.5 -95.499 -80.5s-98.5 -42.667 -168.5 -62l-42 174
c53.333 14.667 91.5 26 114.5 34zM126.999 664l76 75l75 -75l-75 -76zM-0.000976562 503l94 95l95 -95l-95 -94zM215.999 503l94 95l95 -95l-95 -94z" />
    <glyph glyph-name="uni06A1" unicode="&#x6a1;" horiz-adv-x="1011" 
d="M961 195c0 -65.333 -21.999 -114.17 -65.999 -146.503s-116.667 -48.5 -218 -48.5h-180c-106.667 0 -180.334 1.83301 -221.001 5.5s-76.334 12.167 -107.001 25.5c-38 16.667 -67.333 41.667 -88 75s-31 71.333 -31 114c0 24.667 3.33301 49 10 73l39 148l154 -46
l-40 -156c-2 -8 -3 -14.333 -3 -19c0 -5.33301 1.66699 -9.66602 5 -12.999s9.33301 -7.33301 18 -12c13.333 -5.33301 37 -9.16602 71 -11.499s100 -3.5 198 -3.5h177c42.667 0 72.167 0.666992 88.5 2s27.166 4.33301 32.499 9s7.33301 13.334 6 26.001
c-29.333 -1.33301 -57.333 -2 -84 -2c-58.667 0 -105.5 16.5 -140.5 49.5s-52.5 78.833 -52.5 137.5c0 72 17.833 130.833 53.5 176.5s86.834 68.5 153.501 68.5c38.667 0 73.5 -9.66699 104.5 -29s55.833 -46.5 74.5 -81.5s29.334 -75.167 32.001 -120.5l13 -198
c0.666992 -5.33301 1 -13 1 -23zM722.001 380.996c22.667 0 46.667 0.666992 72 2l-2 20c-6 54.667 -27.333 82 -64 82c-16 0 -29 -5.83301 -39 -17.5s-15 -26.5 -15 -44.5c0 -28 16 -42 48 -42z" />
    <glyph glyph-name="uni06A4" unicode="&#x6a4;" horiz-adv-x="1011" 
d="M961 195c0 -65.333 -21.999 -114.17 -65.999 -146.503s-116.667 -48.5 -218 -48.5h-180c-106.667 0 -180.334 1.83301 -221.001 5.5s-76.334 12.167 -107.001 25.5c-38 16.667 -67.333 41.667 -88 75s-31 71.333 -31 114c0 24.667 3.33301 49 10 73l39 148l154 -46
l-40 -156c-2 -8 -3 -14.333 -3 -19c0 -5.33301 1.66699 -9.66602 5 -12.999s9.33301 -7.33301 18 -12c13.333 -5.33301 37 -9.16602 71 -11.499s100 -3.5 198 -3.5h177c42.667 0 72.167 0.666992 88.5 2s27.166 4.33301 32.499 9s7.33301 13.334 6 26.001
c-29.333 -1.33301 -57.333 -2 -84 -2c-58.667 0 -105.5 16.5 -140.5 49.5s-52.5 78.833 -52.5 137.5c0 72 17.833 130.833 53.5 176.5s86.834 68.5 153.501 68.5c38.667 0 73.5 -9.66699 104.5 -29s55.833 -46.5 74.5 -81.5s29.334 -75.167 32.001 -120.5l13 -198
c0.666992 -5.33301 1 -13 1 -23zM722.001 380.996c22.667 0 46.667 0.666992 72 2l-2 20c-6 54.667 -27.333 82 -64 82c-16 0 -29 -5.83301 -39 -17.5s-15 -26.5 -15 -44.5c0 -28 16 -42 48 -42zM664.001 939.996l76 75l75 -75l-75 -76zM537.001 778.996l94 95l95 -95
l-95 -94zM753.001 778.996l94 95l95 -95l-95 -94z" />
    <glyph glyph-name="uni06A9" unicode="&#x6a9;" horiz-adv-x="1001" 
d="M862 318c34 -52 51.001 -102.333 51.001 -151c0 -36 -9.66699 -67.667 -29 -95c-16 -22.667 -37.667 -40.334 -65 -53.001s-59.666 -19 -96.999 -19h-225c-106.667 0 -180.334 1.83301 -221.001 5.5s-76.334 12.167 -107.001 25.5c-38 16.667 -67.333 41.667 -88 75
s-31 71.333 -31 114c0 24.667 3.33301 49 10 73l39 148l154 -46l-40 -156c-2 -8 -3 -14.333 -3 -19c0 -5.33301 1.66699 -9.66602 5 -12.999s9.33301 -7.33301 18 -12c13.333 -5.33301 37 -9.16602 71 -11.499s100 -3.5 198 -3.5h222c10 0 16.667 1.66699 20 5
c2.66699 2.66699 4 5.66699 4 9c0 5.33301 -2.33301 10.666 -7 15.999l-219 310l36 136l362 133l56 -168l-254 -93z" />
    <glyph glyph-name="uni06AF" unicode="&#x6af;" horiz-adv-x="1001" 
d="M862 318c34 -52 51.001 -102.333 51.001 -151c0 -36 -9.66699 -67.667 -29 -95c-16 -22.667 -37.667 -40.334 -65 -53.001s-59.666 -19 -96.999 -19h-225c-106.667 0 -180.334 1.83301 -221.001 5.5s-76.334 12.167 -107.001 25.5c-38 16.667 -67.333 41.667 -88 75
s-31 71.333 -31 114c0 24.667 3.33301 49 10 73l39 148l154 -46l-40 -156c-2 -8 -3 -14.333 -3 -19c0 -5.33301 1.66699 -9.66602 5 -12.999s9.33301 -7.33301 18 -12c13.333 -5.33301 37 -9.16602 71 -11.499s100 -3.5 198 -3.5h222c10 0 16.667 1.66699 20 5
c2.66699 2.66699 4 5.66699 4 9c0 5.33301 -2.33301 10.666 -7 15.999l-219 310l36 136l362 133l56 -168l-254 -93zM792.001 884l24 -66l-244 -88l-24 66z" />
    <glyph glyph-name="uni06BA" unicode="&#x6ba;" horiz-adv-x="757" 
d="M336 -247c-58 0 -108.668 13.333 -152.001 40s-76.5 64.167 -99.5 112.5s-34.5 104.5 -34.5 168.5c0 66.667 13.333 138.667 40 216l152 -60c-21.333 -61.333 -32 -114.666 -32 -159.999c0 -44.667 10.5 -78.834 31.5 -102.501s51.833 -35.5 92.5 -35.5
c16.667 0 37.334 2.66699 62.001 8c44 10 76 18.333 96 25s34.167 14.5 42.5 23.5s12.5 21.167 12.5 36.5c0 4.66699 -0.666992 13 -2 25l-41 275l158 26l41 -276c2.66699 -18 4 -37 4 -57c0 -70 -21.833 -124.333 -65.5 -163s-113.5 -69 -209.5 -91
c-31.333 -7.33301 -63.333 -11 -96 -11z" />
    <glyph glyph-name="uni06C0" unicode="&#x6c0;" horiz-adv-x="526" 
d="M452 337c16.667 -34.667 25.001 -73.667 25.001 -117c0 -40 -9.5 -77.167 -28.5 -111.5s-44.833 -61.5 -77.5 -81.5s-68.334 -30 -107.001 -30s-74.334 10 -107.001 30s-58.667 47.167 -78 81.5s-29 71.5 -29 111.5c0 34 7.83301 68 23.5 102s37.5 65 65.5 93l2 2l-21 20
l111 131l141 -129c36.667 -33.333 63.334 -67.333 80.001 -102zM305.501 185.5c10.333 9 15.501 20.498 15.501 34.498c0 12.667 -3.5 24.834 -10.5 36.501s-22.167 27.834 -45.5 48.501l-3 3l-3 -3c-21.333 -21.333 -35.5 -37.833 -42.5 -49.5s-10.5 -23.5 -10.5 -35.5
c0 -14 5.33301 -25.5 16 -34.5s24.667 -13.5 42 -13.5s31.166 4.5 41.499 13.5zM302.002 683.998l-54.9971 9.00391c-34 5.33301 -58.667 13.666 -74 24.999s-23 27.666 -23 48.999c0 16 4.66699 36.333 14 61c11.333 29.333 27.166 51.833 47.499 67.5
s43.833 23.5 70.5 23.5c14 0 29.667 -2.66699 47 -8l38 -12l-24 -86l-38 12c-10 3.33301 -18.667 5 -26 5c-22 0 -37 -12 -45 -36c-1.33301 -4 0 -7 4 -9s13 -4.33301 27 -7c29.333 -6 51.666 -12 66.999 -18s26.666 -14.833 33.999 -26.5s11 -27.834 11 -48.501
c0 -26.667 -6.33301 -46.334 -19 -59.001s-32.667 -21.5 -60 -26.5s-70.333 -9.16699 -129 -12.5l-8 90c19.333 2 66.333 4.33301 141 7z" />
    <glyph glyph-name="uni06CC" unicode="&#x6cc;" horiz-adv-x="762" 
d="M336 -247c-58 0 -108.666 13.3311 -151.999 39.998s-76.5 64.167 -99.5 112.5s-34.5 104.5 -34.5 168.5c0 66.667 13.333 138.667 40 216l152 -60c-21.333 -61.333 -32 -114.666 -32 -159.999c0 -44.667 10.5 -78.834 31.5 -102.501s51.833 -35.5 92.5 -35.5
c16.667 0 37.334 2.66699 62.001 8c23.333 5.33301 47.166 10.5 71.499 15.5l50.5 10.5l31 7c-2 0.666992 -14 3.33398 -36 8.00098s-45.667 11.667 -71 21c-48 17.333 -83.833 38.666 -107.5 63.999s-35.5 58.333 -35.5 99c0 26 5 56 15 90
c20 64.667 52.167 116.334 96.5 155.001s94.833 58 151.5 58c21.333 0 43 -3 65 -9l65 -18l-42 -174l-65 18c-8.66699 2.66699 -17.667 4 -27 4c-26.667 0 -47.334 -9.66699 -62.001 -29s-24.334 -37.333 -29.001 -54l-2 -12c0 -5.33301 3.5 -10.166 10.5 -14.499
s21.167 -9.83301 42.5 -16.5l29 -9c39.333 -12 68.333 -22.333 87 -31s34.334 -20.667 47.001 -36s22 -37 28 -65c2 -12 3 -23.333 3 -34c0 -53.333 -24.5 -99 -73.5 -137s-117.833 -67 -206.5 -87c-31.333 -7.33301 -63.333 -11 -96 -11z" />
    <glyph glyph-name="uni06F0" unicode="&#x6f0;" horiz-adv-x="594" 
d="M486 123c-18.667 -33.333 -43.834 -59.833 -75.501 -79.5s-66.167 -29.5 -103.5 -29.5s-71.833 9.83301 -103.5 29.5s-56.834 46.167 -75.501 79.5s-28 69.333 -28 108s9.33301 74.667 28 108s43.834 59.833 75.501 79.5s66.167 29.5 103.5 29.5
s71.833 -9.83301 103.5 -29.5s56.834 -46.167 75.501 -79.5s28 -69.333 28 -108s-9.33301 -74.667 -28 -108zM347 265c-11.333 9.33301 -24.666 14 -39.999 14s-28.666 -4.66699 -39.999 -14s-17 -20.666 -17 -33.999c0 -14 5.66699 -25.5 17 -34.5
s24.666 -13.5 39.999 -13.5s28.666 4.5 39.999 13.5s17 20.5 17 34.5c0 13.333 -5.66699 24.666 -17 33.999z" />
    <glyph glyph-name="uni06F1" unicode="&#x6f1;" horiz-adv-x="394" 
d="M260 664l64 -655l-160 -18l-64 655z" />
    <glyph glyph-name="uni06F2" unicode="&#x6f2;" horiz-adv-x="643" 
d="M563 481c0 -35.333 -9.16504 -68.165 -27.498 -98.498s-42.833 -54.666 -73.5 -72.999s-64 -27.5 -100 -27.5h-19c-16 0 -31.333 2 -46 6l27 -275l-160 -18l-64 656l160 18l17 -177c2.66699 -12.667 6.66699 -20.834 12 -24.501s14.666 -5.5 27.999 -5.5h45
c14.667 0 25.167 1.66699 31.5 5s9.16602 9.66602 8.49902 18.999l-17 165l160 18l17 -168c0.666992 -4.66699 1 -11.334 1 -20.001z" />
    <glyph glyph-name="uni06F3" unicode="&#x6f3;" horiz-adv-x="874" 
d="M794 475c0 -35.333 -9.33203 -68.166 -27.999 -98.499s-43.334 -54.333 -74.001 -72s-63.667 -26.5 -99 -26.5h-11c-43.333 0 -82.666 14.333 -117.999 43c-36 -28.667 -76.667 -43 -122 -43h-18c-6.66699 0 -15.334 0.666992 -26.001 2l26 -271l-160 -18l-64 655l160 18
l16 -165c3.33301 -27.333 17 -41 41 -41h25c11.333 0 21 2.33301 29 7s11.667 11 11 19v1l-14 138l160 18l14 -147c2 -24 15.333 -36 40 -36h11c11.333 0 21 2.66699 29 8s11.667 11.666 11 18.999l-16 161l160 18l16 -171c0.666992 -4 1 -10 1 -18z" />
    <glyph glyph-name="uni06F4" unicode="&#x6f4;" horiz-adv-x="773" 
d="M688 458l0.00195312 -180h-372c-8.66699 0 -15 0.333008 -19 1l26 -270l-160 -18l-46 482c-0.666992 1.33301 -1 3.66602 -1 6.99902l-16 167l160 18l17 -176c1.33301 -10 3.66602 -17.167 6.99902 -21.5s8 -7.16602 14 -8.49902c-3.33301 18 -5 34.667 -5 50
c0 42 10.167 80.667 30.5 116s47.833 63.333 82.5 84s72.334 31 113.001 31c26 0 56.667 -6.83301 92 -20.5s62.666 -25.5 81.999 -35.5l-71 -160l-56 20.5c-19.333 7 -35 12.167 -47 15.5c-3.33301 1.33301 -8.33301 2 -15 2c-14.667 0 -26.834 -5.5 -36.501 -16.5
s-14.5 -23.167 -14.5 -36.5c0 -14 4.16699 -26 12.5 -36s18.5 -15 30.5 -15h192z" />
    <glyph glyph-name="uni06F5" unicode="&#x6f5;" horiz-adv-x="828" 
d="M646 503c41.333 -52 68.667 -97.832 82 -137.499s20 -92.834 20 -159.501c0 -37.333 -8.66699 -71.833 -26 -103.5s-41 -56.667 -71 -75s-63 -27.5 -99 -27.5h-11c-44 -0 -83 13.333 -117 40c-34 -26.667 -73 -40 -117 -40h-11c-36 0 -69 9.16699 -99 27.5
s-53.667 43.333 -71 75s-26 66.167 -26 103.5c0 60 4.5 107.667 13.5 143s27.5 72.833 55.5 112.5s75.333 96.5 142 170.5l-17 19l118 120c114.667 -126.667 192.667 -216 234 -268zM578.501 187.501c6.33301 5 9.50195 11.168 9.50195 18.501c0 38 -3.16699 68 -9.5 90
s-20.333 47.667 -42 77s-59.167 74 -112.5 134c-56 -62 -94.333 -106.667 -115 -134s-34 -51.833 -40 -73.5s-9 -52.834 -9 -93.501c0 -7.33301 3.16699 -13.5 9.5 -18.5s15.166 -7.5 26.499 -7.5h11c10.667 0 19.5 2.66699 26.5 8s10.5 11.333 10.5 18v61h160v-53
c2 -22.667 14.333 -34 37 -34h11c11.333 0 20.166 2.5 26.499 7.5z" />
    <glyph glyph-name="uni06F6" unicode="&#x6f6;" horiz-adv-x="682" 
d="M505 344l-11.001 -15.001l-256 -379l-132 100l140 208c-17.333 7.33301 -31.666 14.666 -42.999 21.999c-32.667 20.667 -58 48.5 -76 83.5s-27 72.167 -27 111.5c0 48 13 91.333 39 130c8.66699 12.667 26.5 29.834 53.5 51.501s57.167 43.834 90.5 66.501l80 -156
c-54 -31.333 -84.667 -52.333 -92 -63c-8 -12 -12 -22.667 -12 -32c0 -12.667 8.33301 -25 25 -37c10 -8 22.667 -12 38 -12c10.667 0 20.667 2 30 6s16.333 9.66699 21 17l97 143l132 -100l-98 -145h1z" />
    <glyph glyph-name="uni06F7" unicode="&#x6f7;" horiz-adv-x="755" 
d="M452 -8h-150l-222 612l150 60l147 -408l148 408l150 -60z" />
    <glyph glyph-name="uni06F8" unicode="&#x6f8;" horiz-adv-x="755" 
d="M303 661h150l222 -616l-150 -60l-147 408l-148 -408l-150 60z" />
    <glyph glyph-name="uni06F9" unicode="&#x6f9;" horiz-adv-x="678" 
d="M438 -8l-25.001 227.999h-89c-41.333 0 -79 10.167 -113 30.5s-61 47.833 -81 82.5s-30 73 -30 115s10 80.833 30 116.5s47.167 63.834 81.5 84.501s71.833 31 112.5 31c38.667 0 74.167 -9.66699 106.5 -29s58.833 -45.833 79.5 -79.5s33.334 -71.5 38.001 -113.5
l50 -448zM392.999 393.999l-5 46.001c-2 18.667 -8.83301 34 -20.5 46s-26.167 18 -43.5 18c-18.667 0 -34 -5.5 -46 -16.5s-18 -24.167 -18 -39.5c0 -14.667 6.16699 -27.334 18.5 -38.001s27.5 -16 45.5 -16h69z" />
    <glyph glyph-name="uni2009" unicode="&#x2009;" horiz-adv-x="150" 
 />
    <glyph glyph-name="uni200A" unicode="&#x200a;" horiz-adv-x="75" 
 />
    <glyph glyph-name="uni200B" unicode="&#x200b;" 
 />
    <glyph glyph-name="uni200C" unicode="&#x200c;" 
 />
    <glyph glyph-name="uni200D" unicode="&#x200d;" 
 />
    <glyph glyph-name="quoteleft" unicode="&#x2018;" horiz-adv-x="233" 
d="M87 811h122l-17 -271h-168z" />
    <glyph glyph-name="quoteright" unicode="&#x2019;" horiz-adv-x="233" 
d="M209 812l-63 -271h-122l17 271h168z" />
    <glyph glyph-name="quotedblleft" unicode="&#x201c;" horiz-adv-x="466" 
d="M87 811h122l-17 -271h-168zM320 811h122l-17 -271h-168z" />
    <glyph glyph-name="quotedblright" unicode="&#x201d;" horiz-adv-x="466" 
d="M209 812l-63 -271h-122l17 271h168zM442 812l-63 -271h-122l17 271h168z" />
    <glyph glyph-name="quotedblbase" unicode="&#x201e;" horiz-adv-x="466" 
d="M209 160l-63 -271h-122l17 271h168zM442 160l-63 -271h-122l17 271h168z" />
    <glyph glyph-name="guilsinglleft" unicode="&#x2039;" horiz-adv-x="279" 
d="M190.5 348c-9 -20.667 -13.501 -42.666 -13.501 -65.999c0 -45.333 16 -84.666 48 -117.999l-100 -98c-28 29.333 -49.667 62.666 -65 99.999s-23 76 -23 116c0 41.333 8.33301 81.666 25 120.999s40.334 73.333 71.001 102l96 -102c-16.667 -16 -29.5 -34.333 -38.5 -55
z" />
    <glyph glyph-name="guilsinglright" unicode="&#x203a;" horiz-adv-x="279" 
d="M217 403c16.667 -39.333 24.999 -79.667 24.999 -121c0 -40 -7.66699 -78.667 -23 -116s-37 -70.666 -65 -99.999l-100 98c32 33.333 48 72.666 48 117.999c0 23.333 -4.5 45.333 -13.5 66s-21.833 39 -38.5 55l96 102c30.667 -28.667 54.334 -62.667 71.001 -102z" />
    <glyph glyph-name="minus" unicode="&#x2212;" horiz-adv-x="439" 
d="M419 233h-399v138h399v-138z" />
    <glyph glyph-name="notequal" unicode="&#x2260;" horiz-adv-x="439" 
d="M296 334l-22 -63h145v-138h-195l-28 -76h-134l28 76h-70v138h120l22 63h-142v138h193l30 84h134l-30 -84h72v-138h-123z" />
    <glyph glyph-name="dotabove-ar" unicode="&#xfbb2;" 
d="M0 447l107 107l107 -107l-107 -107z" />
    <glyph glyph-name="dotbelow-ar" unicode="&#xfbb3;" 
d="M0 -156l107 107l107 -107l-107 -107z" />
    <glyph glyph-name="twodotshorizontalabove-ar" unicode="&#xfbb4;" 
d="M0 553l94 95l95 -95l-95 -94zM217 553l94 95l95 -95l-95 -94z" />
    <glyph glyph-name="twodotshorizontalbelow-ar" unicode="&#xfbb5;" 
d="M0 -139l94 95l95 -95l-95 -94zM217 -139l94 95l95 -95l-95 -94z" />
    <glyph glyph-name="threedotsupabove-ar" unicode="&#xfbb6;" 
d="M127 714l76 75l75 -75l-75 -76zM0 553l94 95l95 -95l-95 -94zM216 553l94 95l95 -95l-95 -94z" />
    <glyph glyph-name="threedotsdownbelow-ar" unicode="&#xfbb9;" 
d="M127 -318l76 75l75 -75l-75 -76zM0 -159l94 95l95 -95l-95 -94zM216 -159l94 95l95 -95l-95 -94z" />
    <glyph glyph-name="uniFD3E" unicode="&#xfd3e;" horiz-adv-x="418" 
d="M102.5 -24c-35 86.667 -52.501 176.334 -52.501 269.001c0 94 17.833 184.667 53.5 272s85.834 163.666 150.501 228.999l114 -128c-52 -51.333 -91.333 -108.5 -118 -171.5s-40 -130.167 -40 -201.5c0 -69.333 13 -135.5 39 -198.5s64 -119.833 114 -170.5l-114 -126
c-62.667 64 -111.5 139.333 -146.5 226z" />
    <glyph glyph-name="uniFD3F" unicode="&#xfd3f;" horiz-adv-x="418" 
d="M169 46.5c26 63 38.999 129.167 38.999 198.5c0 71.333 -13.333 138.5 -40 201.5s-66 120.167 -118 171.5l114 128c64.667 -65.333 114.834 -141.666 150.501 -228.999s53.5 -178 53.5 -272c0 -92.667 -17.5 -182.334 -52.5 -269.001s-83.833 -162 -146.5 -226l-114 126
c50 50.667 88 107.5 114 170.5z" />
    <glyph glyph-name="uniFEFF" unicode="&#xfeff;" 
 />
    <glyph glyph-name=".null" 
 />
    <glyph glyph-name="b.bowl" horiz-adv-x="335" 
d="M42.5 42.5c-28.333 35 -42.5 80.501 -42.5 136.501v161c0 56 14 101.5 42 136.5s66 52.5 114 52.5c119.333 0 179 -63 179 -189v-161c0 -58.667 -14.167 -104.834 -42.5 -138.501s-73.5 -50.5 -135.5 -50.5c-48 0 -86.167 17.5 -114.5 52.5zM141.5 139.001
c9 10 13.5 23.333 13.5 40v161c0 16 -4.5 29.333 -13.5 40s-20.5 16 -34.5 16c-15.333 0 -27 -5.16699 -35 -15.5s-12 -23.833 -12 -40.5v-161c0 -17.333 4 -30.833 12 -40.5s19.667 -14.5 35 -14.5c14 0 25.5 5 34.5 15z" />
    <glyph glyph-name="d.bowl" horiz-adv-x="335" 
d="M292.5 476.5c28.333 -35 42.5 -80.501 42.5 -136.501v-161c0 -56 -14 -101.5 -42 -136.5s-66 -52.5 -114 -52.5c-119.333 0 -179 63 -179 189v161c0 58.667 14.167 104.834 42.5 138.501s73.5 50.5 135.5 50.5c48 0 86.167 -17.5 114.5 -52.5zM193.5 379.999
c-9 -10 -13.5 -23.333 -13.5 -40v-161c0 -16 4.5 -29.333 13.5 -40s20.5 -16 34.5 -16c15.333 0 27 5.16699 35 15.5s12 23.833 12 40.5v161c0 17.333 -4 30.833 -12 40.5s-19.667 14.5 -35 14.5c-14 0 -25.5 -5 -34.5 -15z" />
    <glyph glyph-name="n.curve" horiz-adv-x="335" 
d="M141.5 380c-9 10.667 -20.5 16 -34.5 16c-15.333 0 -27 -5.16699 -35 -15.5s-12 -23.833 -12 -40.5v-61h-60v61c0 56 14 101.5 42 136.5s66 52.5 114 52.5c119.333 0 179 -63 179 -189v-340h-180v340c0 16 -4.5 29.333 -13.5 40z" />
    <glyph glyph-name="uni0627.001" horiz-adv-x="187" 
d="M160 714l18 -477l-157 -75l-21 544z" />
    <glyph glyph-name="uni0627.002" horiz-adv-x="333" 
d="M240 615l23 -613l-160 -7l-23 612z" />
    <glyph glyph-name="uniFE8E.001" horiz-adv-x="291" 
d="M163 24.5c-30.667 16.333 -53.499 42.333 -68.499 78s-23.833 83.5 -26.5 143.5l-14 361l160 8l14 -369c1.33301 -26 2.83301 -42.5 4.5 -49.5s5.66699 -11.5 12 -13.5s20.166 -3 41.499 -3h10v-180h-10c-51.333 0 -92.333 8.16699 -123 24.5z" />
    <glyph glyph-name="uniFE8E.002" horiz-adv-x="343" 
d="M207 673l85 -421l-157 -32l-85 421zM348 180v-180h-240v180h240z" />
    <glyph glyph-name="uni066E.001" horiz-adv-x="500" 
d="M197.5 183.5c33 2.33301 56.501 6.49805 70.501 12.498c9.33301 4 15.666 7.66699 18.999 11s5 8 5 14c0 8 -2.33301 20 -7 36l-38 139l154 46l38 -139c7.33301 -25.333 11 -52.666 11 -81.999c0 -42.667 -10.167 -80.667 -30.5 -114s-49.5 -58.666 -87.5 -75.999
c-22 -10 -45 -17 -69 -21s-54.5 -6.66699 -91.5 -8s-94.167 -2 -171.5 -2v180c98.667 0 164.5 1.16699 197.5 3.5z" />
    <glyph glyph-name="uni066E.fina.001" horiz-adv-x="502" 
d="M331 2c-38 1.33301 -69 4.16602 -93 8.49902s-47 11.166 -69 20.499c-38 16.667 -67.333 41.667 -88 75s-31 71.333 -31 114c0 24.667 3.33301 49 10 73l39 148l154 -46l-40 -156c-2 -8 -3 -14.333 -3 -19c0 -5.33301 1.66699 -9.66602 5 -12.999
s9.33301 -7.33301 18 -12c13.333 -5.33301 37 -9.16602 71 -11.499s100 -3.5 198 -3.5v-180c-76 0 -133 0.666992 -171 2z" />
    <glyph glyph-name="uni066E.fina.001.003" horiz-adv-x="504" 
d="M107 57c-38 35.333 -57.001 81.999 -57.001 139.999c0 10.667 0.333008 18.667 1 24l11 123l160 -16l-11 -123c-1.33301 -9.33301 0.833984 -15.666 6.50098 -18.999s19.5 -5.33301 41.5 -6h245v-180h-245c-63.333 2.66699 -114 21.667 -152 57z" />
    <glyph glyph-name="uni066E.fina.002" horiz-adv-x="492" 
d="M497 0c-51.333 0 -93.667 12 -127 36c-35.333 -24 -78.333 -36 -129 -36h-241v180h241c20.667 0 34 1.5 40 4.5s8.66699 8.83301 8 17.5v3l-11 123l160 16l11 -123v-3c1.33301 -12 3 -20.5 5 -25.5s6.16699 -8.33301 12.5 -10s16.5 -2.5 30.5 -2.5v-180z" />
    <glyph glyph-name="uni066E.medi.001" horiz-adv-x="438" 
d="M443 0c-51.333 0 -93.666 11.999 -126.999 35.999c-35.333 -24 -78.333 -36 -129 -36h-192v180h192c21.333 0 35 1.66699 41 5s8.33301 10 7 20l-11 123l160 16l11 -123c0 -3.33301 0.333008 -6 1 -8c1.33301 -10.667 3.16602 -18.167 5.49902 -22.5
s6.33301 -7.16602 12 -8.49902s15.5 -2 29.5 -2v-180z" />
    <glyph glyph-name="uni066E.init.001" horiz-adv-x="430" 
d="M152 180c24 0 40.999 2.66699 50.999 8s15 14.333 15 27c0 6.66699 -1.66699 17.334 -5 32.001l-39 149l154 46l42 -158c6.66699 -24.667 10 -49.334 10 -74.001c0 -40.667 -9.5 -77 -28.5 -109s-45.667 -56.833 -80 -74.5s-74.166 -26.5 -119.499 -26.5h-157v180h157z
" />
    <glyph glyph-name="uni066E.init.002" horiz-adv-x="351" 
d="M290 293c7.33301 -25.333 10.999 -52.334 10.999 -81.001c0 -41.333 -9.16699 -78 -27.5 -110s-44.666 -57 -78.999 -75s-74.5 -27 -120.5 -27h-79v180h79c24.667 0 42 2.5 52 7.5s15 14.167 15 27.5c0 6.66699 -1.66699 17.334 -5 32.001l-40 149l154 46z" />
    <glyph glyph-name="uniFE92.alt" horiz-adv-x="309" 
d="M314 0c-51.333 0 -93.667 12 -127 36c-35.333 -24 -78.333 -36 -129 -36h-63v180h63c20.667 0 34 1.5 40 4.5s8.66699 8.83301 8 17.5v3l-11 123l160 16l11 -123v-3c1.33301 -12 3 -20.5 5 -25.5s6.16699 -8.33301 12.5 -10s16.5 -2.5 30.5 -2.5v-180zM-35.001 -150
l107 107l107 -107l-107 -107z" />
    <glyph glyph-name="uniFE91.alt" horiz-adv-x="401" 
d="M351 212c0 -41.333 -9.16797 -78.001 -27.501 -110.001s-44.666 -57 -78.999 -75s-74.5 -27 -120.5 -27h-129v180h129c24.667 0 42 2.5 52 7.5s15 14.167 15 27.5c0 6.66699 -1.66699 17.334 -5 32.001l-40 149l154 46l40 -149c7.33301 -25.333 11 -52.333 11 -81z
M170.999 -44.001l107 -107l-107 -107l-107 107z" />
    <glyph glyph-name="uniFB59.alt" horiz-adv-x="438" 
d="M443 0c-51.333 0 -93.666 11.999 -126.999 35.999c-35.333 -24 -78.333 -36 -129 -36h-192v180h192c21.333 0 35 1.66699 41 5s8.33301 10 7 20l-11 123l160 16l11 -123c0 -3.33301 0.333008 -6 1 -8c1.33301 -10.667 3.16602 -18.167 5.49902 -22.5
s6.33301 -7.16602 12 -8.49902s15.5 -2 29.5 -2v-180zM42 -307.001l76 75l75 -75l-75 -76zM-85 -148.001l94 95l95 -95l-95 -94zM131 -148.001l94 95l95 -95l-95 -94z" />
    <glyph glyph-name="uniFB58.alt" horiz-adv-x="480" 
d="M-5 180h206.999c24 0 41 2.66699 51 8s15 14.333 15 27c0 6.66699 -1.66699 17.334 -5 32.001l-39 149l154 46l42 -158c6.66699 -24.667 10 -49.334 10 -74.001c0 -40.667 -9.5 -77 -28.5 -109s-45.667 -56.833 -80 -74.5s-74.166 -26.5 -119.499 -26.5h-207v180z
M190.999 -151l-95 -94l-94 94l94 95zM311.999 -56l95 -95l-95 -94l-94 94zM204.999 -235l75 -75l-75 -76l-76 76z" />
    <glyph glyph-name="uniFEA2.001" horiz-adv-x="747" 
d="M697 -273l-258.999 -71.999c-26.667 -6.66699 -54 -10 -82 -10c-45.333 0 -88.166 9.16699 -128.499 27.5s-74.833 44.5 -103.5 78.5s-49.334 74 -62.001 120c-8 30 -12 59.333 -12 88c0 47.333 10.667 91.833 32 133.5s51.833 77.5 91.5 107.5s86.5 52.333 140.5 67
l169 42l-126 59c-13.333 6 -26.333 9 -39 9c-14 0 -27.167 -3.33301 -39.5 -10s-22.5 -16.334 -30.5 -29.001l-17 -31l-140 88l20 36c24.667 41.333 54.667 72.833 90 94.5s73.333 32.5 114 32.5c41.333 0 81.333 -10.667 120 -32l251 -141l-22 -207l-308 -85
c-96.667 -26 -145 -71.333 -145 -136c0 -12 1.33301 -23.333 4 -34c7.33301 -29.333 24.166 -53 50.499 -71s56.5 -27 90.5 -27c15.333 0 31 2 47 6l252 70z" />
    <glyph glyph-name="uniFEA2.002" horiz-adv-x="266" 
d="M111 34c-34.667 22.667 -61.832 53.333 -81.499 92s-29.5 81 -29.5 127h160c0 -21.333 5.66699 -38.833 17 -52.5s28.666 -20.5 51.999 -20.5h37v-180h-37c-44 -0 -83.333 11.333 -118 34z" />
    <glyph glyph-name="uniFEAE.001" horiz-adv-x="199" 
d="M101.5 28.5c-25.667 19 -46.501 49.6689 -62.501 92.002s-29 100.166 -39 173.499l150 24c6 -42.667 11.333 -73.834 16 -93.501s9.33398 -32 14.001 -37s11 -7.5 19 -7.5h5v-180h-5c-39.333 0 -71.833 9.5 -97.5 28.5z" />
    <glyph glyph-name="uniFEBC.001" horiz-adv-x="13" 
d="M-85.5 19.5c-29 13 -53.834 28.833 -74.501 47.5l108 132c14.667 -12.667 33.334 -19 56.001 -19h14v-180h-14c-30.667 0 -60.5 6.5 -89.5 19.5z" />
    <glyph glyph-name="uniFEBC.002" horiz-adv-x="233" 
d="M222 194c0 -6 0.832031 -9.83398 2.49902 -11.501s4.5 -2.5 8.5 -2.5v-180c-40 0 -74.333 12.333 -103 37c-35.333 -23.333 -78.666 -35.666 -129.999 -36.999h-5v180h5c21.333 0 36.833 2.5 46.5 7.5s15.167 15.833 16.5 32.5l11 124l160 -16l-11 -122z" />
    <glyph glyph-name="uniFEBC.003" horiz-adv-x="597" 
d="M437 435c34 -21.333 60.8311 -50.3311 80.498 -86.998s29.5 -77.334 29.5 -122.001c0 -40 -10.167 -77.333 -30.5 -112s-47.666 -62.334 -81.999 -83.001s-71.166 -31 -110.499 -31h-325v125l-24 22l24 33l57 78c39.333 54 71.5 95 96.5 123s51.167 49.333 78.5 64
s58.333 22 93 22c41.333 0 79 -10.667 113 -32zM367.498 195.002c13 10 19.5 20.333 19.5 31c0 18.667 -5.66699 33.5 -17 44.5s-26.666 16.5 -45.999 16.5c-16.667 0 -32.834 -7 -48.501 -21s-39.167 -42.667 -70.5 -86h119c16 0 30.5 5 43.5 15z" />
    <glyph glyph-name="uniFEDC.001" horiz-adv-x="267" 
d="M111.5 58c-41.667 38.667 -78.835 93.001 -111.502 163.001l121 77c18 -32.667 33.833 -57.334 47.5 -74.001s27.334 -28.167 41.001 -34.5s29.834 -9.5 48.501 -9.5h14v-180h-14c-56 -0 -104.833 19.333 -146.5 58z" />
    <glyph glyph-name="uniFEDE.001" horiz-adv-x="221" 
d="M60.5 59.5c-37 39.667 -57.167 91.5 -60.5 155.5l158 9c0.666992 -17.333 4.5 -29 11.5 -35s19.167 -9 36.5 -9h20v-180h-20c-60 -0 -108.5 19.833 -145.5 59.5z" />
    <glyph glyph-name="uniFEE0.001" horiz-adv-x="289" 
d="M294 180l0.000976562 -179.999h-20c-47.333 0 -89 13.667 -125 41c-36 -27.333 -79.667 -41 -131 -41h-23v180h23c20 0 33.167 2.16699 39.5 6.5s9.16602 12.166 8.49902 23.499l-19 496l160 8l19 -490c0.666992 -17.333 4.5 -29 11.5 -35s19.167 -9 36.5 -9h20z" />
    <glyph glyph-name="uniFEDF.001" horiz-adv-x="276" 
d="M18 180c20 0 33.168 2.16797 39.501 6.50098s9.16602 12.166 8.49902 23.499l-19 496l160 8l19 -496c2 -42 -5.5 -79.5 -22.5 -112.5s-41.5 -58.833 -73.5 -77.5s-69.333 -28 -112 -28h-23v180h23z" />
    <glyph glyph-name="uniFEE4.001" horiz-adv-x="188" 
d="M50 63.5c-33.333 42.333 -50 98.5 -50 168.5h136c0 -18 4.5 -31.167 13.5 -39.5s23.5 -12.5 43.5 -12.5v-180c-62 0 -109.667 21.167 -143 63.5z" />
    <glyph glyph-name="uniFB9F.001" horiz-adv-x="242" 
d="M83 83.5c-40 55.667 -67.333 136.167 -82 241.5l157 25c8 -55.333 14.5 -94.5 19.5 -117.5s10.5 -37.5 16.5 -43.5s14.667 -9 26 -9h27v-180h-21c-55.333 -0 -103 27.833 -143 83.5z" />
    <glyph glyph-name="uniFEF4.alt" horiz-adv-x="438" 
d="M443 0c-51.333 0 -93.666 11.999 -126.999 35.999c-35.333 -24 -78.333 -36 -129 -36h-192v180h192c21.333 0 35 1.66699 41 5s8.33301 10 7 20l-11 123l160 16l11 -123c0 -3.33301 0.333008 -6 1 -8c1.33301 -10.667 3.16602 -18.167 5.49902 -22.5
s6.33301 -7.16602 12 -8.49902s15.5 -2 29.5 -2v-180zM-95 -152.001l94 95l95 -95l-95 -94zM122 -152.001l94 95l95 -95l-95 -94z" />
    <glyph glyph-name="uniFEF3.alt" horiz-adv-x="480" 
d="M430 210c0 -40.667 -9.50098 -77 -28.501 -109s-45.667 -56.833 -80 -74.5s-74.166 -26.5 -119.499 -26.5h-207v180h207c24 0 41 2.66699 51 8s15 14.333 15 27c0 6.66699 -1.66699 17.334 -5 32.001l-39 149l154 46l42 -158c6.66699 -24.667 10 -49.334 10 -74.001z
M92.999 -55l95 -95l-95 -94l-94 94zM309.999 -55l95 -95l-95 -94l-94 94z" />
    <glyph glyph-name="uniFBFF.alt" horiz-adv-x="438" 
d="M443 0c-51.333 0 -93.666 11.999 -126.999 35.999c-35.333 -24 -78.333 -36 -129 -36h-192v180h192c21.333 0 35 1.66699 41 5s8.33301 10 7 20l-11 123l160 16l11 -123c0 -3.33301 0.333008 -6 1 -8c1.33301 -10.667 3.16602 -18.167 5.49902 -22.5
s6.33301 -7.16602 12 -8.49902s15.5 -2 29.5 -2v-180zM-95 -152.001l94 95l95 -95l-95 -94zM122 -152.001l94 95l95 -95l-95 -94z" />
    <glyph glyph-name="uniFBFE.alt" horiz-adv-x="480" 
d="M430 210c0 -40.667 -9.50098 -77 -28.501 -109s-45.667 -56.833 -80 -74.5s-74.166 -26.5 -119.499 -26.5h-207v180h207c24 0 41 2.66699 51 8s15 14.333 15 27c0 6.66699 -1.66699 17.334 -5 32.001l-39 149l154 46l42 -158c6.66699 -24.667 10 -49.334 10 -74.001z
M92.999 -55l95 -95l-95 -94l-94 94zM309.999 -55l95 -95l-95 -94l-94 94z" />
    <glyph glyph-name="uni0640.001" horiz-adv-x="160" 
d="M160 180v-180h-160v180h160z" />
    <glyph glyph-name="uni0640.002" horiz-adv-x="65" 
d="M70 180v-180h-70v180h70z" />
    <glyph glyph-name="uni0640.003" 
d="M2 180v-180h-4v180h4z" />
    <glyph glyph-name="uni0640.004" horiz-adv-x="50" 
d="M55 180v-180h-60v180h60z" />
    <glyph glyph-name="period.001" horiz-adv-x="367" 
d="M117 27.5c-18 18.333 -27 40.5 -27 66.5c0 25.333 9 47 27 65s40.333 27 67 27c25.333 0 47 -9 65 -27s27 -39.667 27 -65c0 -26 -9 -48.167 -27 -66.5s-39.667 -27.5 -65 -27.5c-26.667 0 -49 9.16699 -67 27.5z" />
    <glyph glyph-name="dotcenterar" 
d="M0 -28l107 107l107 -107l-107 -107z" />
    <glyph glyph-name="threedotsdownbelowar.002" 
d="M89 -256l76 75l75 -75l-75 -76zM0 -159l76 75l75 -75l-75 -76zM178 -159l76 75l75 -75l-75 -76z" />
    <glyph glyph-name="threedotsupabovear.001" 
d="M0 553l94 95l95 -95l-95 -94z" />
    <glyph glyph-name="threedotsupabovear.002" 
d="M0 714l76 75l75 -75l-75 -76z" />
    <glyph glyph-name="waslaar" 
d="M325 686.5c20.667 -22.333 31.001 -50.168 31.001 -83.501c0 -29.333 -10.833 -55 -32.5 -77s-46.834 -33 -75.501 -33h-138c-7.33301 0 -13.333 -2 -18 -6s-13 -13.667 -25 -29l-67 51c16.667 24 31.5 41.333 44.5 52s27.167 17.334 42.5 20.001l32 44
c16 21.333 29.167 38 39.5 50s23.166 22.5 38.499 31.5s32.333 13.5 51 13.5c30.667 0 56.334 -11.167 77.001 -33.5zM269.501 589.498c6.33301 4.33301 9.5 10.5 9.5 18.5s-3 14.333 -9 19s-13.333 7 -22 7c-9.33301 0 -18 -3 -26 -9s-18.667 -17.667 -32 -35l-5 -7h63
c8 0 15.167 2.16699 21.5 6.5z" />
    <glyph glyph-name="miniKehehar" 
d="M47 70c4 0 6 0.334961 6 1.00195c0 1.33301 -1.66699 3.66602 -5 6.99902l-42 42l14 58l98 33l22 -66l-45 -15l31 -33c11.333 -10.667 17 -24.334 17 -41.001c0 -14.667 -5 -27.667 -15 -39s-23 -17 -39 -17h-89v70h47z" />
    <glyph glyph-name="gafsarkashabovear" 
d="M244 654l24 -66l-244 -88l-24 66z" />
    <glyph glyph-name="uni0654064F" 
d="M194 536l-9.99902 -2.00098l-162 -38l-19 86l64 15c-4 6.66699 -7.66699 16.667 -11 30c-2.66699 8.66699 -4 18.667 -4 30c0 32.667 11.5 60.834 34.5 84.501s50.5 35.5 82.5 35.5c15.333 0 45.666 -4.66699 90.999 -14l-15 -86c-34 6 -59 9 -75 9
c-11.333 0 -20.833 -3 -28.5 -9s-11.5 -13.667 -11.5 -23c0 -3.33301 0.333008 -6 1 -8c2 -7.33301 7.16699 -13.333 15.5 -18s16.833 -6.66699 25.5 -6l116 28l19 -87zM278.001 889.999c-20.667 -22.667 -49 -38.333 -85 -47l-174 -42l-19 87l79 19l-12 47
c-2 9.33301 -3 18.333 -3 27c0 25.333 8 47.333 24 66s37.667 31.334 65 38.001c10 2.66699 20.667 4 32 4c34 0 63.167 -11.333 87.5 -34s36.5 -51.334 36.5 -86.001c0 -30 -10.333 -56.333 -31 -79zM223.001 970c0 10 -3 18.333 -9 25s-14.667 10 -26 10
c-3.33301 0 -8.33301 -0.666992 -15 -2c-16.667 -4 -25 -11.333 -25 -22c0 -4 0.333008 -7 1 -9l11 -46l13 3c33.333 8 50 21.667 50 41z" />
    <glyph glyph-name="uni0654064C" 
d="M250 536l-9.99902 -2.00098l-162 -38l-19 86l64 15c-4 6.66699 -7.66699 16.667 -11 30c-2.66699 8.66699 -4 18.667 -4 30c0 32.667 11.5 60.834 34.5 84.501s50.5 35.5 82.5 35.5c15.333 0 45.666 -4.66699 90.999 -14l-15 -86c-34 6 -59 9 -75 9
c-11.333 0 -20.833 -3 -28.5 -9s-11.5 -13.667 -11.5 -23c0 -3.33301 0.333008 -6 1 -8c2 -7.33301 7.16699 -13.333 15.5 -18s16.833 -6.66699 25.5 -6l116 28l19 -87zM391.001 894.999c-20.667 -22.667 -49 -38.334 -85 -47.001l-254 -61l-19 87h2
c17.333 4.66699 30 11.5 38 20.5s10.667 19.5 8 31.5c-1.33301 8.66699 -6 15.834 -14 21.501s-17.667 8.5 -29 8.5c-6.66699 0 -13.667 -1 -21 -3l-17 76c14 4.66699 28.667 7 44 7c29.333 0 55 -9.16699 77 -27.5s35.333 -42.166 40 -71.499
c2 -10.667 3 -21.334 3 -32.001l28 7l-12 47c-2 9.33301 -3 18.333 -3 27c0 25.333 8 47.333 24 66s37.667 31.334 65 38.001c10 2.66699 20.667 4 32 4c34 0 63.167 -11.333 87.5 -34s36.5 -51.334 36.5 -86.001c0 -30 -10.333 -56.333 -31 -79zM336.001 974.999
c0 10 -3 18.333 -9 25s-14.667 10 -26 10c-3.33301 0 -8.33301 -0.666992 -15 -2c-16.667 -4 -25 -11.333 -25 -22c0 -4 0.333008 -7 1 -9l11 -46l13 3c33.333 8 50 21.667 50 41z" />
    <glyph glyph-name="uni0654064E" 
d="M191 536l-9.99902 -2.00098l-162 -38l-19 86l64 15c-4 6.66699 -7.66699 16.667 -11 30c-2.66699 8.66699 -4 18.667 -4 30c0 32.667 11.5 60.834 34.5 84.501s50.5 35.5 82.5 35.5c15.333 0 45.666 -4.66699 90.999 -14l-15 -86c-34 6 -59 9 -75 9
c-11.333 0 -20.833 -3 -28.5 -9s-11.5 -13.667 -11.5 -23c0 -3.33301 0.333008 -6 1 -8c2 -7.33301 7.16699 -13.333 15.5 -18s16.833 -6.66699 25.5 -6l116 28l19 -87zM263.001 941.999l19 -87l-241 -58l-19 87z" />
    <glyph glyph-name="uni0654064B" 
d="M191 536l-9.99902 -2.00098l-162 -38l-19 86l64 15c-4 6.66699 -7.66699 16.667 -11 30c-2.66699 8.66699 -4 18.667 -4 30c0 32.667 11.5 60.834 34.5 84.501s50.5 35.5 82.5 35.5c15.333 0 45.666 -4.66699 90.999 -14l-15 -86c-34 6 -59 9 -75 9
c-11.333 0 -20.833 -3 -28.5 -9s-11.5 -13.667 -11.5 -23c0 -3.33301 0.333008 -6 1 -8c2 -7.33301 7.16699 -13.333 15.5 -18s16.833 -6.66699 25.5 -6l116 28l19 -87zM263.001 941.999l19 -87l-241 -58l-19 87zM263.001 1083l19 -87l-241 -58l-19 87z" />
    <glyph glyph-name="uni06540652" 
d="M191 536l-9.99902 -2.00098l-162 -38l-19 86l64 15c-4 6.66699 -7.66699 16.667 -11 30c-2.66699 8.66699 -4 18.667 -4 30c0 32.667 11.5 60.834 34.5 84.501s50.5 35.5 82.5 35.5c15.333 0 45.666 -4.66699 90.999 -14l-15 -86c-34 6 -59 9 -75 9
c-11.333 0 -20.833 -3 -28.5 -9s-11.5 -13.667 -11.5 -23c0 -3.33301 0.333008 -6 1 -8c2 -7.33301 7.16699 -13.333 15.5 -18s16.833 -6.66699 25.5 -6l116 28l19 -87zM83.501 822.999c-21 12.667 -37.666 29.667 -49.999 51s-18.5 44.666 -18.5 69.999
c0 24.667 6.16699 47.667 18.5 69s29 38.333 50 51s43.833 19 68.5 19c24 0 46.5 -6.33301 67.5 -19s37.667 -29.667 50 -51s18.5 -44.333 18.5 -69c0 -25.333 -6.16699 -48.666 -18.5 -69.999s-28.833 -38.333 -49.5 -51s-43.334 -19 -68.001 -19s-47.5 6.33301 -68.5 19z
M191.502 905.999c11 10.667 16.499 23.332 16.499 37.999s-5.5 27.167 -16.5 37.5s-24.167 15.5 -39.5 15.5s-28.666 -5.16699 -39.999 -15.5s-17 -22.833 -17 -37.5c0 -15.333 5.5 -28.166 16.5 -38.499s24.5 -15.5 40.5 -15.5c15.333 0 28.5 5.33301 39.5 16z" />
    <glyph glyph-name="uni06550650" 
d="M191 -400l-9.99902 -2.00098l-162 -38l-19 86l64 15c-4 6.66699 -7.66699 16.667 -11 30c-2.66699 8.66699 -4 18.667 -4 30c0 32.667 11.5 60.834 34.5 84.501s50.5 35.5 82.5 35.5c15.333 0 45.666 -4.66699 90.999 -14l-15 -86c-34 6 -59 9 -75 9
c-11.333 0 -20.833 -3 -28.5 -9s-11.5 -13.667 -11.5 -23c0 -3.33301 0.333008 -6 1 -8c2 -7.33301 7.16699 -13.333 15.5 -18s16.833 -6.66699 25.5 -6l116 28l19 -87zM270.001 -446.001l19 -87l-241 -58l-19 87z" />
    <glyph glyph-name="uni0655064D" 
d="M191 -400l-9.99902 -2.00098l-162 -38l-19 86l64 15c-4 6.66699 -7.66699 16.667 -11 30c-2.66699 8.66699 -4 18.667 -4 30c0 32.667 11.5 60.834 34.5 84.501s50.5 35.5 82.5 35.5c15.333 0 45.666 -4.66699 90.999 -14l-15 -86c-34 6 -59 9 -75 9
c-11.333 0 -20.833 -3 -28.5 -9s-11.5 -13.667 -11.5 -23c0 -3.33301 0.333008 -6 1 -8c2 -7.33301 7.16699 -13.333 15.5 -18s16.833 -6.66699 25.5 -6l116 28l19 -87zM270.001 -572.001l19 -87l-241 -58l-19 87zM270.001 -431.001l19 -87l-241 -58l-19 87z" />
    <glyph glyph-name="uni0653.001" 
d="M27.5 687.5c18.333 19 42.5 28.5 72.5 28.5c10.667 0 18.667 -0.666992 24 -2l101 -19c2.66699 -0.666992 6.66699 -1 12 -1c12 0 18 5 18 15v3l80 6v-27c0 -31.333 -9.16699 -56.5 -27.5 -75.5s-42.5 -28.5 -72.5 -28.5c-10.667 0 -18.667 0.666992 -24 2l-101 19
c-2.66699 0.666992 -6.66699 1 -12 1c-12 0 -18 -5 -18 -15v-3l-80 -6v27c0 31.333 9.16699 56.5 27.5 75.5z" />
    <glyph glyph-name="uni06510670" 
d="M86 664l-11 -53l-1 -6c0 -10 7.66699 -15 23 -15c10.667 0 17.667 2.66699 21 8l3 70h65l3 -70c3.33301 -5.33301 10.333 -8 21 -8c18 0 25.667 5.66699 23 17l-17 73l69 21l22 -77c2.66699 -8.66699 4 -18.334 4 -29.001c0 -26.667 -9.5 -49.167 -28.5 -67.5
s-43.167 -27.5 -72.5 -27.5c-10.667 0 -21.167 1.66699 -31.5 5s-18.5 8 -24.5 14c-14.667 -12.667 -33.667 -19 -57 -19c-27.333 0 -50.333 9 -69 27s-28 40.333 -28 67c-0 10.667 1.33301 20.334 4 29.001l15 60zM203 869v-162h-75v162h75z" />
    </font>
</defs>
</svg>
