<?xml version="1.0" standalone="no"?>
<!DOCTYPE svg PUBLIC "-//W3C//DTD SVG 1.1//EN" "http://www.w3.org/Graphics/SVG/1.1/DTD/svg11.dtd" >
<svg>
<metadata>
Created by FontForge 20090914 at Sun Sep 22 22:44:36 2019
 By www-data
Copyright (c) 2019 by www.fontiran.com (Moslem Ebrahimi). All rights reserved.
</metadata>
<defs>
<font id="dana-medium" horiz-adv-x="0" >
  <font-face 
    font-family="dana medium"
    font-weight="500"
    font-stretch="normal"
    units-per-em="1000"
    panose-1="0 0 6 0 0 0 0 0 0 0"
    ascent="800"
    descent="-200"
    x-height="478"
    cap-height="668"
    bbox="-130.002 -617 1425 1066"
    underline-thickness="21"
    underline-position="-230"
    unicode-range="U+000D-U+FEFF"
  />
<missing-glyph horiz-adv-x="300" 
d="M263 516v-532h-226v532h226zM237 484h-174v-468h174v468z" />
    <glyph glyph-name="uniFEF5" unicode="&#xfedf;&#xfe82;" horiz-adv-x="565" arabic-form="isolated" 
d="M498.5 91c-12.333 -27.333 -31.833 -49.333 -58.5 -66s-59.667 -25 -99 -25h-244v104h244c56 0 83.333 23.333 82 70l-19 494l92 5l19 -495c1.33301 -30.667 -4.16699 -59.667 -16.5 -87zM130 156l-80 460l91 19l80 -460zM28.5 752.5c15 15.667 35.166 23.5 60.499 23.5
c10 0 17.667 -0.666992 23 -2l101 -19c2.66699 -0.666992 6.66699 -1 12 -1c24 0 36 11 36 33v6l49 3v-19c0 -26 -7.66699 -46.833 -23 -62.5s-35.333 -23.5 -60 -23.5c-10 0 -17.667 0.666992 -23 2l-101 19c-3.33301 0.666992 -7.66602 1 -12.999 1
c-23.333 0 -35 -11 -35 -33v-6l-49 -3v19c0 26 7.5 46.833 22.5 62.5z" />
    <glyph glyph-name="uniFEF6" unicode="&#xfee0;&#xfe82;" horiz-adv-x="611" arabic-form="final" 
d="M616 104v-104h-20c-24 0 -46.833 4.5 -68.5 13.5s-40.167 21.833 -55.5 38.5c-32.667 -34.667 -76.667 -52 -132 -52h-243v104h243c56 0 83.333 23.333 82 70l-19 494l92 5l19 -489c2.66699 -53.333 30 -80 82 -80h20zM130 156l-80 460l91 19l80 -460zM34.5 739.5
c15 15.667 35.166 23.5 60.499 23.5c10 0 17.667 -0.666992 23 -2l101 -19c2.66699 -0.666992 6.66699 -1 12 -1c24 0 36 11 36 33v6l49 3v-19c0 -26 -7.66699 -46.833 -23 -62.5s-35.333 -23.5 -60 -23.5c-10 0 -17.667 0.666992 -23 2l-101 19
c-3.33301 0.666992 -7.66602 1 -12.999 1c-23.333 0 -35 -11 -35 -33v-6l-49 -3v19c0 26 7.5 46.833 22.5 62.5z" />
    <glyph glyph-name="uniFEF7" unicode="&#xfedf;&#xfe84;" horiz-adv-x="565" arabic-form="isolated" 
d="M498.5 91c-12.333 -27.333 -31.833 -49.333 -58.5 -66s-59.667 -25 -99 -25h-244v104h244c56 0 83.333 23.333 82 70l-19 494l92 5l19 -495c1.33301 -30.667 -4.16699 -59.667 -16.5 -87zM130 156l-80 460l91 19l80 -460zM166 703l-5 -1l-159 -38l-11 52l78 19
c-11.333 12 -19 27.333 -23 46c-2 8 -3 16 -3 24c0 28 9.66699 52 29 72s43 30 71 30c17.333 0.666992 44.333 -2.66602 81 -9.99902l-9 -52c-29.333 5.33301 -52.333 8 -69 8c-16 0 -29.167 -4.66699 -39.5 -14s-15.5 -21 -15.5 -35c0 -15.333 6.16699 -27.833 18.5 -37.5
s25.833 -13.834 40.5 -12.501l108 26l12 -52z" />
    <glyph glyph-name="uniFEF8" unicode="&#xfee0;&#xfe84;" horiz-adv-x="611" arabic-form="final" 
d="M616 104v-104h-20c-24 0 -46.833 4.5 -68.5 13.5s-40.167 21.833 -55.5 38.5c-32.667 -34.667 -76.667 -52 -132 -52h-243v104h243c56 0 83.333 23.333 82 70l-19 494l92 5l19 -489c2.66699 -53.333 30 -80 82 -80h20zM130 156l-80 460l91 19l80 -460zM166 701l-5 -1
l-159 -38l-11 52l78 19c-11.333 12 -19 27.333 -23 46c-2 8 -3 16 -3 24c0 28 9.66699 52 29 72s43 30 71 30c17.333 0.666992 44.333 -2.66602 81 -9.99902l-9 -52c-29.333 5.33301 -52.333 8 -69 8c-16 0 -29.167 -4.66699 -39.5 -14s-15.5 -21 -15.5 -35
c0 -15.333 6.16699 -27.833 18.5 -37.5s25.833 -13.834 40.5 -12.501l108 26l12 -52z" />
    <glyph glyph-name="uniFEF9" unicode="&#xfedf;&#xfe88;" horiz-adv-x="565" arabic-form="isolated" 
d="M498.5 91c-12.333 -27.333 -31.833 -49.333 -58.5 -66s-59.667 -25 -99 -25h-244v104h244c56 0 83.333 23.333 82 70l-19 494l92 5l19 -495c1.33301 -30.667 -4.16699 -59.667 -16.5 -87zM130 156l-80 460l91 19l80 -460zM209 -234l-5 -1l-159 -38l-11 52l78 19
c-11.333 12 -19 27.333 -23 46c-2 8 -3 16 -3 24c0 28 9.66699 52 29 72s43 30 71 30c17.333 0.666992 44.333 -2.66602 81 -9.99902l-9 -52c-29.333 5.33301 -52.333 8 -69 8c-16 0 -29.167 -4.66699 -39.5 -14s-15.5 -21 -15.5 -35c0 -15.333 6.16699 -27.833 18.5 -37.5
s25.833 -13.834 40.5 -12.501l108 26l12 -52z" />
    <glyph glyph-name="uniFEFA" unicode="&#xfee0;&#xfe88;" horiz-adv-x="611" arabic-form="final" 
d="M616 104v-104h-20c-24 0 -46.833 4.5 -68.5 13.5s-40.167 21.833 -55.5 38.5c-32.667 -34.667 -76.667 -52 -132 -52h-243v104h243c56 0 83.333 23.333 82 70l-19 494l92 5l19 -489c2.66699 -53.333 30 -80 82 -80h20zM130 156l-80 460l91 19l80 -460zM217 -234l-5 -1
l-159 -38l-11 52l78 19c-11.333 12 -19 27.333 -23 46c-2 8 -3 16 -3 24c0 28 9.66699 52 29 72s43 30 71 30c17.333 0.666992 44.333 -2.66602 81 -9.99902l-9 -52c-29.333 5.33301 -52.333 8 -69 8c-16 0 -29.167 -4.66699 -39.5 -14s-15.5 -21 -15.5 -35
c0 -15.333 6.16699 -27.833 18.5 -37.5s25.833 -13.834 40.5 -12.501l108 26l12 -52z" />
    <glyph glyph-name="uniFEFB" unicode="&#xfedf;&#xfe8e;" horiz-adv-x="565" arabic-form="isolated" 
d="M498.5 91c-12.333 -27.333 -31.833 -49.333 -58.5 -66s-59.667 -25 -99 -25h-244v104h244c56 0 83.333 23.333 82 70l-19 494l92 5l19 -495c1.33301 -30.667 -4.16699 -59.667 -16.5 -87zM130 156l-80 460l91 19l80 -460z" />
    <glyph glyph-name="uniFEFC" unicode="&#xfee0;&#xfe8e;" horiz-adv-x="611" arabic-form="final" 
d="M616 104v-104h-20c-24 0 -46.833 4.5 -68.5 13.5s-40.167 21.833 -55.5 38.5c-32.667 -34.667 -76.667 -52 -132 -52h-243v104h243c56 0 83.333 23.333 82 70l-19 494l92 5l19 -489c2.66699 -53.333 30 -80 82 -80h20zM130 156l-80 460l91 19l80 -460z" />
    <glyph glyph-name="uni06440671" unicode="&#xfedf;&#xfb51;" horiz-adv-x="565" 
d="M498.5 91c-12.333 -27.333 -31.833 -49.333 -58.5 -66s-59.667 -25 -99 -25h-244v104h244c56 0 83.333 23.333 82 70l-19 494l92 5l19 -495c1.33301 -30.667 -4.16699 -59.667 -16.5 -87zM130 156l-80 460l91 19l80 -460zM281.5 849.5
c17.667 -19 26.498 -42.501 26.498 -70.501c0 -24.667 -9.16699 -46.167 -27.5 -64.5s-39.833 -27.5 -64.5 -27.5h-139c-10 0 -18.167 -2.16699 -24.5 -6.5s-15.166 -14.166 -26.499 -29.499l-40 30c14.667 20 27.5 34.5 38.5 43.5s23.833 14.167 38.5 15.5l34 48
c16.667 21.333 29.834 37.5 39.501 48.5s21.167 20.667 34.5 29s28.333 12.5 45 12.5c26 0 47.833 -9.5 65.5 -28.5zM247.498 752.999c9 8 13.501 17.667 13.501 29c0 12.667 -4.16699 23.167 -12.5 31.5s-19.166 12.5 -32.499 12.5c-12.667 0 -24.334 -4.5 -35.001 -13.5
s-24.334 -24.5 -41.001 -46.5l-18 -25h94c12 0 22.5 4 31.5 12z" />
    <glyph glyph-name="uni06440671.fina" unicode="&#xfee0;&#xfb51;" horiz-adv-x="611" 
d="M616 104v-104h-20c-24 0 -46.833 4.5 -68.5 13.5s-40.167 21.833 -55.5 38.5c-32.667 -34.667 -76.667 -52 -132 -52h-243v104h243c56 0 83.333 23.333 82 70l-19 494l92 5l19 -489c2.66699 -53.333 30 -80 82 -80h20zM130 156l-80 460l91 19l80 -460zM281.5 849.5
c17.667 -19 26.498 -42.501 26.498 -70.501c0 -24.667 -9.16699 -46.167 -27.5 -64.5s-39.833 -27.5 -64.5 -27.5h-139c-10 0 -18.167 -2.16699 -24.5 -6.5s-15.166 -14.166 -26.499 -29.499l-40 30c14.667 20 27.5 34.5 38.5 43.5s23.833 14.167 38.5 15.5l34 48
c16.667 21.333 29.834 37.5 39.501 48.5s21.167 20.667 34.5 29s28.333 12.5 45 12.5c26 0 47.833 -9.5 65.5 -28.5zM247.498 752.999c9 8 13.501 17.667 13.501 29c0 12.667 -4.16699 23.167 -12.5 31.5s-19.166 12.5 -32.499 12.5c-12.667 0 -24.334 -4.5 -35.001 -13.5
s-24.334 -24.5 -41.001 -46.5l-18 -25h94c12 0 22.5 4 31.5 12z" />
    <glyph glyph-name="uniFDF2.001" unicode="&#xfedf;&#xfee0;&#xfeea;" horiz-adv-x="1057" 
d="M683 903h-46v163h46v-163zM534 742c-16 14.667 -24.0029 32.668 -24.0029 54.001c0 5.33301 1.33301 13.333 4 24l12 51l42 -11l-11 -47c-0.666992 -2 -1 -5 -1 -9c0 -8.66699 3.33301 -15.834 10 -21.501s16.334 -8.5 29.001 -8.5c11.333 0 20.333 2.5 27 7.5
s10 10.833 10 17.5l1 62h41l1 -62c0 -6 3.33301 -11.667 10 -17s15.667 -8 27 -8c12.667 0 22.334 2.5 29.001 7.5s10 11.5 10 19.5c0 4.66699 -0.333008 8 -1 10l-16 67l42 13l19 -70c2.66699 -10.667 4 -18.667 4 -24c0 -22 -8.16699 -40.333 -24.5 -55
s-37.166 -22 -62.499 -22c-12 0 -23.333 2.33301 -34 7s-18.667 11 -24 19c-14 -17.333 -33.667 -26 -59 -26c-24.667 0 -45 7.33301 -61 22zM990.497 91.001c-12.333 -27.333 -31.832 -49.333 -58.499 -66s-59.667 -25 -99 -25h-33c-24 0 -46.833 4.5 -68.5 13.5
s-40.167 21.833 -55.5 38.5c-32.667 -34.667 -76.667 -52 -132 -52h-32c-34.667 0 -66.834 8.16699 -96.501 24.5s-53.5 38.5 -71.5 66.5c-50 -8.66699 -86 -14.334 -108 -17.001c-4 -0.666992 -10 -1 -18 -1c-33.333 0 -65.333 11.833 -96 35.5s-51.667 52.167 -63 85.5
c-6 18 -9 36.333 -9 55c0 37.333 10.833 71.833 32.5 103.5s50.167 53.167 85.5 64.5l141 47v42h93v-297c0 -29.333 10.667 -54.166 32 -74.499s47.333 -30.5 78 -30.5h32c56 0 83.333 23.333 82 70l-19 494l92 5l19 -489c2.66699 -53.333 30 -80 82 -80h33
c56 0 83.333 23.333 82 70l-19 494l92 5l19 -495c1.33301 -30.667 -4.16699 -59.667 -16.5 -87zM309.998 190.001c-0.666992 4 -1.00098 10.333 -1.00098 19v153l-112 -39c-17.333 -5.33301 -30.666 -14.5 -39.999 -27.5s-14 -27.5 -14 -43.5c0 -6.66699 1 -13.667 3 -21
c4 -14.667 12.833 -27.5 26.5 -38.5s28.5 -16.5 44.5 -16.5c5.33301 0 9.33301 0.333008 12 1z" />
    <glyph glyph-name="uni066E.init" unicode="&#x66e;" horiz-adv-x="318" 
d="M74 104c32 0 56.833 5.33301 74.5 16s26.5 29 26.5 55c0 13.333 -2.33301 28 -7 44l-40 149l90 26l40 -149c6.66699 -24 10 -47.333 10 -70c0 -54.667 -18.333 -97.5 -55 -128.5s-83 -46.5 -139 -46.5h-79v104h79z" />
    <glyph glyph-name="uni066E.medi" unicode="&#x66e;" horiz-adv-x="309" 
d="M253 120c11.333 -10.667 31.6641 -16 60.9971 -16v-104c-54.667 0 -96.667 15 -126 45c-31.333 -30 -74.666 -45 -129.999 -45h-63v104h63c30.667 0 52.334 5.16699 65.001 15.5s18.334 26.5 17.001 48.5v2l-11 123l92 9l11 -123v-1c2.66699 -28 9.66699 -47.333 21 -58z
" />
    <glyph glyph-name="uni066E.fina" unicode="&#x66e;" horiz-adv-x="960" 
d="M904 120c11.333 -10.667 31.667 -16 61 -16v-104c-55.333 -0 -97.333 15.333 -126 46c-32.667 -30.667 -76 -46 -130 -46h-241v104h241c30 0 51.5 5.16699 64.5 15.5s18.833 26.5 17.5 48.5v2l-11 123l92 9l11 -123v-1c2.66699 -28 9.66699 -47.333 21 -58zM294.001 2.5
c-39.333 1.66699 -69.001 4.33301 -89.001 8s-39 9.16699 -57 16.5c-31.333 14 -55.333 34.333 -72 61s-25 57.667 -25 93c0 21.333 3 44 9 68l37 143l89 -26l-38 -147c-3.33301 -11.333 -5 -23.666 -5 -36.999c0 -14.667 3.33301 -26.667 10 -36s17.334 -17.333 32.001 -24
c16 -6.66699 40.833 -11.334 74.5 -14.001s103.167 -4 208.5 -4v-104c-76.667 -0 -134.667 0.833008 -174 2.5z" />
    <glyph glyph-name="uni066F.fina" unicode="&#x66f;" horiz-adv-x="703" 
d="M302 -247c-52 0 -97 11.666 -135 34.999s-67 56.333 -87 99s-30 92.334 -30 149.001c0 64 12.667 132 38 204l88 -35c-22.667 -64 -34 -121.333 -34 -172c0 -56 13.833 -99.333 41.5 -130s67.167 -46 118.5 -46c23.333 0 46 2.66699 68 8
c66.667 14.667 116.334 30.5 149.001 47.5s47.667 40.5 45 70.5l-2 17h-120c-50 -0 -90.667 14.833 -122 44.5s-49.333 70.5 -54 122.5c-2.66699 38 3.33301 74.167 18 108.5s36.334 62.166 65.001 83.499s61.667 32 99 32c51.333 0 94.333 -19.667 129 -59
s55.667 -91 63 -155l8 -73h60v-104h-51l1 -22c0 -42.667 -9.33301 -77.167 -28 -103.5s-46.834 -47.666 -84.501 -63.999s-89.167 -31.833 -154.5 -46.5c-32.667 -7.33301 -62.334 -11 -89.001 -11zM547 164.999c-4 39.333 -14.668 69.499 -32.001 90.499
s-39.666 31.5 -66.999 31.5s-49 -10 -65 -30s-24 -44 -24 -72c0 -27.333 6.5 -47.666 19.5 -60.999s34.167 -20 63.5 -20h112z" />
    <glyph glyph-name="uni06A1.init" unicode="&#x6a1;" horiz-adv-x="472" 
d="M421 152c0 -36.667 -6.83398 -65.834 -20.501 -87.501s-37 -37.834 -70 -48.501s-78.833 -16 -137.5 -16h-198v104h200c38.667 0 67.5 1.33301 86.5 4s32.167 7.83398 39.5 15.501s11 19.167 11 34.5c0 8 -0.333008 14.333 -1 19c-40.667 -4.66699 -80 -7 -118 -7
c-50.667 0 -91 15 -121 45s-45 70.667 -45 122c0 36.667 6.66699 70.5 20 101.5s33.333 55.833 60 74.5s58.667 28 96 28c50.667 0 92.834 -18.667 126.501 -56s53.167 -86.666 58.5 -147.999l11 -149c1.33301 -17.333 2 -29.333 2 -36zM152.499 287.5
c14.333 -14.333 34.499 -21.5 60.499 -21.5c42.667 0 79.334 2.66699 110.001 8l-5 55c-4.66699 37.333 -15.667 66.5 -33 87.5s-39.333 31.5 -66 31.5c-27.333 0 -48.833 -10 -64.5 -30s-23.5 -44 -23.5 -72c0 -24.667 7.16699 -44.167 21.5 -58.5z" />
    <glyph glyph-name="uni06A1.medi" unicode="&#x6a1;" horiz-adv-x="490" 
d="M495 104v-104h-58c-60.667 0 -123.334 12.667 -188.001 38c-32.667 -12 -66.667 -21.333 -102 -28s-68.666 -10 -99.999 -10h-52v104h52c23.333 0 48.333 2 75 6c-38 32.667 -55.667 64 -53 94l5 58c3.33301 31.333 13.5 59.333 30.5 84s38.5 44 64.5 58s54 21 84 21
c36 0 67.833 -9.66699 95.5 -29s48.667 -44.333 63 -75s20.5 -62.667 18.5 -96l-3 -45c-2 -24 -18 -48.333 -48 -73c18 -2 37.333 -3 58 -3h58zM189 169c14.667 -11.333 33.333 -21.667 56 -31c54 18 84 35.667 90 53l4 35c2 22 -4.16699 42.667 -18.5 62
s-33.833 30.666 -58.5 33.999c-24 2.66699 -45.5 -3.5 -64.5 -18.5s-29.833 -34.5 -32.5 -58.5l-4 -45c4 -9.33301 13.333 -19.666 28 -30.999z" />
    <glyph glyph-name="uni06A1.fina" unicode="&#x6a1;" horiz-adv-x="958" 
d="M963 104v-104.001h-58c-60.667 0 -123.334 12.667 -188.001 38c-32.667 -12 -66.667 -21.333 -102 -28s-68.666 -10 -99.999 -10h-52c-75.333 0 -132.333 0.833008 -171 2.5s-67.834 4.33398 -87.501 8.00098s-38.5 9.16699 -56.5 16.5c-31.333 14 -55.333 34.333 -72 61
s-25 57.667 -25 93c0 21.333 3 44 9 68l37 143l89 -26l-38 -147c-3.33301 -11.333 -5 -23.666 -5 -36.999c0 -14.667 3.33301 -26.667 10 -36s17.334 -17.333 32.001 -24c16 -6.66699 40.833 -11.334 74.5 -14.001s103.167 -4 208.5 -4h47c23.333 0 48.333 2 75 6
c-38 32.667 -55.667 64 -53 94l5 58c3.33301 31.333 13.5 59.333 30.5 84s38.5 44 64.5 58s54 21 84 21c36 0 67.833 -9.66699 95.5 -29s48.667 -44.333 63 -75s20.5 -62.667 18.5 -96l-3 -45c-2 -24 -18 -48.333 -48 -73c18 -2 37.333 -3 58 -3h58zM656.5 168.999
c14.333 -11.333 33.167 -21.666 56.5 -30.999c53.333 17.333 83.333 35 90 53l4 35c2 22 -4.16699 42.667 -18.5 62s-33.833 30.666 -58.5 33.999c-24 2.66699 -45.5 -3.33301 -64.5 -18s-29.833 -34.334 -32.5 -59.001l-4 -45c4 -9.33301 13.167 -19.666 27.5 -30.999z" />
    <glyph glyph-name="uniFB51" unicode="&#x671;" horiz-adv-x="282" arabic-form="final" 
d="M171 20c-26 13.333 -44.999 34.832 -56.999 64.499s-19 70.834 -21 123.501l-14 359l93 4l14 -363c1.33301 -32 4.16602 -54.833 8.49902 -68.5s12.333 -23 24 -28s31.167 -7.5 58.5 -7.5h10v-104h-10c-44.667 0 -80 6.66699 -106 20zM289.501 783.499
c17.667 -19 26.498 -42.501 26.498 -70.501c0 -24.667 -9.16699 -46.167 -27.5 -64.5s-39.833 -27.5 -64.5 -27.5h-139c-10 0 -18.167 -2.16699 -24.5 -6.5s-15.166 -14.166 -26.499 -29.499l-40 30c14.667 20 27.5 34.5 38.5 43.5s23.833 14.167 38.5 15.5l34 48
c16.667 21.333 29.834 37.5 39.501 48.5s21.167 20.667 34.5 29s28.333 12.5 45 12.5c26 0 47.833 -9.5 65.5 -28.5zM255.499 686.998c9 8 13.501 17.667 13.501 29c0 12.667 -4.16699 23.167 -12.5 31.5s-19.166 12.5 -32.499 12.5c-12.667 0 -24.334 -4.5 -35.001 -13.5
s-24.334 -24.5 -41.001 -46.5l-18 -25h94c12 0 22.5 4 31.5 12z" />
    <glyph glyph-name="uniFB57" unicode="&#x67e;" horiz-adv-x="960" arabic-form="final" 
d="M904 120c11.333 -10.667 31.667 -16 61 -16v-104c-55.333 -0 -97.333 15.333 -126 46c-32.667 -30.667 -76 -46 -130 -46h-241v104h241c30 0 51.5 5.16699 64.5 15.5s18.833 26.5 17.5 48.5v2l-11 123l92 9l11 -123v-1c2.66699 -28 9.66699 -47.333 21 -58zM294.001 2.5
c-39.333 1.66699 -69.001 4.33301 -89.001 8s-39 9.16699 -57 16.5c-31.333 14 -55.333 34.333 -72 61s-25 57.667 -25 93c0 21.333 3 44 9 68l37 143l89 -26l-38 -147c-3.33301 -11.333 -5 -23.666 -5 -36.999c0 -14.667 3.33301 -26.667 10 -36s17.334 -17.333 32.001 -24
c16 -6.66699 40.833 -11.334 74.5 -14.001s103.167 -4 208.5 -4v-104c-76.667 -0 -134.667 0.833008 -174 2.5zM416 -272.001l59 58l58 -58l-58 -59zM315 -144.001l69 69l69 -69l-69 -68zM497 -144.001l69 69l69 -69l-69 -68z" />
    <glyph glyph-name="uniFB58" unicode="&#x67e;" horiz-adv-x="387" arabic-form="initial" 
d="M143 104c31.333 0 55.832 5.50098 73.499 16.501s26.5 29.5 26.5 55.5c0 12.667 -2.33301 27 -7 43l-39 149l90 26l40 -154c6.66699 -22.667 10 -45.334 10 -68.001c0 -36 -8.66699 -67 -26 -93s-40.666 -45.667 -69.999 -59s-62 -20 -98 -20h-148v104h148z
M44.999 -270.999l59 58l58 -58l-58 -59zM-56.001 -142.999l69 69l69 -69l-69 -68zM125.999 -142.999l69 69l69 -69l-69 -68z" />
    <glyph glyph-name="uniFB59" unicode="&#x67e;" horiz-adv-x="407" arabic-form="medial" 
d="M351 120c11.333 -10.667 31.666 -16.001 60.999 -16.001v-104c-55.333 0 -97.333 15.333 -126 46c-32.667 -30.667 -76 -46 -130 -46h-161v104h161c30.667 0 52.334 5.33301 65.001 16s18 27.334 16 50.001l-11 123l93 9l11 -123v-1c2.66699 -28 9.66699 -47.333 21 -58z
M110 -269.001l59 58l58 -58l-58 -59zM9 -141.001l69 69l69 -69l-69 -68zM191 -141.001l69 69l69 -69l-69 -68z" />
    <glyph glyph-name="uniFB6B" unicode="&#x6a4;" horiz-adv-x="958" arabic-form="final" 
d="M963 104v-104.001h-58c-60.667 0 -123.334 12.667 -188.001 38c-32.667 -12 -66.667 -21.333 -102 -28s-68.666 -10 -99.999 -10h-52c-75.333 0 -132.333 0.833008 -171 2.5s-67.834 4.33398 -87.501 8.00098s-38.5 9.16699 -56.5 16.5c-31.333 14 -55.333 34.333 -72 61
s-25 57.667 -25 93c0 21.333 3 44 9 68l37 143l89 -26l-38 -147c-3.33301 -11.333 -5 -23.666 -5 -36.999c0 -14.667 3.33301 -26.667 10 -36s17.334 -17.333 32.001 -24c16 -6.66699 40.833 -11.334 74.5 -14.001s103.167 -4 208.5 -4h47c23.333 0 48.333 2 75 6
c-38 32.667 -55.667 64 -53 94l5 58c3.33301 31.333 13.5 59.333 30.5 84s38.5 44 64.5 58s54 21 84 21c36 0 67.833 -9.66699 95.5 -29s48.667 -44.333 63 -75s20.5 -62.667 18.5 -96l-3 -45c-2 -24 -18 -48.333 -48 -73c18 -2 37.333 -3 58 -3h58zM656.5 168.999
c14.333 -11.333 33.167 -21.666 56.5 -30.999c53.333 17.333 83.333 35 90 53l4 35c2 22 -4.16699 42.667 -18.5 62s-33.833 30.666 -58.5 33.999c-24 2.66699 -45.5 -3.33301 -64.5 -18s-29.833 -34.334 -32.5 -59.001l-4 -45c4 -9.33301 13.167 -19.666 27.5 -30.999z
M665.001 673.999l59 58l58 -58l-58 -59zM564.001 543.999l69 69l69 -69l-69 -68zM746.001 543.999l69 69l69 -69l-69 -68z" />
    <glyph glyph-name="uniFB6C" unicode="&#x6a4;" horiz-adv-x="472" arabic-form="initial" 
d="M221 723l-58 59l58 58l58 -58zM130 584l-68 68l68 69l69 -69zM243 652l69 69l69 -69l-69 -68zM421 152c0 -36.667 -6.83398 -65.834 -20.501 -87.501s-37 -37.834 -70 -48.501s-78.833 -16 -137.5 -16h-198v104h200c38.667 0 67.5 1.33301 86.5 4
s32.167 7.83398 39.5 15.501s11 19.167 11 34.5c0 8 -0.333008 14.333 -1 19c-40.667 -4.66699 -80 -7 -118 -7c-50.667 0 -91 15 -121 45s-45 70.667 -45 122c0 36.667 6.66699 70.5 20 101.5s33.333 55.833 60 74.5s58.667 28 96 28c50.667 0 92.834 -18.667 126.501 -56
s53.167 -86.666 58.5 -147.999l11 -149c1.33301 -17.333 2 -29.333 2 -36zM152.499 287.5c14.333 -14.333 34.499 -21.5 60.499 -21.5c42.667 0 79.334 2.66699 110.001 8l-5 55c-4.66699 37.333 -15.667 66.5 -33 87.5s-39.333 31.5 -66 31.5
c-27.333 0 -48.833 -10 -64.5 -30s-23.5 -44 -23.5 -72c0 -24.667 7.16699 -44.167 21.5 -58.5z" />
    <glyph glyph-name="uniFB6D" unicode="&#x6a4;" horiz-adv-x="490" arabic-form="medial" 
d="M252 609l-59 59l59 58l58 -58zM160 470l-68 68l68 69l69 -69zM274 538l68 69l69 -69l-69 -68zM495 104v-104h-58c-60.667 0 -123.334 12.667 -188.001 38c-32.667 -12 -66.667 -21.333 -102 -28s-68.666 -10 -99.999 -10h-52v104h52c23.333 0 48.333 2 75 6
c-38 32.667 -55.667 64 -53 94l5 58c3.33301 31.333 13.5 59.333 30.5 84s38.5 44 64.5 58s54 21 84 21c36 0 67.833 -9.66699 95.5 -29s48.667 -44.333 63 -75s20.5 -62.667 18.5 -96l-3 -45c-2 -24 -18 -48.333 -48 -73c18 -2 37.333 -3 58 -3h58zM189 169
c14.667 -11.333 33.333 -21.667 56 -31c54 18 84 35.667 90 53l4 35c2 22 -4.16699 42.667 -18.5 62s-33.833 30.666 -58.5 33.999c-24 2.66699 -45.5 -3.5 -64.5 -18.5s-29.833 -34.5 -32.5 -58.5l-4 -45c4 -9.33301 13.333 -19.666 28 -30.999z" />
    <glyph glyph-name="uniFB7B" unicode="&#x686;" horiz-adv-x="733" arabic-form="final" 
d="M738 104l0.000976562 -103.999h-37c-45.333 0 -85.333 13.5 -120 40.5s-58.667 62.167 -72 105.5l-196 -54c-60.667 -16 -104.167 -40 -130.5 -72s-39.5 -67 -39.5 -105c0 -12.667 1.66699 -26.334 5 -41.001c10 -38 31.167 -68.5 63.5 -91.5s69.166 -34.5 110.499 -34.5
c19.333 0 37.333 2.33301 54 7l254 71l24 -100l-258 -72c-25.333 -6 -50.333 -9 -75 -9c-62 0 -117 18 -165 54s-80 84.333 -96 145c-6.66699 25.333 -10 49.666 -10 72.999c0 60.667 19.667 116.334 59 167.001s99.333 86.667 180 108l253 66l-203 106
c-16.667 9.33301 -35.334 14 -56.001 14c-20 0 -38.667 -5 -56 -15s-31.333 -24.667 -42 -44l-18 -31l-80 50l19 35c20.667 35.333 46.334 62.333 77.001 81s63.334 28 98.001 28c35.333 0 69.666 -9.33301 102.999 -28l272 -152l-13 -120l-43 -12
c8 -20 20.833 -36 38.5 -48s38.5 -18 62.5 -18h37zM450.001 -54.999l-73 39l39 72l72 -38zM262.001 9.00098l72 -38l-38 -74l-73 40zM400.001 -168.999l-73 40l39 72l73 -38z" />
    <glyph glyph-name="uniFB7C" unicode="&#x686;" horiz-adv-x="654" arabic-form="initial" 
d="M604 230l-13 -120l-293 -81c-46.667 -12.667 -92.5 -20.667 -137.5 -24s-98.5 -5 -160.5 -5h-5v104h5c60 0 110.333 1.33301 151 4s82 9.66699 124 21l220 57l-189 106c-18 10 -36.667 15 -56 15c-20 0 -38.833 -5.16699 -56.5 -15.5s-31.834 -25.166 -42.501 -44.499
l-18 -31l-80 50l19 35c20 35.333 45.333 62.666 76 81.999s63.334 29 98.001 29c35.333 0 70 -10 104 -30zM256 -269l59 58l58 -58l-58 -59zM155 -141l69 69l69 -69l-69 -68zM337 -141l69 69l69 -69l-69 -68z" />
    <glyph glyph-name="uniFB7D" unicode="&#x686;" horiz-adv-x="677" arabic-form="medial" 
d="M682 104v-103.998h-65c-32.667 0 -62.5 9.16699 -89.5 27.5s-47.167 42.166 -60.5 71.499l-170 -54c-97.333 -30 -196.333 -45 -297 -45h-5v104h5c86 0 176 13.333 270 40l225 64l-195 97c-18 10 -36.333 15 -55 15c-19.333 0 -37.666 -5.33301 -54.999 -16
s-31.333 -25.334 -42 -44.001l-18 -32l-81 50l19 35c22 36 48.167 63.333 78.5 82s62.5 28 96.5 28c35.333 0 69.666 -9.33301 102.999 -28l257 -140l-15 -118l-28 -9c14.667 -16 33.667 -24 57 -24h65zM255 -266.998l59 58l58 -58l-58 -59zM154 -138.998l69 69l69 -69
l-69 -68zM336 -138.998l69 69l69 -69l-69 -68z" />
    <glyph glyph-name="uniFB8B" unicode="&#x698;" horiz-adv-x="401" arabic-form="final" 
d="M204 522l-59 59l59 58l58 -58zM112 383l-68 68l68 69l69 -69zM226 451l68 69l69 -69l-69 -68zM406 0l-71.998 0.000976562c-16.667 0 -30.334 1.33301 -41.001 4c0.666992 -6.66699 1 -16.334 1 -29.001c0 -45.333 -11 -82.333 -33 -111s-51.833 -51.667 -89.5 -69
s-86.834 -34.333 -147.501 -51l-24 100l22 6c47.333 12.667 82.5 23.5 105.5 32.5s41.167 21 54.5 36s20 35.5 20 61.5c0 4.66699 -0.666992 13 -2 25l-40 288l92 14l13 -100c5.33301 -30 10.666 -52.167 15.999 -66.5s11.833 -24 19.5 -29s18.834 -7.5 33.501 -7.5h72v-104
z" />
    <glyph glyph-name="uniFB8F" unicode="&#x6a9;" horiz-adv-x="974" arabic-form="final" 
d="M979 104l-0.000976562 -104h-14c-29.333 0 -56.666 6.5 -81.999 19.5s-49.666 32.167 -72.999 57.5c-5.33301 -10.667 -12.333 -20.334 -21 -29.001c-26.667 -32 -65.334 -48 -116.001 -48h-210c-75.333 0 -132.333 0.833008 -171 2.5s-67.834 4.33398 -87.501 8.00098
s-38.5 9.16699 -56.5 16.5c-31.333 14 -55.333 34.333 -72 61s-25 57.667 -25 93c0 21.333 3 44 9 68l37 143l89 -26l-38 -147c-3.33301 -11.333 -5 -23.666 -5 -36.999c0 -14.667 3.33301 -26.667 10 -36s17.334 -17.333 32.001 -24
c16 -6.66699 40.833 -11.334 74.5 -14.001s103.167 -4 208.5 -4h206c15.333 0 27.333 3.33301 36 10c14.667 10.667 22 25 22 43c0 11.333 -3.33301 22.333 -10 33l-222 314l21 78l361 133l33 -97l-299 -109l176 -257l7 -11c33.333 -53.333 61.833 -89.5 85.5 -108.5
s50.5 -28.5 80.5 -28.5h14z" />
    <glyph glyph-name="uniFB90" unicode="&#x6a9;" horiz-adv-x="472" arabic-form="initial" 
d="M324 252c22.667 -35.333 34.001 -71.333 34.001 -108c0 -38 -12.333 -70 -37 -96c-26.667 -32 -65.334 -48 -116.001 -48h-210v104h211c15.333 0 27.333 3.33301 36 10c14.667 10.667 22 25 22 43c0 11.333 -3.33301 22.333 -10 33l-222 314l21 78l361 133l33 -97
l-299 -109z" />
    <glyph glyph-name="uniFB91" unicode="&#x6a9;" horiz-adv-x="506" arabic-form="medial" 
d="M511 104l-0.000976562 -103.999h-14c-29.333 0 -56.666 6.5 -81.999 19.5s-49.666 32.167 -72.999 57.5c-5.33301 -10.667 -12.333 -20.334 -21 -29.001c-26.667 -32 -65.334 -48 -116.001 -48h-210v104h211c15.333 0 27.333 3.33301 36 10c14.667 10.667 22 25 22 43
c0 11.333 -3.33301 22.333 -10 33l-222 314l21 78l361 133l33 -97l-299 -109l176 -257l7 -11c33.333 -53.333 61.833 -89.5 85.5 -108.5s50.5 -28.5 80.5 -28.5h14z" />
    <glyph glyph-name="uniFB93" unicode="&#x6af;" horiz-adv-x="974" arabic-form="final" 
d="M979 104l-0.000976562 -104h-14c-29.333 0 -56.666 6.5 -81.999 19.5s-49.666 32.167 -72.999 57.5c-5.33301 -10.667 -12.333 -20.334 -21 -29.001c-26.667 -32 -65.334 -48 -116.001 -48h-210c-75.333 0 -132.333 0.833008 -171 2.5s-67.834 4.33398 -87.501 8.00098
s-38.5 9.16699 -56.5 16.5c-31.333 14 -55.333 34.333 -72 61s-25 57.667 -25 93c0 21.333 3 44 9 68l37 143l89 -26l-38 -147c-3.33301 -11.333 -5 -23.666 -5 -36.999c0 -14.667 3.33301 -26.667 10 -36s17.334 -17.333 32.001 -24
c16 -6.66699 40.833 -11.334 74.5 -14.001s103.167 -4 208.5 -4h206c15.333 0 27.333 3.33301 36 10c14.667 10.667 22 25 22 43c0 11.333 -3.33301 22.333 -10 33l-222 314l21 78l361 133l33 -97l-299 -109l176 -257l7 -11c33.333 -53.333 61.833 -89.5 85.5 -108.5
s50.5 -28.5 80.5 -28.5h14zM772.999 795l15 -41l-244 -88l-15 41z" />
    <glyph glyph-name="uniFB94" unicode="&#x6af;" horiz-adv-x="472" arabic-form="initial" 
d="M324 252c22.667 -35.333 34.001 -71.333 34.001 -108c0 -38 -12.333 -70 -37 -96c-26.667 -32 -65.334 -48 -116.001 -48h-210v104h211c15.333 0 27.333 3.33301 36 10c14.667 10.667 22 25 22 43c0 11.333 -3.33301 22.333 -10 33l-222 314l21 78l361 133l33 -97
l-299 -109zM311.001 792l15 -41l-244 -88l-15 41z" />
    <glyph glyph-name="uniFB95" unicode="&#x6af;" horiz-adv-x="506" arabic-form="medial" 
d="M511 104l-0.000976562 -103.999h-14c-29.333 0 -56.666 6.5 -81.999 19.5s-49.666 32.167 -72.999 57.5c-5.33301 -10.667 -12.333 -20.334 -21 -29.001c-26.667 -32 -65.334 -48 -116.001 -48h-210v104h211c15.333 0 27.333 3.33301 36 10c14.667 10.667 22 25 22 43
c0 11.333 -3.33301 22.333 -10 33l-222 314l21 78l361 133l33 -97l-299 -109l176 -257l7 -11c33.333 -53.333 61.833 -89.5 85.5 -108.5s50.5 -28.5 80.5 -28.5h14zM310.999 792.001l15 -41l-244 -88l-15 41z" />
    <glyph glyph-name="uniFB9F" unicode="&#x6ba;" horiz-adv-x="711" arabic-form="final" 
d="M716 104l0.000976562 -104h-26c-20 -0 -37 3.33301 -51 10c0.666992 -5.33301 1 -13.333 1 -24c0 -44.667 -10.167 -81.5 -30.5 -110.5s-48.333 -51.833 -84 -68.5s-80.5 -31 -134.5 -43c-32.667 -7.33301 -62.334 -11 -89.001 -11c-52 0 -97 11.667 -135 35
s-67 56.333 -87 99s-30 92.334 -30 149.001c0 64 12.667 132 38 204l88 -35c-22.667 -64 -34 -121.333 -34 -172c0 -56 13.833 -99.333 41.5 -130s67.167 -46 118.5 -46c23.333 0 46 2.66699 68 8c46.667 10.667 81.167 20 103.5 28s40 19.333 53 34s19.5 35.667 19.5 63
c0 5.33301 -0.666992 14.666 -2 27.999l-40 274l91 15l9 -61c6 -38.667 12.333 -68 19 -88s15 -34 25 -42s23.333 -12 40 -12h28z" />
    <glyph glyph-name="uniFBA4" unicode="&#x6c0;" horiz-adv-x="459" arabic-form="isolated" 
d="M388 281c14.667 -29.333 21.998 -62 21.998 -98c0 -33.333 -8.16699 -64.166 -24.5 -92.499s-38.166 -50.833 -65.499 -67.5s-57.333 -25 -90 -25s-62.667 8.33301 -90 25s-49.166 39.167 -65.499 67.5s-24.5 59.166 -24.5 92.499c0 28.667 7 57.667 21 87
s33.667 56.333 59 81l33 33l-32 30l65 75l120 -116c33.333 -32 57.333 -62.667 72 -92zM293.498 123.5c17 16.333 25.501 36.167 25.501 59.5c0 18 -4.33301 35.167 -13 51.5s-26 37.166 -52 62.499l-23 22l-33 -32c-20.667 -20.667 -35.5 -39.167 -44.5 -55.5
s-13.5 -32.5 -13.5 -48.5c0 -23.333 8.66699 -43.166 26 -59.499s38.666 -24.5 63.999 -24.5s46.5 8.16699 63.5 24.5zM174.999 583.001c37.333 3.33301 64.002 6.33203 80.002 8.99902s24 6.66699 24 12c0 6 -4.16699 10.333 -12.5 13s-26.5 7 -54.5 13
c-30 6 -51.833 13.333 -65.5 22s-20.5 21.334 -20.5 38.001c0 13.333 4 30 12 50c10.667 26.667 25 46.834 43 60.501s39 20.5 63 20.5c10.667 0 24.667 -2.33301 42 -7l37 -12l-14 -51l-37 11c-11.333 3.33301 -21 5 -29 5c-28.667 0 -49.334 -15.667 -62.001 -47
c-2.66699 -5.33301 -4 -10.333 -4 -15c0 -6 3.33301 -10.5 10 -13.5s18.667 -6.5 36 -10.5c27.333 -6 47.666 -11.333 60.999 -16s23.5 -11.5 30.5 -20.5s10.5 -22.167 10.5 -39.5c0 -21.333 -6.66699 -37 -20 -47s-32.333 -17 -57 -21s-64.667 -8 -120 -12l-4 54
c11.333 1.33301 28.333 2.66602 51 3.99902z" />
    <glyph glyph-name="uniFBA5" unicode="&#x6c0;" horiz-adv-x="526" arabic-form="final" 
d="M531 104l0.000976562 -104h-19c-34.667 0 -66.834 8.16699 -96.501 24.5s-53.5 38.5 -71.5 66.5c-50 -8.66699 -86 -14.334 -108 -17.001c-4 -0.666992 -10 -1 -18 -1c-33.333 0 -65.333 11.833 -96 35.5s-51.667 52.167 -63 85.5c-6 18 -9 36.333 -9 55
c0 37.333 10.833 71.833 32.5 103.5s50.167 53.167 85.5 64.5l141 47v42h93v-297c0 -29.333 10.667 -54.166 32 -74.499s47.333 -30.5 78 -30.5h19zM310.001 190c-0.666992 4 -1.00098 10.333 -1.00098 19v153l-112 -39c-17.333 -5.33301 -30.666 -14.5 -39.999 -27.5
s-14 -27.5 -14 -43.5c0 -6.66699 1 -13.667 3 -21c4 -14.667 12.833 -27.5 26.5 -38.5s28.5 -16.5 44.5 -16.5c5.33301 0 9.33301 0.333008 12 1zM222 587c37.333 3.33301 64.002 6.33203 80.002 8.99902s24 6.66699 24 12c0 6 -4.16699 10.333 -12.5 13s-26.5 7 -54.5 13
c-30 6 -51.833 13.333 -65.5 22s-20.5 21.334 -20.5 38.001c0 13.333 4 30 12 50c10.667 26.667 25 46.834 43 60.501s39 20.5 63 20.5c10.667 0 24.667 -2.33301 42 -7l37 -12l-14 -51l-37 11c-11.333 3.33301 -21 5 -29 5c-28.667 0 -49.334 -15.667 -62.001 -47
c-2.66699 -5.33301 -4 -10.333 -4 -15c0 -6 3.33301 -10.5 10 -13.5s18.667 -6.5 36 -10.5c27.333 -6 47.666 -11.333 60.999 -16s23.5 -11.5 30.5 -20.5s10.5 -22.167 10.5 -39.5c0 -21.333 -6.66699 -37 -20 -47s-32.333 -17 -57 -21s-64.667 -8 -120 -12l-4 54
c11.333 1.33301 28.333 2.66602 51 3.99902z" />
    <glyph glyph-name="uniFBFD" unicode="&#x6cc;" horiz-adv-x="690" arabic-form="final" 
d="M695 0c-23.333 0 -45.6699 0.99707 -67.0029 2.99707c2 -4 3 -8 3 -12c1.33301 -13.333 2 -22.666 2 -27.999c0 -53.333 -20.333 -95.166 -61 -125.499s-101 -54.833 -181 -73.5c-32.667 -7.33301 -62.334 -11 -89.001 -11c-52 0 -97 11.667 -135 35s-67 56.333 -87 99
s-30 92.334 -30 149.001c0 64 12.667 132 38 204l88 -35c-22 -62 -33 -119 -33 -171c0 -56 13.833 -99.5 41.5 -130.5s66.834 -46.5 117.501 -46.5c23.333 0 46 2.66699 68 8c43.333 10 76.333 18.833 99 26.5s40.334 17.5 53.001 29.5s19 27.667 19 47
c0 4 -0.666992 10.667 -2 20c-3.33301 17.333 -31.666 36.333 -84.999 57l-27 9l-44 14l29 98c5.33301 -2 17 -5.33301 35 -10c71.333 -20.667 122.833 -34.5 154.5 -41.5s62.834 -10.5 93.501 -10.5v-104z" />
    <glyph glyph-name="uniFBFE" unicode="&#x6cc;" horiz-adv-x="387" arabic-form="initial" 
d="M143 104c31.333 0 55.832 5.50098 73.499 16.501s26.5 29.5 26.5 55.5c0 12.667 -2.33301 27 -7 43l-39 149l90 26l40 -154c6.66699 -22.667 10 -45.334 10 -68.001c0 -36 -8.66699 -67 -26 -93s-40.666 -45.667 -69.999 -59s-62 -20 -98 -20h-148v104h148z
M-59.001 -145.999l69 69l69 -69l-69 -68zM122.999 -145.999l69 69l69 -69l-69 -68z" />
    <glyph glyph-name="uniFBFF" unicode="&#x6cc;" horiz-adv-x="407" arabic-form="medial" 
d="M351 120c11.333 -10.667 31.666 -16.001 60.999 -16.001v-104c-55.333 0 -97.333 15.333 -126 46c-32.667 -30.667 -76 -46 -130 -46h-161v104h161c30.667 0 52.334 5.33301 65.001 16s18 27.334 16 50.001l-11 123l93 9l11 -123v-1c2.66699 -28 9.66699 -47.333 21 -58z
M12 -147.001l69 69l69 -69l-69 -68zM194 -147.001l69 69l69 -69l-69 -68z" />
    <glyph glyph-name="uniFDF2" unicode="&#xfdf2;" horiz-adv-x="1324" arabic-form="isolated" 
d="M686 895h-46v163h46v-163zM537 734c-16 14.667 -24.0029 32.668 -24.0029 54.001c0 6 1.33301 14.333 4 25l12 51l42 -12l-11 -47c-0.666992 -2 -1 -5 -1 -9c0 -8.66699 3.33301 -15.834 10 -21.501s16.334 -8.5 29.001 -8.5c11.333 0 20.333 2.66699 27 8s10 11 10 17
l1 62h41l1 -62c0 -6 3.33301 -11.667 10 -17s15.667 -8 27 -8c12.667 0 22.334 2.5 29.001 7.5s10 11.5 10 19.5c0 4.66699 -0.333008 8 -1 10l-16 68l42 12l20 -70c2 -8 3 -15.667 3 -23c0 -22 -8.16699 -40.5 -24.5 -55.5s-37.166 -22.5 -62.499 -22.5
c-12 0 -23.333 2.33301 -34 7s-18.667 11 -24 19c-6 -8 -14.167 -14.333 -24.5 -19s-21.833 -7 -34.5 -7c-24.667 0 -45 7.33301 -61 22zM1006 178.001c1.33301 -30.667 -4.16602 -59.667 -16.499 -87s-31.833 -49.333 -58.5 -66s-59.667 -25 -99 -25h-32
c-24 0 -46.833 4.5 -68.5 13.5s-40.167 21.833 -55.5 38.5c-32.667 -34.667 -76.667 -52 -132 -52h-32c-34.667 0 -66.834 8.16699 -96.501 24.5s-53.5 38.5 -71.5 66.5c-50 -8.66699 -86 -14.334 -108 -17.001c-4 -0.666992 -10 -1 -18 -1
c-33.333 0 -65.333 11.833 -96 35.5s-51.667 52.167 -63 85.5c-6 18 -9 36.333 -9 55c0 37.333 10.833 71.833 32.5 103.5s50.167 53.167 85.5 64.5l141 47v42h93v-297c0 -29.333 10.667 -54.166 32 -74.499s47.333 -30.5 78 -30.5h32c56 0 83.333 23.333 82 70l-19 494
l92 5l19 -489c2.66699 -53.333 30 -80 82 -80h32c56 0 83.333 23.333 82 70l-19 494l92 5zM1254 1.00098l-92 -4l-26 671l93 5zM309.998 190.001c-0.666992 4 -1.00098 10.333 -1.00098 19v153l-112 -39c-17.333 -5.33301 -30.666 -14.5 -39.999 -27.5s-14 -27.5 -14 -43.5
c0 -6.66699 1 -13.667 3 -21c4 -14.667 12.833 -27.5 26.5 -38.5s28.5 -16.5 44.5 -16.5c5.33301 0 9.33301 0.333008 12 1z" />
    <glyph glyph-name="uniFDFC" unicode="&#xfdfc;" horiz-adv-x="1475" arabic-form="isolated" 
d="M636 28c2 -57.333 -6.66602 -103.334 -25.999 -138.001s-46.666 -61 -81.999 -79s-81.333 -34 -138 -48c-32 -8 -62.333 -12 -91 -12c-50.667 0 -94.834 11.833 -132.501 35.5s-66.5 56.834 -86.5 99.501s-30 92.334 -30 149.001c0 64 12.667 132 38 204l88 -35
c-22.667 -64 -34 -121.333 -34 -172c0 -56 13.667 -99.667 41 -131s66 -47 116 -47c21.333 0 44.333 3 69 9c50.667 12.667 86.667 23.167 108 31.5s38.166 22.166 50.499 41.499s17.833 48.333 16.5 87l-25 645l93 5zM826.501 -13.001
c-25 13.333 -43.498 34.833 -55.498 64.5s-19 70.5 -21 122.5l-18 460l93 4l18 -464c0.666992 -31.333 3.16699 -54 7.5 -68s12.666 -23.5 24.999 -28.5s32.166 -7.5 59.499 -7.5h74c32 0 56.833 5.5 74.5 16.5s26.5 29.833 26.5 56.5c0 12 -2 26 -6 42l-40 149l89 26
l40 -149c6.66699 -24 10 -47.333 10 -70c0 -54.667 -18.333 -97.5 -55 -128.5s-83 -46.5 -139 -46.5h-79c-44 0.666992 -78.5 7.66699 -103.5 21zM1425 -26.001c0 -45.333 -10.999 -82.1689 -32.999 -110.502s-51.833 -51.166 -89.5 -68.499s-86.834 -34.333 -147.501 -51
l-24 100l22 6c47.333 12.667 82.5 23.5 105.5 32.5s41.167 21.167 54.5 36.5s20 36 20 62c0 4 -0.666992 12 -2 24l-40 288l91 14l40 -290c2 -15.333 3 -29.666 3 -42.999zM817.004 -127.004l69 -69l-69 -68l-69 68zM999.004 -127.004l69 -69l-69 -68l-68 68z" />
    <glyph glyph-name="uniFE82" unicode="&#x622;" horiz-adv-x="282" arabic-form="final" 
d="M171 20c-26 13.333 -44.999 34.832 -56.999 64.499s-19 70.834 -21 123.501l-14 359l93 4l14 -363c1.33301 -32 4.16602 -54.833 8.49902 -68.5s12.333 -23 24 -28s31.167 -7.5 58.5 -7.5h10v-104h-10c-44.667 0 -80 6.66699 -106 20zM22.501 676.499
c15 15.667 35.166 23.5 60.499 23.5c10 0 17.667 -0.666992 23 -2l101 -19c2.66699 -0.666992 6.66699 -1 12 -1c24 0 36 11 36 33v6l49 3v-19c0 -26 -7.66699 -46.833 -23 -62.5s-35.333 -23.5 -60 -23.5c-10 0 -17.667 0.666992 -23 2l-101 19
c-3.33301 0.666992 -7.66602 1 -12.999 1c-23.333 0 -35 -11 -35 -33v-6l-49 -3v19c0 26 7.5 46.833 22.5 62.5z" />
    <glyph glyph-name="uniFE84" unicode="&#x623;" horiz-adv-x="282" arabic-form="final" 
d="M171 20c-26 13.333 -44.999 34.832 -56.999 64.499s-19 70.834 -21 123.501l-14 359l93 4l14 -363c1.33301 -32 4.16602 -54.833 8.49902 -68.5s12.333 -23 24 -28s31.167 -7.5 58.5 -7.5h10v-104h-10c-44.667 0 -80 6.66699 -106 20zM180.001 655.999l-5 -1l-159 -38
l-11 52l78 19c-11.333 12 -19 27.333 -23 46c-2 8 -3 16 -3 24c0 28 9.66699 52 29 72s43 30 71 30c17.333 0.666992 44.333 -2.66602 81 -9.99902l-9 -52c-29.333 5.33301 -52.333 8 -69 8c-16 0 -29.167 -4.66699 -39.5 -14s-15.5 -21 -15.5 -35
c0 -15.333 6.16699 -27.833 18.5 -37.5s25.833 -13.834 40.5 -12.501l108 26l12 -52z" />
    <glyph glyph-name="uniFE86" unicode="&#x624;" horiz-adv-x="499" arabic-form="final" 
d="M504 0h-48.999l1 -22c0 -48.667 -11.5 -87 -34.5 -115s-57.5 -50.5 -103.5 -67.5s-112.667 -34.5 -200 -52.5l-19 101c85.333 18 144.666 32.167 177.999 42.5s56.5 23.666 69.5 39.999s17.833 40.833 14.5 73.5h-123c-54 0 -97 16.833 -129 50.5s-48 78.834 -48 135.501
c0 35.333 7.66699 68.833 23 100.5s37 57 65 76s59.667 28.5 95 28.5c51.333 0 94.333 -19.667 129 -59s55.667 -91 63 -155l8 -73h60v-104zM174.001 124.5c13.333 -13.667 34.666 -20.5 63.999 -20.5h112l-7 61c-4 39.333 -14.667 69.5 -32 90.5s-39.666 31.5 -66.999 31.5
c-28 0 -50 -10 -66 -30s-24 -43.667 -24 -71s6.66699 -47.833 20 -61.5zM290.001 467l-5 -1l-159 -38l-11 52l78 19c-11.333 12 -19 27.333 -23 46c-2 8 -3 16 -3 24c0 28 9.66699 52 29 72s43 30 71 30c17.333 0.666992 44.333 -2.66602 81 -9.99902l-9 -52
c-29.333 5.33301 -52.333 8 -69 8c-16 0 -29.167 -4.66699 -39.5 -14s-15.5 -21 -15.5 -35c0 -15.333 6.16699 -27.833 18.5 -37.5s25.833 -13.834 40.5 -12.501l108 26l12 -52z" />
    <glyph glyph-name="uniFE88" unicode="&#x625;" horiz-adv-x="275" arabic-form="final" 
d="M164 20c-26 13.333 -45 34.832 -57 64.499s-19 70.834 -21 123.501l-18 460l93 4l18 -464c0.666992 -31.333 3.16699 -54 7.5 -68s12.5 -23.5 24.5 -28.5s31.667 -7.5 59 -7.5h10v-104h-10c-44.667 0 -80 6.66699 -106 20zM176 -241.001l-5 -1l-159 -38l-11 52l78 19
c-11.333 12 -19 27.333 -23 46c-2 8 -3 16 -3 24c0 28 9.66699 52 29 72s43 30 71 30c17.333 0.666992 44.333 -2.66602 81 -9.99902l-9 -52c-29.333 5.33301 -52.333 8 -69 8c-16 0 -29.167 -4.66699 -39.5 -14s-15.5 -21 -15.5 -35c0 -15.333 6.16699 -27.833 18.5 -37.5
s25.833 -13.834 40.5 -12.501l108 26l12 -52z" />
    <glyph glyph-name="uniFE8A" unicode="&#x626;" horiz-adv-x="690" arabic-form="final" 
d="M695 0c-23.333 0 -45.6699 0.99707 -67.0029 2.99707c2 -4 3 -8 3 -12c1.33301 -13.333 2 -22.666 2 -27.999c0 -53.333 -20.333 -95.166 -61 -125.499s-101 -54.833 -181 -73.5c-32.667 -7.33301 -62.334 -11 -89.001 -11c-52 0 -97 11.667 -135 35s-67 56.333 -87 99
s-30 92.334 -30 149.001c0 64 12.667 132 38 204l88 -35c-22 -62 -33 -119 -33 -171c0 -56 13.833 -99.5 41.5 -130.5s66.834 -46.5 117.501 -46.5c23.333 0 46 2.66699 68 8c43.333 10 76.333 18.833 99 26.5s40.334 17.5 53.001 29.5s19 27.667 19 47
c0 4 -0.666992 10.667 -2 20c-3.33301 17.333 -31.666 36.333 -84.999 57l-27 9l-44 14l29 98c5.33301 -2 17 -5.33301 35 -10c71.333 -20.667 122.833 -34.5 154.5 -41.5s62.834 -10.5 93.501 -10.5v-104zM392.996 261.997l-5 -1l-159 -38l-11 52l78 19
c-11.333 12 -19 27.333 -23 46c-2 8 -3 16 -3 24c0 28 9.66699 52 29 72s43 30 71 30c17.333 0.666992 44.333 -2.66602 81 -9.99902l-9 -52c-29.333 5.33301 -52.333 8 -69 8c-16 0 -29.167 -4.66699 -39.5 -14s-15.5 -21 -15.5 -35c0 -15.333 6.16699 -27.833 18.5 -37.5
s25.833 -13.834 40.5 -12.501l108 26l12 -52z" />
    <glyph glyph-name="uniFE8B" unicode="&#x626;" horiz-adv-x="318" arabic-form="initial" 
d="M74 104c32 0 56.833 5.33301 74.5 16s26.5 29 26.5 55c0 13.333 -2.33301 28 -7 44l-40 149l90 26l40 -149c6.66699 -24 10 -47.333 10 -70c0 -54.667 -18.333 -97.5 -55 -128.5s-83 -46.5 -139 -46.5h-79v104h79zM185 476l-5 -1l-159 -38l-11 52l78 19
c-11.333 12 -19 27.333 -23 46c-2 8 -3 16 -3 24c0 28 9.66699 52 29 72s43 30 71 30c17.333 0.666992 44.333 -2.66602 81 -9.99902l-9 -52c-29.333 5.33301 -52.333 8 -69 8c-16 0 -29.167 -4.66699 -39.5 -14s-15.5 -21 -15.5 -35c0 -15.333 6.16699 -27.833 18.5 -37.5
s25.833 -13.834 40.5 -12.501l108 26l12 -52z" />
    <glyph glyph-name="uniFE8C" unicode="&#x626;" horiz-adv-x="309" arabic-form="medial" 
d="M253 120c11.333 -10.667 31.6641 -16 60.9971 -16v-104c-54.667 0 -96.667 15 -126 45c-31.333 -30 -74.666 -45 -129.999 -45h-63v104h63c30.667 0 52.334 5.16699 65.001 15.5s18.334 26.5 17.001 48.5v2l-11 123l92 9l11 -123v-1c2.66699 -28 9.66699 -47.333 21 -58z
M185.998 405l-5 -1l-159 -38l-11 52l78 19c-11.333 12 -19 27.333 -23 46c-2 8 -3 16 -3 24c0 28 9.66699 52 29 72s43 30 71 30c17.333 0.666992 44.333 -2.66602 81 -9.99902l-9 -52c-29.333 5.33301 -52.333 8 -69 8c-16 0 -29.167 -4.66699 -39.5 -14
s-15.5 -21 -15.5 -35c0 -15.333 6.16699 -27.833 18.5 -37.5s25.833 -13.834 40.5 -12.501l108 26l12 -52z" />
    <glyph glyph-name="uniFE8E" unicode="&#x627;" horiz-adv-x="275" arabic-form="final" 
d="M164 20c-26 13.333 -45 34.832 -57 64.499s-19 70.834 -21 123.501l-18 460l93 4l18 -464c0.666992 -31.333 3.16699 -54 7.5 -68s12.5 -23.5 24.5 -28.5s31.667 -7.5 59 -7.5h10v-104h-10c-44.667 0 -80 6.66699 -106 20z" />
    <glyph glyph-name="uniFE90" unicode="&#x628;" horiz-adv-x="960" arabic-form="final" 
d="M904 120c11.333 -10.667 31.667 -16 61 -16v-104c-55.333 -0 -97.333 15.333 -126 46c-32.667 -30.667 -76 -46 -130 -46h-241v104h241c30 0 51.5 5.16699 64.5 15.5s18.833 26.5 17.5 48.5v2l-11 123l92 9l11 -123v-1c2.66699 -28 9.66699 -47.333 21 -58zM294.001 2.5
c-39.333 1.66699 -69.001 4.33301 -89.001 8s-39 9.16699 -57 16.5c-31.333 14 -55.333 34.333 -72 61s-25 57.667 -25 93c0 21.333 3 44 9 68l37 143l89 -26l-38 -147c-3.33301 -11.333 -5 -23.666 -5 -36.999c0 -14.667 3.33301 -26.667 10 -36s17.334 -17.333 32.001 -24
c16 -6.66699 40.833 -11.334 74.5 -14.001s103.167 -4 208.5 -4v-104c-76.667 -0 -134.667 0.833008 -174 2.5zM399 -142.001l78 77l77 -77l-77 -78z" />
    <glyph glyph-name="uniFE91" unicode="&#x628;" horiz-adv-x="318" arabic-form="initial" 
d="M74 104c32 0 56.833 5.33301 74.5 16s26.5 29 26.5 55c0 13.333 -2.33301 28 -7 44l-40 149l90 26l40 -149c6.66699 -24 10 -47.333 10 -70c0 -54.667 -18.333 -97.5 -55 -128.5s-83 -46.5 -139 -46.5h-79v104h79zM-11 -143l78 77l77 -77l-77 -78z" />
    <glyph glyph-name="uniFE92" unicode="&#x628;" horiz-adv-x="309" arabic-form="medial" 
d="M253 120c11.333 -10.667 31.6641 -16 60.9971 -16v-104c-54.667 0 -96.667 15 -126 45c-31.333 -30 -74.666 -45 -129.999 -45h-63v104h63c30.667 0 52.334 5.16699 65.001 15.5s18.334 26.5 17.001 48.5v2l-11 123l92 9l11 -123v-1c2.66699 -28 9.66699 -47.333 21 -58z
M47.998 -142l78 77l77 -77l-77 -78z" />
    <glyph glyph-name="uniFE94" unicode="&#x629;" horiz-adv-x="526" arabic-form="final" 
d="M531 104l0.000976562 -104h-19c-34.667 0 -66.834 8.16699 -96.501 24.5s-53.5 38.5 -71.5 66.5c-50 -8.66699 -86 -14.334 -108 -17.001c-4 -0.666992 -10 -1 -18 -1c-33.333 0 -65.333 11.833 -96 35.5s-51.667 52.167 -63 85.5c-6 18 -9 36.333 -9 55
c0 37.333 10.833 71.833 32.5 103.5s50.167 53.167 85.5 64.5l141 47v42h93v-297c0 -29.333 10.667 -54.166 32 -74.499s47.333 -30.5 78 -30.5h19zM310.001 190c-0.666992 4 -1.00098 10.333 -1.00098 19v153l-112 -39c-17.333 -5.33301 -30.666 -14.5 -39.999 -27.5
s-14 -27.5 -14 -43.5c0 -6.66699 1 -13.667 3 -21c4 -14.667 12.833 -27.5 26.5 -38.5s28.5 -16.5 44.5 -16.5c5.33301 0 9.33301 0.333008 12 1zM99 609l69 69l69 -69l-69 -68zM281 609l69 69l69 -69l-69 -68z" />
    <glyph glyph-name="uniFE96" unicode="&#x62a;" horiz-adv-x="960" arabic-form="final" 
d="M904 120c11.333 -10.667 31.667 -16 61 -16v-104c-55.333 -0 -97.333 15.333 -126 46c-32.667 -30.667 -76 -46 -130 -46h-241v104h241c30 0 51.5 5.16699 64.5 15.5s18.833 26.5 17.5 48.5v2l-11 123l92 9l11 -123v-1c2.66699 -28 9.66699 -47.333 21 -58zM294.001 2.5
c-39.333 1.66699 -69.001 4.33301 -89.001 8s-39 9.16699 -57 16.5c-31.333 14 -55.333 34.333 -72 61s-25 57.667 -25 93c0 21.333 3 44 9 68l37 143l89 -26l-38 -147c-3.33301 -11.333 -5 -23.666 -5 -36.999c0 -14.667 3.33301 -26.667 10 -36s17.334 -17.333 32.001 -24
c16 -6.66699 40.833 -11.334 74.5 -14.001s103.167 -4 208.5 -4v-104c-76.667 -0 -134.667 0.833008 -174 2.5zM312 401.999l69 69l69 -69l-69 -68zM494 401.999l69 69l69 -69l-69 -68z" />
    <glyph glyph-name="uniFE97" unicode="&#x62a;" horiz-adv-x="387" arabic-form="initial" 
d="M143 104c31.333 0 55.832 5.50098 73.499 16.501s26.5 29.5 26.5 55.5c0 12.667 -2.33301 27 -7 43l-39 149l90 26l40 -154c6.66699 -22.667 10 -45.334 10 -68.001c0 -36 -8.66699 -67 -26 -93s-40.666 -45.667 -69.999 -59s-62 -20 -98 -20h-148v104h148z
M53.999 535.001l69 69l69 -69l-69 -68zM235.999 535.001l69 69l69 -69l-69 -68z" />
    <glyph glyph-name="uniFE98" unicode="&#x62a;" horiz-adv-x="407" arabic-form="medial" 
d="M351 120c11.333 -10.667 31.666 -16.001 60.999 -16.001v-104c-55.333 0 -97.333 15.333 -126 46c-32.667 -30.667 -76 -46 -130 -46h-161v104h161c30.667 0 52.334 5.33301 65.001 16s18 27.334 16 50.001l-11 123l93 9l11 -123v-1c2.66699 -28 9.66699 -47.333 21 -58z
M38 457.999l69 69l69 -69l-69 -68zM220 457.999l69 69l69 -69l-69 -68z" />
    <glyph glyph-name="uniFE9A" unicode="&#x62b;" horiz-adv-x="960" arabic-form="final" 
d="M904 120c11.333 -10.667 31.667 -16 61 -16v-104c-55.333 -0 -97.333 15.333 -126 46c-32.667 -30.667 -76 -46 -130 -46h-241v104h241c30 0 51.5 5.16699 64.5 15.5s18.833 26.5 17.5 48.5v2l-11 123l92 9l11 -123v-1c2.66699 -28 9.66699 -47.333 21 -58zM294.001 2.5
c-39.333 1.66699 -69.001 4.33301 -89.001 8s-39 9.16699 -57 16.5c-31.333 14 -55.333 34.333 -72 61s-25 57.667 -25 93c0 21.333 3 44 9 68l37 143l89 -26l-38 -147c-3.33301 -11.333 -5 -23.666 -5 -36.999c0 -14.667 3.33301 -26.667 10 -36s17.334 -17.333 32.001 -24
c16 -6.66699 40.833 -11.334 74.5 -14.001s103.167 -4 208.5 -4v-104c-76.667 -0 -134.667 0.833008 -174 2.5zM414 499.999l59 58l58 -58l-58 -59zM313 369.999l69 69l69 -69l-69 -68zM495 369.999l69 69l69 -69l-69 -68z" />
    <glyph glyph-name="uniFE9B" unicode="&#x62b;" horiz-adv-x="387" arabic-form="initial" 
d="M143 104c31.333 0 55.832 5.50098 73.499 16.501s26.5 29.5 26.5 55.5c0 12.667 -2.33301 27 -7 43l-39 149l90 26l40 -154c6.66699 -22.667 10 -45.334 10 -68.001c0 -36 -8.66699 -67 -26 -93s-40.666 -45.667 -69.999 -59s-62 -20 -98 -20h-148v104h148z
M124.999 664.001l59 58l58 -58l-58 -59zM23.999 534.001l69 69l69 -69l-69 -68zM205.999 534.001l69 69l69 -69l-69 -68z" />
    <glyph glyph-name="uniFE9C" unicode="&#x62b;" horiz-adv-x="407" arabic-form="medial" 
d="M351 120c11.333 -10.667 31.666 -16.001 60.999 -16.001v-104c-55.333 0 -97.333 15.333 -126 46c-32.667 -30.667 -76 -46 -130 -46h-161v104h161c30.667 0 52.334 5.33301 65.001 16s18 27.334 16 50.001l-11 123l93 9l11 -123v-1c2.66699 -28 9.66699 -47.333 21 -58z
M126 587.999l59 58l58 -58l-58 -59zM25 457.999l69 69l69 -69l-69 -68zM207 457.999l69 69l69 -69l-69 -68z" />
    <glyph glyph-name="uniFE9E" unicode="&#x62c;" horiz-adv-x="733" arabic-form="final" 
d="M738 104l0.000976562 -103.999h-37c-45.333 0 -85.333 13.5 -120 40.5s-58.667 62.167 -72 105.5l-196 -54c-60.667 -16 -104.167 -40 -130.5 -72s-39.5 -67 -39.5 -105c0 -12.667 1.66699 -26.334 5 -41.001c10 -38 31.167 -68.5 63.5 -91.5s69.166 -34.5 110.499 -34.5
c19.333 0 37.333 2.33301 54 7l254 71l24 -100l-258 -72c-25.333 -6 -50.333 -9 -75 -9c-62 0 -117 18 -165 54s-80 84.333 -96 145c-6.66699 25.333 -10 49.666 -10 72.999c0 60.667 19.667 116.334 59 167.001s99.333 86.667 180 108l253 66l-203 106
c-16.667 9.33301 -35.334 14 -56.001 14c-20 0 -38.667 -5 -56 -15s-31.333 -24.667 -42 -44l-18 -31l-80 50l19 35c20.667 35.333 46.334 62.333 77.001 81s63.334 28 98.001 28c35.333 0 69.666 -9.33301 102.999 -28l272 -152l-13 -120l-43 -12
c8 -20 20.833 -36 38.5 -48s38.5 -18 62.5 -18h37zM307.001 -67.999l78 77l77 -77l-77 -78z" />
    <glyph glyph-name="uniFE9F" unicode="&#x62c;" horiz-adv-x="654" arabic-form="initial" 
d="M604 230l-13 -120l-293 -81c-46.667 -12.667 -92.5 -20.667 -137.5 -24s-98.5 -5 -160.5 -5h-5v104h5c60 0 110.333 1.33301 151 4s82 9.66699 124 21l220 57l-189 106c-18 10 -36.667 15 -56 15c-20 0 -38.833 -5.16699 -56.5 -15.5s-31.834 -25.166 -42.501 -44.499
l-18 -31l-80 50l19 35c20 35.333 45.333 62.666 76 81.999s63.334 29 98.001 29c35.333 0 70 -10 104 -30zM232 -137l78 77l77 -77l-77 -78z" />
    <glyph glyph-name="uniFEA0" unicode="&#x62c;" horiz-adv-x="677" arabic-form="medial" 
d="M682 104v-103.998h-65c-32.667 0 -62.5 9.16699 -89.5 27.5s-47.167 42.166 -60.5 71.499l-170 -54c-97.333 -30 -196.333 -45 -297 -45h-5v104h5c86 0 176 13.333 270 40l225 64l-195 97c-18 10 -36.333 15 -55 15c-19.333 0 -37.666 -5.33301 -54.999 -16
s-31.333 -25.334 -42 -44.001l-18 -32l-81 50l19 35c22 36 48.167 63.333 78.5 82s62.5 28 96.5 28c35.333 0 69.666 -9.33301 102.999 -28l257 -140l-15 -118l-28 -9c14.667 -16 33.667 -24 57 -24h65zM232 -136.998l78 77l77 -77l-77 -78z" />
    <glyph glyph-name="uniFEA2" unicode="&#x62d;" horiz-adv-x="733" arabic-form="final" 
d="M738 104l0.000976562 -103.999h-37c-45.333 0 -85.333 13.5 -120 40.5s-58.667 62.167 -72 105.5l-196 -54c-60.667 -16 -104.167 -40 -130.5 -72s-39.5 -67 -39.5 -105c0 -12.667 1.66699 -26.334 5 -41.001c10 -38 31.167 -68.5 63.5 -91.5s69.166 -34.5 110.499 -34.5
c19.333 0 37.333 2.33301 54 7l254 71l24 -100l-258 -72c-25.333 -6 -50.333 -9 -75 -9c-62 0 -117 18 -165 54s-80 84.333 -96 145c-6.66699 25.333 -10 49.666 -10 72.999c0 60.667 19.667 116.334 59 167.001s99.333 86.667 180 108l253 66l-203 106
c-16.667 9.33301 -35.334 14 -56.001 14c-20 0 -38.667 -5 -56 -15s-31.333 -24.667 -42 -44l-18 -31l-80 50l19 35c20.667 35.333 46.334 62.333 77.001 81s63.334 28 98.001 28c35.333 0 69.666 -9.33301 102.999 -28l272 -152l-13 -120l-43 -12
c8 -20 20.833 -36 38.5 -48s38.5 -18 62.5 -18h37z" />
    <glyph glyph-name="uniFEA3" unicode="&#x62d;" horiz-adv-x="654" arabic-form="initial" 
d="M604 230l-13 -120l-293 -81c-46.667 -12.667 -92.5 -20.667 -137.5 -24s-98.5 -5 -160.5 -5h-5v104h5c60 0 110.333 1.33301 151 4s82 9.66699 124 21l220 57l-189 106c-18 10 -36.667 15 -56 15c-20 0 -38.833 -5.16699 -56.5 -15.5s-31.834 -25.166 -42.501 -44.499
l-18 -31l-80 50l19 35c20 35.333 45.333 62.666 76 81.999s63.334 29 98.001 29c35.333 0 70 -10 104 -30z" />
    <glyph glyph-name="uniFEA4" unicode="&#x62d;" horiz-adv-x="677" arabic-form="medial" 
d="M682 104v-103.998h-65c-32.667 0 -62.5 9.16699 -89.5 27.5s-47.167 42.166 -60.5 71.499l-170 -54c-97.333 -30 -196.333 -45 -297 -45h-5v104h5c86 0 176 13.333 270 40l225 64l-195 97c-18 10 -36.333 15 -55 15c-19.333 0 -37.666 -5.33301 -54.999 -16
s-31.333 -25.334 -42 -44.001l-18 -32l-81 50l19 35c22 36 48.167 63.333 78.5 82s62.5 28 96.5 28c35.333 0 69.666 -9.33301 102.999 -28l257 -140l-15 -118l-28 -9c14.667 -16 33.667 -24 57 -24h65z" />
    <glyph glyph-name="uniFEA6" unicode="&#x62e;" horiz-adv-x="733" arabic-form="final" 
d="M738 104l0.000976562 -103.999h-37c-45.333 0 -85.333 13.5 -120 40.5s-58.667 62.167 -72 105.5l-196 -54c-60.667 -16 -104.167 -40 -130.5 -72s-39.5 -67 -39.5 -105c0 -12.667 1.66699 -26.334 5 -41.001c10 -38 31.167 -68.5 63.5 -91.5s69.166 -34.5 110.499 -34.5
c19.333 0 37.333 2.33301 54 7l254 71l24 -100l-258 -72c-25.333 -6 -50.333 -9 -75 -9c-62 0 -117 18 -165 54s-80 84.333 -96 145c-6.66699 25.333 -10 49.666 -10 72.999c0 60.667 19.667 116.334 59 167.001s99.333 86.667 180 108l253 66l-203 106
c-16.667 9.33301 -35.334 14 -56.001 14c-20 0 -38.667 -5 -56 -15s-31.333 -24.667 -42 -44l-18 -31l-80 50l19 35c20.667 35.333 46.334 62.333 77.001 81s63.334 28 98.001 28c35.333 0 69.666 -9.33301 102.999 -28l272 -152l-13 -120l-43 -12
c8 -20 20.833 -36 38.5 -48s38.5 -18 62.5 -18h37zM205.001 613.001l78 77l77 -77l-77 -78z" />
    <glyph glyph-name="uniFEA7" unicode="&#x62e;" horiz-adv-x="654" arabic-form="initial" 
d="M604 230l-13 -120l-293 -81c-46.667 -12.667 -92.5 -20.667 -137.5 -24s-98.5 -5 -160.5 -5h-5v104h5c60 0 110.333 1.33301 151 4s82 9.66699 124 21l220 57l-189 106c-18 10 -36.667 15 -56 15c-20 0 -38.833 -5.16699 -56.5 -15.5s-31.834 -25.166 -42.501 -44.499
l-18 -31l-80 50l19 35c20 35.333 45.333 62.666 76 81.999s63.334 29 98.001 29c35.333 0 70 -10 104 -30zM171 562l78 77l77 -77l-77 -78z" />
    <glyph glyph-name="uniFEA8" unicode="&#x62e;" horiz-adv-x="677" arabic-form="medial" 
d="M682 104v-103.998h-65c-32.667 0 -62.5 9.16699 -89.5 27.5s-47.167 42.166 -60.5 71.499l-170 -54c-97.333 -30 -196.333 -45 -297 -45h-5v104h5c86 0 176 13.333 270 40l225 64l-195 97c-18 10 -36.333 15 -55 15c-19.333 0 -37.666 -5.33301 -54.999 -16
s-31.333 -25.334 -42 -44.001l-18 -32l-81 50l19 35c22 36 48.167 63.333 78.5 82s62.5 28 96.5 28c35.333 0 69.666 -9.33301 102.999 -28l257 -140l-15 -118l-28 -9c14.667 -16 33.667 -24 57 -24h65zM170 562.002l78 77l77 -77l-77 -78z" />
    <glyph glyph-name="uniFEAA" unicode="&#x62f;" horiz-adv-x="588" arabic-form="final" 
d="M593 104v-104.002h-49c-44 0 -80 17.333 -108 52c-33.333 -34.667 -84.333 -52 -153 -52h-47c-50.667 0 -91.167 11 -121.5 33s-46.833 50.333 -49.5 85c-2.66699 12.667 -4 34.334 -4 65.001h86c0 -19.333 1 -35 3 -47c2.66699 -12 9.33398 -20.333 20.001 -25
s27.334 -7 50.001 -7h75c59.333 0 89 17.667 89 53c0 6.66699 -1 13.334 -3 20.001l-1 5l-75 293l91 25l74 -295c9.33301 -37.333 18.666 -63.5 27.999 -78.5s24.666 -22.5 45.999 -22.5h49z" />
    <glyph glyph-name="uniFEAC" unicode="&#x630;" horiz-adv-x="588" arabic-form="final" 
d="M593 104v-104.002h-49c-44 0 -80 17.333 -108 52c-33.333 -34.667 -84.333 -52 -153 -52h-47c-50.667 0 -91.167 11 -121.5 33s-46.833 50.333 -49.5 85c-2.66699 12.667 -4 34.334 -4 65.001h86c0 -19.333 1 -35 3 -47c2.66699 -12 9.33398 -20.333 20.001 -25
s27.334 -7 50.001 -7h75c59.333 0 89 17.667 89 53c0 6.66699 -1 13.334 -3 20.001l-1 5l-75 293l91 25l74 -295c9.33301 -37.333 18.666 -63.5 27.999 -78.5s24.666 -22.5 45.999 -22.5h49zM263 630.998l78 77l77 -77l-77 -78z" />
    <glyph glyph-name="uniFEAE" unicode="&#x631;" horiz-adv-x="336" arabic-form="final" 
d="M341 104l0.00195312 -103.999h-7c-16.667 0 -30.334 1.33301 -41.001 4c0.666992 -6.66699 1 -16.334 1 -29.001c0 -45.333 -11 -82.333 -33 -111s-51.833 -51.667 -89.5 -69s-86.834 -34.333 -147.501 -51l-24 100l22 6c47.333 12.667 82.5 23.5 105.5 32.5
s41.167 21 54.5 36s20 35.5 20 61.5c0 4.66699 -0.666992 13 -2 25l-40 288l92 14l13 -100c5.33301 -30 10.666 -52.167 15.999 -66.5s11.833 -24 19.5 -29s18.834 -7.5 33.501 -7.5h7z" />
    <glyph glyph-name="uniFEB0" unicode="&#x632;" horiz-adv-x="336" arabic-form="final" 
d="M341 104l0.00195312 -103.999h-7c-16.667 0 -30.334 1.33301 -41.001 4c0.666992 -6.66699 1 -16.334 1 -29.001c0 -45.333 -11 -82.333 -33 -111s-51.833 -51.667 -89.5 -69s-86.834 -34.333 -147.501 -51l-24 100l22 6c47.333 12.667 82.5 23.5 105.5 32.5
s41.167 21 54.5 36s20 35.5 20 61.5c0 4.66699 -0.666992 13 -2 25l-40 288l92 14l13 -100c5.33301 -30 10.666 -52.167 15.999 -66.5s11.833 -24 19.5 -29s18.834 -7.5 33.501 -7.5h7zM116.002 471.001l78 77l77 -77l-77 -78z" />
    <glyph glyph-name="uniFEB2" unicode="&#x633;" horiz-adv-x="1251" arabic-form="final" 
d="M1181.5 129.5c21.667 -17 46.5039 -25.499 74.5039 -25.499v-104c-28.667 0 -55.167 5.5 -79.5 16.5s-45.5 26.5 -63.5 46.5c-14.667 -19.333 -33.667 -34.666 -57 -45.999s-50 -17 -80 -17c-54 0 -96 18.333 -126 55c-32 -36.667 -73.333 -55 -124 -55
c-33.333 0 -63 9.33301 -89 28c2 -14.667 3 -28.667 3 -42c0 -44.667 -10.333 -81.334 -31 -110.001s-48.667 -51.334 -84 -68.001s-80 -31.334 -134 -44.001c-32.667 -7.33301 -62.334 -11 -89.001 -11c-52 0 -97 11.667 -135 35s-67 56.333 -87 99s-30 92.334 -30 149.001
c0 64 12.667 132 38 204l88 -35c-22.667 -64 -34 -121.333 -34 -172c0 -56 13.833 -99.333 41.5 -130s67.167 -46 118.5 -46c23.333 0 46 2.66699 68 8c46.667 10.667 81.167 20 103.5 28s40 19.333 53 34s19.5 35.667 19.5 63c0 5.33301 -0.666992 14.666 -2 27.999
l-40 274l91 15l16 -107c7.33301 -35.333 19.666 -60.166 36.999 -74.499s42.666 -21.5 75.999 -21.5c31.333 0 52.666 6.66699 63.999 20s17 30.333 17 51v123h88v-123c0 -17.333 5 -33.333 15 -48s30.667 -22 62 -22c29.333 0 50.833 5.16699 64.5 15.5
s20.5 23.5 20.5 39.5c0 7.33301 -0.666992 13 -2 17l-33 123l83 25l33 -123l1 -5c8 -28 22.833 -50.5 44.5 -67.5z" />
    <glyph glyph-name="uniFEB3" unicode="&#x633;" horiz-adv-x="758" arabic-form="initial" 
d="M708 173c0 -35.333 -7.83301 -66.167 -23.5 -92.5s-36.667 -46.333 -63 -60s-55.833 -20.5 -88.5 -20.5c-50 -0 -90.333 17.333 -121 52c-30 -34.667 -71.667 -52 -125 -52c-24.667 0 -47.167 4.66699 -67.5 14s-37.833 22.333 -52.5 39
c-30.667 -35.333 -72.334 -53 -125.001 -53h-47v104h47c31.333 0 52.666 6 63.999 18s17.333 27.667 18 47v6v124h87v-124v-6c0.666992 -20.667 7.33398 -36.667 20.001 -48s31.334 -17 56.001 -17c32.667 0 54.5 6.66699 65.5 20s16.5 30.333 16.5 51v124h87v-124v-6
c0 -20.667 6.5 -36.667 19.5 -48s32.167 -17 57.5 -17c54.667 0 82 23 82 69c0 14 -2.33301 29.333 -7 46l-40 149l90 26l40 -149c6.66699 -24.667 10 -48.667 10 -72z" />
    <glyph glyph-name="uniFEB4" unicode="&#x633;" horiz-adv-x="792" arabic-form="medial" 
d="M723 129c21.333 -16.667 46.002 -25.002 74.002 -25.002v-104c-28.667 0 -55 5.5 -79 16.5s-45 26.5 -63 46.5c-14.667 -19.333 -33.667 -34.666 -57 -45.999s-50 -17 -80 -17c-50.667 0 -91.667 19.333 -123 58c-30.667 -38.667 -73.667 -58 -129 -58
c-50 0 -89.667 19.333 -119 58c-32 -38.667 -74.333 -58 -127 -58h-25v104h25c32 0 53.667 6.66699 65 20s17 30.333 17 51v123h87v-123c0 -14.667 5 -30.167 15 -46.5s30.667 -24.5 62 -24.5c32 0 53.5 6.5 64.5 19.5s16.5 30.167 16.5 51.5v123h87v-123v-1
c0 -13.333 5.16699 -28.166 15.5 -44.499s31.166 -24.5 62.499 -24.5c29.333 0 50.833 5 64.5 15s20.5 23 20.5 39c0 6 -1 12 -3 18l-33 123l84 25l33 -123l2 -7c7.33301 -27.333 21.666 -49.333 42.999 -66z" />
    <glyph glyph-name="uniFEB6" unicode="&#x634;" horiz-adv-x="1251" arabic-form="final" 
d="M1181.5 129.5c21.667 -17 46.5039 -25.499 74.5039 -25.499v-104c-28.667 0 -55.167 5.5 -79.5 16.5s-45.5 26.5 -63.5 46.5c-14.667 -19.333 -33.667 -34.666 -57 -45.999s-50 -17 -80 -17c-54 0 -96 18.333 -126 55c-32 -36.667 -73.333 -55 -124 -55
c-33.333 0 -63 9.33301 -89 28c2 -14.667 3 -28.667 3 -42c0 -44.667 -10.333 -81.334 -31 -110.001s-48.667 -51.334 -84 -68.001s-80 -31.334 -134 -44.001c-32.667 -7.33301 -62.334 -11 -89.001 -11c-52 0 -97 11.667 -135 35s-67 56.333 -87 99s-30 92.334 -30 149.001
c0 64 12.667 132 38 204l88 -35c-22.667 -64 -34 -121.333 -34 -172c0 -56 13.833 -99.333 41.5 -130s67.167 -46 118.5 -46c23.333 0 46 2.66699 68 8c46.667 10.667 81.167 20 103.5 28s40 19.333 53 34s19.5 35.667 19.5 63c0 5.33301 -0.666992 14.666 -2 27.999
l-40 274l91 15l16 -107c7.33301 -35.333 19.666 -60.166 36.999 -74.499s42.666 -21.5 75.999 -21.5c31.333 0 52.666 6.66699 63.999 20s17 30.333 17 51v123h88v-123c0 -17.333 5 -33.333 15 -48s30.667 -22 62 -22c29.333 0 50.833 5.16699 64.5 15.5
s20.5 23.5 20.5 39.5c0 7.33301 -0.666992 13 -2 17l-33 123l83 25l33 -123l1 -5c8 -28 22.833 -50.5 44.5 -67.5zM791.004 596.001l59 58l58 -58l-58 -59zM690.004 466.001l69 69l69 -69l-69 -68zM872.004 466.001l69 69l69 -69l-69 -68z" />
    <glyph glyph-name="uniFEB7" unicode="&#x634;" horiz-adv-x="758" arabic-form="initial" 
d="M708 173c0 -35.333 -7.83301 -66.167 -23.5 -92.5s-36.667 -46.333 -63 -60s-55.833 -20.5 -88.5 -20.5c-50 -0 -90.333 17.333 -121 52c-30 -34.667 -71.667 -52 -125 -52c-24.667 0 -47.167 4.66699 -67.5 14s-37.833 22.333 -52.5 39
c-30.667 -35.333 -72.334 -53 -125.001 -53h-47v104h47c31.333 0 52.666 6 63.999 18s17.333 27.667 18 47v6v124h87v-124v-6c0.666992 -20.667 7.33398 -36.667 20.001 -48s31.334 -17 56.001 -17c32.667 0 54.5 6.66699 65.5 20s16.5 30.333 16.5 51v124h87v-124v-6
c0 -20.667 6.5 -36.667 19.5 -48s32.167 -17 57.5 -17c54.667 0 82 23 82 69c0 14 -2.33301 29.333 -7 46l-40 149l90 26l40 -149c6.66699 -24.667 10 -48.667 10 -72zM352 597.999l59 58l58 -58l-58 -59zM251 467.999l69 69l69 -69l-69 -68zM433 467.999l69 69l69 -69
l-69 -68z" />
    <glyph glyph-name="uniFEB8" unicode="&#x634;" horiz-adv-x="792" arabic-form="medial" 
d="M723 129c21.333 -16.667 46.002 -25.002 74.002 -25.002v-104c-28.667 0 -55 5.5 -79 16.5s-45 26.5 -63 46.5c-14.667 -19.333 -33.667 -34.666 -57 -45.999s-50 -17 -80 -17c-50.667 0 -91.667 19.333 -123 58c-30.667 -38.667 -73.667 -58 -129 -58
c-50 0 -89.667 19.333 -119 58c-32 -38.667 -74.333 -58 -127 -58h-25v104h25c32 0 53.667 6.66699 65 20s17 30.333 17 51v123h87v-123c0 -14.667 5 -30.167 15 -46.5s30.667 -24.5 62 -24.5c32 0 53.5 6.5 64.5 19.5s16.5 30.167 16.5 51.5v123h87v-123v-1
c0 -13.333 5.16699 -28.166 15.5 -44.499s31.166 -24.5 62.499 -24.5c29.333 0 50.833 5 64.5 15s20.5 23 20.5 39c0 6 -1 12 -3 18l-33 123l84 25l33 -123l2 -7c7.33301 -27.333 21.666 -49.333 42.999 -66zM337.002 580.998l59 58l58 -58l-58 -59zM236.002 450.998l69 69
l69 -69l-69 -68zM418.002 450.998l69 69l69 -69l-69 -68z" />
    <glyph glyph-name="uniFEBA" unicode="&#x635;" horiz-adv-x="1281" arabic-form="final" 
d="M1286 104v-104h-14c-26.667 -0 -51 4.83301 -73 14.5s-40.333 20.167 -55 31.5c-16.667 -14.667 -35.5 -26 -56.5 -34s-42.833 -12 -65.5 -12h-311h-21c-20 -0 -37 3.33301 -51 10c0.666992 -5.33301 1 -13.333 1 -24c0 -44.667 -10.167 -81.5 -30.5 -110.5
s-48.333 -51.833 -84 -68.5s-80.5 -31 -134.5 -43c-32.667 -7.33301 -62.334 -11 -89.001 -11c-52 0 -97 11.667 -135 35s-67 56.333 -87 99s-30 92.334 -30 149.001c0 64 12.667 132 38 204l88 -35c-22.667 -64 -34 -121.333 -34 -172c0 -56 13.833 -99.333 41.5 -130
s67.167 -46 118.5 -46c23.333 0 46 2.66699 68 8c46.667 10.667 81.167 20 103.5 28s40 19.333 53 34s19.5 35.667 19.5 63c0 5.33301 -0.666992 14.666 -2 27.999l-40 274l91 15l9 -61c6 -38.667 12.333 -68 19 -88s15 -34 25 -42s23.333 -12 40 -12h23h2l69 94
c34.667 48.667 63 85.667 85 111s45.5 45.333 70.5 60s53.167 22 84.5 22c35.333 0 67.5 -9 96.5 -27s51.833 -42.5 68.5 -73.5s25 -65.167 25 -102.5c0 -20.667 -3.66699 -41 -11 -61c20.667 -15.333 44.334 -23 71.001 -23h14zM1089.5 130
c19.667 17.333 29.502 36.665 29.502 57.998c0 28.667 -9 52.334 -27 71.001s-41.333 28 -70 28c-18.667 0 -35.834 -5 -51.501 -15s-31.334 -24.667 -47.001 -44s-37.5 -48.666 -65.5 -87.999l-26 -36h190c25.333 0 47.833 8.66699 67.5 26z" />
    <glyph glyph-name="uniFEBB" unicode="&#x635;" horiz-adv-x="783" arabic-form="initial" 
d="M640.5 364c29 -18 51.6689 -42.5029 68.002 -73.5029s24.5 -65.167 24.5 -102.5c0 -33.333 -8.66699 -64.333 -26 -93s-40.5 -51.667 -69.5 -69s-60.167 -26 -93.5 -26h-312c-40.667 0 -73.667 15.333 -99 46c-34 -29.333 -78.333 -44.666 -133 -45.999h-5v104h5
c29.333 0 52.166 5.83301 68.499 17.5s25.833 30.834 28.5 57.501l11 123l92 -9l-11 -122v-1c-2 -22 0.833008 -38.5 8.5 -49.5s19.5 -16.5 35.5 -16.5h2l69 94c34 48 62 84.833 84 110.5s45.667 45.834 71 60.501s53.666 22 84.999 22c35.333 0 67.5 -9 96.5 -27z
M611.502 129.997c19.667 17.333 29.501 36.667 29.501 58c0 28.667 -9.16699 52.334 -27.5 71.001s-41.5 28 -69.5 28c-18.667 0 -35.834 -5 -51.501 -15s-31.5 -24.833 -47.5 -44.5s-37.667 -48.834 -65 -87.501l-26 -36h190c25.333 0 47.833 8.66699 67.5 26z" />
    <glyph glyph-name="uniFEBC" unicode="&#x635;" horiz-adv-x="803" arabic-form="medial" 
d="M808 104l0.00195312 -104.003h-14c-26.667 0 -51 4.83301 -73 14.5s-40.333 20.167 -55 31.5c-16.667 -14.667 -35.5 -26 -56.5 -34s-42.833 -12 -65.5 -12h-312c-40.667 0 -73.667 15.333 -99 46c-34 -29.333 -78.333 -44.666 -133 -45.999h-5v104h5
c29.333 0 52.166 5.83301 68.499 17.5s25.833 30.834 28.5 57.501l11 123l92 -9l-11 -122v-1c-2 -22 0.833008 -38.5 8.5 -49.5s19.5 -16.5 35.5 -16.5h2l69 94c34 48 62 84.833 84 110.5s45.667 45.834 71 60.501s53.666 22 84.999 22c35.333 0 67.5 -9 96.5 -27
s51.667 -42.5 68 -73.5s24.5 -65.167 24.5 -102.5c0 -20.667 -3.66699 -41 -11 -61c22.667 -15.333 46.667 -23 72 -23h14zM611.502 129.997c19.667 17.333 29.501 36.667 29.501 58c0 28.667 -9.16699 52.334 -27.5 71.001s-41.5 28 -69.5 28
c-18.667 0 -35.834 -5 -51.501 -15s-31.5 -24.833 -47.5 -44.5s-37.667 -48.834 -65 -87.501l-26 -36h190c25.333 0 47.833 8.66699 67.5 26z" />
    <glyph glyph-name="uniFEBE" unicode="&#x636;" horiz-adv-x="1281" arabic-form="final" 
d="M1286 104v-104h-14c-26.667 -0 -51 4.83301 -73 14.5s-40.333 20.167 -55 31.5c-16.667 -14.667 -35.5 -26 -56.5 -34s-42.833 -12 -65.5 -12h-311h-21c-20 -0 -37 3.33301 -51 10c0.666992 -5.33301 1 -13.333 1 -24c0 -44.667 -10.167 -81.5 -30.5 -110.5
s-48.333 -51.833 -84 -68.5s-80.5 -31 -134.5 -43c-32.667 -7.33301 -62.334 -11 -89.001 -11c-52 0 -97 11.667 -135 35s-67 56.333 -87 99s-30 92.334 -30 149.001c0 64 12.667 132 38 204l88 -35c-22.667 -64 -34 -121.333 -34 -172c0 -56 13.833 -99.333 41.5 -130
s67.167 -46 118.5 -46c23.333 0 46 2.66699 68 8c46.667 10.667 81.167 20 103.5 28s40 19.333 53 34s19.5 35.667 19.5 63c0 5.33301 -0.666992 14.666 -2 27.999l-40 274l91 15l9 -61c6 -38.667 12.333 -68 19 -88s15 -34 25 -42s23.333 -12 40 -12h23h2l69 94
c34.667 48.667 63 85.667 85 111s45.5 45.333 70.5 60s53.167 22 84.5 22c35.333 0 67.5 -9 96.5 -27s51.833 -42.5 68.5 -73.5s25 -65.167 25 -102.5c0 -20.667 -3.66699 -41 -11 -61c20.667 -15.333 44.334 -23 71.001 -23h14zM1089.5 130
c19.667 17.333 29.502 36.665 29.502 57.998c0 28.667 -9 52.334 -27 71.001s-41.333 28 -70 28c-18.667 0 -35.834 -5 -51.501 -15s-31.334 -24.667 -47.001 -44s-37.5 -48.666 -65.5 -87.999l-26 -36h190c25.333 0 47.833 8.66699 67.5 26zM927.002 547.999l78 77l77 -77
l-77 -78z" />
    <glyph glyph-name="uniFEBF" unicode="&#x636;" horiz-adv-x="783" arabic-form="initial" 
d="M640.5 364c29 -18 51.6689 -42.5029 68.002 -73.5029s24.5 -65.167 24.5 -102.5c0 -33.333 -8.66699 -64.333 -26 -93s-40.5 -51.667 -69.5 -69s-60.167 -26 -93.5 -26h-312c-40.667 0 -73.667 15.333 -99 46c-34 -29.333 -78.333 -44.666 -133 -45.999h-5v104h5
c29.333 0 52.166 5.83301 68.499 17.5s25.833 30.834 28.5 57.501l11 123l92 -9l-11 -122v-1c-2 -22 0.833008 -38.5 8.5 -49.5s19.5 -16.5 35.5 -16.5h2l69 94c34 48 62 84.833 84 110.5s45.667 45.834 71 60.501s53.666 22 84.999 22c35.333 0 67.5 -9 96.5 -27z
M611.502 129.997c19.667 17.333 29.501 36.667 29.501 58c0 28.667 -9.16699 52.334 -27.5 71.001s-41.5 28 -69.5 28c-18.667 0 -35.834 -5 -51.501 -15s-31.5 -24.833 -47.5 -44.5s-37.667 -48.834 -65 -87.501l-26 -36h190c25.333 0 47.833 8.66699 67.5 26z
M451.003 526.998l78 77l77 -77l-77 -78z" />
    <glyph glyph-name="uniFEC0" unicode="&#x636;" horiz-adv-x="803" arabic-form="medial" 
d="M808 104l0.00195312 -104.003h-14c-26.667 0 -51 4.83301 -73 14.5s-40.333 20.167 -55 31.5c-16.667 -14.667 -35.5 -26 -56.5 -34s-42.833 -12 -65.5 -12h-312c-40.667 0 -73.667 15.333 -99 46c-34 -29.333 -78.333 -44.666 -133 -45.999h-5v104h5
c29.333 0 52.166 5.83301 68.499 17.5s25.833 30.834 28.5 57.501l11 123l92 -9l-11 -122v-1c-2 -22 0.833008 -38.5 8.5 -49.5s19.5 -16.5 35.5 -16.5h2l69 94c34 48 62 84.833 84 110.5s45.667 45.834 71 60.501s53.666 22 84.999 22c35.333 0 67.5 -9 96.5 -27
s51.667 -42.5 68 -73.5s24.5 -65.167 24.5 -102.5c0 -20.667 -3.66699 -41 -11 -61c22.667 -15.333 46.667 -23 72 -23h14zM611.502 129.997c19.667 17.333 29.501 36.667 29.501 58c0 28.667 -9.16699 52.334 -27.5 71.001s-41.5 28 -69.5 28
c-18.667 0 -35.834 -5 -51.501 -15s-31.5 -24.833 -47.5 -44.5s-37.667 -48.834 -65 -87.501l-26 -36h190c25.333 0 47.833 8.66699 67.5 26zM442.003 534.998l78 77l77 -77l-77 -78z" />
    <glyph glyph-name="uniFEC2" unicode="&#x637;" horiz-adv-x="690" arabic-form="final" 
d="M695 104l0.00195312 -103.999h-14c-40.667 0 -79.667 12.667 -117 38c-32.667 -25.333 -69.667 -38 -111 -38h-403v104h94l30 40l-20 524l93 5l15 -408c33.333 43.333 64.166 75.166 92.499 95.499s61.166 30.5 98.499 30.5c35.333 0 67.5 -9 96.5 -27
s51.667 -42.5 68 -73.5s24.5 -65.167 24.5 -102.5c0 -24.667 -5 -48.667 -15 -72c17.333 -8 35.333 -12 54 -12h14zM520.502 130.001c19.667 17.333 29.501 36.667 29.501 58c0 28.667 -9.16699 52.334 -27.5 71.001s-41.5 28 -69.5 28c-18.667 0 -35.834 -5 -51.501 -15
s-31.5 -24.833 -47.5 -44.5s-37.667 -48.834 -65 -87.501l-26 -36h190c25.333 0 47.833 8.66699 67.5 26z" />
    <glyph glyph-name="uniFEC3" unicode="&#x637;" horiz-adv-x="637" arabic-form="initial" 
d="M494.5 364c29 -18 51.6689 -42.499 68.002 -73.499s24.5 -65.167 24.5 -102.5c0 -33.333 -8.66699 -64.333 -26 -93s-40.5 -51.667 -69.5 -69s-60.167 -26 -93.5 -26h-403v104h94l30 40l-20 524l93 5l15 -408c33.333 43.333 64.166 75.166 92.499 95.499
s61.166 30.5 98.499 30.5c35.333 0 67.5 -9 96.5 -27zM465.502 130.001c19.667 17.333 29.501 36.667 29.501 58c0 28.667 -9.16699 52.334 -27.5 71.001s-41.5 28 -69.5 28c-18.667 0 -35.834 -5 -51.501 -15s-31.5 -24.833 -47.5 -44.5s-37.667 -48.834 -65 -87.501
l-26 -36h190c25.333 0 47.833 8.66699 67.5 26z" />
    <glyph glyph-name="uniFEC4" unicode="&#x637;" horiz-adv-x="657" arabic-form="medial" 
d="M662 104l0.00195312 -103.999h-14c-26.667 0 -51 4.83301 -73 14.5s-40.333 20.167 -55 31.5c-16.667 -14.667 -35.5 -26 -56.5 -34s-42.833 -12 -65.5 -12h-403v104h94l30 40l-20 524l93 5l15 -408c33.333 43.333 64.166 75.166 92.499 95.499s61.166 30.5 98.499 30.5
c35.333 0 67.5 -9 96.5 -27s51.667 -42.5 68 -73.5s24.5 -65.167 24.5 -102.5c0 -20.667 -3.66699 -41 -11 -61c23.333 -15.333 47.333 -23 72 -23h14zM465.502 130.001c19.667 17.333 29.501 36.667 29.501 58c0 28.667 -9.16699 52.334 -27.5 71.001s-41.5 28 -69.5 28
c-18.667 0 -35.834 -5 -51.501 -15s-31.5 -24.833 -47.5 -44.5s-37.667 -48.834 -65 -87.501l-26 -36h190c25.333 0 47.833 8.66699 67.5 26z" />
    <glyph glyph-name="uniFEC6" unicode="&#x638;" horiz-adv-x="690" arabic-form="final" 
d="M695 104l0.00195312 -103.999h-14c-40.667 0 -79.667 12.667 -117 38c-32.667 -25.333 -69.667 -38 -111 -38h-403v104h94l30 40l-20 524l93 5l15 -408c33.333 43.333 64.166 75.166 92.499 95.499s61.166 30.5 98.499 30.5c35.333 0 67.5 -9 96.5 -27
s51.667 -42.5 68 -73.5s24.5 -65.167 24.5 -102.5c0 -24.667 -5 -48.667 -15 -72c17.333 -8 35.333 -12 54 -12h14zM520.502 130.001c19.667 17.333 29.501 36.667 29.501 58c0 28.667 -9.16699 52.334 -27.5 71.001s-41.5 28 -69.5 28c-18.667 0 -35.834 -5 -51.501 -15
s-31.5 -24.833 -47.5 -44.5s-37.667 -48.834 -65 -87.501l-26 -36h190c25.333 0 47.833 8.66699 67.5 26zM386.003 568.002l78 77l77 -77l-77 -78z" />
    <glyph glyph-name="uniFEC7" unicode="&#x638;" horiz-adv-x="637" arabic-form="initial" 
d="M494.5 364c29 -18 51.6689 -42.499 68.002 -73.499s24.5 -65.167 24.5 -102.5c0 -33.333 -8.66699 -64.333 -26 -93s-40.5 -51.667 -69.5 -69s-60.167 -26 -93.5 -26h-403v104h94l30 40l-20 524l93 5l15 -408c33.333 43.333 64.166 75.166 92.499 95.499
s61.166 30.5 98.499 30.5c35.333 0 67.5 -9 96.5 -27zM465.502 130.001c19.667 17.333 29.501 36.667 29.501 58c0 28.667 -9.16699 52.334 -27.5 71.001s-41.5 28 -69.5 28c-18.667 0 -35.834 -5 -51.501 -15s-31.5 -24.833 -47.5 -44.5s-37.667 -48.834 -65 -87.501
l-26 -36h190c25.333 0 47.833 8.66699 67.5 26zM319.003 568.002l78 77l77 -77l-77 -78z" />
    <glyph glyph-name="uniFEC8" unicode="&#x638;" horiz-adv-x="657" arabic-form="medial" 
d="M662 104l0.00195312 -103.999h-14c-26.667 0 -51 4.83301 -73 14.5s-40.333 20.167 -55 31.5c-16.667 -14.667 -35.5 -26 -56.5 -34s-42.833 -12 -65.5 -12h-403v104h94l30 40l-20 524l93 5l15 -408c33.333 43.333 64.166 75.166 92.499 95.499s61.166 30.5 98.499 30.5
c35.333 0 67.5 -9 96.5 -27s51.667 -42.5 68 -73.5s24.5 -65.167 24.5 -102.5c0 -20.667 -3.66699 -41 -11 -61c23.333 -15.333 47.333 -23 72 -23h14zM465.502 130.001c19.667 17.333 29.501 36.667 29.501 58c0 28.667 -9.16699 52.334 -27.5 71.001s-41.5 28 -69.5 28
c-18.667 0 -35.834 -5 -51.501 -15s-31.5 -24.833 -47.5 -44.5s-37.667 -48.834 -65 -87.501l-26 -36h190c25.333 0 47.833 8.66699 67.5 26zM316.003 568.002l78 77l77 -77l-77 -78z" />
    <glyph glyph-name="uniFECA" unicode="&#x639;" horiz-adv-x="605" arabic-form="final" 
d="M445 108c30.667 -2.66699 85.666 -3.99902 164.999 -3.99902v-104c-71.333 0 -123 1 -155 3s-59.5 7.33301 -82.5 16s-42.5 23.667 -58.5 45l-27 36c-96 -36 -144 -85 -144 -147c0 -23.333 6.33301 -44.833 19 -64.5s29.5 -34.834 50.5 -45.501s43.833 -15 68.5 -13
l293 25l8 -104l-295 -25c-42 -3.33301 -81.167 5 -117.5 25s-65.333 48.333 -87 85s-32.5 77 -32.5 121c0 52 15.667 95.167 47 129.5s76.333 62.833 135 85.5l-121 160l25 82l243 36c4 0.666992 10 1 18 1c24.667 0 47.334 -6.83301 68.001 -20.5s37 -31.5 49 -53.5
s18 -44.667 18 -68c0 -24 -5.66699 -45.333 -17 -64c-24.667 -51.333 -68.667 -89 -132 -113l5 -6c7.33301 -9.33301 26.333 -15.333 57 -18zM282.999 341.001l-57 -7l102 -132c68 20 107.333 55 118 105c2 6 3 11.667 3 17c0 10.667 -4 19.167 -12 25.5
s-17.333 8.83301 -28 7.5z" />
    <glyph glyph-name="uniFECB" unicode="&#x639;" horiz-adv-x="532" arabic-form="initial" 
d="M299 11c-44.667 -6 -142.001 -9.66602 -292.001 -10.999h-12v104h10l109 2c-10 18 -17 38.333 -21 61c-2.66699 17.333 -4 30 -4 38c0 46 14.5 86.833 43.5 122.5s66.167 57.5 111.5 65.5c10.667 1.33301 19.334 2 26.001 2c37.333 0 84.666 -7.66699 141.999 -23
l-24 -100c-58.667 15.333 -99.667 22 -123 20c-24.667 -2.66699 -44.667 -12.334 -60 -29.001s-23 -36.334 -23 -59.001c0 -25.333 8.83301 -46.666 26.5 -63.999s38.834 -26.333 63.501 -27c8 0 15.333 0.666992 22 2v-1l170 32l18 -101l-172 -32l-11 -2v0z" />
    <glyph glyph-name="uniFECC" unicode="&#x639;" horiz-adv-x="515" arabic-form="medial" 
d="M520 0c-80 0 -139.835 2.16895 -179.502 6.50195s-73.5 15.166 -101.5 32.499c-38 -12.667 -76.667 -22.334 -116 -29.001s-76 -10 -110 -10h-18v104h18c60 0 111.667 3.66699 155 11l-118 158l26 81l242 35c4.66699 0.666992 11 1 19 1
c24.667 0 47.334 -6.5 68.001 -19.5s37 -30.167 49 -51.5s18 -44.333 18 -69c0 -17.333 -3.66699 -35.333 -11 -54c-13.333 -32.667 -40.666 -62.667 -81.999 -90c24.667 -1.33301 71.667 -2 141 -2v-104zM268.998 140.002c65.333 24.667 104.333 60.667 117 108
c2 5.33301 3 10.333 3 15c0 10 -3.83301 18.5 -11.5 25.5s-17.167 9.83301 -28.5 8.5l-184 -23z" />
    <glyph glyph-name="uniFECE" unicode="&#x63a;" horiz-adv-x="605" arabic-form="final" 
d="M445 108c30.667 -2.66699 85.666 -3.99902 164.999 -3.99902v-104c-71.333 0 -123 1 -155 3s-59.5 7.33301 -82.5 16s-42.5 23.667 -58.5 45l-27 36c-96 -36 -144 -85 -144 -147c0 -23.333 6.33301 -44.833 19 -64.5s29.5 -34.834 50.5 -45.501s43.833 -15 68.5 -13
l293 25l8 -104l-295 -25c-42 -3.33301 -81.167 5 -117.5 25s-65.333 48.333 -87 85s-32.5 77 -32.5 121c0 52 15.667 95.167 47 129.5s76.333 62.833 135 85.5l-121 160l25 82l243 36c4 0.666992 10 1 18 1c24.667 0 47.334 -6.83301 68.001 -20.5s37 -31.5 49 -53.5
s18 -44.667 18 -68c0 -24 -5.66699 -45.333 -17 -64c-24.667 -51.333 -68.667 -89 -132 -113l5 -6c7.33301 -9.33301 26.333 -15.333 57 -18zM282.999 341.001l-57 -7l102 -132c68 20 107.333 55 118 105c2 6 3 11.667 3 17c0 10.667 -4 19.167 -12 25.5
s-17.333 8.83301 -28 7.5zM244.999 576.001l78 77l77 -77l-77 -78z" />
    <glyph glyph-name="uniFECF" unicode="&#x63a;" horiz-adv-x="532" arabic-form="initial" 
d="M299 11c-44.667 -6 -142.001 -9.66602 -292.001 -10.999h-12v104h10l109 2c-10 18 -17 38.333 -21 61c-2.66699 17.333 -4 30 -4 38c0 46 14.5 86.833 43.5 122.5s66.167 57.5 111.5 65.5c10.667 1.33301 19.334 2 26.001 2c37.333 0 84.666 -7.66699 141.999 -23
l-24 -100c-58.667 15.333 -99.667 22 -123 20c-24.667 -2.66699 -44.667 -12.334 -60 -29.001s-23 -36.334 -23 -59.001c0 -25.333 8.83301 -46.666 26.5 -63.999s38.834 -26.333 63.501 -27c8 0 15.333 0.666992 22 2v-1l170 32l18 -101l-172 -32l-11 -2v0z
M175.999 529.001l78 77l77 -77l-77 -78z" />
    <glyph glyph-name="uniFED0" unicode="&#x63a;" horiz-adv-x="515" arabic-form="medial" 
d="M520 0c-80 0 -139.835 2.16895 -179.502 6.50195s-73.5 15.166 -101.5 32.499c-38 -12.667 -76.667 -22.334 -116 -29.001s-76 -10 -110 -10h-18v104h18c60 0 111.667 3.66699 155 11l-118 158l26 81l242 35c4.66699 0.666992 11 1 19 1
c24.667 0 47.334 -6.5 68.001 -19.5s37 -30.167 49 -51.5s18 -44.333 18 -69c0 -17.333 -3.66699 -35.333 -11 -54c-13.333 -32.667 -40.666 -62.667 -81.999 -90c24.667 -1.33301 71.667 -2 141 -2v-104zM268.998 140.002c65.333 24.667 104.333 60.667 117 108
c2 5.33301 3 10.333 3 15c0 10 -3.83301 18.5 -11.5 25.5s-17.167 9.83301 -28.5 8.5l-184 -23zM190.998 539.002l78 77l77 -77l-77 -78z" />
    <glyph glyph-name="uniFED2" unicode="&#x641;" horiz-adv-x="958" arabic-form="final" 
d="M963 104v-104.001h-58c-60.667 0 -123.334 12.667 -188.001 38c-32.667 -12 -66.667 -21.333 -102 -28s-68.666 -10 -99.999 -10h-52c-75.333 0 -132.333 0.833008 -171 2.5s-67.834 4.33398 -87.501 8.00098s-38.5 9.16699 -56.5 16.5c-31.333 14 -55.333 34.333 -72 61
s-25 57.667 -25 93c0 21.333 3 44 9 68l37 143l89 -26l-38 -147c-3.33301 -11.333 -5 -23.666 -5 -36.999c0 -14.667 3.33301 -26.667 10 -36s17.334 -17.333 32.001 -24c16 -6.66699 40.833 -11.334 74.5 -14.001s103.167 -4 208.5 -4h47c23.333 0 48.333 2 75 6
c-38 32.667 -55.667 64 -53 94l5 58c3.33301 31.333 13.5 59.333 30.5 84s38.5 44 64.5 58s54 21 84 21c36 0 67.833 -9.66699 95.5 -29s48.667 -44.333 63 -75s20.5 -62.667 18.5 -96l-3 -45c-2 -24 -18 -48.333 -48 -73c18 -2 37.333 -3 58 -3h58zM656.5 168.999
c14.333 -11.333 33.167 -21.666 56.5 -30.999c53.333 17.333 83.333 35 90 53l4 35c2 22 -4.16699 42.667 -18.5 62s-33.833 30.666 -58.5 33.999c-24 2.66699 -45.5 -3.33301 -64.5 -18s-29.833 -34.334 -32.5 -59.001l-4 -45c4 -9.33301 13.167 -19.666 27.5 -30.999z
M659.001 548.999l78 77l77 -77l-77 -78z" />
    <glyph glyph-name="uniFED3" unicode="&#x641;" horiz-adv-x="472" arabic-form="initial" 
d="M220 617l-77 77l77 78l78 -78zM421 152c0 -36.667 -6.83398 -65.834 -20.501 -87.501s-37 -37.834 -70 -48.501s-78.833 -16 -137.5 -16h-198v104h200c38.667 0 67.5 1.33301 86.5 4s32.167 7.83398 39.5 15.501s11 19.167 11 34.5c0 8 -0.333008 14.333 -1 19
c-40.667 -4.66699 -80 -7 -118 -7c-50.667 0 -91 15 -121 45s-45 70.667 -45 122c0 36.667 6.66699 70.5 20 101.5s33.333 55.833 60 74.5s58.667 28 96 28c50.667 0 92.834 -18.667 126.501 -56s53.167 -86.666 58.5 -147.999l11 -149c1.33301 -17.333 2 -29.333 2 -36z
M152.499 287.5c14.333 -14.333 34.499 -21.5 60.499 -21.5c42.667 0 79.334 2.66699 110.001 8l-5 55c-4.66699 37.333 -15.667 66.5 -33 87.5s-39.333 31.5 -66 31.5c-27.333 0 -48.833 -10 -64.5 -30s-23.5 -44 -23.5 -72c0 -24.667 7.16699 -44.167 21.5 -58.5z" />
    <glyph glyph-name="uniFED4" unicode="&#x641;" horiz-adv-x="490" arabic-form="medial" 
d="M260 497l-77 78l77 77l78 -78zM495 104v-104h-58c-60.667 0 -123.334 12.667 -188.001 38c-32.667 -12 -66.667 -21.333 -102 -28s-68.666 -10 -99.999 -10h-52v104h52c23.333 0 48.333 2 75 6c-38 32.667 -55.667 64 -53 94l5 58c3.33301 31.333 13.5 59.333 30.5 84
s38.5 44 64.5 58s54 21 84 21c36 0 67.833 -9.66699 95.5 -29s48.667 -44.333 63 -75s20.5 -62.667 18.5 -96l-3 -45c-2 -24 -18 -48.333 -48 -73c18 -2 37.333 -3 58 -3h58zM189 169c14.667 -11.333 33.333 -21.667 56 -31c54 18 84 35.667 90 53l4 35
c2 22 -4.16699 42.667 -18.5 62s-33.833 30.666 -58.5 33.999c-24 2.66699 -45.5 -3.5 -64.5 -18.5s-29.833 -34.5 -32.5 -58.5l-4 -45c4 -9.33301 13.333 -19.666 28 -30.999z" />
    <glyph glyph-name="uniFED6" unicode="&#x642;" horiz-adv-x="703" arabic-form="final" 
d="M302 -247c-52 0 -97 11.666 -135 34.999s-67 56.333 -87 99s-30 92.334 -30 149.001c0 64 12.667 132 38 204l88 -35c-22.667 -64 -34 -121.333 -34 -172c0 -56 13.833 -99.333 41.5 -130s67.167 -46 118.5 -46c23.333 0 46 2.66699 68 8
c66.667 14.667 116.334 30.5 149.001 47.5s47.667 40.5 45 70.5l-2 17h-120c-50 -0 -90.667 14.833 -122 44.5s-49.333 70.5 -54 122.5c-2.66699 38 3.33301 74.167 18 108.5s36.334 62.166 65.001 83.499s61.667 32 99 32c51.333 0 94.333 -19.667 129 -59
s55.667 -91 63 -155l8 -73h60v-104h-51l1 -22c0 -42.667 -9.33301 -77.167 -28 -103.5s-46.834 -47.666 -84.501 -63.999s-89.167 -31.833 -154.5 -46.5c-32.667 -7.33301 -62.334 -11 -89.001 -11zM547 164.999c-4 39.333 -14.668 69.499 -32.001 90.499
s-39.666 31.5 -66.999 31.5s-49 -10 -65 -30s-24 -44 -24 -72c0 -27.333 6.5 -47.666 19.5 -60.999s34.167 -20 63.5 -20h112zM280.999 505.998l69 69l69 -69l-69 -68zM462.999 505.998l69 69l69 -69l-69 -68z" />
    <glyph glyph-name="uniFED7" unicode="&#x642;" horiz-adv-x="472" arabic-form="initial" 
d="M128 603l-69 68l69 69l69 -69zM310 603l-68 68l68 69l69 -69zM421 152c0 -36.667 -6.83398 -65.834 -20.501 -87.501s-37 -37.834 -70 -48.501s-78.833 -16 -137.5 -16h-198v104h200c38.667 0 67.5 1.33301 86.5 4s32.167 7.83398 39.5 15.501s11 19.167 11 34.5
c0 8 -0.333008 14.333 -1 19c-40.667 -4.66699 -80 -7 -118 -7c-50.667 0 -91 15 -121 45s-45 70.667 -45 122c0 36.667 6.66699 70.5 20 101.5s33.333 55.833 60 74.5s58.667 28 96 28c50.667 0 92.834 -18.667 126.501 -56s53.167 -86.666 58.5 -147.999l11 -149
c1.33301 -17.333 2 -29.333 2 -36zM152.499 287.5c14.333 -14.333 34.499 -21.5 60.499 -21.5c42.667 0 79.334 2.66699 110.001 8l-5 55c-4.66699 37.333 -15.667 66.5 -33 87.5s-39.333 31.5 -66 31.5c-27.333 0 -48.833 -10 -64.5 -30s-23.5 -44 -23.5 -72
c0 -24.667 7.16699 -44.167 21.5 -58.5z" />
    <glyph glyph-name="uniFED8" unicode="&#x642;" horiz-adv-x="490" arabic-form="medial" 
d="M170 511l-69 68l69 69l69 -69zM352 511l-68 68l68 69l69 -69zM495 104v-104h-58c-60.667 0 -123.334 12.667 -188.001 38c-32.667 -12 -66.667 -21.333 -102 -28s-68.666 -10 -99.999 -10h-52v104h52c23.333 0 48.333 2 75 6c-38 32.667 -55.667 64 -53 94l5 58
c3.33301 31.333 13.5 59.333 30.5 84s38.5 44 64.5 58s54 21 84 21c36 0 67.833 -9.66699 95.5 -29s48.667 -44.333 63 -75s20.5 -62.667 18.5 -96l-3 -45c-2 -24 -18 -48.333 -48 -73c18 -2 37.333 -3 58 -3h58zM189 169c14.667 -11.333 33.333 -21.667 56 -31
c54 18 84 35.667 90 53l4 35c2 22 -4.16699 42.667 -18.5 62s-33.833 30.666 -58.5 33.999c-24 2.66699 -45.5 -3.5 -64.5 -18.5s-29.833 -34.5 -32.5 -58.5l-4 -45c4 -9.33301 13.333 -19.666 28 -30.999z" />
    <glyph glyph-name="uniFEDA" unicode="&#x643;" horiz-adv-x="916" arabic-form="final" 
d="M921 104l-0.000976562 -104.001h-20c-24 0 -46.833 4.5 -68.5 13.5s-40.167 21.833 -55.5 38.5c-32.667 -34.667 -76.667 -52 -132 -52h-178c-76.667 0 -134.5 0.833008 -173.5 2.5s-68.5 4.33398 -88.5 8.00098s-39 9.16699 -57 16.5c-31.333 14 -55.333 34.333 -72 61
s-25 57.667 -25 93c0 21.333 3 44 9 68l37 143l89 -26l-38 -147c-3.33301 -11.333 -5 -23.666 -5 -36.999c0 -14.667 3.33301 -26.667 10 -36s17.334 -17.333 32.001 -24c16 -6.66699 40.833 -11.334 74.5 -14.001s103.167 -4 208.5 -4h177c56 0 83.333 23.333 82 70
l-19 494l92 5l19 -489c2.66699 -53.333 30 -80 82 -80h20zM508.999 305.999c0 -11.333 -3.66699 -21.166 -11 -29.499s-17 -12.5 -29 -12.5h-89v43h66c6.66699 0 10 2.33301 10 7c0 2.66699 -2 6 -6 10l-55 55l9 36l98 33l14 -40l-66 -22l46 -48
c8.66699 -8.66699 13 -19.334 13 -32.001z" />
    <glyph glyph-name="uniFEDB" unicode="&#x643;" horiz-adv-x="472" arabic-form="initial" 
d="M324 252c22.667 -35.333 34.001 -71.333 34.001 -108c0 -38 -12.333 -70 -37 -96c-26.667 -32 -65.334 -48 -116.001 -48h-210v104h211c15.333 0 27.333 3.33301 36 10c14.667 10.667 22 25 22 43c0 11.333 -3.33301 22.333 -10 33l-222 314l21 78l361 133l33 -97
l-299 -109z" />
    <glyph glyph-name="uniFEDC" unicode="&#x643;" horiz-adv-x="506" arabic-form="medial" 
d="M511 104l-0.000976562 -103.999h-14c-29.333 0 -56.666 6.5 -81.999 19.5s-49.666 32.167 -72.999 57.5c-5.33301 -10.667 -12.333 -20.334 -21 -29.001c-26.667 -32 -65.334 -48 -116.001 -48h-210v104h211c15.333 0 27.333 3.33301 36 10c14.667 10.667 22 25 22 43
c0 11.333 -3.33301 22.333 -10 33l-222 314l21 78l361 133l33 -97l-299 -109l176 -257l7 -11c33.333 -53.333 61.833 -89.5 85.5 -108.5s50.5 -28.5 80.5 -28.5h14z" />
    <glyph glyph-name="uniFEDE" unicode="&#x644;" horiz-adv-x="727" arabic-form="final" 
d="M732 104l0.00195312 -104h-20c-26 -0 -51.333 5.33301 -76 16c0.666992 -54.667 -8.83301 -98.334 -28.5 -131.001s-47 -57.667 -82 -75s-80.167 -33 -135.5 -47c-32 -8 -62.333 -12 -91 -12c-50.667 0 -94.834 11.833 -132.501 35.5s-66.5 56.834 -86.5 99.501
s-30 92.334 -30 149.001c0 64 12.667 132 38 204l88 -35c-22.667 -64 -34 -121.333 -34 -172c0 -56 13.667 -99.667 41 -131s66 -47 116 -47c21.333 0 44.333 3 69 9c50.667 12.667 86.667 23.167 108 31.5s38.166 22.166 50.499 41.499s17.833 48.333 16.5 87l-25 645l93 5
l19 -489c2.66699 -53.333 30 -80 82 -80h20z" />
    <glyph glyph-name="uniFEDF" unicode="&#x644;" horiz-adv-x="242" arabic-form="initial" 
d="M175.5 91c-12.333 -27.333 -31.833 -49.333 -58.5 -66s-59.667 -25 -99 -25h-25v104h25c56 0 83.333 23.333 82 70l-19 494l92 5l19 -495c1.33301 -30.667 -4.16699 -59.667 -16.5 -87z" />
    <glyph glyph-name="uniFEE0" unicode="&#x644;" horiz-adv-x="289" arabic-form="medial" 
d="M294 104v-104h-20c-24 0 -46.833 4.5 -68.5 13.5s-40.167 21.833 -55.5 38.5c-32.667 -34.667 -76.667 -52 -132 -52h-25v104h25c56 0 83.333 23.333 82 70l-19 494l92 5l19 -489c2.66699 -53.333 30 -80 82 -80h20z" />
    <glyph glyph-name="uniFEE2" unicode="&#x645;" horiz-adv-x="588" arabic-form="final" 
d="M525.5 127.5c15.667 -15.667 38.168 -23.501 67.501 -23.501v-104c-54.667 0 -97.334 18.667 -128.001 56c-10.667 -18.667 -25.167 -33.5 -43.5 -44.5s-37.833 -16.5 -58.5 -16.5c-18 0 -35.333 4.33301 -52 13l-168 87l18 -392l-93 -3l-18 479l63 42l44 -23l51 100
c14 26.667 33 47.167 57 61.5s49.667 21.5 77 21.5c24.667 0 48 -5.66699 70 -17c28.667 -15.333 50.667 -38.166 66 -68.499s23.333 -64.166 24 -101.499c0 -28.667 7.83301 -50.834 23.5 -66.501zM420.001 195.999c0 37.333 -13.667 63.333 -41 78
c-10 5.33301 -20.667 8 -32 8c-14.667 0 -28.5 -4.5 -41.5 -13.5s-23.5 -21.833 -31.5 -38.5l-37 -73l124 -64c4.66699 -2.66699 9.66699 -4 15 -4c8 0 14.333 4.66699 19 14c16.667 34.667 25 65.667 25 93z" />
    <glyph glyph-name="uniFEE3" unicode="&#x645;" horiz-adv-x="514" arabic-form="initial" 
d="M441 294c15.333 -30 23.001 -64 23.001 -102c0 -46.667 -11 -90.667 -33 -132c-10.667 -20 -25.334 -35.833 -44.001 -47.5s-39 -17.5 -61 -17.5c-18 0 -35.667 4.33301 -53 13l-123 63c-36.667 -47.333 -84.667 -71 -144 -71h-11v104h11c20 0 38 4.5 54 13.5
s28 21.5 36 37.5l74 141c14 27.333 33 48.5 57 63.5s49.333 22.5 76 22.5c25.333 0 49.333 -6.33301 72 -19c28.667 -16 50.667 -39 66 -69zM382.001 196c0 38 -13.334 64 -40.001 78c-10 5.33301 -20.667 8 -32 8c-14.667 0 -28.5 -4.5 -41.5 -13.5
s-23.5 -21.833 -31.5 -38.5l-38 -74l125 -64c4.66699 -2.66699 9.33398 -4 14.001 -4c8 0 14.333 4.66699 19 14c16.667 34.667 25 66 25 94z" />
    <glyph glyph-name="uniFEE4" unicode="&#x645;" horiz-adv-x="551" arabic-form="medial" 
d="M490 125.5c16 -14.333 38 -21.501 66 -21.501v-104c-54.667 0 -97.334 18.333 -128.001 55c-10.667 -18 -25.167 -32.5 -43.5 -43.5s-37.833 -16.5 -58.5 -16.5c-18 0 -35.667 4.33301 -53 13l-123 63c-36.667 -47.333 -84.667 -71 -144 -71h-11v104h11
c20 0 38 4.5 54 13.5s28 21.5 36 37.5l74 141c14 27.333 33 48.5 57 63.5s49.333 22.5 76 22.5c25.333 0 49.333 -6.33301 72 -19c29.333 -16 51.833 -39.833 67.5 -71.5s22.834 -67.167 21.501 -106.5c1.33301 -25.333 10 -45.166 26 -59.499zM382 195.999
c0 38 -13.334 64 -40.001 78c-10 5.33301 -20.667 8 -32 8c-14.667 0 -28.5 -4.5 -41.5 -13.5s-23.5 -21.833 -31.5 -38.5l-38 -74l125 -64c4.66699 -2.66699 9.33398 -4 14.001 -4c8 0 14.333 4.66699 19 14c16.667 34.667 25 66 25 94z" />
    <glyph glyph-name="uniFEE6" unicode="&#x646;" horiz-adv-x="711" arabic-form="final" 
d="M716 104l0.000976562 -104h-26c-20 -0 -37 3.33301 -51 10c0.666992 -5.33301 1 -13.333 1 -24c0 -44.667 -10.167 -81.5 -30.5 -110.5s-48.333 -51.833 -84 -68.5s-80.5 -31 -134.5 -43c-32.667 -7.33301 -62.334 -11 -89.001 -11c-52 0 -97 11.667 -135 35
s-67 56.333 -87 99s-30 92.334 -30 149.001c0 64 12.667 132 38 204l88 -35c-22.667 -64 -34 -121.333 -34 -172c0 -56 13.833 -99.333 41.5 -130s67.167 -46 118.5 -46c23.333 0 46 2.66699 68 8c46.667 10.667 81.167 20 103.5 28s40 19.333 53 34s19.5 35.667 19.5 63
c0 5.33301 -0.666992 14.666 -2 27.999l-40 274l91 15l9 -61c6 -38.667 12.333 -68 19 -88s15 -34 25 -42s23.333 -12 40 -12h28zM257.001 299l78 77l77 -77l-77 -78z" />
    <glyph glyph-name="uniFEE7" unicode="&#x646;" horiz-adv-x="318" arabic-form="initial" 
d="M74 104c32 0 56.833 5.33301 74.5 16s26.5 29 26.5 55c0 13.333 -2.33301 28 -7 44l-40 149l90 26l40 -149c6.66699 -24 10 -47.333 10 -70c0 -54.667 -18.333 -97.5 -55 -128.5s-83 -46.5 -139 -46.5h-79v104h79zM53 536l78 77l77 -77l-77 -78z" />
    <glyph glyph-name="uniFEE8" unicode="&#x646;" horiz-adv-x="309" arabic-form="medial" 
d="M253 120c11.333 -10.667 31.6641 -16 60.9971 -16v-104c-54.667 0 -96.667 15 -126 45c-31.333 -30 -74.666 -45 -129.999 -45h-63v104h63c30.667 0 52.334 5.16699 65.001 15.5s18.334 26.5 17.001 48.5v2l-11 123l92 9l11 -123v-1c2.66699 -28 9.66699 -47.333 21 -58z
M52.998 460l78 77l77 -77l-77 -78z" />
    <glyph glyph-name="uniFEEA" unicode="&#x647;" horiz-adv-x="526" arabic-form="final" 
d="M531 104l0.000976562 -104h-19c-34.667 0 -66.834 8.16699 -96.501 24.5s-53.5 38.5 -71.5 66.5c-50 -8.66699 -86 -14.334 -108 -17.001c-4 -0.666992 -10 -1 -18 -1c-33.333 0 -65.333 11.833 -96 35.5s-51.667 52.167 -63 85.5c-6 18 -9 36.333 -9 55
c0 37.333 10.833 71.833 32.5 103.5s50.167 53.167 85.5 64.5l141 47v42h93v-297c0 -29.333 10.667 -54.166 32 -74.499s47.333 -30.5 78 -30.5h19zM310.001 190c-0.666992 4 -1.00098 10.333 -1.00098 19v153l-112 -39c-17.333 -5.33301 -30.666 -14.5 -39.999 -27.5
s-14 -27.5 -14 -43.5c0 -6.66699 1 -13.667 3 -21c4 -14.667 12.833 -27.5 26.5 -38.5s28.5 -16.5 44.5 -16.5c5.33301 0 9.33301 0.333008 12 1z" />
    <glyph glyph-name="uniFEEB" unicode="&#x647;" horiz-adv-x="649" arabic-form="initial" 
d="M574 239.5c17.333 -29 25.999 -59.835 25.999 -92.502c0 -26.667 -5.33301 -51 -16 -73c-15.333 -31.333 -36.666 -55.666 -63.999 -72.999s-57 -26 -89 -26c-23.333 0 -46.666 5 -69.999 15l-115 53c-57.333 -28.667 -123.333 -43 -198 -43h-53v104h53c24 0 46 1 66 3
c-22.667 16.667 -40.334 37.834 -53.001 63.501s-19 52.5 -19 80.5c0 28.667 6 55 18 79c12.667 27.333 30.667 50 54 68l-6 3l42 92l147 -77c0.666992 -0.666992 3 -2 7 -4l199 -105c30 -16 53.667 -38.5 71 -67.5zM247.999 151.998c20 16 35.668 36.668 47.001 62.001
c5.33301 12 8 23.333 8 34c0 16 -4.16699 30.667 -12.5 44s-19.5 23.333 -33.5 30c-12.667 6.66699 -26 10 -40 10c-14.667 0 -28.167 -3.83301 -40.5 -11.5s-21.833 -18.167 -28.5 -31.5c-6.66699 -14.667 -10 -27.334 -10 -38.001c0 -14.667 4.16699 -28.167 12.5 -40.5
s20.166 -21.833 35.499 -28.5zM508 145.999c0 14 -3.83203 27.333 -11.499 40s-18.834 23 -33.501 31l-67 35c0 -29.333 -5.66699 -56.333 -17 -81c-9.33301 -22 -23.333 -42.667 -42 -62l62 -30c12 -5.33301 23.333 -8 34 -8c14 0 27.167 3.83301 39.5 11.5
s21.833 18.167 28.5 31.5c4.66699 9.33301 7 20 7 32z" />
    <glyph glyph-name="uniFEEC" unicode="&#x647;" horiz-adv-x="482" arabic-form="medial" 
d="M487 104l0.00195312 -103.998h-52c-17.333 0 -32 -5.66699 -44 -17s-18 -25 -18 -41v-135l-46 -46c-40 -0.666992 -78.167 8.83301 -114.5 28.5s-66.833 47.667 -91.5 84s-40.334 78.5 -47.001 126.5h-8h-71v104h71h13c16 67.333 48.667 170 98 308l56 27l73 -20
c32 -8.66699 57.667 -29.334 77 -62.001s29 -68.334 29 -107.001c0 -28.667 -5.33301 -55 -16 -79c-18 -40 -47.333 -74 -88 -102s-88 -47.667 -142 -59c6 -38.667 19.5 -71.334 40.5 -98.001s46.5 -43.667 76.5 -51v81c0 29.333 6.66699 56.333 20 81
s31.666 44.334 54.999 59.001s49 22 77 22h52zM175.002 114.002c74.667 16 121.668 48.999 141.001 98.999c4.66699 10 7 21.667 7 35c0 16.667 -4 31.834 -12 45.501s-18 22.167 -30 25.5l-35 10c-32.667 -89.333 -56.334 -161 -71.001 -215z" />
    <glyph glyph-name="uniFEEE" unicode="&#x648;" horiz-adv-x="499" arabic-form="final" 
d="M504 0h-48.999l1 -22c0 -48.667 -11.5 -87 -34.5 -115s-57.5 -50.5 -103.5 -67.5s-112.667 -34.5 -200 -52.5l-19 101c85.333 18 144.666 32.167 177.999 42.5s56.5 23.666 69.5 39.999s17.833 40.833 14.5 73.5h-123c-54 0 -97 16.833 -129 50.5s-48 78.834 -48 135.501
c0 35.333 7.66699 68.833 23 100.5s37 57 65 76s59.667 28.5 95 28.5c51.333 0 94.333 -19.667 129 -59s55.667 -91 63 -155l8 -73h60v-104zM174.001 124.5c13.333 -13.667 34.666 -20.5 63.999 -20.5h112l-7 61c-4 39.333 -14.667 69.5 -32 90.5s-39.666 31.5 -66.999 31.5
c-28 0 -50 -10 -66 -30s-24 -43.667 -24 -71s6.66699 -47.833 20 -61.5z" />
    <glyph glyph-name="uniFEF0" unicode="&#x649;" horiz-adv-x="690" arabic-form="final" 
d="M695 0c-23.333 0 -45.6699 0.99707 -67.0029 2.99707c2 -4 3 -8 3 -12c1.33301 -13.333 2 -22.666 2 -27.999c0 -53.333 -20.333 -95.166 -61 -125.499s-101 -54.833 -181 -73.5c-32.667 -7.33301 -62.334 -11 -89.001 -11c-52 0 -97 11.667 -135 35s-67 56.333 -87 99
s-30 92.334 -30 149.001c0 64 12.667 132 38 204l88 -35c-22 -62 -33 -119 -33 -171c0 -56 13.833 -99.5 41.5 -130.5s66.834 -46.5 117.501 -46.5c23.333 0 46 2.66699 68 8c43.333 10 76.333 18.833 99 26.5s40.334 17.5 53.001 29.5s19 27.667 19 47
c0 4 -0.666992 10.667 -2 20c-3.33301 17.333 -31.666 36.333 -84.999 57l-27 9l-44 14l29 98c5.33301 -2 17 -5.33301 35 -10c71.333 -20.667 122.833 -34.5 154.5 -41.5s62.834 -10.5 93.501 -10.5v-104z" />
    <glyph glyph-name="uniFEF2" unicode="&#x64a;" horiz-adv-x="690" arabic-form="final" 
d="M695 0c-23.333 0 -45.6699 0.99707 -67.0029 2.99707c2 -4 3 -8 3 -12c1.33301 -13.333 2 -22.666 2 -27.999c0 -53.333 -20.333 -95.166 -61 -125.499s-101 -54.833 -181 -73.5c-32.667 -7.33301 -62.334 -11 -89.001 -11c-52 0 -97 11.667 -135 35s-67 56.333 -87 99
s-30 92.334 -30 149.001c0 64 12.667 132 38 204l88 -35c-22 -62 -33 -119 -33 -171c0 -56 13.833 -99.5 41.5 -130.5s66.834 -46.5 117.501 -46.5c23.333 0 46 2.66699 68 8c43.333 10 76.333 18.833 99 26.5s40.334 17.5 53.001 29.5s19 27.667 19 47
c0 4 -0.666992 10.667 -2 20c-3.33301 17.333 -31.666 36.333 -84.999 57l-27 9l-44 14l29 98c5.33301 -2 17 -5.33301 35 -10c71.333 -20.667 122.833 -34.5 154.5 -41.5s62.834 -10.5 93.501 -10.5v-104zM172.996 -348.003l69 69l69 -69l-69 -68zM354.996 -348.003l69 69
l69 -69l-69 -68z" />
    <glyph glyph-name="uniFEF3" unicode="&#x64a;" horiz-adv-x="387" arabic-form="initial" 
d="M143 104c31.333 0 55.832 5.50098 73.499 16.501s26.5 29.5 26.5 55.5c0 12.667 -2.33301 27 -7 43l-39 149l90 26l40 -154c6.66699 -22.667 10 -45.334 10 -68.001c0 -36 -8.66699 -67 -26 -93s-40.666 -45.667 -69.999 -59s-62 -20 -98 -20h-148v104h148z
M-59.001 -145.999l69 69l69 -69l-69 -68zM122.999 -145.999l69 69l69 -69l-69 -68z" />
    <glyph glyph-name="uniFEF4" unicode="&#x64a;" horiz-adv-x="407" arabic-form="medial" 
d="M351 120c11.333 -10.667 31.666 -16.001 60.999 -16.001v-104c-55.333 0 -97.333 15.333 -126 46c-32.667 -30.667 -76 -46 -130 -46h-161v104h161c30.667 0 52.334 5.33301 65.001 16s18 27.334 16 50.001l-11 123l93 9l11 -123v-1c2.66699 -28 9.66699 -47.333 21 -58z
M12 -147.001l69 69l69 -69l-69 -68zM194 -147.001l69 69l69 -69l-69 -68z" />
    <glyph glyph-name=".notdef" horiz-adv-x="300" 
d="M263 516v-532h-226v532h226zM237 484h-174v-468h174v468z" />
    <glyph glyph-name="nonmarkingreturn" unicode="&#xd;" horiz-adv-x="300" 
 />
    <glyph glyph-name="space" unicode=" " horiz-adv-x="245" 
 />
    <glyph glyph-name="exclam" unicode="!" horiz-adv-x="280" 
d="M194 664l-11 -477h-86l-11 477h108zM88.5 -9c-13.667 14 -20.5 31 -20.5 51c0 19.333 6.83301 35.833 20.5 49.5s30.834 20.5 51.501 20.5c19.333 0 36 -6.83301 50 -20.5s21 -30.167 21 -49.5c0 -20 -7 -37 -21 -51s-30.667 -21 -50 -21c-20.667 0 -37.834 7 -51.501 21
z" />
    <glyph glyph-name="quotedbl" unicode="&#x22;" horiz-adv-x="327" 
d="M298 699l-11 -218h-87l-10 218h108zM137 699l-11 -218h-87l-10 218h108z" />
    <glyph glyph-name="numbersign" unicode="#" horiz-adv-x="652" 
d="M507 396l-19 -126h72l-1 -93h-86l-23 -152h-109l23 152h-127l-23 -152h-109l23 152h-71v93h86l19 126h-70v94h84l24 153l109 -1l-23 -152h126l24 153l109 -1l-23 -152h73l-1 -94h-87zM398 396h-127l-19 -126h127z" />
    <glyph glyph-name="dollar" unicode="$" horiz-adv-x="571" 
d="M470.5 47.5c-33.667 -32.333 -79.832 -51.8301 -138.499 -58.4971l1 -69h-95l1 70c-58.667 8 -104.667 28.667 -138 62s-50 75.333 -50 126v33h104v-27c0 -30 12.833 -54.667 38.5 -74s60.5 -29 104.5 -29c38.667 0 67.667 8.16699 87 24.5s29 37.833 29 64.5
c0 18 -5.33301 33.333 -16 46s-25.834 24.167 -45.501 34.5s-49.167 24.166 -88.5 41.499c-48.667 20.667 -85.5 37.667 -110.5 51s-46.667 32.333 -65 57s-27.5 56 -27.5 94c0 49.333 15.833 89.666 47.5 120.999s75.167 50.333 130.5 57l-1 83h95l-2 -85
c56 -8 100.667 -29 134 -63s50 -77 50 -129v-25h-104v20c0 31.333 -12.167 57.166 -36.5 77.499s-57.5 30.5 -99.5 30.5c-34.667 0 -61.667 -7.33301 -81 -22s-29 -35.667 -29 -63c0 -19.333 5.16699 -35.5 15.5 -48.5s25.833 -24.667 46.5 -35s51 -23.166 91 -38.499
c43.333 -16.667 78.5 -32.334 105.5 -47.001s50 -34.5 69 -59.5s28.5 -56.167 28.5 -93.5c0 -52 -16.833 -94.167 -50.5 -126.5z" />
    <glyph glyph-name="percent" unicode="%" horiz-adv-x="772" 
d="M129.5 425.5c-23 13.667 -41.167 32.1689 -54.5 55.502s-20 49 -20 77c0 27.333 6.66699 52.666 20 75.999s31.5 41.666 54.5 54.999s48.167 20 75.5 20c26.667 0 51.334 -6.83301 74.001 -20.5s40.667 -32 54 -55s20 -48.167 20 -75.5c0 -28 -6.66699 -53.667 -20 -77
s-31.333 -41.833 -54 -55.5s-47.334 -20.5 -74.001 -20.5c-27.333 0 -52.5 6.83301 -75.5 20.5zM614 700.002l-377 -700h-82l377 700h82zM265.5 493.002c16.333 18 24.5 39.665 24.5 64.998c0 24.667 -8.33301 45.834 -25 63.501s-36.667 26.5 -60 26.5
c-24.667 0 -45.334 -8.66699 -62.001 -26s-25 -38.666 -25 -63.999s8.33301 -47 25 -65s37.334 -27 62.001 -27c24 0 44.167 9 60.5 27zM492 11.5c-22.667 13.667 -40.667 32.167 -54 55.5s-20 48.666 -20 75.999s6.66699 52.666 20 75.999s31.333 41.833 54 55.5
s47.667 20.5 75 20.5s52.333 -6.83301 75 -20.5s40.667 -32.167 54 -55.5s20 -48.666 20 -75.999s-6.66699 -52.666 -20 -75.999s-31.333 -41.833 -54 -55.5s-47.667 -20.5 -75 -20.5s-52.333 6.83301 -75 20.5zM628 78.5c16.667 17.667 25 39.167 25 64.5
s-8.33301 46.833 -25 64.5s-37 26.5 -61 26.5s-44.333 -8.83301 -61 -26.5s-25 -39.167 -25 -64.5s8.33301 -46.833 25 -64.5s37 -26.5 61 -26.5s44.333 8.83301 61 26.5z" />
    <glyph glyph-name="ampersand" unicode="&#x26;" horiz-adv-x="671" 
d="M503 0l-50.999 56.998c-60.667 -43.333 -126.334 -65 -197.001 -65c-58.667 0 -106.834 13.833 -144.501 41.5s-56.5 67.834 -56.5 120.501c0 43.333 12.333 80.166 37 110.499s58 58.5 100 84.5c-35.333 42 -58.5 74.333 -69.5 97s-16.5 46.334 -16.5 71.001
c0 29.333 7.5 55.833 22.5 79.5s36.333 42.334 64 56.001s59.5 20.5 95.5 20.5c36.667 0 69.167 -6.83301 97.5 -20.5s50.5 -32.834 66.5 -57.501s24 -53 24 -85c0 -40.667 -12 -75.667 -36 -105s-57 -56.666 -99 -81.999l11 -13l108 -124
c26.667 26.667 52.334 58 77.001 94l74 -43c-28 -45.333 -58 -85 -90 -119l17 -19l89 -99h-123zM232.501 559.998c-14.333 -14.667 -21.5 -32.335 -21.5 -53.002c0 -11.333 4.16699 -23.833 12.5 -37.5s26.166 -37.167 53.499 -70.5
c29.333 18.667 51.833 36.334 67.5 53.001s23.5 35.334 23.5 56.001s-7 38 -21 52s-33.333 21.333 -58 22c-23.333 0 -42.166 -7.33301 -56.499 -22zM390.001 125.997l-69.001 77l-64 70c-31.333 -19.333 -55 -37.833 -71 -55.5s-24 -38.5 -24 -62.5
c0 -22.667 9 -41.5 27 -56.5s41.333 -22.5 70 -22.5c38.667 0 82.334 16.667 131.001 50z" />
    <glyph glyph-name="quotesingle" unicode="'" horiz-adv-x="166" 
d="M137 699l-11 -218h-87l-10 218h108z" />
    <glyph glyph-name="parenleft" unicode="(" horiz-adv-x="360" 
d="M99.5 -10c-33 82 -49.501 166.667 -49.501 254c0 88.667 17 174.334 51 257.001s81.667 155 143 217l66 -74c-54.667 -54 -96.167 -115.167 -124.5 -183.5s-42.5 -140.5 -42.5 -216.5c0 -74.667 13.833 -145.834 41.5 -213.501s67.834 -128.167 120.501 -181.5l-66 -73
c-60 60.667 -106.5 132 -139.5 214z" />
    <glyph glyph-name="parenright" unicode=")" horiz-adv-x="360" 
d="M176 31c28 68 42.001 139 42.001 213c0 76 -14.333 148.167 -43 216.5s-70.334 129.5 -125.001 183.5l66 74c62 -62 109.833 -134.167 143.5 -216.5s50.5 -168.166 50.5 -257.499c0 -88 -16.5 -172.833 -49.5 -254.5s-79.5 -152.834 -139.5 -213.501l-66 73
c52.667 53.333 93 114 121 182z" />
    <glyph glyph-name="asterisk" unicode="*" horiz-adv-x="507" 
d="M328 390l80 -110l-75 -54l-79 109l-80 -109l-75 54l80 110l-129 41l29 88l128 -41v135h93v-135l128 41l29 -88z" />
    <glyph glyph-name="plus" unicode="+" horiz-adv-x="426" 
d="M396 262h-142v-142h-82v142h-142v82h142v142h82v-142h142v-82z" />
    <glyph glyph-name="comma" unicode="," horiz-adv-x="192" 
d="M157 145l-51 -234h-72l26 234h97z" />
    <glyph glyph-name="hyphen" unicode="-" horiz-adv-x="322" 
d="M294 348v-94h-266v94h266z" />
    <glyph glyph-name="period" unicode="." horiz-adv-x="323" 
d="M110.5 15c-13.667 14 -20.5 31 -20.5 51c0 19.333 6.83301 35.833 20.5 49.5s30.834 20.5 51.501 20.5c19.333 0 36 -6.83301 50 -20.5s21 -30.167 21 -49.5c0 -20 -7 -37 -21 -51s-30.667 -21 -50 -21c-20.667 0 -37.834 7 -51.501 21z" />
    <glyph glyph-name="slash" unicode="/" horiz-adv-x="371" 
d="M328 667l-202 -665h-109l202 665h109z" />
    <glyph glyph-name="zero" unicode="0" horiz-adv-x="542" 
d="M110.5 47c-39 37.333 -58.5 88.333 -58.5 153v268c0 63.333 19.5 113.5 58.5 150.5s91.833 55.5 158.5 55.5s119.667 -18.5 159 -55.5s59 -87.167 59 -150.5v-268c0 -64.667 -19.5 -115.667 -58.5 -153s-92.167 -56 -159.5 -56c-66.667 0 -119.5 18.667 -158.5 56z
M348.5 113.5c19.667 19.667 29.5 46.167 29.5 79.5v279c0 33.333 -9.83301 59.833 -29.5 79.5s-46.167 29.5 -79.5 29.5c-32.667 0 -58.834 -10 -78.501 -30s-29.5 -46.333 -29.5 -79v-279c0 -32.667 9.83301 -59 29.5 -79s45.834 -30 78.501 -30
c33.333 0 59.833 9.83301 79.5 29.5z" />
    <glyph glyph-name="one" unicode="1" horiz-adv-x="330" 
d="M262 667v-667h-109v564l-115 -38l-3 84l117 57h110z" />
    <glyph glyph-name="two" unicode="2" horiz-adv-x="540" 
d="M481 94l-0.000976562 -93.998h-432v88c14.667 12.667 43 42.834 85 90.501l114 132.5c71.333 86.667 107 146 107 178c0 27.333 -9.16699 49.166 -27.5 65.499s-42.5 24.5 -72.5 24.5s-54.167 -8.33301 -72.5 -25s-27.166 -38.667 -26.499 -66v-35h-110v52
c1.33301 33.333 11.333 62.666 30 87.999s43.5 45 74.5 59s65.833 21 104.5 21c42 0 79 -8 111 -24s56.5 -37.667 73.5 -65s25.5 -58 25.5 -92c0 -26.667 -8 -56.334 -24 -89.001s-38 -66.667 -66 -102l-93 -112.5c-34 -39.667 -63.333 -71.167 -88 -94.5h287z" />
    <glyph glyph-name="three" unicode="3" horiz-adv-x="509" 
d="M458 211c0 -34 -5.33301 -65.332 -16 -93.999c-14.667 -39.333 -38.834 -70 -72.501 -92s-74.167 -33 -121.5 -33c-46 0 -86.333 11.667 -121 35s-59.667 55.333 -75 96c-8.66699 24 -13 53 -13 87h110c0 -23.333 3 -42.666 9 -57.999c6 -20.667 17 -37 33 -49
s34.667 -18 56 -18c44.667 0 74 19.333 88 58c8.66699 19.333 13 43 13 71c0 35.333 -4.66699 62.666 -14 81.999c-17.333 35.333 -46.333 53 -87 53c-7.33301 0 -15 -2.16699 -23 -6.5s-18 -10.5 -30 -18.5l-57 79l172 171h-259v93h401v-102l-141 -144
c30.667 -2.66699 56.834 -13.334 78.501 -32.001s38.5 -43 50.5 -73c12.667 -29.333 19 -64.333 19 -105z" />
    <glyph glyph-name="four" unicode="4" horiz-adv-x="563" 
d="M510 178h-56v-178h-108v178h-307v78l186 411h115l-178 -393h184v225h108v-225h56v-96z" />
    <glyph glyph-name="five" unicode="5" horiz-adv-x="509" 
d="M461 204c0 -27.333 -2.33594 -51.667 -7.00293 -73c-10 -44 -32.5 -78.167 -67.5 -102.5s-80.5 -36.5 -136.5 -36.5c-47.333 0 -87.5 11.5 -120.5 34.5s-55.5 54.167 -67.5 93.5c-6 17.333 -9.66699 37.333 -11 60h111c2 -12 4 -21 6 -27
c6.66699 -21.333 18 -37.5 34 -48.5s35 -16.5 57 -16.5c22.667 0 41.834 5.66699 57.501 17s26.5 28 32.5 50c6 12 9 31.667 9 59c0 21.333 -2.33301 38 -7 50c-5.33301 21.333 -15.666 37.833 -30.999 49.5s-35 17.5 -59 17.5c-22.667 0 -43.667 -6 -63 -18
s-30.333 -27 -33 -45h-113v399h393v-93h-284l-1 -190c31.333 27.333 69.666 41 114.999 41c46.667 0 85.834 -11.5 117.501 -34.5s51.834 -55.833 60.501 -98.5c5.33301 -28 8 -57.333 8 -88z" />
    <glyph glyph-name="six" unicode="6" horiz-adv-x="506" 
d="M462 199c0 -32 -0.994141 -53.666 -2.99414 -64.999c-9.33301 -42 -31.833 -75.667 -67.5 -101s-79.834 -38 -132.501 -38c-32 0 -62.833 6 -92.5 18s-54.667 29.667 -75 53s-32.5 51.333 -36.5 84c-2.66699 13.333 -4 37.666 -4 72.999l-1 280
c-0.666992 52 17.666 93.5 54.999 124.5s86.666 46.5 147.999 46.5c60 0 108.167 -15 144.5 -45s54.5 -70.667 54.5 -122v-13h-109v8c0 23.333 -8.33301 42.333 -25 57s-38.334 22 -65.001 22c-28 0 -50.667 -7.83301 -68 -23.5s-26 -35.5 -26 -59.5v-129
c24.667 34.667 64 52 118 52c45.333 0 85.166 -11.333 119.499 -34s55.166 -58.667 62.499 -108c2 -16 3 -42.667 3 -80zM356.006 212.001c0 26 -0.333008 42.334 -1 49.001c-2.66699 21.333 -12.667 39.5 -30 54.5s-39.666 22.5 -66.999 22.5s-49.666 -7.5 -66.999 -22.5
s-27.333 -33.5 -30 -55.5c-1.33301 -18.667 -2 -35.334 -2 -50.001c0 -12.667 0.666992 -29 2 -49c2.66699 -21.333 13.167 -39 31.5 -53s40.166 -21 65.499 -21s47.166 6.83301 65.499 20.5s28.833 31.5 31.5 53.5c0.666992 6 1 23 1 51z" />
    <glyph glyph-name="seven" unicode="7" horiz-adv-x="474" 
d="M116 574v-60h-89v153h421v-95l-216 -572h-116l218 574h-218z" />
    <glyph glyph-name="eight" unicode="8" horiz-adv-x="508" 
d="M465 192c0 -39.333 -8.33301 -73.3311 -25 -101.998c-16.667 -30 -40.834 -53.667 -72.501 -71s-69.167 -26 -112.5 -26c-42 0 -79.5 8.5 -112.5 25.5s-58.167 41.5 -75.5 73.5c-15.333 28 -23 61.667 -23 101c0 36.667 7 69 21 97c14 27.333 34 47.666 60 60.999
c-21.333 14.667 -38.333 32.334 -51 53.001c-16 25.333 -24 54.666 -24 87.999c0 41.333 11.333 77 34 107c18.667 24.667 42.834 43.834 72.501 57.501s62.5 20.5 98.5 20.5c37.333 0 70.333 -6.83301 99 -20.5s52 -32.834 70 -57.501
c23.333 -30.667 35 -66.334 35 -107.001c0 -34 -8.66699 -64.333 -26 -91c-12.667 -19.333 -29.667 -35.333 -51 -48c27.333 -14 48 -35.667 62 -65c14 -28 21 -60 21 -96zM158 486.002c0 -20 5.33301 -38.665 16 -55.998c8.66699 -13.333 19.834 -23.5 33.501 -30.5
s29.167 -10.5 46.5 -10.5s33.166 3.66699 47.499 11s25.833 17.666 34.5 30.999c10.667 15.333 16 34 16 56c0 16.667 -4 33 -12 49c-8 15.333 -19.5 27.166 -34.5 35.499s-32.167 12.5 -51.5 12.5c-18.667 0 -35.5 -4.16699 -50.5 -12.5s-26.5 -20.5 -34.5 -36.5
c-7.33301 -16 -11 -32.333 -11 -49zM355 202.004c0 20.667 -3.66602 40 -10.999 58c-15.333 38 -45.333 57 -90 57c-21.333 0 -39.5 -4.66699 -54.5 -14s-26.167 -22.666 -33.5 -39.999c-7.33301 -18 -11 -39 -11 -63c0 -28 6 -52 18 -72c17.333 -28 44.666 -42 81.999 -42
c35.333 0 62 13.333 80 40c13.333 19.333 20 44.666 20 75.999z" />
    <glyph glyph-name="nine" unicode="9" horiz-adv-x="506" 
d="M401 38.5c-37.333 -31 -86.6719 -46.502 -148.005 -46.502c-60 0 -108.167 15 -144.5 45s-54.5 70.667 -54.5 122v13h109v-8c0 -23.333 8.33301 -42.333 25 -57s38.334 -22 65.001 -22c28 0 50.667 7.83301 68 23.5s26 35.5 26 59.5v129
c-24.667 -34.667 -64 -52 -118 -52c-45.333 0 -85.166 11.333 -119.499 34s-55.166 58.667 -62.499 108c-2 16 -3 42.667 -3 80c0 32.667 1 54.334 3 65.001c9.33301 42 31.833 75.667 67.5 101s79.834 38 132.501 38c32 0 62.833 -6 92.5 -18s54.667 -29.667 75 -53
s32.5 -51.333 36.5 -84c2.66699 -13.333 4 -37.666 4 -72.999l1 -280c0.666992 -52 -17.666 -93.5 -54.999 -124.5zM314.994 350.498c17.333 15 27.333 33.499 30 55.499c1.33301 18.667 2 35.334 2 50.001c0 12.667 -0.666992 29 -2 49
c-2.66699 21.333 -13.167 39 -31.5 53s-40.166 21 -65.499 21s-47.166 -6.83301 -65.499 -20.5s-28.833 -31.5 -31.5 -53.5c-0.666992 -6 -1 -23 -1 -51c0 -26 0.333008 -42.333 1 -49c2.66699 -21.333 12.667 -39.5 30 -54.5s39.666 -22.5 66.999 -22.5
s49.666 7.5 66.999 22.5z" />
    <glyph glyph-name="colon" unicode=":" horiz-adv-x="323" 
d="M110.5 291c-13.667 14 -20.5 31 -20.5 51c0 19.333 6.83301 35.833 20.5 49.5s30.834 20.5 51.501 20.5c19.333 0 36 -6.83301 50 -20.5s21 -30.167 21 -49.5c0 -20 -7 -37 -21 -51s-30.667 -21 -50 -21c-20.667 0 -37.834 7 -51.501 21zM110.5 15
c-13.667 14 -20.5 31 -20.5 51c0 19.333 6.83301 35.833 20.5 49.5s30.834 20.5 51.501 20.5c19.333 0 36 -6.83301 50 -20.5s21 -30.167 21 -49.5c0 -20 -7 -37 -21 -51s-30.667 -21 -50 -21c-20.667 0 -37.834 7 -51.501 21z" />
    <glyph glyph-name="semicolon" unicode=";" horiz-adv-x="335" 
d="M223 145l-51 -234h-72l26 234h97zM122.5 291c-13.667 14 -20.5 31 -20.5 51c0 19.333 6.83301 35.833 20.5 49.5s30.834 20.5 51.501 20.5c19.333 0 36 -6.83301 50 -20.5s21 -30.167 21 -49.5c0 -20 -7 -37 -21 -51s-30.667 -21 -50 -21c-20.667 0 -37.834 7 -51.501 21
z" />
    <glyph glyph-name="equal" unicode="=" horiz-adv-x="412" 
d="M386 175h-359v91h359v-91zM386 349h-359v91h359v-91z" />
    <glyph glyph-name="question" unicode="?" horiz-adv-x="480" 
d="M198.5 296.5c7.66699 17 16.502 30.668 26.502 41.001s24.333 23.5 43 39.5c2.66699 2 11.167 9 25.5 21s25.166 25.167 32.499 39.5s11 29.833 11 46.5c0 26 -8.16699 47.5 -24.5 64.5s-37.166 25.5 -62.499 25.5c-26 0 -47.667 -9.16699 -65 -27.5s-26 -40.5 -26 -66.5
v-29l-108 5v24c0 36.667 8.66699 69.5 26 98.5s41.333 51.833 72 68.5s65.334 25 104.001 25c37.333 0 70.666 -7.83301 99.999 -23.5s52.166 -37.334 68.499 -65.001s24.5 -59.167 24.5 -94.5c0 -26 -3.83301 -48.5 -11.5 -67.5s-16.834 -34.5 -27.501 -46.5
s-24.667 -25.333 -42 -40c-4 -4 -13.333 -12.167 -28 -24.5s-25.5 -25 -32.5 -38s-10.5 -27.167 -10.5 -42.5v-35h-107v41c0 23.333 3.83301 43.5 11.5 60.5zM191.502 15.001c-13.667 14 -20.5 31 -20.5 51c0 19.333 6.83301 35.833 20.5 49.5s30.834 20.5 51.501 20.5
c19.333 0 36 -6.83301 50 -20.5s21 -30.167 21 -49.5c0 -20 -7 -37 -21 -51s-30.667 -21 -50 -21c-20.667 0 -37.834 7 -51.501 21z" />
    <glyph glyph-name="at" unicode="@" horiz-adv-x="809" 
d="M616 600.5c46.667 -27 82.667 -63.6621 108 -109.995s38 -97.833 38 -154.5c0 -14.667 -1 -30 -3 -46c-7.33301 -59.333 -27.166 -106.333 -59.499 -141s-73.166 -52 -122.499 -52c-24 0 -44.833 4.16699 -62.5 12.5s-31.5 20.5 -41.5 36.5
c-12 -16 -28 -28.167 -48 -36.5s-41.667 -12.5 -65 -12.5c-31.333 0 -57 8.33301 -77 25s-32.333 38.667 -37 66c-1.33301 12 -2 22 -2 30c0 10.667 1.33301 28 4 52c3.33301 28 9.66602 55 18.999 81c10.667 30 27.667 53.167 51 69.5s49.333 24.5 78 24.5
c16 0 31.333 -2.66699 46 -8s27.334 -13.333 38.001 -24l4 30h73l-26 -195c-0.666992 -4 -1 -9.66699 -1 -17c0 -20 4.5 -36.167 13.5 -48.5s21.833 -18.5 38.5 -18.5c22 0 40.333 10.5 55 31.5s24.667 50.5 30 88.5c2.66699 16.667 4 34.667 4 54
c0 68 -20.5 120.833 -61.5 158.5s-95.167 56.5 -162.5 56.5c-52 0 -100.5 -11.333 -145.5 -34s-81.833 -55.834 -110.5 -99.501s-45.334 -95.834 -50.001 -156.501c-0.666992 -7.33301 -1 -18.333 -1 -33c0 -72.667 20.333 -128.834 61 -168.501s96 -59.5 166 -59.5
c32.667 0 62.667 4 90 12s47.666 17.333 60.999 28l48 -69c-20.667 -18 -50.334 -32.333 -89.001 -43s-77.667 -16 -117 -16c-58 0 -110.833 13.167 -158.5 39.5s-85.334 63.666 -113.001 111.999s-41.5 103.833 -41.5 166.5c0 7.33301 0.666992 19.666 2 36.999
c6 74 27.667 139.167 65 195.5s85.833 99.833 145.5 130.5s124.834 46 195.501 46c60.667 0 114.334 -13.5 161.001 -40.5zM418.5 172.005c11.667 8.66699 20.501 20.6699 26.501 36.0029c3.33301 7.33301 6.16602 15.166 8.49902 23.499s4.5 21.5 6.5 39.5
c2 19.333 3 32.666 3 39.999c0 6.66699 -0.666992 14 -2 22c-0.666992 14.667 -6.16699 26.5 -16.5 35.5s-23.5 13.5 -39.5 13.5c-15.333 0 -29 -3.83301 -41 -11.5s-21 -17.834 -27 -30.501c-7.33301 -13.333 -13 -37.333 -17 -72c-2.66699 -18 -4 -32.667 -4 -44
c0 -20.667 5.5 -36.667 16.5 -48s26.167 -17 45.5 -17c15.333 0 28.833 4.33301 40.5 13z" />
    <glyph glyph-name="A" unicode="A" horiz-adv-x="609" 
d="M427 145h-245l-44 -145h-117l215 668h137l215 -668h-116zM401 228l-97 315l-97 -315h194z" />
    <glyph glyph-name="B" unicode="B" horiz-adv-x="581" 
d="M528 186c0 -60 -19.999 -105.667 -59.999 -137s-92.667 -47 -158 -47h-250v666h243c69.333 0 122.666 -15 159.999 -45s56 -75 56 -135c0 -70 -32.333 -117.667 -97 -143c70.667 -28.667 106 -81.667 106 -159zM169.001 385h135c33.333 0 59.833 8.33301 79.5 25
s29.5 39.334 29.5 68.001c0 29.333 -9.83301 52.666 -29.5 69.999s-46.5 26 -80.5 26h-134v-189zM390.001 123c19.333 18 29 42.666 29 73.999c0 30.667 -9.83301 54.834 -29.5 72.501s-46.5 26.5 -80.5 26.5h-140v-200h141c34 0 60.667 9 80 27z" />
    <glyph glyph-name="C" unicode="C" horiz-adv-x="582" 
d="M168 14.5c-37.333 19 -66.332 44.498 -86.999 76.498s-31 66.667 -31 104v268c0 37.333 10.333 72 31 104s49.667 57.667 87 77s79.666 29 126.999 29c48 0 90.667 -9.66699 128 -29s66.166 -45 86.499 -77s30.5 -66.667 30.5 -104v-15l-112 -6l-1 32
c0 16.667 -5.16699 33.167 -15.5 49.5s-25.5 29.833 -45.5 40.5s-43.667 16 -71 16c-26.667 0 -50 -5.33301 -70 -16s-35.5 -24.167 -46.5 -40.5s-16.5 -32.833 -16.5 -49.5v-284c0 -16.667 5.5 -33.667 16.5 -51s26.5 -31.666 46.5 -42.999s43.333 -17 70 -17
c27.333 0 51 5 71 15s35.167 22.833 45.5 38.5s15.833 31.834 16.5 48.501l2 31l110 -2v-15c0 -38 -9.33301 -72.833 -28 -104.5s-46.5 -57 -83.5 -76s-81.5 -28.5 -133.5 -28.5c-47.333 0 -89.666 9.5 -126.999 28.5z" />
    <glyph glyph-name="D" unicode="D" horiz-adv-x="578" 
d="M303 668c45.333 0 85.166 -7.99902 119.499 -23.999s60.833 -38.833 79.5 -68.5s28 -64.167 28 -103.5v-277c0 -38.667 -9.33301 -72.834 -28 -102.501s-45.167 -52.5 -79.5 -68.5s-74.166 -24 -119.499 -24h-243v668h243zM389.5 126.001
c20.333 21.333 30.834 50 31.501 86v243c0 36.667 -10.333 65.667 -31 87s-48.334 32 -83.001 32h-138v-480h139c34 0 61.167 10.667 81.5 32z" />
    <glyph glyph-name="E" unicode="E" horiz-adv-x="553" 
d="M169 574v-191h234v-93h-234v-196h341v-94h-450v668h450v-94h-341z" />
    <glyph glyph-name="F" unicode="F" horiz-adv-x="514" 
d="M169 574v-190h233v-93h-233v-291h-109v668h432v-94h-323z" />
    <glyph glyph-name="G" unicode="G" horiz-adv-x="575" 
d="M164 12.5c-36 17.667 -64.001 41.8311 -84.001 72.498s-30 64.667 -30 102v262c0 44.667 9.83301 83.834 29.5 117.501s47.5 59.834 83.5 78.501s77.667 28 125 28c46 0 87 -7.66699 123 -23s64 -36.5 84 -63.5s30 -57.5 30 -91.5v-48h-108v36
c0 29.333 -11.667 52.833 -35 70.5s-54.666 26.5 -93.999 26.5c-38.667 0 -69.834 -11.667 -93.501 -35s-35.5 -54.333 -35.5 -93v-244c0 -38 12.5 -68.833 37.5 -92.5s56.833 -35.5 95.5 -35.5c42.667 0 74.5 7.5 95.5 22.5s31.5 40.5 31.5 76.5v79h-134v88h240v-152
c0 -63.333 -21.167 -113.833 -63.5 -151.5s-100.166 -56.5 -173.499 -56.5c-46.667 0 -88 8.83301 -124 26.5z" />
    <glyph glyph-name="H" unicode="H" horiz-adv-x="608" 
d="M551 668v-668h-109v286h-271v-286h-109v668h109v-288h271v288h109z" />
    <glyph glyph-name="I" unicode="I" horiz-adv-x="238" 
d="M174 668v-668h-109v668h109z" />
    <glyph glyph-name="J" unicode="J" horiz-adv-x="557" 
d="M149 11c-34.667 17.333 -61.5 41.833 -80.5 73.5s-28.5 68.5 -28.5 110.5v73h109v-73c0 -35.333 11 -63.5 33 -84.5s51.333 -31.5 88 -31.5c36 0 65.5 10.667 88.5 32s34.5 49.333 34.5 84v473h108v-473c0 -42 -9.66699 -78.833 -29 -110.5s-46.5 -56.167 -81.5 -73.5
s-75.167 -26 -120.5 -26c-46 0 -86.333 8.66699 -121 26z" />
    <glyph glyph-name="K" unicode="K" horiz-adv-x="588" 
d="M169 668v-309l261 309h122l-231 -285l245 -381h-123l-196 306l-78 -91v-215h-109v666h109z" />
    <glyph glyph-name="L" unicode="L" horiz-adv-x="527" 
d="M169 668v-574h336v-94h-445v668h109z" />
    <glyph glyph-name="M" unicode="M" horiz-adv-x="661" 
d="M601 668v-668h-109v490l-131 -213h-60l-132 213v-490h-109v668h107l164 -263l163 263h107z" />
    <glyph glyph-name="N" unicode="N" horiz-adv-x="617" 
d="M557 668v-666h-103l-286 468l1 -468h-109v666h104l286 -470l-1 470h108z" />
    <glyph glyph-name="O" unicode="O" horiz-adv-x="589" 
d="M168 14.5c-37.333 19 -66.333 44.5 -87 76.5s-31 66.667 -31 104v268c0 37.333 10.333 72 31 104s49.667 57.667 87 77s79.666 29 126.999 29c48 0 90.667 -9.66699 128 -29s66.166 -45 86.499 -77s30.5 -66.667 30.5 -104v-268c0 -37.333 -10.167 -72 -30.5 -104
s-49.166 -57.5 -86.499 -76.5s-80 -28.5 -128 -28.5c-47.333 0 -89.666 9.5 -126.999 28.5zM365.5 96c19.667 11.333 34.667 25.666 45 42.999s15.5 34.333 15.5 51v284c0 16.667 -5 33.167 -15 49.5s-25 29.833 -45 40.5s-43.667 16 -71 16c-26.667 0 -50 -5.33301 -70 -16
s-35.333 -24.167 -46 -40.5s-16 -32.833 -16 -49.5v-284c0 -16.667 5.33301 -33.667 16 -51s26 -31.666 46 -42.999s43.333 -17 70 -17c27.333 0 50.833 5.66699 70.5 17z" />
    <glyph glyph-name="P" unicode="P" horiz-adv-x="555" 
d="M478 613.5c36.667 -36.333 54.999 -84.501 54.999 -144.501c0 -38.667 -8.5 -72.667 -25.5 -102s-41.167 -52.166 -72.5 -68.499s-67.333 -24.5 -108 -24.5h-158v-274h-109v668h272c60.667 0 109.334 -18.167 146.001 -54.5zM394.999 390.999
c20 19.333 30 44.666 30 75.999c0 32.667 -10 58.834 -30 78.501s-46.333 29.5 -79 29.5h-147v-213h147c32.667 0 59 9.66699 79 29z" />
    <glyph glyph-name="Q" unicode="Q" horiz-adv-x="603" 
d="M551 79l0.000976562 -93h-256c-47.333 0 -89.666 9.5 -126.999 28.5s-66.333 44.5 -87 76.5s-31 66.667 -31 104v268c0 37.333 10.333 72 31 104s49.667 57.667 87 77s79.666 29 126.999 29c48 0 90.667 -9.66699 128 -29s66.166 -45 86.499 -77s30.5 -66.667 30.5 -104
v-268c0 -42 -13 -80.667 -39 -116h50zM179.001 139c10.667 -17.333 26 -31.666 46 -42.999s43.333 -17 70 -17c27.333 0 50.833 5.66699 70.5 17s34.667 25.666 45 42.999s15.5 34.333 15.5 51v284c0 16.667 -5 33.167 -15 49.5s-25 29.833 -45 40.5s-43.667 16 -71 16
c-26.667 0 -50 -5.33301 -70 -16s-35.333 -24.167 -46 -40.5s-16 -32.833 -16 -49.5v-284c0 -16.667 5.33301 -33.667 16 -51z" />
    <glyph glyph-name="R" unicode="R" horiz-adv-x="561" 
d="M295 274h-126.001v-274h-109v668h272c60.667 0 109.334 -18.167 146.001 -54.5s55 -84.5 55 -144.5c0 -46 -11.833 -85.167 -35.5 -117.5s-56.5 -54.833 -98.5 -67.5l136 -284h-116zM168.999 362h147c32.667 0 59 9.66699 79 29s30 44.666 30 75.999
c0 32.667 -10 58.834 -30 78.501s-46.333 29.5 -79 29.5h-147v-213z" />
    <glyph glyph-name="S" unicode="S" horiz-adv-x="562" 
d="M107 39c-44 34.667 -65.998 81.0039 -65.998 139.004v33h107v-27c0 -30 13 -54.667 39 -74s61.667 -29 107 -29c39.333 0 68.833 8.16699 88.5 24.5s29.5 37.833 29.5 64.5c0 18 -5.33301 33.333 -16 46s-26 24.167 -46 34.5s-50.333 24.166 -91 41.499
c-49.333 20 -86.833 36.833 -112.5 50.5s-48 32.834 -67 57.501s-28.5 56 -28.5 94c0 55.333 20.333 99.166 61 131.499s95 48.5 163 48.5c47.333 0 89.166 -8 125.499 -24s64.666 -38.833 84.999 -68.5s30.5 -64.167 30.5 -103.5v-25h-107v20
c0 31.333 -12.5 57.166 -37.5 77.499s-58.833 30.5 -101.5 30.5c-35.333 0 -62.833 -7.5 -82.5 -22.5s-29.5 -35.833 -29.5 -62.5c0 -19.333 5.33301 -35.5 16 -48.5s26.5 -24.833 47.5 -35.5s51.833 -23.334 92.5 -38.001c44 -16.667 79.667 -32.334 107 -47.001
s50.833 -34.5 70.5 -59.5s29.5 -56.167 29.5 -93.5c0 -58 -21.333 -103.667 -64 -137s-100 -50 -172 -50c-74.667 0 -134 17.333 -178 52z" />
    <glyph glyph-name="T" unicode="T" horiz-adv-x="541" 
d="M519 575h-192v-575h-109v575h-196v93h497v-93z" />
    <glyph glyph-name="U" unicode="U" horiz-adv-x="603" 
d="M174 14.5c-37.333 19 -66.3359 44.5 -87.0029 76.5s-31 66.667 -31 104v473h114v-478c0 -16.667 5.33301 -33.667 16 -51s25.834 -31.666 45.501 -42.999s42.834 -17 69.501 -17c27.333 0 51 5.66699 71 17s35.167 25.666 45.5 42.999s15.5 34.333 15.5 51v478h113v-473
c0 -37.333 -10.167 -72 -30.5 -104s-49 -57.5 -86 -76.5s-79.833 -28.5 -128.5 -28.5c-47.333 0 -89.666 9.5 -126.999 28.5z" />
    <glyph glyph-name="V" unicode="V" horiz-adv-x="570" 
d="M549 668l-208 -668h-114l-206 668h116l149 -524l149 524h114z" />
    <glyph glyph-name="W" unicode="W" horiz-adv-x="985" 
d="M964 668l-208 -668h-114l-150 486l-151 -486h-114l-206 668h116l149 -524l149 524h117l150 -524l149 524h113z" />
    <glyph glyph-name="X" unicode="X" horiz-adv-x="569" 
d="M21 668h118l145 -251l146 251h118l-196 -335l196 -333h-117l-146 250l-146 -250h-118l196 334z" />
    <glyph glyph-name="Y" unicode="Y" horiz-adv-x="559" 
d="M21 668h117l141 -284l141 284h118l-205 -398v-267h-109v267z" />
    <glyph glyph-name="Z" unicode="Z" horiz-adv-x="494" 
d="M353 574h-331v94h450v-100l-331 -474h331v-94h-450v100z" />
    <glyph glyph-name="bracketleft" unicode="[" horiz-adv-x="281" 
d="M225 750v-93h-88v-698h89v-94h-198v885h197z" />
    <glyph glyph-name="backslash" unicode="\" horiz-adv-x="371" 
d="M245 2l-202 665h109l202 -665h-109z" />
    <glyph glyph-name="bracketright" unicode="]" horiz-adv-x="253" 
d="M28 -42h89v698h-89v94h198v-885h-198v93z" />
    <glyph glyph-name="underscore" unicode="_" horiz-adv-x="402" 
d="M384 85v-83h-366v83h366z" />
    <glyph glyph-name="a" unicode="a" horiz-adv-x="476" 
d="M346 473c30.667 -13.333 54.499 -32.334 71.499 -57.001s25.5 -52.667 25.5 -84v-332h-109v76c-21.333 -56 -69.333 -84 -144 -84c-48 0 -86.833 11.333 -116.5 34s-44.5 56.334 -44.5 101.001c0 46 17 82 51 108s82.333 39 145 39h109v40
c0 26.667 -8.16699 47.5 -24.5 62.5s-39.166 22.5 -68.499 22.5c-25.333 0 -46.166 -5.33301 -62.499 -16s-25.5 -24.667 -27.5 -42l-109 13c1.33301 26.667 10.833 50.5 28.5 71.5s41.167 37.5 70.5 49.5s62.666 18 99.999 18c39.333 0 74.333 -6.66699 105 -20z
M300.999 91.999c22 15.333 33 37.333 33 66v59h-86c-34.667 0 -61.667 -6.66699 -81 -20s-29 -32.333 -29 -57c0 -22 7.33301 -39.333 22 -52s35 -19 61 -19c31.333 0 58 7.66699 80 23z" />
    <glyph glyph-name="b" unicode="b" horiz-adv-x="496" 
d="M412 452.5c28.667 -28.333 42.999 -67.168 42.999 -116.501v-185c0 -49.333 -14.333 -88.166 -43 -116.499s-70 -42.5 -124 -42.5c-48.667 0 -86.667 15.333 -114 46v-38h-109v668h109v-218c28 30 65.667 45 113 45c54.667 0 96.334 -14.167 125.001 -42.5z
M350.999 335.998c0 24.667 -8.50098 44.333 -25.501 59s-38.833 22 -65.5 22c-22 0 -40.667 -5 -56 -15s-25.333 -24 -30 -42v-234c4.66699 -18 14.667 -31.833 30 -41.5s34.333 -14.5 57 -14.5c26.667 0 48.334 7 65.001 21s25 34 25 60v185z" />
    <glyph glyph-name="c" unicode="c" horiz-adv-x="493" 
d="M124 30.5c-35.333 24.333 -60.3311 58.165 -74.998 101.498c-10.667 32 -16 70 -16 114c0 40.667 5.33301 78.334 16 113.001c14 42 39 75 75 99s78 36 126 36c48.667 0 91.5 -12.167 128.5 -36.5s61.5 -55.166 73.5 -92.499c4.66699 -14 7 -27.667 7 -41l-106 -16
c-1.33301 8.66699 -3 16.667 -5 24c-4.66699 20 -16 36.5 -34 49.5s-39.333 19.5 -64 19.5s-45.5 -6.33301 -62.5 -19s-28.5 -30 -34.5 -52c-6.66699 -20 -10 -48.333 -10 -85c0 -34.667 3.33301 -63 10 -85c6 -23.333 17.5 -41.333 34.5 -54s37.833 -19 62.5 -19
c24 0 45 6.16699 63 18.5s29.667 29.5 35 51.5l3 18l106 -17c0 -9.33301 -1.66699 -20.333 -5 -33c-12.667 -41.333 -37.334 -73.5 -74.001 -96.5s-79.334 -34.5 -128.001 -34.5s-90.667 12.167 -126 36.5z" />
    <glyph glyph-name="d" unicode="d" horiz-adv-x="496" 
d="M437 668v-667.999h-109v44c-13.333 -16.667 -30.333 -29.5 -51 -38.5s-43.667 -13.5 -69 -13.5c-54.667 0 -96.167 14 -124.5 42s-42.5 66.667 -42.5 116v186c0 49.333 14.333 88.166 43 116.499s69.667 42.5 123 42.5c25.333 0 48.333 -4.5 69 -13.5
s38 -21.833 52 -38.5v225h109zM325 336.001c0 25.333 -8.16699 45.166 -24.5 59.499s-38.166 21.5 -65.499 21.5c-26 0 -47.5 -7.16699 -64.5 -21.5s-25.5 -34.166 -25.5 -59.499v-186c0 -24.667 8.5 -44.167 25.5 -58.5s38.5 -21.5 64.5 -21.5
c27.333 0 49.166 7.16699 65.499 21.5s24.5 33.833 24.5 58.5v186z" />
    <glyph glyph-name="e" unicode="e" horiz-adv-x="478" 
d="M131 218l-0.000976562 -38c0 -28 10.333 -51 31 -69s45.334 -27 74.001 -27c25.333 0 47.666 6.5 66.999 19.5s31.666 29.5 36.999 49.5l95 -19c-7.33301 -40 -29.5 -73.333 -66.5 -100s-81.167 -40 -132.5 -40c-34.667 0 -67.5 7 -98.5 21s-56.167 34.667 -75.5 62
s-29 60.333 -29 99v137c0 34.667 9 66.167 27 94.5s42.333 50.333 73 66s64.667 23.5 102 23.5c38.667 0 73.834 -7.83301 105.501 -23.5s56.834 -37.5 75.501 -65.5s28 -59.667 28 -95v-94zM161.999 378c-20.667 -18 -31 -41.001 -31 -69.001v-32l212 1v31
c0 28.667 -10.5 51.834 -31.5 69.501s-46.5 26.5 -76.5 26.5c-28 0 -52.333 -9 -73 -27z" />
    <glyph glyph-name="f" unicode="f" horiz-adv-x="344" 
d="M221 574c-10 -12.667 -15.001 -31.999 -15.001 -57.999v-84h111v-87h-111v-345h-108v345h-71v87h71v93c0 52 13.333 89.333 40 112s72.334 33 137.001 31h42v-74h-42c-26 -0.666992 -44 -7.33398 -54 -20.001z" />
    <glyph glyph-name="g" unicode="g" horiz-adv-x="489" 
d="M434 490l0.00195312 -461.999c0 -78.667 -23.167 -135.334 -69.5 -170.001s-105.833 -52 -178.5 -52c-20.667 0 -44.334 1.66699 -71.001 5l4 96c23.333 -3.33301 43.666 -5 60.999 -5c44.667 0 80 10.167 106 30.5s39 51.833 39 94.5v13
c-14 -15.333 -31 -27.166 -51 -35.499s-42 -12.5 -66 -12.5c-54.667 0 -96.167 14 -124.5 42s-42.5 66.667 -42.5 116v186c0 49.333 14.333 88.166 43 116.499s69.667 42.5 123 42.5c24 0 46.167 -4.16699 66.5 -12.5s37.5 -20.5 51.5 -36.5v44h109zM300.502 91.501
c16.333 14.333 24.5 33.833 24.5 58.5v186c0 25.333 -8.16699 45.166 -24.5 59.499s-38.166 21.5 -65.499 21.5c-26 0 -47.5 -7.16699 -64.5 -21.5s-25.5 -34.166 -25.5 -59.499v-186c0 -24.667 8.5 -44.167 25.5 -58.5s38.5 -21.5 64.5 -21.5
c27.333 0 49.166 7.16699 65.499 21.5z" />
    <glyph glyph-name="h" unicode="h" horiz-adv-x="495" 
d="M412 452.5c28.667 -28.333 42.998 -67.165 42.998 -116.498v-336h-105v336c0 25.333 -8.33301 45.166 -25 59.499s-38.334 21.5 -65.001 21.5c-21.333 0 -39.666 -4.83301 -54.999 -14.5s-25.666 -22.834 -30.999 -39.501v-363h-109v668h109v-218c28 30 65.667 45 113 45
c54.667 0 96.334 -14.167 125.001 -42.5z" />
    <glyph glyph-name="i" unicode="i" horiz-adv-x="254" 
d="M82 574c-13.333 13.333 -20 29.333 -20 48c0 18 6.66699 33.5 20 46.5s29.333 19.5 48 19.5c18 0 33.5 -6.5 46.5 -19.5s19.5 -28.5 19.5 -46.5c0 -18.667 -6.5 -34.667 -19.5 -48s-28.5 -20 -46.5 -20c-18.667 0 -34.667 6.66699 -48 20zM182 490v-490h-109v490h109z
" />
    <glyph glyph-name="j" unicode="j" horiz-adv-x="294" 
d="M115.5 573.5c-13 13 -19.5 29.167 -19.5 48.5c0 18 6.5 33.5 19.5 46.5s28.833 19.5 47.5 19.5c18 0 33.667 -6.5 47 -19.5s20 -28.5 20 -46.5c0 -18.667 -6.66699 -34.667 -20 -48s-29 -20 -47 -20c-18.667 0 -34.5 6.5 -47.5 19.5zM83 -93.5
c17.333 13.667 26.001 36.832 26.001 69.499l-2 514h109v-513c0 -46.667 -6.66699 -83.167 -20 -109.5s-35.833 -45 -67.5 -56s-75.834 -15.833 -132.501 -14.5v91c40.667 -1.33301 69.667 4.83398 87 18.501z" />
    <glyph glyph-name="k" unicode="k" horiz-adv-x="510" 
d="M171 668v-367l168 186h125l-134 -162l151 -323h-115l-111 256l-84 -98v-158h-109v666h109z" />
    <glyph glyph-name="l" unicode="l" horiz-adv-x="253" 
d="M226 94v-94h-161v668h109v-574h52z" />
    <glyph glyph-name="m" unicode="m" horiz-adv-x="771" 
d="M687 452.5c28.667 -28.333 43 -67.1689 43 -116.502v-336h-104v336c0 24.667 -8.5 44.334 -25.5 59.001s-38.5 22 -64.5 22c-27.333 0 -49.166 -7.16699 -65.499 -21.5s-24.5 -34.166 -24.5 -59.499v-336h-105v336c0 25.333 -8.33301 45.166 -25 59.499
s-38.334 21.5 -65.001 21.5s-48.334 -7.16699 -65.001 -21.5s-25 -34.166 -25 -59.499v-336h-109v490h109v-45c13.333 16 30 28.333 50 37s42.333 13 67 13c36.667 0 67.667 -6.5 93 -19.5s44.333 -31.5 57 -55.5c12.667 24 30.667 42.5 54 55.5s50 19.5 80 19.5
c54.667 0 96.334 -14.167 125.001 -42.5z" />
    <glyph glyph-name="n" unicode="n" horiz-adv-x="487" 
d="M403 452.5c28.667 -28.333 43.001 -67.167 43.001 -116.5v-336h-105v336c0 25.333 -8.33301 45.166 -25 59.499s-38.334 21.5 -65.001 21.5s-48.334 -7.16699 -65.001 -21.5s-25 -34.166 -25 -59.499v-336h-109v490h109v-45c13.333 16 30 28.333 50 37s42.333 13 67 13
c54.667 0 96.334 -14.167 125.001 -42.5z" />
    <glyph glyph-name="o" unicode="o" horiz-adv-x="482" 
d="M136 14.5c-31.333 15 -55.8311 35.334 -73.498 61.001s-26.5 54.167 -26.5 85.5v166c0 30.667 9.16699 58.834 27.5 84.501s43.166 46 74.499 61s65.666 22.5 102.999 22.5c38 0 72.667 -7.33301 104 -22s56 -34.834 74 -60.501s27 -54.167 27 -85.5v-166
c0 -32 -8.83301 -60.833 -26.5 -86.5s-42 -45.834 -73 -60.501s-66.167 -22 -105.5 -22c-38.667 0 -73.667 7.5 -105 22.5zM315.502 103.501c17 17 25.5 38.5 25.5 64.5v152c0 24 -9.16699 44.5 -27.5 61.5s-42.5 25.5 -72.5 25.5c-29.333 0 -53.333 -8.5 -72 -25.5
s-28 -37.5 -28 -61.5v-152c0 -26 8.66699 -47.5 26 -64.5s42 -25.5 74 -25.5c32.667 0 57.5 8.5 74.5 25.5z" />
    <glyph glyph-name="p" unicode="p" horiz-adv-x="497" 
d="M412.5 453c28.333 -28 42.5 -67.001 42.5 -117.001v-185c0 -49.333 -14.167 -88.166 -42.5 -116.499s-69.5 -42.5 -123.5 -42.5c-24 0 -46.167 4.16699 -66.5 12.5s-37.5 20.5 -51.5 36.5v-244h-109v698h109v-49c29.333 32.667 68.333 49 117 49
c54.667 0 96.167 -14 124.5 -42zM351 335.999c0 25.333 -8.33105 45.166 -24.998 59.499s-38.334 21.5 -65.001 21.5s-48.334 -7.16699 -65.001 -21.5s-25 -34.166 -25 -59.499v-185c0 -26 8.16699 -46 24.5 -60s38.166 -21 65.499 -21c26.667 0 48.334 7 65.001 21
s25 34 25 60v185z" />
    <glyph glyph-name="q" unicode="q" horiz-adv-x="497" 
d="M435 495l-0.000976562 -697.999h-109v244c-13.333 -15.333 -30.166 -27.333 -50.499 -36s-42.833 -13 -67.5 -13c-54.667 0 -96.167 14 -124.5 42s-42.5 66.667 -42.5 116v186c0 49.333 14.333 88.166 43 116.499s69.667 42.5 123 42.5c50 0 89.667 -16.667 119 -50v50
h109zM324.999 336.001c0 25.333 -8.16699 45.166 -24.5 59.499s-38.166 21.5 -65.499 21.5c-26 0 -47.5 -7.16699 -64.5 -21.5s-25.5 -34.166 -25.5 -59.499v-186c0 -24.667 8.5 -44.167 25.5 -58.5s38.5 -21.5 64.5 -21.5c27.333 0 49.166 7.16699 65.499 21.5
s24.5 33.833 24.5 58.5v186z" />
    <glyph glyph-name="r" unicode="r" horiz-adv-x="354" 
d="M339 472l-18.999 -102c-12 6.66699 -27 10 -45 10c-8.66699 0 -15 -0.333008 -19 -1c-25.333 -2 -47.333 -12.667 -66 -32s-28.334 -43.333 -29.001 -72v-275h-109v490h109v-94c13.333 27.333 29.833 49.5 49.5 66.5s42.5 25.5 68.5 25.5
c24.667 0 44.667 -5.33301 60 -16z" />
    <glyph glyph-name="s" unicode="s" horiz-adv-x="461" 
d="M127.5 15c-29.667 12.667 -52.665 30.1689 -68.998 52.502s-24.5 47.833 -24.5 76.5v11h100v-14c0 -18.667 9.16699 -34 27.5 -46s41.166 -18 68.499 -18c26 0 47.167 5.5 63.5 16.5s24.5 25.5 24.5 43.5c0 15.333 -7.33301 26.833 -22 34.5s-38.334 16.167 -71.001 25.5
c-30 7.33301 -56.667 15.666 -80 24.999c-34.667 14 -61.834 30.333 -81.501 49s-29.5 44 -29.5 76c0 44.667 17.5 80.167 52.5 106.5s81.167 39.5 138.5 39.5c58 0 105 -13.5 141 -40.5s54 -62.833 54 -107.5v-10h-102v10c0 18.667 -8.5 34 -25.5 46s-38.833 18 -65.5 18
c-26 0 -47.167 -5.5 -63.5 -16.5s-24.5 -25.5 -24.5 -43.5c0 -16 7.83301 -28 23.5 -36s40.834 -16.333 75.501 -25c26.667 -6.66699 47 -12.334 61 -17.001c40.667 -13.333 72.167 -29.833 94.5 -49.5s33.5 -46.834 33.5 -81.501c0 -45.333 -17.833 -80.666 -53.5 -105.999
s-83.167 -38 -142.5 -38c-39.333 0 -73.833 6.33301 -103.5 19z" />
    <glyph glyph-name="t" unicode="t" horiz-adv-x="347" 
d="M204 398v-235c0 -24 5.33301 -41.833 16 -53.5s27.667 -17.5 51 -17.5h39v-92c-28 -1.33301 -48 -2 -60 -2c-51.333 0 -89 8.83301 -113 26.5s-36.333 49.5 -37 95.5v278h-71v87h71v128h104v-128h113v-87h-113z" />
    <glyph glyph-name="u" unicode="u" horiz-adv-x="478" 
d="M434 490l0.000976562 -490.001h-109v43c-14 -15.333 -31 -27.166 -51 -35.499s-42 -12.5 -66 -12.5c-54.667 0 -96.167 14 -124.5 42s-42.5 66.667 -42.5 116v337h104v-337c0 -24.667 8.5 -44.167 25.5 -58.5s38.5 -21.5 64.5 -21.5c27.333 0 49.166 7.16699 65.499 21.5
s24.5 33.833 24.5 58.5v337h109z" />
    <glyph glyph-name="v" unicode="v" horiz-adv-x="473" 
d="M136 490l101 -367l100 367h117l-158 -490h-118l-159 490h117z" />
    <glyph glyph-name="w" unicode="w" horiz-adv-x="772" 
d="M753 490l-159 -490h-104l-104 333l-104 -333h-105l-158 490h117l101 -367l100 367h98l100 -367l101 367h117z" />
    <glyph glyph-name="x" unicode="x" horiz-adv-x="491" 
d="M19 490h117l106 -162l106 162h124l-163 -245l163 -245h-117l-106 162l-106 -162h-124l163 245z" />
    <glyph glyph-name="y" unicode="y" horiz-adv-x="472" 
d="M56 -111c26.667 0.666992 47.6699 3.5 63.0029 8.5s27.666 14.5 36.999 28.5s17.666 34.667 24.999 62l-162 490h115l103 -356l102 356h114l-173 -516c-16 -44.667 -31.833 -78.167 -47.5 -100.5s-36.834 -38.5 -63.501 -48.5s-64 -15 -112 -15h-11v91h10z" />
    <glyph glyph-name="z" unicode="z" horiz-adv-x="435" 
d="M275 391h-241v99h368v-101l-251 -290h254v-99h-376v101z" />
    <glyph glyph-name="braceleft" unicode="{" horiz-adv-x="341" 
d="M120 -106c-18.667 19.333 -28 47.3369 -28 84.0039v201c0 56.667 -20.667 86 -62 88v87c21.333 1.33301 37 9 47 23s15 35.333 15 64v196c0 36.667 9.33301 64.667 28 84s45.667 29 81 29h85v-93h-35c-15.333 0 -27.5 -5.83301 -36.5 -17.5s-13.5 -27.834 -13.5 -48.501
v-165c0 -32.667 -4.5 -58.334 -13.5 -77.001s-23.5 -31.334 -43.5 -38.001c38 -14.667 57 -54 57 -118v-168c0 -20.667 4.5 -36.834 13.5 -48.501s21.167 -17.5 36.5 -17.5h35v-94h-85c-35.333 0 -62.333 9.66699 -81 29z" />
    <glyph glyph-name="braceright" unicode="}" horiz-adv-x="341" 
d="M55 -41l35 -0.00390625c15.333 0 27.5 5.83301 36.5 17.5s13.5 27.834 13.5 48.501v168c0 64 19 103.333 57 118c-20 6.66699 -34.5 19.334 -43.5 38.001s-13.5 44.334 -13.5 77.001v165c0 20.667 -4.5 36.834 -13.5 48.501s-21.167 17.5 -36.5 17.5h-35v93h85
c35.333 0 62.333 -9.66699 81 -29s28 -47.333 28 -84v-196c0 -28.667 5 -50 15 -64s25.667 -21.667 47 -23v-87c-41.333 -2 -62 -31.333 -62 -88v-201c0 -36.667 -9.33301 -64.667 -28 -84s-45.667 -29 -81 -29h-85v94z" />
    <glyph glyph-name="uni00A0" unicode="&#xa0;" horiz-adv-x="245" 
 />
    <glyph glyph-name="guillemotleft" unicode="&#xab;" horiz-adv-x="467" 
d="M170 359c-10.667 -24.667 -16 -50.332 -16 -76.999c0 -52.667 19 -99 57 -139l-59 -56c-25.333 26 -44.833 56 -58.5 90s-20.5 69 -20.5 105c0 38 7.5 74.667 22.5 110s36.5 66 64.5 92l55 -60c-19.333 -18.667 -34.333 -40.334 -45 -65.001zM342.5 360.002
c-10.333 -24.667 -15.499 -50.668 -15.499 -78.001c0 -53.333 18.667 -99.666 56 -138.999l-58 -56c-25.333 26 -45 55.833 -59 89.5s-21 68.834 -21 105.501c0 37.333 7.66699 73.666 23 108.999s36.666 66.333 63.999 93l56 -60c-20 -18 -35.167 -39.333 -45.5 -64z" />
    <glyph glyph-name="guillemotright" unicode="&#xbb;" horiz-adv-x="469" 
d="M374 391c15.333 -35.333 23.001 -71.665 23.001 -108.998c0 -36.667 -7 -71.834 -21 -105.501s-33.667 -63.5 -59 -89.5l-58 56c37.333 39.333 56 85.666 56 138.999c0 27.333 -5.16699 53.333 -15.5 78s-25.5 46 -45.5 64l56 60
c27.333 -26.667 48.666 -57.667 63.999 -93zM199.001 391.001c15.333 -35.333 23.001 -71.665 23.001 -108.998c0 -36.667 -7 -71.834 -21 -105.501s-33.667 -63.5 -59 -89.5l-58 56c37.333 39.333 56 85.666 56 138.999c0 27.333 -5.16699 53.333 -15.5 78
s-25.5 46 -45.5 64l56 60c27.333 -26.667 48.666 -57.667 63.999 -93z" />
    <glyph glyph-name="multiply" unicode="&#xd7;" horiz-adv-x="422" 
d="M269 303l100 -101l-58 -58l-100 101l-101 -101l-57 58l100 101l-100 100l57 58l101 -101l100 101l58 -58z" />
    <glyph glyph-name="divide" unicode="&#xf7;" horiz-adv-x="412" 
d="M157.5 414c-12.333 12.667 -18.5 28 -18.5 46s6.16699 33.167 18.5 45.5s27.833 18.5 46.5 18.5c17.333 0 32.333 -6.16699 45 -18.5s19 -27.5 19 -45.5s-6.33301 -33.333 -19 -46s-27.667 -19 -45 -19c-18.667 0 -34.167 6.33301 -46.5 19zM27 262v91h359v-91h-359z
M157.5 95.5c-12.333 12.333 -18.5 27.833 -18.5 46.5c0 17.333 6.16699 32.166 18.5 44.499s27.833 18.5 46.5 18.5c17.333 0 32.333 -6.16699 45 -18.5s19 -27.166 19 -44.499c0 -18 -6.16699 -33.333 -18.5 -46s-27.5 -19 -45.5 -19c-18.667 0 -34.167 6.16699 -46.5 18.5
z" />
    <glyph glyph-name="uni060C" unicode="&#x60c;" horiz-adv-x="310" 
d="M208.5 114.5c11.667 -13 17.5 -28.5 17.5 -46.5c0 -20 -7 -37 -21 -51s-30.667 -21 -50 -21c-20 0 -36.833 7 -50.5 21s-20.5 31 -20.5 51c0 9.33301 1.66699 18.333 5 27l68 159l49 -21l-41 -96c17.333 -2 31.833 -9.5 43.5 -22.5z" />
    <glyph glyph-name="uni061B" unicode="&#x61b;" horiz-adv-x="310" 
d="M208.5 390.5c11.667 -13 17.5 -28.5 17.5 -46.5c0 -20 -7 -37 -21 -51s-30.667 -21 -50 -21c-20 0 -36.833 7 -50.5 21s-20.5 31 -20.5 51c0 9.33301 1.66699 18.333 5 27l68 159l49 -21l-41 -96c17.333 -2 31.833 -9.5 43.5 -22.5zM104.5 15
c-13.667 14 -20.5 31 -20.5 51c0 19.333 6.83301 35.833 20.5 49.5s30.834 20.5 51.501 20.5c19.333 0 36 -6.83301 50 -20.5s21 -30.167 21 -49.5c0 -20 -7 -37 -21 -51s-30.667 -21 -50 -21c-20.667 0 -37.834 7 -51.501 21z" />
    <glyph glyph-name="uni061F" unicode="&#x61f;" horiz-adv-x="531" 
d="M222 222c-0.666992 20.667 -4.66895 36.166 -12.002 46.499s-22.666 25.5 -45.999 45.5c-23.333 19.333 -41.5 36 -54.5 50s-23.167 30 -30.5 48s-11 39.333 -11 64c0 36.667 8.83301 70.334 26.5 101.001s41.5 55 71.5 73s63 27 99 27s69.167 -9.16699 99.5 -27.5
s54.333 -43 72 -74s26.5 -64.833 26.5 -101.5v-40h-93v40c0 27.333 -10.167 50.833 -30.5 70.5s-45.166 29.5 -74.499 29.5s-54 -9.5 -74 -28.5s-30 -42.167 -30 -69.5c0 -22.667 5.66699 -41.167 17 -55.5s29.333 -31.166 54 -50.499c24.667 -18 42.167 -32.167 52.5 -42.5
s18 -23.333 23 -39s7.5 -37.834 7.5 -66.501v-47h-93v47zM216.498 -11.001c-13.667 14 -20.5 31 -20.5 51s6.83301 36.833 20.5 50.5s30.834 20.5 51.501 20.5c19.333 0 35.833 -6.83301 49.5 -20.5s20.5 -30.5 20.5 -50.5s-6.83301 -37 -20.5 -51s-30.167 -21 -49.5 -21
c-20.667 0 -37.834 7 -51.501 21z" />
    <glyph glyph-name="uni0621" unicode="&#x621;" horiz-adv-x="480" 
d="M430 52l-365 -69l-15 92l90 17c-12.667 19.333 -21 40.333 -25 63c-2 10 -3 20.333 -3 31c0 38 11.833 71.667 35.5 101s54.167 47.333 91.5 54c3.33301 0.666992 9 1 17 1c27.333 0 67.333 -6 120 -18l-22 -89c-42 10 -73 15 -93 15s-36.167 -6.33301 -48.5 -19
s-18.5 -28 -18.5 -46c0 -19.333 6.66699 -35.5 20 -48.5s30.333 -19.5 51 -19.5c2.66699 0 8 0.666992 16 2l134 25z" />
    <glyph glyph-name="uni0622" unicode="&#x622;" horiz-adv-x="302" 
d="M195 571l22 -570l-93 -4l-22 569zM22.5 677.5c15 15.667 35.166 23.5 60.499 23.5c10 0 17.667 -0.666992 23 -2l101 -19c2.66699 -0.666992 6.66699 -1 12 -1c24 0 36 11 36 33v6l49 3v-19c0 -26 -7.66699 -46.833 -23 -62.5s-35.333 -23.5 -60 -23.5
c-10 0 -17.667 0.666992 -23 2l-101 19c-3.33301 0.666992 -7.66602 1 -12.999 1c-23.333 0 -35 -11 -35 -33v-6l-49 -3v19c0 26 7.5 46.833 22.5 62.5z" />
    <glyph glyph-name="uni0623" unicode="&#x623;" horiz-adv-x="302" 
d="M195 571l22 -570l-93 -4l-22 569zM177 650l-5 -1l-159 -38l-11 52l78 19c-11.333 12 -19 27.333 -23 46c-2 8 -3 16 -3 24c0 28 9.66699 52 29 72s43 30 71 30c17.333 0.666992 44.333 -2.66602 81 -9.99902l-9 -52c-29.333 5.33301 -52.333 8 -69 8
c-16 0 -29.167 -4.66699 -39.5 -14s-15.5 -21 -15.5 -35c0 -15.333 6.16699 -27.833 18.5 -37.5s25.833 -13.834 40.5 -12.501l108 26l12 -52z" />
    <glyph glyph-name="uni0624" unicode="&#x624;" horiz-adv-x="505" 
d="M455 -23c0 -48 -11.501 -86.166 -34.501 -114.499s-57.5 -50.833 -103.5 -67.5s-112.333 -34 -199 -52l-19 101c78 16 133.833 28.833 167.5 38.5s57.834 21.834 72.501 36.501s22 35.667 22 63c0 10 -0.333008 17.667 -1 23l-1 5c-41.333 -6.66699 -82 -10 -122 -10
c-33.333 0 -63.5 8 -90.5 24s-48 38 -63 66s-22.5 60 -22.5 96c0 35.333 7.66699 68.666 23 99.999s36.833 56.666 64.5 75.999s59.5 29 95.5 29c51.333 0 94.333 -19.667 129 -59s55.667 -91 63 -155l17 -161c1.33301 -18.667 2 -31.667 2 -39zM348.999 114.001l-5 50.001
c-4 39.333 -15 69.666 -33 90.999s-40.667 32 -68 32s-49 -9.83301 -65 -29.5s-24 -43.167 -24 -70.5c0 -26 7.33301 -46.333 22 -61s35 -22 61 -22c38.667 0 76 3.33301 112 10zM286.999 467.002l-5 -1l-159 -38l-11 52l78 19c-11.333 12 -19 27.333 -23 46
c-2 8 -3 16 -3 24c0 28 9.66699 52 29 72s43 30 71 30c17.333 0.666992 44.333 -2.66602 81 -9.99902l-9 -52c-29.333 5.33301 -52.333 8 -69 8c-16 0 -29.167 -4.66699 -39.5 -14s-15.5 -21 -15.5 -35c0 -15.333 6.16699 -27.833 18.5 -37.5s25.833 -13.834 40.5 -12.501
l108 26l12 -52z" />
    <glyph glyph-name="uni0625" unicode="&#x625;" horiz-adv-x="267" 
d="M172 673l25 -672l-92 -4l-26 671zM176 -241l-5 -1l-159 -38l-11 52l78 19c-11.333 12 -19 27.333 -23 46c-2 8 -3 16 -3 24c0 28 9.66699 52 29 72s43 30 71 30c17.333 0.666992 44.333 -2.66602 81 -9.99902l-9 -52c-29.333 5.33301 -52.333 8 -69 8
c-16 0 -29.167 -4.66699 -39.5 -14s-15.5 -21 -15.5 -35c0 -15.333 6.16699 -27.833 18.5 -37.5s25.833 -13.834 40.5 -12.501l108 26l12 -52z" />
    <glyph glyph-name="uni0626" unicode="&#x626;" horiz-adv-x="710" 
d="M302 -247c-52 0 -96.8301 11.666 -134.497 34.999s-66.667 56.333 -87 99s-30.5 92.334 -30.5 149.001c0 64 12.667 132 38 204l88 -35c-22 -64.667 -33 -121.334 -33 -170.001c0 -56.667 13.833 -100.5 41.5 -131.5s66.834 -46.5 117.501 -46.5
c24 0 46.667 2.66699 68 8c55.333 13.333 99.833 27.5 133.5 42.5s50.167 27.833 49.5 38.5c-0.666992 5.33301 -6.5 10.333 -17.5 15s-31.167 11.334 -60.5 20.001l-43 13c-44.667 15.333 -78 32.833 -100 52.5s-33 47.5 -33 83.5c0 21.333 4.33301 46 13 74
c9.33301 30 23.833 59.333 43.5 88s44.167 52.334 73.5 71.001s62 28 98 28c20 0 39 -2.66699 57 -8l65 -18l-24 -100l-65 18c-10.667 3.33301 -22.667 5 -36 5c-25.333 0 -46.833 -7.33301 -64.5 -22s-31.334 -30.5 -41.001 -47.5s-15.834 -31.167 -18.501 -42.5
c-3.33301 -13.333 -5 -23.333 -5 -30c0 -16 5.66699 -27.5 17 -34.5s32 -15.167 62 -24.5c48 -14 81.5 -24.5 100.5 -31.5s34.5 -16.833 46.5 -29.5s20 -30.334 24 -53.001c0.666992 -4 1 -10.333 1 -19c0 -42.667 -22.333 -80.5 -67 -113.5s-107.334 -58.5 -188.001 -76.5
c-32.667 -7.33301 -62.334 -11 -89.001 -11zM285.003 369.999l-5 -1l-159 -38l-11 52l78 19c-11.333 12 -19 27.333 -23 46c-2 8 -3 16 -3 24c0 28 9.66699 52 29 72s43 30 71 30c17.333 0.666992 44.333 -2.66602 81 -9.99902l-9 -52c-29.333 5.33301 -52.333 8 -69 8
c-16 0 -29.167 -4.66699 -39.5 -14s-15.5 -21 -15.5 -35c0 -15.333 6.16699 -27.833 18.5 -37.5s25.833 -13.834 40.5 -12.501l108 26l12 -52z" />
    <glyph glyph-name="uni0627" unicode="&#x627;" horiz-adv-x="267" 
d="M172 673l25 -672l-92 -4l-26 671z" />
    <glyph glyph-name="uni0628" unicode="&#x628;" horiz-adv-x="935" 
d="M634.5 106c37 1.33301 62.501 3.33301 76.501 6s26.667 6.33398 38 11.001c15.333 6.66699 26.5 14.5 33.5 23.5s10.5 20.833 10.5 35.5c0 11.333 -2.66699 27 -8 47l-38 139l90 26l38 -139c6.66699 -24 10 -48 10 -72c0 -36 -8.33301 -67.5 -25 -94.5
s-41 -47.5 -73 -61.5c-18.667 -7.33301 -37.834 -12.833 -57.501 -16.5s-49 -6.33398 -88 -8.00098s-96.833 -2.5 -173.5 -2.5v104c74 0 129.5 0.666992 166.5 2zM294.001 2.5c-39.333 1.66699 -69.001 4.33301 -89.001 8s-39 9.16699 -57 16.5
c-31.333 14 -55.333 34.333 -72 61s-25 57.667 -25 93c0 21.333 3 44 9 68l37 143l89 -26l-38 -147c-3.33301 -11.333 -5 -23.666 -5 -36.999c0 -14.667 3.33301 -26.667 10 -36s17.334 -17.333 32.001 -24c16 -6.66699 40.833 -11.334 74.5 -14.001s103.167 -4 208.5 -4
v-104c-76.667 -0 -134.667 0.833008 -174 2.5zM390 -142.001l78 77l77 -77l-77 -78z" />
    <glyph glyph-name="uni0629" unicode="&#x629;" horiz-adv-x="460" 
d="M388 281c14.667 -29.333 21.998 -62 21.998 -98c0 -33.333 -8.16699 -64.166 -24.5 -92.499s-38.166 -50.833 -65.499 -67.5s-57.333 -25 -90 -25s-62.667 8.33301 -90 25s-49.166 39.167 -65.499 67.5s-24.5 59.166 -24.5 92.499c0 28.667 7 57.667 21 87
s33.667 56.333 59 81l33 33l-32 30l65 75l120 -116c33.333 -32 57.333 -62.667 72 -92zM293.498 123.5c17 16.333 25.501 36.167 25.501 59.5c0 18 -4.33301 35.167 -13 51.5s-26 37.166 -52 62.499l-23 22l-33 -32c-20.667 -20.667 -35.5 -39.167 -44.5 -55.5
s-13.5 -32.5 -13.5 -48.5c0 -23.333 8.66699 -43.166 26 -59.499s38.666 -24.5 63.999 -24.5s46.5 8.16699 63.5 24.5zM60.999 568.001l69 69l69 -69l-69 -68zM242.999 568.001l69 69l69 -69l-69 -68z" />
    <glyph glyph-name="uni062A" unicode="&#x62a;" horiz-adv-x="935" 
d="M634.5 106c37 1.33301 62.501 3.33301 76.501 6s26.667 6.33398 38 11.001c15.333 6.66699 26.5 14.5 33.5 23.5s10.5 20.833 10.5 35.5c0 11.333 -2.66699 27 -8 47l-38 139l90 26l38 -139c6.66699 -24 10 -48 10 -72c0 -36 -8.33301 -67.5 -25 -94.5
s-41 -47.5 -73 -61.5c-18.667 -7.33301 -37.834 -12.833 -57.501 -16.5s-49 -6.33398 -88 -8.00098s-96.833 -2.5 -173.5 -2.5v104c74 0 129.5 0.666992 166.5 2zM294.001 2.5c-39.333 1.66699 -69.001 4.33301 -89.001 8s-39 9.16699 -57 16.5
c-31.333 14 -55.333 34.333 -72 61s-25 57.667 -25 93c0 21.333 3 44 9 68l37 143l89 -26l-38 -147c-3.33301 -11.333 -5 -23.666 -5 -36.999c0 -14.667 3.33301 -26.667 10 -36s17.334 -17.333 32.001 -24c16 -6.66699 40.833 -11.334 74.5 -14.001s103.167 -4 208.5 -4
v-104c-76.667 -0 -134.667 0.833008 -174 2.5zM307 401.999l69 69l69 -69l-69 -68zM489 401.999l69 69l69 -69l-69 -68z" />
    <glyph glyph-name="uni062B" unicode="&#x62b;" horiz-adv-x="935" 
d="M634.5 106c37 1.33301 62.501 3.33301 76.501 6s26.667 6.33398 38 11.001c15.333 6.66699 26.5 14.5 33.5 23.5s10.5 20.833 10.5 35.5c0 11.333 -2.66699 27 -8 47l-38 139l90 26l38 -139c6.66699 -24 10 -48 10 -72c0 -36 -8.33301 -67.5 -25 -94.5
s-41 -47.5 -73 -61.5c-18.667 -7.33301 -37.834 -12.833 -57.501 -16.5s-49 -6.33398 -88 -8.00098s-96.833 -2.5 -173.5 -2.5v104c74 0 129.5 0.666992 166.5 2zM294.001 2.5c-39.333 1.66699 -69.001 4.33301 -89.001 8s-39 9.16699 -57 16.5
c-31.333 14 -55.333 34.333 -72 61s-25 57.667 -25 93c0 21.333 3 44 9 68l37 143l89 -26l-38 -147c-3.33301 -11.333 -5 -23.666 -5 -36.999c0 -14.667 3.33301 -26.667 10 -36s17.334 -17.333 32.001 -24c16 -6.66699 40.833 -11.334 74.5 -14.001s103.167 -4 208.5 -4
v-104c-76.667 -0 -134.667 0.833008 -174 2.5zM407 531.999l59 58l58 -58l-58 -59zM306 401.999l69 69l69 -69l-69 -68zM488 401.999l69 69l69 -69l-69 -68z" />
    <glyph glyph-name="uni062C" unicode="&#x62c;" horiz-adv-x="712" 
d="M630 -174l24.001 -99.999l-258 -72c-25.333 -6 -50.333 -9 -75 -9c-62 0 -117 18 -165 54s-80 84.333 -96 145c-6.66699 25.333 -10 49.666 -10 72.999c0 60.667 19.667 116.334 59 167.001s99.333 86.667 180 108l253 66l-203 106
c-16.667 9.33301 -35.334 14 -56.001 14c-20 0 -38.667 -5 -56 -15s-31.333 -24.667 -42 -44l-18 -31l-80 50l19 35c20.667 35.333 46.334 62.333 77.001 81s63.334 28 98.001 28c35.333 0 69.666 -9.33301 102.999 -28l272 -152l-13 -120l-330 -90
c-60.667 -16 -104.167 -40 -130.5 -72s-39.5 -67 -39.5 -105c0 -12.667 1.66699 -26.334 5 -41.001c10 -38 31.167 -68.5 63.5 -91.5s69.166 -34.5 110.499 -34.5c19.333 0 37.333 2.33301 54 7zM312.001 -63.999l78 77l77 -77l-77 -78z" />
    <glyph glyph-name="uni062D" unicode="&#x62d;" horiz-adv-x="712" 
d="M630 -174l24.001 -99.999l-258 -72c-25.333 -6 -50.333 -9 -75 -9c-62 0 -117 18 -165 54s-80 84.333 -96 145c-6.66699 25.333 -10 49.666 -10 72.999c0 60.667 19.667 116.334 59 167.001s99.333 86.667 180 108l253 66l-203 106
c-16.667 9.33301 -35.334 14 -56.001 14c-20 0 -38.667 -5 -56 -15s-31.333 -24.667 -42 -44l-18 -31l-80 50l19 35c20.667 35.333 46.334 62.333 77.001 81s63.334 28 98.001 28c35.333 0 69.666 -9.33301 102.999 -28l272 -152l-13 -120l-330 -90
c-60.667 -16 -104.167 -40 -130.5 -72s-39.5 -67 -39.5 -105c0 -12.667 1.66699 -26.334 5 -41.001c10 -38 31.167 -68.5 63.5 -91.5s69.166 -34.5 110.499 -34.5c19.333 0 37.333 2.33301 54 7z" />
    <glyph glyph-name="uni062E" unicode="&#x62e;" horiz-adv-x="712" 
d="M630 -174l24.001 -99.999l-258 -72c-25.333 -6 -50.333 -9 -75 -9c-62 0 -117 18 -165 54s-80 84.333 -96 145c-6.66699 25.333 -10 49.666 -10 72.999c0 60.667 19.667 116.334 59 167.001s99.333 86.667 180 108l253 66l-203 106
c-16.667 9.33301 -35.334 14 -56.001 14c-20 0 -38.667 -5 -56 -15s-31.333 -24.667 -42 -44l-18 -31l-80 50l19 35c20.667 35.333 46.334 62.333 77.001 81s63.334 28 98.001 28c35.333 0 69.666 -9.33301 102.999 -28l272 -152l-13 -120l-330 -90
c-60.667 -16 -104.167 -40 -130.5 -72s-39.5 -67 -39.5 -105c0 -12.667 1.66699 -26.334 5 -41.001c10 -38 31.167 -68.5 63.5 -91.5s69.166 -34.5 110.499 -34.5c19.333 0 37.333 2.33301 54 7zM204.001 613.001l78 77l77 -77l-77 -78z" />
    <glyph glyph-name="uni062F" unicode="&#x62f;" horiz-adv-x="534" 
d="M114.5 33c-30.333 22 -46.834 50.335 -49.501 85.002c-2.66699 12.667 -4 34.334 -4 65.001h86c0 -19.333 1 -35 3 -47c2.66699 -12 9.33398 -20.333 20.001 -25s27.334 -7 50.001 -7h83c59.333 0 89 18 89 54c0 4 -1.33301 12 -4 24c-11.333 34 -31.5 76 -60.5 126
s-60.833 99.667 -95.5 149l75 61c39.333 -54.667 75.166 -110.334 107.499 -167.001s53.5 -105.334 63.5 -146.001c4 -16.667 6 -33.334 6 -50.001c0 -46 -16.333 -83.333 -49 -112s-80.667 -43 -144 -43h-55c-50.667 0 -91.167 11 -121.5 33z" />
    <glyph glyph-name="uni0630" unicode="&#x630;" horiz-adv-x="534" 
d="M114.5 33c-30.333 22 -46.834 50.335 -49.501 85.002c-2.66699 12.667 -4 34.334 -4 65.001h86c0 -19.333 1 -35 3 -47c2.66699 -12 9.33398 -20.333 20.001 -25s27.334 -7 50.001 -7h83c59.333 0 89 18 89 54c0 4 -1.33301 12 -4 24c-11.333 34 -31.5 76 -60.5 126
s-60.833 99.667 -95.5 149l75 61c39.333 -54.667 75.166 -110.334 107.499 -167.001s53.5 -105.334 63.5 -146.001c4 -16.667 6 -33.334 6 -50.001c0 -46 -16.333 -83.333 -49 -112s-80.667 -43 -144 -43h-55c-50.667 0 -91.167 11 -121.5 33zM182.999 634.002l78 77l77 -77
l-77 -78z" />
    <glyph glyph-name="uni0631" unicode="&#x631;" horiz-adv-x="344" 
d="M22 -150c47.333 12.667 82.501 23.499 105.501 32.499s41.167 21 54.5 36s20 35.5 20 61.5c0 4.66699 -0.666992 13 -2 25l-40 288l92 14l39 -290c2 -15.333 3 -29.666 3 -42.999c0 -45.333 -11 -82.333 -33 -111s-51.833 -51.5 -89.5 -68.5
s-86.834 -33.833 -147.501 -50.5l-24 100z" />
    <glyph glyph-name="uni0632" unicode="&#x632;" horiz-adv-x="344" 
d="M22 -150c47.333 12.667 82.501 23.499 105.501 32.499s41.167 21 54.5 36s20 35.5 20 61.5c0 4.66699 -0.666992 13 -2 25l-40 288l92 14l39 -290c2 -15.333 3 -29.666 3 -42.999c0 -45.333 -11 -82.333 -33 -111s-51.833 -51.5 -89.5 -68.5
s-86.834 -33.833 -147.501 -50.5l-24 100zM116.001 470.999l78 77l77 -77l-77 -78z" />
    <glyph glyph-name="uni0633" unicode="&#x633;" horiz-adv-x="1194" 
d="M1143 172c0 -35.333 -7.83008 -65.998 -23.4971 -91.998s-36.667 -45.833 -63 -59.5s-55.5 -20.5 -87.5 -20.5c-50.667 0 -91.334 17.333 -122.001 52c-30 -34.667 -71.333 -52 -124 -52c-31.333 0 -60 7 -86 21c1.33301 -17.333 2 -29.333 2 -36
c0 -44.667 -10.167 -81.334 -30.5 -110.001s-48.333 -51.334 -84 -68.001s-80.167 -31 -133.5 -43c-32.667 -7.33301 -62.334 -11 -89.001 -11c-52 0 -97 11.667 -135 35s-67 56.333 -87 99s-30 92.334 -30 149.001c0 64 12.667 132 38 204l88 -35
c-22.667 -64 -34 -121.333 -34 -172c0 -56 13.833 -99.333 41.5 -130s67.167 -46 118.5 -46c23.333 0 46 2.66699 68 8c46.667 10.667 81.167 20 103.5 28s40 19.333 53 34s19.5 35.667 19.5 63c0 5.33301 -0.666992 14.666 -2 27.999l-40 274l91 15l17 -112v0
c8 -34 20.167 -57.667 36.5 -71s41.166 -20 74.499 -20c32.667 0 54.5 6.5 65.5 19.5s16.5 30.167 16.5 51.5v123h87v-123c0 -24 6.16699 -41.833 18.5 -53.5s31.833 -17.5 58.5 -17.5c54.667 0 82 23 82 69c0 14 -2.33301 29 -7 45l-40 149l89 26l40 -149
c6.66699 -24.667 10 -48.667 10 -72z" />
    <glyph glyph-name="uni0634" unicode="&#x634;" horiz-adv-x="1194" 
d="M1143 172c0 -35.333 -7.83008 -65.998 -23.4971 -91.998s-36.667 -45.833 -63 -59.5s-55.5 -20.5 -87.5 -20.5c-50.667 0 -91.334 17.333 -122.001 52c-30 -34.667 -71.333 -52 -124 -52c-31.333 0 -60 7 -86 21c1.33301 -17.333 2 -29.333 2 -36
c0 -44.667 -10.167 -81.334 -30.5 -110.001s-48.333 -51.334 -84 -68.001s-80.167 -31 -133.5 -43c-32.667 -7.33301 -62.334 -11 -89.001 -11c-52 0 -97 11.667 -135 35s-67 56.333 -87 99s-30 92.334 -30 149.001c0 64 12.667 132 38 204l88 -35
c-22.667 -64 -34 -121.333 -34 -172c0 -56 13.833 -99.333 41.5 -130s67.167 -46 118.5 -46c23.333 0 46 2.66699 68 8c46.667 10.667 81.167 20 103.5 28s40 19.333 53 34s19.5 35.667 19.5 63c0 5.33301 -0.666992 14.666 -2 27.999l-40 274l91 15l17 -112v0
c8 -34 20.167 -57.667 36.5 -71s41.166 -20 74.499 -20c32.667 0 54.5 6.5 65.5 19.5s16.5 30.167 16.5 51.5v123h87v-123c0 -24 6.16699 -41.833 18.5 -53.5s31.833 -17.5 58.5 -17.5c54.667 0 82 23 82 69c0 14 -2.33301 29 -7 45l-40 149l89 26l40 -149
c6.66699 -24.667 10 -48.667 10 -72zM783.003 599.002l59 58l58 -58l-58 -59zM682.003 469.002l69 69l69 -69l-69 -68zM864.003 469.002l69 69l69 -69l-69 -68z" />
    <glyph glyph-name="uni0635" unicode="&#x635;" horiz-adv-x="1262" 
d="M1119.5 364c29 -18 51.6689 -42.501 68.002 -73.501s24.5 -65.167 24.5 -102.5c0 -33.333 -8.66699 -64.333 -26 -93s-40.5 -51.667 -69.5 -69s-60.167 -26 -93.5 -26h-312h-21c-20 0 -37 3.33301 -51 10c0.666992 -5.33301 1 -13.333 1 -24
c0 -44.667 -10.167 -81.5 -30.5 -110.5s-48.333 -51.833 -84 -68.5s-80.5 -31 -134.5 -43c-32.667 -7.33301 -62.334 -11 -89.001 -11c-52 0 -97 11.667 -135 35s-67 56.333 -87 99s-30 92.334 -30 149.001c0 64 12.667 132 38 204l88 -35
c-22.667 -64 -34 -121.333 -34 -172c0 -56 13.833 -99.333 41.5 -130s67.167 -46 118.5 -46c23.333 0 46 2.66699 68 8c46.667 10.667 81.167 20 103.5 28s40 19.333 53 34s19.5 35.667 19.5 63c0 5.33301 -0.666992 14.666 -2 27.999l-40 274l91 15l9 -61
c6 -38.667 12.333 -68 19 -88s15 -34 25 -42s23.333 -12 40 -12h23h3l69 94c34 48 62 84.833 84 110.5s45.667 45.834 71 60.501s53.666 22 84.999 22c35.333 0 67.5 -9 96.5 -27zM1090.5 129.999c19.667 17.333 29.501 36.667 29.501 58
c0 28.667 -9.16699 52.334 -27.5 71.001s-41.5 28 -69.5 28c-18.667 0 -35.834 -5 -51.501 -15s-31.5 -24.833 -47.5 -44.5s-37.667 -48.834 -65 -87.501l-26 -36h190c25.333 0 47.833 8.66699 67.5 26z" />
    <glyph glyph-name="uni0636" unicode="&#x636;" horiz-adv-x="1262" 
d="M1119.5 364c29 -18 51.6689 -42.501 68.002 -73.501s24.5 -65.167 24.5 -102.5c0 -33.333 -8.66699 -64.333 -26 -93s-40.5 -51.667 -69.5 -69s-60.167 -26 -93.5 -26h-312h-21c-20 0 -37 3.33301 -51 10c0.666992 -5.33301 1 -13.333 1 -24
c0 -44.667 -10.167 -81.5 -30.5 -110.5s-48.333 -51.833 -84 -68.5s-80.5 -31 -134.5 -43c-32.667 -7.33301 -62.334 -11 -89.001 -11c-52 0 -97 11.667 -135 35s-67 56.333 -87 99s-30 92.334 -30 149.001c0 64 12.667 132 38 204l88 -35
c-22.667 -64 -34 -121.333 -34 -172c0 -56 13.833 -99.333 41.5 -130s67.167 -46 118.5 -46c23.333 0 46 2.66699 68 8c46.667 10.667 81.167 20 103.5 28s40 19.333 53 34s19.5 35.667 19.5 63c0 5.33301 -0.666992 14.666 -2 27.999l-40 274l91 15l9 -61
c6 -38.667 12.333 -68 19 -88s15 -34 25 -42s23.333 -12 40 -12h23h3l69 94c34 48 62 84.833 84 110.5s45.667 45.834 71 60.501s53.666 22 84.999 22c35.333 0 67.5 -9 96.5 -27zM1090.5 129.999c19.667 17.333 29.501 36.667 29.501 58
c0 28.667 -9.16699 52.334 -27.5 71.001s-41.5 28 -69.5 28c-18.667 0 -35.834 -5 -51.501 -15s-31.5 -24.833 -47.5 -44.5s-37.667 -48.834 -65 -87.501l-26 -36h190c25.333 0 47.833 8.66699 67.5 26zM936.003 547l78 77l77 -77l-77 -78z" />
    <glyph glyph-name="uni0637" unicode="&#x637;" horiz-adv-x="692" 
d="M549.5 364c29 -18 51.6689 -42.499 68.002 -73.499s24.5 -65.167 24.5 -102.5c0 -33.333 -8.66699 -64.333 -26 -93s-40.5 -51.667 -69.5 -69s-60.167 -26 -93.5 -26h-403v104h94l30 40l-20 524l93 5l15 -408c33.333 43.333 64.166 75.166 92.499 95.499
s61.166 30.5 98.499 30.5c35.333 0 67.5 -9 96.5 -27zM520.502 130.001c19.667 17.333 29.501 36.667 29.501 58c0 28.667 -9.16699 52.334 -27.5 71.001s-41.5 28 -69.5 28c-18.667 0 -35.834 -5 -51.501 -15s-31.5 -24.833 -47.5 -44.5s-37.667 -48.834 -65 -87.501
l-26 -36h190c25.333 0 47.833 8.66699 67.5 26z" />
    <glyph glyph-name="uni0638" unicode="&#x638;" horiz-adv-x="692" 
d="M549.5 364c29 -18 51.6689 -42.499 68.002 -73.499s24.5 -65.167 24.5 -102.5c0 -33.333 -8.66699 -64.333 -26 -93s-40.5 -51.667 -69.5 -69s-60.167 -26 -93.5 -26h-403v104h94l30 40l-20 524l93 5l15 -408c33.333 43.333 64.166 75.166 92.499 95.499
s61.166 30.5 98.499 30.5c35.333 0 67.5 -9 96.5 -27zM520.502 130.001c19.667 17.333 29.501 36.667 29.501 58c0 28.667 -9.16699 52.334 -27.5 71.001s-41.5 28 -69.5 28c-18.667 0 -35.834 -5 -51.501 -15s-31.5 -24.833 -47.5 -44.5s-37.667 -48.834 -65 -87.501
l-26 -36h190c25.333 0 47.833 8.66699 67.5 26zM386.003 568.002l78 77l77 -77l-77 -78z" />
    <glyph glyph-name="uni0639" unicode="&#x639;" horiz-adv-x="626" 
d="M576 -245l-268.998 -27.001c-5.33301 -0.666992 -13.333 -1 -24 -1c-41.333 0 -79.833 10.5 -115.5 31.5s-64.167 49.667 -85.5 86s-32 76.5 -32 120.5c0 46.667 12.833 89.5 38.5 128.5s60.167 68.5 103.5 88.5c-20.667 25.333 -34.334 55.333 -41.001 90
c-2 12 -3 24 -3 36c0 46.667 14.5 87.834 43.5 123.501s66.167 57.834 111.5 66.501c9.33301 1.33301 17.333 2 24 2c37.333 0 85.333 -7.66699 144 -23l-24 -101c-48.667 13.333 -86.334 20 -113.001 20c-7.33301 0 -12.333 -0.333008 -15 -1
c-24 -4.66699 -43.167 -14.834 -57.5 -30.501s-21.5 -34.167 -21.5 -55.5c0 -26 9.33301 -47.667 28 -65s40.667 -26 66 -26c4.66699 0 11 0.666992 19 2l170 31l16 -103l-267 -49c-38 -6.66699 -69 -22.5 -93 -47.5s-36 -53.5 -36 -85.5c0 -26.667 7.16699 -51 21.5 -73
s33.333 -38.5 57 -49.5s49.167 -15.167 76.5 -12.5l269 27z" />
    <glyph glyph-name="uni063A" unicode="&#x63a;" horiz-adv-x="626" 
d="M576 -245l-268.998 -27.001c-5.33301 -0.666992 -13.333 -1 -24 -1c-41.333 0 -79.833 10.5 -115.5 31.5s-64.167 49.667 -85.5 86s-32 76.5 -32 120.5c0 46.667 12.833 89.5 38.5 128.5s60.167 68.5 103.5 88.5c-20.667 25.333 -34.334 55.333 -41.001 90
c-2 12 -3 24 -3 36c0 46.667 14.5 87.834 43.5 123.501s66.167 57.834 111.5 66.501c9.33301 1.33301 17.333 2 24 2c37.333 0 85.333 -7.66699 144 -23l-24 -101c-48.667 13.333 -86.334 20 -113.001 20c-7.33301 0 -12.333 -0.333008 -15 -1
c-24 -4.66699 -43.167 -14.834 -57.5 -30.501s-21.5 -34.167 -21.5 -55.5c0 -26 9.33301 -47.667 28 -65s40.667 -26 66 -26c4.66699 0 11 0.666992 19 2l170 31l16 -103l-267 -49c-38 -6.66699 -69 -22.5 -93 -47.5s-36 -53.5 -36 -85.5c0 -26.667 7.16699 -51 21.5 -73
s33.333 -38.5 57 -49.5s49.167 -15.167 76.5 -12.5l269 27zM242.002 634.999l78 77l77 -77l-77 -78z" />
    <glyph glyph-name="uni0640" unicode="&#x640;" horiz-adv-x="300" 
d="M305 104v-104h-310v104h310z" />
    <glyph glyph-name="uni0641" unicode="&#x641;" horiz-adv-x="940" 
d="M889 152c0 -36.667 -6.83398 -65.835 -20.501 -87.502s-37 -37.834 -70 -48.501s-78.833 -16 -137.5 -16h-198c-75.333 0 -132.333 0.833008 -171 2.5s-67.834 4.33398 -87.501 8.00098s-38.5 9.16699 -56.5 16.5c-31.333 14 -55.333 34.333 -72 61s-25 57.667 -25 93
c0 21.333 3 44 9 68l37 143l89 -26l-38 -147c-3.33301 -11.333 -5 -23.666 -5 -36.999c0 -14.667 3.33301 -26.667 10 -36s17.334 -17.333 32.001 -24c16 -6.66699 40.833 -11.334 74.5 -14.001s103.167 -4 208.5 -4h195c38.667 0 67.5 1.33301 86.5 4
s32.167 7.83398 39.5 15.501s11 19.167 11 34.5c0 8 -0.333008 14.333 -1 19c-40.667 -4.66699 -80 -7 -118 -7c-50.667 0 -91 15 -121 45s-45 70.667 -45 122c0 36.667 6.66699 70.5 20 101.5s33.333 55.833 60 74.5s58.667 28 96 28c50.667 0 92.834 -18.667 126.501 -56
s53.167 -86.666 58.5 -147.999l11 -149c1.33301 -17.333 2 -29.333 2 -36zM620.499 287.499c14.333 -14.333 34.499 -21.5 60.499 -21.5c42.667 0 79.334 2.66699 110.001 8l-5 55c-4.66699 37.333 -15.667 66.5 -33 87.5s-39.333 31.5 -66 31.5
c-27.333 0 -48.833 -10 -64.5 -30s-23.5 -44 -23.5 -72c0 -24.667 7.16699 -44.167 21.5 -58.5zM616.998 687.999l78 77l77 -77l-77 -78z" />
    <glyph glyph-name="uni0642" unicode="&#x642;" horiz-adv-x="710" 
d="M302 -247c-52 0 -96.998 11.667 -134.998 35s-67 56.333 -87 99s-30 92.334 -30 149.001c0 64 12.667 132 38 204l88 -35c-22.667 -64 -34 -121.333 -34 -172c0 -56 13.833 -99.333 41.5 -130s67.167 -46 118.5 -46c23.333 0 46 2.66699 68 8
c49.333 10.667 87.666 21 114.999 31s48 22.333 62 37s20 33.667 18 57l-3 29c-44 -8 -84 -12 -120 -12c-34 0 -64.333 7.83301 -91 23.5s-47.5 37.667 -62.5 66s-22.5 60.5 -22.5 96.5c0 35.333 7.66699 68.666 23 99.999s36.833 56.666 64.5 75.999s59.5 29 95.5 29
c51.333 0 94.333 -19.667 129 -59s55.667 -90.666 63 -153.999l17 -162c1.33301 -18.667 2 -32 2 -40c0 -44 -9.16699 -79.333 -27.5 -106s-46.5 -48.5 -84.5 -65.5s-90.333 -32.833 -157 -47.5c-32.667 -7.33301 -62.334 -11 -89.001 -11zM519.002 116
c20.667 3.33301 32.332 5.33203 34.999 5.99902l-5 50c-4 38 -14.833 67.833 -32.5 89.5s-40.167 32.5 -67.5 32.5c-28 0 -49.833 -10 -65.5 -30s-23.5 -44 -23.5 -72c0 -25.333 7.16699 -45.166 21.5 -59.499s34.5 -21.5 60.5 -21.5c30.667 0 56.334 1.66699 77.001 5z
M278 525.999l69 69l69 -69l-69 -68zM460 525.999l69 69l69 -69l-69 -68z" />
    <glyph glyph-name="uni0643" unicode="&#x643;" horiz-adv-x="870" 
d="M803.5 91c-12.333 -27.333 -31.834 -49.334 -58.501 -66.001s-59.667 -25 -99 -25h-178c-76.667 0 -134.667 0.833008 -174 2.5s-69 4.33398 -89 8.00098s-39 9.16699 -57 16.5c-31.333 14 -55.333 34.333 -72 61s-25 57.667 -25 93c0 21.333 3 44 9 68l37 143l89 -26
l-38 -147c-3.33301 -11.333 -5 -23.666 -5 -36.999c0 -14.667 3.33301 -26.667 10 -36s17.334 -17.333 32.001 -24c16 -6.66699 40.833 -11.334 74.5 -14.001s103.167 -4 208.5 -4h178c56 0 83.333 23.333 82 70l-19 494l92 5l19 -495
c1.33301 -30.667 -4.16699 -59.667 -16.5 -87zM508.999 305.999c0 -11.333 -3.66699 -21.166 -11 -29.499s-17 -12.5 -29 -12.5h-89v43h66c6.66699 0 10 2.33301 10 7c0 2.66699 -2 6 -6 10l-55 55l9 36l98 33l14 -40l-66 -22l46 -48
c8.66699 -8.66699 13 -19.334 13 -32.001z" />
    <glyph glyph-name="uni0644" unicode="&#x644;" horiz-adv-x="686" 
d="M299 -249c-50.667 0 -94.833 11.832 -132.5 35.499s-66.5 56.834 -86.5 99.501s-30 92.334 -30 149.001c0 64 12.667 132 38 204l88 -35c-22.667 -64 -34 -121.333 -34 -172c0 -56 13.667 -99.667 41 -131s66 -47 116 -47c21.333 0 44.333 3 69 9
c50.667 12.667 86.667 23.167 108 31.5s38.166 22.166 50.499 41.499s17.833 48.333 16.5 87l-25 645l93 5l25 -645c2 -57.333 -6.66699 -103.333 -26 -138s-46.666 -61 -81.999 -79s-81.333 -34 -138 -48c-32 -8 -62.333 -12 -91 -12z" />
    <glyph glyph-name="uni0645" unicode="&#x645;" horiz-adv-x="552" 
d="M478.5 295.5c15.667 -30.333 23.501 -64.167 23.501 -101.5c0 -46 -11.333 -90.333 -34 -133c-10.667 -20.667 -25.334 -36.834 -44.001 -48.501s-38.667 -17.5 -60 -17.5c-18.667 0 -36.334 4.33301 -53.001 13l-168 87l18 -392l-93 -3l-18 479l63 42l44 -23l51 100
c14 26.667 33 47.167 57 61.5s49.667 21.5 77 21.5c24.667 0 48 -5.66699 70 -17c28.667 -15.333 50.834 -38.166 66.501 -68.499zM420.001 195.999c0 37.333 -13.667 63.333 -41 78c-10 5.33301 -20.667 8 -32 8c-14.667 0 -28.5 -4.5 -41.5 -13.5
s-23.5 -21.833 -31.5 -38.5l-37 -73l124 -64c4.66699 -2.66699 9.66699 -4 15 -4c8 0 14.333 4.66699 19 14c16.667 34.667 25 65.667 25 93z" />
    <glyph glyph-name="uni0646" unicode="&#x646;" horiz-adv-x="689" 
d="M302 -247c-52 0 -96.999 11.6689 -134.999 35.002s-67 56.333 -87 99s-30 92.334 -30 149.001c0 64 12.667 132 38 204l88 -35c-22.667 -64 -34 -121.333 -34 -172c0 -56 13.833 -99.333 41.5 -130s67.167 -46 118.5 -46c23.333 0 46 2.66699 68 8
c46.667 10.667 81.167 20 103.5 28s40 19.333 53 34s19.5 35.667 19.5 63c0 5.33301 -0.666992 14.666 -2 27.999l-40 274l91 15l41 -274c2.66699 -22.667 4 -38.667 4 -48c0 -44.667 -10.167 -81.334 -30.5 -110.001s-48.333 -51.334 -84 -68.001s-80.5 -31 -134.5 -43
c-32.667 -7.33301 -62.334 -11 -89.001 -11zM255.001 301.002l78 77l77 -77l-77 -78z" />
    <glyph glyph-name="uni0647" unicode="&#x647;" horiz-adv-x="460" 
d="M388 281c14.667 -29.333 21.998 -62 21.998 -98c0 -33.333 -8.16699 -64.166 -24.5 -92.499s-38.166 -50.833 -65.499 -67.5s-57.333 -25 -90 -25s-62.667 8.33301 -90 25s-49.166 39.167 -65.499 67.5s-24.5 59.166 -24.5 92.499c0 28.667 7 57.667 21 87
s33.667 56.333 59 81l33 33l-32 30l65 75l120 -116c33.333 -32 57.333 -62.667 72 -92zM293.498 123.5c17 16.333 25.501 36.167 25.501 59.5c0 18 -4.33301 35.167 -13 51.5s-26 37.166 -52 62.499l-23 22l-33 -32c-20.667 -20.667 -35.5 -39.167 -44.5 -55.5
s-13.5 -32.5 -13.5 -48.5c0 -23.333 8.66699 -43.166 26 -59.499s38.666 -24.5 63.999 -24.5s46.5 8.16699 63.5 24.5z" />
    <glyph glyph-name="uni0648" unicode="&#x648;" horiz-adv-x="505" 
d="M455 -23c0 -48 -11.501 -86.166 -34.501 -114.499s-57.5 -50.833 -103.5 -67.5s-112.333 -34 -199 -52l-19 101c78 16 133.833 28.833 167.5 38.5s57.834 21.834 72.501 36.501s22 35.667 22 63c0 10 -0.333008 17.667 -1 23l-1 5c-41.333 -6.66699 -82 -10 -122 -10
c-33.333 0 -63.5 8 -90.5 24s-48 38 -63 66s-22.5 60 -22.5 96c0 35.333 7.66699 68.666 23 99.999s36.833 56.666 64.5 75.999s59.5 29 95.5 29c51.333 0 94.333 -19.667 129 -59s55.667 -91 63 -155l17 -161c1.33301 -18.667 2 -31.667 2 -39zM348.999 114.001l-5 50.001
c-4 39.333 -15 69.666 -33 90.999s-40.667 32 -68 32s-49 -9.83301 -65 -29.5s-24 -43.167 -24 -70.5c0 -26 7.33301 -46.333 22 -61s35 -22 61 -22c38.667 0 76 3.33301 112 10z" />
    <glyph glyph-name="uni0649" unicode="&#x649;" horiz-adv-x="710" 
d="M302 -247c-52 0 -96.8301 11.666 -134.497 34.999s-66.667 56.333 -87 99s-30.5 92.334 -30.5 149.001c0 64 12.667 132 38 204l88 -35c-22 -64.667 -33 -121.334 -33 -170.001c0 -56.667 13.833 -100.5 41.5 -131.5s66.834 -46.5 117.501 -46.5
c24 0 46.667 2.66699 68 8c55.333 13.333 99.833 27.5 133.5 42.5s50.167 27.833 49.5 38.5c-0.666992 5.33301 -6.5 10.333 -17.5 15s-31.167 11.334 -60.5 20.001l-43 13c-44.667 15.333 -78 32.833 -100 52.5s-33 47.5 -33 83.5c0 21.333 4.33301 46 13 74
c9.33301 30 23.833 59.333 43.5 88s44.167 52.334 73.5 71.001s62 28 98 28c20 0 39 -2.66699 57 -8l65 -18l-24 -100l-65 18c-10.667 3.33301 -22.667 5 -36 5c-25.333 0 -46.833 -7.33301 -64.5 -22s-31.334 -30.5 -41.001 -47.5s-15.834 -31.167 -18.501 -42.5
c-3.33301 -13.333 -5 -23.333 -5 -30c0 -16 5.66699 -27.5 17 -34.5s32 -15.167 62 -24.5c48 -14 81.5 -24.5 100.5 -31.5s34.5 -16.833 46.5 -29.5s20 -30.334 24 -53.001c0.666992 -4 1 -10.333 1 -19c0 -42.667 -22.333 -80.5 -67 -113.5s-107.334 -58.5 -188.001 -76.5
c-32.667 -7.33301 -62.334 -11 -89.001 -11z" />
    <glyph glyph-name="uni064A" unicode="&#x64a;" horiz-adv-x="710" 
d="M302 -247c-52 0 -96.8301 11.666 -134.497 34.999s-66.667 56.333 -87 99s-30.5 92.334 -30.5 149.001c0 64 12.667 132 38 204l88 -35c-22 -64.667 -33 -121.334 -33 -170.001c0 -56.667 13.833 -100.5 41.5 -131.5s66.834 -46.5 117.501 -46.5
c24 0 46.667 2.66699 68 8c55.333 13.333 99.833 27.5 133.5 42.5s50.167 27.833 49.5 38.5c-0.666992 5.33301 -6.5 10.333 -17.5 15s-31.167 11.334 -60.5 20.001l-43 13c-44.667 15.333 -78 32.833 -100 52.5s-33 47.5 -33 83.5c0 21.333 4.33301 46 13 74
c9.33301 30 23.833 59.333 43.5 88s44.167 52.334 73.5 71.001s62 28 98 28c20 0 39 -2.66699 57 -8l65 -18l-24 -100l-65 18c-10.667 3.33301 -22.667 5 -36 5c-25.333 0 -46.833 -7.33301 -64.5 -22s-31.334 -30.5 -41.001 -47.5s-15.834 -31.167 -18.501 -42.5
c-3.33301 -13.333 -5 -23.333 -5 -30c0 -16 5.66699 -27.5 17 -34.5s32 -15.167 62 -24.5c48 -14 81.5 -24.5 100.5 -31.5s34.5 -16.833 46.5 -29.5s20 -30.334 24 -53.001c0.666992 -4 1 -10.333 1 -19c0 -42.667 -22.333 -80.5 -67 -113.5s-107.334 -58.5 -188.001 -76.5
c-32.667 -7.33301 -62.334 -11 -89.001 -11zM195.003 -352.001l69 69l69 -69l-69 -68zM377.003 -352.001l69 69l69 -69l-69 -68z" />
    <glyph glyph-name="uni064B" unicode="&#x64b;" 
d="M232 522l11 -52l-232 -55l-11 52zM232 640l11 -52l-232 -55l-11 52z" />
    <glyph glyph-name="uni064C" unicode="&#x64c;" 
d="M360 663c0 -26 -9.16797 -48.834 -27.501 -68.501s-43.5 -33.5 -75.5 -41.5l-220 -53l-11 52c15.333 3.33301 27.666 10 36.999 20s14 21.667 14 35c0 16.667 -6.5 30.334 -19.5 41.001s-29.167 14.667 -48.5 12l-9 46c8 2 16.333 3 25 3c26 0 48.333 -8.5 67 -25.5
s29.667 -38.5 33 -64.5c0.666992 -4 1 -9.33301 1 -16c0 -10 -1 -19 -3 -27l47 11l-16 64c-2 8 -3 16.333 -3 25c0 25.333 9.16699 46.333 27.5 63s42.833 25 73.5 25c26.667 0 49.834 -7.5 69.501 -22.5s31.834 -34.5 36.501 -58.5c1.33301 -9.33301 2 -16 2 -20z
M291.499 627.499c11 10.333 16.499 22.501 16.499 36.501s-5.16699 25.833 -15.5 35.5s-23.166 14.5 -38.499 14.5c-3.33301 0 -9 -0.666992 -17 -2c-23.333 -6 -35 -18 -35 -36c0 -2.66699 0.666992 -7.33398 2 -14.001l16 -63l25 6c20 4.66699 35.5 12.167 46.5 22.5z" />
    <glyph glyph-name="uni064D" unicode="&#x64d;" 
d="M232 -365l11 -52l-232 -55l-11 52zM232 -247l11 -52l-232 -55l-11 52z" />
    <glyph glyph-name="uni064E" unicode="&#x64e;" 
d="M232 609l11 -52l-232 -55l-11 52z" />
    <glyph glyph-name="uni064F" unicode="&#x64f;" 
d="M266 584.5c-18.667 -19.667 -44 -33.5 -76 -41.5l-179 -43l-11 52l102 25l-17 60c-2 8 -3 16.333 -3 25c0 25.333 9.83301 47 29.5 65s44.5 27 74.5 27s55.5 -9.5 76.5 -28.5s31.5 -43.167 31.5 -72.5c0 -26 -9.33301 -48.833 -28 -68.5zM225.5 617.5
c11 10.333 16.501 22.168 16.501 35.501c0 14 -5.16699 25.833 -15.5 35.5s-23.5 14.5 -39.5 14.5c-16.667 0 -29.834 -4 -39.501 -12s-14.5 -18 -14.5 -30c0 -2.66699 0.666992 -7.33398 2 -14.001l16 -58l27 6c20.667 4.66699 36.5 12.167 47.5 22.5z" />
    <glyph glyph-name="uni0650" unicode="&#x650;" 
d="M232 -257l11 -52l-232 -55l-11 52z" />
    <glyph glyph-name="uni0651" unicode="&#x651;" 
d="M57 640l-10.002 -47c-1.33301 -5.33301 -2 -9 -2 -11c0 -8.66699 3.33301 -15.5 10 -20.5s16.667 -7.5 30 -7.5c10.667 0 19.334 2.5 26.001 7.5s10 10.833 10 17.5l2 62h40l2 -62c0 -6 3.33301 -11.667 10 -17s15.334 -8 26.001 -8c13.333 0 23.333 2.66699 30 8
s10 12.333 10 21c0 3.33301 -0.333008 6 -1 8l-17 67l43 13l19 -70c2 -8 3 -16 3 -24c0 -22 -8 -40.333 -24 -55s-37 -22 -63 -22c-12 0 -23.333 2.33301 -34 7s-18.667 11 -24 19c-6 -8 -14 -14.333 -24 -19s-21.333 -7 -34 -7c-24.667 0 -45 7.5 -61 22.5
s-24 33.5 -24 55.5c0 7.33301 1 15 3 23l13 51z" />
    <glyph glyph-name="uni0652" unicode="&#x652;" 
d="M34.5 534.5c-23 23 -34.5 50.833 -34.5 83.5s11.5 60.5 34.5 83.5s50.5 34.5 82.5 34.5c31.333 0 58.5 -11.5 81.5 -34.5s34.5 -50.833 34.5 -83.5s-11.333 -60.5 -34 -83.5s-50 -34.5 -82 -34.5s-59.5 11.5 -82.5 34.5zM164.5 571.5c13 13 19.5 28.5 19.5 46.5
s-6.5 33.5 -19.5 46.5s-28.833 19.5 -47.5 19.5s-34.667 -6.5 -48 -19.5s-20 -28.5 -20 -46.5s6.66699 -33.5 20 -46.5s29.333 -19.5 48 -19.5s34.5 6.5 47.5 19.5z" />
    <glyph glyph-name="uni0653" unicode="&#x653;" 
d="M22.5 666.5c15 15.667 35.166 23.5 60.499 23.5c10 0 17.667 -0.666992 23 -2l101 -19c2.66699 -0.666992 6.66699 -1 12 -1c24 0 36 11 36 33v6l49 3v-19c0 -26 -7.66699 -46.833 -23 -62.5s-35.333 -23.5 -60 -23.5c-10 0 -17.667 0.666992 -23 2l-101 19
c-3.33301 0.666992 -7.66602 1 -12.999 1c-23.333 0 -35 -11 -35 -33v-6l-49 -3v19c0 26 7.5 46.833 22.5 62.5z" />
    <glyph glyph-name="uni0654" unicode="&#x654;" 
d="M175 536l-5 -1l-159 -38l-11 52l78 19c-11.333 12 -19 27.333 -23 46c-2 8 -3 16 -3 24c0 28 9.66699 52 29 72s43 30 71 30c17.333 0.666992 44.333 -2.66602 81 -9.99902l-9 -52c-29.333 5.33301 -52.333 8 -69 8c-16 0 -29.167 -4.66699 -39.5 -14
s-15.5 -21 -15.5 -35c0 -15.333 6.16699 -27.833 18.5 -37.5s25.833 -13.834 40.5 -12.501l108 26l12 -52z" />
    <glyph glyph-name="uni0655" unicode="&#x655;" 
d="M174 -363l-5 -1l-159 -38l-11 52l78 19c-11.333 12 -19 27.333 -23 46c-2 8 -3 16 -3 24c0 28 9.66699 52 29 72s43 30 71 30c17.333 0.666992 44.333 -2.66602 81 -9.99902l-9 -52c-29.333 5.33301 -52.333 8 -69 8c-16 0 -29.167 -4.66699 -39.5 -14
s-15.5 -21 -15.5 -35c0 -15.333 6.16699 -27.833 18.5 -37.5s25.833 -13.834 40.5 -12.501l108 26l12 -52z" />
    <glyph glyph-name="uni0656" unicode="&#x656;" 
d="M47 -238v-162h-46v162h46z" />
    <glyph glyph-name="uni0660" unicode="&#x660;" horiz-adv-x="340" 
d="M104 204l-34 34l100 101l100 -101l-100 -100z" />
    <glyph glyph-name="uni0661" unicode="&#x661;" horiz-adv-x="327" 
d="M193 660l64 -655l-93 -10l-64 655z" />
    <glyph glyph-name="uni0662" unicode="&#x662;" horiz-adv-x="576" 
d="M496 481c0 -28.667 -7.49902 -55.5 -22.499 -80.5s-35.333 -45 -61 -60s-53.834 -22.5 -84.501 -22.5h-30c-24.667 0 -49 5.66699 -73 17l32 -328l-93 -10l-64 656l93 10l17 -176c6.66699 -43.333 31 -65 73 -65h45c22.667 0 41.167 6 55.5 18s20.5 27.333 18.5 46
l-17 167l93 11l17 -168z" />
    <glyph glyph-name="uni0663" unicode="&#x663;" horiz-adv-x="807" 
d="M727 477c0 -29.333 -7.83398 -56.3311 -23.501 -80.998s-36.334 -44.167 -62.001 -58.5s-53.167 -21.5 -82.5 -21.5h-10c-23.333 0 -45 4.66699 -65 14s-37.667 22.666 -53 39.999c-15.333 -16.667 -33.666 -29.834 -54.999 -39.501s-43.666 -14.5 -66.999 -14.5h-22
c-23.333 0 -44 4.33301 -62 13l32 -324l-93 -10l-64 655l93 10l17 -172c2.66699 -20.667 10.667 -37.167 24 -49.5s29.666 -18.5 48.999 -18.5h26c20.667 0 38.5 6.16699 53.5 18.5s21.833 27.5 20.5 45.5v2l-14 141l92 10l14 -146c2 -22 9.66699 -39.333 23 -52
s30.333 -19 51 -19h10c21.333 0 39.333 6.5 54 19.5s21.334 28.5 20.001 46.5l-16 164l93 10l16 -169z" />
    <glyph glyph-name="uni0664" unicode="&#x664;" horiz-adv-x="531" 
d="M451 104v-104h-186c-30 0 -57.5 7.66699 -82.5 23s-45 36 -60 62s-22.5 54 -22.5 84c0 82.667 53.333 142.667 160 180l6 2c-40.667 17.333 -70.834 38.833 -90.501 64.5s-29.5 56.834 -29.5 93.501c0 39.333 11.667 72.666 35 99.999s57.333 47.666 102 60.999l127 38
l26 -99l-127 -37c-24.667 -7.33301 -42.5 -16.333 -53.5 -27s-16.5 -23.667 -16.5 -39c0 -16 5.83301 -29 17.5 -39s31.834 -20 60.501 -30l114 -37l2 -98l-142 -46c-36 -12 -61.333 -24.5 -76 -37.5s-22 -29.167 -22 -48.5s7.16699 -35.166 21.5 -47.499
s31.833 -18.5 52.5 -18.5h184z" />
    <glyph glyph-name="uni0665" unicode="&#x665;" horiz-adv-x="693" 
d="M155.5 46.5c-37 36.333 -55.502 88.833 -55.502 157.5c0 34 4.33301 70.333 13 109c15.333 70 33.333 126.167 54 168.5s47.334 70.833 80.001 85.5c18 8.66699 38 13 60 13c46 0 93 -17.833 141 -53.5s87.667 -80.667 119 -135s47 -107.5 47 -159.5
c0 -6 -0.666992 -15 -2 -27c-8.66699 -64 -36.167 -115.5 -82.5 -154.5s-117.166 -58.5 -212.499 -58.5c-70.667 0 -124.5 18.167 -161.5 54.5zM519.998 219c0.666992 3.33301 0.999023 8.00195 0.999023 14.002c0 32 -11.333 67.5 -34 106.5s-50.5 71.833 -83.5 98.5
s-63.5 40 -91.5 40c-9.33301 0 -18.666 -2 -27.999 -6c-16 -7.33301 -30.5 -25.333 -43.5 -54s-25.5 -71.334 -37.5 -128.001c-7.33301 -35.333 -11 -64 -11 -86c0 -38.667 10 -66.334 30 -83.001s51.667 -25 95 -25c125.333 0 193 41 203 123z" />
    <glyph glyph-name="uni0666" unicode="&#x666;" horiz-adv-x="659" 
d="M312 541c-88.667 0 -159.334 8.66699 -212.001 26l29 99c46 -15.333 107.333 -23 184 -23c54.667 0 107.334 3.33301 158.001 10l53 -46l55 -602l-92 -10l-50 551c-45.333 -3.33301 -87 -5 -125 -5z" />
    <glyph glyph-name="uni0667" unicode="&#x667;" horiz-adv-x="699" 
d="M393 -4h-87l-226 629l87 35l182 -511l183 511l87 -35z" />
    <glyph glyph-name="uni0668" unicode="&#x668;" horiz-adv-x="699" 
d="M307 658h87l225 -631l-87 -35l-182 511l-183 -511l-87 35z" />
    <glyph glyph-name="uni0669" unicode="&#x669;" horiz-adv-x="611" 
d="M438 -4l-30.002 287.001h-118c-34.667 0 -66.5 8.5 -95.5 25.5s-52 40.167 -69 69.5s-25.5 61.666 -25.5 96.999s8.5 67.833 25.5 97.5s40 53.167 69 70.5s60.833 26 95.5 26c32.667 0 62.834 -8.16699 90.501 -24.5s50.334 -38.833 68.001 -67.5s28.5 -60.667 32.5 -96
l50 -475zM396.998 384.001l-9 87c-3.33301 28 -14 51 -32 69s-40 27 -66 27c-28 0 -51.167 -8.83301 -69.5 -26.5s-27.5 -39.5 -27.5 -65.5c0 -25.333 9.33301 -46.833 28 -64.5s41.667 -26.5 69 -26.5h107z" />
    <glyph glyph-name="uni066A" unicode="&#x66a;" horiz-adv-x="466" 
d="M389 667l-202 -665h-109l202 665h109zM38.5 546c-13.667 14 -20.5 31 -20.5 51c0 19.333 6.83301 35.833 20.5 49.5s30.834 20.5 51.501 20.5c19.333 0 36 -6.83301 50 -20.5s21 -30.167 21 -49.5c0 -20 -7 -37 -21 -51s-30.667 -21 -50 -21
c-20.667 0 -37.834 7 -51.501 21zM325.5 22c-13.667 14 -20.5 31 -20.5 51c0 19.333 6.83301 35.833 20.5 49.5s30.834 20.5 51.501 20.5c19.333 0 36 -6.83301 50 -20.5s21 -30.167 21 -49.5c0 -20 -7 -37 -21 -51s-30.667 -21 -50 -21c-20.667 0 -37.834 7 -51.501 21z
" />
    <glyph glyph-name="uni066B" unicode="&#x66b;" horiz-adv-x="381" 
d="M256 463l65 -28l-216 -536l-65 28z" />
    <glyph glyph-name="uni066C" unicode="&#x66c;" horiz-adv-x="291" 
d="M154 134l67 -24l-84 -238l-67 24z" />
    <glyph glyph-name="uni066D" unicode="&#x66d;" horiz-adv-x="507" 
d="M328 390l80 -110l-75 -54l-79 109l-80 -109l-75 54l80 110l-129 41l29 88l128 -41v135h93v-135l128 41l29 -88z" />
    <glyph glyph-name="uni066E" unicode="&#x66e;" horiz-adv-x="935" 
d="M634.5 106c37 1.33301 62.501 3.33301 76.501 6s26.667 6.33398 38 11.001c15.333 6.66699 26.5 14.5 33.5 23.5s10.5 20.833 10.5 35.5c0 11.333 -2.66699 27 -8 47l-38 139l90 26l38 -139c6.66699 -24 10 -48 10 -72c0 -36 -8.33301 -67.5 -25 -94.5
s-41 -47.5 -73 -61.5c-18.667 -7.33301 -37.834 -12.833 -57.501 -16.5s-49 -6.33398 -88 -8.00098s-96.833 -2.5 -173.5 -2.5v104c74 0 129.5 0.666992 166.5 2zM294.001 2.5c-39.333 1.66699 -69.001 4.33301 -89.001 8s-39 9.16699 -57 16.5
c-31.333 14 -55.333 34.333 -72 61s-25 57.667 -25 93c0 21.333 3 44 9 68l37 143l89 -26l-38 -147c-3.33301 -11.333 -5 -23.666 -5 -36.999c0 -14.667 3.33301 -26.667 10 -36s17.334 -17.333 32.001 -24c16 -6.66699 40.833 -11.334 74.5 -14.001s103.167 -4 208.5 -4
v-104c-76.667 -0 -134.667 0.833008 -174 2.5z" />
    <glyph glyph-name="uni066F" unicode="&#x66f;" horiz-adv-x="710" 
d="M302 -247c-52 0 -96.998 11.667 -134.998 35s-67 56.333 -87 99s-30 92.334 -30 149.001c0 64 12.667 132 38 204l88 -35c-22.667 -64 -34 -121.333 -34 -172c0 -56 13.833 -99.333 41.5 -130s67.167 -46 118.5 -46c23.333 0 46 2.66699 68 8
c49.333 10.667 87.666 21 114.999 31s48 22.333 62 37s20 33.667 18 57l-3 29c-44 -8 -84 -12 -120 -12c-34 0 -64.333 7.83301 -91 23.5s-47.5 37.667 -62.5 66s-22.5 60.5 -22.5 96.5c0 35.333 7.66699 68.666 23 99.999s36.833 56.666 64.5 75.999s59.5 29 95.5 29
c51.333 0 94.333 -19.667 129 -59s55.667 -90.666 63 -153.999l17 -162c1.33301 -18.667 2 -32 2 -40c0 -44 -9.16699 -79.333 -27.5 -106s-46.5 -48.5 -84.5 -65.5s-90.333 -32.833 -157 -47.5c-32.667 -7.33301 -62.334 -11 -89.001 -11zM519.002 116
c20.667 3.33301 32.332 5.33203 34.999 5.99902l-5 50c-4 38 -14.833 67.833 -32.5 89.5s-40.167 32.5 -67.5 32.5c-28 0 -49.833 -10 -65.5 -30s-23.5 -44 -23.5 -72c0 -25.333 7.16699 -45.166 21.5 -59.499s34.5 -21.5 60.5 -21.5c30.667 0 56.334 1.66699 77.001 5z" />
    <glyph glyph-name="uni0670" unicode="&#x670;" 
d="M47 662v-162h-46v162h46z" />
    <glyph glyph-name="uni0671" unicode="&#x671;" horiz-adv-x="302" 
d="M195 571l22 -570l-93 -4l-22 569zM285.5 772.5c17.667 -19 26.498 -42.501 26.498 -70.501c0 -24.667 -9.16699 -46.167 -27.5 -64.5s-39.833 -27.5 -64.5 -27.5h-139c-10 0 -18.167 -2.16699 -24.5 -6.5s-15.166 -14.166 -26.499 -29.499l-40 30
c14.667 20 27.5 34.5 38.5 43.5s23.833 14.167 38.5 15.5l34 48c16.667 21.333 29.834 37.5 39.501 48.5s21.167 20.667 34.5 29s28.333 12.5 45 12.5c26 0 47.833 -9.5 65.5 -28.5zM251.498 675.999c9 8 13.501 17.667 13.501 29c0 12.667 -4.16699 23.167 -12.5 31.5
s-19.166 12.5 -32.499 12.5c-12.667 0 -24.334 -4.5 -35.001 -13.5s-24.334 -24.5 -41.001 -46.5l-18 -25h94c12 0 22.5 4 31.5 12z" />
    <glyph glyph-name="uni067E" unicode="&#x67e;" horiz-adv-x="935" 
d="M634.5 106c37 1.33301 62.501 3.33301 76.501 6s26.667 6.33398 38 11.001c15.333 6.66699 26.5 14.5 33.5 23.5s10.5 20.833 10.5 35.5c0 11.333 -2.66699 27 -8 47l-38 139l90 26l38 -139c6.66699 -24 10 -48 10 -72c0 -36 -8.33301 -67.5 -25 -94.5
s-41 -47.5 -73 -61.5c-18.667 -7.33301 -37.834 -12.833 -57.501 -16.5s-49 -6.33398 -88 -8.00098s-96.833 -2.5 -173.5 -2.5v104c74 0 129.5 0.666992 166.5 2zM294.001 2.5c-39.333 1.66699 -69.001 4.33301 -89.001 8s-39 9.16699 -57 16.5
c-31.333 14 -55.333 34.333 -72 61s-25 57.667 -25 93c0 21.333 3 44 9 68l37 143l89 -26l-38 -147c-3.33301 -11.333 -5 -23.666 -5 -36.999c0 -14.667 3.33301 -26.667 10 -36s17.334 -17.333 32.001 -24c16 -6.66699 40.833 -11.334 74.5 -14.001s103.167 -4 208.5 -4
v-104c-76.667 -0 -134.667 0.833008 -174 2.5zM413 -272.001l59 58l58 -58l-58 -59zM312 -144.001l69 69l69 -69l-69 -68zM494 -144.001l69 69l69 -69l-69 -68z" />
    <glyph glyph-name="uni0686" unicode="&#x686;" horiz-adv-x="712" 
d="M630 -174l24.001 -99.999l-258 -72c-25.333 -6 -50.333 -9 -75 -9c-62 0 -117 18 -165 54s-80 84.333 -96 145c-6.66699 25.333 -10 49.666 -10 72.999c0 60.667 19.667 116.334 59 167.001s99.333 86.667 180 108l253 66l-203 106
c-16.667 9.33301 -35.334 14 -56.001 14c-20 0 -38.667 -5 -56 -15s-31.333 -24.667 -42 -44l-18 -31l-80 50l19 35c20.667 35.333 46.334 62.333 77.001 81s63.334 28 98.001 28c35.333 0 69.666 -9.33301 102.999 -28l272 -152l-13 -120l-330 -90
c-60.667 -16 -104.167 -40 -130.5 -72s-39.5 -67 -39.5 -105c0 -12.667 1.66699 -26.334 5 -41.001c10 -38 31.167 -68.5 63.5 -91.5s69.166 -34.5 110.499 -34.5c19.333 0 37.333 2.33301 54 7zM472.001 -53.999l-74 39l40 72l72 -38zM284.001 10.001l72 -38l-38 -73
l-73 39zM422.001 -166.999l-73 39l39 72l72 -38z" />
    <glyph glyph-name="uni0698" unicode="&#x698;" horiz-adv-x="354" 
d="M22 -150c47.333 12.667 82.501 23.499 105.501 32.499s41.167 21 54.5 36s20 35.5 20 61.5c0 4.66699 -0.666992 13 -2 25l-40 288l92 14l39 -290c2 -15.333 3 -29.666 3 -42.999c0 -45.333 -11 -82.333 -33 -111s-51.833 -51.5 -89.5 -68.5
s-86.834 -33.833 -147.501 -50.5l-24 100zM134.001 581.999l59 58l58 -58l-58 -59zM33.001 451.999l69 69l69 -69l-69 -68zM215.001 451.999l69 69l69 -69l-69 -68z" />
    <glyph glyph-name="uni06A1" unicode="&#x6a1;" horiz-adv-x="940" 
d="M889 152c0 -36.667 -6.83398 -65.835 -20.501 -87.502s-37 -37.834 -70 -48.501s-78.833 -16 -137.5 -16h-198c-75.333 0 -132.333 0.833008 -171 2.5s-67.834 4.33398 -87.501 8.00098s-38.5 9.16699 -56.5 16.5c-31.333 14 -55.333 34.333 -72 61s-25 57.667 -25 93
c0 21.333 3 44 9 68l37 143l89 -26l-38 -147c-3.33301 -11.333 -5 -23.666 -5 -36.999c0 -14.667 3.33301 -26.667 10 -36s17.334 -17.333 32.001 -24c16 -6.66699 40.833 -11.334 74.5 -14.001s103.167 -4 208.5 -4h195c38.667 0 67.5 1.33301 86.5 4
s32.167 7.83398 39.5 15.501s11 19.167 11 34.5c0 8 -0.333008 14.333 -1 19c-40.667 -4.66699 -80 -7 -118 -7c-50.667 0 -91 15 -121 45s-45 70.667 -45 122c0 36.667 6.66699 70.5 20 101.5s33.333 55.833 60 74.5s58.667 28 96 28c50.667 0 92.834 -18.667 126.501 -56
s53.167 -86.666 58.5 -147.999l11 -149c1.33301 -17.333 2 -29.333 2 -36zM620.499 287.499c14.333 -14.333 34.499 -21.5 60.499 -21.5c42.667 0 79.334 2.66699 110.001 8l-5 55c-4.66699 37.333 -15.667 66.5 -33 87.5s-39.333 31.5 -66 31.5
c-27.333 0 -48.833 -10 -64.5 -30s-23.5 -44 -23.5 -72c0 -24.667 7.16699 -44.167 21.5 -58.5z" />
    <glyph glyph-name="uni06A4" unicode="&#x6a4;" horiz-adv-x="940" 
d="M889 152c0 -36.667 -6.83398 -65.835 -20.501 -87.502s-37 -37.834 -70 -48.501s-78.833 -16 -137.5 -16h-198c-75.333 0 -132.333 0.833008 -171 2.5s-67.834 4.33398 -87.501 8.00098s-38.5 9.16699 -56.5 16.5c-31.333 14 -55.333 34.333 -72 61s-25 57.667 -25 93
c0 21.333 3 44 9 68l37 143l89 -26l-38 -147c-3.33301 -11.333 -5 -23.666 -5 -36.999c0 -14.667 3.33301 -26.667 10 -36s17.334 -17.333 32.001 -24c16 -6.66699 40.833 -11.334 74.5 -14.001s103.167 -4 208.5 -4h195c38.667 0 67.5 1.33301 86.5 4
s32.167 7.83398 39.5 15.501s11 19.167 11 34.5c0 8 -0.333008 14.333 -1 19c-40.667 -4.66699 -80 -7 -118 -7c-50.667 0 -91 15 -121 45s-45 70.667 -45 122c0 36.667 6.66699 70.5 20 101.5s33.333 55.833 60 74.5s58.667 28 96 28c50.667 0 92.834 -18.667 126.501 -56
s53.167 -86.666 58.5 -147.999l11 -149c1.33301 -17.333 2 -29.333 2 -36zM620.499 287.499c14.333 -14.333 34.499 -21.5 60.499 -21.5c42.667 0 79.334 2.66699 110.001 8l-5 55c-4.66699 37.333 -15.667 66.5 -33 87.5s-39.333 31.5 -66 31.5
c-27.333 0 -48.833 -10 -64.5 -30s-23.5 -44 -23.5 -72c0 -24.667 7.16699 -44.167 21.5 -58.5zM633.998 785.999l59 58l58 -58l-58 -59zM532.998 655.999l69 69l69 -69l-69 -68zM714.998 655.999l69 69l69 -69l-69 -68z" />
    <glyph glyph-name="uni06A9" unicode="&#x6a9;" horiz-adv-x="940" 
d="M792 252c22.667 -35.333 34.001 -71.334 34.001 -108.001c0 -38 -12.333 -70 -37 -96c-26.667 -32 -65.334 -48 -116.001 -48h-210c-75.333 0 -132.333 0.833008 -171 2.5s-67.834 4.33398 -87.501 8.00098s-38.5 9.16699 -56.5 16.5c-31.333 14 -55.333 34.333 -72 61
s-25 57.667 -25 93c0 21.333 3 44 9 68l37 143l89 -26l-38 -147c-3.33301 -11.333 -5 -23.666 -5 -36.999c0 -14.667 3.33301 -26.667 10 -36s17.334 -17.333 32.001 -24c16 -6.66699 40.833 -11.334 74.5 -14.001s103.167 -4 208.5 -4h206c15.333 0 27.333 3.33301 36 10
c14.667 10.667 22 25 22 43c0 11.333 -3.33301 22.333 -10 33l-222 314l21 78l361 133l33 -97l-299 -109z" />
    <glyph glyph-name="uni06AF" unicode="&#x6af;" horiz-adv-x="940" 
d="M792 252c22.667 -35.333 34.001 -71.334 34.001 -108.001c0 -38 -12.333 -70 -37 -96c-26.667 -32 -65.334 -48 -116.001 -48h-210c-75.333 0 -132.333 0.833008 -171 2.5s-67.834 4.33398 -87.501 8.00098s-38.5 9.16699 -56.5 16.5c-31.333 14 -55.333 34.333 -72 61
s-25 57.667 -25 93c0 21.333 3 44 9 68l37 143l89 -26l-38 -147c-3.33301 -11.333 -5 -23.666 -5 -36.999c0 -14.667 3.33301 -26.667 10 -36s17.334 -17.333 32.001 -24c16 -6.66699 40.833 -11.334 74.5 -14.001s103.167 -4 208.5 -4h206c15.333 0 27.333 3.33301 36 10
c14.667 10.667 22 25 22 43c0 11.333 -3.33301 22.333 -10 33l-222 314l21 78l361 133l33 -97l-299 -109zM774.001 795.999l15 -41l-244 -88l-15 41z" />
    <glyph glyph-name="uni06BA" unicode="&#x6ba;" horiz-adv-x="689" 
d="M302 -247c-52 0 -96.999 11.6689 -134.999 35.002s-67 56.333 -87 99s-30 92.334 -30 149.001c0 64 12.667 132 38 204l88 -35c-22.667 -64 -34 -121.333 -34 -172c0 -56 13.833 -99.333 41.5 -130s67.167 -46 118.5 -46c23.333 0 46 2.66699 68 8
c46.667 10.667 81.167 20 103.5 28s40 19.333 53 34s19.5 35.667 19.5 63c0 5.33301 -0.666992 14.666 -2 27.999l-40 274l91 15l41 -274c2.66699 -22.667 4 -38.667 4 -48c0 -44.667 -10.167 -81.334 -30.5 -110.001s-48.333 -51.334 -84 -68.001s-80.5 -31 -134.5 -43
c-32.667 -7.33301 -62.334 -11 -89.001 -11z" />
    <glyph glyph-name="uni06C0" unicode="&#x6c0;" horiz-adv-x="459" 
d="M388 281c14.667 -29.333 21.998 -62 21.998 -98c0 -33.333 -8.16699 -64.166 -24.5 -92.499s-38.166 -50.833 -65.499 -67.5s-57.333 -25 -90 -25s-62.667 8.33301 -90 25s-49.166 39.167 -65.499 67.5s-24.5 59.166 -24.5 92.499c0 28.667 7 57.667 21 87
s33.667 56.333 59 81l33 33l-32 30l65 75l120 -116c33.333 -32 57.333 -62.667 72 -92zM293.498 123.5c17 16.333 25.501 36.167 25.501 59.5c0 18 -4.33301 35.167 -13 51.5s-26 37.166 -52 62.499l-23 22l-33 -32c-20.667 -20.667 -35.5 -39.167 -44.5 -55.5
s-13.5 -32.5 -13.5 -48.5c0 -23.333 8.66699 -43.166 26 -59.499s38.666 -24.5 63.999 -24.5s46.5 8.16699 63.5 24.5zM174.999 583.001c37.333 3.33301 64.002 6.33203 80.002 8.99902s24 6.66699 24 12c0 6 -4.16699 10.333 -12.5 13s-26.5 7 -54.5 13
c-30 6 -51.833 13.333 -65.5 22s-20.5 21.334 -20.5 38.001c0 13.333 4 30 12 50c10.667 26.667 25 46.834 43 60.501s39 20.5 63 20.5c10.667 0 24.667 -2.33301 42 -7l37 -12l-14 -51l-37 11c-11.333 3.33301 -21 5 -29 5c-28.667 0 -49.334 -15.667 -62.001 -47
c-2.66699 -5.33301 -4 -10.333 -4 -15c0 -6 3.33301 -10.5 10 -13.5s18.667 -6.5 36 -10.5c27.333 -6 47.666 -11.333 60.999 -16s23.5 -11.5 30.5 -20.5s10.5 -22.167 10.5 -39.5c0 -21.333 -6.66699 -37 -20 -47s-32.333 -17 -57 -21s-64.667 -8 -120 -12l-4 54
c11.333 1.33301 28.333 2.66602 51 3.99902z" />
    <glyph glyph-name="uni06CC" unicode="&#x6cc;" horiz-adv-x="710" 
d="M302 -247c-52 0 -96.8301 11.666 -134.497 34.999s-66.667 56.333 -87 99s-30.5 92.334 -30.5 149.001c0 64 12.667 132 38 204l88 -35c-22 -64.667 -33 -121.334 -33 -170.001c0 -56.667 13.833 -100.5 41.5 -131.5s66.834 -46.5 117.501 -46.5
c24 0 46.667 2.66699 68 8c55.333 13.333 99.833 27.5 133.5 42.5s50.167 27.833 49.5 38.5c-0.666992 5.33301 -6.5 10.333 -17.5 15s-31.167 11.334 -60.5 20.001l-43 13c-44.667 15.333 -78 32.833 -100 52.5s-33 47.5 -33 83.5c0 21.333 4.33301 46 13 74
c9.33301 30 23.833 59.333 43.5 88s44.167 52.334 73.5 71.001s62 28 98 28c20 0 39 -2.66699 57 -8l65 -18l-24 -100l-65 18c-10.667 3.33301 -22.667 5 -36 5c-25.333 0 -46.833 -7.33301 -64.5 -22s-31.334 -30.5 -41.001 -47.5s-15.834 -31.167 -18.501 -42.5
c-3.33301 -13.333 -5 -23.333 -5 -30c0 -16 5.66699 -27.5 17 -34.5s32 -15.167 62 -24.5c48 -14 81.5 -24.5 100.5 -31.5s34.5 -16.833 46.5 -29.5s20 -30.334 24 -53.001c0.666992 -4 1 -10.333 1 -19c0 -42.667 -22.333 -80.5 -67 -113.5s-107.334 -58.5 -188.001 -76.5
c-32.667 -7.33301 -62.334 -11 -89.001 -11z" />
    <glyph glyph-name="uni06F0" unicode="&#x6f0;" horiz-adv-x="532" 
d="M428.5 140.5c-15.667 -27.667 -37 -49.667 -64 -66s-56.5 -24.5 -88.5 -24.5s-61.5 8.16699 -88.5 24.5s-48.333 38.333 -64 66s-23.5 57.834 -23.5 90.501s7.83301 63 23.5 91s37 50.167 64 66.5s56.5 24.5 88.5 24.5s61.5 -8.16699 88.5 -24.5s48.333 -38.5 64 -66.5
s23.5 -58.333 23.5 -91s-7.83301 -62.834 -23.5 -90.501zM338.5 290.5c-17.667 16.333 -38.5 24.5 -62.5 24.5s-44.833 -8.16699 -62.5 -24.5s-26.5 -36.166 -26.5 -59.499s8.83301 -43.166 26.5 -59.499s38.5 -24.5 62.5 -24.5s44.833 8.16699 62.5 24.5
s26.5 36.166 26.5 59.499s-8.83301 43.166 -26.5 59.499z" />
    <glyph glyph-name="uni06F1" unicode="&#x6f1;" horiz-adv-x="327" 
d="M193 660l64 -655l-93 -10l-64 655z" />
    <glyph glyph-name="uni06F2" unicode="&#x6f2;" horiz-adv-x="576" 
d="M496 481c0 -28.667 -7.49902 -55.5 -22.499 -80.5s-35.333 -45 -61 -60s-53.834 -22.5 -84.501 -22.5h-30c-24.667 0 -49 5.66699 -73 17l32 -328l-93 -10l-64 656l93 10l17 -176c6.66699 -43.333 31 -65 73 -65h45c22.667 0 41.167 6 55.5 18s20.5 27.333 18.5 46
l-17 167l93 11l17 -168z" />
    <glyph glyph-name="uni06F3" unicode="&#x6f3;" horiz-adv-x="807" 
d="M727 477c0 -29.333 -7.83398 -56.3311 -23.501 -80.998s-36.334 -44.167 -62.001 -58.5s-53.167 -21.5 -82.5 -21.5h-10c-23.333 0 -45 4.66699 -65 14s-37.667 22.666 -53 39.999c-15.333 -16.667 -33.666 -29.834 -54.999 -39.501s-43.666 -14.5 -66.999 -14.5h-22
c-23.333 0 -44 4.33301 -62 13l32 -324l-93 -10l-64 655l93 10l17 -172c2.66699 -20.667 10.667 -37.167 24 -49.5s29.666 -18.5 48.999 -18.5h26c20.667 0 38.5 6.16699 53.5 18.5s21.833 27.5 20.5 45.5v2l-14 141l92 10l14 -146c2 -22 9.66699 -39.333 23 -52
s30.333 -19 51 -19h10c21.333 0 39.333 6.5 54 19.5s21.334 28.5 20.001 46.5l-16 164l93 10l16 -169z" />
    <glyph glyph-name="uni06F4" unicode="&#x6f4;" horiz-adv-x="720" 
d="M638 316h-356.002c-19.333 0 -38.333 3.66699 -57 11l31 -322l-93 -10l-46 481c-0.666992 2 -1 4.66699 -1 8l-16 167l93 10l17 -180c6.66699 -40.667 30.667 -61 72 -61h15c-14 29.333 -21 59 -21 89c0 35.333 8.66699 67.833 26 97.5s40.5 53 69.5 70
s60.833 25.5 95.5 25.5c16.667 0 36.834 -3.83301 60.501 -11.5s44.834 -15.667 63.501 -24s30.667 -13.833 36 -16.5l-41 -92l-19 7c-49.333 20.667 -82.666 31.667 -99.999 33l-11 1c-24.667 0 -45.334 -9 -62.001 -27s-25 -39 -25 -63
c0 -25.333 8.16699 -46.5 24.5 -63.5s36.5 -25.5 60.5 -25.5h184v-104z" />
    <glyph glyph-name="uni06F5" unicode="&#x6f5;" horiz-adv-x="761" 
d="M586 441c40 -50 65.833 -92.5 77.5 -127.5s17.5 -83.5 17.5 -145.5c0 -30.667 -7.16699 -58.834 -21.5 -84.501s-34 -46 -59 -61s-52.5 -22.5 -82.5 -22.5h-11c-22.667 0 -44 4.5 -64 13.5s-37.333 21.5 -52 37.5c-15.333 -16 -33.166 -28.5 -53.499 -37.5
s-41.833 -13.5 -64.5 -13.5h-11c-30 0 -57.333 7.5 -82 22.5s-44.167 35.333 -58.5 61s-21.5 53.834 -21.5 84.501c0 57.333 4.16699 101.833 12.5 133.5s27.166 67.667 56.499 108s81.333 101.833 156 184.5l-38 42l68 69c114 -126 191 -214 231 -264zM568 122.5
c13.333 12.333 20 27.5 20 45.5c0 44 -3.5 78.333 -10.5 103s-23.333 54 -49 88s-71.5 88 -137.5 162c-68.667 -75.333 -115.5 -129.333 -140.5 -162s-40.833 -61 -47.5 -85s-10 -59.333 -10 -106c0 -18 6.5 -33.167 19.5 -45.5s29.5 -18.5 49.5 -18.5h11
c20 0 36.833 6.33301 50.5 19s20.5 27.667 20.5 45v61h93v-57c1.33301 -20.667 8.33301 -37.167 21 -49.5s29 -18.5 49 -18.5h11c20 0 36.667 6.16699 50 18.5z" />
    <glyph glyph-name="uni06F6" unicode="&#x6f6;" horiz-adv-x="624" 
d="M442 359l-262 -388l-77 58l171 253c-30.667 3.33301 -59 13.666 -85 30.999c-27.333 17.333 -48.5 40.5 -63.5 69.5s-22.5 59.5 -22.5 91.5c0 40 11 76.333 33 109c8.66699 12.667 25.5 28.834 50.5 48.501s52.5 39.167 82.5 58.5l47 -90
c-58 -33.333 -92.333 -58.333 -103 -75c-12 -18 -18 -35.667 -18 -53c0 -27.333 13.667 -50.666 41 -69.999c17.333 -12 36 -18 56 -18c14.667 0 28.667 3.16699 42 9.5s24.333 15.166 33 26.499l100 148l77 -58l-97 -144z" />
    <glyph glyph-name="uni06F7" unicode="&#x6f7;" horiz-adv-x="699" 
d="M393 -4h-87l-226 629l87 35l182 -511l183 511l87 -35z" />
    <glyph glyph-name="uni06F8" unicode="&#x6f8;" horiz-adv-x="699" 
d="M307 658h87l225 -631l-87 -35l-182 511l-183 -511l-87 35z" />
    <glyph glyph-name="uni06F9" unicode="&#x6f9;" horiz-adv-x="611" 
d="M438 -4l-30.002 287.001h-118c-34.667 0 -66.5 8.5 -95.5 25.5s-52 40.167 -69 69.5s-25.5 61.666 -25.5 96.999s8.5 67.833 25.5 97.5s40 53.167 69 70.5s60.833 26 95.5 26c32.667 0 62.834 -8.16699 90.501 -24.5s50.334 -38.833 68.001 -67.5s28.5 -60.667 32.5 -96
l50 -475zM396.998 384.001l-9 87c-3.33301 28 -14 51 -32 69s-40 27 -66 27c-28 0 -51.167 -8.83301 -69.5 -26.5s-27.5 -39.5 -27.5 -65.5c0 -25.333 9.33301 -46.833 28 -64.5s41.667 -26.5 69 -26.5h107z" />
    <glyph glyph-name="uni2009" unicode="&#x2009;" horiz-adv-x="150" 
 />
    <glyph glyph-name="uni200A" unicode="&#x200a;" horiz-adv-x="75" 
 />
    <glyph glyph-name="uni200B" unicode="&#x200b;" 
 />
    <glyph glyph-name="uni200C" unicode="&#x200c;" 
 />
    <glyph glyph-name="uni200D" unicode="&#x200d;" 
 />
    <glyph glyph-name="quoteleft" unicode="&#x2018;" horiz-adv-x="192" 
d="M86 789h72l-26 -234h-97z" />
    <glyph glyph-name="quoteright" unicode="&#x2019;" horiz-adv-x="192" 
d="M157 790l-51 -234h-72l26 234h97z" />
    <glyph glyph-name="quotedblleft" unicode="&#x201c;" horiz-adv-x="383" 
d="M86 789h72l-26 -234h-97zM278 789h72l-26 -234h-97z" />
    <glyph glyph-name="quotedblright" unicode="&#x201d;" horiz-adv-x="383" 
d="M157 790l-51 -234h-72l26 234h97zM349 790l-51 -234h-72l26 234h97z" />
    <glyph glyph-name="quotedblbase" unicode="&#x201e;" horiz-adv-x="383" 
d="M157 145l-51 -234h-72l26 234h97zM349 145l-51 -234h-72l26 234h97z" />
    <glyph glyph-name="guilsinglleft" unicode="&#x2039;" horiz-adv-x="307" 
d="M177.5 360c-10.333 -24.667 -15.499 -50.668 -15.499 -78.001c0 -53.333 18.667 -99.666 56 -138.999l-58 -56c-25.333 26 -45 55.833 -59 89.5s-21 68.834 -21 105.501c0 37.333 7.66699 73.666 23 108.999s36.666 66.333 63.999 93l56 -60
c-20 -18 -35.167 -39.333 -45.5 -64z" />
    <glyph glyph-name="guilsinglright" unicode="&#x203a;" horiz-adv-x="307" 
d="M204 391c15.333 -35.333 23.001 -71.665 23.001 -108.998c0 -36.667 -7 -71.834 -21 -105.501s-33.667 -63.5 -59 -89.5l-58 56c37.333 39.333 56 85.666 56 138.999c0 27.333 -5.16699 53.333 -15.5 78s-25.5 46 -45.5 64l56 60
c27.333 -26.667 48.666 -57.667 63.999 -93z" />
    <glyph glyph-name="minus" unicode="&#x2212;" horiz-adv-x="412" 
d="M386 262h-359v91h359v-91z" />
    <glyph glyph-name="notequal" unicode="&#x2260;" horiz-adv-x="412" 
d="M281 349l-35 -84h140v-90h-177l-33 -80h-93l33 80h-89v90h126l35 84h-161v91h198l30 72h93l-30 -72h68v-91h-105z" />
    <glyph glyph-name="dotabove-ar" unicode="&#xfbb2;" 
d="M0 418l78 77l77 -77l-77 -78z" />
    <glyph glyph-name="dotbelow-ar" unicode="&#xfbb3;" 
d="M0 -128l78 77l77 -77l-77 -78z" />
    <glyph glyph-name="twodotshorizontalabove-ar" unicode="&#xfbb4;" 
d="M0 512l69 69l69 -69l-69 -68zM182 512l69 69l69 -69l-69 -68z" />
    <glyph glyph-name="twodotshorizontalbelow-ar" unicode="&#xfbb5;" 
d="M0 -85l69 69l69 -69l-69 -68zM182 -85l69 69l69 -69l-69 -68z" />
    <glyph glyph-name="threedotsupabove-ar" unicode="&#xfbb6;" 
d="M101 642l59 58l58 -58l-58 -59zM0 512l69 69l69 -69l-69 -68zM182 512l69 69l69 -69l-69 -68z" />
    <glyph glyph-name="threedotsdownbelow-ar" unicode="&#xfbb9;" 
d="M101 -267l59 58l58 -58l-58 -59zM0 -139l69 69l69 -69l-69 -68zM182 -139l69 69l69 -69l-69 -68z" />
    <glyph glyph-name="uniFD3E" unicode="&#xfd3e;" horiz-adv-x="360" 
d="M99.5 -10c-33 82 -49.501 166.667 -49.501 254c0 88.667 17 174.334 51 257.001s81.667 155 143 217l66 -74c-54.667 -54 -96.167 -115.167 -124.5 -183.5s-42.5 -140.5 -42.5 -216.5c0 -74.667 13.833 -145.834 41.5 -213.501s67.834 -128.167 120.501 -181.5l-66 -73
c-60 60.667 -106.5 132 -139.5 214z" />
    <glyph glyph-name="uniFD3F" unicode="&#xfd3f;" horiz-adv-x="360" 
d="M176 31c28 68 42.001 139 42.001 213c0 76 -14.333 148.167 -43 216.5s-70.334 129.5 -125.001 183.5l66 74c62 -62 109.833 -134.167 143.5 -216.5s50.5 -168.166 50.5 -257.499c0 -88 -16.5 -172.833 -49.5 -254.5s-79.5 -152.834 -139.5 -213.501l-66 73
c52.667 53.333 93 114 121 182z" />
    <glyph glyph-name="uniFEFF" unicode="&#xfeff;" 
 />
    <glyph glyph-name=".null" 
 />
    <glyph glyph-name="b.bowl" horiz-adv-x="322" 
d="M43 35.5c-28.667 29 -43.001 67.498 -43.001 115.498v185c0 48 14.167 86.5 42.5 115.5s65.5 43.5 111.5 43.5c54.667 0 96.334 -14.167 125.001 -42.5s43 -67.166 43 -116.499v-185c0 -49.333 -14.333 -88.166 -43 -116.499s-70 -42.5 -124 -42.5
c-46 0 -83.333 14.5 -112 43.5zM192.499 90.998c16.333 14 24.502 34 24.502 60v185c0 25.333 -8.33301 45.166 -25 59.499s-38.334 21.5 -65.001 21.5s-48.167 -7.16699 -64.5 -21.5s-24.5 -34.166 -24.5 -59.499v-185c0 -26 8.16699 -46 24.5 -60s38.166 -21 65.499 -21
c26.667 0 48.167 7 64.5 21z" />
    <glyph glyph-name="d.bowl" horiz-adv-x="322" 
d="M279 451.5c28.667 -29 43.001 -67.499 43.001 -115.499v-186c0 -48 -14.167 -86.333 -42.5 -115s-65.5 -43 -111.5 -43c-54.667 0 -96.334 14 -125.001 42s-43 66.667 -43 116v186c-0 49.333 14.333 88.166 43 116.499s70 42.5 124 42.5c46 0 83.333 -14.5 112 -43.5z
M129.501 395.501c-17 -14.333 -25.501 -34.166 -25.501 -59.499v-186c0 -24.667 8.5 -44.167 25.5 -58.5s38.833 -21.5 65.5 -21.5s48.167 7.16699 64.5 21.5s24.5 33.833 24.5 58.5v186c0 25.333 -8.16699 45.166 -24.5 59.499s-38.166 21.5 -65.499 21.5
c-26 0 -47.5 -7.16699 -64.5 -21.5z" />
    <glyph glyph-name="n.curve" horiz-adv-x="322" 
d="M192 395.5c-16.667 14.333 -38.334 21.499 -65.001 21.499s-48.167 -7.16699 -64.5 -21.5s-24.5 -34.166 -24.5 -59.499v-57h-38v57c0 48 14.167 86.5 42.5 115.5s65.5 43.5 111.5 43.5c54.667 0 96.334 -14.167 125.001 -42.5s43 -67.166 43 -116.499v-336h-105v336
c0 25.333 -8.33301 45.166 -25 59.499z" />
    <glyph glyph-name="uni0627.001" horiz-adv-x="163" 
d="M115 673l20 -515l-91 -48l-22 558z" />
    <glyph glyph-name="uni0627.002" horiz-adv-x="302" 
d="M195 571l22 -570l-93 -4l-22 569z" />
    <glyph glyph-name="uniFE8E.001" horiz-adv-x="282" 
d="M171 20c-26 13.333 -44.999 34.832 -56.999 64.499s-19 70.834 -21 123.501l-14 359l93 4l14 -363c1.33301 -32 4.16602 -54.833 8.49902 -68.5s12.333 -23 24 -28s31.167 -7.5 58.5 -7.5h10v-104h-10c-44.667 0 -80 6.66699 -106 20z" />
    <glyph glyph-name="uniFE8E.002" horiz-adv-x="323" 
d="M141 635l80 -460l-91 -19l-80 460zM328 104v-104h-231v104h231z" />
    <glyph glyph-name="uni066E.001" horiz-adv-x="467" 
d="M166.5 106c37 1.33301 62.501 3.33301 76.501 6s26.667 6.33398 38 11.001c15.333 6.66699 26.5 14.5 33.5 23.5s10.5 20.833 10.5 35.5c0 11.333 -2.66699 27 -8 47l-38 139l90 26l38 -139c6.66699 -24 10 -48 10 -72c0 -36 -8.33301 -67.5 -25 -94.5
s-41 -47.5 -73 -61.5c-18.667 -7.33301 -37.834 -12.833 -57.501 -16.5s-49 -6.33398 -88 -8.00098s-96.833 -2.5 -173.5 -2.5v104c74 0 129.5 0.666992 166.5 2z" />
    <glyph glyph-name="uni066E.fina.001" horiz-adv-x="468" 
d="M294 2.5c-39.333 1.66699 -69.001 4.33301 -89.001 8s-39 9.16699 -57 16.5c-31.333 14 -55.333 34.333 -72 61s-25 57.667 -25 93c0 21.333 3 44 9 68l37 143l89 -26l-38 -147c-3.33301 -11.333 -5 -23.666 -5 -36.999c0 -14.667 3.33301 -26.667 10 -36
s17.334 -17.333 32.001 -24c16 -6.66699 40.833 -11.334 74.5 -14.001s103.167 -4 208.5 -4v-104c-76.667 -0 -134.667 0.833008 -174 2.5z" />
    <glyph glyph-name="uni066E.fina.001.003" horiz-adv-x="469" 
d="M91.5 50.5c-31.667 32.333 -45.167 75.1689 -40.5 128.502l11 123l93 -9l-11 -123c-2.66699 -22 2.5 -38.333 15.5 -49s34.833 -16.334 65.5 -17.001h244v-104h-244c-57.333 1.33301 -101.833 18.166 -133.5 50.499z" />
    <glyph glyph-name="uni066E.fina.002" horiz-adv-x="492" 
d="M436 120c11.333 -10.667 31.667 -16 61 -16v-104c-55.333 -0 -97.333 15.333 -126 46c-32.667 -30.667 -76 -46 -130 -46h-241v104h241c30 0 51.5 5.16699 64.5 15.5s18.833 26.5 17.5 48.5v2l-11 123l92 9l11 -123v-1c2.66699 -28 9.66699 -47.333 21 -58z" />
    <glyph glyph-name="uni066E.medi.001" horiz-adv-x="407" 
d="M351 120c11.333 -10.667 31.666 -16.001 60.999 -16.001v-104c-55.333 0 -97.333 15.333 -126 46c-32.667 -30.667 -76 -46 -130 -46h-161v104h161c30.667 0 52.334 5.33301 65.001 16s18 27.334 16 50.001l-11 123l93 9l11 -123v-1c2.66699 -28 9.66699 -47.333 21 -58z
" />
    <glyph glyph-name="uni066E.init.001" horiz-adv-x="387" 
d="M143 104c31.333 0 55.832 5.50098 73.499 16.501s26.5 29.5 26.5 55.5c0 12.667 -2.33301 27 -7 43l-39 149l90 26l40 -154c6.66699 -22.667 10 -45.334 10 -68.001c0 -36 -8.66699 -67 -26 -93s-40.666 -45.667 -69.999 -59s-62 -20 -98 -20h-148v104h148z" />
    <glyph glyph-name="uni066E.init.002" horiz-adv-x="318" 
d="M258 245c6.66699 -24 10 -47.333 10 -70c0 -54.667 -18.333 -97.5 -55 -128.5s-83 -46.5 -139 -46.5h-79v104h79c32 0 56.833 5.33301 74.5 16s26.5 29 26.5 55c0 13.333 -2.33301 28 -7 44l-40 149l90 26z" />
    <glyph glyph-name="uniFE92.alt" horiz-adv-x="309" 
d="M253 120c11.333 -10.667 31.6641 -16 60.9971 -16v-104c-54.667 0 -96.667 15 -126 45c-31.333 -30 -74.666 -45 -129.999 -45h-63v104h63c30.667 0 52.334 5.16699 65.001 15.5s18.334 26.5 17.001 48.5v2l-11 123l92 9l11 -123v-1c2.66699 -28 9.66699 -47.333 21 -58z
M-9.00195 -142l78 77l77 -77l-77 -78z" />
    <glyph glyph-name="uniFE91.alt" horiz-adv-x="345" 
d="M295 175c0 -54.667 -18.333 -97.5 -55 -128.5s-83 -46.5 -139 -46.5h-106v104h106c32 0 56.833 5.33301 74.5 16s26.5 29 26.5 55c0 13.333 -2.33301 28 -7 44l-40 149l90 26l40 -149c6.66699 -24 10 -47.333 10 -70zM127 -66l77 -77l-77 -78l-78 78z" />
    <glyph glyph-name="uniFB59.alt" horiz-adv-x="407" 
d="M351 120c11.333 -10.667 31.666 -16.001 60.999 -16.001v-104c-55.333 0 -97.333 15.333 -126 46c-32.667 -30.667 -76 -46 -130 -46h-161v104h161c30.667 0 52.334 5.33301 65.001 16s18 27.334 16 50.001l-11 123l93 9l11 -123v-1c2.66699 -28 9.66699 -47.333 21 -58z
M42 -269.001l59 58l58 -58l-58 -59zM-59 -141.001l69 69l69 -69l-69 -68zM123 -141.001l69 69l69 -69l-69 -68z" />
    <glyph glyph-name="uniFB58.alt" horiz-adv-x="414" 
d="M-5 104l174.999 0.000976562c31.333 0 55.833 5.5 73.5 16.5s26.5 29.5 26.5 55.5c0 12.667 -2.33301 27 -7 43l-39 149l90 26l40 -154c6.66699 -22.667 10 -45.334 10 -68.001c0 -36 -8.66699 -67 -26 -93s-40.666 -45.667 -69.999 -59s-62 -20 -98 -20h-175v104z
M139.999 -142.999l-69 -69l-69 69l69 69zM252.999 -73.999l69 -69l-69 -69l-69 69zM161.999 -213.999l58 -57l-58 -59l-58 59z" />
    <glyph glyph-name="uniFEA2.001" horiz-adv-x="712" 
d="M630 -174l24.001 -99.999l-258 -72c-25.333 -6 -50.333 -9 -75 -9c-62 0 -117 18 -165 54s-80 84.333 -96 145c-6.66699 25.333 -10 49.666 -10 72.999c0 60.667 19.667 116.334 59 167.001s99.333 86.667 180 108l253 66l-203 106
c-16.667 9.33301 -35.334 14 -56.001 14c-20 0 -38.667 -5 -56 -15s-31.333 -24.667 -42 -44l-18 -31l-80 50l19 35c20.667 35.333 46.334 62.333 77.001 81s63.334 28 98.001 28c35.333 0 69.666 -9.33301 102.999 -28l272 -152l-13 -120l-330 -90
c-60.667 -16 -104.167 -40 -130.5 -72s-39.5 -67 -39.5 -105c0 -12.667 1.66699 -26.334 5 -41.001c10 -38 31.167 -68.5 63.5 -91.5s69.166 -34.5 110.499 -34.5c19.333 0 37.333 2.33301 54 7z" />
    <glyph glyph-name="uniFEA2.002" horiz-adv-x="239" 
d="M98.5 28.5c-31 19 -55.167 44.999 -72.5 77.999s-26 69.167 -26 108.5h93c0 -31.333 10.167 -57.666 30.5 -78.999s46.5 -32 78.5 -32h37v-104h-37c-38 0 -72.5 9.5 -103.5 28.5z" />
    <glyph glyph-name="uniFEAE.001" horiz-adv-x="167" 
d="M80.5 24c-20.333 16 -36.332 42 -47.999 78s-22.167 88 -31.5 156l87 14c6.66699 -52.667 12.667 -90 18 -112s12.166 -36.833 20.499 -44.5s21.5 -11.5 39.5 -11.5h6v-104h-6c-36.667 0 -65.167 8 -85.5 24z" />
    <glyph glyph-name="uniFEBC.001" horiz-adv-x="20" 
d="M-67 16.5c-24.667 11 -45.6689 24.5 -63.002 40.5l62 76c8.66699 -8 19.834 -14.833 33.501 -20.5s28.834 -8.5 45.501 -8.5h14v-104h-14c-27.333 0 -53.333 5.5 -78 16.5z" />
    <glyph glyph-name="uniFEBC.002" horiz-adv-x="233" 
d="M197.5 120.5c7.66699 -11 19.5 -16.502 35.5 -16.502v-104c-20.667 0 -39.667 4 -57 12s-31.666 19.333 -42.999 34c-34 -29.333 -78.333 -44.666 -133 -45.999h-5v104h5c29.333 0 52.166 5.83301 68.499 17.5s25.833 30.834 28.5 57.501l11 123l92 -9l-11 -122v-1
c-2 -22 0.833008 -38.5 8.5 -49.5z" />
    <glyph glyph-name="uniFEBC.003" horiz-adv-x="550" 
d="M407.5 364c29 -18 51.668 -42.501 68.001 -73.501s24.5 -65.167 24.5 -102.5c0 -33.333 -8.66699 -64.333 -26 -93s-40.5 -51.667 -69.5 -69s-60.167 -26 -93.5 -26h-312v75l-11 10l11 15v4h3l69 94c34 48 62 84.833 84 110.5s45.667 45.834 71 60.501
s53.666 22 84.999 22c35.333 0 67.5 -9 96.5 -27zM378.501 129.999c19.667 17.333 29.501 36.667 29.501 58c0 28.667 -9.16699 52.334 -27.5 71.001s-41.5 28 -69.5 28c-18.667 0 -35.834 -5 -51.501 -15s-31.5 -24.833 -47.5 -44.5s-37.667 -48.834 -65 -87.501l-26 -36
h190c25.333 0 47.833 8.66699 67.5 26z" />
    <glyph glyph-name="uniFEDC.001" horiz-adv-x="246" 
d="M112 48.5c-36.667 32.333 -74 81.833 -112 148.5l70 44c33.333 -53.333 61.833 -89.5 85.5 -108.5s50.834 -28.5 81.501 -28.5h14v-104h-14c-46.667 0 -88.334 16.167 -125.001 48.5z" />
    <glyph glyph-name="uniFEDE.001" horiz-adv-x="188" 
d="M53 47.5c-32.667 31.667 -50.333 75.5 -53 131.5l91 5c2.66699 -53.333 30 -80 82 -80h20v-104h-20c-47.333 -0 -87.333 15.833 -120 47.5z" />
    <glyph glyph-name="uniFEE0.001" horiz-adv-x="289" 
d="M294 104v-104h-20c-24 0 -46.833 4.5 -68.5 13.5s-40.167 21.833 -55.5 38.5c-32.667 -34.667 -76.667 -52 -132 -52h-23v104h23c56 0 83.333 23.333 82 70l-19 494l92 5l19 -489c2.66699 -53.333 30 -80 82 -80h20z" />
    <glyph glyph-name="uniFEDF.001" horiz-adv-x="242" 
d="M18 104c56 0 83.333 23.333 82 70l-19 494l92 5l19 -495c1.33301 -30.667 -4.16699 -59.667 -16.5 -87s-31.833 -49.333 -58.5 -66s-59.667 -25 -99 -25h-23v104h23z" />
    <glyph glyph-name="uniFEE4.001" horiz-adv-x="165" 
d="M45 53c-30 35.333 -45 82.334 -45 141.001h79c0 -28.667 7.83301 -50.834 23.5 -66.501s38.167 -23.5 67.5 -23.5v-104c-53.333 0 -95 17.667 -125 53z" />
    <glyph glyph-name="uniFB9F.001" horiz-adv-x="207" 
d="M66 73c-30 48.667 -51.666 121.667 -64.999 219l90 15c8 -58.667 15.5 -101.667 22.5 -129s15.667 -46.5 26 -57.5s25.166 -16.5 44.499 -16.5h28v-104h-26c-50 -0 -90 24.333 -120 73z" />
    <glyph glyph-name="uniFEF4.alt" horiz-adv-x="407" 
d="M351 120c11.333 -10.667 31.666 -16.001 60.999 -16.001v-104c-55.333 0 -97.333 15.333 -126 46c-32.667 -30.667 -76 -46 -130 -46h-161v104h161c30.667 0 52.334 5.33301 65.001 16s18 27.334 16 50.001l-11 123l93 9l11 -123v-1c2.66699 -28 9.66699 -47.333 21 -58z
M-62 -147.001l69 69l69 -69l-69 -68zM120 -147.001l69 69l69 -69l-69 -68z" />
    <glyph glyph-name="uniFEF3.alt" horiz-adv-x="414" 
d="M364 172c0 -36 -8.66797 -66.999 -26.001 -92.999s-40.666 -45.667 -69.999 -59s-62 -20 -98 -20h-175v104h175c31.333 0 55.833 5.5 73.5 16.5s26.5 29.5 26.5 55.5c0 12.667 -2.33301 27 -7 43l-39 149l90 26l40 -154c6.66699 -22.667 10 -45.334 10 -68.001z
M68.999 -76.999l69 -69l-69 -68l-69 68zM250.999 -76.999l69 -69l-69 -68l-68 68z" />
    <glyph glyph-name="uniFBFF.alt" horiz-adv-x="407" 
d="M351 120c11.333 -10.667 31.666 -16.001 60.999 -16.001v-104c-55.333 0 -97.333 15.333 -126 46c-32.667 -30.667 -76 -46 -130 -46h-161v104h161c30.667 0 52.334 5.33301 65.001 16s18 27.334 16 50.001l-11 123l93 9l11 -123v-1c2.66699 -28 9.66699 -47.333 21 -58z
M-62 -147.001l69 69l69 -69l-69 -68zM120 -147.001l69 69l69 -69l-69 -68z" />
    <glyph glyph-name="uniFBFE.alt" horiz-adv-x="414" 
d="M364 172c0 -36 -8.66797 -66.999 -26.001 -92.999s-40.666 -45.667 -69.999 -59s-62 -20 -98 -20h-175v104h175c31.333 0 55.833 5.5 73.5 16.5s26.5 29.5 26.5 55.5c0 12.667 -2.33301 27 -7 43l-39 149l90 26l40 -154c6.66699 -22.667 10 -45.334 10 -68.001z
M68.999 -76.999l69 -69l-69 -68l-69 68zM250.999 -76.999l69 -69l-69 -68l-68 68z" />
    <glyph glyph-name="uni0640.001" horiz-adv-x="160" 
d="M160 104v-104h-160v104h160z" />
    <glyph glyph-name="uni0640.002" horiz-adv-x="65" 
d="M70 104v-104h-70v104h70z" />
    <glyph glyph-name="uni0640.003" 
d="M2 104v-104h-4v104h4z" />
    <glyph glyph-name="uni0640.004" horiz-adv-x="28" 
d="M33 104v-104h-38v104h38z" />
    <glyph glyph-name="period.001" horiz-adv-x="323" 
d="M114 18c-13.333 13.333 -20 29.333 -20 48c0 18 6.66699 33.5 20 46.5s29.333 19.5 48 19.5c18 0 33.5 -6.5 46.5 -19.5s19.5 -28.5 19.5 -46.5c0 -18.667 -6.5 -34.667 -19.5 -48s-28.5 -20 -46.5 -20c-18.667 0 -34.667 6.66699 -48 20z" />
    <glyph glyph-name="dotcenterar" 
d="M0 -66l78 77l77 -77l-77 -78z" />
    <glyph glyph-name="threedotsdownbelowar.002" 
d="M80 -233l59 58l58 -58l-58 -59zM0 -139l59 58l58 -58l-58 -59zM161 -139l59 58l58 -58l-58 -59z" />
    <glyph glyph-name="threedotsupabovear.001" 
d="M0 512l69 69l69 -69l-69 -68z" />
    <glyph glyph-name="threedotsupabovear.002" 
d="M0 642l59 58l58 -58l-58 -59z" />
    </font>
</defs>
</svg>
