<?xml version="1.0" standalone="no"?>
<!DOCTYPE svg PUBLIC "-//W3C//DTD SVG 1.1//EN" "http://www.w3.org/Graphics/SVG/1.1/DTD/svg11.dtd" >
<svg>
<metadata>
Created by FontForge 20090914 at Sun Sep 22 22:48:31 2019
 By www-data
Copyright (c) 2019 by www.fontiran.com (Moslem Ebrahimi). All rights reserved.
</metadata>
<defs>
<font id="dana-thin" horiz-adv-x="0" >
  <font-face 
    font-family="dana thin"
    font-weight="100"
    font-stretch="normal"
    units-per-em="1000"
    panose-1="0 0 2 0 0 0 0 0 0 0"
    ascent="800"
    descent="-200"
    x-height="427"
    cap-height="628"
    bbox="-94 -495 1226 990"
    underline-thickness="10"
    underline-position="-240"
    unicode-range="U+000D-U+FEFF"
  />
<missing-glyph horiz-adv-x="300" 
d="M255 505v-510h-210v510h210zM245 495h-190v-490h190v490z" />
    <glyph glyph-name="uniFEF5" unicode="&#xfedf;&#xfe82;" horiz-adv-x="499" arabic-form="isolated" 
d="M422.5 41.5c-19 -27.667 -54.5 -41.499 -106.5 -41.499h-233v10h233c48.667 0 81.667 12.333 99 37s25.333 52 24 82l-19 492l10 1l19 -493c1.33301 -30.667 -7.5 -59.834 -26.5 -87.501zM123 78.001l-73 508l10 2l73 -508zM-11.5 690.501
c11.667 11.667 27.167 17.5 46.5 17.5c4.66699 0 11 -0.666992 19 -2l101 -19c8 -1.33301 13.667 -2 17 -2c16 0 29 5 39 15s15 23.333 15 40v9h10v-9c0 -20 -5.83301 -35.833 -17.5 -47.5s-27.167 -17.5 -46.5 -17.5c-4.66699 0 -11 0.666992 -19 2l-101 19
c-8 1.33301 -13.667 2 -17 2c-16 0 -29 -5 -39 -15s-15 -23.333 -15 -40v-9h-10v9c0 20 5.83301 35.833 17.5 47.5z" />
    <glyph glyph-name="uniFEF6" unicode="&#xfee0;&#xfe82;" horiz-adv-x="586" arabic-form="final" 
d="M591 10v-10.001h-20c-26.667 0 -51.834 7.33301 -75.501 22s-40.167 38 -49.5 70c-6 -26 -19 -47.833 -39 -65.5s-50.333 -26.5 -91 -26.5h-233v10h233c48.667 0 81.667 12.333 99 37s25.333 52 24 82l-19 492l10 1l19 -493v-8
c4.66699 -39.333 18.834 -67.666 42.501 -84.999s50.167 -26 79.5 -26h20zM123 77.999l-73 508l10 2l73 -508zM1.5 661.499c11.667 11.667 27.167 17.5 46.5 17.5c4.66699 0 11 -0.666992 19 -2l101 -19c8 -1.33301 13.667 -2 17 -2c16 0 29 5 39 15s15 23.333 15 40v9h10
v-9c0 -20 -5.83301 -35.833 -17.5 -47.5s-27.167 -17.5 -46.5 -17.5c-4.66699 0 -11 0.666992 -19 2l-101 19c-8 1.33301 -13.667 2 -17 2c-16 0 -29 -5 -39 -15s-15 -23.333 -15 -40v-9h-10v9c0 20 5.83301 35.833 17.5 47.5z" />
    <glyph glyph-name="uniFEF7" unicode="&#xfedf;&#xfe84;" horiz-adv-x="499" arabic-form="isolated" 
d="M422.5 41.5c-19 -27.667 -54.5 -41.499 -106.5 -41.499h-233v10h233c48.667 0 81.667 12.333 99 37s25.333 52 24 82l-19 492l10 1l19 -493c1.33301 -30.667 -7.5 -59.834 -26.5 -87.501zM123 78.001l-73 508l10 2l73 -508zM232 698.001l-246.001 -59l-2 10l116 28
c-17.333 4 -31.666 13.333 -42.999 28s-17 32 -17 52c0 22 7.5 41 22.5 57s34.5 24 58.5 24c18 0 40 -3 66 -9l-2 -10c-26 5.33301 -47.667 8 -65 8c-20.667 0 -37.5 -6.83301 -50.5 -20.5s-19.5 -30.167 -19.5 -49.5c0 -21.333 7 -38.833 21 -52.5s30.667 -20.5 50 -20.5
c3.33301 0 9 0.666992 17 2l92 22z" />
    <glyph glyph-name="uniFEF8" unicode="&#xfee0;&#xfe84;" horiz-adv-x="586" arabic-form="final" 
d="M591 10v-10.001h-20c-26.667 0 -51.834 7.33301 -75.501 22s-40.167 38 -49.5 70c-6 -26 -19 -47.833 -39 -65.5s-50.333 -26.5 -91 -26.5h-233v10h233c48.667 0 81.667 12.333 99 37s25.333 52 24 82l-19 492l10 1l19 -493v-8
c4.66699 -39.333 18.834 -67.666 42.501 -84.999s50.167 -26 79.5 -26h20zM123 77.999l-73 508l10 2l73 -508zM232 699.999l-246.001 -59l-2 10l116 28c-17.333 4 -31.666 13.333 -42.999 28s-17 32 -17 52c0 22 7.5 41 22.5 57s34.5 24 58.5 24c18 0 40 -3 66 -9l-2 -10
c-26 5.33301 -47.667 8 -65 8c-20.667 0 -37.5 -6.83301 -50.5 -20.5s-19.5 -30.167 -19.5 -49.5c0 -21.333 7 -38.833 21 -52.5s30.667 -20.5 50 -20.5c3.33301 0 9 0.666992 17 2l92 22z" />
    <glyph glyph-name="uniFEF9" unicode="&#xfedf;&#xfe88;" horiz-adv-x="499" arabic-form="isolated" 
d="M422.5 41.5c-19 -27.667 -54.5 -41.499 -106.5 -41.499h-233v10h233c48.667 0 81.667 12.333 99 37s25.333 52 24 82l-19 492l10 1l19 -493c1.33301 -30.667 -7.5 -59.834 -26.5 -87.501zM123 78.001l-73 508l10 2l73 -508zM262 -173.999l-246.001 -59l-2 10l116 28
c-17.333 4 -31.666 13.333 -42.999 28s-17 32 -17 52c0 22 7.5 41 22.5 57s34.5 24 58.5 24c18 0 40 -3 66 -9l-2 -10c-26 5.33301 -47.667 8 -65 8c-20.667 0 -37.5 -6.83301 -50.5 -20.5s-19.5 -30.167 -19.5 -49.5c0 -21.333 7 -38.833 21 -52.5s30.667 -20.5 50 -20.5
c3.33301 0 9 0.666992 17 2l92 22z" />
    <glyph glyph-name="uniFEFA" unicode="&#xfee0;&#xfe88;" horiz-adv-x="586" arabic-form="final" 
d="M591 10v-10.001h-20c-26.667 0 -51.834 7.33301 -75.501 22s-40.167 38 -49.5 70c-6 -26 -19 -47.833 -39 -65.5s-50.333 -26.5 -91 -26.5h-233v10h233c48.667 0 81.667 12.333 99 37s25.333 52 24 82l-19 492l10 1l19 -493v-8
c4.66699 -39.333 18.834 -67.666 42.501 -84.999s50.167 -26 79.5 -26h20zM123 77.999l-73 508l10 2l73 -508zM280 -174.001l-246.001 -59l-2 10l116 28c-17.333 4 -31.666 13.333 -42.999 28s-17 32 -17 52c0 22 7.5 41 22.5 57s34.5 24 58.5 24c18 0 40 -3 66 -9l-2 -10
c-26 5.33301 -47.667 8 -65 8c-20.667 0 -37.5 -6.83301 -50.5 -20.5s-19.5 -30.167 -19.5 -49.5c0 -21.333 7 -38.833 21 -52.5s30.667 -20.5 50 -20.5c3.33301 0 9 0.666992 17 2l92 22z" />
    <glyph glyph-name="uniFEFB" unicode="&#xfedf;&#xfe8e;" horiz-adv-x="499" arabic-form="isolated" 
d="M422.5 41.5c-19 -27.667 -54.5 -41.499 -106.5 -41.499h-233v10h233c48.667 0 81.667 12.333 99 37s25.333 52 24 82l-19 492l10 1l19 -493c1.33301 -30.667 -7.5 -59.834 -26.5 -87.501zM123 78.001l-73 508l10 2l73 -508z" />
    <glyph glyph-name="uniFEFC" unicode="&#xfee0;&#xfe8e;" horiz-adv-x="586" arabic-form="final" 
d="M591 10v-10.001h-20c-26.667 0 -51.834 7.33301 -75.501 22s-40.167 38 -49.5 70c-6 -26 -19 -47.833 -39 -65.5s-50.333 -26.5 -91 -26.5h-233v10h233c48.667 0 81.667 12.333 99 37s25.333 52 24 82l-19 492l10 1l19 -493v-8
c4.66699 -39.333 18.834 -67.666 42.501 -84.999s50.167 -26 79.5 -26h20zM123 77.999l-73 508l10 2l73 -508z" />
    <glyph glyph-name="uni06440671" unicode="&#xfedf;&#xfb51;" horiz-adv-x="499" 
d="M422.5 41.5c-19 -27.667 -54.5 -41.499 -106.5 -41.499h-233v10h233c48.667 0 81.667 12.333 99 37s25.333 52 24 82l-19 492l10 1l19 -493c1.33301 -30.667 -7.5 -59.834 -26.5 -87.501zM123 78.001l-73 508l10 2l73 -508zM238 781.001
c14 -14.667 21.001 -33 21.001 -55c0 -18.667 -7.33301 -35 -22 -49s-31.667 -21 -51 -21h-141c-12.667 0 -22.834 -2.5 -30.501 -7.5s-17.167 -15.167 -28.5 -30.5l-8 6c11.333 15.333 21.333 26 30 32s20 9.33301 34 10l38 52c21.333 29.333 39.5 50.833 54.5 64.5
s32.167 20.5 51.5 20.5c20.667 0 38 -7.33301 52 -22zM230.001 684.501c12.667 12.333 18.999 26.167 18.999 41.5c0 19.333 -6 35.333 -18 48s-27 19 -45 19c-17.333 0 -32.5 -6.16699 -45.5 -18.5s-30.167 -32.833 -51.5 -61.5l-34 -47h131
c16.667 0 31.334 6.16699 44.001 18.5z" />
    <glyph glyph-name="uni06440671.fina" unicode="&#xfee0;&#xfb51;" horiz-adv-x="586" 
d="M591 10v-10.001h-20c-26.667 0 -51.834 7.33301 -75.501 22s-40.167 38 -49.5 70c-6 -26 -19 -47.833 -39 -65.5s-50.333 -26.5 -91 -26.5h-233v10h233c48.667 0 81.667 12.333 99 37s25.333 52 24 82l-19 492l10 1l19 -493v-8
c4.66699 -39.333 18.834 -67.666 42.501 -84.999s50.167 -26 79.5 -26h20zM123 77.999l-73 508l10 2l73 -508zM238 780.999c14 -14.667 21.001 -33 21.001 -55c0 -18.667 -7.33301 -35 -22 -49s-31.667 -21 -51 -21h-141c-12.667 0 -22.834 -2.5 -30.501 -7.5
s-17.167 -15.167 -28.5 -30.5l-8 6c11.333 15.333 21.333 26 30 32s20 9.33301 34 10l38 52c21.333 29.333 39.5 50.833 54.5 64.5s32.167 20.5 51.5 20.5c20.667 0 38 -7.33301 52 -22zM230.001 684.499c12.667 12.333 18.999 26.167 18.999 41.5
c0 19.333 -6 35.333 -18 48s-27 19 -45 19c-17.333 0 -32.5 -6.16699 -45.5 -18.5s-30.167 -32.833 -51.5 -61.5l-34 -47h131c16.667 0 31.334 6.16699 44.001 18.5z" />
    <glyph glyph-name="uniFDF2.001" unicode="&#xfedf;&#xfee0;&#xfeea;" horiz-adv-x="974" 
d="M618 820h-11v163h11v-163zM502 682c-12.667 10.667 -19.002 24 -19.002 40c0 7.33301 0.666992 13 2 17l10 40l10 -2l-10 -40c-1.33301 -3.33301 -2 -8.33301 -2 -15c0 -13.333 5.5 -24.333 16.5 -33s25.5 -13 43.5 -13c15.333 0 28.333 4.5 39 13.5s16 19.833 16 32.5
v52h10v-52c0 -12.667 5.33301 -23.5 16 -32.5s24 -13.5 40 -13.5c18 0 32.333 4.33301 43 13s16 19.667 16 33c0 6.66699 -0.666992 11.667 -2 15l-16 61l10 2l16 -61c1.33301 -4 2 -9.66699 2 -17c0 -16.667 -6.16699 -30.167 -18.5 -40.5s-29.166 -15.5 -50.499 -15.5
c-14 0 -26.333 3.16699 -37 9.5s-18.667 14.5 -24 24.5c-5.33301 -10 -13.166 -18.167 -23.499 -24.5s-22.5 -9.5 -36.5 -9.5c-21.333 0 -38.333 5.33301 -51 16zM897.498 41.5c-19 -27.667 -54.4961 -41.502 -106.496 -41.502h-33c-26.667 0 -51.834 7.33301 -75.501 22
s-40.167 38 -49.5 70c-6 -26 -19 -47.833 -39 -65.5s-50.333 -26.5 -91 -26.5h-32c-32.667 0 -62.334 8.66699 -89.001 26s-46.334 40.333 -59.001 69l-128 -21c-4 -0.666992 -9.66699 -1 -17 -1c-26.667 0 -51.834 8.83301 -75.501 26.5s-39.167 38.834 -46.5 63.501
c-4 13.333 -6 26.333 -6 39c0 28 8.16699 53.5 24.5 76.5s37.833 38.833 64.5 47.5l170 57v58h10v-279c0 -27.333 6.83301 -52.666 20.5 -75.999s32.167 -41.833 55.5 -55.5s48.666 -20.5 75.999 -20.5h32c48.667 0 81.667 12.333 99 37s25.333 52 24 82l-19 492l10 1
l19 -493v-8c4.66699 -39.333 18.834 -67.666 42.501 -84.999s50.167 -26 79.5 -26h33c48.667 0 81.667 12.333 99 37s25.333 52 24 82l-19 492l10 1l19 -493c1.33301 -30.667 -7.5 -59.834 -26.5 -87.501zM319.002 104.998c-6.66699 20 -10 39 -10 57v209l-166 -55
c-25.333 -8.66699 -45.5 -23.334 -60.5 -44.001s-22.5 -43.667 -22.5 -69c0 -12 2 -24 6 -36c7.33301 -23.333 21.833 -43.166 43.5 -59.499s44.5 -24.5 68.5 -24.5c7.33301 0 13 0.333008 17 1z" />
    <glyph glyph-name="uni066E.init" unicode="&#x66e;" horiz-adv-x="277" 
d="M74 10c39.333 0 72.834 9.16797 100.501 27.501s41.5 48.166 41.5 89.499c0 18.667 -2.66699 37.667 -8 57l-40 149l10 2l40 -149c6 -22 9 -41.667 9 -59c0 -44.667 -15.333 -77 -46 -97s-66.334 -30 -107.001 -30h-79v10h79z" />
    <glyph glyph-name="uni066E.medi" unicode="&#x66e;" horiz-adv-x="309" 
d="M225.5 38c19.667 -18.667 49.168 -27.999 88.501 -27.999v-10c-67.333 0 -109 28 -125 84c-6.66699 -26.667 -21.167 -47.334 -43.5 -62.001s-51.5 -22 -87.5 -22h-63v10h63c42 0 73.667 10 95 30s30.666 48.333 27.999 85v3l-11 123h10l11 -123
c3.33301 -41.333 14.833 -71.333 34.5 -90z" />
    <glyph glyph-name="uni066E.fina" unicode="&#x66e;" horiz-adv-x="918" 
d="M834.5 38c19.667 -18.667 49.168 -27.999 88.501 -27.999v-10c-67.333 0 -109 28 -125 84c-6.66699 -26.667 -21.167 -47.334 -43.5 -62.001s-51.5 -22 -87.5 -22h-241v10h241c42 0 73.667 10 95 30s30.666 48.333 27.999 85v3l-11 123h10l11 -123
c3.33301 -41.333 14.833 -71.333 34.5 -90zM246.001 2.50098c-40 1.66699 -67.167 4 -81.5 7s-28.166 7.5 -41.499 13.5c-48.667 20.667 -73 58 -73 112c0 18.667 3 39 9 61l35 136l10 -2l-35 -136c-5.33301 -19.333 -8 -39 -8 -59c0 -48.667 22 -82.667 66 -102
c14 -6 27.833 -10.5 41.5 -13.5s40.167 -5.33301 79.5 -7s98.666 -2.5 177.999 -2.5v-10c-80 0 -140 0.833008 -180 2.5z" />
    <glyph glyph-name="uni066F.fina" unicode="&#x66f;" horiz-adv-x="611" 
d="M260 -246c-66 0 -117.5 21 -154.5 63s-55.5 99.667 -55.5 173c0 56 12 119 36 189l10 -4c-24 -68.667 -36 -131 -36 -187c0 -69.333 17.5 -123.833 52.5 -163.5s84.167 -59.5 147.5 -59.5c24 0 50 3 78 9c51.333 12 91.5 24 120.5 36s50.833 28 65.5 48s22 46.667 22 80
c0 6 -0.666992 15.667 -2 29l-4 33h-160c-42 0 -75 12 -99 36s-36 57.667 -36 101c0 26 5.5 51.333 16.5 76s27.333 44.834 49 60.501s47.167 23.5 76.5 23.5c40 0 73.5 -15.5 100.5 -46.5s43.5 -72.833 49.5 -125.5l12 -115h67v-10h-65l3 -32c1.33301 -14.667 2 -25 2 -31
c0 -35.333 -7.83301 -63.833 -23.5 -85.5s-38.5 -38.834 -68.5 -51.501s-71.333 -24.667 -124 -36c-27.333 -6.66699 -54 -10 -80 -10zM527 123c-5.33301 50.667 -20.668 90.667 -46.001 120s-56.666 44 -93.999 44c-27.333 0 -51 -7.16699 -71 -21.5s-35.167 -33 -45.5 -56
s-15.5 -46.833 -15.5 -71.5c0 -40.667 11 -72.167 33 -94.5s52.667 -33.5 92 -33.5h159z" />
    <glyph glyph-name="uni06A1.init" unicode="&#x6a1;" horiz-adv-x="427" 
d="M377 89c0 -24 -4.33105 -42.168 -12.998 -54.501s-24.5 -21.166 -47.5 -26.499s-56.833 -8 -101.5 -8h-220v10h221c41.333 0 72.666 2.33301 93.999 7s36 12.5 44 23.5s12 27.167 12 48.5c0 13.333 -1 29 -3 47c-44.667 -14 -97.334 -21 -158.001 -21
c-40 0 -72.5 12.667 -97.5 38s-37.5 58.333 -37.5 99c0 26 5.5 51.333 16.5 76s27.333 44.834 49 60.501s47.167 23.5 76.5 23.5c40 0 73.5 -15.5 100.5 -46.5s43.5 -72.833 49.5 -125.5l10 -89c3.33301 -26.667 5 -47.334 5 -62.001zM362.002 146.999v2l-10 89
c-6 50.667 -21.5 90.667 -46.5 120s-56.167 44 -93.5 44c-28 0 -51.833 -7.33301 -71.5 -22s-34.5 -33.5 -44.5 -56.5s-15 -47.167 -15 -72.5c0 -38 11.333 -68.5 34 -91.5s52.667 -34.5 90 -34.5c56 0 108.333 7.33301 157 22z" />
    <glyph glyph-name="uni06A1.medi" unicode="&#x6a1;" horiz-adv-x="490" 
d="M495 10l0.00390625 -9.99902h-58c-62.667 0 -125.334 13.667 -188.001 41c-33.333 -12.667 -67.666 -22.667 -102.999 -30s-68.333 -11 -99 -11h-52v10h52c28 0 58.5 3.33301 91.5 10s65.167 15.667 96.5 27c-37.333 16.667 -67.833 35.167 -91.5 55.5
s-34.834 37.5 -33.501 51.5l5 56c4.66699 36 20.167 65.333 46.5 88s57.166 34 92.499 34c29.333 0 54.666 -7.83301 75.999 -23.5s37 -35.334 47 -59.001s14 -47.5 12 -71.5l-3 -40c-2 -14.667 -14.333 -30.167 -37 -46.5s-51.667 -31.5 -87 -45.5
c59.333 -24 117.666 -36 174.999 -36h58zM155.004 106.001c24.667 -20 55.665 -37.999 92.998 -53.999c36.667 13.333 66.834 27.833 90.501 43.5s36.167 30.167 37.5 43.5l3 39c2 22.667 -1.66699 45.167 -11 67.5s-23.833 40.666 -43.5 54.999s-43.5 21.5 -71.5 21.5
c-32 0 -60.167 -10.667 -84.5 -32s-38.833 -48.333 -43.5 -81l-5 -55c-1.33301 -12 10.334 -28 35.001 -48z" />
    <glyph glyph-name="uni06A1.fina" unicode="&#x6a1;" horiz-adv-x="916" 
d="M921 10l0.00390625 -9.99902h-58c-62.667 0 -125.334 13.667 -188.001 41c-33.333 -12.667 -67.666 -22.667 -102.999 -30s-68.333 -11 -99 -11h-52c-78.667 0 -137.5 0.833008 -176.5 2.5s-65.667 4 -80 7s-28.166 7.5 -41.499 13.5c-48.667 20.667 -73 58 -73 112
c0 18.667 3 39 9 61l35 136l10 -2l-35 -136c-5.33301 -19.333 -8 -39 -8 -59c0 -48.667 22 -82.667 66 -102c14 -6 27.833 -10.5 41.5 -13.5s40.167 -5.33301 79.5 -7s98.666 -2.5 177.999 -2.5h47c28 0 58.5 3.33301 91.5 10s65.167 15.667 96.5 27
c-37.333 16.667 -67.833 35.167 -91.5 55.5s-34.834 37.5 -33.501 51.5l5 56c4.66699 36 20.167 65.333 46.5 88s57.166 34 92.499 34c29.333 0 54.666 -7.83301 75.999 -23.5s37 -35.334 47 -59.001s14 -47.5 12 -71.5l-3 -40c-2 -14.667 -14.333 -30.167 -37 -46.5
s-51.667 -31.5 -87 -45.5c59.333 -24 117.666 -36 174.999 -36h58zM581.004 106.001c24.667 -20 55.665 -37.999 92.998 -53.999c36.667 13.333 66.834 27.833 90.501 43.5s36.167 30.167 37.5 43.5l3 39c2 22.667 -1.66699 45.167 -11 67.5s-23.833 40.666 -43.5 54.999
s-43.5 21.5 -71.5 21.5c-32 0 -60.167 -10.667 -84.5 -32s-38.833 -48.333 -43.5 -81l-5 -55c-1.33301 -12 10.334 -28 35.001 -48z" />
    <glyph glyph-name="uniFB51" unicode="&#x671;" horiz-adv-x="272" arabic-form="final" 
d="M181.5 14.5c-19.667 9.66699 -33.667 25.832 -42 48.499s-13.5 55.334 -15.5 98.001l-14 356h10l14 -356c2 -41.333 6.83301 -72.5 14.5 -93.5s20.5 -35.833 38.5 -44.5s44.667 -13 80 -13h10v-10h-10c-37.333 -0 -65.833 4.83301 -85.5 14.5zM265 696.998
c14 -14.667 21.001 -33 21.001 -55c0 -18.667 -7.33301 -35 -22 -49s-31.667 -21 -51 -21h-141c-12.667 0 -22.834 -2.5 -30.501 -7.5s-17.167 -15.167 -28.5 -30.5l-8 6c11.333 15.333 21.333 26 30 32s20 9.33301 34 10l38 52c21.333 29.333 39.5 50.833 54.5 64.5
s32.167 20.5 51.5 20.5c20.667 0 38 -7.33301 52 -22zM257.001 600.498c12.667 12.333 18.999 26.167 18.999 41.5c0 19.333 -6 35.333 -18 48s-27 19 -45 19c-17.333 0 -32.5 -6.16699 -45.5 -18.5s-30.167 -32.833 -51.5 -61.5l-34 -47h131
c16.667 0 31.334 6.16699 44.001 18.5z" />
    <glyph glyph-name="uniFB57" unicode="&#x67e;" horiz-adv-x="918" arabic-form="final" 
d="M834.5 38c19.667 -18.667 49.168 -27.999 88.501 -27.999v-10c-67.333 0 -109 28 -125 84c-6.66699 -26.667 -21.167 -47.334 -43.5 -62.001s-51.5 -22 -87.5 -22h-241v10h241c42 0 73.667 10 95 30s30.666 48.333 27.999 85v3l-11 123h10l11 -123
c3.33301 -41.333 14.833 -71.333 34.5 -90zM246.001 2.50098c-40 1.66699 -67.167 4 -81.5 7s-28.166 7.5 -41.499 13.5c-48.667 20.667 -73 58 -73 112c0 18.667 3 39 9 61l35 136l10 -2l-35 -136c-5.33301 -19.333 -8 -39 -8 -59c0 -48.667 22 -82.667 66 -102
c14 -6 27.833 -10.5 41.5 -13.5s40.167 -5.33301 79.5 -7s98.666 -2.5 177.999 -2.5v-10c-80 0 -140 0.833008 -180 2.5zM419.001 -236.499c-4 4.33301 -6.66699 6.83301 -8 7.5l8 8l14 14l14 -14l8 -8c-1.33301 -0.666992 -4 -3.16699 -8 -7.5l-14 -14.5zM342.001 -137.999
l22 22l22 -22l-22 -22zM482.001 -137.999l22 22l22 -22l-22 -22z" />
    <glyph glyph-name="uniFB58" unicode="&#x67e;" horiz-adv-x="334" arabic-form="initial" 
d="M132 10c38.667 0 72 9 100 27s42 47.667 42 89c0 16.667 -3 36 -9 58l-39 149l10 2l39 -149c6 -22 9 -42 9 -60c0 -44 -15.333 -76 -46 -96s-66 -30 -106 -30h-137v10h137zM81 -232.5c-4 4.33301 -6.66699 6.83301 -8 7.5l8 8l14 14l14 -14l8 -8
c-1.33301 -0.666992 -4 -3.16699 -8 -7.5l-14 -14.5zM4 -134l22 22l22 -22l-22 -22zM144 -134l22 22l22 -22l-22 -22z" />
    <glyph glyph-name="uniFB59" unicode="&#x67e;" horiz-adv-x="368" arabic-form="medial" 
d="M284.5 38c19.667 -18.667 49.168 -27.999 88.501 -27.999v-10c-67.333 0 -109 28 -125 84c-6.66699 -26.667 -21.167 -47.334 -43.5 -62.001s-51.5 -22 -87.5 -22h-122v10h122c42 0 73.667 10 95 30s30.666 48.333 27.999 85v3l-11 123h10l11 -123
c3.33301 -41.333 14.833 -71.333 34.5 -90zM111.001 -232.499c-4 4.33301 -6.66699 6.83301 -8 7.5l8 8l14 14l14 -14l8 -8c-1.33301 -0.666992 -4 -3.16699 -8 -7.5l-14 -14.5zM34.001 -133.999l22 22l22 -22l-22 -22zM174.001 -133.999l22 22l22 -22l-22 -22z" />
    <glyph glyph-name="uniFB6B" unicode="&#x6a4;" horiz-adv-x="916" arabic-form="final" 
d="M921 10l0.00390625 -9.99902h-58c-62.667 0 -125.334 13.667 -188.001 41c-33.333 -12.667 -67.666 -22.667 -102.999 -30s-68.333 -11 -99 -11h-52c-78.667 0 -137.5 0.833008 -176.5 2.5s-65.667 4 -80 7s-28.166 7.5 -41.499 13.5c-48.667 20.667 -73 58 -73 112
c0 18.667 3 39 9 61l35 136l10 -2l-35 -136c-5.33301 -19.333 -8 -39 -8 -59c0 -48.667 22 -82.667 66 -102c14 -6 27.833 -10.5 41.5 -13.5s40.167 -5.33301 79.5 -7s98.666 -2.5 177.999 -2.5h47c28 0 58.5 3.33301 91.5 10s65.167 15.667 96.5 27
c-37.333 16.667 -67.833 35.167 -91.5 55.5s-34.834 37.5 -33.501 51.5l5 56c4.66699 36 20.167 65.333 46.5 88s57.166 34 92.499 34c29.333 0 54.666 -7.83301 75.999 -23.5s37 -35.334 47 -59.001s14 -47.5 12 -71.5l-3 -40c-2 -14.667 -14.333 -30.167 -37 -46.5
s-51.667 -31.5 -87 -45.5c59.333 -24 117.666 -36 174.999 -36h58zM581.004 106.001c24.667 -20 55.665 -37.999 92.998 -53.999c36.667 13.333 66.834 27.833 90.501 43.5s36.167 30.167 37.5 43.5l3 39c2 22.667 -1.66699 45.167 -11 67.5s-23.833 40.666 -43.5 54.999
s-43.5 21.5 -71.5 21.5c-32 0 -60.167 -10.667 -84.5 -32s-38.833 -48.333 -43.5 -81l-5 -55c-1.33301 -12 10.334 -28 35.001 -48zM661.002 515.502c-4 4.33301 -6.66699 6.83301 -8 7.5l8 8l14 14l14 -14l8 -8c-1.33301 -0.666992 -4 -3.16699 -8 -7.5l-14 -14.5z
M584.002 432.002l22 22l22 -22l-22 -22zM724.002 432.002l22 22l22 -22l-22 -22z" />
    <glyph glyph-name="uniFB6C" unicode="&#x6a4;" horiz-adv-x="427" arabic-form="initial" 
d="M191 571.5c-4 4.33301 -6.66699 6.83301 -8 7.5l8 8l14 14l14 -14l8 -8c-1.33301 -0.666992 -4 -3.16699 -8 -7.5l-14 -14.5zM136 466l-22 22l22 22l22 -22zM276 466l-22 22l22 22l22 -22zM377 89c0 -24 -4.33105 -42.168 -12.998 -54.501s-24.5 -21.166 -47.5 -26.499
s-56.833 -8 -101.5 -8h-220v10h221c41.333 0 72.666 2.33301 93.999 7s36 12.5 44 23.5s12 27.167 12 48.5c0 13.333 -1 29 -3 47c-44.667 -14 -97.334 -21 -158.001 -21c-40 0 -72.5 12.667 -97.5 38s-37.5 58.333 -37.5 99c0 26 5.5 51.333 16.5 76
s27.333 44.834 49 60.501s47.167 23.5 76.5 23.5c40 0 73.5 -15.5 100.5 -46.5s43.5 -72.833 49.5 -125.5l10 -89c3.33301 -26.667 5 -47.334 5 -62.001zM362.002 146.999v2l-10 89c-6 50.667 -21.5 90.667 -46.5 120s-56.167 44 -93.5 44c-28 0 -51.833 -7.33301 -71.5 -22
s-34.5 -33.5 -44.5 -56.5s-15 -47.167 -15 -72.5c0 -38 11.333 -68.5 34 -91.5s52.667 -34.5 90 -34.5c56 0 108.333 7.33301 157 22z" />
    <glyph glyph-name="uniFB6D" unicode="&#x6a4;" horiz-adv-x="490" arabic-form="medial" 
d="M235 504.5c-4 4.33301 -6.66699 6.83301 -8 7.5l8 8l14 14l14 -14l8 -8c-1.33301 -0.666992 -4 -3.16699 -8 -7.5l-14 -14.5zM180 399l-22 22l22 22l22 -22zM320 399l-22 22l22 22l22 -22zM495 10l0.00390625 -9.99902h-58c-62.667 0 -125.334 13.667 -188.001 41
c-33.333 -12.667 -67.666 -22.667 -102.999 -30s-68.333 -11 -99 -11h-52v10h52c28 0 58.5 3.33301 91.5 10s65.167 15.667 96.5 27c-37.333 16.667 -67.833 35.167 -91.5 55.5s-34.834 37.5 -33.501 51.5l5 56c4.66699 36 20.167 65.333 46.5 88s57.166 34 92.499 34
c29.333 0 54.666 -7.83301 75.999 -23.5s37 -35.334 47 -59.001s14 -47.5 12 -71.5l-3 -40c-2 -14.667 -14.333 -30.167 -37 -46.5s-51.667 -31.5 -87 -45.5c59.333 -24 117.666 -36 174.999 -36h58zM155.004 106.001c24.667 -20 55.665 -37.999 92.998 -53.999
c36.667 13.333 66.834 27.833 90.501 43.5s36.167 30.167 37.5 43.5l3 39c2 22.667 -1.66699 45.167 -11 67.5s-23.833 40.666 -43.5 54.999s-43.5 21.5 -71.5 21.5c-32 0 -60.167 -10.667 -84.5 -32s-38.833 -48.333 -43.5 -81l-5 -55c-1.33301 -12 10.334 -28 35.001 -48z
" />
    <glyph glyph-name="uniFB7B" unicode="&#x686;" horiz-adv-x="718" arabic-form="final" 
d="M723 10l-0.000976562 -10h-37c-30 0 -57.5 7.16699 -82.5 21.5s-45.167 33.833 -60.5 58.5s-23.666 51.667 -24.999 81l-258 -71c-74.667 -20 -126.667 -50 -156 -90s-44 -83 -44 -129c0 -21.333 2.33301 -40.666 7 -57.999c12.667 -48 38.5 -86.333 77.5 -115
s83.833 -43 134.5 -43c20 0 41.333 2.66699 64 8l256 71l2 -10l-256 -71c-19.333 -5.33301 -41 -8 -65 -8c-53.333 0 -100.5 15 -141.5 45s-68.167 70.333 -81.5 121c-4.66699 17.333 -7 36.666 -7 57.999c0 48 15.333 93.333 46 136s84.667 74.334 162 95.001l350 96
l-290 162c-24.667 14 -50.334 21 -77.001 21s-51.667 -7.16699 -75 -21.5s-43 -34.833 -59 -61.5l-18 -32l-8 4l18 33c16 28 36.333 49.5 61 64.5s51.334 22.5 80.001 22.5c28 0 55.333 -7.33301 82 -22l298 -165l-3 -13l-89 -24c0.666992 -28 8.16699 -53.833 22.5 -77.5
s33.5 -42.334 57.5 -56.001s50 -20.5 78 -20.5h37zM382.999 -69c-6.66699 4 -12.5 7.33203 -17.5 9.99902s-8.5 4.33398 -10.5 5.00098l15 28l17.5 -9c5 -2.66699 8.16699 -4.66699 9.5 -6zM253.499 -76.001c5 -2.66699 8.16699 -4.66797 9.5 -6.00098l-14 -27l-17.5 9
c-5 2.66699 -8.5 4.33398 -10.5 5.00098l15 28zM314.999 -160.002c-0.666992 1.33301 4 10.333 14 27l28 -15c-0.666992 0.666992 -5.66699 -8.33301 -15 -27zM314.999 -160.002z" />
    <glyph glyph-name="uniFB7C" unicode="&#x686;" horiz-adv-x="612" arabic-form="initial" 
d="M562 129l-2.99805 -13.001l-297 -88c-44.667 -12.667 -84.834 -20.5 -120.501 -23.5s-82.834 -4.5 -141.501 -4.5h-5v10h5c58 0 104.667 1.5 140 4.5s75.333 10.833 120 23.5l289 85l-249 163c-24.667 16 -50.334 24 -77.001 24c-26 0 -50.833 -7.66699 -74.5 -23
s-43.5 -36.333 -59.5 -63l-18 -32l-8 4l18 33c16.667 28.667 37.334 50.834 62.001 66.501s51 23.5 79 23.5s55.333 -8.33301 82 -25zM274.002 -230.501c-4 4.33301 -6.66699 6.83301 -8 7.5l8 8l14 14l14 -14l8 -8c-1.33301 -0.666992 -4 -3.16699 -8 -7.5l-14 -14.5z
M197.002 -132.001l22 22l22 -22l-22 -22zM337.002 -132.001l22 22l22 -22l-22 -22z" />
    <glyph glyph-name="uniFB7D" unicode="&#x686;" horiz-adv-x="662" arabic-form="medial" 
d="M667 10l0.00292969 -10h-65c-32.667 0 -60.834 11 -84.501 33s-37.167 49 -40.5 81l-214 -71c-48.667 -16 -93.334 -27.167 -134.001 -33.5s-83.667 -9.5 -129 -9.5h-5v10h5c45.333 0 88 3.16699 128 9.5s84.333 17.5 133 33.5l293 97l-253 148
c-26.667 15.333 -53 23 -79 23s-50.5 -7.33301 -73.5 -22s-42.5 -35.667 -58.5 -63l-18 -32l-8 4l18 33c16.667 28.667 37.167 50.667 61.5 66s50.166 23 77.499 23c28 0 56 -8 84 -24l259 -150l-2 -14l-75 -25c2.66699 -30 15 -55.333 37 -76s48 -31 78 -31h65z
M294.003 -226.5c-4 4.33301 -6.66699 6.83301 -8 7.5l8 8l14 14l14 -14l8 -8c-1.33301 -0.666992 -4 -3.16699 -8 -7.5l-14 -14.5zM217.003 -128l22 22l22 -22l-22 -22zM357.003 -128l22 22l22 -22l-22 -22z" />
    <glyph glyph-name="uniFB8B" unicode="&#x698;" horiz-adv-x="387" arabic-form="final" 
d="M186 471.5c-4 4.33301 -6.66699 6.83301 -8 7.5l8 8l14 14l14 -14l8 -8c-1.33301 -0.666992 -4 -3.16699 -8 -7.5l-14 -14.5zM131 366l-22 22l22 22l22 -22zM271 366l-22 22l22 22l22 -22zM392 0l-73.002 0.00195312c-25.333 0 -44.833 3.5 -58.5 10.5
s-24.5 18.833 -32.5 35.5l11 -81c1.33301 -8 2 -19 2 -33c0 -39.333 -10.167 -70.833 -30.5 -94.5s-44.5 -41.334 -72.5 -53.001s-64.333 -23.5 -109 -35.5l-27 -7l-2 10l29 8c44 11.333 79.167 22.333 105.5 33s49 27.167 68 49.5s28.5 52.166 28.5 89.499
c0 14 -0.666992 24.667 -2 32l-39 288l10 2l16 -119c5.33301 -34.667 11.333 -60.667 18 -78s16.334 -29.5 29.001 -36.5s31.334 -10.5 56.001 -10.5h73v-10z" />
    <glyph glyph-name="uniFB8F" unicode="&#x6a9;" horiz-adv-x="918" arabic-form="final" 
d="M923 10l0.000976562 -9.99707h-14c-32 0 -62.333 10 -91 30s-61 54.667 -97 104c1.33301 -4.66699 2 -12 2 -22c0 -18.667 -4.33301 -36.334 -13 -53.001s-21 -30.334 -37 -41.001c-18 -12 -38.333 -18 -61 -18h-191c-78.667 0 -137.5 0.833008 -176.5 2.5
s-65.667 4 -80 7s-28.166 7.5 -41.499 13.5c-48.667 20.667 -73 58 -73 112c0 18.667 3 39 9 61l35 136l10 -2l-35 -136c-5.33301 -19.333 -8 -39 -8 -59c0 -48.667 22 -82.667 66 -102c14 -6 27.833 -10.5 41.5 -13.5s40.167 -5.33301 79.5 -7s98.666 -2.5 177.999 -2.5
h186c21.333 0 39.666 5.33301 54.999 16c14.667 10 26 22.667 34 38s12 31.333 12 48c0 19.333 -5 37.333 -15 54l-225 318l2 8l361 133l4 -10l-355 -131l221 -312c42 -60.667 78 -102.834 108 -126.501s61.667 -35.5 95 -35.5h14z" />
    <glyph glyph-name="uniFB90" unicode="&#x6a9;" horiz-adv-x="439" arabic-form="initial" 
d="M280 172c12 -19.333 18.001 -39.666 18.001 -60.999c0 -18.667 -4.5 -36.334 -13.5 -53.001s-21.5 -30 -37.5 -40c-18 -12 -38.333 -18 -61 -18h-191v10h191c21.333 0 39.666 5.33301 54.999 16c14.667 10 26 22.667 34 38s12 31.333 12 48c0 19.333 -5 37.333 -15 54
l-225 318l2 8l361 133l4 -10l-355 -131z" />
    <glyph glyph-name="uniFB91" unicode="&#x6a9;" horiz-adv-x="492" arabic-form="medial" 
d="M497 10l0.000976562 -9.99707h-14c-32 0 -62.333 10 -91 30s-61 54.667 -97 104c1.33301 -4.66699 2 -12 2 -22c0 -18.667 -4.33301 -36.334 -13 -53.001s-21 -30.334 -37 -41.001c-18 -12 -38.333 -18 -61 -18h-191v10h191c21.333 0 39.666 5.33301 54.999 16
c14.667 10 26 22.667 34 38s12 31.333 12 48c0 19.333 -5 37.333 -15 54l-225 318l2 8l361 133l4 -10l-355 -131l221 -312c42 -60.667 78 -102.834 108 -126.501s61.667 -35.5 95 -35.5h14z" />
    <glyph glyph-name="uniFB93" unicode="&#x6af;" horiz-adv-x="918" arabic-form="final" 
d="M923 10l0.000976562 -9.99707h-14c-32 0 -62.333 10 -91 30s-61 54.667 -97 104c1.33301 -4.66699 2 -12 2 -22c0 -18.667 -4.33301 -36.334 -13 -53.001s-21 -30.334 -37 -41.001c-18 -12 -38.333 -18 -61 -18h-191c-78.667 0 -137.5 0.833008 -176.5 2.5
s-65.667 4 -80 7s-28.166 7.5 -41.499 13.5c-48.667 20.667 -73 58 -73 112c0 18.667 3 39 9 61l35 136l10 -2l-35 -136c-5.33301 -19.333 -8 -39 -8 -59c0 -48.667 22 -82.667 66 -102c14 -6 27.833 -10.5 41.5 -13.5s40.167 -5.33301 79.5 -7s98.666 -2.5 177.999 -2.5
h186c21.333 0 39.666 5.33301 54.999 16c14.667 10 26 22.667 34 38s12 31.333 12 48c0 19.333 -5 37.333 -15 54l-225 318l2 8l361 133l4 -10l-355 -131l221 -312c42 -60.667 78 -102.834 108 -126.501s61.667 -35.5 95 -35.5h14zM751.001 687.003l4 -10l-243 -88l-4 10z
" />
    <glyph glyph-name="uniFB94" unicode="&#x6af;" horiz-adv-x="439" arabic-form="initial" 
d="M280 172c12 -19.333 18.001 -39.666 18.001 -60.999c0 -18.667 -4.5 -36.334 -13.5 -53.001s-21.5 -30 -37.5 -40c-18 -12 -38.333 -18 -61 -18h-191v10h191c21.333 0 39.666 5.33301 54.999 16c14.667 10 26 22.667 34 38s12 31.333 12 48c0 19.333 -5 37.333 -15 54
l-225 318l2 8l361 133l4 -10l-355 -131zM328.001 687l4 -10l-243 -88l-4 10z" />
    <glyph glyph-name="uniFB95" unicode="&#x6af;" horiz-adv-x="492" arabic-form="medial" 
d="M497 10l0.000976562 -9.99707h-14c-32 0 -62.333 10 -91 30s-61 54.667 -97 104c1.33301 -4.66699 2 -12 2 -22c0 -18.667 -4.33301 -36.334 -13 -53.001s-21 -30.334 -37 -41.001c-18 -12 -38.333 -18 -61 -18h-191v10h191c21.333 0 39.666 5.33301 54.999 16
c14.667 10 26 22.667 34 38s12 31.333 12 48c0 19.333 -5 37.333 -15 54l-225 318l2 8l361 133l4 -10l-355 -131l221 -312c42 -60.667 78 -102.834 108 -126.501s61.667 -35.5 95 -35.5h14zM328.001 687.003l4 -10l-243 -88l-4 10z" />
    <glyph glyph-name="uniFB9F" unicode="&#x6ba;" horiz-adv-x="669" arabic-form="final" 
d="M674 10v-10h-32c-26 0 -47.167 6.5 -63.5 19.5s-29.5 33.167 -39.5 60.5c4 -24 8.66699 -57 14 -99c2 -14 3 -27 3 -39c0 -42 -10.667 -74.667 -32 -98s-45 -39.5 -71 -48.5s-63.667 -19.5 -113 -31.5c-27.333 -6.66699 -54 -10 -80 -10c-66 0 -117.5 21 -154.5 63
s-55.5 99.667 -55.5 173c0 56 12 119 36 189l10 -4c-24 -68.667 -36 -131 -36 -187c0 -69.333 17.5 -123.833 52.5 -163.5s84.167 -59.5 147.5 -59.5c24 0 50 3 78 9c49.333 12 86.333 22.167 111 30.5s47 23.5 67 45.5s30 53 30 93c0 10.667 -1 22.667 -3 36l-32 224l-7 49
l10 2l7 -49c8 -48 16.333 -85.5 25 -112.5s20.667 -47.5 36 -61.5s36 -21 62 -21h30z" />
    <glyph glyph-name="uniFBA4" unicode="&#x6c0;" horiz-adv-x="376" arabic-form="isolated" 
d="M309.5 213.5c11.667 -23 17.4971 -48.167 17.4971 -75.5c0 -24.667 -6.16699 -47.667 -18.5 -69s-29.166 -38.166 -50.499 -50.499s-44.333 -18.5 -69 -18.5c-25.333 0 -48.666 6.16699 -69.999 18.5s-38.166 29.166 -50.499 50.499s-18.5 44.333 -18.5 69
c0 22.667 6 45.667 18 69s28.667 45.333 50 66l71 68l-44 45l8 6l95 -99c29.333 -30 49.833 -56.5 61.5 -79.5zM279.497 47.5c25 25 37.499 55.168 37.499 90.501c0 24.667 -5.16699 47.834 -15.5 69.501s-30.833 48.167 -61.5 79.5l-45 46l-71 -68
c-20 -20 -35.667 -40.833 -47 -62.5s-17 -43.167 -17 -64.5c0 -22.667 5.83301 -43.834 17.5 -63.501s27.334 -35.334 47.001 -47.001s41.167 -17.5 64.5 -17.5c35.333 0 65.5 12.5 90.5 37.5zM116.996 462.001c37.333 3.33301 64.166 6.16602 80.499 8.49902
s29.333 6.16602 39 11.499s14.5 13.333 14.5 24c0 9.33301 -2.66699 16.5 -8 21.5s-14.5 9.16699 -27.5 12.5s-28.167 7 -45.5 11c-28 6.66699 -47.333 12.834 -58 18.501s-16 14.5 -16 26.5c0 7.33301 3.33301 19.333 10 36c9.33301 22.667 21.833 39.667 37.5 51
s33.5 17 53.5 17c12 0 24.333 -2 37 -6l36 -11l-2 -10l-37 11c-10 3.33301 -21 5 -33 5c-35.333 0 -62.666 -20.333 -81.999 -61c-6.66699 -14.667 -10 -25 -10 -31c0 -8.66699 4.66699 -15.334 14 -20.001s26.666 -10 51.999 -16
c5.33301 -1.33301 17.833 -4.16602 37.5 -8.49902s33.167 -10.166 40.5 -17.499s11 -17 11 -29c0 -13.333 -5.5 -23.333 -16.5 -30s-25.667 -11.5 -44 -14.5s-47.166 -6.16699 -86.499 -9.5l-35 -3v10z" />
    <glyph glyph-name="uniFBA5" unicode="&#x6c0;" horiz-adv-x="485" arabic-form="final" 
d="M490 10l0.00390625 -10.002h-19c-32.667 0 -62.334 8.66699 -89.001 26s-46.334 40.333 -59.001 69l-128 -21c-4 -0.666992 -9.66699 -1 -17 -1c-26.667 0 -51.834 8.83301 -75.501 26.5s-39.167 38.834 -46.5 63.501c-4 13.333 -6 26.333 -6 39
c0 28 8.16699 53.5 24.5 76.5s37.833 38.833 64.5 47.5l170 57v58h10v-279c0 -27.333 6.83301 -52.666 20.5 -75.999s32.167 -41.833 55.5 -55.5s48.666 -20.5 75.999 -20.5h19zM319.004 104.998c-6.66699 20 -10 39 -10 57v209l-166 -55
c-25.333 -8.66699 -45.5 -23.334 -60.5 -44.001s-22.5 -43.667 -22.5 -69c0 -12 2 -24 6 -36c7.33301 -23.333 21.833 -43.166 43.5 -59.499s44.5 -24.5 68.5 -24.5c7.33301 0 13 0.333008 17 1zM172.004 486.998c37.333 3.33301 64.166 6.16602 80.499 8.49902
s29.333 6.16602 39 11.499s14.5 13.333 14.5 24c0 9.33301 -2.66699 16.5 -8 21.5s-14.5 9.16699 -27.5 12.5s-28.167 7 -45.5 11c-28 6.66699 -47.333 12.834 -58 18.501s-16 14.5 -16 26.5c0 7.33301 3.33301 19.333 10 36c9.33301 22.667 21.833 39.667 37.5 51
s33.5 17 53.5 17c12 0 24.333 -2 37 -6l36 -11l-2 -10l-37 11c-10 3.33301 -21 5 -33 5c-35.333 0 -62.666 -20.333 -81.999 -61c-6.66699 -14.667 -10 -25 -10 -31c0 -8.66699 4.66699 -15.334 14 -20.001s26.666 -10 51.999 -16
c5.33301 -1.33301 17.833 -4.16602 37.5 -8.49902s33.167 -10.166 40.5 -17.499s11 -17 11 -29c0 -13.333 -5.5 -23.333 -16.5 -30s-25.667 -11.5 -44 -14.5s-47.166 -6.16699 -86.499 -9.5l-35 -3v10z" />
    <glyph glyph-name="uniFBFD" unicode="&#x6cc;" horiz-adv-x="635" arabic-form="final" 
d="M640 0c-54 0 -119.668 10.3311 -197.001 30.998c58 -30 90.333 -61 97 -93c2 -11.333 3 -21.666 3 -30.999c0 -30.667 -9.83301 -55.167 -29.5 -73.5s-42 -31.666 -67 -39.999s-60.5 -18.166 -106.5 -29.499c-27.333 -6.66699 -54 -10 -80 -10c-66 0 -117.5 21 -154.5 63
s-55.5 99.667 -55.5 173c0 56 12 119 36 189l10 -4c-24 -68.667 -36 -131 -36 -187c0 -69.333 17.5 -123.833 52.5 -163.5s84.167 -59.5 147.5 -59.5c24 0 50 3 78 9c45.333 11.333 80 21 104 29s45.333 20.333 64 37s28 38.667 28 66c0 5.33301 -1.33301 15.333 -4 30
c-6 27.333 -28.667 51.666 -68 72.999s-79.333 39 -120 53l-14 4l4 10l39 -13c104.667 -35.333 194.334 -53 269.001 -53v-10z" />
    <glyph glyph-name="uniFBFE" unicode="&#x6cc;" horiz-adv-x="334" arabic-form="initial" 
d="M132 10c38.667 0 72 9 100 27s42 47.667 42 89c0 16.667 -3 36 -9 58l-39 149l10 2l39 -149c6 -22 9 -42 9 -60c0 -44 -15.333 -76 -46 -96s-66 -30 -106 -30h-137v10h137zM-1 -140l22 22l22 -22l-22 -22zM139 -140l22 22l22 -22l-22 -22z" />
    <glyph glyph-name="uniFBFF" unicode="&#x6cc;" horiz-adv-x="368" arabic-form="medial" 
d="M284.5 38c19.667 -18.667 49.168 -27.999 88.501 -27.999v-10c-67.333 0 -109 28 -125 84c-6.66699 -26.667 -21.167 -47.334 -43.5 -62.001s-51.5 -22 -87.5 -22h-122v10h122c42 0 73.667 10 95 30s30.666 48.333 27.999 85v3l-11 123h10l11 -123
c3.33301 -41.333 14.833 -71.333 34.5 -90zM42.001 -139.999l22 22l22 -22l-22 -22zM182.001 -139.999l22 22l22 -22l-22 -22z" />
    <glyph glyph-name="uniFDF2" unicode="&#xfdf2;" horiz-adv-x="1168" arabic-form="isolated" 
d="M621 827h-11v163h11v-163zM505 689c-12.667 10.667 -19.002 24 -19.002 40c0 7.33301 0.666992 13 2 17l10 40l10 -2l-10 -40c-1.33301 -3.33301 -2 -8.33301 -2 -15c0 -13.333 5.5 -24.333 16.5 -33s25.5 -13 43.5 -13c15.333 0 28.333 4.5 39 13.5s16 19.833 16 32.5
v52h10v-52c0 -12.667 5.33301 -23.5 16 -32.5s24 -13.5 40 -13.5c18 0 32.333 4.33301 43 13s16 19.667 16 33c0 6.66699 -0.666992 11.667 -2 15l-16 61l10 2l16 -61c1.33301 -4 2 -9.66699 2 -17c0 -16.667 -6.16699 -30.167 -18.5 -40.5s-29.166 -15.5 -50.499 -15.5
c-14 0 -26.333 3.16699 -37 9.5s-18.667 14.5 -24 24.5c-5.33301 -10 -13.166 -18.167 -23.499 -24.5s-22.5 -9.5 -36.5 -9.5c-21.333 0 -38.333 5.33301 -51 16zM923.998 129c1.33301 -30.667 -7.49609 -59.8359 -26.4961 -87.5029s-54.5 -41.5 -106.5 -41.5h-33
c-26.667 0 -51.834 7.33301 -75.501 22s-40.167 38 -49.5 70c-6 -26 -19 -47.833 -39 -65.5s-50.333 -26.5 -91 -26.5h-32c-32.667 0 -62.334 8.66699 -89.001 26s-46.334 40.333 -59.001 69l-128 -21c-4 -0.666992 -9.66699 -1 -17 -1
c-26.667 0 -51.834 8.83301 -75.501 26.5s-39.167 38.834 -46.5 63.501c-4 13.333 -6 26.333 -6 39c0 28 8.16699 53.5 24.5 76.5s37.833 38.833 64.5 47.5l170 57v58h10v-279c0 -27.333 6.83301 -52.666 20.5 -75.999s32.167 -41.833 55.5 -55.5s48.666 -20.5 75.999 -20.5
h32c48.667 0 81.667 12.333 99 37s25.333 52 24 82l-19 492l10 1l19 -493v-8c4.66699 -39.333 18.834 -67.666 42.501 -84.999s50.167 -26 79.5 -26h33c48.667 0 81.667 12.333 99 37s25.333 52 24 82l-19 492l10 1zM1098 -0.00195312l-10 -1l-24 622l10 1zM319.002 104.998
c-6.66699 20 -10 39 -10 57v209l-166 -55c-25.333 -8.66699 -45.5 -23.334 -60.5 -44.001s-22.5 -43.667 -22.5 -69c0 -12 2 -24 6 -36c7.33301 -23.333 21.833 -43.166 43.5 -59.499s44.5 -24.5 68.5 -24.5c7.33301 0 13 0.333008 17 1z" />
    <glyph glyph-name="uniFDFC" unicode="&#xfdfc;" horiz-adv-x="1256" arabic-form="isolated" 
d="M554 -21c2 -51.333 -6.5 -91.333 -25.5 -120s-41.667 -48.834 -68 -60.501s-59.5 -22.167 -99.5 -31.5c-6 -0.666992 -13.333 -2.33398 -22 -5.00098c-30.667 -7.33301 -58 -11 -82 -11c-64.667 0 -115.334 21.333 -152.001 64s-55 100.334 -55 173.001
c0 57.333 12 120.333 36 189l10 -4c-24 -68.667 -36 -131 -36 -187c0 -69.333 17.333 -124.166 52 -164.499s83 -60.5 145 -60.5c22.667 0 49.334 3.66699 80.001 11l23 6c38.667 8.66699 70.667 18.5 96 29.5s46.833 30.167 64.5 57.5s25.5 65.333 23.5 114l-25 642l10 1z
M1056 52c0 -44.667 -15.332 -77.001 -45.999 -97.001s-66.334 -30 -107.001 -30h-79c-35.333 0.666992 -62.5 5.83398 -81.5 15.501s-32.5 25.834 -40.5 48.501s-13 55 -15 97l-18 460h10l18 -460c2 -41.333 6.83301 -72.5 14.5 -93.5s20.5 -35.833 38.5 -44.5
s44.667 -13 80 -13h73c39.333 0 72.833 9.16699 100.5 27.5s41.5 48.166 41.5 89.499c0 18.667 -2.66699 37.667 -8 57l-40 149l10 2l40 -149c6 -22 9 -41.667 9 -59zM1206 -68.001c0 -39.333 -10.167 -70.8311 -30.5 -94.498s-44.5 -41.334 -72.5 -53.001
s-64.333 -23.5 -109 -35.5l-27 -7l-2 10l29 8c44 11.333 79.167 22.333 105.5 33s49 27.167 68 49.5s28.5 52.166 28.5 89.499c0 14 -0.666992 24.667 -2 32l-39 288l10 2l39 -289c1.33301 -8 2 -19 2 -33zM720.001 -208.999l22 -22l-22 -22l-22 22zM860.001 -208.999
l22 -22l-22 -22l-22 22z" />
    <glyph glyph-name="uniFE82" unicode="&#x622;" horiz-adv-x="272" arabic-form="final" 
d="M181.5 14.5c-19.667 9.66699 -33.667 25.832 -42 48.499s-13.5 55.334 -15.5 98.001l-14 356h10l14 -356c2 -41.333 6.83301 -72.5 14.5 -93.5s20.5 -35.833 38.5 -44.5s44.667 -13 80 -13h10v-10h-10c-37.333 -0 -65.833 4.83301 -85.5 14.5zM17.5 592.498
c11.667 11.667 27.167 17.5 46.5 17.5c4.66699 0 11 -0.666992 19 -2l101 -19c8 -1.33301 13.667 -2 17 -2c16 0 29 5 39 15s15 23.333 15 40v9h10v-9c0 -20 -5.83301 -35.833 -17.5 -47.5s-27.167 -17.5 -46.5 -17.5c-4.66699 0 -11 0.666992 -19 2l-101 19
c-8 1.33301 -13.667 2 -17 2c-16 0 -29 -5 -39 -15s-15 -23.333 -15 -40v-9h-10v9c-0 20 5.83301 35.833 17.5 47.5z" />
    <glyph glyph-name="uniFE84" unicode="&#x623;" horiz-adv-x="272" arabic-form="final" 
d="M181.5 14.5c-19.667 9.66699 -33.667 25.832 -42 48.499s-13.5 55.334 -15.5 98.001l-14 356h10l14 -356c2 -41.333 6.83301 -72.5 14.5 -93.5s20.5 -35.833 38.5 -44.5s44.667 -13 80 -13h10v-10h-10c-37.333 -0 -65.833 4.83301 -85.5 14.5zM259 619.998l-246.001 -59
l-2 10l116 28c-17.333 4 -31.666 13.333 -42.999 28s-17 32 -17 52c0 22 7.5 41 22.5 57s34.5 24 58.5 24c18 0 40 -3 66 -9l-2 -10c-26 5.33301 -47.667 8 -65 8c-20.667 0 -37.5 -6.83301 -50.5 -20.5s-19.5 -30.167 -19.5 -49.5c0 -21.333 7 -38.833 21 -52.5
s30.667 -20.5 50 -20.5c3.33301 0 9 0.666992 17 2l92 22z" />
    <glyph glyph-name="uniFE86" unicode="&#x624;" horiz-adv-x="441" arabic-form="final" 
d="M446 0h-65.9971l4 -34c1.33301 -14.667 2 -25.334 2 -32.001c0 -42 -10.833 -74.333 -32.5 -97s-51.334 -39.834 -89.001 -51.501s-98.5 -26.167 -182.5 -43.5l-2 10c84 17.333 144.167 31.5 180.5 42.5s64.666 27 84.999 48s30.5 50.833 30.5 89.5
c0 6.66699 -0.666992 17.334 -2 32.001l-4 36h-160c-42 0 -75 12 -99 36s-36 57.667 -36 101c0 26 5.5 51.333 16.5 76s27.333 44.834 49 60.501s47.167 23.5 76.5 23.5c40 0 73.667 -15.5 101 -46.5s43.666 -72.833 48.999 -125.5l12 -115h67v-10zM369.003 10l-12.002 113
c-5.33301 50.667 -20.666 90.667 -45.999 120s-56.666 44 -93.999 44c-27.333 0 -51 -7.16699 -71 -21.5s-35.167 -33 -45.5 -56s-15.5 -46.833 -15.5 -71.5c0 -40.667 11 -72.167 33 -94.5s52.667 -33.5 92 -33.5h159zM348.001 396l-246.001 -59l-2 10l116 28
c-17.333 4 -31.666 13.333 -42.999 28s-17 32 -17 52c0 22 7.5 41 22.5 57s34.5 24 58.5 24c18 0 40 -3 66 -9l-2 -10c-26 5.33301 -47.667 8 -65 8c-20.667 0 -37.5 -6.83301 -50.5 -20.5s-19.5 -30.167 -19.5 -49.5c0 -21.333 7 -38.833 21 -52.5s30.667 -20.5 50 -20.5
c3.33301 0 9 0.666992 17 2l92 22z" />
    <glyph glyph-name="uniFE88" unicode="&#x625;" horiz-adv-x="256" arabic-form="final" 
d="M165.5 14.5c-19.667 9.66699 -33.667 25.832 -42 48.499s-13.5 55.334 -15.5 98.001l-18 460h10l18 -460c2 -41.333 6.83301 -72.5 14.5 -93.5s20.5 -35.833 38.5 -44.5s44.667 -13 80 -13h10v-10h-10c-37.333 -0 -65.833 4.83301 -85.5 14.5zM252 -188.002l-246.001 -59
l-2 10l116 28c-17.333 4 -31.666 13.333 -42.999 28s-17 32 -17 52c0 22 7.5 41 22.5 57s34.5 24 58.5 24c18 0 40 -3 66 -9l-2 -10c-26 5.33301 -47.667 8 -65 8c-20.667 0 -37.5 -6.83301 -50.5 -20.5s-19.5 -30.167 -19.5 -49.5c0 -21.333 7 -38.833 21 -52.5
s30.667 -20.5 50 -20.5c3.33301 0 9 0.666992 17 2l92 22z" />
    <glyph glyph-name="uniFE8A" unicode="&#x626;" horiz-adv-x="635" arabic-form="final" 
d="M640 0c-54 0 -119.668 10.3311 -197.001 30.998c58 -30 90.333 -61 97 -93c2 -11.333 3 -21.666 3 -30.999c0 -30.667 -9.83301 -55.167 -29.5 -73.5s-42 -31.666 -67 -39.999s-60.5 -18.166 -106.5 -29.499c-27.333 -6.66699 -54 -10 -80 -10c-66 0 -117.5 21 -154.5 63
s-55.5 99.667 -55.5 173c0 56 12 119 36 189l10 -4c-24 -68.667 -36 -131 -36 -187c0 -69.333 17.5 -123.833 52.5 -163.5s84.167 -59.5 147.5 -59.5c24 0 50 3 78 9c45.333 11.333 80 21 104 29s45.333 20.333 64 37s28 38.667 28 66c0 5.33301 -1.33301 15.333 -4 30
c-6 27.333 -28.667 51.666 -68 72.999s-79.333 39 -120 53l-14 4l4 10l39 -13c104.667 -35.333 194.334 -53 269.001 -53v-10zM437.999 226.998l-246.001 -59l-2 10l116 28c-17.333 4 -31.666 13.333 -42.999 28s-17 32 -17 52c0 22 7.5 41 22.5 57s34.5 24 58.5 24
c18 0 40 -3 66 -9l-2 -10c-26 5.33301 -47.667 8 -65 8c-20.667 0 -37.5 -6.83301 -50.5 -20.5s-19.5 -30.167 -19.5 -49.5c0 -21.333 7 -38.833 21 -52.5s30.667 -20.5 50 -20.5c3.33301 0 9 0.666992 17 2l92 22z" />
    <glyph glyph-name="uniFE8B" unicode="&#x626;" horiz-adv-x="277" arabic-form="initial" 
d="M74 10c39.333 0 72.834 9.16797 100.501 27.501s41.5 48.166 41.5 89.499c0 18.667 -2.66699 37.667 -8 57l-40 149l10 2l40 -149c6 -22 9 -41.667 9 -59c0 -44.667 -15.333 -77 -46 -97s-66.334 -30 -107.001 -30h-79v10h79zM266.001 452.001l-246.001 -59l-2 10l116 28
c-17.333 4 -31.666 13.333 -42.999 28s-17 32 -17 52c0 22 7.5 41 22.5 57s34.5 24 58.5 24c18 0 40 -3 66 -9l-2 -10c-26 5.33301 -47.667 8 -65 8c-20.667 0 -37.5 -6.83301 -50.5 -20.5s-19.5 -30.167 -19.5 -49.5c0 -21.333 7 -38.833 21 -52.5s30.667 -20.5 50 -20.5
c3.33301 0 9 0.666992 17 2l92 22z" />
    <glyph glyph-name="uniFE8C" unicode="&#x626;" horiz-adv-x="309" arabic-form="medial" 
d="M225.5 38c19.667 -18.667 49.168 -27.999 88.501 -27.999v-10c-67.333 0 -109 28 -125 84c-6.66699 -26.667 -21.167 -47.334 -43.5 -62.001s-51.5 -22 -87.5 -22h-63v10h63c42 0 73.667 10 95 30s30.666 48.333 27.999 85v3l-11 123h10l11 -123
c3.33301 -41.333 14.833 -71.333 34.5 -90zM268.001 394.001l-246.001 -59l-2 10l116 28c-17.333 4 -31.666 13.333 -42.999 28s-17 32 -17 52c0 22 7.5 41 22.5 57s34.5 24 58.5 24c18 0 40 -3 66 -9l-2 -10c-26 5.33301 -47.667 8 -65 8
c-20.667 0 -37.5 -6.83301 -50.5 -20.5s-19.5 -30.167 -19.5 -49.5c0 -21.333 7 -38.833 21 -52.5s30.667 -20.5 50 -20.5c3.33301 0 9 0.666992 17 2l92 22z" />
    <glyph glyph-name="uniFE8E" unicode="&#x627;" horiz-adv-x="256" arabic-form="final" 
d="M165.5 14.5c-19.667 9.66699 -33.667 25.832 -42 48.499s-13.5 55.334 -15.5 98.001l-18 460h10l18 -460c2 -41.333 6.83301 -72.5 14.5 -93.5s20.5 -35.833 38.5 -44.5s44.667 -13 80 -13h10v-10h-10c-37.333 -0 -65.833 4.83301 -85.5 14.5z" />
    <glyph glyph-name="uniFE90" unicode="&#x628;" horiz-adv-x="918" arabic-form="final" 
d="M834.5 38c19.667 -18.667 49.168 -27.999 88.501 -27.999v-10c-67.333 0 -109 28 -125 84c-6.66699 -26.667 -21.167 -47.334 -43.5 -62.001s-51.5 -22 -87.5 -22h-241v10h241c42 0 73.667 10 95 30s30.666 48.333 27.999 85v3l-11 123h10l11 -123
c3.33301 -41.333 14.833 -71.333 34.5 -90zM246.001 2.50098c-40 1.66699 -67.167 4 -81.5 7s-28.166 7.5 -41.499 13.5c-48.667 20.667 -73 58 -73 112c0 18.667 3 39 9 61l35 136l10 -2l-35 -136c-5.33301 -19.333 -8 -39 -8 -59c0 -48.667 22 -82.667 66 -102
c14 -6 27.833 -10.5 41.5 -13.5s40.167 -5.33301 79.5 -7s98.666 -2.5 177.999 -2.5v-10c-80 0 -140 0.833008 -180 2.5zM401.001 -131.999l25 25l24 -25l-24 -24z" />
    <glyph glyph-name="uniFE91" unicode="&#x628;" horiz-adv-x="277" arabic-form="initial" 
d="M74 10c39.333 0 72.834 9.16797 100.501 27.501s41.5 48.166 41.5 89.499c0 18.667 -2.66699 37.667 -8 57l-40 149l10 2l40 -149c6 -22 9 -41.667 9 -59c0 -44.667 -15.333 -77 -46 -97s-66.334 -30 -107.001 -30h-79v10h79zM37.001 -133.999l25 25l24 -25l-24 -24z" />
    <glyph glyph-name="uniFE92" unicode="&#x628;" horiz-adv-x="309" arabic-form="medial" 
d="M225.5 38c19.667 -18.667 49.168 -27.999 88.501 -27.999v-10c-67.333 0 -109 28 -125 84c-6.66699 -26.667 -21.167 -47.334 -43.5 -62.001s-51.5 -22 -87.5 -22h-63v10h63c42 0 73.667 10 95 30s30.666 48.333 27.999 85v3l-11 123h10l11 -123
c3.33301 -41.333 14.833 -71.333 34.5 -90zM73.001 -133.999l25 25l24 -25l-24 -24z" />
    <glyph glyph-name="uniFE94" unicode="&#x629;" horiz-adv-x="485" arabic-form="final" 
d="M490 10l0.00390625 -10.002h-19c-32.667 0 -62.334 8.66699 -89.001 26s-46.334 40.333 -59.001 69l-128 -21c-4 -0.666992 -9.66699 -1 -17 -1c-26.667 0 -51.834 8.83301 -75.501 26.5s-39.167 38.834 -46.5 63.501c-4 13.333 -6 26.333 -6 39
c0 28 8.16699 53.5 24.5 76.5s37.833 38.833 64.5 47.5l170 57v58h10v-279c0 -27.333 6.83301 -52.666 20.5 -75.999s32.167 -41.833 55.5 -55.5s48.666 -20.5 75.999 -20.5h19zM319.004 104.998c-6.66699 20 -10 39 -10 57v209l-166 -55
c-25.333 -8.66699 -45.5 -23.334 -60.5 -44.001s-22.5 -43.667 -22.5 -69c0 -12 2 -24 6 -36c7.33301 -23.333 21.833 -43.166 43.5 -59.499s44.5 -24.5 68.5 -24.5c7.33301 0 13 0.333008 17 1zM129.004 514.998l22 22l22 -22l-22 -22zM269.004 514.998l22 22l22 -22
l-22 -22z" />
    <glyph glyph-name="uniFE96" unicode="&#x62a;" horiz-adv-x="918" arabic-form="final" 
d="M834.5 38c19.667 -18.667 49.168 -27.999 88.501 -27.999v-10c-67.333 0 -109 28 -125 84c-6.66699 -26.667 -21.167 -47.334 -43.5 -62.001s-51.5 -22 -87.5 -22h-241v10h241c42 0 73.667 10 95 30s30.666 48.333 27.999 85v3l-11 123h10l11 -123
c3.33301 -41.333 14.833 -71.333 34.5 -90zM246.001 2.50098c-40 1.66699 -67.167 4 -81.5 7s-28.166 7.5 -41.499 13.5c-48.667 20.667 -73 58 -73 112c0 18.667 3 39 9 61l35 136l10 -2l-35 -136c-5.33301 -19.333 -8 -39 -8 -59c0 -48.667 22 -82.667 66 -102
c14 -6 27.833 -10.5 41.5 -13.5s40.167 -5.33301 79.5 -7s98.666 -2.5 177.999 -2.5v-10c-80 0 -140 0.833008 -180 2.5zM339.001 335.001l22 22l22 -22l-22 -22zM479.001 335.001l22 22l22 -22l-22 -22z" />
    <glyph glyph-name="uniFE97" unicode="&#x62a;" horiz-adv-x="334" arabic-form="initial" 
d="M132 10c38.667 0 72 9 100 27s42 47.667 42 89c0 16.667 -3 36 -9 58l-39 149l10 2l39 -149c6 -22 9 -42 9 -60c0 -44 -15.333 -76 -46 -96s-66 -30 -106 -30h-137v10h137zM106 462l22 22l22 -22l-22 -22zM246 462l22 22l22 -22l-22 -22z" />
    <glyph glyph-name="uniFE98" unicode="&#x62a;" horiz-adv-x="368" arabic-form="medial" 
d="M284.5 38c19.667 -18.667 49.168 -27.999 88.501 -27.999v-10c-67.333 0 -109 28 -125 84c-6.66699 -26.667 -21.167 -47.334 -43.5 -62.001s-51.5 -22 -87.5 -22h-122v10h122c42 0 73.667 10 95 30s30.666 48.333 27.999 85v3l-11 123h10l11 -123
c3.33301 -41.333 14.833 -71.333 34.5 -90zM88.001 394.001l22 22l22 -22l-22 -22zM228.001 394.001l22 22l22 -22l-22 -22z" />
    <glyph glyph-name="uniFE9A" unicode="&#x62b;" horiz-adv-x="918" arabic-form="final" 
d="M834.5 38c19.667 -18.667 49.168 -27.999 88.501 -27.999v-10c-67.333 0 -109 28 -125 84c-6.66699 -26.667 -21.167 -47.334 -43.5 -62.001s-51.5 -22 -87.5 -22h-241v10h241c42 0 73.667 10 95 30s30.666 48.333 27.999 85v3l-11 123h10l11 -123
c3.33301 -41.333 14.833 -71.333 34.5 -90zM246.001 2.50098c-40 1.66699 -67.167 4 -81.5 7s-28.166 7.5 -41.499 13.5c-48.667 20.667 -73 58 -73 112c0 18.667 3 39 9 61l35 136l10 -2l-35 -136c-5.33301 -19.333 -8 -39 -8 -59c0 -48.667 22 -82.667 66 -102
c14 -6 27.833 -10.5 41.5 -13.5s40.167 -5.33301 79.5 -7s98.666 -2.5 177.999 -2.5v-10c-80 0 -140 0.833008 -180 2.5zM413.001 416.501c-4 4.33301 -6.66699 6.83301 -8 7.5l8 8l14 14l14 -14l8 -8c-1.33301 -0.666992 -4 -3.16699 -8 -7.5l-14 -14.5zM336.001 333.001
l22 22l22 -22l-22 -22zM476.001 333.001l22 22l22 -22l-22 -22z" />
    <glyph glyph-name="uniFE9B" unicode="&#x62b;" horiz-adv-x="334" arabic-form="initial" 
d="M132 10c38.667 0 72 9 100 27s42 47.667 42 89c0 16.667 -3 36 -9 58l-39 149l10 2l39 -149c6 -22 9 -42 9 -60c0 -44 -15.333 -76 -46 -96s-66 -30 -106 -30h-137v10h137zM146 544.5c-4 4.33301 -6.66699 6.83301 -8 7.5l8 8l14 14l14 -14l8 -8
c-1.33301 -0.666992 -4 -3.16699 -8 -7.5l-14 -14.5zM69 461l22 22l22 -22l-22 -22zM209 461l22 22l22 -22l-22 -22z" />
    <glyph glyph-name="uniFE9C" unicode="&#x62b;" horiz-adv-x="368" arabic-form="medial" 
d="M284.5 38c19.667 -18.667 49.168 -27.999 88.501 -27.999v-10c-67.333 0 -109 28 -125 84c-6.66699 -26.667 -21.167 -47.334 -43.5 -62.001s-51.5 -22 -87.5 -22h-122v10h122c42 0 73.667 10 95 30s30.666 48.333 27.999 85v3l-11 123h10l11 -123
c3.33301 -41.333 14.833 -71.333 34.5 -90zM134.001 478.501c-4 4.33301 -6.66699 6.83301 -8 7.5l8 8l14 14l14 -14l8 -8c-1.33301 -0.666992 -4 -3.16699 -8 -7.5l-14 -14.5zM57.001 395.001l22 22l22 -22l-22 -22zM197.001 395.001l22 22l22 -22l-22 -22z" />
    <glyph glyph-name="uniFE9E" unicode="&#x62c;" horiz-adv-x="718" arabic-form="final" 
d="M723 10l-0.000976562 -10h-37c-30 0 -57.5 7.16699 -82.5 21.5s-45.167 33.833 -60.5 58.5s-23.666 51.667 -24.999 81l-258 -71c-74.667 -20 -126.667 -50 -156 -90s-44 -83 -44 -129c0 -21.333 2.33301 -40.666 7 -57.999c12.667 -48 38.5 -86.333 77.5 -115
s83.833 -43 134.5 -43c20 0 41.333 2.66699 64 8l256 71l2 -10l-256 -71c-19.333 -5.33301 -41 -8 -65 -8c-53.333 0 -100.5 15 -141.5 45s-68.167 70.333 -81.5 121c-4.66699 17.333 -7 36.666 -7 57.999c0 48 15.333 93.333 46 136s84.667 74.334 162 95.001l350 96
l-290 162c-24.667 14 -50.334 21 -77.001 21s-51.667 -7.16699 -75 -21.5s-43 -34.833 -59 -61.5l-18 -32l-8 4l18 33c16 28 36.333 49.5 61 64.5s51.334 22.5 80.001 22.5c28 0 55.333 -7.33301 82 -22l298 -165l-3 -13l-89 -24c0.666992 -28 8.16699 -53.833 22.5 -77.5
s33.5 -42.334 57.5 -56.001s50 -20.5 78 -20.5h37zM303.999 -113l25 25l24 -25l-24 -24z" />
    <glyph glyph-name="uniFE9F" unicode="&#x62c;" horiz-adv-x="612" arabic-form="initial" 
d="M562 129l-2.99805 -13.001l-297 -88c-44.667 -12.667 -84.834 -20.5 -120.501 -23.5s-82.834 -4.5 -141.501 -4.5h-5v10h5c58 0 104.667 1.5 140 4.5s75.333 10.833 120 23.5l289 85l-249 163c-24.667 16 -50.334 24 -77.001 24c-26 0 -50.833 -7.66699 -74.5 -23
s-43.5 -36.333 -59.5 -63l-18 -32l-8 4l18 33c16.667 28.667 37.334 50.834 62.001 66.501s51 23.5 79 23.5s55.333 -8.33301 82 -25zM264.002 -125.001l25 25l24 -25l-24 -24z" />
    <glyph glyph-name="uniFEA0" unicode="&#x62c;" horiz-adv-x="662" arabic-form="medial" 
d="M667 10l0.00292969 -10h-65c-32.667 0 -60.834 11 -84.501 33s-37.167 49 -40.5 81l-214 -71c-48.667 -16 -93.334 -27.167 -134.001 -33.5s-83.667 -9.5 -129 -9.5h-5v10h5c45.333 0 88 3.16699 128 9.5s84.333 17.5 133 33.5l293 97l-253 148
c-26.667 15.333 -53 23 -79 23s-50.5 -7.33301 -73.5 -22s-42.5 -35.667 -58.5 -63l-18 -32l-8 4l18 33c16.667 28.667 37.167 50.667 61.5 66s50.166 23 77.499 23c28 0 56 -8 84 -24l259 -150l-2 -14l-75 -25c2.66699 -30 15 -55.333 37 -76s48 -31 78 -31h65z
M264.003 -125l25 25l24 -25l-24 -24z" />
    <glyph glyph-name="uniFEA2" unicode="&#x62d;" horiz-adv-x="718" arabic-form="final" 
d="M723 10l-0.000976562 -10h-37c-30 0 -57.5 7.16699 -82.5 21.5s-45.167 33.833 -60.5 58.5s-23.666 51.667 -24.999 81l-258 -71c-74.667 -20 -126.667 -50 -156 -90s-44 -83 -44 -129c0 -21.333 2.33301 -40.666 7 -57.999c12.667 -48 38.5 -86.333 77.5 -115
s83.833 -43 134.5 -43c20 0 41.333 2.66699 64 8l256 71l2 -10l-256 -71c-19.333 -5.33301 -41 -8 -65 -8c-53.333 0 -100.5 15 -141.5 45s-68.167 70.333 -81.5 121c-4.66699 17.333 -7 36.666 -7 57.999c0 48 15.333 93.333 46 136s84.667 74.334 162 95.001l350 96
l-290 162c-24.667 14 -50.334 21 -77.001 21s-51.667 -7.16699 -75 -21.5s-43 -34.833 -59 -61.5l-18 -32l-8 4l18 33c16 28 36.333 49.5 61 64.5s51.334 22.5 80.001 22.5c28 0 55.333 -7.33301 82 -22l298 -165l-3 -13l-89 -24c0.666992 -28 8.16699 -53.833 22.5 -77.5
s33.5 -42.334 57.5 -56.001s50 -20.5 78 -20.5h37z" />
    <glyph glyph-name="uniFEA3" unicode="&#x62d;" horiz-adv-x="612" arabic-form="initial" 
d="M562 129l-2.99805 -13.001l-297 -88c-44.667 -12.667 -84.834 -20.5 -120.501 -23.5s-82.834 -4.5 -141.501 -4.5h-5v10h5c58 0 104.667 1.5 140 4.5s75.333 10.833 120 23.5l289 85l-249 163c-24.667 16 -50.334 24 -77.001 24c-26 0 -50.833 -7.66699 -74.5 -23
s-43.5 -36.333 -59.5 -63l-18 -32l-8 4l18 33c16.667 28.667 37.334 50.834 62.001 66.501s51 23.5 79 23.5s55.333 -8.33301 82 -25z" />
    <glyph glyph-name="uniFEA4" unicode="&#x62d;" horiz-adv-x="662" arabic-form="medial" 
d="M667 10l0.00292969 -10h-65c-32.667 0 -60.834 11 -84.501 33s-37.167 49 -40.5 81l-214 -71c-48.667 -16 -93.334 -27.167 -134.001 -33.5s-83.667 -9.5 -129 -9.5h-5v10h5c45.333 0 88 3.16699 128 9.5s84.333 17.5 133 33.5l293 97l-253 148
c-26.667 15.333 -53 23 -79 23s-50.5 -7.33301 -73.5 -22s-42.5 -35.667 -58.5 -63l-18 -32l-8 4l18 33c16.667 28.667 37.167 50.667 61.5 66s50.166 23 77.499 23c28 0 56 -8 84 -24l259 -150l-2 -14l-75 -25c2.66699 -30 15 -55.333 37 -76s48 -31 78 -31h65z" />
    <glyph glyph-name="uniFEA6" unicode="&#x62e;" horiz-adv-x="718" arabic-form="final" 
d="M723 10l-0.000976562 -10h-37c-30 0 -57.5 7.16699 -82.5 21.5s-45.167 33.833 -60.5 58.5s-23.666 51.667 -24.999 81l-258 -71c-74.667 -20 -126.667 -50 -156 -90s-44 -83 -44 -129c0 -21.333 2.33301 -40.666 7 -57.999c12.667 -48 38.5 -86.333 77.5 -115
s83.833 -43 134.5 -43c20 0 41.333 2.66699 64 8l256 71l2 -10l-256 -71c-19.333 -5.33301 -41 -8 -65 -8c-53.333 0 -100.5 15 -141.5 45s-68.167 70.333 -81.5 121c-4.66699 17.333 -7 36.666 -7 57.999c0 48 15.333 93.333 46 136s84.667 74.334 162 95.001l350 96
l-290 162c-24.667 14 -50.334 21 -77.001 21s-51.667 -7.16699 -75 -21.5s-43 -34.833 -59 -61.5l-18 -32l-8 4l18 33c16 28 36.333 49.5 61 64.5s51.334 22.5 80.001 22.5c28 0 55.333 -7.33301 82 -22l298 -165l-3 -13l-89 -24c0.666992 -28 8.16699 -53.833 22.5 -77.5
s33.5 -42.334 57.5 -56.001s50 -20.5 78 -20.5h37zM209.999 509l25 25l24 -25l-24 -24z" />
    <glyph glyph-name="uniFEA7" unicode="&#x62e;" horiz-adv-x="612" arabic-form="initial" 
d="M562 129l-2.99805 -13.001l-297 -88c-44.667 -12.667 -84.834 -20.5 -120.501 -23.5s-82.834 -4.5 -141.501 -4.5h-5v10h5c58 0 104.667 1.5 140 4.5s75.333 10.833 120 23.5l289 85l-249 163c-24.667 16 -50.334 24 -77.001 24c-26 0 -50.833 -7.66699 -74.5 -23
s-43.5 -36.333 -59.5 -63l-18 -32l-8 4l18 33c16.667 28.667 37.334 50.834 62.001 66.501s51 23.5 79 23.5s55.333 -8.33301 82 -25zM189.002 456.999l25 25l24 -25l-24 -24z" />
    <glyph glyph-name="uniFEA8" unicode="&#x62e;" horiz-adv-x="662" arabic-form="medial" 
d="M667 10l0.00292969 -10h-65c-32.667 0 -60.834 11 -84.501 33s-37.167 49 -40.5 81l-214 -71c-48.667 -16 -93.334 -27.167 -134.001 -33.5s-83.667 -9.5 -129 -9.5h-5v10h5c45.333 0 88 3.16699 128 9.5s84.333 17.5 133 33.5l293 97l-253 148
c-26.667 15.333 -53 23 -79 23s-50.5 -7.33301 -73.5 -22s-42.5 -35.667 -58.5 -63l-18 -32l-8 4l18 33c16.667 28.667 37.167 50.667 61.5 66s50.166 23 77.499 23c28 0 56 -8 84 -24l259 -150l-2 -14l-75 -25c2.66699 -30 15 -55.333 37 -76s48 -31 78 -31h65z
M189.003 457l25 25l24 -25l-24 -24z" />
    <glyph glyph-name="uniFEAA" unicode="&#x62f;" horiz-adv-x="573" arabic-form="final" 
d="M578 10v-10h-49c-29.333 0 -52.5 8.5 -69.5 25.5s-30.5 39.833 -40.5 68.5c-7.33301 -62.667 -66.333 -94 -177 -94h-7c-48 0 -83.833 5.16699 -107.5 15.5s-38.5 26.833 -44.5 49.5c-5.33301 19.333 -8 42 -8 68h9c0 -23.333 2.33301 -44.333 7 -63
c5.33301 -21.333 19.5 -36.666 42.5 -45.999s56.833 -14 101.5 -14h7c112 0 168 33 168 99c0 9.33301 -1.66699 20.666 -5 33.999l-75 297l10 2l75 -297c7.33301 -27.333 14.5 -50 21.5 -68s18 -33.667 33 -47s34.833 -20 59.5 -20h49z" />
    <glyph glyph-name="uniFEAC" unicode="&#x630;" horiz-adv-x="573" arabic-form="final" 
d="M578 10v-10h-49c-29.333 0 -52.5 8.5 -69.5 25.5s-30.5 39.833 -40.5 68.5c-7.33301 -62.667 -66.333 -94 -177 -94h-7c-48 0 -83.833 5.16699 -107.5 15.5s-38.5 26.833 -44.5 49.5c-5.33301 19.333 -8 42 -8 68h9c0 -23.333 2.33301 -44.333 7 -63
c5.33301 -21.333 19.5 -36.666 42.5 -45.999s56.833 -14 101.5 -14h7c112 0 168 33 168 99c0 9.33301 -1.66699 20.666 -5 33.999l-75 297l10 2l75 -297c7.33301 -27.333 14.5 -50 21.5 -68s18 -33.667 33 -47s34.833 -20 59.5 -20h49zM278 549l25 25l24 -25l-24 -24z" />
    <glyph glyph-name="uniFEAE" unicode="&#x631;" horiz-adv-x="322" arabic-form="final" 
d="M327 10l-0.00195312 -9.99805h-8c-25.333 0 -44.833 3.5 -58.5 10.5s-24.5 18.833 -32.5 35.5l11 -81c1.33301 -8 2 -19 2 -33c0 -39.333 -10.167 -70.833 -30.5 -94.5s-44.5 -41.334 -72.5 -53.001s-64.333 -23.5 -109 -35.5l-27 -7l-2 10l29 8
c44 11.333 79.167 22.333 105.5 33s49 27.167 68 49.5s28.5 52.166 28.5 89.499c0 14 -0.666992 24.667 -2 32l-39 288l10 2l16 -119c5.33301 -34.667 11.333 -60.667 18 -78s16.334 -29.5 29.001 -36.5s31.334 -10.5 56.001 -10.5h8z" />
    <glyph glyph-name="uniFEB0" unicode="&#x632;" horiz-adv-x="322" arabic-form="final" 
d="M327 10l-0.00195312 -9.99805h-8c-25.333 0 -44.833 3.5 -58.5 10.5s-24.5 18.833 -32.5 35.5l11 -81c1.33301 -8 2 -19 2 -33c0 -39.333 -10.167 -70.833 -30.5 -94.5s-44.5 -41.334 -72.5 -53.001s-64.333 -23.5 -109 -35.5l-27 -7l-2 10l29 8
c44 11.333 79.167 22.333 105.5 33s49 27.167 68 49.5s28.5 52.166 28.5 89.499c0 14 -0.666992 24.667 -2 32l-39 288l10 2l16 -119c5.33301 -34.667 11.333 -60.667 18 -78s16.334 -29.5 29.001 -36.5s31.334 -10.5 56.001 -10.5h8zM150.998 410.002l25 25l24 -25l-24 -24
z" />
    <glyph glyph-name="uniFEB2" unicode="&#x633;" horiz-adv-x="1221" arabic-form="final" 
d="M1126 47c29.333 -24.667 62.668 -36.999 100.001 -36.999v-10c-33.333 0 -63.833 9.5 -91.5 28.5s-48.834 43.833 -63.501 74.5c-2 -29.333 -14.167 -53.833 -36.5 -73.5s-55.5 -29.5 -99.5 -29.5c-70 0 -111.333 28.333 -124 85c-7.33301 -24 -21 -44.167 -41 -60.5
s-49 -24.5 -87 -24.5c-35.333 0 -64.833 7 -88.5 21s-42.5 36 -56.5 66l15 -106c2 -14 3 -27 3 -39c0 -42 -10.667 -74.667 -32 -98s-45 -39.5 -71 -48.5s-63.667 -19.5 -113 -31.5c-27.333 -6.66699 -54 -10 -80 -10c-66 0 -117.5 21 -154.5 63s-55.5 99.667 -55.5 173
c0 56 12 119 36 189l10 -4c-24 -68.667 -36 -131 -36 -187c0 -69.333 17.5 -123.833 52.5 -163.5s84.167 -59.5 147.5 -59.5c24 0 50 3 78 9c49.333 12 86.333 22.167 111 30.5s47 23.5 67 45.5s30 53 30 93c0 10.667 -1 22.667 -3 36
c-3.33301 26.667 -16.333 117.667 -39 273l10 2l16 -111c18 -88.667 69 -133 153 -133c48 0 80.5 12 97.5 36s25.5 51.333 25.5 82v123h10v-123c0.666992 -32 8.66699 -59.667 24 -83s47 -35 95 -35c42.667 0 74.334 9.5 95.001 28.5s31 42.833 31 71.5
c0 10 -1 19.333 -3 28l-1 3l-33 123l10 2l33 -123l1 -4c9.33301 -36.667 28.666 -67.334 57.999 -92.001z" />
    <glyph glyph-name="uniFEB3" unicode="&#x633;" horiz-adv-x="728" arabic-form="initial" 
d="M678 124c0 -43.333 -13.833 -74.832 -41.5 -94.499s-58.5 -29.5 -92.5 -29.5c-32 0 -59 7.5 -81 22.5s-36.333 35.5 -43 61.5c-6.66699 -24 -20 -44 -40 -60s-49 -24 -87 -24c-32 0 -59 7.5 -81 22.5s-36.333 35.5 -43 61.5c-6.66699 -24 -20 -44 -40 -60
s-49 -24 -87 -24h-47v10h47c48 0 80.5 12.167 97.5 36.5s25.5 51.5 25.5 81.5v124h10v-124v-11c0 -32 10.833 -57.833 32.5 -77.5s50.167 -29.5 85.5 -29.5c48 0 80.5 12.167 97.5 36.5s25.5 51.5 25.5 81.5v124h10v-124v-11c0 -32 10.833 -57.833 32.5 -77.5
s50.167 -29.5 85.5 -29.5c32.667 0 61.5 9 86.5 27s37.5 47 37.5 87c0 17.333 -3 37.333 -9 60l-40 149l10 2l40 -149c6 -22.667 9 -43.334 9 -62.001z" />
    <glyph glyph-name="uniFEB4" unicode="&#x633;" horiz-adv-x="798" arabic-form="medial" 
d="M703 47c29.333 -24.667 62.667 -37 100 -37v-10c-33.333 0 -63.833 9.5 -91.5 28.5s-48.834 43.833 -63.501 74.5c-2 -29.333 -14.167 -53.833 -36.5 -73.5s-55.5 -29.5 -99.5 -29.5c-37.333 0 -65.5 8.5 -84.5 25.5s-31.833 37.5 -38.5 61.5
c-6.66699 -24.667 -20 -45.334 -40 -62.001s-49.667 -25 -89 -25c-37.333 0 -65.333 8.83301 -84 26.5s-31.334 38.834 -38.001 63.501c-16 -60 -59.333 -90 -130 -90h-13v10h13c48 0 80.667 12 98 36s26 51 26 81v1v123h10v-123v-1c0 -10.667 2.33301 -24.667 7 -42
s15.834 -34.166 33.501 -50.499s43.5 -24.5 77.5 -24.5c47.333 0 79.5 11.667 96.5 35s25.833 50 26.5 80v3v123h10v-123v-3c1.33301 -24 9.83301 -49.167 25.5 -75.5s46.834 -39.5 93.501 -39.5c42.667 0 74.334 9.5 95.001 28.5s31 42.833 31 71.5c0 10 -1 19.333 -3 28
l-1 3l-33 123l10 2l33 -123l1 -4c9.33301 -36.667 28.666 -67.334 57.999 -92.001z" />
    <glyph glyph-name="uniFEB6" unicode="&#x634;" horiz-adv-x="1221" arabic-form="final" 
d="M1126 47c29.333 -24.667 62.668 -36.999 100.001 -36.999v-10c-33.333 0 -63.833 9.5 -91.5 28.5s-48.834 43.833 -63.501 74.5c-2 -29.333 -14.167 -53.833 -36.5 -73.5s-55.5 -29.5 -99.5 -29.5c-70 0 -111.333 28.333 -124 85c-7.33301 -24 -21 -44.167 -41 -60.5
s-49 -24.5 -87 -24.5c-35.333 0 -64.833 7 -88.5 21s-42.5 36 -56.5 66l15 -106c2 -14 3 -27 3 -39c0 -42 -10.667 -74.667 -32 -98s-45 -39.5 -71 -48.5s-63.667 -19.5 -113 -31.5c-27.333 -6.66699 -54 -10 -80 -10c-66 0 -117.5 21 -154.5 63s-55.5 99.667 -55.5 173
c0 56 12 119 36 189l10 -4c-24 -68.667 -36 -131 -36 -187c0 -69.333 17.5 -123.833 52.5 -163.5s84.167 -59.5 147.5 -59.5c24 0 50 3 78 9c49.333 12 86.333 22.167 111 30.5s47 23.5 67 45.5s30 53 30 93c0 10.667 -1 22.667 -3 36
c-3.33301 26.667 -16.333 117.667 -39 273l10 2l16 -111c18 -88.667 69 -133 153 -133c48 0 80.5 12 97.5 36s25.5 51.333 25.5 82v123h10v-123c0.666992 -32 8.66699 -59.667 24 -83s47 -35 95 -35c42.667 0 74.334 9.5 95.001 28.5s31 42.833 31 71.5
c0 10 -1 19.333 -3 28l-1 3l-33 123l10 2l33 -123l1 -4c9.33301 -36.667 28.666 -67.334 57.999 -92.001zM793.002 485.501c-4 4.33301 -6.66699 6.83301 -8 7.5l8 8l14 14l14 -14l8 -8c-1.33301 -0.666992 -4 -3.16699 -8 -7.5l-14 -14.5zM716.002 402.001l22 22l22 -22
l-22 -22zM856.002 402.001l22 22l22 -22l-22 -22z" />
    <glyph glyph-name="uniFEB7" unicode="&#x634;" horiz-adv-x="728" arabic-form="initial" 
d="M678 124c0 -43.333 -13.833 -74.832 -41.5 -94.499s-58.5 -29.5 -92.5 -29.5c-32 0 -59 7.5 -81 22.5s-36.333 35.5 -43 61.5c-6.66699 -24 -20 -44 -40 -60s-49 -24 -87 -24c-32 0 -59 7.5 -81 22.5s-36.333 35.5 -43 61.5c-6.66699 -24 -20 -44 -40 -60
s-49 -24 -87 -24h-47v10h47c48 0 80.5 12.167 97.5 36.5s25.5 51.5 25.5 81.5v124h10v-124v-11c0 -32 10.833 -57.833 32.5 -77.5s50.167 -29.5 85.5 -29.5c48 0 80.5 12.167 97.5 36.5s25.5 51.5 25.5 81.5v124h10v-124v-11c0 -32 10.833 -57.833 32.5 -77.5
s50.167 -29.5 85.5 -29.5c32.667 0 61.5 9 86.5 27s37.5 47 37.5 87c0 17.333 -3 37.333 -9 60l-40 149l10 2l40 -149c6 -22.667 9 -43.334 9 -62.001zM408 482.501c-4 4.33301 -6.66699 6.83301 -8 7.5l8 8l14 14l14 -14l8 -8c-1.33301 -0.666992 -4 -3.16699 -8 -7.5
l-14 -14.5zM331 399.001l22 22l22 -22l-22 -22zM471 399.001l22 22l22 -22l-22 -22z" />
    <glyph glyph-name="uniFEB8" unicode="&#x634;" horiz-adv-x="798" arabic-form="medial" 
d="M703 47c29.333 -24.667 62.667 -37 100 -37v-10c-33.333 0 -63.833 9.5 -91.5 28.5s-48.834 43.833 -63.501 74.5c-2 -29.333 -14.167 -53.833 -36.5 -73.5s-55.5 -29.5 -99.5 -29.5c-37.333 0 -65.5 8.5 -84.5 25.5s-31.833 37.5 -38.5 61.5
c-6.66699 -24.667 -20 -45.334 -40 -62.001s-49.667 -25 -89 -25c-37.333 0 -65.333 8.83301 -84 26.5s-31.334 38.834 -38.001 63.501c-16 -60 -59.333 -90 -130 -90h-13v10h13c48 0 80.667 12 98 36s26 51 26 81v1v123h10v-123v-1c0 -10.667 2.33301 -24.667 7 -42
s15.834 -34.166 33.501 -50.499s43.5 -24.5 77.5 -24.5c47.333 0 79.5 11.667 96.5 35s25.833 50 26.5 80v3v123h10v-123v-3c1.33301 -24 9.83301 -49.167 25.5 -75.5s46.834 -39.5 93.501 -39.5c42.667 0 74.334 9.5 95.001 28.5s31 42.833 31 71.5c0 10 -1 19.333 -3 28
l-1 3l-33 123l10 2l33 -123l1 -4c9.33301 -36.667 28.666 -67.334 57.999 -92.001zM375.001 482.5c-4 4.33301 -6.66699 6.83301 -8 7.5l8 8l14 14l14 -14l8 -8c-1.33301 -0.666992 -4 -3.16699 -8 -7.5l-14 -14.5zM298.001 399l22 22l22 -22l-22 -22zM438.001 399l22 22
l22 -22l-22 -22z" />
    <glyph glyph-name="uniFEBA" unicode="&#x635;" horiz-adv-x="1190" arabic-form="final" 
d="M1195 10l0.000976562 -9.99902h-14c-28 0 -51.667 5.16699 -71 15.5s-33.333 19.833 -42 28.5c-14 -14 -30 -24.833 -48 -32.5s-36.667 -11.5 -56 -11.5h-295h-27c-26 0 -47.167 6.5 -63.5 19.5s-29.5 33.167 -39.5 60.5c4 -24 8.66699 -57 14 -99c2 -14 3 -27 3 -39
c0 -42 -10.667 -74.667 -32 -98s-45 -39.5 -71 -48.5s-63.667 -19.5 -113 -31.5c-27.333 -6.66699 -54 -10 -80 -10c-66 0 -117.5 21 -154.5 63s-55.5 99.667 -55.5 173c0 56 12 119 36 189l10 -4c-24 -68.667 -36 -131 -36 -187c0 -69.333 17.5 -123.833 52.5 -163.5
s84.167 -59.5 147.5 -59.5c24 0 50 3 78 9c49.333 12 86.333 22.167 111 30.5s47 23.5 67 45.5s30 53 30 93c0 10.667 -1 22.667 -3 36l-32 224l-7 49l10 2l7 -49c8 -48 16.333 -85.5 25 -112.5s20.667 -47.5 36 -61.5s36 -21 62 -21h25h5l84 115
c28 40.667 51 72.167 69 94.5s38.333 40.833 61 55.5s48 22 76 22c27.333 0 52.333 -6.83301 75 -20.5s40.5 -32.334 53.5 -56.001s19.5 -50.167 19.5 -79.5c0 -33.333 -12.333 -63.333 -37 -90c31.333 -27.333 66.666 -41 105.999 -41h14zM1032 28.501
c21.333 12.333 38.332 28.5 50.999 48.5s19 41.333 19 64c0 41.333 -13.167 76 -39.5 104s-59.166 42 -98.499 42c-26.667 0 -50.667 -7 -72 -21s-40.833 -32 -58.5 -54s-40.167 -53 -67.5 -93l-79 -109h277c24 0 46.667 6.16699 68 18.5z" />
    <glyph glyph-name="uniFEBB" unicode="&#x635;" horiz-adv-x="726" arabic-form="initial" 
d="M603 276.5c22.667 -13.667 40.501 -32.333 53.501 -56s19.5 -50.167 19.5 -79.5c0 -24 -6.83301 -47 -20.5 -69s-31.834 -39.5 -54.501 -52.5s-47 -19.5 -73 -19.5h-295v10h5l84 115c28 40.667 51 72.167 69 94.5s38.333 40.833 61 55.5s48 22 76 22
c27.333 0 52.333 -6.83301 75 -20.5zM596.001 28.501c21.333 12.333 38.332 28.5 50.999 48.5s19 41.333 19 64c0 41.333 -13.167 76 -39.5 104s-59.166 42 -98.499 42c-26.667 0 -50.667 -7 -72 -21s-40.833 -32 -58.5 -54s-40.167 -53 -67.5 -93l-79 -109h277
c24 0 46.667 6.16699 68 18.5zM147 109.001c0 -30.667 7.66699 -54.833 23 -72.5s36.333 -26.5 63 -26.5v-10c-25.333 0 -46.166 7.5 -62.499 22.5s-26.833 35.5 -31.5 61.5c-18 -54.667 -64.333 -82.667 -139 -84h-5v10h5c40 1.33301 72.167 11.5 96.5 30.5
s38.166 48.167 41.499 87.5l11 123h10l-11 -123v-3z" />
    <glyph glyph-name="uniFEBC" unicode="&#x635;" horiz-adv-x="754" arabic-form="medial" 
d="M759 10l0.000976562 -9.99805h-14c-28 0 -51.667 5.16699 -71 15.5s-33.333 19.833 -42 28.5c-14 -14 -30 -24.833 -48 -32.5s-36.667 -11.5 -56 -11.5h-295c-25.333 0 -46.166 7.5 -62.499 22.5s-26.833 35.5 -31.5 61.5c-18 -54.667 -64.333 -82.667 -139 -84h-5v10h5
c40 1.33301 72.167 11.5 96.5 30.5s38.166 48.167 41.499 87.5l11 123h10l-11 -123v-3l-1 -16c0 -30.667 7.66699 -54.834 23 -72.501s36.333 -26.5 63 -26.5h5l84 115c28 40.667 51 72.167 69 94.5s38.333 40.833 61 55.5s48 22 76 22c27.333 0 52.333 -6.83301 75 -20.5
s40.5 -32.334 53.5 -56.001s19.5 -50.167 19.5 -79.5c0 -33.333 -12.333 -63.333 -37 -90c31.333 -27.333 66.666 -41 105.999 -41h14zM596.001 28.502c21.333 12.333 38.332 28.5 50.999 48.5s19 41.333 19 64c0 41.333 -13.167 76 -39.5 104s-59.166 42 -98.499 42
c-26.667 0 -50.667 -7 -72 -21s-40.833 -32 -58.5 -54s-40.167 -53 -67.5 -93l-79 -109h277c24 0 46.667 6.16699 68 18.5z" />
    <glyph glyph-name="uniFEBE" unicode="&#x636;" horiz-adv-x="1190" arabic-form="final" 
d="M1195 10l0.000976562 -9.99902h-14c-28 0 -51.667 5.16699 -71 15.5s-33.333 19.833 -42 28.5c-14 -14 -30 -24.833 -48 -32.5s-36.667 -11.5 -56 -11.5h-295h-27c-26 0 -47.167 6.5 -63.5 19.5s-29.5 33.167 -39.5 60.5c4 -24 8.66699 -57 14 -99c2 -14 3 -27 3 -39
c0 -42 -10.667 -74.667 -32 -98s-45 -39.5 -71 -48.5s-63.667 -19.5 -113 -31.5c-27.333 -6.66699 -54 -10 -80 -10c-66 0 -117.5 21 -154.5 63s-55.5 99.667 -55.5 173c0 56 12 119 36 189l10 -4c-24 -68.667 -36 -131 -36 -187c0 -69.333 17.5 -123.833 52.5 -163.5
s84.167 -59.5 147.5 -59.5c24 0 50 3 78 9c49.333 12 86.333 22.167 111 30.5s47 23.5 67 45.5s30 53 30 93c0 10.667 -1 22.667 -3 36l-32 224l-7 49l10 2l7 -49c8 -48 16.333 -85.5 25 -112.5s20.667 -47.5 36 -61.5s36 -21 62 -21h25h5l84 115
c28 40.667 51 72.167 69 94.5s38.333 40.833 61 55.5s48 22 76 22c27.333 0 52.333 -6.83301 75 -20.5s40.5 -32.334 53.5 -56.001s19.5 -50.167 19.5 -79.5c0 -33.333 -12.333 -63.333 -37 -90c31.333 -27.333 66.666 -41 105.999 -41h14zM1032 28.501
c21.333 12.333 38.332 28.5 50.999 48.5s19 41.333 19 64c0 41.333 -13.167 76 -39.5 104s-59.166 42 -98.499 42c-26.667 0 -50.667 -7 -72 -21s-40.833 -32 -58.5 -54s-40.167 -53 -67.5 -93l-79 -109h277c24 0 46.667 6.16699 68 18.5zM926 432.001l25 25l24 -25l-24 -24
z" />
    <glyph glyph-name="uniFEBF" unicode="&#x636;" horiz-adv-x="726" arabic-form="initial" 
d="M603 276.5c22.667 -13.667 40.501 -32.333 53.501 -56s19.5 -50.167 19.5 -79.5c0 -24 -6.83301 -47 -20.5 -69s-31.834 -39.5 -54.501 -52.5s-47 -19.5 -73 -19.5h-295v10h5l84 115c28 40.667 51 72.167 69 94.5s38.333 40.833 61 55.5s48 22 76 22
c27.333 0 52.333 -6.83301 75 -20.5zM596.001 28.501c21.333 12.333 38.332 28.5 50.999 48.5s19 41.333 19 64c0 41.333 -13.167 76 -39.5 104s-59.166 42 -98.499 42c-26.667 0 -50.667 -7 -72 -21s-40.833 -32 -58.5 -54s-40.167 -53 -67.5 -93l-79 -109h277
c24 0 46.667 6.16699 68 18.5zM147 109.001c0 -30.667 7.66699 -54.833 23 -72.5s36.333 -26.5 63 -26.5v-10c-25.333 0 -46.166 7.5 -62.499 22.5s-26.833 35.5 -31.5 61.5c-18 -54.667 -64.333 -82.667 -139 -84h-5v10h5c40 1.33301 72.167 11.5 96.5 30.5
s38.166 48.167 41.499 87.5l11 123h10l-11 -123v-3zM494 421.002l25 25l24 -25l-24 -24z" />
    <glyph glyph-name="uniFEC0" unicode="&#x636;" horiz-adv-x="754" arabic-form="medial" 
d="M759 10l0.000976562 -9.99805h-14c-28 0 -51.667 5.16699 -71 15.5s-33.333 19.833 -42 28.5c-14 -14 -30 -24.833 -48 -32.5s-36.667 -11.5 -56 -11.5h-295c-25.333 0 -46.166 7.5 -62.499 22.5s-26.833 35.5 -31.5 61.5c-18 -54.667 -64.333 -82.667 -139 -84h-5v10h5
c40 1.33301 72.167 11.5 96.5 30.5s38.166 48.167 41.499 87.5l11 123h10l-11 -123v-3l-1 -16c0 -30.667 7.66699 -54.834 23 -72.501s36.333 -26.5 63 -26.5h5l84 115c28 40.667 51 72.167 69 94.5s38.333 40.833 61 55.5s48 22 76 22c27.333 0 52.333 -6.83301 75 -20.5
s40.5 -32.334 53.5 -56.001s19.5 -50.167 19.5 -79.5c0 -33.333 -12.333 -63.333 -37 -90c31.333 -27.333 66.666 -41 105.999 -41h14zM596.001 28.502c21.333 12.333 38.332 28.5 50.999 48.5s19 41.333 19 64c0 41.333 -13.167 76 -39.5 104s-59.166 42 -98.499 42
c-26.667 0 -50.667 -7 -72 -21s-40.833 -32 -58.5 -54s-40.167 -53 -67.5 -93l-79 -109h277c24 0 46.667 6.16699 68 18.5zM479 421.002l25 25l24 -25l-24 -24z" />
    <glyph glyph-name="uniFEC2" unicode="&#x637;" horiz-adv-x="656" arabic-form="final" 
d="M661 10v-9.99902h-14c-40.667 0 -77 13.333 -109 40c-14 -12.667 -29.667 -22.5 -47 -29.5s-35.333 -10.5 -54 -10.5h-387v10h97l35 47l-22 564l10 1l22 -551l39 54c28 40.667 51 72.167 69 94.5s38.333 40.833 61 55.5s48 22 76 22c27.333 0 52.333 -6.83301 75 -20.5
s40.5 -32.334 53.5 -56.001s19.5 -50.167 19.5 -79.5c0 -34.667 -13.333 -66 -40 -94c10.667 -8.66699 24.5 -17 41.5 -25s37.167 -12 60.5 -12h14zM505 28.501c21.333 12.333 38.332 28.5 50.999 48.5s19 41.333 19 64c0 41.333 -13.167 76 -39.5 104
s-59.166 42 -98.499 42c-26.667 0 -50.667 -7 -72 -21s-40.833 -32 -58.5 -54s-40.167 -53 -67.5 -93l-79 -109h277c24 0 46.667 6.16699 68 18.5z" />
    <glyph glyph-name="uniFEC3" unicode="&#x637;" horiz-adv-x="580" arabic-form="initial" 
d="M457 276.5c22.667 -13.667 40.501 -32.333 53.501 -56s19.5 -50.167 19.5 -79.5c0 -24 -6.83301 -47 -20.5 -69s-31.834 -39.5 -54.501 -52.5s-47 -19.5 -73 -19.5h-387v10h97l35 47l-22 564l10 1l22 -551l39 54c28 40.667 51 72.167 69 94.5s38.333 40.833 61 55.5
s48 22 76 22c27.333 0 52.333 -6.83301 75 -20.5zM450.001 28.501c21.333 12.333 38.332 28.5 50.999 48.5s19 41.333 19 64c0 41.333 -13.167 76 -39.5 104s-59.166 42 -98.499 42c-26.667 0 -50.667 -7 -72 -21s-40.833 -32 -58.5 -54s-40.167 -53 -67.5 -93l-79 -109h277
c24 0 46.667 6.16699 68 18.5z" />
    <glyph glyph-name="uniFEC4" unicode="&#x637;" horiz-adv-x="608" arabic-form="medial" 
d="M613 10l0.000976562 -9.99902h-14c-28 0 -51.667 5.16699 -71 15.5s-33.333 19.833 -42 28.5c-14 -14 -30 -24.833 -48 -32.5s-36.667 -11.5 -56 -11.5h-387v10h97l35 47l-22 564l10 1l22 -551l39 54c28 40.667 51 72.167 69 94.5s38.333 40.833 61 55.5s48 22 76 22
c27.333 0 52.333 -6.83301 75 -20.5s40.5 -32.334 53.5 -56.001s19.5 -50.167 19.5 -79.5c0 -33.333 -12.333 -63.333 -37 -90c31.333 -27.333 66.666 -41 105.999 -41h14zM450.001 28.501c21.333 12.333 38.332 28.5 50.999 48.5s19 41.333 19 64
c0 41.333 -13.167 76 -39.5 104s-59.166 42 -98.499 42c-26.667 0 -50.667 -7 -72 -21s-40.833 -32 -58.5 -54s-40.167 -53 -67.5 -93l-79 -109h277c24 0 46.667 6.16699 68 18.5z" />
    <glyph glyph-name="uniFEC6" unicode="&#x638;" horiz-adv-x="656" arabic-form="final" 
d="M661 10v-9.99902h-14c-40.667 0 -77 13.333 -109 40c-14 -12.667 -29.667 -22.5 -47 -29.5s-35.333 -10.5 -54 -10.5h-387v10h97l35 47l-22 564l10 1l22 -551l39 54c28 40.667 51 72.167 69 94.5s38.333 40.833 61 55.5s48 22 76 22c27.333 0 52.333 -6.83301 75 -20.5
s40.5 -32.334 53.5 -56.001s19.5 -50.167 19.5 -79.5c0 -34.667 -13.333 -66 -40 -94c10.667 -8.66699 24.5 -17 41.5 -25s37.167 -12 60.5 -12h14zM505 28.501c21.333 12.333 38.332 28.5 50.999 48.5s19 41.333 19 64c0 41.333 -13.167 76 -39.5 104
s-59.166 42 -98.499 42c-26.667 0 -50.667 -7 -72 -21s-40.833 -32 -58.5 -54s-40.167 -53 -67.5 -93l-79 -109h277c24 0 46.667 6.16699 68 18.5zM407.999 484.001l25 25l24 -25l-24 -24z" />
    <glyph glyph-name="uniFEC7" unicode="&#x638;" horiz-adv-x="580" arabic-form="initial" 
d="M457 276.5c22.667 -13.667 40.501 -32.333 53.501 -56s19.5 -50.167 19.5 -79.5c0 -24 -6.83301 -47 -20.5 -69s-31.834 -39.5 -54.501 -52.5s-47 -19.5 -73 -19.5h-387v10h97l35 47l-22 564l10 1l22 -551l39 54c28 40.667 51 72.167 69 94.5s38.333 40.833 61 55.5
s48 22 76 22c27.333 0 52.333 -6.83301 75 -20.5zM450.001 28.501c21.333 12.333 38.332 28.5 50.999 48.5s19 41.333 19 64c0 41.333 -13.167 76 -39.5 104s-59.166 42 -98.499 42c-26.667 0 -50.667 -7 -72 -21s-40.833 -32 -58.5 -54s-40.167 -53 -67.5 -93l-79 -109h277
c24 0 46.667 6.16699 68 18.5zM345 484.001l25 25l24 -25l-24 -24z" />
    <glyph glyph-name="uniFEC8" unicode="&#x638;" horiz-adv-x="608" arabic-form="medial" 
d="M613 10l0.000976562 -9.99902h-14c-28 0 -51.667 5.16699 -71 15.5s-33.333 19.833 -42 28.5c-14 -14 -30 -24.833 -48 -32.5s-36.667 -11.5 -56 -11.5h-387v10h97l35 47l-22 564l10 1l22 -551l39 54c28 40.667 51 72.167 69 94.5s38.333 40.833 61 55.5s48 22 76 22
c27.333 0 52.333 -6.83301 75 -20.5s40.5 -32.334 53.5 -56.001s19.5 -50.167 19.5 -79.5c0 -33.333 -12.333 -63.333 -37 -90c31.333 -27.333 66.666 -41 105.999 -41h14zM450.001 28.501c21.333 12.333 38.332 28.5 50.999 48.5s19 41.333 19 64
c0 41.333 -13.167 76 -39.5 104s-59.166 42 -98.499 42c-26.667 0 -50.667 -7 -72 -21s-40.833 -32 -58.5 -54s-40.167 -53 -67.5 -93l-79 -109h277c24 0 46.667 6.16699 68 18.5zM345 484.001l25 25l24 -25l-24 -24z" />
    <glyph glyph-name="uniFECA" unicode="&#x639;" horiz-adv-x="563" arabic-form="final" 
d="M111.5 26c-34.333 -30 -51.501 -69.332 -51.501 -117.999c0 -32.667 8.33301 -62.834 25 -90.501s39 -48.834 67 -63.501s58 -20.667 90 -18l294 25v-10l-294 -25c-34 -2.66699 -65.667 4 -95 20s-52.833 38.833 -70.5 68.5s-26.5 62.5 -26.5 98.5
c0 46.667 17.5 85.834 52.5 117.501s84.833 59.834 149.5 84.501l-150 199l1 9l239 34c3.33301 0.666992 7.66602 1 12.999 1c26.667 0 49 -9.33301 67 -28s27 -40.667 27 -66c0 -12 -2.66699 -24.333 -8 -37c-10 -23.333 -26.667 -43.666 -50 -60.999
s-55.666 -33 -96.999 -47l-26 -9l45 -59c9.33301 -12.667 22.333 -21.834 39 -27.501s37.834 -9.33398 63.501 -11.001s63.5 -2.5 113.5 -2.5h39v-10h-36c-51.333 -0 -90.333 0.833008 -117 2.5s-49 5.66699 -67 12s-32.333 16.5 -43 30.5l-46 61
c-64 -23.333 -113.167 -50 -147.5 -80zM261.999 119.001c4 1.33301 8.16699 2.83398 12.5 4.50098s9.5 3.5 15.5 5.5c40.667 14 72.167 29.167 94.5 45.5s37.833 35.166 46.5 56.499c4.66699 11.333 7 23.333 7 36c0 24.667 -9.5 45 -28.5 61s-40.833 22.333 -65.5 19
c-126 -16.667 -202.333 -28 -229 -34z" />
    <glyph glyph-name="uniFECB" unicode="&#x639;" horiz-adv-x="524" arabic-form="initial" 
d="M303 12c-8 -1.33301 -14.333 -1.99902 -19 -1.99902c-48 -5.33301 -140.667 -8.66602 -278 -9.99902h-11v10h11c92.667 1.33301 167.667 3.33301 225 6c-30 9.33301 -54.167 26.666 -72.5 51.999s-27.5 55 -27.5 89c0 35.333 11.167 66.5 33.5 93.5
s51.166 43.5 86.499 49.5c4 0.666992 10.667 1 20 1c32 0 75.333 -7 130 -21l-2 -10c-53.333 14 -95.666 21 -126.999 21c-8.66699 0 -15 -0.333008 -19 -1c-33.333 -6 -60.333 -21.333 -81 -46s-31 -53.334 -31 -86.001c0 -27.333 6.66699 -52 20 -74s31 -38.667 53 -50
s45.667 -16 71 -14l16 2l171 32l2 -10z" />
    <glyph glyph-name="uniFECC" unicode="&#x639;" horiz-adv-x="497" arabic-form="medial" 
d="M315 16c28.667 -4 77.333 -6.00293 146 -6.00293h41v-10c-64.667 0 -111.334 0.666992 -140.001 2s-53.167 4.83301 -73.5 10.5s-36.166 15.5 -47.499 29.5c-39.333 -13.333 -79.666 -23.666 -120.999 -30.999s-77 -11 -107 -11h-18v10h18c30 0 65 3.5 105 10.5
s79 17.167 117 30.5l-153 203l2 8l240 34c3.33301 0.666992 7.66602 1 12.999 1c26 0 48 -9.16699 66 -27.5s27 -40.166 27 -65.499c0 -13.333 -2.33301 -25.666 -7 -36.999c-10 -24 -30.333 -46.167 -61 -66.5s-67.667 -38.5 -111 -54.5c14 -16 35.333 -26 64 -30z
M244.999 53.9971c42 15.333 78 32.8311 108 52.498s50 41.167 60 64.5c4.66699 10 7 21 7 33c0 24.667 -9.33301 45.334 -28 62.001s-40.667 23.334 -66 20.001l-230 -33z" />
    <glyph glyph-name="uniFECE" unicode="&#x63a;" horiz-adv-x="563" arabic-form="final" 
d="M111.5 26c-34.333 -30 -51.501 -69.332 -51.501 -117.999c0 -32.667 8.33301 -62.834 25 -90.501s39 -48.834 67 -63.501s58 -20.667 90 -18l294 25v-10l-294 -25c-34 -2.66699 -65.667 4 -95 20s-52.833 38.833 -70.5 68.5s-26.5 62.5 -26.5 98.5
c0 46.667 17.5 85.834 52.5 117.501s84.833 59.834 149.5 84.501l-150 199l1 9l239 34c3.33301 0.666992 7.66602 1 12.999 1c26.667 0 49 -9.33301 67 -28s27 -40.667 27 -66c0 -12 -2.66699 -24.333 -8 -37c-10 -23.333 -26.667 -43.666 -50 -60.999
s-55.666 -33 -96.999 -47l-26 -9l45 -59c9.33301 -12.667 22.333 -21.834 39 -27.501s37.834 -9.33398 63.501 -11.001s63.5 -2.5 113.5 -2.5h39v-10h-36c-51.333 -0 -90.333 0.833008 -117 2.5s-49 5.66699 -67 12s-32.333 16.5 -43 30.5l-46 61
c-64 -23.333 -113.167 -50 -147.5 -80zM261.999 119.001c4 1.33301 8.16699 2.83398 12.5 4.50098s9.5 3.5 15.5 5.5c40.667 14 72.167 29.167 94.5 45.5s37.833 35.166 46.5 56.499c4.66699 11.333 7 23.333 7 36c0 24.667 -9.5 45 -28.5 61s-40.833 22.333 -65.5 19
c-126 -16.667 -202.333 -28 -229 -34zM251.999 467.002l25 25l24 -25l-24 -24z" />
    <glyph glyph-name="uniFECF" unicode="&#x63a;" horiz-adv-x="524" arabic-form="initial" 
d="M303 12c-8 -1.33301 -14.333 -1.99902 -19 -1.99902c-48 -5.33301 -140.667 -8.66602 -278 -9.99902h-11v10h11c92.667 1.33301 167.667 3.33301 225 6c-30 9.33301 -54.167 26.666 -72.5 51.999s-27.5 55 -27.5 89c0 35.333 11.167 66.5 33.5 93.5
s51.166 43.5 86.499 49.5c4 0.666992 10.667 1 20 1c32 0 75.333 -7 130 -21l-2 -10c-53.333 14 -95.666 21 -126.999 21c-8.66699 0 -15 -0.333008 -19 -1c-33.333 -6 -60.333 -21.333 -81 -46s-31 -53.334 -31 -86.001c0 -27.333 6.66699 -52 20 -74s31 -38.667 53 -50
s45.667 -16 71 -14l16 2l171 32l2 -10zM241 421.001l25 25l24 -25l-24 -24z" />
    <glyph glyph-name="uniFED0" unicode="&#x63a;" horiz-adv-x="497" arabic-form="medial" 
d="M315 16c28.667 -4 77.333 -6.00293 146 -6.00293h41v-10c-64.667 0 -111.334 0.666992 -140.001 2s-53.167 4.83301 -73.5 10.5s-36.166 15.5 -47.499 29.5c-39.333 -13.333 -79.666 -23.666 -120.999 -30.999s-77 -11 -107 -11h-18v10h18c30 0 65 3.5 105 10.5
s79 17.167 117 30.5l-153 203l2 8l240 34c3.33301 0.666992 7.66602 1 12.999 1c26 0 48 -9.16699 66 -27.5s27 -40.166 27 -65.499c0 -13.333 -2.33301 -25.666 -7 -36.999c-10 -24 -30.333 -46.167 -61 -66.5s-67.667 -38.5 -111 -54.5c14 -16 35.333 -26 64 -30z
M244.999 53.9971c42 15.333 78 32.8311 108 52.498s50 41.167 60 64.5c4.66699 10 7 21 7 33c0 24.667 -9.33301 45.334 -28 62.001s-40.667 23.334 -66 20.001l-230 -33zM231.999 423.995l25 25l24 -25l-24 -24z" />
    <glyph glyph-name="uniFED2" unicode="&#x641;" horiz-adv-x="916" arabic-form="final" 
d="M921 10l0.00390625 -9.99902h-58c-62.667 0 -125.334 13.667 -188.001 41c-33.333 -12.667 -67.666 -22.667 -102.999 -30s-68.333 -11 -99 -11h-52c-78.667 0 -137.5 0.833008 -176.5 2.5s-65.667 4 -80 7s-28.166 7.5 -41.499 13.5c-48.667 20.667 -73 58 -73 112
c0 18.667 3 39 9 61l35 136l10 -2l-35 -136c-5.33301 -19.333 -8 -39 -8 -59c0 -48.667 22 -82.667 66 -102c14 -6 27.833 -10.5 41.5 -13.5s40.167 -5.33301 79.5 -7s98.666 -2.5 177.999 -2.5h47c28 0 58.5 3.33301 91.5 10s65.167 15.667 96.5 27
c-37.333 16.667 -67.833 35.167 -91.5 55.5s-34.834 37.5 -33.501 51.5l5 56c4.66699 36 20.167 65.333 46.5 88s57.166 34 92.499 34c29.333 0 54.666 -7.83301 75.999 -23.5s37 -35.334 47 -59.001s14 -47.5 12 -71.5l-3 -40c-2 -14.667 -14.333 -30.167 -37 -46.5
s-51.667 -31.5 -87 -45.5c59.333 -24 117.666 -36 174.999 -36h58zM581.004 106.001c24.667 -20 55.665 -37.999 92.998 -53.999c36.667 13.333 66.834 27.833 90.501 43.5s36.167 30.167 37.5 43.5l3 39c2 22.667 -1.66699 45.167 -11 67.5s-23.833 40.666 -43.5 54.999
s-43.5 21.5 -71.5 21.5c-32 0 -60.167 -10.667 -84.5 -32s-38.833 -48.333 -43.5 -81l-5 -55c-1.33301 -12 10.334 -28 35.001 -48zM665.002 430.002l25 25l24 -25l-24 -24z" />
    <glyph glyph-name="uniFED3" unicode="&#x641;" horiz-adv-x="427" arabic-form="initial" 
d="M211 519l-25 24l25 25l24 -25zM377 89c0 -24 -4.33105 -42.168 -12.998 -54.501s-24.5 -21.166 -47.5 -26.499s-56.833 -8 -101.5 -8h-220v10h221c41.333 0 72.666 2.33301 93.999 7s36 12.5 44 23.5s12 27.167 12 48.5c0 13.333 -1 29 -3 47
c-44.667 -14 -97.334 -21 -158.001 -21c-40 0 -72.5 12.667 -97.5 38s-37.5 58.333 -37.5 99c0 26 5.5 51.333 16.5 76s27.333 44.834 49 60.501s47.167 23.5 76.5 23.5c40 0 73.5 -15.5 100.5 -46.5s43.5 -72.833 49.5 -125.5l10 -89c3.33301 -26.667 5 -47.334 5 -62.001z
M362.002 146.999v2l-10 89c-6 50.667 -21.5 90.667 -46.5 120s-56.167 44 -93.5 44c-28 0 -51.833 -7.33301 -71.5 -22s-34.5 -33.5 -44.5 -56.5s-15 -47.167 -15 -72.5c0 -38 11.333 -68.5 34 -91.5s52.667 -34.5 90 -34.5c56 0 108.333 7.33301 157 22z" />
    <glyph glyph-name="uniFED4" unicode="&#x641;" horiz-adv-x="490" arabic-form="medial" 
d="M260 430l-25 24l25 25l24 -25zM495 10l0.00390625 -9.99902h-58c-62.667 0 -125.334 13.667 -188.001 41c-33.333 -12.667 -67.666 -22.667 -102.999 -30s-68.333 -11 -99 -11h-52v10h52c28 0 58.5 3.33301 91.5 10s65.167 15.667 96.5 27
c-37.333 16.667 -67.833 35.167 -91.5 55.5s-34.834 37.5 -33.501 51.5l5 56c4.66699 36 20.167 65.333 46.5 88s57.166 34 92.499 34c29.333 0 54.666 -7.83301 75.999 -23.5s37 -35.334 47 -59.001s14 -47.5 12 -71.5l-3 -40c-2 -14.667 -14.333 -30.167 -37 -46.5
s-51.667 -31.5 -87 -45.5c59.333 -24 117.666 -36 174.999 -36h58zM155.004 106.001c24.667 -20 55.665 -37.999 92.998 -53.999c36.667 13.333 66.834 27.833 90.501 43.5s36.167 30.167 37.5 43.5l3 39c2 22.667 -1.66699 45.167 -11 67.5s-23.833 40.666 -43.5 54.999
s-43.5 21.5 -71.5 21.5c-32 0 -60.167 -10.667 -84.5 -32s-38.833 -48.333 -43.5 -81l-5 -55c-1.33301 -12 10.334 -28 35.001 -48z" />
    <glyph glyph-name="uniFED6" unicode="&#x642;" horiz-adv-x="611" arabic-form="final" 
d="M260 -246c-66 0 -117.5 21 -154.5 63s-55.5 99.667 -55.5 173c0 56 12 119 36 189l10 -4c-24 -68.667 -36 -131 -36 -187c0 -69.333 17.5 -123.833 52.5 -163.5s84.167 -59.5 147.5 -59.5c24 0 50 3 78 9c51.333 12 91.5 24 120.5 36s50.833 28 65.5 48s22 46.667 22 80
c0 6 -0.666992 15.667 -2 29l-4 33h-160c-42 0 -75 12 -99 36s-36 57.667 -36 101c0 26 5.5 51.333 16.5 76s27.333 44.834 49 60.501s47.167 23.5 76.5 23.5c40 0 73.5 -15.5 100.5 -46.5s43.5 -72.833 49.5 -125.5l12 -115h67v-10h-65l3 -32c1.33301 -14.667 2 -25 2 -31
c0 -35.333 -7.83301 -63.833 -23.5 -85.5s-38.5 -38.834 -68.5 -51.501s-71.333 -24.667 -124 -36c-27.333 -6.66699 -54 -10 -80 -10zM527 123c-5.33301 50.667 -20.668 90.667 -46.001 120s-56.666 44 -93.999 44c-27.333 0 -51 -7.16699 -71 -21.5s-35.167 -33 -45.5 -56
s-15.5 -46.833 -15.5 -71.5c0 -40.667 11 -72.167 33 -94.5s52.667 -33.5 92 -33.5h159zM282.998 413l22 22l22 -22l-22 -22zM422.998 413l22 22l22 -22l-22 -22z" />
    <glyph glyph-name="uniFED7" unicode="&#x642;" horiz-adv-x="427" arabic-form="initial" 
d="M137 500l-22 22l22 22l22 -22zM277 500l-22 22l22 22l22 -22zM377 89c0 -24 -4.33105 -42.168 -12.998 -54.501s-24.5 -21.166 -47.5 -26.499s-56.833 -8 -101.5 -8h-220v10h221c41.333 0 72.666 2.33301 93.999 7s36 12.5 44 23.5s12 27.167 12 48.5
c0 13.333 -1 29 -3 47c-44.667 -14 -97.334 -21 -158.001 -21c-40 0 -72.5 12.667 -97.5 38s-37.5 58.333 -37.5 99c0 26 5.5 51.333 16.5 76s27.333 44.834 49 60.501s47.167 23.5 76.5 23.5c40 0 73.5 -15.5 100.5 -46.5s43.5 -72.833 49.5 -125.5l10 -89
c3.33301 -26.667 5 -47.334 5 -62.001zM362.002 146.999v2l-10 89c-6 50.667 -21.5 90.667 -46.5 120s-56.167 44 -93.5 44c-28 0 -51.833 -7.33301 -71.5 -22s-34.5 -33.5 -44.5 -56.5s-15 -47.167 -15 -72.5c0 -38 11.333 -68.5 34 -91.5s52.667 -34.5 90 -34.5
c56 0 108.333 7.33301 157 22z" />
    <glyph glyph-name="uniFED8" unicode="&#x642;" horiz-adv-x="490" arabic-form="medial" 
d="M189 432l-22 22l22 22l22 -22zM329 432l-22 22l22 22l22 -22zM495 10l0.00390625 -9.99902h-58c-62.667 0 -125.334 13.667 -188.001 41c-33.333 -12.667 -67.666 -22.667 -102.999 -30s-68.333 -11 -99 -11h-52v10h52c28 0 58.5 3.33301 91.5 10s65.167 15.667 96.5 27
c-37.333 16.667 -67.833 35.167 -91.5 55.5s-34.834 37.5 -33.501 51.5l5 56c4.66699 36 20.167 65.333 46.5 88s57.166 34 92.499 34c29.333 0 54.666 -7.83301 75.999 -23.5s37 -35.334 47 -59.001s14 -47.5 12 -71.5l-3 -40c-2 -14.667 -14.333 -30.167 -37 -46.5
s-51.667 -31.5 -87 -45.5c59.333 -24 117.666 -36 174.999 -36h58zM155.004 106.001c24.667 -20 55.665 -37.999 92.998 -53.999c36.667 13.333 66.834 27.833 90.501 43.5s36.167 30.167 37.5 43.5l3 39c2 22.667 -1.66699 45.167 -11 67.5s-23.833 40.666 -43.5 54.999
s-43.5 21.5 -71.5 21.5c-32 0 -60.167 -10.667 -84.5 -32s-38.833 -48.333 -43.5 -81l-5 -55c-1.33301 -12 10.334 -28 35.001 -48z" />
    <glyph glyph-name="uniFEDA" unicode="&#x643;" horiz-adv-x="874" arabic-form="final" 
d="M879 10v-10.001h-20c-26.667 0 -51.834 7.33301 -75.501 22s-40.167 38 -49.5 70c-6 -26 -19 -47.833 -39 -65.5s-50.333 -26.5 -91 -26.5h-178c-80 0 -140 0.833008 -180 2.5s-67.167 4 -81.5 7s-28.166 7.5 -41.499 13.5c-48.667 20.667 -73 58 -73 112
c0 18.667 3 39 9 61l35 136l10 -2l-35 -136c-5.33301 -19.333 -8 -39 -8 -59c0 -48.667 22 -82.667 66 -102c14 -6 27.833 -10.5 41.5 -13.5s40.167 -5.33301 79.5 -7s98.666 -2.5 177.999 -2.5h178c48.667 0 81.667 12.333 99 37s25.333 52 24 82l-19 492l10 1l19 -493v-8
c4.66699 -39.333 18.834 -67.666 42.501 -84.999s50.167 -26 79.5 -26h20zM458 212.999c0 -7.33301 -2.16797 -13.5 -6.50098 -18.5s-10.166 -7.5 -17.499 -7.5h-89v10h89c4 0 7.5 1.66699 10.5 5s4.5 7 4.5 11c0 5.33301 -2 9.33301 -6 12l-71 73l2 9l98 33l4 -10l-91 -30
l64 -67c6 -6 9 -12.667 9 -20z" />
    <glyph glyph-name="uniFEDB" unicode="&#x643;" horiz-adv-x="439" arabic-form="initial" 
d="M280 172c12 -19.333 18.001 -39.666 18.001 -60.999c0 -18.667 -4.5 -36.334 -13.5 -53.001s-21.5 -30 -37.5 -40c-18 -12 -38.333 -18 -61 -18h-191v10h191c21.333 0 39.666 5.33301 54.999 16c14.667 10 26 22.667 34 38s12 31.333 12 48c0 19.333 -5 37.333 -15 54
l-225 318l2 8l361 133l4 -10l-355 -131z" />
    <glyph glyph-name="uniFEDC" unicode="&#x643;" horiz-adv-x="492" arabic-form="medial" 
d="M497 10l0.000976562 -9.99707h-14c-32 0 -62.333 10 -91 30s-61 54.667 -97 104c1.33301 -4.66699 2 -12 2 -22c0 -18.667 -4.33301 -36.334 -13 -53.001s-21 -30.334 -37 -41.001c-18 -12 -38.333 -18 -61 -18h-191v10h191c21.333 0 39.666 5.33301 54.999 16
c14.667 10 26 22.667 34 38s12 31.333 12 48c0 19.333 -5 37.333 -15 54l-225 318l2 8l361 133l4 -10l-355 -131l221 -312c42 -60.667 78 -102.834 108 -126.501s61.667 -35.5 95 -35.5h14z" />
    <glyph glyph-name="uniFEDE" unicode="&#x644;" horiz-adv-x="686" arabic-form="final" 
d="M691 10l0.000976562 -10h-20c-24 -0 -47.333 6.33301 -70 19s-39.667 32.667 -51 60l4 -100c2 -51.333 -6.5 -91.333 -25.5 -120s-41.667 -48.834 -68 -60.501s-59.5 -22.167 -99.5 -31.5c-6 -0.666992 -13.333 -2.33398 -22 -5.00098c-30.667 -7.33301 -58 -11 -82 -11
c-64.667 0 -115.334 21.333 -152.001 64s-55 100.334 -55 173.001c0 57.333 12 120.333 36 189l10 -4c-24 -68.667 -36 -131 -36 -187c0 -69.333 17.333 -124.166 52 -164.499s83 -60.5 145 -60.5c22.667 0 49.334 3.66699 80.001 11l23 6
c38.667 8.66699 70.667 18.5 96 29.5s46.833 30.167 64.5 57.5s25.5 65.333 23.5 114l-25 642l10 1l19 -487c2 -44.667 15.167 -76.667 39.5 -96s52.166 -29 83.499 -29h20z" />
    <glyph glyph-name="uniFEDF" unicode="&#x644;" horiz-adv-x="201" arabic-form="initial" 
d="M124.5 41.5c-19 -27.667 -54.5 -41.499 -106.5 -41.499h-25v10h25c48.667 0 81.667 12.333 99 37s25.333 52 24 82l-19 492l10 1l19 -493c1.33301 -30.667 -7.5 -59.834 -26.5 -87.501z" />
    <glyph glyph-name="uniFEE0" unicode="&#x644;" horiz-adv-x="288" arabic-form="medial" 
d="M293 10v-10.001h-20c-26.667 0 -51.834 7.33301 -75.501 22s-40.167 38 -49.5 70c-6 -26 -19 -47.833 -39 -65.5s-50.333 -26.5 -91 -26.5h-25v10h25c48.667 0 81.667 12.333 99 37s25.333 52 24 82l-19 492l10 1l19 -493v-8
c4.66699 -39.333 18.834 -67.666 42.501 -84.999s50.167 -26 79.5 -26h20z" />
    <glyph glyph-name="uniFEE2" unicode="&#x645;" horiz-adv-x="540" arabic-form="final" 
d="M448 47c24 -24.667 56.332 -36.9971 96.999 -36.9971v-10c-35.333 0 -65.166 9.16699 -89.499 27.5s-40.166 43.833 -47.499 76.5c-5.33301 -24.667 -13 -46.667 -23 -66c-6.66699 -12.667 -16.334 -22.834 -29.001 -30.501s-26 -11.5 -40 -11.5
c-13.333 0 -25 2.66699 -35 8l-221 116l16 -420h-10l-16 428l7 4l228 -120c9.33301 -4.66699 19.333 -7 30 -7c12.667 0 24.667 3.33301 36 10s20 15.667 26 27c17.333 36.667 26 72 26 106c0 26.667 -5.5 50.667 -16.5 72s-26.5 37.333 -46.5 48
c-14.667 7.33301 -29.667 11 -45 11c-18.667 0 -36.167 -4.83301 -52.5 -14.5s-28.833 -22.834 -37.5 -39.501l-69 -134l-8 4l69 134c10 18.667 23.667 33.167 41 43.5s36.333 15.5 57 15.5c16.667 0 33 -4 49 -12c22 -12 38.833 -29.333 50.5 -52
s17.5 -48.334 17.5 -77.001c0 -42 12 -75.333 36 -100z" />
    <glyph glyph-name="uniFEE3" unicode="&#x645;" horiz-adv-x="472" arabic-form="initial" 
d="M404.5 223.5c11.667 -22.333 17.5 -47.8359 17.5 -76.5029c0 -35.333 -9 -72 -27 -110c-5.33301 -11.333 -14.5 -21.166 -27.5 -29.499s-27.167 -12.5 -42.5 -12.5c-12 0 -23 2.66699 -33 8l-151 78c-14 -25.333 -32.833 -45.166 -56.5 -59.499
s-49.834 -21.5 -78.501 -21.5h-11v10h11c28 0 53.333 7 76 21s40.334 33.333 53.001 58l72 139c10 18.667 23.667 33.334 41 44.001s36 16 56 16c18.667 0 35.667 -4.33301 51 -13c21.333 -12 37.833 -29.167 49.5 -51.5zM413 147.997
c0 27.333 -5.33008 51.499 -15.9971 72.499s-26 36.5 -46 46.5c-14.667 8 -30.334 12 -47.001 12c-18 0 -35.167 -4.83301 -51.5 -14.5s-28.833 -23.167 -37.5 -40.5l-70 -135l151 -78c9.33301 -4.66699 19 -7 29 -7c13.333 0 25.666 3.66699 36.999 11s19.666 16 24.999 26
c17.333 36.667 26 72.334 26 107.001z" />
    <glyph glyph-name="uniFEE4" unicode="&#x645;" horiz-adv-x="550" arabic-form="medial" 
d="M459.5 45.5c24.333 -23.667 56.165 -35.5029 95.498 -35.5029v-10c-35.333 0 -65.166 9.16699 -89.499 27.5s-40.166 43.833 -47.499 76.5c-6 -26 -13.667 -48.333 -23 -67c-5.33301 -11.333 -14.5 -21.166 -27.5 -29.499s-27.167 -12.5 -42.5 -12.5
c-12 0 -23 2.66699 -33 8l-151 78c-14 -25.333 -32.833 -45.166 -56.5 -59.499s-49.834 -21.5 -78.501 -21.5h-11v10h11c28 0 53.333 7 76 21s40.334 33.333 53.001 58l72 139c10 18.667 23.667 33.334 41 44.001s36 16 56 16c18.667 0 35.667 -4.33301 51 -13
c22 -12.667 39 -30.667 51 -54s17.333 -50 16 -80c0.666992 -40 13.167 -71.833 37.5 -95.5zM412.999 147.997c0 27.333 -5.33008 51.499 -15.9971 72.499s-26 36.5 -46 46.5c-14.667 8 -30.334 12 -47.001 12c-18 0 -35.167 -4.83301 -51.5 -14.5
s-28.833 -23.167 -37.5 -40.5l-70 -135l151 -78c9.33301 -4.66699 19 -7 29 -7c13.333 0 25.666 3.66699 36.999 11s19.666 16 24.999 26c17.333 36.667 26 72.334 26 107.001z" />
    <glyph glyph-name="uniFEE6" unicode="&#x646;" horiz-adv-x="669" arabic-form="final" 
d="M674 10v-10h-32c-26 0 -47.167 6.5 -63.5 19.5s-29.5 33.167 -39.5 60.5c4 -24 8.66699 -57 14 -99c2 -14 3 -27 3 -39c0 -42 -10.667 -74.667 -32 -98s-45 -39.5 -71 -48.5s-63.667 -19.5 -113 -31.5c-27.333 -6.66699 -54 -10 -80 -10c-66 0 -117.5 21 -154.5 63
s-55.5 99.667 -55.5 173c0 56 12 119 36 189l10 -4c-24 -68.667 -36 -131 -36 -187c0 -69.333 17.5 -123.833 52.5 -163.5s84.167 -59.5 147.5 -59.5c24 0 50 3 78 9c49.333 12 86.333 22.167 111 30.5s47 23.5 67 45.5s30 53 30 93c0 10.667 -1 22.667 -3 36l-32 224l-7 49
l10 2l7 -49c8 -48 16.333 -85.5 25 -112.5s20.667 -47.5 36 -61.5s36 -21 62 -21h30zM277 218l25 25l24 -25l-24 -24z" />
    <glyph glyph-name="uniFEE7" unicode="&#x646;" horiz-adv-x="277" arabic-form="initial" 
d="M74 10c39.333 0 72.834 9.16797 100.501 27.501s41.5 48.166 41.5 89.499c0 18.667 -2.66699 37.667 -8 57l-40 149l10 2l40 -149c6 -22 9 -41.667 9 -59c0 -44.667 -15.333 -77 -46 -97s-66.334 -30 -107.001 -30h-79v10h79zM114.001 463.001l25 25l24 -25l-24 -24z" />
    <glyph glyph-name="uniFEE8" unicode="&#x646;" horiz-adv-x="309" arabic-form="medial" 
d="M225.5 38c19.667 -18.667 49.168 -27.999 88.501 -27.999v-10c-67.333 0 -109 28 -125 84c-6.66699 -26.667 -21.167 -47.334 -43.5 -62.001s-51.5 -22 -87.5 -22h-63v10h63c42 0 73.667 10 95 30s30.666 48.333 27.999 85v3l-11 123h10l11 -123
c3.33301 -41.333 14.833 -71.333 34.5 -90zM99.001 395.001l25 25l24 -25l-24 -24z" />
    <glyph glyph-name="uniFEEA" unicode="&#x647;" horiz-adv-x="485" arabic-form="final" 
d="M490 10l0.00390625 -10.002h-19c-32.667 0 -62.334 8.66699 -89.001 26s-46.334 40.333 -59.001 69l-128 -21c-4 -0.666992 -9.66699 -1 -17 -1c-26.667 0 -51.834 8.83301 -75.501 26.5s-39.167 38.834 -46.5 63.501c-4 13.333 -6 26.333 -6 39
c0 28 8.16699 53.5 24.5 76.5s37.833 38.833 64.5 47.5l170 57v58h10v-279c0 -27.333 6.83301 -52.666 20.5 -75.999s32.167 -41.833 55.5 -55.5s48.666 -20.5 75.999 -20.5h19zM319.004 104.998c-6.66699 20 -10 39 -10 57v209l-166 -55
c-25.333 -8.66699 -45.5 -23.334 -60.5 -44.001s-22.5 -43.667 -22.5 -69c0 -12 2 -24 6 -36c7.33301 -23.333 21.833 -43.166 43.5 -59.499s44.5 -24.5 68.5 -24.5c7.33301 0 13 0.333008 17 1z" />
    <glyph glyph-name="uniFEEB" unicode="&#x647;" horiz-adv-x="590" arabic-form="initial" 
d="M520.5 168c13 -21.333 19.501 -44.002 19.501 -68.002c0 -18.667 -3.66699 -35.667 -11 -51c-10.667 -23.333 -26.667 -41.5 -48 -54.5s-44.333 -19.5 -69 -19.5c-16.667 0 -34 3.66699 -52 11l-135 60c-56 -30.667 -121 -46 -195 -46h-35v10h35
c69.333 0 130.333 13.667 183 41l-70 31c-24 10.667 -43 26.834 -57 48.501s-21 45.5 -21 71.5c0 22 4.66699 42.333 14 61c12.667 26 31.5 46.167 56.5 60.5s51.5 19.833 79.5 16.5l-106 56l4 8l140 -74l7 -3c2.66699 -1.33301 5.16699 -2.66602 7.5 -3.99902
s4.16602 -2.33301 5.49902 -3l193 -102c23.333 -12 41.5 -28.667 54.5 -50zM225.001 56.998c44.667 25.333 74.332 56.333 88.999 93c8 18 12 36.333 12 55c0 24 -6.16699 46.167 -18.5 66.5s-29.5 35.833 -51.5 46.5c-16.667 8 -34.667 12 -54 12
c-24 0 -46.167 -6.33301 -66.5 -19s-35.833 -30 -46.5 -52c-9.33301 -20 -14 -39.333 -14 -58c0 -23.333 6.33301 -44.833 19 -64.5s30.334 -34.5 53.001 -44.5zM529.999 101.998c0 22 -5.99902 42.667 -17.999 62s-28.667 34.666 -50 45.999l-159 84c22 -26 33 -56 33 -90
c0 -19.333 -4 -38.666 -12 -57.999c-16 -36.667 -45.333 -68 -88 -94l128 -56c15.333 -6.66699 31.666 -10 48.999 -10c22 0 42.667 6 62 18s34 28.333 44 49c7.33301 16.667 11 33 11 49z" />
    <glyph glyph-name="uniFEEC" unicode="&#x647;" horiz-adv-x="463" arabic-form="medial" 
d="M468 10v-10.001h-43c-28.667 0 -53.167 -10.333 -73.5 -31s-30.5 -45.334 -30.5 -74.001v-130l-4 -5c-32.667 -0.666992 -65.667 8.33301 -99 27s-61.166 46.334 -83.499 83.001s-33.5 80.667 -33.5 132c-20 -1.33301 -35 -2 -45 -2h-61v10h61
c11.333 0 26.333 0.666992 45 2c2 24.667 13 68.167 33 130.5s43.667 130.166 71 203.499l4 2l75 -21c23.333 -6 42 -20.667 56 -44s21 -49.333 21 -78c0 -20 -4 -39.667 -12 -59c-16 -37.333 -45.5 -68.666 -88.5 -93.999s-92.833 -41.666 -149.5 -48.999
c0 -48.667 10 -90.5 30 -125.5s45.333 -61.333 76 -79s62 -27.167 94 -28.5v125c0 32 11.167 59.167 33.5 81.5s49.166 33.5 80.499 33.5h43zM144 139.499c-19.333 -60.333 -29.999 -102.499 -31.999 -126.499c54.667 7.33301 102.5 23.166 143.5 47.499
s68.833 54.166 83.5 89.499c8 16 12 34.667 12 56c0 26 -6.33301 49.5 -19 70.5s-29.334 34.5 -50.001 40.5l-70 20c-26 -71.333 -48.667 -137.166 -68 -197.499z" />
    <glyph glyph-name="uniFEEE" unicode="&#x648;" horiz-adv-x="441" arabic-form="final" 
d="M446 0h-65.9971l4 -34c1.33301 -14.667 2 -25.334 2 -32.001c0 -42 -10.833 -74.333 -32.5 -97s-51.334 -39.834 -89.001 -51.501s-98.5 -26.167 -182.5 -43.5l-2 10c84 17.333 144.167 31.5 180.5 42.5s64.666 27 84.999 48s30.5 50.833 30.5 89.5
c0 6.66699 -0.666992 17.334 -2 32.001l-4 36h-160c-42 0 -75 12 -99 36s-36 57.667 -36 101c0 26 5.5 51.333 16.5 76s27.333 44.834 49 60.501s47.167 23.5 76.5 23.5c40 0 73.667 -15.5 101 -46.5s43.666 -72.833 48.999 -125.5l12 -115h67v-10zM369.003 10l-12.002 113
c-5.33301 50.667 -20.666 90.667 -45.999 120s-56.666 44 -93.999 44c-27.333 0 -51 -7.16699 -71 -21.5s-35.167 -33 -45.5 -56s-15.5 -46.833 -15.5 -71.5c0 -40.667 11 -72.167 33 -94.5s52.667 -33.5 92 -33.5h159z" />
    <glyph glyph-name="uniFEF0" unicode="&#x649;" horiz-adv-x="635" arabic-form="final" 
d="M640 0c-54 0 -119.668 10.3311 -197.001 30.998c58 -30 90.333 -61 97 -93c2 -11.333 3 -21.666 3 -30.999c0 -30.667 -9.83301 -55.167 -29.5 -73.5s-42 -31.666 -67 -39.999s-60.5 -18.166 -106.5 -29.499c-27.333 -6.66699 -54 -10 -80 -10c-66 0 -117.5 21 -154.5 63
s-55.5 99.667 -55.5 173c0 56 12 119 36 189l10 -4c-24 -68.667 -36 -131 -36 -187c0 -69.333 17.5 -123.833 52.5 -163.5s84.167 -59.5 147.5 -59.5c24 0 50 3 78 9c45.333 11.333 80 21 104 29s45.333 20.333 64 37s28 38.667 28 66c0 5.33301 -1.33301 15.333 -4 30
c-6 27.333 -28.667 51.666 -68 72.999s-79.333 39 -120 53l-14 4l4 10l39 -13c104.667 -35.333 194.334 -53 269.001 -53v-10z" />
    <glyph glyph-name="uniFEF2" unicode="&#x64a;" horiz-adv-x="635" arabic-form="final" 
d="M640 0c-54 0 -119.668 10.3311 -197.001 30.998c58 -30 90.333 -61 97 -93c2 -11.333 3 -21.666 3 -30.999c0 -30.667 -9.83301 -55.167 -29.5 -73.5s-42 -31.666 -67 -39.999s-60.5 -18.166 -106.5 -29.499c-27.333 -6.66699 -54 -10 -80 -10c-66 0 -117.5 21 -154.5 63
s-55.5 99.667 -55.5 173c0 56 12 119 36 189l10 -4c-24 -68.667 -36 -131 -36 -187c0 -69.333 17.5 -123.833 52.5 -163.5s84.167 -59.5 147.5 -59.5c24 0 50 3 78 9c45.333 11.333 80 21 104 29s45.333 20.333 64 37s28 38.667 28 66c0 5.33301 -1.33301 15.333 -4 30
c-6 27.333 -28.667 51.666 -68 72.999s-79.333 39 -120 53l-14 4l4 10l39 -13c104.667 -35.333 194.334 -53 269.001 -53v-10zM188.999 -323.002l22 22l22 -22l-22 -22zM328.999 -323.002l22 22l22 -22l-22 -22z" />
    <glyph glyph-name="uniFEF3" unicode="&#x64a;" horiz-adv-x="334" arabic-form="initial" 
d="M132 10c38.667 0 72 9 100 27s42 47.667 42 89c0 16.667 -3 36 -9 58l-39 149l10 2l39 -149c6 -22 9 -42 9 -60c0 -44 -15.333 -76 -46 -96s-66 -30 -106 -30h-137v10h137zM-1 -140l22 22l22 -22l-22 -22zM139 -140l22 22l22 -22l-22 -22z" />
    <glyph glyph-name="uniFEF4" unicode="&#x64a;" horiz-adv-x="368" arabic-form="medial" 
d="M284.5 38c19.667 -18.667 49.168 -27.999 88.501 -27.999v-10c-67.333 0 -109 28 -125 84c-6.66699 -26.667 -21.167 -47.334 -43.5 -62.001s-51.5 -22 -87.5 -22h-122v10h122c42 0 73.667 10 95 30s30.666 48.333 27.999 85v3l-11 123h10l11 -123
c3.33301 -41.333 14.833 -71.333 34.5 -90zM42.001 -139.999l22 22l22 -22l-22 -22zM182.001 -139.999l22 22l22 -22l-22 -22z" />
    <glyph glyph-name=".notdef" horiz-adv-x="300" 
d="M255 505v-510h-210v510h210zM245 495h-190v-490h190v490z" />
    <glyph glyph-name="nonmarkingreturn" unicode="&#xd;" horiz-adv-x="300" 
 />
    <glyph glyph-name="space" unicode=" " horiz-adv-x="300" 
 />
    <glyph glyph-name="exclam" unicode="!" horiz-adv-x="270" 
d="M141 621l-1 -494h-10l1 494h10zM110 -2.5c-6.66699 7 -10 15.5 -10 25.5c0 9.33301 3.33301 17.333 10 24s15 10 25 10c9.33301 0 17.5 -3.33301 24.5 -10s10.5 -14.667 10.5 -24c0 -10 -3.5 -18.5 -10.5 -25.5s-15.167 -10.5 -24.5 -10.5c-10 0 -18.333 3.5 -25 10.5z
" />
    <glyph glyph-name="quotedbl" unicode="&#x22;" horiz-adv-x="159" 
d="M129 697l-3 -190h-19l-3 190h25zM55 697l-3 -190h-19l-3 190h25z" />
    <glyph glyph-name="numbersign" unicode="#" horiz-adv-x="586" 
d="M416 408l-31 -197h79l-1 -11h-79l-29 -187l-12 2l29 185h-196l-29 -187l-11 2l28 185h-74v11h76l30 197h-74l1 11h75l29 188l12 -2l-29 -186h196l29 188l11 -2l-29 -186h79l-1 -11h-79zM404 408h-196l-30 -197h195z" />
    <glyph glyph-name="dollar" unicode="$" horiz-adv-x="515" 
d="M404.5 37c-33.667 -26.667 -80.499 -40.332 -140.499 -40.999v-74h-12v74c-59.333 1.33301 -106.166 15.5 -140.499 42.5s-51.5 63.167 -51.5 108.5v37h11v-35c0 -44 17.333 -78.667 52 -104s81.667 -38 141 -38c56.667 0 100.667 12 132 36s47 57.667 47 101
c0 26 -6.33301 48.5 -19 67.5s-32.5 37.167 -59.5 54.5s-64.5 36.666 -112.5 57.999c-48 20.667 -83.333 37.334 -106 50.001s-40.334 28.167 -53.001 46.5s-19 41.833 -19 70.5c0 46 15.167 81.167 45.5 105.5s74.5 36.5 132.5 36.5v79h11v-79
c58.667 -1.33301 104.167 -15.333 136.5 -42s48.5 -63.334 48.5 -110.001v-27h-11v25c0 44.667 -16.5 79.667 -49.5 105s-78.5 38 -136.5 38c-53.333 0 -94.333 -11 -123 -33s-43 -54 -43 -96c0 -27.333 6.33301 -49.833 19 -67.5s30.167 -32.5 52.5 -44.5
s57.166 -28 104.499 -48c69.333 -29.333 119 -57.5 149 -84.5s45 -61.167 45 -102.5c0 -46 -16.833 -82.333 -50.5 -109z" />
    <glyph glyph-name="percent" unicode="%" horiz-adv-x="792" 
d="M155 464.5c-20 11.667 -35.667 27.666 -47 47.999s-17 42.5 -17 66.5c0 36.667 12.5 67.667 37.5 93s55.5 38 91.5 38c23.333 0 44.833 -5.83301 64.5 -17.5s35.167 -27.667 46.5 -48s17 -42.166 17 -65.499c0 -24 -5.66699 -46.167 -17 -66.5s-26.833 -36.333 -46.5 -48
s-41.167 -17.5 -64.5 -17.5s-45 5.83301 -65 17.5zM595 699.999l-377 -700h-22l377 700h22zM295 500.499c20.667 21.667 31 47.832 31 78.499s-10.333 56.667 -31 78s-45.667 32 -75 32c-30 0 -55.333 -10.667 -76 -32s-31 -47.333 -31 -78
c0 -31.333 10.333 -57.666 31 -78.999s46 -32 76 -32c29.333 0 54.333 10.833 75 32.5zM508 7.49707c-20 11.667 -35.667 27.666 -47 47.999s-17 42.5 -17 66.5c0 36.667 12.5 67.667 37.5 93s55.5 38 91.5 38c23.333 0 44.833 -5.83301 64.5 -17.5s35.167 -27.667 46.5 -48
s17 -42.166 17 -65.499c0 -24 -5.66699 -46.167 -17 -66.5s-26.833 -36.333 -46.5 -48s-41.167 -17.5 -64.5 -17.5s-45 5.83301 -65 17.5zM648 43.4961c20.667 21.667 31 47.832 31 78.499s-10.333 56.667 -31 78s-45.667 32 -75 32c-30 0 -55.333 -10.667 -76 -32
s-31 -47.333 -31 -78c0 -31.333 10.333 -57.666 31 -78.999s46 -32 76 -32c29.333 0 54.333 10.833 75 32.5z" />
    <glyph glyph-name="ampersand" unicode="&#x26;" horiz-adv-x="594" 
d="M510 0l-77.002 94.001c-31.333 -38 -60.333 -64.5 -87 -79.5s-58.667 -22.5 -96 -22.5c-50.667 0 -90 11.667 -118 35s-42 56 -42 98c0 29.333 6.5 56.166 19.5 80.499s29.333 45.833 49 64.5s44.834 39.667 75.501 63c-38.667 47.333 -64.167 82.833 -76.5 106.5
s-18.5 46.834 -18.5 69.501c0 36.667 11.5 66 34.5 88s53.167 33 90.5 33c38.667 0 69.667 -10.5 93 -31.5s35 -48.833 35 -83.5c0 -24.667 -6.16699 -47.5 -18.5 -68.5s-27.666 -39.833 -45.999 -56.5s-42.833 -36.334 -73.5 -59.001l26 -33l65 -80l24 -29l63 -78
c18.667 22 42.667 52.667 72 92l9 -7l-73 -94l41 -50l43 -52h-14zM181.498 588.501c-20.333 -19.667 -30.502 -46.167 -30.502 -79.5c0 -19.333 6 -39.666 18 -60.999s37.667 -56.666 77 -105.999c30.667 23.333 54.834 42.666 72.501 57.999s32.5 32.666 44.5 51.999
s18 40.666 18 63.999c0 30.667 -10.667 55.334 -32 74.001s-49.333 28 -84 28c-35.333 0 -63.166 -9.83301 -83.499 -29.5zM340.496 25.001c25 14.667 53.5 40.668 85.5 78.001l-81 98l-102 121c-46 -34 -81.167 -65.5 -105.5 -94.5s-36.5 -62.833 -36.5 -101.5
s13.167 -68.834 39.5 -90.501s62.833 -32.5 109.5 -32.5c35.333 0 65.5 7.33301 90.5 22z" />
    <glyph glyph-name="quotesingle" unicode="'" horiz-adv-x="85" 
d="M55 697l-3 -190h-19l-3 190h25z" />
    <glyph glyph-name="parenleft" unicode="(" horiz-adv-x="290" 
d="M96 7c-30.667 75.333 -45.999 154 -45.999 236c0 82.667 15.667 162 47 238s76.333 143.667 135 203l8 -8c-58 -57.333 -102.5 -123.333 -133.5 -198s-46.5 -153 -46.5 -235c0 -80.667 15.167 -158 45.5 -232s73.5 -139.333 129.5 -196l-8 -8
c-56.667 58 -100.334 124.667 -131.001 200z" />
    <glyph glyph-name="parenright" unicode=")" horiz-adv-x="290" 
d="M184.5 11c30.333 74 45.501 151.333 45.501 232c0 82 -15.5 160.333 -46.5 235s-75.5 140.667 -133.5 198l8 8c58.667 -59.333 103.667 -127 135 -203s47 -155.333 47 -238c0 -82 -15.333 -160.667 -46 -236s-74.334 -142 -131.001 -200l-8 8
c56 56.667 99.167 122 129.5 196z" />
    <glyph glyph-name="asterisk" unicode="*" horiz-adv-x="482" 
d="M249 411l113 -155l-8 -6l-113 155l-113 -155l-8 6l113 155l-183 59l4 10l182 -59v192h10v-192l182 59l4 -10z" />
    <glyph glyph-name="plus" unicode="+" horiz-adv-x="414" 
d="M369 298h-157v-157h-10v157h-157v10h157v157h10v-157h157v-10z" />
    <glyph glyph-name="comma" unicode="," horiz-adv-x="141" 
d="M94 127l-37 -189h-10l36 189h11z" />
    <glyph glyph-name="hyphen" unicode="-" horiz-adv-x="297" 
d="M257 328v-13h-217v13h217z" />
    <glyph glyph-name="period" unicode="." horiz-adv-x="270" 
d="M110 5.5c-6.66699 7 -10 15.5 -10 25.5c0 9.33301 3.33301 17.333 10 24s15 10 25 10c9.33301 0 17.5 -3.33301 24.5 -10s10.5 -14.667 10.5 -24c0 -10 -3.5 -18.5 -10.5 -25.5s-15.167 -10.5 -24.5 -10.5c-10 0 -18.333 3.5 -25 10.5z" />
    <glyph glyph-name="slash" unicode="/" horiz-adv-x="249" 
d="M179 627l-139 -623h-12l139 623h12z" />
    <glyph glyph-name="zero" unicode="0" horiz-adv-x="474" 
d="M126 38c-30.667 29.333 -46 68.333 -46 117v317c0 48.667 15.333 87.667 46 117s71.334 44 122.001 44c51.333 0 92.666 -14.667 123.999 -44s47 -68.333 47 -117v-317c0 -48.667 -15.667 -87.667 -47 -117s-72.666 -44 -123.999 -44
c-50.667 0 -91.334 14.667 -122.001 44zM363.5 45.5c29 27 43.5 62.833 43.5 107.5v321c0 44.667 -14.5 80.5 -43.5 107.5s-67.5 40.5 -115.5 40.5c-46.667 0 -84.334 -13.667 -113.001 -41s-43 -63 -43 -107v-321c0 -44 14.333 -79.667 43 -107s66.334 -41 113.001 -41
c48 0 86.5 13.5 115.5 40.5z" />
    <glyph glyph-name="one" unicode="1" horiz-adv-x="313" 
d="M202 627v-627h-11v615l-115 -66l-6 10l118 68h14z" />
    <glyph glyph-name="two" unicode="2" horiz-adv-x="465" 
d="M401 12l0.00195312 -12.001h-336v14c94 122.667 158.333 208.334 193 257.001c31.333 43.333 56.666 84.166 75.999 122.499s29 69.166 29 92.499c0 40 -13.333 72.167 -40 96.5s-61.667 36.5 -105 36.5c-42.667 0 -77 -12.167 -103 -36.5s-38.667 -56.5 -38 -96.5v-36
h-12v36c0 42.667 14.167 77.334 42.5 104.001s65.166 40 110.499 40c46.667 0 84.5 -13.167 113.5 -39.5s43.5 -61.166 43.5 -104.499c0 -24.667 -10 -57.167 -30 -97.5s-45.333 -81.833 -76 -124.5l-79.5 -107l-75.5 -100l-34 -45h321z" />
    <glyph glyph-name="three" unicode="3" horiz-adv-x="452" 
d="M372 182c0 -32.667 -3.66797 -61 -11.001 -85c-21.333 -68.667 -70 -103 -146 -103c-37.333 0 -69.166 10.333 -95.499 31s-44.166 48.667 -53.499 84c-4 15.333 -6 37.333 -6 66h12c0 -22.667 1 -41.667 3 -57c6.66699 -34.667 22.667 -62.167 48 -82.5
s56 -30.5 92 -30.5c34 0 62.5 8 85.5 24s39.167 39.333 48.5 70c7.33301 24 11 51.667 11 83c0 44.667 -5.33301 79.334 -16 104.001c-22.667 54.667 -65.667 82 -129 82c-9.33301 0 -18.333 -1 -27 -3l-6 7l177 244h-299v11h311v-14l-170 -236l17 1
c32.667 0 60.667 -7.5 84 -22.5s40.666 -36.167 51.999 -63.5c12 -28.667 18 -65.334 18 -110.001z" />
    <glyph glyph-name="four" unicode="4" horiz-adv-x="467" 
d="M397 186h-50v-186h-11v186h-276v14l204 427h10l-204 -430h266v355h11v-355h50v-11z" />
    <glyph glyph-name="five" unicode="5" horiz-adv-x="471" 
d="M391 195c0 -32.667 -1.67188 -58.333 -5.00488 -77c-6 -41.333 -22.5 -72.333 -49.5 -93s-60.833 -31 -101.5 -31c-38 0 -70.167 10.333 -96.5 31s-44.166 48.667 -53.499 84c-2 7.33301 -3.66699 19 -5 35h12c0.666992 -11.333 1.66699 -20 3 -26
c7.33301 -34.667 23.5 -62.167 48.5 -82.5s55.5 -30.5 91.5 -30.5c38.667 0 70.334 10.167 95.001 30.5s39.334 48.833 44.001 85.5c2.66699 21.333 4 50.333 4 87c0 22.667 -0.666992 38 -2 46c-5.33301 36.667 -20.166 64.834 -44.499 84.501s-56.5 29.5 -96.5 29.5
c-33.333 0 -63.666 -8.33301 -90.999 -25s-44.333 -38.334 -51 -65.001h-13v349h283v-11h-271l-1 -314c11.333 22.667 30 41.167 56 55.5s55.333 21.5 88 21.5c42 0 76 -10 102 -30s42.333 -48.333 49 -85c3.33301 -16.667 5 -39.667 5 -69z" />
    <glyph glyph-name="six" unicode="6" horiz-adv-x="453" 
d="M389 183c0 -40 -0.999023 -63.666 -2.99902 -70.999c-21.333 -77.333 -70.333 -116 -147 -116c-40 0 -73.333 10.167 -100 30.5s-44.334 48.5 -53.001 84.5c-4 16.667 -6 42.667 -6 78v289c0 46.667 14 84.167 42 112.5s65 42.5 111 42.5c44 0 79.333 -13.333 106 -40
s40 -62 40 -106v-7h-12v10c0 39.333 -12.333 71.166 -37 95.499s-57 36.5 -97 36.5c-42 0 -76 -13 -102 -39s-39 -60 -39 -102v-196c10 32 27.667 56 53 72s55.333 24 90 24c80.667 0 131 -38.667 151 -116c2 -6.66699 3 -34 3 -82zM377.501 149.001
c0.333008 12.667 0.166016 27.0029 -0.500977 43.0029c0 40 -0.333008 61.667 -1 65c-5.33301 34 -21 61.333 -47 82s-57.333 31 -94 31s-67.667 -10.333 -93 -31s-41 -48.334 -47 -83.001c-2 -16.667 -3 -41.334 -3 -74.001c0 -27.333 1.33301 -48 4 -62
c6 -34 21.667 -61.333 47 -82s56.333 -31 93 -31c37.333 0 68.333 10.167 93 30.5s40.334 48.166 47.001 83.499c0.666992 6 1.16699 15.333 1.5 28z" />
    <glyph glyph-name="seven" unicode="7" horiz-adv-x="406" 
d="M45 616v-52h-12v63h334v-14l-219 -613h-14l221 616h-310z" />
    <glyph glyph-name="eight" unicode="8" horiz-adv-x="452" 
d="M382 168c0 -45.333 -9.33105 -82.667 -27.998 -112c-13.333 -20 -30.833 -35.333 -52.5 -46s-46.834 -16 -75.501 -16c-60.667 0 -104.334 23 -131.001 69c-16.667 29.333 -25 64.666 -25 105.999c0 31.333 5.66699 60.333 17 87c18 42.667 50 70 96 82
c-31.333 8 -57 25 -77 51s-30 56.667 -30 92c0 28.667 6.66699 54.334 20 77.001c14 22.667 32.333 40.5 55 53.5s47.667 19.5 75 19.5c60 0 103.333 -24.333 130 -73c13.333 -22.667 20 -48.334 20 -77.001c0 -34.667 -9.66699 -65.667 -29 -93
c-19.333 -24 -44.333 -40.667 -75 -50c45.333 -11.333 77 -39.666 95 -84.999c10 -22.667 15 -51 15 -85zM160.502 357.999c19.667 -10 41.166 -15.001 64.499 -15.001c24.667 0 47 5.16699 67 15.5s36.333 25.166 49 44.499c15.333 23.333 23 49.333 23 78
c0 24.667 -6 48 -18 70c-12 22.667 -28.333 39.834 -49 51.501s-44.667 17.5 -72 17.5c-26 0 -49.667 -6.16699 -71 -18.5s-37.666 -29.5 -48.999 -51.5c-11.333 -21.333 -17 -44.666 -17 -69.999c0 -30 8.33301 -56.333 25 -79c12 -18.667 27.833 -33 47.5 -43z
M370.001 167.998c0 27.333 -3.99707 52.999 -11.9971 76.999c-10.667 28 -27.334 49.5 -50.001 64.5s-50.334 22.5 -83.001 22.5c-30.667 0 -57.167 -7 -79.5 -21s-38.833 -34 -49.5 -60c-9.33301 -24 -14 -52 -14 -84c0 -38 8 -71.667 24 -101
c24.667 -40.667 64.667 -61 120 -61c53.333 0 92.666 19.667 117.999 59c17.333 26.667 26 61.334 26 104.001z" />
    <glyph glyph-name="nine" unicode="9" horiz-adv-x="453" 
d="M373 439l-0.000976562 -289.001c0 -46.667 -14 -84.167 -42 -112.5s-65 -42.5 -111 -42.5c-44 0 -79.333 13.333 -106 40s-40 62 -40 106v7h12v-10c0 -39.333 12.333 -71.166 37 -95.499s57 -36.5 97 -36.5c42 0 76 13 102 39s39 60 39 102v196
c-10 -32 -27.667 -56 -53 -72s-55.333 -24 -90 -24c-80.667 0 -131 38.667 -151 116c-2 7.33301 -3 34.666 -3 81.999c0 40.667 1 64.334 3 71.001c21.333 77.333 70.333 116 147 116c40 0 73.333 -10.167 100 -30.5s44.334 -48.5 53.001 -84.5c4 -16.667 6 -42.667 6 -78z
M310.999 288.999c25.333 20.667 41 48.332 47 82.999c2 17.333 3 42 3 74c0 27.333 -1.33301 48 -4 62c-6 34 -21.667 61.333 -47 82s-56.333 31 -93 31c-37.333 0 -68.333 -10.167 -93 -30.5s-40.334 -48.166 -47.001 -83.499c-0.666992 -6 -1.16699 -15.333 -1.5 -28
s-0.166016 -27 0.500977 -43c0 -40 0.333008 -61.667 1 -65c5.33301 -34 21 -61.333 47 -82s57.333 -31 94 -31s67.667 10.333 93 31z" />
    <glyph glyph-name="colon" unicode=":" horiz-adv-x="270" 
d="M110 281.5c-6.66699 7 -10 15.5 -10 25.5c0 9.33301 3.33301 17.333 10 24s15 10 25 10c9.33301 0 17.5 -3.33301 24.5 -10s10.5 -14.667 10.5 -24c0 -10 -3.5 -18.5 -10.5 -25.5s-15.167 -10.5 -24.5 -10.5c-10 0 -18.333 3.5 -25 10.5zM110 5.5
c-6.66699 7 -10 15.5 -10 25.5c0 9.33301 3.33301 17.333 10 24s15 10 25 10c9.33301 0 17.5 -3.33301 24.5 -10s10.5 -14.667 10.5 -24c0 -10 -3.5 -18.5 -10.5 -25.5s-15.167 -10.5 -24.5 -10.5c-10 0 -18.333 3.5 -25 10.5z" />
    <glyph glyph-name="semicolon" unicode=";" horiz-adv-x="274" 
d="M147 127l-37 -189h-10l36 189h11zM114 281.5c-6.66699 7 -10 15.5 -10 25.5c0 9.33301 3.33301 17.333 10 24s15 10 25 10c9.33301 0 17.5 -3.33301 24.5 -10s10.5 -14.667 10.5 -24c0 -10 -3.5 -18.5 -10.5 -25.5s-15.167 -10.5 -24.5 -10.5c-10 0 -18.333 3.5 -25 10.5
z" />
    <glyph glyph-name="equal" unicode="=" horiz-adv-x="380" 
d="M345 236v-10h-310v10h310zM345 378v-10h-310v10h310z" />
    <glyph glyph-name="question" unicode="?" horiz-adv-x="407" 
d="M220.5 267c11 16.667 22.668 30.668 35.001 42.001s20.5 18.666 24.5 21.999c3.33301 2.66699 12.666 11.167 27.999 25.5s27.333 31.333 36 51s13 41.167 13 64.5c0 26.667 -6.5 51 -19.5 73s-30.667 39.333 -53 52s-46.833 19 -73.5 19s-51.167 -6.5 -73.5 -19.5
s-40 -30.667 -53 -53s-19.5 -46.833 -19.5 -73.5v-40h-10v40c0 28 7 54 21 78s33 43 57 57s50 21 78 21c28.667 0 54.834 -6.83301 78.501 -20.5s42.5 -32.334 56.5 -56.001s21 -49.5 21 -77.5c0 -25.333 -4 -47 -12 -65s-16 -31.333 -24 -40s-23 -23.334 -45 -44.001
c-3.33301 -3.33301 -12.333 -11.666 -27 -24.999s-25.834 -28 -33.501 -44s-11.5 -33.333 -11.5 -52v-58h-10v58c0 26.667 5.5 48.334 16.5 65.001zM186.001 5.50098c-6.66699 7 -10 15.5 -10 25.5c0 9.33301 3.33301 17.333 10 24s15 10 25 10
c9.33301 0 17.5 -3.33301 24.5 -10s10.5 -14.667 10.5 -24c0 -10 -3.5 -18.5 -10.5 -25.5s-15.167 -10.5 -24.5 -10.5c-10 0 -18.333 3.5 -25 10.5z" />
    <glyph glyph-name="at" unicode="@" horiz-adv-x="758" 
d="M552 519c40 -21.333 71.002 -51.1631 93.002 -89.4961s33 -81.833 33 -130.5c0 -14.667 -1 -30 -3 -46c-6.66699 -50 -22.5 -89.667 -47.5 -119s-55.167 -44 -90.5 -44c-24.667 0 -44.667 7 -60 21s-24.333 32.667 -27 56c-8.66699 -24.667 -22.167 -43.667 -40.5 -57
s-40.833 -20 -67.5 -20c-30.667 0 -54.834 8.16699 -72.501 24.5s-26.5 38.166 -26.5 65.499c0 16.667 2 39 6 67c4 36.667 9 63.667 15 81c8 24.667 22.333 44.167 43 58.5s44.334 21.5 71.001 21.5c23.333 0 43 -5.5 59 -16.5s26.667 -25.833 32 -44.5l7 56h11l-25 -206
c-0.666992 -3.33301 -1 -8.33301 -1 -15c0 -24 7.33301 -43.667 22 -59s33.334 -23 56.001 -23c31.333 0 58 13.5 80 40.5s36.667 63.833 44 110.5c2 15.333 3 30.333 3 45c0 46.667 -10.667 88.5 -32 125.5s-51.333 66 -90 87s-83 31.5 -133 31.5s-99.5 -11.333 -148.5 -34
s-89.667 -57.834 -122 -105.501s-48.5 -106.167 -48.5 -175.5c0 -54.667 10.167 -102.334 30.5 -143.001s49.166 -72 86.499 -94s81.333 -33 132 -33c31.333 0 62.666 4 93.999 12s54 17.667 68 29l7 -8c-16.667 -14 -41.167 -24.833 -73.5 -32.5s-64.833 -11.5 -97.5 -11.5
c-52.667 0 -98.5 11.667 -137.5 35s-69 56.5 -90 99.5s-31.5 93.5 -31.5 151.5c0 70.667 16.667 130.167 50 178.5s75.666 84.166 126.999 107.499s104 35 158 35c51.333 0 97 -10.667 137 -32zM407.002 122.003c18.667 14 31.332 32.666 37.999 55.999
c2 6.66699 4 14.834 6 24.501s4 25.167 6 46.5c4 34.667 6 58.334 6 71.001c0 23.333 -7.66699 42.166 -23 56.499s-35.333 21.5 -60 21.5c-23.333 0 -44.166 -5.66699 -62.499 -17s-31.5 -26.333 -39.5 -45c-6.66699 -16 -12.334 -44.667 -17.001 -86l-6 -48
c-1.33301 -10.667 -1.66602 -19 -0.999023 -25c0.666992 -23.333 9.16699 -41.833 25.5 -55.5s37.833 -20.5 64.5 -20.5c23.333 0 44.333 7 63 21z" />
    <glyph glyph-name="A" unicode="A" horiz-adv-x="476" 
d="M377 196h-279l-64 -196h-12l208 628h14l210 -628h-12zM374 205l-135 407h-4l-134 -407h273z" />
    <glyph glyph-name="B" unicode="B" horiz-adv-x="547" 
d="M434.5 270c21.667 -28 32.5 -61.998 32.5 -101.998c0 -49.333 -15.167 -89 -45.5 -119s-70.833 -45 -121.5 -45h-210v624h205c50 0 90 -14.5 120 -43.5s45 -66.833 45 -113.5c0 -36.667 -10.167 -67.834 -30.5 -93.501s-48.5 -42.834 -84.5 -51.501
c38 -9.33301 67.833 -28 89.5 -56zM102 332.002h194.001c45.333 0 82.166 12.667 110.499 38s42.5 59 42.5 101c0 43.333 -14.333 78.5 -43 105.5s-65.667 40.5 -111 40.5h-193v-285zM412.001 57.502c28.667 27.667 42.999 64.5 42.999 110.5s-14.667 83 -44 111
s-67.666 42 -114.999 42h-194v-305h198c46 0 83.333 13.833 112 41.5z" />
    <glyph glyph-name="C" unicode="C" horiz-adv-x="547" 
d="M175 17c-30 15.333 -53.333 35.3369 -70 60.0039s-25 50.667 -25 78v315c0 27.333 8.33301 53.333 25 78s40 44.667 70 60s63.667 23 101 23c39.333 0 73.833 -7.5 103.5 -22.5s52.5 -34.833 68.5 -59.5s24 -51 24 -79v-27l-10 -1v28
c0 25.333 -7.83301 49.666 -23.5 72.999s-37.667 42.166 -66 56.499s-60.5 21.5 -96.5 21.5c-34 0 -65.333 -7.33301 -94 -22s-51.167 -33.5 -67.5 -56.5s-24.5 -47.167 -24.5 -72.5v-315c0 -25.333 8.16699 -49.5 24.5 -72.5s38.833 -41.833 67.5 -56.5s60 -22 94 -22
c36 0 68.167 7.16699 96.5 21.5s50.333 33.166 66 56.499s23.5 47.666 23.5 72.999v25l10 1v-26c0 -28 -8 -54.333 -24 -79s-38.833 -44.5 -68.5 -59.5s-64.167 -22.5 -103.5 -22.5c-37.333 0 -71 7.66699 -101 23z" />
    <glyph glyph-name="D" unicode="D" horiz-adv-x="547" 
d="M298 628c52.667 0 94 -14.168 124 -42.501s45 -67.166 45 -116.499v-311c0 -49.333 -15 -88 -45 -116s-71.333 -42 -124 -42h-208v628h208zM413.5 49.999c27.667 26 41.5 61.667 41.5 107v312c0 46 -13.833 82.167 -41.5 108.5s-65.5 39.5 -113.5 39.5h-198v-606h198
c48 0 85.833 13 113.5 39z" />
    <glyph glyph-name="E" unicode="E" horiz-adv-x="540" 
d="M102 617v-297h270v-11h-270v-298h368v-11h-380v628h380v-11h-368z" />
    <glyph glyph-name="F" unicode="F" horiz-adv-x="491" 
d="M102 617v-295h269v-11h-269v-311h-12v628h379v-11h-367z" />
    <glyph glyph-name="G" unicode="G" horiz-adv-x="543" 
d="M133 43c-35.333 32.667 -53.001 75.666 -53.001 128.999v281c0 53.333 17.667 96.333 53 129s81.666 49 138.999 49c36.667 0 69.5 -6.5 98.5 -19.5s51.667 -31.167 68 -54.5s24.5 -49.666 24.5 -78.999v-44h-12v45c0 26.667 -7.66699 50.834 -23 72.501
s-36.666 38.5 -63.999 50.5s-58 18 -92 18c-54 0 -97.5 -15.167 -130.5 -45.5s-49.5 -70.5 -49.5 -120.5v-283c0 -50 16.5 -90.167 49.5 -120.5s76.5 -45.5 130.5 -45.5c61.333 0 106.5 12.167 135.5 36.5s43.5 62.166 43.5 113.499v131h-166v11h178v-152
c0 -48.667 -16.333 -86 -49 -112s-80 -39 -142 -39c-57.333 0 -103.666 16.333 -138.999 49z" />
    <glyph glyph-name="H" unicode="H" horiz-adv-x="603" 
d="M513 628v-628h-12v305h-399v-305h-12v628h12v-312h399v312h12z" />
    <glyph glyph-name="I" unicode="I" horiz-adv-x="192" 
d="M102 628v-628h-12v628h12z" />
    <glyph glyph-name="J" unicode="J" horiz-adv-x="525" 
d="M121 38.5c-34 31.667 -51 73.5 -51 125.5v79h12v-80c0 -48.667 15.833 -87.667 47.5 -117s73.5 -44 125.5 -44s94 14.833 126 44.5s48 68.5 48 116.5v465h11v-464c0 -52.667 -16.833 -94.667 -50.5 -126s-78.5 -47 -134.5 -47c-55.333 0 -100 15.833 -134 47.5z" />
    <glyph glyph-name="K" unicode="K" horiz-adv-x="511" 
d="M102 628v-362l352 362h12l-241 -254l264 -370h-15l-257 361l-115 -113v-248h-12v624h12z" />
    <glyph glyph-name="L" unicode="L" horiz-adv-x="469" 
d="M102 628v-617h345v-11h-357v628h12z" />
    <glyph glyph-name="M" unicode="M" horiz-adv-x="606" 
d="M516 628v-628h-12v610l-194 -312h-12l-196 311v-609h-12v628h14l199 -317l199 317h14z" />
    <glyph glyph-name="N" unicode="N" horiz-adv-x="577" 
d="M487 628v-624h-13l-372 603v-603h-12v624h14l372 -604v604h11z" />
    <glyph glyph-name="O" unicode="O" horiz-adv-x="552" 
d="M175 17c-30 15.333 -53.333 35.333 -70 60s-25 50.667 -25 78v315c0 27.333 8.33301 53.333 25 78s40 44.667 70 60s63.667 23 101 23c39.333 0 73.833 -7.5 103.5 -22.5s52.5 -34.833 68.5 -59.5s24 -51 24 -79v-315c0 -28 -8 -54.333 -24 -79
s-38.833 -44.5 -68.5 -59.5s-64.167 -22.5 -103.5 -22.5c-37.333 0 -71 7.66699 -101 23zM371.5 25.5c27.667 14.333 49.167 33.166 64.5 56.499s23 47.666 23 72.999v315c0 25.333 -7.66699 49.666 -23 72.999s-36.833 42.166 -64.5 56.499s-59.5 21.5 -95.5 21.5
c-34 0 -65 -7.16699 -93 -21.5s-50 -33.166 -66 -56.499s-24 -47.666 -24 -72.999v-315c0 -25.333 8 -49.666 24 -72.999s38 -42.166 66 -56.499s59 -21.5 93 -21.5c36 0 67.833 7.16699 95.5 21.5z" />
    <glyph glyph-name="P" unicode="P" horiz-adv-x="497" 
d="M432 584.5c28.667 -29 43 -67.833 43 -116.5c0 -47.333 -14.333 -85.5 -43 -114.5s-66.667 -43.5 -114 -43.5h-216v-310h-12v628h228c47.333 0 85.333 -14.5 114 -43.5zM423.5 361.5c26.333 27 39.5 62.501 39.5 106.501c0 45.333 -13.167 81.666 -39.5 108.999
s-60.833 41 -103.5 41h-218v-297h218c42.667 0 77.167 13.5 103.5 40.5z" />
    <glyph glyph-name="Q" unicode="Q" horiz-adv-x="552" 
d="M438.5 63.5c-22.333 -27.667 -52.832 -47.5 -91.499 -59.5h115v-10h-187c-37.333 0 -70.833 7.66699 -100.5 23s-52.834 35.333 -69.501 60s-25 50.667 -25 78v315c0 27.333 8.33301 53.333 25 78s40 44.667 70 60s63.667 23 101 23c39.333 0 73.833 -7.5 103.5 -22.5
s52.5 -34.833 68.5 -59.5s24 -51 24 -79v-315c0 -33.333 -11.167 -63.833 -33.5 -91.5zM371.501 25.5c27.667 14.333 49.167 33.166 64.5 56.499s23 47.666 23 72.999v315c0 25.333 -7.66699 49.666 -23 72.999s-36.833 42.166 -64.5 56.499s-59.5 21.5 -95.5 21.5
c-34 0 -65 -7.16699 -93 -21.5s-50 -33.166 -66 -56.499s-24 -47.666 -24 -72.999v-315c0 -25.333 8 -49.666 24 -72.999s38 -42.166 66 -56.499s59 -21.5 93 -21.5c36 0 67.833 7.16699 95.5 21.5z" />
    <glyph glyph-name="R" unicode="R" horiz-adv-x="497" 
d="M317 310l148 -310h-13l-148 310h-202v-310h-12v628h228c47.333 0 85.333 -14.5 114 -43.5s43 -67.833 43 -116.5c0 -47.333 -14.333 -85.5 -43 -114.5s-66.667 -43.5 -114 -43.5h-1zM102 321l218 0.000976562c42.667 0 77.167 13.5 103.5 40.5s39.5 62.5 39.5 106.5
c0 45.333 -13.167 81.666 -39.5 108.999s-60.833 41 -103.5 41h-218v-297z" />
    <glyph glyph-name="S" unicode="S" horiz-adv-x="515" 
d="M114 36.5c-36 27 -53.998 63.834 -53.998 110.501v37h11v-35c0 -44 17.333 -78.667 52 -104s81.667 -38 141 -38c56.667 0 100.667 12 132 36s47 57.667 47 101c0 26 -6.33301 48.5 -19 67.5s-32.5 37.167 -59.5 54.5s-64.5 36.666 -112.5 57.999
c-48 20.667 -83.333 37.334 -106 50.001s-40.334 28.167 -53.001 46.5s-19 41.833 -19 70.5c0 46 15.167 81.167 45.5 105.5s74.5 36.5 132.5 36.5c62 0 110.167 -13.333 144.5 -40s51.5 -64 51.5 -112v-27h-11v25c0 44.667 -16.5 79.667 -49.5 105s-78.5 38 -136.5 38
c-53.333 0 -94.333 -11 -123 -33s-43 -54 -43 -96c0 -27.333 6.33301 -49.833 19 -67.5s30.167 -32.5 52.5 -44.5s57.166 -28 104.499 -48c69.333 -29.333 119 -57.5 149 -84.5s45 -61.167 45 -102.5c0 -46.667 -17 -83.334 -51 -110.001s-81.333 -40 -142 -40
c-62.667 0 -112 13.5 -148 40.5z" />
    <glyph glyph-name="T" unicode="T" horiz-adv-x="462" 
d="M440 618h-203v-618h-12v618h-203v10h418v-10z" />
    <glyph glyph-name="U" unicode="U" horiz-adv-x="562" 
d="M180 17c-30 15.333 -53.333 35.333 -70 60s-25 50.667 -25 78v473h13v-473c0 -25.333 8 -49.666 24 -72.999s38 -42.166 66 -56.499s59 -21.5 93 -21.5c36 0 67.833 7.16699 95.5 21.5s49.167 33.166 64.5 56.499s23 47.666 23 72.999v473h13v-473
c0 -28 -8 -54.333 -24 -79s-38.833 -44.5 -68.5 -59.5s-64.167 -22.5 -103.5 -22.5c-37.333 0 -71 7.66699 -101 23z" />
    <glyph glyph-name="V" unicode="V" horiz-adv-x="473" 
d="M451 628l-208 -628h-14l-207 628h11l203 -615l205 615h10z" />
    <glyph glyph-name="W" unicode="W" horiz-adv-x="892" 
d="M870 628l-208 -628h-14l-202 613l-203 -613h-14l-207 628h11l203 -615l205 615h11l203 -615l205 615h10z" />
    <glyph glyph-name="X" unicode="X" horiz-adv-x="453" 
d="M22 628h12l192 -305l193 305h12l-198 -315l198 -313h-12l-192 304l-193 -304h-12l199 314z" />
    <glyph glyph-name="Y" unicode="Y" horiz-adv-x="441" 
d="M22 628h11l187 -313l188 313h11l-193 -322v-302h-12v302z" />
    <glyph glyph-name="Z" unicode="Z" horiz-adv-x="420" 
d="M387 617h-365v11h376v-14l-364 -603h364v-11h-376v14z" />
    <glyph glyph-name="bracketleft" unicode="[" horiz-adv-x="198" 
d="M142 667v-11h-105v-744h106v-11h-118v766h117z" />
    <glyph glyph-name="backslash" unicode="\" horiz-adv-x="249" 
d="M209 4l-139 623h12l139 -623h-12z" />
    <glyph glyph-name="bracketright" unicode="]" horiz-adv-x="168" 
d="M26 -88h105v744h-106v11h118v-766h-117v11z" />
    <glyph glyph-name="underscore" unicode="_" horiz-adv-x="341" 
d="M311 18v-14h-281v14h281z" />
    <glyph glyph-name="a" unicode="a" horiz-adv-x="404" 
d="M317 412.5c24.667 -25 37.001 -61.168 37.001 -108.501v-304h-12v79c-10.667 -28.667 -30.667 -50.167 -60 -64.5s-62.666 -21.5 -99.999 -21.5c-39.333 0 -72.833 9.5 -100.5 28.5s-41.5 49.167 -41.5 90.5s16 74 48 98s76.333 36 133 36h121v61
c0 42.667 -11.667 75.334 -35 98.001s-57 34 -101 34c-36.667 0 -66.834 -7.83301 -90.501 -23.5s-37.5 -37.167 -41.5 -64.5l-12 1c5.33301 30 21.166 53.833 47.499 71.5s59.5 26.5 99.5 26.5c47.333 0 83.333 -12.5 108 -37.5zM294.001 34.499
c32 20.333 48 50.165 48 89.498v111h-124c-50.667 0 -91 -11.167 -121 -33.5s-45 -52.166 -45 -89.499c0 -33.333 11.5 -59.666 34.5 -78.999s54.5 -29 94.5 -29c43.333 0 81 10.167 113 30.5z" />
    <glyph glyph-name="b" unicode="b" horiz-adv-x="457" 
d="M353.5 421c29 -21.333 43.5 -51 43.5 -89v-216c0 -38.667 -14.5 -68.667 -43.5 -90s-65.5 -32 -109.5 -32c-33.333 0 -62.5 6 -87.5 18s-43.167 29.667 -54.5 53v-65h-12v628h12v-246c11.333 22.667 29.5 40.167 54.5 52.5s53.833 18.5 86.5 18.5
c44.667 0 81.5 -10.667 110.5 -32zM385 332c0 36 -13.166 63.501 -39.499 82.501s-60.5 28.5 -102.5 28.5c-38 0 -70 -8.16699 -96 -24.5s-41 -39.833 -45 -70.5v-248c4 -30.667 19 -54.334 45 -71.001s58.333 -25 97 -25c41.333 0 75.166 9.66699 101.499 29
s39.5 47 39.5 83v216z" />
    <glyph glyph-name="c" unicode="c" horiz-adv-x="424" 
d="M114 27c-27.333 20.667 -45.333 48.6699 -54 84.0029c-6.66699 27.333 -10 65.333 -10 114c0 43.333 3.33301 81 10 113c8 35.333 26 63.333 54 84s61.333 31 100 31s72.334 -9.83301 101.001 -29.5s46.667 -45.167 54 -76.5c1.33301 -4.66699 3 -13.334 5 -26.001
l-12 -1l-3 18c-6 31.333 -22.5 56.5 -49.5 75.5s-58.833 28.5 -95.5 28.5c-38 0 -70 -10.167 -96 -30.5s-42.333 -47.833 -49 -82.5c-4.66699 -23.333 -7 -58.333 -7 -105c0 -48.667 2.33301 -83.334 7 -104.001c7.33301 -35.333 23.833 -63 49.5 -83s57.5 -30 95.5 -30
c37.333 0 69.666 9.16699 96.999 27.5s43.333 42.166 48 71.499l2 14l11 -1l-3 -17c-6.66699 -32 -24.334 -57.667 -53.001 -77s-62.667 -29 -102 -29s-72.666 10.333 -99.999 31z" />
    <glyph glyph-name="d" unicode="d" horiz-adv-x="458" 
d="M368 628l-0.000976562 -628h-12v67c-10.667 -23.333 -28.667 -41.333 -54 -54s-54.666 -19 -87.999 -19c-44.667 0 -81.5 10.667 -110.5 32s-43.5 51 -43.5 89v216c0 38.667 14.5 68.667 43.5 90s65.5 32 109.5 32c34 0 63.667 -6.33301 89 -19s43.333 -30.667 54 -54
v248h12zM315.999 33c26.667 19.333 39.999 46.667 39.999 82v216c0 36 -13.333 63.667 -40 83s-61 29 -103 29c-41.333 0 -75.166 -9.66699 -101.499 -29s-39.5 -47 -39.5 -83v-216c0 -36 13.167 -63.5 39.5 -82.5s60.5 -28.5 102.5 -28.5c41.333 0 75.333 9.66699 102 29z
" />
    <glyph glyph-name="e" unicode="e" horiz-adv-x="420" 
d="M62 224l-0.000976562 -85c0 -28 6.83301 -51.833 20.5 -71.5s31.667 -34.667 54 -45s45.833 -15.5 70.5 -15.5c34.667 0 65.834 8.5 93.501 25.5s44.834 39.5 51.501 67.5h11c-6 -30.667 -23.833 -55.667 -53.5 -75s-63.834 -29 -102.501 -29
c-26.667 0 -52 5.66699 -76 17s-43.5 27.833 -58.5 49.5s-22.5 47.167 -22.5 76.5v168c0 28.667 7.66699 54.167 23 76.5s35 39.5 59 51.5s49 18 75 18c46 0 84.667 -13.167 116 -39.5s47 -61.833 47 -106.5v-81zM138.499 425.5
c-22.333 -11 -40.668 -26.8311 -55.001 -47.498s-21.5 -44.334 -21.5 -71.001v-72l297 2v70c0 41.333 -14.833 74.166 -44.5 98.499s-65.5 36.5 -107.5 36.5c-23.333 0 -46.166 -5.5 -68.499 -16.5z" />
    <glyph glyph-name="f" unicode="f" horiz-adv-x="283" 
d="M139 585c-14.667 -21.333 -22 -54 -22 -98v-91h131v-10h-131v-386h-11v386h-71v10h71v91c0 48 8.33301 83.5 25 106.5s47.667 34.5 93 34.5h24v-11h-24c-42 0 -70.333 -10.667 -85 -32z" />
    <glyph glyph-name="g" unicode="g" horiz-adv-x="448" 
d="M368 453l-0.000976562 -473c0 -121.333 -69.667 -180 -209 -176v11c131.333 -4 197 51 197 165v87c-10.667 -23.333 -28.667 -41.333 -54 -54s-54.666 -19 -87.999 -19c-44.667 0 -81.5 10.667 -110.5 32s-43.5 51 -43.5 89v216c0 38.667 14.5 68.667 43.5 90
s65.5 32 109.5 32c34 0 63.667 -6.33301 89 -19s43.333 -30.667 54 -54v73h12zM315.999 33c26.667 19.333 39.999 46.667 39.999 82v216c0 36 -13.333 63.667 -40 83s-61 29 -103 29c-41.333 0 -75.166 -9.66699 -101.499 -29s-39.5 -47 -39.5 -83v-216
c0 -36 13.167 -63.5 39.5 -82.5s60.5 -28.5 102.5 -28.5c41.333 0 75.333 9.66699 102 29z" />
    <glyph glyph-name="h" unicode="h" horiz-adv-x="458" 
d="M354.5 421c29 -21.333 43.501 -51.001 43.501 -89.001v-332h-12v332c0 36 -13.167 63.5 -39.5 82.5s-60.5 28.5 -102.5 28.5c-41.333 0 -75.333 -9.66699 -102 -29s-40 -46.666 -40 -81.999v-332h-12v628h12v-248c10.667 23.333 28.667 41.333 54 54s54.666 19 87.999 19
c44.667 0 81.5 -10.667 110.5 -32z" />
    <glyph glyph-name="i" unicode="i" horiz-adv-x="240" 
d="M95 561.5c-6.66699 7 -10 15.5 -10 25.5c0 9.33301 3.33301 17.333 10 24s15 10 25 10c9.33301 0 17.5 -3.33301 24.5 -10s10.5 -14.667 10.5 -24c0 -10 -3.5 -18.5 -10.5 -25.5s-15.167 -10.5 -24.5 -10.5c-10 0 -18.333 3.5 -25 10.5zM126 453v-453h-12v453h12z" />
    <glyph glyph-name="j" unicode="j" horiz-adv-x="248" 
d="M98 561.5c-6.66699 7 -10 15.5 -10 25.5c0 9.33301 3.33301 17.333 10 24s15 10 25 10c9.33301 0 17.5 -3.33301 24.5 -10s10.5 -14.667 10.5 -24c0 -10 -3.5 -18.5 -10.5 -25.5s-15.167 -10.5 -24.5 -10.5c-10 0 -18.333 3.5 -25 10.5zM87 -156.5
c18.667 19 27.999 44.833 27.999 77.5v532h12v-532c0 -36 -10.5 -64.5 -31.5 -85.5s-49.5 -32.167 -85.5 -33.5v11c32.667 1.33301 58.334 11.5 77.001 30.5z" />
    <glyph glyph-name="k" unicode="k" horiz-adv-x="432" 
d="M102 628v-434l253 252h15l-121 -120l143 -322h-13l-139 312l-138 -138v-174h-12v624h12z" />
    <glyph glyph-name="l" unicode="l" horiz-adv-x="202" 
d="M167 11v-11h-77v628h12v-617h65z" />
    <glyph glyph-name="m" unicode="m" horiz-adv-x="744" 
d="M640.5 421c29 -21.333 43.5 -51.002 43.5 -89.002v-332h-12v332c0 36 -13.167 63.5 -39.5 82.5s-60.5 28.5 -102.5 28.5c-41.333 0 -75.333 -9.66699 -102 -29s-40 -46.666 -40 -81.999v-332h-12v332c0 36 -13.167 63.5 -39.5 82.5s-60.5 28.5 -102.5 28.5
c-41.333 0 -75.333 -9.66699 -102 -29s-40 -46.666 -40 -81.999v-332h-12v453h12v-73c10.667 23.333 28.667 41.333 54 54s54.666 19 87.999 19c36.667 0 68.667 -7.5 96 -22.5s45 -36.167 53 -63.5c8 27.333 25.333 48.5 52 63.5s58.334 22.5 95.001 22.5
c44.667 0 81.5 -10.667 110.5 -32z" />
    <glyph glyph-name="n" unicode="n" horiz-adv-x="448" 
d="M344.5 421c29 -21.333 43.501 -51.001 43.501 -89.001v-332h-12v332c0 36 -13.167 63.5 -39.5 82.5s-60.5 28.5 -102.5 28.5c-41.333 0 -75.333 -9.66699 -102 -29s-40 -46.666 -40 -81.999v-332h-12v453h12v-73c10.667 23.333 28.667 41.333 54 54s54.666 19 87.999 19
c44.667 0 81.5 -10.667 110.5 -32z" />
    <glyph glyph-name="o" unicode="o" horiz-adv-x="421" 
d="M94 31c-29.333 24.667 -44 57.334 -44 98.001v189c0 25.333 7 48.333 21 69s33.333 36.834 58 48.501s52 17.5 82 17.5s57.167 -5.83301 81.5 -17.5s43.5 -27.834 57.5 -48.501s21 -43.667 21 -69v-189c0 -40.667 -14.5 -73.334 -43.5 -98.001s-67.833 -37 -116.5 -37
s-87.667 12.333 -117 37zM320.5 38c27 22.667 40.499 53 40.499 91v189c0 36 -14.167 65.833 -42.5 89.5s-64.166 35.5 -107.499 35.5s-79.333 -11.833 -108 -35.5s-43 -53.5 -43 -89.5v-189c0 -38 13.667 -68.333 41 -91s64 -34 110 -34s82.5 11.333 109.5 34z" />
    <glyph glyph-name="p" unicode="p" horiz-adv-x="458" 
d="M354.5 421c29 -21.333 43.501 -51 43.501 -89v-216c0 -38.667 -14.5 -68.667 -43.5 -90s-65.5 -32 -109.5 -32c-34 0 -63.667 6.33301 -89 19s-43.333 30.667 -54 54v-265h-12v651h12v-73c10.667 23.333 28.667 41.333 54 54s54.666 19 87.999 19
c44.667 0 81.5 -10.667 110.5 -32zM386.001 332c0 36 -13.166 63.499 -39.499 82.499s-60.5 28.5 -102.5 28.5c-41.333 0 -75.333 -9.66699 -102 -29s-40 -46.666 -40 -81.999v-216c0 -36 13.333 -63.667 40 -83s61 -29 103 -29c41.333 0 75.166 9.66699 101.499 29
s39.5 47 39.5 83v216z" />
    <glyph glyph-name="q" unicode="q" horiz-adv-x="459" 
d="M369 453l-0.000976562 -651h-12v267c-10 -24 -27.833 -42.5 -53.5 -55.5s-55.5 -19.5 -89.5 -19.5c-44.667 0 -81.5 10.667 -110.5 32s-43.5 51 -43.5 89v216c0 38.667 14.5 68.667 43.5 90s65.5 32 109.5 32c34.667 0 64.834 -6.5 90.501 -19.5s43.5 -31.833 53.5 -56.5
v76h12zM355.999 331c0 36 -13.334 63.668 -40.001 83.001s-61 29 -103 29c-41.333 0 -75.166 -9.66699 -101.499 -29s-39.5 -47 -39.5 -83v-216c0 -36 13.167 -63.5 39.5 -82.5s60.5 -28.5 102.5 -28.5c41.333 0 75.333 9.66699 102 29s40 46.666 40 81.999v216z" />
    <glyph glyph-name="r" unicode="r" horiz-adv-x="292" 
d="M282 439l-7.00098 -14c-13.333 7.33301 -29.666 11 -48.999 11c-24 0 -46.167 -6.66699 -66.5 -20s-36.5 -31.5 -48.5 -54.5s-18.333 -48.167 -19 -75.5v-286h-12v453h12v-119c8.66699 35.333 25 63.5 49 84.5s52.333 31.5 85 31.5c22 0 40.667 -3.66699 56 -11z" />
    <glyph glyph-name="s" unicode="s" horiz-adv-x="395" 
d="M92.5 31.5c-28.333 21 -42.5 47.167 -42.5 78.5v18h12v-18c0 -28 13 -51.5 39 -70.5s58.333 -28.5 97 -28.5c39.333 0 71.666 9.83301 96.999 29.5s38 44.834 38 75.501c0 21.333 -6.33301 38.666 -19 51.999s-27.167 23.333 -43.5 30s-42.166 15.667 -77.499 27
c-32 10 -57.333 19.333 -76 28s-34.167 20 -46.5 34s-18.5 32 -18.5 54c0 33.333 13.167 60 39.5 80s61.166 30 104.499 30s78.666 -10.167 105.999 -30.5s41 -46.5 41 -78.5v-8h-12v8c0 28.667 -12.667 52.167 -38 70.5s-57.666 27.5 -96.999 27.5s-71.166 -9 -95.499 -27
s-36.5 -41.667 -36.5 -71c0 -28 11 -49.167 33 -63.5s54.667 -28.166 98 -41.499c34.667 -10.667 61.5 -20 80.5 -28s35.333 -19.5 49 -34.5s20.5 -34.167 20.5 -57.5c0 -34.667 -13.5 -62.834 -40.5 -84.501s-62.167 -32.5 -105.5 -32.5
c-42.667 0 -78.167 10.5 -106.5 31.5z" />
    <glyph glyph-name="t" unicode="t" horiz-adv-x="286" 
d="M246 11v-11h-23c-40 0 -69.167 8.5 -87.5 25.5s-27.5 44.5 -27.5 82.5v324h-68v10h68v114h11v-114h125v-10h-125v-325c0 -34 8.16699 -58.5 24.5 -73.5s42.833 -22.5 79.5 -22.5h23z" />
    <glyph glyph-name="u" unicode="u" horiz-adv-x="428" 
d="M368 453l-0.000976562 -452.999h-12v73c-10.667 -23.333 -28.667 -41.333 -54 -54s-54.666 -19 -87.999 -19c-44.667 0 -81.5 10.667 -110.5 32s-43.5 51 -43.5 89v332h12v-332c0 -36 13.167 -63.5 39.5 -82.5s60.5 -28.5 102.5 -28.5c41.333 0 75.333 9.66699 102 29
s40 46.666 40 81.999v332h12z" />
    <glyph glyph-name="v" unicode="v" horiz-adv-x="384" 
d="M44 453l148 -434l148 434h14l-155 -453h-14l-155 453h14z" />
    <glyph glyph-name="w" unicode="w" horiz-adv-x="694" 
d="M664 453l-155 -453h-14l-148 433l-148 -433h-14l-155 453h14l148 -434l148 434h14l148 -434l148 434h14z" />
    <glyph glyph-name="x" unicode="x" horiz-adv-x="382" 
d="M30 453h13l148 -217l148 217h13l-154 -226l154 -227h-13l-148 217l-148 -217h-13l154 226z" />
    <glyph glyph-name="y" unicode="y" horiz-adv-x="394" 
d="M64 -185c23.333 0.666992 41.332 5.33301 53.999 14s23.667 23.5 33 44.5s22.333 56.5 39 106.5l-160 447h12l155 -431l153 431h14l-179 -502c-12.667 -36 -24.5 -62.5 -35.5 -79.5s-22.667 -28.167 -35 -33.5s-29.166 -8 -50.499 -8h-9v11h9z" />
    <glyph glyph-name="z" unicode="z" horiz-adv-x="392" 
d="M342 442h-299v11h309v-16l-302 -426h299v-11h-309v16z" />
    <glyph glyph-name="braceleft" unicode="{" horiz-adv-x="247" 
d="M94.5 -78c-11 14 -16.498 37.6621 -16.498 70.9951v202c0 27.333 -3.83301 47.833 -11.5 61.5s-19.834 21.834 -36.501 24.501v14c17.333 2.66699 29.666 10.334 36.999 23.001s11 33 11 61v195c0 34 5.33301 58 16 72s29 21 55 21h43v-11h-45
c-20 0 -34.5 -6.16699 -43.5 -18.5s-13.5 -32.166 -13.5 -59.499v-195c0 -30 -3.33301 -52.333 -10 -67s-18.667 -24 -36 -28c16.667 -4.66699 28.5 -14.667 35.5 -30s10.5 -37.666 10.5 -66.999v-201c0 -27.333 4.5 -47.166 13.5 -59.499s23.5 -18.5 43.5 -18.5h45v-11h-43
c-25.333 0 -43.5 7 -54.5 21z" />
    <glyph glyph-name="braceright" unicode="}" horiz-adv-x="247" 
d="M55 -88l45.002 0.00488281c20 0 34.5 6.16699 43.5 18.5s13.5 32.166 13.5 59.499v201c0 29.333 3.5 51.666 10.5 66.999s18.833 25.333 35.5 30c-17.333 4 -29.333 13.333 -36 28s-10 37 -10 67v195c0 27.333 -4.5 47.166 -13.5 59.499s-23.5 18.5 -43.5 18.5h-45v11h43
c26 0 44.333 -7 55 -21s16 -38 16 -72v-195c0 -28 3.66699 -48.333 11 -61s19.666 -20.334 36.999 -23.001v-14c-16.667 -2.66699 -28.834 -10.834 -36.501 -24.501s-11.5 -34.167 -11.5 -61.5v-202c0 -33.333 -5.5 -57 -16.5 -71s-29.167 -21 -54.5 -21h-43v11z" />
    <glyph glyph-name="uni00A0" unicode="&#xa0;" horiz-adv-x="300" 
 />
    <glyph glyph-name="guillemotleft" unicode="&#xab;" horiz-adv-x="429" 
d="M150.5 373.5c-12.333 -29 -18.501 -59.501 -18.501 -91.501c0 -30.667 5.83301 -60.167 17.5 -88.5s28.167 -53.5 49.5 -75.5l-8 -6c-22 22.667 -39 48.667 -51 78s-18 60 -18 92c0 33.333 6.5 65.333 19.5 96s31.833 57.334 56.5 80.001l6 -8
c-23.333 -22 -41.166 -47.5 -53.499 -76.5zM253.499 373.499c-12.333 -29 -18.501 -59.501 -18.501 -91.501c0 -30.667 5.83301 -60.167 17.5 -88.5s28.167 -53.5 49.5 -75.5l-8 -6c-22 22.667 -39 48.667 -51 78s-18 60 -18 92c0 33.333 6.5 65.333 19.5 96
s31.833 57.334 56.5 80.001l6 -8c-23.333 -22 -41.166 -47.5 -53.499 -76.5z" />
    <glyph glyph-name="guillemotright" unicode="&#xbb;" horiz-adv-x="434" 
d="M292.5 378c13 -30.667 19.499 -62.666 19.499 -95.999c0 -32 -6 -62.667 -18 -92s-29 -55.333 -51 -78l-8 6c21.333 22 37.833 47.167 49.5 75.5s17.5 57.833 17.5 88.5c0 32 -6.16699 62.5 -18.5 91.5s-30.166 54.5 -53.499 76.5l6 8
c24.667 -22.667 43.5 -49.334 56.5 -80.001zM184.499 378.001c13 -30.667 19.499 -62.666 19.499 -95.999c0 -32 -6 -62.667 -18 -92s-29 -55.333 -51 -78l-8 6c21.333 22 37.833 47.167 49.5 75.5s17.5 57.833 17.5 88.5c0 32 -6.16699 62.5 -18.5 91.5
s-30.166 54.5 -53.499 76.5l6 8c24.667 -22.667 43.5 -49.334 56.5 -80.001z" />
    <glyph glyph-name="multiply" unicode="&#xd7;" horiz-adv-x="414" 
d="M214 302l111 -111l-7 -7l-111 111l-111 -111l-7 7l111 111l-111 111l7 7l111 -111l111 111l7 -7z" />
    <glyph glyph-name="divide" unicode="&#xf7;" horiz-adv-x="380" 
d="M345 308v-10h-310v10h310zM165 167.5c-6.66699 7 -10 15.5 -10 25.5c0 9.33301 3.33301 17.333 10 24s15 10 25 10c9.33301 0 17.5 -3.33301 24.5 -10s10.5 -14.667 10.5 -24c0 -10 -3.5 -18.5 -10.5 -25.5s-15.167 -10.5 -24.5 -10.5c-10 0 -18.333 3.5 -25 10.5z
M165 391.5c-6.66699 7 -10 15.5 -10 25.5c0 9.33301 3.33301 17.333 10 24s15 10 25 10c9.33301 0 17.5 -3.33301 24.5 -10s10.5 -14.667 10.5 -24c0 -10 -3.5 -18.5 -10.5 -25.5s-15.167 -10.5 -24.5 -10.5c-10 0 -18.333 3.5 -25 10.5z" />
    <glyph glyph-name="uni060C" unicode="&#x60c;" horiz-adv-x="241" 
d="M144.5 60c7 -6.66699 10.5 -14.667 10.5 -24c0 -10 -3.5 -18.5 -10.5 -25.5s-15.167 -10.5 -24.5 -10.5c-10 0 -18.333 3.5 -25 10.5s-10 15.5 -10 25.5c0 5.33301 1 10 3 14l44 130l10 -4l-37 -109c5.33301 2 10.333 3 15 3c9.33301 0 17.5 -3.33301 24.5 -10z" />
    <glyph glyph-name="uni061B" unicode="&#x61b;" horiz-adv-x="241" 
d="M145.5 336c7 -6.66699 10.5 -14.667 10.5 -24c0 -10 -3.5 -18.5 -10.5 -25.5s-15.167 -10.5 -24.5 -10.5c-10 0 -18.333 3.5 -25 10.5s-10 15.5 -10 25.5c0 5.33301 1 10 3 14l44 130l10 -4l-37 -109c5.33301 2 10.333 3 15 3c9.33301 0 17.5 -3.33301 24.5 -10zM96 5.5
c-6.66699 7 -10 15.5 -10 25.5c0 9.33301 3.33301 17.333 10 24s15 10 25 10c9.33301 0 17.5 -3.33301 24.5 -10s10.5 -14.667 10.5 -24c0 -10 -3.5 -18.5 -10.5 -25.5s-15.167 -10.5 -24.5 -10.5c-10 0 -18.333 3.5 -25 10.5z" />
    <glyph glyph-name="uni061F" unicode="&#x61f;" horiz-adv-x="492" 
d="M244 197c0 18.667 -3.33398 35.1689 -10.001 49.502s-14 25.666 -22 33.999s-21.667 21.166 -41 38.499c-2.66699 2.66699 -12.167 11.167 -28.5 25.5s-29.166 32 -38.499 53s-14 44.167 -14 69.5c0 28 7 53.833 21 77.5s32.833 42.334 56.5 56.001
s49.834 20.5 78.501 20.5c28 0 54 -7 78 -21s43 -33 57 -57s21 -50 21 -78v-40h-10v40c0 26.667 -6.5 51.167 -19.5 73.5s-30.667 40 -53 53s-46.833 19.5 -73.5 19.5s-51.167 -6.5 -73.5 -19.5s-40 -30.5 -53 -52.5s-19.5 -46 -19.5 -72c0 -30 5.66699 -54 17 -72
s23.166 -32.833 35.499 -44.5l24.5 -23.5c4.66699 -4 14.5 -13.167 29.5 -27.5s26.667 -29.833 35 -46.5s12.5 -35.334 12.5 -56.001v-70h-10v70zM223.999 -6.49805c-6.66699 7 -10 15.5 -10 25.5c0 9.33301 3.33301 17.333 10 24s15 10 25 10
c9.33301 0 17.5 -3.33301 24.5 -10s10.5 -14.667 10.5 -24c0 -10 -3.5 -18.5 -10.5 -25.5s-15.167 -10.5 -24.5 -10.5c-10 0 -18.333 3.5 -25 10.5z" />
    <glyph glyph-name="uni0621" unicode="&#x621;" horiz-adv-x="467" 
d="M417 70l-364.998 -69.9971l-2 10l181 35c-26 5.33301 -47.5 18.666 -64.5 39.999s-25.5 46.666 -25.5 75.999c0 28.667 9 54 27 76s41.667 35.333 71 40c2.66699 0.666992 7.66699 1 15 1c26 0 61 -5.66699 105 -17l-2 -10c-43.333 11.333 -77.333 17 -102 17
c-6.66699 0 -11.334 -0.333008 -14.001 -1c-26.667 -4.66699 -48.334 -16.834 -65.001 -36.501s-25 -42.5 -25 -68.5c0 -32 10.5 -58.333 31.5 -79s46.5 -31 76.5 -31c4 0 10.667 0.666992 20 2l136 26z" />
    <glyph glyph-name="uni0622" unicode="&#x622;" horiz-adv-x="265" 
d="M140 517l20 -517l-10 -1l-20 517zM17.5 594.5c11.667 11.667 27.167 17.5 46.5 17.5c4.66699 0 11 -0.666992 19 -2l101 -19c8 -1.33301 13.667 -2 17 -2c16 0 29 5 39 15s15 23.333 15 40v9h10v-9c0 -20 -5.83301 -35.833 -17.5 -47.5s-27.167 -17.5 -46.5 -17.5
c-4.66699 0 -11 0.666992 -19 2l-101 19c-8 1.33301 -13.667 2 -17 2c-16 0 -29 -5 -39 -15s-15 -23.333 -15 -40v-9h-10v9c-0 20 5.83301 35.833 17.5 47.5z" />
    <glyph glyph-name="uni0623" unicode="&#x623;" horiz-adv-x="265" 
d="M140 517l20 -517l-10 -1l-20 517zM252 605l-246.001 -59l-2 10l116 28c-17.333 4 -31.666 13.333 -42.999 28s-17 32 -17 52c0 22 7.5 41 22.5 57s34.5 24 58.5 24c18 0 40 -3 66 -9l-2 -10c-26 5.33301 -47.667 8 -65 8c-20.667 0 -37.5 -6.83301 -50.5 -20.5
s-19.5 -30.167 -19.5 -49.5c0 -21.333 7 -38.833 21 -52.5s30.667 -20.5 50 -20.5c3.33301 0 9 0.666992 17 2l92 22z" />
    <glyph glyph-name="uni0624" unicode="&#x624;" horiz-adv-x="435" 
d="M385 -64c0 -42.667 -10.665 -75.501 -31.998 -98.501s-51.166 -40.5 -89.499 -52.5s-98.833 -26.333 -181.5 -43l-2 10c81.333 16.667 140.666 30.667 177.999 42s66.166 27.833 86.499 49.5s30.5 52.167 30.5 91.5c0 12 -0.333008 21.333 -1 28l-6 56
c-14 -4 -35.167 -8.16699 -63.5 -12.5s-60.166 -6.5 -95.499 -6.5c-39.333 0 -71.5 12.667 -96.5 38s-37.5 58.333 -37.5 99c0 26 5.5 51.333 16.5 76s27.167 44.834 48.5 60.501s46.666 23.5 75.999 23.5c40.667 0 74.667 -15.667 102 -47s43.666 -73 48.999 -125l17 -161
c0.666992 -6.66699 1 -16 1 -28zM367.002 28.999l-10.001 94c-5.33301 50.667 -20.833 90.667 -46.5 120s-57.167 44 -94.5 44c-27.333 0 -51 -7.16699 -71 -21.5s-35 -33 -45 -56s-15 -46.833 -15 -71.5c0 -38.667 11.333 -69.667 34 -93s52.667 -35 90 -35
c54.667 0 107.334 6.33301 158.001 19zM340.001 395.999l-246.001 -59l-2 10l116 28c-17.333 4 -31.666 13.333 -42.999 28s-17 32 -17 52c0 22 7.5 41 22.5 57s34.5 24 58.5 24c18 0 40 -3 66 -9l-2 -10c-26 5.33301 -47.667 8 -65 8c-20.667 0 -37.5 -6.83301 -50.5 -20.5
s-19.5 -30.167 -19.5 -49.5c0 -21.333 7 -38.833 21 -52.5s30.667 -20.5 50 -20.5c3.33301 0 9 0.666992 17 2l92 22z" />
    <glyph glyph-name="uni0625" unicode="&#x625;" horiz-adv-x="194" 
d="M100 622l24 -622l-10 -1l-24 622zM226 -188l-246.001 -59l-2 10l116 28c-17.333 4 -31.666 13.333 -42.999 28s-17 32 -17 52c0 22 7.5 41 22.5 57s34.5 24 58.5 24c18 0 40 -3 66 -9l-2 -10c-26 5.33301 -47.667 8 -65 8c-20.667 0 -37.5 -6.83301 -50.5 -20.5
s-19.5 -30.167 -19.5 -49.5c0 -21.333 7 -38.833 21 -52.5s30.667 -20.5 50 -20.5c3.33301 0 9 0.666992 17 2l92 22z" />
    <glyph glyph-name="uni0626" unicode="&#x626;" horiz-adv-x="646" 
d="M261 -246c-65.333 0 -116.666 21.3311 -153.999 63.998s-56 100.334 -56 173.001c0 58 11.667 120.667 35 188l10 -4c-23.333 -66 -35 -127.667 -35 -185c0 -70 17.5 -125.167 52.5 -165.5s83.833 -60.5 146.5 -60.5c25.333 0 51.333 3.33301 78 10
c46.667 10.667 86.5 23.834 119.5 39.501s57.833 32 74.5 49s25 33.167 25 48.5c0 12 -3.66699 21.333 -11 28s-19.666 13 -36.999 19s-47.333 15 -90 27c-28.667 8 -50.5 15.167 -65.5 21.5s-27.667 15.833 -38 28.5s-15.5 29.667 -15.5 51c0 15.333 3 34 9 56
c4 15.333 12.667 35 26 59s32.5 46.167 57.5 66.5s55.167 30.5 90.5 30.5c16 0 32 -2.33301 48 -7l65 -18l-2 -10l-65 18c-14.667 4.66699 -30 7 -46 7c-33.333 0 -61.833 -9.66699 -85.5 -29s-41.834 -40.5 -54.501 -63.5s-20.667 -41.5 -24 -55.5
c-5.33301 -18.667 -8 -36.334 -8 -53.001c0 -19.333 4.5 -34.666 13.5 -45.999s20.5 -19.833 34.5 -25.5s34.667 -12.5 62 -20.5c43.333 -12 74.166 -21.333 92.499 -28s31.833 -14.167 40.5 -22.5s13 -19.5 13 -33.5c0 -28 -20.333 -55.5 -61 -82.5s-96 -48.5 -166 -64.5
c-26.667 -6.66699 -53 -10 -79 -10zM365 313.998l-246.001 -59l-2 10l116 28c-17.333 4 -31.666 13.333 -42.999 28s-17 32 -17 52c0 22 7.5 41 22.5 57s34.5 24 58.5 24c18 0 40 -3 66 -9l-2 -10c-26 5.33301 -47.667 8 -65 8c-20.667 0 -37.5 -6.83301 -50.5 -20.5
s-19.5 -30.167 -19.5 -49.5c0 -21.333 7 -38.833 21 -52.5s30.667 -20.5 50 -20.5c3.33301 0 9 0.666992 17 2l92 22z" />
    <glyph glyph-name="uni0627" unicode="&#x627;" horiz-adv-x="194" 
d="M100 622l24 -622l-10 -1l-24 622z" />
    <glyph glyph-name="uni0628" unicode="&#x628;" horiz-adv-x="852" 
d="M604 12.5c38.667 1.66699 64.6689 4 78.002 7s27.333 7.5 42 13.5c45.333 19.333 68 53.333 68 102c0 17.333 -3 37 -9 59l-38 139l10 2l38 -139c6 -22 9 -42.667 9 -62c0 -54 -24.667 -91 -74 -111c-14.667 -6 -28.834 -10.333 -42.501 -13s-40.334 -5 -80.001 -7
s-99.5 -3 -179.5 -3v10c80 0 139.333 0.833008 178 2.5zM246.002 2.5c-40 1.66699 -67.167 4 -81.5 7s-28.166 7.5 -41.499 13.5c-48.667 20.667 -73 58 -73 112c0 18.667 3 39 9 61l35 136l10 -2l-35 -136c-5.33301 -19.333 -8 -39 -8 -59c0 -48.667 22 -82.667 66 -102
c14 -6 27.833 -10.5 41.5 -13.5s40.167 -5.33301 79.5 -7s98.666 -2.5 177.999 -2.5v-10c-80 -0 -140 0.833008 -180 2.5zM401.002 -133l25 25l24 -25l-24 -24z" />
    <glyph glyph-name="uni0629" unicode="&#x629;" horiz-adv-x="377" 
d="M309.5 213.5c11.667 -23 17.4971 -48.167 17.4971 -75.5c0 -24.667 -6.16699 -47.667 -18.5 -69s-29.166 -38.166 -50.499 -50.499s-44.333 -18.5 -69 -18.5c-25.333 0 -48.666 6.16699 -69.999 18.5s-38.166 29.166 -50.499 50.499s-18.5 44.333 -18.5 69
c0 22.667 6 45.667 18 69s28.667 45.333 50 66l71 68l-44 45l8 6l95 -99c29.333 -30 49.833 -56.5 61.5 -79.5zM279.497 47.5c25 25 37.499 55.168 37.499 90.501c0 24.667 -5.16699 47.834 -15.5 69.501s-30.833 48.167 -61.5 79.5l-45 46l-71 -68
c-20 -20 -35.667 -40.833 -47 -62.5s-17 -43.167 -17 -64.5c0 -22.667 5.83301 -43.834 17.5 -63.501s27.334 -35.334 47.001 -47.001s41.167 -17.5 64.5 -17.5c35.333 0 65.5 12.5 90.5 37.5zM95.9961 462.001l22 22l22 -22l-22 -22zM235.996 462.001l22 22l22 -22l-22 -22
z" />
    <glyph glyph-name="uni062A" unicode="&#x62a;" horiz-adv-x="852" 
d="M604 12.5c38.667 1.66699 64.6689 4 78.002 7s27.333 7.5 42 13.5c45.333 19.333 68 53.333 68 102c0 17.333 -3 37 -9 59l-38 139l10 2l38 -139c6 -22 9 -42.667 9 -62c0 -54 -24.667 -91 -74 -111c-14.667 -6 -28.834 -10.333 -42.501 -13s-40.334 -5 -80.001 -7
s-99.5 -3 -179.5 -3v10c80 0 139.333 0.833008 178 2.5zM246.002 2.5c-40 1.66699 -67.167 4 -81.5 7s-28.166 7.5 -41.499 13.5c-48.667 20.667 -73 58 -73 112c0 18.667 3 39 9 61l35 136l10 -2l-35 -136c-5.33301 -19.333 -8 -39 -8 -59c0 -48.667 22 -82.667 66 -102
c14 -6 27.833 -10.5 41.5 -13.5s40.167 -5.33301 79.5 -7s98.666 -2.5 177.999 -2.5v-10c-80 -0 -140 0.833008 -180 2.5zM334.002 335l22 22l22 -22l-22 -22zM474.002 335l22 22l22 -22l-22 -22z" />
    <glyph glyph-name="uni062B" unicode="&#x62b;" horiz-adv-x="852" 
d="M604 12.5c38.667 1.66699 64.6689 4 78.002 7s27.333 7.5 42 13.5c45.333 19.333 68 53.333 68 102c0 17.333 -3 37 -9 59l-38 139l10 2l38 -139c6 -22 9 -42.667 9 -62c0 -54 -24.667 -91 -74 -111c-14.667 -6 -28.834 -10.333 -42.501 -13s-40.334 -5 -80.001 -7
s-99.5 -3 -179.5 -3v10c80 0 139.333 0.833008 178 2.5zM246.002 2.5c-40 1.66699 -67.167 4 -81.5 7s-28.166 7.5 -41.499 13.5c-48.667 20.667 -73 58 -73 112c0 18.667 3 39 9 61l35 136l10 -2l-35 -136c-5.33301 -19.333 -8 -39 -8 -59c0 -48.667 22 -82.667 66 -102
c14 -6 27.833 -10.5 41.5 -13.5s40.167 -5.33301 79.5 -7s98.666 -2.5 177.999 -2.5v-10c-80 -0 -140 0.833008 -180 2.5zM408.002 416.5c-4 4.33301 -6.66699 6.83301 -8 7.5l8 8l14 14l14 -14l8 -8c-1.33301 -0.666992 -4 -3.16699 -8 -7.5l-14 -14.5zM331.002 333l22 22
l22 -22l-22 -22zM471.002 333l22 22l22 -22l-22 -22z" />
    <glyph glyph-name="uni062C" unicode="&#x62c;" horiz-adv-x="670" 
d="M104 0c-29.333 -40 -44 -83.001 -44 -129.001c0 -21.333 2.33301 -40.666 7 -57.999c12.667 -48 38.5 -86.333 77.5 -115s83.833 -43 134.5 -43c20 0 41.333 2.66699 64 8l256 71l2 -10l-256 -71c-19.333 -5.33301 -41 -8 -65 -8c-53.333 0 -100.5 15 -141.5 45
s-68.167 70.333 -81.5 121c-4.66699 17.333 -7 36.666 -7 57.999c0 48 15.333 93.333 46 136s84.667 74.334 162 95.001l350 96l-290 162c-24.667 14 -50.334 21 -77.001 21s-51.667 -7.16699 -75 -21.5s-43 -34.833 -59 -61.5l-18 -32l-8 4l18 33
c16 28 36.333 49.5 61 64.5s51.334 22.5 80.001 22.5c28 0 55.333 -7.33301 82 -22l298 -165l-3 -13l-357 -98c-74.667 -20 -126.667 -50 -156 -90zM312 -113.001l25 25l24 -25l-24 -24z" />
    <glyph glyph-name="uni062D" unicode="&#x62d;" horiz-adv-x="670" 
d="M104 0c-29.333 -40 -44 -83.001 -44 -129.001c0 -21.333 2.33301 -40.666 7 -57.999c12.667 -48 38.5 -86.333 77.5 -115s83.833 -43 134.5 -43c20 0 41.333 2.66699 64 8l256 71l2 -10l-256 -71c-19.333 -5.33301 -41 -8 -65 -8c-53.333 0 -100.5 15 -141.5 45
s-68.167 70.333 -81.5 121c-4.66699 17.333 -7 36.666 -7 57.999c0 48 15.333 93.333 46 136s84.667 74.334 162 95.001l350 96l-290 162c-24.667 14 -50.334 21 -77.001 21s-51.667 -7.16699 -75 -21.5s-43 -34.833 -59 -61.5l-18 -32l-8 4l18 33
c16 28 36.333 49.5 61 64.5s51.334 22.5 80.001 22.5c28 0 55.333 -7.33301 82 -22l298 -165l-3 -13l-357 -98c-74.667 -20 -126.667 -50 -156 -90z" />
    <glyph glyph-name="uni062E" unicode="&#x62e;" horiz-adv-x="670" 
d="M104 0c-29.333 -40 -44 -83.001 -44 -129.001c0 -21.333 2.33301 -40.666 7 -57.999c12.667 -48 38.5 -86.333 77.5 -115s83.833 -43 134.5 -43c20 0 41.333 2.66699 64 8l256 71l2 -10l-256 -71c-19.333 -5.33301 -41 -8 -65 -8c-53.333 0 -100.5 15 -141.5 45
s-68.167 70.333 -81.5 121c-4.66699 17.333 -7 36.666 -7 57.999c0 48 15.333 93.333 46 136s84.667 74.334 162 95.001l350 96l-290 162c-24.667 14 -50.334 21 -77.001 21s-51.667 -7.16699 -75 -21.5s-43 -34.833 -59 -61.5l-18 -32l-8 4l18 33
c16 28 36.333 49.5 61 64.5s51.334 22.5 80.001 22.5c28 0 55.333 -7.33301 82 -22l298 -165l-3 -13l-357 -98c-74.667 -20 -126.667 -50 -156 -90zM209 508.999l25 25l24 -25l-24 -24z" />
    <glyph glyph-name="uni062F" unicode="&#x62f;" horiz-adv-x="470" 
d="M127.5 15.5c-23.667 10.333 -38.5 26.832 -44.5 49.499c-5.33301 19.333 -8 42 -8 68h9c0 -23.333 2.33301 -44.333 7 -63c5.33301 -21.333 19.5 -36.666 42.5 -45.999s56.833 -14 101.5 -14h7c112 0 168 33 168 99c0 9.33301 -1.66699 20.666 -5 33.999
c-9.33301 37.333 -29.333 82.833 -60 136.5s-65 106.5 -103 158.5l8 6c38.667 -53.333 73.667 -107.166 105 -161.499s51.333 -100.166 60 -137.499c3.33301 -14.667 5 -27.334 5 -38.001c0 -71.333 -59.333 -107 -178 -107h-7c-48 0 -83.833 5.16699 -107.5 15.5z" />
    <glyph glyph-name="uni0630" unicode="&#x630;" horiz-adv-x="470" 
d="M127.5 15.5c-23.667 10.333 -38.5 26.832 -44.5 49.499c-5.33301 19.333 -8 42 -8 68h9c0 -23.333 2.33301 -44.333 7 -63c5.33301 -21.333 19.5 -36.666 42.5 -45.999s56.833 -14 101.5 -14h7c112 0 168 33 168 99c0 9.33301 -1.66699 20.666 -5 33.999
c-9.33301 37.333 -29.333 82.833 -60 136.5s-65 106.5 -103 158.5l8 6c38.667 -53.333 73.667 -107.166 105 -161.499s51.333 -100.166 60 -137.499c3.33301 -14.667 5 -27.334 5 -38.001c0 -71.333 -59.333 -107 -178 -107h-7c-48 0 -83.833 5.16699 -107.5 15.5z
M193 555.999l25 25l24 -25l-24 -24z" />
    <glyph glyph-name="uni0631" unicode="&#x631;" horiz-adv-x="291" 
d="M29 -240c44 11.333 79.167 22.335 105.5 33.002s49 27.167 68 49.5s28.5 52.166 28.5 89.499c0 14 -0.666992 24.667 -2 32l-39 288l10 2l39 -289c1.33301 -8 2 -19 2 -33c0 -39.333 -10.167 -70.833 -30.5 -94.5s-44.5 -41.334 -72.5 -53.001s-64.333 -23.5 -109 -35.5
l-27 -7l-2 10z" />
    <glyph glyph-name="uni0632" unicode="&#x632;" horiz-adv-x="291" 
d="M29 -240c44 11.333 79.167 22.335 105.5 33.002s49 27.167 68 49.5s28.5 52.166 28.5 89.499c0 14 -0.666992 24.667 -2 32l-39 288l10 2l39 -289c1.33301 -8 2 -19 2 -33c0 -39.333 -10.167 -70.833 -30.5 -94.5s-44.5 -41.334 -72.5 -53.001s-64.333 -23.5 -109 -35.5
l-27 -7l-2 10zM151 410.002l25 25l24 -25l-24 -24z" />
    <glyph glyph-name="uni0633" unicode="&#x633;" horiz-adv-x="1118" 
d="M1068 124c0 -43.333 -13.834 -74.833 -41.501 -94.5s-58.5 -29.5 -92.5 -29.5c-33.333 -0 -60.5 7.33301 -81.5 22s-34.833 36 -41.5 64c-6.66699 -24.667 -20 -45.167 -40 -61.5s-49.333 -24.5 -88 -24.5c-35.333 0 -64.833 7 -88.5 21s-42.167 35.333 -55.5 64l14 -104
c2 -14 3 -27 3 -39c0 -42 -10.667 -74.667 -32 -98s-45 -39.5 -71 -48.5s-63.667 -19.5 -113 -31.5c-27.333 -6.66699 -54 -10 -80 -10c-66 0 -117.5 21 -154.5 63s-55.5 99.667 -55.5 173c0 56 12 119 36 189l10 -4c-24 -68.667 -36 -131 -36 -187
c0 -69.333 17.5 -123.833 52.5 -163.5s84.167 -59.5 147.5 -59.5c24 0 50 3 78 9c49.333 12 86.333 22.167 111 30.5s47 23.5 67 45.5s30 53 30 93c0 10.667 -1 22.667 -3 36c-3.33301 26.667 -16.333 117.667 -39 273l10 2l17 -116v0c11.333 -45.333 28.833 -78 52.5 -98
s56.834 -30 99.501 -30c48 0 80.5 12 97.5 36s25.5 51.333 25.5 82v123h10v-123c0 -38 10.167 -67.167 30.5 -87.5s49.5 -30.5 87.5 -30.5c32.667 0 61.5 9 86.5 27s37.5 47 37.5 87c0 17.333 -3 37 -9 59l-40 149l10 2l40 -149c6 -22.667 9 -43 9 -61z" />
    <glyph glyph-name="uni0634" unicode="&#x634;" horiz-adv-x="1118" 
d="M1068 124c0 -43.333 -13.834 -74.833 -41.501 -94.5s-58.5 -29.5 -92.5 -29.5c-33.333 -0 -60.5 7.33301 -81.5 22s-34.833 36 -41.5 64c-6.66699 -24.667 -20 -45.167 -40 -61.5s-49.333 -24.5 -88 -24.5c-35.333 0 -64.833 7 -88.5 21s-42.167 35.333 -55.5 64l14 -104
c2 -14 3 -27 3 -39c0 -42 -10.667 -74.667 -32 -98s-45 -39.5 -71 -48.5s-63.667 -19.5 -113 -31.5c-27.333 -6.66699 -54 -10 -80 -10c-66 0 -117.5 21 -154.5 63s-55.5 99.667 -55.5 173c0 56 12 119 36 189l10 -4c-24 -68.667 -36 -131 -36 -187
c0 -69.333 17.5 -123.833 52.5 -163.5s84.167 -59.5 147.5 -59.5c24 0 50 3 78 9c49.333 12 86.333 22.167 111 30.5s47 23.5 67 45.5s30 53 30 93c0 10.667 -1 22.667 -3 36c-3.33301 26.667 -16.333 117.667 -39 273l10 2l17 -116v0c11.333 -45.333 28.833 -78 52.5 -98
s56.834 -30 99.501 -30c48 0 80.5 12 97.5 36s25.5 51.333 25.5 82v123h10v-123c0 -38 10.167 -67.167 30.5 -87.5s49.5 -30.5 87.5 -30.5c32.667 0 61.5 9 86.5 27s37.5 47 37.5 87c0 17.333 -3 37 -9 59l-40 149l10 2l40 -149c6 -22.667 9 -43 9 -61zM792.999 485.5
c-4 4.33301 -6.66699 6.83301 -8 7.5l8 8l14 14l14 -14l8 -8c-1.33301 -0.666992 -4 -3.16699 -8 -7.5l-14 -14.5zM715.999 402l22 22l22 -22l-22 -22zM855.999 402l22 22l22 -22l-22 -22z" />
    <glyph glyph-name="uni0635" unicode="&#x635;" horiz-adv-x="1162" 
d="M1039 276.5c22.667 -13.667 40.501 -32.333 53.501 -56s19.5 -50.167 19.5 -79.5c0 -24 -6.83301 -47 -20.5 -69s-31.834 -39.5 -54.501 -52.5s-47 -19.5 -73 -19.5h-295h-27c-26 0 -47.167 6.5 -63.5 19.5s-29.5 33.167 -39.5 60.5c4 -24 8.66699 -57 14 -99
c2 -14 3 -27 3 -39c0 -42 -10.667 -74.667 -32 -98s-45 -39.5 -71 -48.5s-63.667 -19.5 -113 -31.5c-27.333 -6.66699 -54 -10 -80 -10c-66 0 -117.5 21 -154.5 63s-55.5 99.667 -55.5 173c0 56 12 119 36 189l10 -4c-24 -68.667 -36 -131 -36 -187
c0 -69.333 17.5 -123.833 52.5 -163.5s84.167 -59.5 147.5 -59.5c24 0 50 3 78 9c49.333 12 86.333 22.167 111 30.5s47 23.5 67 45.5s30 53 30 93c0 10.667 -1 22.667 -3 36l-32 224l-7 49l10 2l7 -49c8 -48 16.333 -85.5 25 -112.5s20.667 -47.5 36 -61.5s36 -21 62 -21
h25h5l84 115c28 40.667 51 72.167 69 94.5s38.333 40.833 61 55.5s48 22 76 22c27.333 0 52.333 -6.83301 75 -20.5zM1032 28.501c21.333 12.333 38.332 28.5 50.999 48.5s19 41.333 19 64c0 41.333 -13.167 76 -39.5 104s-59.166 42 -98.499 42
c-26.667 0 -50.667 -7 -72 -21s-40.833 -32 -58.5 -54s-40.167 -53 -67.5 -93l-79 -109h277c24 0 46.667 6.16699 68 18.5z" />
    <glyph glyph-name="uni0636" unicode="&#x636;" horiz-adv-x="1162" 
d="M1039 276.5c22.667 -13.667 40.501 -32.333 53.501 -56s19.5 -50.167 19.5 -79.5c0 -24 -6.83301 -47 -20.5 -69s-31.834 -39.5 -54.501 -52.5s-47 -19.5 -73 -19.5h-295h-27c-26 0 -47.167 6.5 -63.5 19.5s-29.5 33.167 -39.5 60.5c4 -24 8.66699 -57 14 -99
c2 -14 3 -27 3 -39c0 -42 -10.667 -74.667 -32 -98s-45 -39.5 -71 -48.5s-63.667 -19.5 -113 -31.5c-27.333 -6.66699 -54 -10 -80 -10c-66 0 -117.5 21 -154.5 63s-55.5 99.667 -55.5 173c0 56 12 119 36 189l10 -4c-24 -68.667 -36 -131 -36 -187
c0 -69.333 17.5 -123.833 52.5 -163.5s84.167 -59.5 147.5 -59.5c24 0 50 3 78 9c49.333 12 86.333 22.167 111 30.5s47 23.5 67 45.5s30 53 30 93c0 10.667 -1 22.667 -3 36l-32 224l-7 49l10 2l7 -49c8 -48 16.333 -85.5 25 -112.5s20.667 -47.5 36 -61.5s36 -21 62 -21
h25h5l84 115c28 40.667 51 72.167 69 94.5s38.333 40.833 61 55.5s48 22 76 22c27.333 0 52.333 -6.83301 75 -20.5zM1032 28.501c21.333 12.333 38.332 28.5 50.999 48.5s19 41.333 19 64c0 41.333 -13.167 76 -39.5 104s-59.166 42 -98.499 42
c-26.667 0 -50.667 -7 -72 -21s-40.833 -32 -58.5 -54s-40.167 -53 -67.5 -93l-79 -109h277c24 0 46.667 6.16699 68 18.5zM934 432.001l25 25l24 -25l-24 -24z" />
    <glyph glyph-name="uni0637" unicode="&#x637;" horiz-adv-x="635" 
d="M512 276.5c22.667 -13.667 40.501 -32.333 53.501 -56s19.5 -50.167 19.5 -79.5c0 -24 -6.83301 -47 -20.5 -69s-31.834 -39.5 -54.501 -52.5s-47 -19.5 -73 -19.5h-387v10h97l35 47l-22 564l10 1l22 -551l39 54c28 40.667 51 72.167 69 94.5s38.333 40.833 61 55.5
s48 22 76 22c27.333 0 52.333 -6.83301 75 -20.5zM505.001 28.501c21.333 12.333 38.332 28.5 50.999 48.5s19 41.333 19 64c0 41.333 -13.167 76 -39.5 104s-59.166 42 -98.499 42c-26.667 0 -50.667 -7 -72 -21s-40.833 -32 -58.5 -54s-40.167 -53 -67.5 -93l-79 -109h277
c24 0 46.667 6.16699 68 18.5z" />
    <glyph glyph-name="uni0638" unicode="&#x638;" horiz-adv-x="635" 
d="M512 276.5c22.667 -13.667 40.501 -32.333 53.501 -56s19.5 -50.167 19.5 -79.5c0 -24 -6.83301 -47 -20.5 -69s-31.834 -39.5 -54.501 -52.5s-47 -19.5 -73 -19.5h-387v10h97l35 47l-22 564l10 1l22 -551l39 54c28 40.667 51 72.167 69 94.5s38.333 40.833 61 55.5
s48 22 76 22c27.333 0 52.333 -6.83301 75 -20.5zM505.001 28.501c21.333 12.333 38.332 28.5 50.999 48.5s19 41.333 19 64c0 41.333 -13.167 76 -39.5 104s-59.166 42 -98.499 42c-26.667 0 -50.667 -7 -72 -21s-40.833 -32 -58.5 -54s-40.167 -53 -67.5 -93l-79 -109h277
c24 0 46.667 6.16699 68 18.5zM408 484.001l25 25l24 -25l-24 -24z" />
    <glyph glyph-name="uni0639" unicode="&#x639;" horiz-adv-x="580" 
d="M530 -233l0.000976562 -9.99609l-268 -27c-4.66699 -0.666992 -11.334 -1 -20.001 -1c-34 0 -65.833 8.5 -95.5 25.5s-53.167 40 -70.5 69s-26 61.167 -26 96.5c0 47.333 16 88.666 48 123.999s73.333 57.666 124 66.999l44 8c-34 6.66699 -62.167 23.167 -84.5 49.5
s-33.5 57.833 -33.5 94.5c0 36 11.167 67.5 33.5 94.5s51.5 43.5 87.5 49.5c4 0.666992 10.667 1 20 1c31.333 0 74.666 -7 129.999 -21l-2 -10c-53.333 14 -95.666 21 -126.999 21c-8.66699 0 -15 -0.333008 -19 -1c-33.333 -6 -60.5 -21.333 -81.5 -46
s-31.5 -53.334 -31.5 -86.001c0 -26.667 6 -50.5 18 -71.5s28.333 -37.5 49 -49.5s43 -18 67 -18c9.33301 0 18.333 1 27 3l170 31l2 -10l-267 -49c-48.667 -8.66699 -88.167 -29.834 -118.5 -63.501s-45.5 -72.167 -45.5 -115.5c0 -36 9.33301 -68.667 28 -98
s43.5 -51.5 74.5 -66.5s63.833 -20.833 98.5 -17.5z" />
    <glyph glyph-name="uni063A" unicode="&#x63a;" horiz-adv-x="580" 
d="M530 -233l0.000976562 -9.99609l-268 -27c-4.66699 -0.666992 -11.334 -1 -20.001 -1c-34 0 -65.833 8.5 -95.5 25.5s-53.167 40 -70.5 69s-26 61.167 -26 96.5c0 47.333 16 88.666 48 123.999s73.333 57.666 124 66.999l44 8c-34 6.66699 -62.167 23.167 -84.5 49.5
s-33.5 57.833 -33.5 94.5c0 36 11.167 67.5 33.5 94.5s51.5 43.5 87.5 49.5c4 0.666992 10.667 1 20 1c31.333 0 74.666 -7 129.999 -21l-2 -10c-53.333 14 -95.666 21 -126.999 21c-8.66699 0 -15 -0.333008 -19 -1c-33.333 -6 -60.5 -21.333 -81.5 -46
s-31.5 -53.334 -31.5 -86.001c0 -26.667 6 -50.5 18 -71.5s28.333 -37.5 49 -49.5s43 -18 67 -18c9.33301 0 18.333 1 27 3l170 31l2 -10l-267 -49c-48.667 -8.66699 -88.167 -29.834 -118.5 -63.501s-45.5 -72.167 -45.5 -115.5c0 -36 9.33301 -68.667 28 -98
s43.5 -51.5 74.5 -66.5s63.833 -20.833 98.5 -17.5zM256.001 530.004l25 25l24 -25l-24 -24z" />
    <glyph glyph-name="uni0640" unicode="&#x640;" horiz-adv-x="300" 
d="M305 10v-10h-310v10h310z" />
    <glyph glyph-name="uni0641" unicode="&#x641;" horiz-adv-x="853" 
d="M803 89c0 -24 -4.33105 -42.168 -12.998 -54.501s-24.5 -21.166 -47.5 -26.499s-56.833 -8 -101.5 -8h-220c-78.667 -0 -137.5 0.833008 -176.5 2.5s-65.667 4 -80 7s-28.166 7.5 -41.499 13.5c-48.667 20.667 -73 58 -73 112c0 18.667 3 39 9 61l35 136l10 -2l-35 -136
c-5.33301 -19.333 -8 -39 -8 -59c0 -48.667 22 -82.667 66 -102c14 -6 27.833 -10.5 41.5 -13.5s40.167 -5.33301 79.5 -7s98.666 -2.5 177.999 -2.5h216c41.333 0 72.666 2.33301 93.999 7s36 12.5 44 23.5s12 27.167 12 48.5c0 13.333 -1 29 -3 47
c-44.667 -14 -97.334 -21 -158.001 -21c-40 0 -72.5 12.667 -97.5 38s-37.5 58.333 -37.5 99c0 26 5.5 51.333 16.5 76s27.333 44.834 49 60.501s47.167 23.5 76.5 23.5c40 0 73.5 -15.5 100.5 -46.5s43.5 -72.833 49.5 -125.5l10 -89c3.33301 -26.667 5 -47.334 5 -62.001z
M788.002 146.999v2l-10 89c-6 50.667 -21.5 90.667 -46.5 120s-56.167 44 -93.5 44c-28 0 -51.833 -7.33301 -71.5 -22s-34.5 -33.5 -44.5 -56.5s-15 -47.167 -15 -72.5c0 -38 11.333 -68.5 34 -91.5s52.667 -34.5 90 -34.5c56 0 108.333 7.33301 157 22zM621.002 542.999
l25 25l24 -25l-24 -24z" />
    <glyph glyph-name="uni0642" unicode="&#x642;" horiz-adv-x="606" 
d="M260 -246c-66 0 -117.499 21 -154.499 63s-55.5 99.667 -55.5 173c0 56 12 119 36 189l10 -4c-24 -68.667 -36 -131 -36 -187c0 -69.333 17.5 -123.833 52.5 -163.5s84.167 -59.5 147.5 -59.5c24 0 50 3 78 9c51.333 12 91.5 24 120.5 36s50.833 28 65.5 48
s22 46.667 22 80c0 6 -0.666992 15.667 -2 29l-6 56c-14 -4 -35.167 -8.16699 -63.5 -12.5s-60.166 -6.5 -95.499 -6.5c-39.333 0 -71.5 12.667 -96.5 38s-37.5 58.333 -37.5 99c0 26 5.5 51.333 16.5 76s27.167 44.834 48.5 60.501s46.666 23.5 75.999 23.5
c40.667 0 74.667 -15.667 102 -47s43.666 -73 48.999 -125l17 -161c1.33301 -14.667 2 -25 2 -31c0 -35.333 -7.83301 -63.833 -23.5 -85.5s-38.5 -38.834 -68.5 -51.501s-71.333 -24.667 -124 -36c-27.333 -6.66699 -54 -10 -80 -10zM537.001 33l-10.001 94
c-5.33301 50.667 -20.833 90.667 -46.5 120s-57.167 44 -94.5 44c-28 0 -51.833 -7.33301 -71.5 -22s-34.334 -33.5 -44.001 -56.5s-14.5 -47.167 -14.5 -72.5c0 -38 11.333 -68.5 34 -91.5s52.334 -34.5 89.001 -34.5c54.667 0 107.334 6.33301 158.001 19zM288 425l22 22
l22 -22l-22 -22zM428 425l22 22l22 -22l-22 -22z" />
    <glyph glyph-name="uni0643" unicode="&#x643;" horiz-adv-x="787" 
d="M710.5 41.5c-19 -27.667 -54.5 -41.499 -106.5 -41.499h-178c-80 0 -140 0.833008 -180 2.5s-67.167 4 -81.5 7s-28.166 7.5 -41.499 13.5c-48.667 20.667 -73 58 -73 112c0 18.667 3 39 9 61l35 136l10 -2l-35 -136c-5.33301 -19.333 -8 -39 -8 -59
c0 -48.667 22 -82.667 66 -102c14 -6 27.833 -10.5 41.5 -13.5s40.167 -5.33301 79.5 -7s98.666 -2.5 177.999 -2.5h178c48.667 0 81.667 12.333 99 37s25.333 52 24 82l-19 492l10 1l19 -493c1.33301 -30.667 -7.5 -59.834 -26.5 -87.501zM458 213.001
c0 -7.33301 -2.16797 -13.5 -6.50098 -18.5s-10.166 -7.5 -17.499 -7.5h-89v10h89c4 0 7.5 1.66699 10.5 5s4.5 7 4.5 11c0 5.33301 -2 9.33301 -6 12l-71 73l2 9l98 33l4 -10l-91 -30l64 -67c6 -6 9 -12.667 9 -20z" />
    <glyph glyph-name="uni0644" unicode="&#x644;" horiz-adv-x="604" 
d="M257 -249c-64.667 0 -115.334 21.333 -152.001 64s-55 100.334 -55 173.001c0 57.333 12 120.333 36 189l10 -4c-24 -68.667 -36 -131 -36 -187c0 -69.333 17.333 -124.166 52 -164.499s83 -60.5 145 -60.5c22.667 0 49.334 3.66699 80.001 11l23 6
c38.667 8.66699 70.667 18.5 96 29.5s46.833 30.167 64.5 57.5s25.5 65.333 23.5 114l-25 642l10 1l25 -643c2 -51.333 -6.5 -91.333 -25.5 -120s-41.667 -48.834 -68 -60.501s-59.5 -22.167 -99.5 -31.5c-6 -0.666992 -13.333 -2.33398 -22 -5.00098
c-30.667 -7.33301 -58 -11 -82 -11z" />
    <glyph glyph-name="uni0645" unicode="&#x645;" horiz-adv-x="462" 
d="M57 132l228.001 -119.998c9.33301 -4.66699 19.333 -7 30 -7c12.667 0 24.667 3.33301 36 10s20 15.667 26 27c17.333 36.667 26 72 26 106c0 26.667 -5.5 50.667 -16.5 72s-26.5 37.333 -46.5 48c-14.667 7.33301 -29.667 11 -45 11
c-18.667 0 -36.167 -4.83301 -52.5 -14.5s-28.833 -22.834 -37.5 -39.501l-69 -134l-8 4l69 134c10 18.667 23.667 33.167 41 43.5s36.333 15.5 57 15.5c16.667 0 33 -4 49 -12c22 -12 38.833 -29.167 50.5 -51.5s17.5 -47.833 17.5 -76.5c0 -36 -9 -72.667 -27 -110
c-6.66699 -12.667 -16.334 -22.834 -29.001 -30.501s-26 -11.5 -40 -11.5c-13.333 0 -25 2.66699 -35 8l-221 116l16 -420h-10l-16 428z" />
    <glyph glyph-name="uni0646" unicode="&#x646;" horiz-adv-x="606" 
d="M260 -246c-66 0 -117.5 21 -154.5 63s-55.5 99.667 -55.5 173c0 56 12 119 36 189l10 -4c-24 -68.667 -36 -131 -36 -187c0 -69.333 17.5 -123.833 52.5 -163.5s84.167 -59.5 147.5 -59.5c24 0 50 3 78 9c49.333 12 86.333 22.167 111 30.5s47 23.5 67 45.5s30 53 30 93
c0 10.667 -1 22.667 -3 36c-3.33301 26.667 -16.333 117.667 -39 273l10 2c22.667 -155.333 35.667 -246.333 39 -273c2 -14 3 -27 3 -39c0 -42 -10.667 -74.667 -32 -98s-45 -39.5 -71 -48.5s-63.667 -19.5 -113 -31.5c-27.333 -6.66699 -54 -10 -80 -10zM274 223l25 25
l24 -25l-24 -24z" />
    <glyph glyph-name="uni0647" unicode="&#x647;" horiz-adv-x="377" 
d="M309.5 213.5c11.667 -23 17.4971 -48.167 17.4971 -75.5c0 -24.667 -6.16699 -47.667 -18.5 -69s-29.166 -38.166 -50.499 -50.499s-44.333 -18.5 -69 -18.5c-25.333 0 -48.666 6.16699 -69.999 18.5s-38.166 29.166 -50.499 50.499s-18.5 44.333 -18.5 69
c0 22.667 6 45.667 18 69s28.667 45.333 50 66l71 68l-44 45l8 6l95 -99c29.333 -30 49.833 -56.5 61.5 -79.5zM279.497 47.5c25 25 37.499 55.168 37.499 90.501c0 24.667 -5.16699 47.834 -15.5 69.501s-30.833 48.167 -61.5 79.5l-45 46l-71 -68
c-20 -20 -35.667 -40.833 -47 -62.5s-17 -43.167 -17 -64.5c0 -22.667 5.83301 -43.834 17.5 -63.501s27.334 -35.334 47.001 -47.001s41.167 -17.5 64.5 -17.5c35.333 0 65.5 12.5 90.5 37.5z" />
    <glyph glyph-name="uni0648" unicode="&#x648;" horiz-adv-x="435" 
d="M385 -64c0 -42.667 -10.665 -75.501 -31.998 -98.501s-51.166 -40.5 -89.499 -52.5s-98.833 -26.333 -181.5 -43l-2 10c81.333 16.667 140.666 30.667 177.999 42s66.166 27.833 86.499 49.5s30.5 52.167 30.5 91.5c0 12 -0.333008 21.333 -1 28l-6 56
c-14 -4 -35.167 -8.16699 -63.5 -12.5s-60.166 -6.5 -95.499 -6.5c-39.333 0 -71.5 12.667 -96.5 38s-37.5 58.333 -37.5 99c0 26 5.5 51.333 16.5 76s27.167 44.834 48.5 60.501s46.666 23.5 75.999 23.5c40.667 0 74.667 -15.667 102 -47s43.666 -73 48.999 -125l17 -161
c0.666992 -6.66699 1 -16 1 -28zM367.002 28.999l-10.001 94c-5.33301 50.667 -20.833 90.667 -46.5 120s-57.167 44 -94.5 44c-27.333 0 -51 -7.16699 -71 -21.5s-35 -33 -45 -56s-15 -46.833 -15 -71.5c0 -38.667 11.333 -69.667 34 -93s52.667 -35 90 -35
c54.667 0 107.334 6.33301 158.001 19z" />
    <glyph glyph-name="uni0649" unicode="&#x649;" horiz-adv-x="646" 
d="M261 -246c-65.333 0 -116.666 21.3311 -153.999 63.998s-56 100.334 -56 173.001c0 58 11.667 120.667 35 188l10 -4c-23.333 -66 -35 -127.667 -35 -185c0 -70 17.5 -125.167 52.5 -165.5s83.833 -60.5 146.5 -60.5c25.333 0 51.333 3.33301 78 10
c46.667 10.667 86.5 23.834 119.5 39.501s57.833 32 74.5 49s25 33.167 25 48.5c0 12 -3.66699 21.333 -11 28s-19.666 13 -36.999 19s-47.333 15 -90 27c-28.667 8 -50.5 15.167 -65.5 21.5s-27.667 15.833 -38 28.5s-15.5 29.667 -15.5 51c0 15.333 3 34 9 56
c4 15.333 12.667 35 26 59s32.5 46.167 57.5 66.5s55.167 30.5 90.5 30.5c16 0 32 -2.33301 48 -7l65 -18l-2 -10l-65 18c-14.667 4.66699 -30 7 -46 7c-33.333 0 -61.833 -9.66699 -85.5 -29s-41.834 -40.5 -54.501 -63.5s-20.667 -41.5 -24 -55.5
c-5.33301 -18.667 -8 -36.334 -8 -53.001c0 -19.333 4.5 -34.666 13.5 -45.999s20.5 -19.833 34.5 -25.5s34.667 -12.5 62 -20.5c43.333 -12 74.166 -21.333 92.499 -28s31.833 -14.167 40.5 -22.5s13 -19.5 13 -33.5c0 -28 -20.333 -55.5 -61 -82.5s-96 -48.5 -166 -64.5
c-26.667 -6.66699 -53 -10 -79 -10z" />
    <glyph glyph-name="uni064A" unicode="&#x64a;" horiz-adv-x="646" 
d="M261 -246c-65.333 0 -116.666 21.3311 -153.999 63.998s-56 100.334 -56 173.001c0 58 11.667 120.667 35 188l10 -4c-23.333 -66 -35 -127.667 -35 -185c0 -70 17.5 -125.167 52.5 -165.5s83.833 -60.5 146.5 -60.5c25.333 0 51.333 3.33301 78 10
c46.667 10.667 86.5 23.834 119.5 39.501s57.833 32 74.5 49s25 33.167 25 48.5c0 12 -3.66699 21.333 -11 28s-19.666 13 -36.999 19s-47.333 15 -90 27c-28.667 8 -50.5 15.167 -65.5 21.5s-27.667 15.833 -38 28.5s-15.5 29.667 -15.5 51c0 15.333 3 34 9 56
c4 15.333 12.667 35 26 59s32.5 46.167 57.5 66.5s55.167 30.5 90.5 30.5c16 0 32 -2.33301 48 -7l65 -18l-2 -10l-65 18c-14.667 4.66699 -30 7 -46 7c-33.333 0 -61.833 -9.66699 -85.5 -29s-41.834 -40.5 -54.501 -63.5s-20.667 -41.5 -24 -55.5
c-5.33301 -18.667 -8 -36.334 -8 -53.001c0 -19.333 4.5 -34.666 13.5 -45.999s20.5 -19.833 34.5 -25.5s34.667 -12.5 62 -20.5c43.333 -12 74.166 -21.333 92.499 -28s31.833 -14.167 40.5 -22.5s13 -19.5 13 -33.5c0 -28 -20.333 -55.5 -61 -82.5s-96 -48.5 -166 -64.5
c-26.667 -6.66699 -53 -10 -79 -10zM231 -333.002l22 22l22 -22l-22 -22zM371 -333.002l22 22l22 -22l-22 -22z" />
    <glyph glyph-name="uni064B" unicode="&#x64b;" 
d="M220 475l2 -10l-220 -52l-2 10zM220 565l2 -10l-220 -52l-2 10z" />
    <glyph glyph-name="uni064C" unicode="&#x64c;" 
d="M259.5 577.5c-15.667 -15.667 -36.832 -26.834 -63.499 -33.501l-173 -43l-4 -1l-2 10l4 1c15.333 4 27.666 12.333 36.999 25s14 27.334 14 44.001c0 20 -7 37 -21 51s-31 21 -51 21v10c23.333 0 42.833 -7.83301 58.5 -23.5s23.5 -35.167 23.5 -58.5
c0 -24 -8.66699 -44 -26 -60l88 22l-22 83c-2 8 -3 15.333 -3 22c0 19.333 6.83301 35 20.5 47s32.167 18 55.5 18c24 0 44.667 -7.5 62 -22.5s26 -33.833 26 -56.5c0 -21.333 -7.83301 -39.833 -23.5 -55.5zM252.002 584.5c14 13.667 21 29.499 21 47.499
c0 20 -7.5 36.667 -22.5 50s-33.167 20 -54.5 20s-37.833 -5 -49.5 -15s-17.5 -23.333 -17.5 -40c0 -6 1 -12.667 3 -20l22 -83l40 10c24.667 6.66699 44 16.834 58 30.501z" />
    <glyph glyph-name="uni064D" unicode="&#x64d;" 
d="M220 -348l2 -10l-220 -52l-2 10zM220 -258l2 -10l-220 -52l-2 10z" />
    <glyph glyph-name="uni064E" unicode="&#x64e;" 
d="M220 566l2 -10l-220 -52l-2 10z" />
    <glyph glyph-name="uni064F" unicode="&#x64f;" 
d="M250.5 577.5c-15.667 -15.667 -36.833 -26.833 -63.5 -33.5l-185 -44l-2 10l127 30l-21 85c-1.33301 8 -2 14 -2 18c0 20 7.66699 36.5 23 49.5s35 19.5 59 19.5s44.667 -7.5 62 -22.5s26 -33.833 26 -56.5c0 -21.333 -7.83301 -39.833 -23.5 -55.5zM243.001 584.001
c14 14 21 30 21 48c0 20 -7.5 36.667 -22.5 50s-33.167 20 -54.5 20s-38.833 -5.5 -52.5 -16.5s-20.5 -25.167 -20.5 -42.5c0 -4 0.666992 -9.33301 2 -16l20 -85l49 12c24.667 6 44 16 58 30z" />
    <glyph glyph-name="uni0650" unicode="&#x650;" 
d="M220 -257l2 -10l-220 -52l-2 10z" />
    <glyph glyph-name="uni0651" unicode="&#x651;" 
d="M22 611l-10.002 -40c-1.33301 -3.33301 -2 -8.33301 -2 -15c0 -13.333 5.5 -24.333 16.5 -33s25.5 -13 43.5 -13c15.333 0 28.333 4.5 39 13.5s16 19.833 16 32.5v52h10v-52c0 -12.667 5.33301 -23.5 16 -32.5s24 -13.5 40 -13.5c18 0 32.333 4.33301 43 13
s16 19.667 16 33c0 6.66699 -0.666992 11.667 -2 15l-16 61l10 2l16 -61c1.33301 -4 2 -9.66699 2 -17c0 -16.667 -6.16699 -30.167 -18.5 -40.5s-29.166 -15.5 -50.499 -15.5c-14 0 -26.333 3.16699 -37 9.5s-18.667 14.5 -24 24.5
c-5.33301 -10 -13.166 -18.167 -23.499 -24.5s-22.5 -9.5 -36.5 -9.5c-21.333 0 -38.333 5.33301 -51 16s-19 24 -19 40c0 7.33301 0.666992 13 2 17l10 40z" />
    <glyph glyph-name="uni0652" unicode="&#x652;" 
d="M27 527c-18 18 -27 39.667 -27 65s9 46.833 27 64.5s39.667 26.5 65 26.5s46.833 -8.83301 64.5 -26.5s26.5 -39.167 26.5 -64.5s-8.83301 -47 -26.5 -65s-39.167 -27 -64.5 -27s-47 9 -65 27zM149 534c16 16 24 35.333 24 58c0 22 -8 41 -24 57s-35 24 -57 24
c-22.667 0 -42 -8 -58 -24s-24 -35 -24 -57c0 -22.667 8 -42 24 -58s35.333 -24 58 -24c22 0 41 8 57 24z" />
    <glyph glyph-name="uni0653" unicode="&#x653;" 
d="M17.5 641.5c11.667 11.667 27.167 17.5 46.5 17.5c4.66699 0 11 -0.666992 19 -2l101 -19c8 -1.33301 13.667 -2 17 -2c16 0 29 5 39 15s15 23.333 15 40v9h10v-9c0 -20 -5.83301 -35.833 -17.5 -47.5s-27.167 -17.5 -46.5 -17.5c-4.66699 0 -11 0.666992 -19 2l-101 19
c-8 1.33301 -13.667 2 -17 2c-16 0 -29 -5 -39 -15s-15 -23.333 -15 -40v-9h-10v9c-0 20 5.83301 35.833 17.5 47.5z" />
    <glyph glyph-name="uni0654" unicode="&#x654;" 
d="M248 558l-246.001 -59l-2 10l116 28c-17.333 4 -31.666 13.333 -42.999 28s-17 32 -17 52c0 22 7.5 41 22.5 57s34.5 24 58.5 24c18 0 40 -3 66 -9l-2 -10c-26 5.33301 -47.667 8 -65 8c-20.667 0 -37.5 -6.83301 -50.5 -20.5s-19.5 -30.167 -19.5 -49.5
c0 -21.333 7 -38.833 21 -52.5s30.667 -20.5 50 -20.5c3.33301 0 9 0.666992 17 2l92 22z" />
    <glyph glyph-name="uni0655" unicode="&#x655;" 
d="M246 -296l-246.001 -59l-2 10l116 28c-17.333 4 -31.666 13.333 -42.999 28s-17 32 -17 52c0 22 7.5 41 22.5 57s34.5 24 58.5 24c18 0 40 -3 66 -9l-2 -10c-26 5.33301 -47.667 8 -65 8c-20.667 0 -37.5 -6.83301 -50.5 -20.5s-19.5 -30.167 -19.5 -49.5
c0 -21.333 7 -38.833 21 -52.5s30.667 -20.5 50 -20.5c3.33301 0 9 0.666992 17 2l92 22z" />
    <glyph glyph-name="uni0656" unicode="&#x656;" 
d="M11 -237v-163h-11v163h11z" />
    <glyph glyph-name="uni0660" unicode="&#x660;" horiz-adv-x="237" 
d="M70 238l49 50l48 -50l-48 -48z" />
    <glyph glyph-name="uni0661" unicode="&#x661;" horiz-adv-x="244" 
d="M110 655l64 -655h-10l-64 655h10z" />
    <glyph glyph-name="uni0662" unicode="&#x662;" horiz-adv-x="493" 
d="M399 427c-10.667 -19.333 -26 -34.833 -46 -46.5s-42 -17.5 -66 -17.5h-45c-24 0 -45.667 6.16699 -65 18.5s-34.333 29.166 -45 50.499l42 -432h-10l-46 476c-1.33301 5.33301 -2 9 -2 11l-16 169h10l17 -176c5.33301 -32 18.5 -57.833 39.5 -77.5
s46.167 -29.5 75.5 -29.5h45c22 0 42.167 5.33301 60.5 16s32.5 24.834 42.5 42.501s14 36.167 12 55.5l-17 168l10 2l17 -168c2 -22 -2.33301 -42.667 -13 -62z" />
    <glyph glyph-name="uni0663" unicode="&#x663;" horiz-adv-x="724" 
d="M629.5 426c-11 -19.333 -26.6631 -34.666 -46.9961 -45.999s-41.833 -17 -64.5 -17h-9c-27.333 0 -51.5 8 -72.5 24s-36.167 37.667 -45.5 65c-6.66699 -26 -21.667 -47.333 -45 -64s-49 -25 -77 -25h-27c-24 0 -45.667 6.16699 -65 18.5s-34.333 29.166 -45 50.499
l42 -432h-10l-47 477l-1 10v0l-16 168h10l17 -174c5.33301 -32.667 18.333 -58.834 39 -78.501s46 -29.5 76 -29.5h27c20.667 0 40.167 5 58.5 15s32.666 23.667 42.999 41s14.833 36.333 13.5 57v2l-14 144h10l14 -144v-2c3.33301 -33.333 15.666 -60.5 36.999 -81.5
s47.333 -31.5 78 -31.5h9c21.333 0 41.166 5.16699 59.499 15.5s32.666 24.333 42.999 42s14.5 36.834 12.5 57.501l-16 167h10l16 -167c2 -22 -2.5 -42.667 -13.5 -62z" />
    <glyph glyph-name="uni0664" unicode="&#x664;" horiz-adv-x="490" 
d="M410 10l-0.000976562 -10h-186c-22 0 -42.5 5.5 -61.5 16.5s-34.167 26 -45.5 45s-17 39.167 -17 60.5c0 34 12 61.667 36 83s56 39 96 53l127 46l-102 37c-39.333 14.667 -67.666 31.5 -84.999 50.5s-26 42.5 -26 70.5c0 28.667 8.83301 52.667 26.5 72
s44.834 34.333 81.501 45l127 38l2 -10l-127 -38c-66.667 -19.333 -100 -55 -100 -107c0 -25.333 8.16699 -46.833 24.5 -64.5s43.166 -33.167 80.499 -46.5l116 -42v-10l-141 -51c-43.333 -14.667 -75.166 -32.167 -95.499 -52.5s-30.5 -44.833 -30.5 -73.5
c0 -30.667 11.167 -57 33.5 -79s49.166 -33 80.499 -33h186z" />
    <glyph glyph-name="uni0665" unicode="&#x665;" horiz-adv-x="610" 
d="M100 175c0 34 3.66699 69 11 105c13.333 65.333 28.5 118.333 45.5 159s38.833 67.334 65.5 80.001c14 7.33301 29.667 11 47 11c38 0 77.5 -17.5 118.5 -52.5s75 -78.333 102 -130s40.5 -100.167 40.5 -145.5c0 -9.33301 -0.333008 -16.333 -1 -21
c-5.33301 -48.667 -25 -91.834 -59 -129.501s-99 -56.5 -195 -56.5c-116.667 0 -175 60 -175 180zM425.5 34c35 19.333 58.502 41.6689 70.502 67.002s19.667 52.666 23 81.999c0.666992 4.66699 1 11.667 1 21c0 44 -13 91 -39 141s-58.5 91.833 -97.5 125.5
s-76.833 50.5 -113.5 50.5c-16 0 -30.667 -3.33301 -44 -10c-22.667 -11.333 -42.334 -35.333 -59.001 -72s-32 -90.334 -46 -161.001c-7.33301 -36 -11 -70.667 -11 -104c0 -56.667 13.667 -99 41 -127s68.666 -42 123.999 -42c65.333 0 115.5 9.66699 150.5 29z" />
    <glyph glyph-name="uni0666" unicode="&#x666;" horiz-adv-x="611" 
d="M299 623c-80 0 -146.333 8.33301 -199 25l4 10c50.667 -16.667 115.667 -25 195 -25c56.667 0 111.667 3.66699 165 11l6 -5l61 -639h-10l-60 633c-63.333 -6.66699 -117.333 -10 -162 -10z" />
    <glyph glyph-name="uni0667" unicode="&#x667;" horiz-adv-x="631" 
d="M320 0h-10l-230 651l10 4l225 -638l226 638l10 -4z" />
    <glyph glyph-name="uni0668" unicode="&#x668;" horiz-adv-x="631" 
d="M311 655h10l230 -651l-10 -4l-225 638l-226 -638l-10 4z" />
    <glyph glyph-name="uni0669" unicode="&#x669;" horiz-adv-x="528" 
d="M438 0l-36 360.998h-153c-27.333 0 -52.333 6.5 -75 19.5s-40.667 30.833 -54 53.5s-20 47.334 -20 74.001s6.66699 51.334 20 74.001s31.333 40.5 54 53.5s47.667 19.5 75 19.5c39.333 0 73 -13.667 101 -41s44 -62.333 48 -105l50 -509h-10zM401 370.998l-13 137
c-4 40 -19 72.833 -45 98.5s-57.333 38.5 -94 38.5c-25.333 0 -48.666 -6 -69.999 -18s-38.166 -28.5 -50.499 -49.5s-18.5 -44.167 -18.5 -69.5c0 -24.667 6.16699 -47.5 18.5 -68.5s29.166 -37.667 50.499 -50s44.666 -18.5 69.999 -18.5h152z" />
    <glyph glyph-name="uni066A" unicode="&#x66a;" horiz-adv-x="313" 
d="M234 627l-139 -623h-12l139 623h12zM35 557.5c-6.66699 7 -10 15.5 -10 25.5c0 9.33301 3.33301 17.333 10 24s15 10 25 10c9.33301 0 17.5 -3.33301 24.5 -10s10.5 -14.667 10.5 -24c0 -10 -3.5 -18.5 -10.5 -25.5s-15.167 -10.5 -24.5 -10.5
c-10 0 -18.333 3.5 -25 10.5zM228 21.5c-6.66699 7 -10 15.5 -10 25.5c0 9.33301 3.33301 17.333 10 24s15 10 25 10c9.33301 0 17.5 -3.33301 24.5 -10s10.5 -14.667 10.5 -24c0 -10 -3.5 -18.5 -10.5 -25.5s-15.167 -10.5 -24.5 -10.5c-10 0 -18.333 3.5 -25 10.5z" />
    <glyph glyph-name="uni066B" unicode="&#x66b;" horiz-adv-x="326" 
d="M256 464l10 -4l-216 -536l-10 4z" />
    <glyph glyph-name="uni066C" unicode="&#x66c;" horiz-adv-x="234" 
d="M154 124l10 -4l-84 -238l-10 4z" />
    <glyph glyph-name="uni066D" unicode="&#x66d;" horiz-adv-x="482" 
d="M249 411l113 -155l-8 -6l-113 155l-113 -155l-8 6l113 155l-183 59l4 10l182 -59v192h10v-192l182 59l4 -10z" />
    <glyph glyph-name="uni066E" unicode="&#x66e;" horiz-adv-x="852" 
d="M604 12.5c38.667 1.66699 64.6689 4 78.002 7s27.333 7.5 42 13.5c45.333 19.333 68 53.333 68 102c0 17.333 -3 37 -9 59l-38 139l10 2l38 -139c6 -22 9 -42.667 9 -62c0 -54 -24.667 -91 -74 -111c-14.667 -6 -28.834 -10.333 -42.501 -13s-40.334 -5 -80.001 -7
s-99.5 -3 -179.5 -3v10c80 0 139.333 0.833008 178 2.5zM246.002 2.5c-40 1.66699 -67.167 4 -81.5 7s-28.166 7.5 -41.499 13.5c-48.667 20.667 -73 58 -73 112c0 18.667 3 39 9 61l35 136l10 -2l-35 -136c-5.33301 -19.333 -8 -39 -8 -59c0 -48.667 22 -82.667 66 -102
c14 -6 27.833 -10.5 41.5 -13.5s40.167 -5.33301 79.5 -7s98.666 -2.5 177.999 -2.5v-10c-80 -0 -140 0.833008 -180 2.5z" />
    <glyph glyph-name="uni066F" unicode="&#x66f;" horiz-adv-x="606" 
d="M260 -246c-66 0 -117.499 21 -154.499 63s-55.5 99.667 -55.5 173c0 56 12 119 36 189l10 -4c-24 -68.667 -36 -131 -36 -187c0 -69.333 17.5 -123.833 52.5 -163.5s84.167 -59.5 147.5 -59.5c24 0 50 3 78 9c51.333 12 91.5 24 120.5 36s50.833 28 65.5 48
s22 46.667 22 80c0 6 -0.666992 15.667 -2 29l-6 56c-14 -4 -35.167 -8.16699 -63.5 -12.5s-60.166 -6.5 -95.499 -6.5c-39.333 0 -71.5 12.667 -96.5 38s-37.5 58.333 -37.5 99c0 26 5.5 51.333 16.5 76s27.167 44.834 48.5 60.501s46.666 23.5 75.999 23.5
c40.667 0 74.667 -15.667 102 -47s43.666 -73 48.999 -125l17 -161c1.33301 -14.667 2 -25 2 -31c0 -35.333 -7.83301 -63.833 -23.5 -85.5s-38.5 -38.834 -68.5 -51.501s-71.333 -24.667 -124 -36c-27.333 -6.66699 -54 -10 -80 -10zM537.001 33l-10.001 94
c-5.33301 50.667 -20.833 90.667 -46.5 120s-57.167 44 -94.5 44c-28 0 -51.833 -7.33301 -71.5 -22s-34.334 -33.5 -44.001 -56.5s-14.5 -47.167 -14.5 -72.5c0 -38 11.333 -68.5 34 -91.5s52.334 -34.5 89.001 -34.5c54.667 0 107.334 6.33301 158.001 19z" />
    <glyph glyph-name="uni0670" unicode="&#x670;" 
d="M11 663v-163h-11v163h11z" />
    <glyph glyph-name="uni0671" unicode="&#x671;" horiz-adv-x="265" 
d="M140 517l20 -517l-10 -1l-20 517zM260 690c14 -14.667 21.001 -33 21.001 -55c0 -18.667 -7.33301 -35 -22 -49s-31.667 -21 -51 -21h-141c-12.667 0 -22.834 -2.5 -30.501 -7.5s-17.167 -15.167 -28.5 -30.5l-8 6c11.333 15.333 21.333 26 30 32s20 9.33301 34 10l38 52
c21.333 29.333 39.5 50.833 54.5 64.5s32.167 20.5 51.5 20.5c20.667 0 38 -7.33301 52 -22zM252.001 593.5c12.667 12.333 18.999 26.167 18.999 41.5c0 19.333 -6 35.333 -18 48s-27 19 -45 19c-17.333 0 -32.5 -6.16699 -45.5 -18.5s-30.167 -32.833 -51.5 -61.5l-34 -47
h131c16.667 0 31.334 6.16699 44.001 18.5z" />
    <glyph glyph-name="uni067E" unicode="&#x67e;" horiz-adv-x="852" 
d="M604 12.5c38.667 1.66699 64.6689 4 78.002 7s27.333 7.5 42 13.5c45.333 19.333 68 53.333 68 102c0 17.333 -3 37 -9 59l-38 139l10 2l38 -139c6 -22 9 -42.667 9 -62c0 -54 -24.667 -91 -74 -111c-14.667 -6 -28.834 -10.333 -42.501 -13s-40.334 -5 -80.001 -7
s-99.5 -3 -179.5 -3v10c80 0 139.333 0.833008 178 2.5zM246.002 2.5c-40 1.66699 -67.167 4 -81.5 7s-28.166 7.5 -41.499 13.5c-48.667 20.667 -73 58 -73 112c0 18.667 3 39 9 61l35 136l10 -2l-35 -136c-5.33301 -19.333 -8 -39 -8 -59c0 -48.667 22 -82.667 66 -102
c14 -6 27.833 -10.5 41.5 -13.5s40.167 -5.33301 79.5 -7s98.666 -2.5 177.999 -2.5v-10c-80 -0 -140 0.833008 -180 2.5zM411.002 -234.5c-4 4.33301 -6.66699 6.83301 -8 7.5l8 8l14 14l14 -14l8 -8c-1.33301 -0.666992 -4 -3.16699 -8 -7.5l-14 -14.5zM334.002 -136
l22 22l22 -22l-22 -22zM474.002 -136l22 22l22 -22l-22 -22z" />
    <glyph glyph-name="uni0686" unicode="&#x686;" horiz-adv-x="670" 
d="M617 188l-357 -98.001c-74.667 -20 -126.667 -50 -156 -90s-44 -83 -44 -129c0 -21.333 2.33301 -40.666 7 -57.999c12.667 -48 38.5 -86.333 77.5 -115s83.833 -43 134.5 -43c20 0 41.333 2.66699 64 8l256 71l2 -10l-256 -71c-19.333 -5.33301 -41 -8 -65 -8
c-53.333 0 -100.5 15 -141.5 45s-68.167 70.333 -81.5 121c-4.66699 17.333 -7 36.666 -7 57.999c0 48 15.333 93.333 46 136s84.667 74.334 162 95.001l350 96l-290 162c-24.667 14 -50.334 21 -77.001 21s-51.667 -7.16699 -75 -21.5s-43 -34.833 -59 -61.5l-18 -32l-8 4
l18 33c16 28 36.333 49.5 61 64.5s51.334 22.5 80.001 22.5c28 0 55.333 -7.33301 82 -22l298 -165zM407 -73.001c-6.66699 4 -12.5 7.33203 -17.5 9.99902s-8.5 4.33398 -10.5 5.00098l15 28l17.5 -9c5 -2.66699 8.16699 -4.66699 9.5 -6zM277.5 -80.002
c5 -2.66699 8.16699 -4.66797 9.5 -6.00098l-14 -27l-17.5 9c-5 2.66699 -8.5 4.33398 -10.5 5.00098l15 28zM339 -164.003c-0.666992 1.33301 4 10.333 14 27l28 -15c-0.666992 0.666992 -5.66699 -8.33301 -15 -27zM339 -164.003z" />
    <glyph glyph-name="uni0698" unicode="&#x698;" horiz-adv-x="291" 
d="M29 -240c44 11.333 79.167 22.335 105.5 33.002s49 27.167 68 49.5s28.5 52.166 28.5 89.499c0 14 -0.666992 24.667 -2 32l-39 288l10 2l39 -289c1.33301 -8 2 -19 2 -33c0 -39.333 -10.167 -70.833 -30.5 -94.5s-44.5 -41.334 -72.5 -53.001s-64.333 -23.5 -109 -35.5
l-27 -7l-2 10zM167 472.502c-4 4.33301 -6.66699 6.83301 -8 7.5l8 8l14 14l14 -14l8 -8c-1.33301 -0.666992 -4 -3.16699 -8 -7.5l-14 -14.5zM90 389.002l22 22l22 -22l-22 -22zM230 389.002l22 22l22 -22l-22 -22z" />
    <glyph glyph-name="uni06A1" unicode="&#x6a1;" horiz-adv-x="853" 
d="M803 89c0 -24 -4.33105 -42.168 -12.998 -54.501s-24.5 -21.166 -47.5 -26.499s-56.833 -8 -101.5 -8h-220c-78.667 -0 -137.5 0.833008 -176.5 2.5s-65.667 4 -80 7s-28.166 7.5 -41.499 13.5c-48.667 20.667 -73 58 -73 112c0 18.667 3 39 9 61l35 136l10 -2l-35 -136
c-5.33301 -19.333 -8 -39 -8 -59c0 -48.667 22 -82.667 66 -102c14 -6 27.833 -10.5 41.5 -13.5s40.167 -5.33301 79.5 -7s98.666 -2.5 177.999 -2.5h216c41.333 0 72.666 2.33301 93.999 7s36 12.5 44 23.5s12 27.167 12 48.5c0 13.333 -1 29 -3 47
c-44.667 -14 -97.334 -21 -158.001 -21c-40 0 -72.5 12.667 -97.5 38s-37.5 58.333 -37.5 99c0 26 5.5 51.333 16.5 76s27.333 44.834 49 60.501s47.167 23.5 76.5 23.5c40 0 73.5 -15.5 100.5 -46.5s43.5 -72.833 49.5 -125.5l10 -89c3.33301 -26.667 5 -47.334 5 -62.001z
M788.002 146.999v2l-10 89c-6 50.667 -21.5 90.667 -46.5 120s-56.167 44 -93.5 44c-28 0 -51.833 -7.33301 -71.5 -22s-34.5 -33.5 -44.5 -56.5s-15 -47.167 -15 -72.5c0 -38 11.333 -68.5 34 -91.5s52.667 -34.5 90 -34.5c56 0 108.333 7.33301 157 22z" />
    <glyph glyph-name="uni06A4" unicode="&#x6a4;" horiz-adv-x="853" 
d="M803 89c0 -24 -4.33105 -42.168 -12.998 -54.501s-24.5 -21.166 -47.5 -26.499s-56.833 -8 -101.5 -8h-220c-78.667 -0 -137.5 0.833008 -176.5 2.5s-65.667 4 -80 7s-28.166 7.5 -41.499 13.5c-48.667 20.667 -73 58 -73 112c0 18.667 3 39 9 61l35 136l10 -2l-35 -136
c-5.33301 -19.333 -8 -39 -8 -59c0 -48.667 22 -82.667 66 -102c14 -6 27.833 -10.5 41.5 -13.5s40.167 -5.33301 79.5 -7s98.666 -2.5 177.999 -2.5h216c41.333 0 72.666 2.33301 93.999 7s36 12.5 44 23.5s12 27.167 12 48.5c0 13.333 -1 29 -3 47
c-44.667 -14 -97.334 -21 -158.001 -21c-40 0 -72.5 12.667 -97.5 38s-37.5 58.333 -37.5 99c0 26 5.5 51.333 16.5 76s27.333 44.834 49 60.501s47.167 23.5 76.5 23.5c40 0 73.5 -15.5 100.5 -46.5s43.5 -72.833 49.5 -125.5l10 -89c3.33301 -26.667 5 -47.334 5 -62.001z
M788.002 146.999v2l-10 89c-6 50.667 -21.5 90.667 -46.5 120s-56.167 44 -93.5 44c-28 0 -51.833 -7.33301 -71.5 -22s-34.5 -33.5 -44.5 -56.5s-15 -47.167 -15 -72.5c0 -38 11.333 -68.5 34 -91.5s52.667 -34.5 90 -34.5c56 0 108.333 7.33301 157 22zM621.002 589.499
c-4 4.33301 -6.66699 6.83301 -8 7.5l8 8l14 14l14 -14l8 -8c-1.33301 -0.666992 -4 -3.16699 -8 -7.5l-14 -14.5zM544.002 505.999l22 22l22 -22l-22 -22zM684.002 505.999l22 22l22 -22l-22 -22z" />
    <glyph glyph-name="uni06A9" unicode="&#x6a9;" horiz-adv-x="865" 
d="M706 172c12 -18.667 18.001 -38.999 18.001 -60.999c0 -18.667 -4.5 -36.334 -13.5 -53.001s-21.5 -30 -37.5 -40c-18 -12 -38.333 -18 -61 -18h-191c-78.667 -0 -137.5 0.833008 -176.5 2.5s-65.667 4 -80 7s-28.166 7.5 -41.499 13.5c-48.667 20.667 -73 58 -73 112
c0 18.667 3 39 9 61l35 136l10 -2l-35 -136c-5.33301 -19.333 -8 -39 -8 -59c0 -48.667 22 -82.667 66 -102c14 -6 27.833 -10.5 41.5 -13.5s40.167 -5.33301 79.5 -7s98.666 -2.5 177.999 -2.5h186c21.333 0 39.666 5.33301 54.999 16c14.667 10 26 22.667 34 38
s12 31.333 12 48c0 19.333 -5 37.333 -15 54l-225 318l2 8l361 133l4 -10l-355 -131z" />
    <glyph glyph-name="uni06AF" unicode="&#x6af;" horiz-adv-x="865" 
d="M706 172c12 -18.667 18.001 -38.999 18.001 -60.999c0 -18.667 -4.5 -36.334 -13.5 -53.001s-21.5 -30 -37.5 -40c-18 -12 -38.333 -18 -61 -18h-191c-78.667 -0 -137.5 0.833008 -176.5 2.5s-65.667 4 -80 7s-28.166 7.5 -41.499 13.5c-48.667 20.667 -73 58 -73 112
c0 18.667 3 39 9 61l35 136l10 -2l-35 -136c-5.33301 -19.333 -8 -39 -8 -59c0 -48.667 22 -82.667 66 -102c14 -6 27.833 -10.5 41.5 -13.5s40.167 -5.33301 79.5 -7s98.666 -2.5 177.999 -2.5h186c21.333 0 39.666 5.33301 54.999 16c14.667 10 26 22.667 34 38
s12 31.333 12 48c0 19.333 -5 37.333 -15 54l-225 318l2 8l361 133l4 -10l-355 -131zM751.001 687.001l4 -10l-243 -88l-4 10z" />
    <glyph glyph-name="uni06BA" unicode="&#x6ba;" horiz-adv-x="606" 
d="M260 -246c-66 0 -117.5 21 -154.5 63s-55.5 99.667 -55.5 173c0 56 12 119 36 189l10 -4c-24 -68.667 -36 -131 -36 -187c0 -69.333 17.5 -123.833 52.5 -163.5s84.167 -59.5 147.5 -59.5c24 0 50 3 78 9c49.333 12 86.333 22.167 111 30.5s47 23.5 67 45.5s30 53 30 93
c0 10.667 -1 22.667 -3 36c-3.33301 26.667 -16.333 117.667 -39 273l10 2c22.667 -155.333 35.667 -246.333 39 -273c2 -14 3 -27 3 -39c0 -42 -10.667 -74.667 -32 -98s-45 -39.5 -71 -48.5s-63.667 -19.5 -113 -31.5c-27.333 -6.66699 -54 -10 -80 -10z" />
    <glyph glyph-name="uni06C0" unicode="&#x6c0;" horiz-adv-x="376" 
d="M309.5 213.5c11.667 -23 17.4971 -48.167 17.4971 -75.5c0 -24.667 -6.16699 -47.667 -18.5 -69s-29.166 -38.166 -50.499 -50.499s-44.333 -18.5 -69 -18.5c-25.333 0 -48.666 6.16699 -69.999 18.5s-38.166 29.166 -50.499 50.499s-18.5 44.333 -18.5 69
c0 22.667 6 45.667 18 69s28.667 45.333 50 66l71 68l-44 45l8 6l95 -99c29.333 -30 49.833 -56.5 61.5 -79.5zM279.497 47.5c25 25 37.499 55.168 37.499 90.501c0 24.667 -5.16699 47.834 -15.5 69.501s-30.833 48.167 -61.5 79.5l-45 46l-71 -68
c-20 -20 -35.667 -40.833 -47 -62.5s-17 -43.167 -17 -64.5c0 -22.667 5.83301 -43.834 17.5 -63.501s27.334 -35.334 47.001 -47.001s41.167 -17.5 64.5 -17.5c35.333 0 65.5 12.5 90.5 37.5zM116.996 462.001c37.333 3.33301 64.166 6.16602 80.499 8.49902
s29.333 6.16602 39 11.499s14.5 13.333 14.5 24c0 9.33301 -2.66699 16.5 -8 21.5s-14.5 9.16699 -27.5 12.5s-28.167 7 -45.5 11c-28 6.66699 -47.333 12.834 -58 18.501s-16 14.5 -16 26.5c0 7.33301 3.33301 19.333 10 36c9.33301 22.667 21.833 39.667 37.5 51
s33.5 17 53.5 17c12 0 24.333 -2 37 -6l36 -11l-2 -10l-37 11c-10 3.33301 -21 5 -33 5c-35.333 0 -62.666 -20.333 -81.999 -61c-6.66699 -14.667 -10 -25 -10 -31c0 -8.66699 4.66699 -15.334 14 -20.001s26.666 -10 51.999 -16
c5.33301 -1.33301 17.833 -4.16602 37.5 -8.49902s33.167 -10.166 40.5 -17.499s11 -17 11 -29c0 -13.333 -5.5 -23.333 -16.5 -30s-25.667 -11.5 -44 -14.5s-47.166 -6.16699 -86.499 -9.5l-35 -3v10z" />
    <glyph glyph-name="uni06CC" unicode="&#x6cc;" horiz-adv-x="646" 
d="M261 -246c-65.333 0 -116.666 21.3311 -153.999 63.998s-56 100.334 -56 173.001c0 58 11.667 120.667 35 188l10 -4c-23.333 -66 -35 -127.667 -35 -185c0 -70 17.5 -125.167 52.5 -165.5s83.833 -60.5 146.5 -60.5c25.333 0 51.333 3.33301 78 10
c46.667 10.667 86.5 23.834 119.5 39.501s57.833 32 74.5 49s25 33.167 25 48.5c0 12 -3.66699 21.333 -11 28s-19.666 13 -36.999 19s-47.333 15 -90 27c-28.667 8 -50.5 15.167 -65.5 21.5s-27.667 15.833 -38 28.5s-15.5 29.667 -15.5 51c0 15.333 3 34 9 56
c4 15.333 12.667 35 26 59s32.5 46.167 57.5 66.5s55.167 30.5 90.5 30.5c16 0 32 -2.33301 48 -7l65 -18l-2 -10l-65 18c-14.667 4.66699 -30 7 -46 7c-33.333 0 -61.833 -9.66699 -85.5 -29s-41.834 -40.5 -54.501 -63.5s-20.667 -41.5 -24 -55.5
c-5.33301 -18.667 -8 -36.334 -8 -53.001c0 -19.333 4.5 -34.666 13.5 -45.999s20.5 -19.833 34.5 -25.5s34.667 -12.5 62 -20.5c43.333 -12 74.166 -21.333 92.499 -28s31.833 -14.167 40.5 -22.5s13 -19.5 13 -33.5c0 -28 -20.333 -55.5 -61 -82.5s-96 -48.5 -166 -64.5
c-26.667 -6.66699 -53 -10 -79 -10z" />
    <glyph glyph-name="uni06F0" unicode="&#x6f0;" horiz-adv-x="456" 
d="M357.5 162c-12.333 -21.333 -29.166 -38.166 -50.499 -50.499s-44.333 -18.5 -69 -18.5s-47.667 6.16699 -69 18.5s-38.166 29.166 -50.499 50.499s-18.5 44.333 -18.5 69c0 25.333 6.16699 48.666 18.5 69.999s29.166 38.166 50.499 50.499s44.333 18.5 69 18.5
s47.667 -6.16699 69 -18.5s38.166 -29.166 50.499 -50.499s18.5 -44.666 18.5 -69.999c0 -24.667 -6.16699 -47.667 -18.5 -69zM328.5 322.5c-25 25 -55.167 37.5029 -90.5 37.5029c-22.667 0 -43.834 -5.83301 -63.501 -17.5s-35.334 -27.334 -47.001 -47.001
s-17.5 -41.167 -17.5 -64.5c0 -22.667 5.83301 -43.834 17.5 -63.501s27.334 -35.334 47.001 -47.001s40.834 -17.5 63.501 -17.5c35.333 0 65.5 12.5 90.5 37.5s37.5 55.167 37.5 90.5c0 36 -12.5 66.5 -37.5 91.5z" />
    <glyph glyph-name="uni06F1" unicode="&#x6f1;" horiz-adv-x="244" 
d="M110 655l64 -655h-10l-64 655h10z" />
    <glyph glyph-name="uni06F2" unicode="&#x6f2;" horiz-adv-x="493" 
d="M399 427c-10.667 -19.333 -26 -34.833 -46 -46.5s-42 -17.5 -66 -17.5h-45c-24 0 -45.667 6.16699 -65 18.5s-34.333 29.166 -45 50.499l42 -432h-10l-46 476c-1.33301 5.33301 -2 9 -2 11l-16 169h10l17 -176c5.33301 -32 18.5 -57.833 39.5 -77.5
s46.167 -29.5 75.5 -29.5h45c22 0 42.167 5.33301 60.5 16s32.5 24.834 42.5 42.501s14 36.167 12 55.5l-17 168l10 2l17 -168c2 -22 -2.33301 -42.667 -13 -62z" />
    <glyph glyph-name="uni06F3" unicode="&#x6f3;" horiz-adv-x="724" 
d="M629.5 426c-11 -19.333 -26.6631 -34.666 -46.9961 -45.999s-41.833 -17 -64.5 -17h-9c-27.333 0 -51.5 8 -72.5 24s-36.167 37.667 -45.5 65c-6.66699 -26 -21.667 -47.333 -45 -64s-49 -25 -77 -25h-27c-24 0 -45.667 6.16699 -65 18.5s-34.333 29.166 -45 50.499
l42 -432h-10l-47 477l-1 10v0l-16 168h10l17 -174c5.33301 -32.667 18.333 -58.834 39 -78.501s46 -29.5 76 -29.5h27c20.667 0 40.167 5 58.5 15s32.666 23.667 42.999 41s14.833 36.333 13.5 57v2l-14 144h10l14 -144v-2c3.33301 -33.333 15.666 -60.5 36.999 -81.5
s47.333 -31.5 78 -31.5h9c21.333 0 41.166 5.16699 59.499 15.5s32.666 24.333 42.999 42s14.5 36.834 12.5 57.501l-16 167h10l16 -167c2 -22 -2.5 -42.667 -13.5 -62z" />
    <glyph glyph-name="uni06F4" unicode="&#x6f4;" horiz-adv-x="656" 
d="M576 373l0.000976562 -9.99707h-335c-24 0 -45.5 6.16699 -64.5 18.5s-33.833 29.166 -44.5 50.499l41 -432h-10l-46 479l-1 9l-16 168h10l17 -175c4.66699 -32 17.5 -58 38.5 -78s46.167 -30 75.5 -30h107c-28 10.667 -50.333 28.167 -67 52.5s-25 52.166 -25 83.499
c0 27.333 6.5 52.166 19.5 74.499s30.833 39.833 53.5 52.5s47.334 19 74.001 19c15.333 0 36.166 -4.5 62.499 -13.5s53.5 -19.833 81.5 -32.5l-4 -10c-27.333 12.667 -53.833 23.5 -79.5 32.5s-45.834 13.5 -60.501 13.5c-25.333 0 -48.5 -5.83301 -69.5 -17.5
s-37.5 -28 -49.5 -49s-18 -44.167 -18 -69.5c0 -38.667 13 -71 39 -97s58.333 -39 97 -39h174z" />
    <glyph glyph-name="uni06F5" unicode="&#x6f5;" horiz-adv-x="678" 
d="M512 365c38.667 -48.667 62.668 -87.499 72.001 -116.499s14 -71.5 14 -127.5c0 -34 -11.667 -62.667 -35 -86s-52 -35 -86 -35h-11c-28 0 -52.333 8 -73 24s-35 37.667 -43 65c-7.33301 -26 -21.833 -47.333 -43.5 -64s-46.5 -25 -74.5 -25h-11
c-34 0 -62.667 11.667 -86 35s-35 52 -35 86c0 54 3.66699 94.667 11 122s26.666 61.666 57.999 102.999s89 108.333 173 201l-64 71l8 6c112 -124 187.333 -210.333 226 -259zM556.001 42.001c21.333 21.333 32.0039 47.6641 32.0039 78.9971
c0 51.333 -3.83301 90.5 -11.5 117.5s-26.834 60.667 -57.501 101s-87.334 106.833 -170.001 199.5c-84 -92 -141.167 -158 -171.5 -198s-49.166 -73.333 -56.499 -100s-11 -66.667 -11 -120c0 -31.333 10.667 -57.666 32 -78.999s47.666 -32 78.999 -32h11
c30.667 0 57 10.833 79 32.5s33 47.834 33 78.501v61h10v-61c3.33301 -33.333 15.166 -60.166 35.499 -80.499s45.833 -30.5 76.5 -30.5h11c31.333 0 57.666 10.667 78.999 32z" />
    <glyph glyph-name="uni06F6" unicode="&#x6f6;" horiz-adv-x="552" 
d="M371 387l-263.001 -390.002l-8 6l236 350c-23.333 -16.667 -50.333 -25 -81 -25c-30 0 -57.667 8.66699 -83 26c-21.333 14 -37.666 31.5 -48.999 52.5s-17 43.167 -17 66.5c0 30 9 58 27 84c8.66699 12.667 24.167 27.334 46.5 44.001s46.5 32.667 72.5 48l6 -8
c-26 -15.333 -50 -31.166 -72 -47.499s-37 -30.5 -45 -42.5c-16 -24 -24 -49.667 -24 -77c0 -22 5.33301 -42.833 16 -62.5s25.667 -36.167 45 -49.5c23.333 -16.667 49 -25 77 -25c20.667 0 40.5 4.83301 59.5 14.5s35.167 23.5 48.5 41.5l101 149l8 -6l-97 -144z" />
    <glyph glyph-name="uni06F7" unicode="&#x6f7;" horiz-adv-x="631" 
d="M320 0h-10l-230 651l10 4l225 -638l226 638l10 -4z" />
    <glyph glyph-name="uni06F8" unicode="&#x6f8;" horiz-adv-x="631" 
d="M311 655h10l230 -651l-10 -4l-225 638l-226 -638l-10 4z" />
    <glyph glyph-name="uni06F9" unicode="&#x6f9;" horiz-adv-x="528" 
d="M438 0l-36 360.998h-153c-27.333 0 -52.333 6.5 -75 19.5s-40.667 30.833 -54 53.5s-20 47.334 -20 74.001s6.66699 51.334 20 74.001s31.333 40.5 54 53.5s47.667 19.5 75 19.5c39.333 0 73 -13.667 101 -41s44 -62.333 48 -105l50 -509h-10zM401 370.998l-13 137
c-4 40 -19 72.833 -45 98.5s-57.333 38.5 -94 38.5c-25.333 0 -48.666 -6 -69.999 -18s-38.166 -28.5 -50.499 -49.5s-18.5 -44.167 -18.5 -69.5c0 -24.667 6.16699 -47.5 18.5 -68.5s29.166 -37.667 50.499 -50s44.666 -18.5 69.999 -18.5h152z" />
    <glyph glyph-name="uni2009" unicode="&#x2009;" horiz-adv-x="150" 
 />
    <glyph glyph-name="uni200A" unicode="&#x200a;" horiz-adv-x="75" 
 />
    <glyph glyph-name="uni200B" unicode="&#x200b;" 
 />
    <glyph glyph-name="uni200C" unicode="&#x200c;" 
 />
    <glyph glyph-name="uni200D" unicode="&#x200d;" 
 />
    <glyph glyph-name="quoteleft" unicode="&#x2018;" horiz-adv-x="141" 
d="M84 762h10l-36 -189h-11z" />
    <glyph glyph-name="quoteright" unicode="&#x2019;" horiz-adv-x="141" 
d="M94 763l-37 -189h-10l36 189h11z" />
    <glyph glyph-name="quotedblleft" unicode="&#x201c;" horiz-adv-x="282" 
d="M84 762h10l-36 -189h-11zM225 762h10l-36 -189h-11z" />
    <glyph glyph-name="quotedblright" unicode="&#x201d;" horiz-adv-x="282" 
d="M94 763l-37 -189h-10l36 189h11zM235 763l-37 -189h-10l36 189h11z" />
    <glyph glyph-name="quotedblbase" unicode="&#x201e;" horiz-adv-x="282" 
d="M94 127l-37 -189h-10l36 189h11zM235 127l-37 -189h-10l36 189h11z" />
    <glyph glyph-name="guilsinglleft" unicode="&#x2039;" horiz-adv-x="341" 
d="M161.5 373.5c-12.333 -29 -18.501 -59.501 -18.501 -91.501c0 -30.667 5.83301 -60.167 17.5 -88.5s28.167 -53.5 49.5 -75.5l-8 -6c-22 22.667 -39 48.667 -51 78s-18 60 -18 92c0 33.333 6.5 65.333 19.5 96s31.833 57.334 56.5 80.001l6 -8
c-23.333 -22 -41.166 -47.5 -53.499 -76.5z" />
    <glyph glyph-name="guilsinglright" unicode="&#x203a;" horiz-adv-x="341" 
d="M188.5 378c13 -30.667 19.499 -62.666 19.499 -95.999c0 -32 -6 -62.667 -18 -92s-29 -55.333 -51 -78l-8 6c21.333 22 37.833 47.167 49.5 75.5s17.5 57.833 17.5 88.5c0 32 -6.16699 62.5 -18.5 91.5s-30.166 54.5 -53.499 76.5l6 8
c24.667 -22.667 43.5 -49.334 56.5 -80.001z" />
    <glyph glyph-name="minus" unicode="&#x2212;" horiz-adv-x="380" 
d="M345 308v-10h-310v10h310z" />
    <glyph glyph-name="notequal" unicode="&#x2260;" horiz-adv-x="380" 
d="M224 368l-57 -132h178v-10h-182l-37 -86h-13l37 86h-115v10h120l57 132h-177v10h181l39 89h12l-38 -89h116v-10h-121z" />
    <glyph glyph-name="dotabove-ar" unicode="&#xfbb2;" 
d="M17 382l25 25l24 -25l-24 -24z" />
    <glyph glyph-name="dotbelow-ar" unicode="&#xfbb3;" 
d="M17 -95l25 25l24 -25l-24 -24z" />
    <glyph glyph-name="twodotshorizontalabove-ar" unicode="&#xfbb4;" 
d="M16 462l22 22l22 -22l-22 -22zM156 462l22 22l22 -22l-22 -22z" />
    <glyph glyph-name="twodotshorizontalbelow-ar" unicode="&#xfbb5;" 
d="M16 -18l22 22l22 -22l-22 -22zM156 -18l22 22l22 -22l-22 -22z" />
    <glyph glyph-name="threedotsupabove-ar" unicode="&#xfbb6;" 
d="M93 545.5c-4 4.33301 -6.66699 6.83301 -8 7.5l8 8l14 14l14 -14l8 -8c-1.33301 -0.666992 -4 -3.16699 -8 -7.5l-14 -14.5zM16 462l22 22l22 -22l-22 -22zM156 462l22 22l22 -22l-22 -22z" />
    <glyph glyph-name="threedotsdownbelow-ar" unicode="&#xfbb9;" 
d="M93 -213.5c-4 4.33301 -6.66699 6.83301 -8 7.5l8 8l14 14l14 -14l8 -8c-1.33301 -0.666992 -4 -3.16699 -8 -7.5l-14 -14.5zM16 -115l22 22l22 -22l-22 -22zM156 -115l22 22l22 -22l-22 -22z" />
    <glyph glyph-name="uniFD3E" unicode="&#xfd3e;" horiz-adv-x="290" 
d="M96 7c-30.667 75.333 -45.999 154 -45.999 236c0 82.667 15.667 162 47 238s76.333 143.667 135 203l8 -8c-58 -57.333 -102.5 -123.333 -133.5 -198s-46.5 -153 -46.5 -235c0 -80.667 15.167 -158 45.5 -232s73.5 -139.333 129.5 -196l-8 -8
c-56.667 58 -100.334 124.667 -131.001 200z" />
    <glyph glyph-name="uniFD3F" unicode="&#xfd3f;" horiz-adv-x="290" 
d="M184.5 11c30.333 74 45.501 151.333 45.501 232c0 82 -15.5 160.333 -46.5 235s-75.5 140.667 -133.5 198l8 8c58.667 -59.333 103.667 -127 135 -203s47 -155.333 47 -238c0 -82 -15.333 -160.667 -46 -236s-74.334 -142 -131.001 -200l-8 8
c56 56.667 99.167 122 129.5 196z" />
    <glyph glyph-name="uniFEFF" unicode="&#xfeff;" 
 />
    <glyph glyph-name=".null" 
 />
    <glyph glyph-name="b.bowl" horiz-adv-x="306" 
d="M43 26c-28.667 21.333 -42.999 51.333 -42.999 90v216c0 38 14.333 67.667 43 89s65 32 109 32c44.667 0 81.5 -10.667 110.5 -32s43.5 -51 43.5 -89v-216c0 -38.667 -14.5 -68.667 -43.5 -90s-65.5 -32 -109.5 -32c-44.667 0 -81.334 10.667 -110.001 32zM254.501 33
c26.333 19.333 39.501 46.999 39.501 82.999v216c0 36 -13.167 63.5 -39.5 82.5s-60.5 28.5 -102.5 28.5c-41.333 0 -75.333 -9.66699 -102 -29s-40 -46.666 -40 -81.999v-216c0 -36 13.333 -63.667 40 -83s61 -29 103 -29c41.333 0 75.166 9.66699 101.499 29z" />
    <glyph glyph-name="d.bowl" horiz-adv-x="306" 
d="M263 421c28.667 -21.333 42.999 -51.333 42.999 -90v-216c0 -38 -14.333 -67.667 -43 -89s-65 -32 -109 -32c-44.667 0 -81.5 10.667 -110.5 32s-43.5 51 -43.5 89v216c0 38.667 14.5 68.667 43.5 90s65.5 32 109.5 32c44.667 0 81.334 -10.667 110.001 -32zM51.499 414
c-26.333 -19.333 -39.501 -46.999 -39.501 -82.999v-216c0 -36 13.167 -63.5 39.5 -82.5s60.5 -28.5 102.5 -28.5c41.333 0 75.333 9.66699 102 29s40 46.666 40 81.999v216c0 36 -13.333 63.667 -40 83s-61 29 -103 29c-41.333 0 -75.166 -9.66699 -101.499 -29z" />
    <glyph glyph-name="n.curve" horiz-adv-x="306" 
d="M254.5 414.5c-26.333 19 -60.5 28.499 -102.5 28.499c-41.333 0 -75.333 -9.66699 -102 -29s-40 -46.666 -40 -81.999v-53h-10v53c-0 38 14.333 67.667 43 89s65 32 109 32c44.667 0 81.5 -10.667 110.5 -32s43.5 -51 43.5 -89v-332h-12v332
c0 36 -13.167 63.5 -39.5 82.5z" />
    <glyph glyph-name="uni0627.001" horiz-adv-x="134" 
d="M60 622l22 -561l-10 -14l-22 574z" />
    <glyph glyph-name="uni0627.002" horiz-adv-x="265" 
d="M140 517l20 -517l-10 -1l-20 517z" />
    <glyph glyph-name="uniFE8E.001" horiz-adv-x="272" 
d="M181.5 14.5c-19.667 9.66699 -33.667 25.832 -42 48.499s-13.5 55.334 -15.5 98.001l-14 356h10l14 -356c2 -41.333 6.83301 -72.5 14.5 -93.5s20.5 -35.833 38.5 -44.5s44.667 -13 80 -13h10v-10h-10c-37.333 -0 -65.833 4.83301 -85.5 14.5z" />
    <glyph glyph-name="uniFE8E.002" horiz-adv-x="298" 
d="M60 588l73 -508l-10 -2l-73 508zM303 10v-10h-220v10h220z" />
    <glyph glyph-name="uni066E.001" horiz-adv-x="426" 
d="M178 12.5c38.667 1.66699 64.6689 4 78.002 7s27.333 7.5 42 13.5c45.333 19.333 68 53.333 68 102c0 17.333 -3 37 -9 59l-38 139l10 2l38 -139c6 -22 9 -42.667 9 -62c0 -54 -24.667 -91 -74 -111c-14.667 -6 -28.834 -10.333 -42.501 -13s-40.334 -5 -80.001 -7
s-99.5 -3 -179.5 -3v10c80 0 139.333 0.833008 178 2.5z" />
    <glyph glyph-name="uni066E.fina.001" horiz-adv-x="426" 
d="M246 2.5c-40 1.66699 -67.167 4 -81.5 7s-28.166 7.5 -41.499 13.5c-48.667 20.667 -73 58 -73 112c0 18.667 3 39 9 61l35 136l10 -2l-35 -136c-5.33301 -19.333 -8 -39 -8 -59c0 -48.667 22 -82.667 66 -102c14 -6 27.833 -10.5 41.5 -13.5s40.167 -5.33301 79.5 -7
s98.666 -2.5 177.999 -2.5v-10c-80 -0 -140 0.833008 -180 2.5z" />
    <glyph glyph-name="uni066E.fina.001.003" horiz-adv-x="426" 
d="M81 34c-23.333 22.667 -33.334 54 -30.001 94l11 123h10l-11 -123l-1 -15c0 -32.667 10.833 -58 32.5 -76s52.167 -27 91.5 -27h242v-10h-242c-45.333 -0 -79.666 11.333 -102.999 34z" />
    <glyph glyph-name="uni066E.fina.002" horiz-adv-x="492" 
d="M408.5 38c19.667 -18.667 49.168 -27.999 88.501 -27.999v-10c-67.333 0 -109 28 -125 84c-6.66699 -26.667 -21.167 -47.334 -43.5 -62.001s-51.5 -22 -87.5 -22h-241v10h241c42 0 73.667 10 95 30s30.666 48.333 27.999 85v3l-11 123h10l11 -123
c3.33301 -41.333 14.833 -71.333 34.5 -90z" />
    <glyph glyph-name="uni066E.medi.001" horiz-adv-x="368" 
d="M284.5 38c19.667 -18.667 49.168 -27.999 88.501 -27.999v-10c-67.333 0 -109 28 -125 84c-6.66699 -26.667 -21.167 -47.334 -43.5 -62.001s-51.5 -22 -87.5 -22h-122v10h122c42 0 73.667 10 95 30s30.666 48.333 27.999 85v3l-11 123h10l11 -123
c3.33301 -41.333 14.833 -71.333 34.5 -90z" />
    <glyph glyph-name="uni066E.init.001" horiz-adv-x="334" 
d="M132 10c38.667 0 72 9 100 27s42 47.667 42 89c0 16.667 -3 36 -9 58l-39 149l10 2l39 -149c6 -22 9 -42 9 -60c0 -44 -15.333 -76 -46 -96s-66 -30 -106 -30h-137v10h137z" />
    <glyph glyph-name="uni066E.init.002" horiz-adv-x="277" 
d="M218 186c6 -22 9.00098 -41.666 9.00098 -58.999c0 -44.667 -15.333 -77 -46 -97s-66.334 -30 -107.001 -30h-79v10h79c39.333 0 72.833 9.16699 100.5 27.5s41.5 48.166 41.5 89.499c0 18.667 -2.66699 37.667 -8 57l-40 149l10 2z" />
    <glyph glyph-name="uniFE92.alt" horiz-adv-x="309" 
d="M225.5 38c19.667 -18.667 49.168 -27.999 88.501 -27.999v-10c-67.333 0 -109 28 -125 84c-6.66699 -26.667 -21.167 -47.334 -43.5 -62.001s-51.5 -22 -87.5 -22h-63v10h63c42 0 73.667 10 95 30s30.666 48.333 27.999 85v3l-11 123h10l11 -123
c3.33301 -41.333 14.833 -71.333 34.5 -90zM40.001 -133.999l25 25l24 -25l-24 -24z" />
    <glyph glyph-name="uniFE91.alt" horiz-adv-x="277" 
d="M227 127c0 -44.667 -15.332 -76.999 -45.999 -96.999s-66.334 -30 -107.001 -30h-79v10h79c39.333 0 72.833 9.16699 100.5 27.5s41.5 48.166 41.5 89.499c0 18.667 -2.66699 37.667 -8 57l-40 149l10 2l40 -149c6 -22 9 -41.667 9 -59zM93.001 -108.999l24 -25l-24 -24
l-25 24z" />
    <glyph glyph-name="uniFB59.alt" horiz-adv-x="368" 
d="M284.5 38c19.667 -18.667 49.168 -27.999 88.501 -27.999v-10c-67.333 0 -109 28 -125 84c-6.66699 -26.667 -21.167 -47.334 -43.5 -62.001s-51.5 -22 -87.5 -22h-122v10h122c42 0 73.667 10 95 30s30.666 48.333 27.999 85v3l-11 123h10l11 -123
c3.33301 -41.333 14.833 -71.333 34.5 -90zM65.001 -232.499c-4 4.33301 -6.66699 6.83301 -8 7.5l8 8l14 14l14 -14l8 -8c-1.33301 -0.666992 -4 -3.16699 -8 -7.5l-14 -14.5zM-11.999 -133.999l22 22l22 -22l-22 -22zM128.001 -133.999l22 22l22 -22l-22 -22z" />
    <glyph glyph-name="uniFB58.alt" horiz-adv-x="334" 
d="M284 126c0 -44 -15.333 -76 -46 -96s-66 -30 -106 -30h-137v10h137c38.667 0 72 9 100 27s42 47.667 42 89c0 16.667 -3 36 -9 58l-39 149l10 2l39 -149c6 -22 9 -42 9 -60zM40 -112l22 -22l-22 -22l-22 22zM180 -112l22 -22l-22 -22l-22 22zM123 -217l8 -8
c-1.33301 -0.666992 -4 -3.16699 -8 -7.5l-14 -14.5l-14 14.5c-4 4.33301 -6.66699 6.83301 -8 7.5l8 8l14 14z" />
    <glyph glyph-name="uniFEA2.001" horiz-adv-x="670" 
d="M104 0c-29.333 -40 -44 -83.001 -44 -129.001c0 -21.333 2.33301 -40.666 7 -57.999c12.667 -48 38.5 -86.333 77.5 -115s83.833 -43 134.5 -43c20 0 41.333 2.66699 64 8l256 71l2 -10l-256 -71c-19.333 -5.33301 -41 -8 -65 -8c-53.333 0 -100.5 15 -141.5 45
s-68.167 70.333 -81.5 121c-4.66699 17.333 -7 36.666 -7 57.999c0 48 15.333 93.333 46 136s84.667 74.334 162 95.001l350 96l-290 162c-24.667 14 -50.334 21 -77.001 21s-51.667 -7.16699 -75 -21.5s-43 -34.833 -59 -61.5l-18 -32l-8 4l18 33
c16 28 36.333 49.5 61 64.5s51.334 22.5 80.001 22.5c28 0 55.333 -7.33301 82 -22l298 -165l-3 -13l-357 -98c-74.667 -20 -126.667 -50 -156 -90z" />
    <glyph glyph-name="uniFEA2.002" horiz-adv-x="205" 
d="M83.5 22.5c-25.667 15 -45.999 35.332 -60.999 60.999s-22.5 53.834 -22.5 84.501h10c0 -28.667 7.16699 -55 21.5 -79s33.5 -43.167 57.5 -57.5s50.333 -21.5 79 -21.5h37v-10h-37c-30.667 0 -58.834 7.5 -84.501 22.5z" />
    <glyph glyph-name="uniFEAE.001" horiz-adv-x="128" 
d="M55 18c-14.667 12 -25 30.668 -31 56.001s-13.333 71.666 -22 138.999l9 2c8.66699 -65.333 15.834 -110.333 21.501 -135s15.167 -42.5 28.5 -53.5s34.666 -16.5 63.999 -16.5h8v-10h-8c-32 0 -55.333 6 -70 18z" />
    <glyph glyph-name="uniFEBC.001" horiz-adv-x="28" 
d="M-45.5 13c-19.667 8.66699 -35.833 19 -48.5 31l6 8c12 -12 27.333 -22 46 -30s39 -12 61 -12h14v-10h-14c-23.333 -0 -44.833 4.33301 -64.5 13z" />
    </font>
</defs>
</svg>
